<svg width="811" height="354" viewBox="0 0 811 354" fill="none" xmlns="http://www.w3.org/2000/svg">
<g clip-path="url(#clip0_4733_5960)">
<path d="M375.96 128.864H307.673L402.814 354L436.83 273.021L375.96 128.864Z" fill="#9C77B8"/>
<path d="M436.83 273.021L402.815 353.999H470.846L436.83 273.021Z" fill="#0BC9CD"/>
<path d="M276.471 129.114H213.3V353.999H276.471V129.114Z" fill="#7050A3"/>
<path d="M246.036 62.1756C263.551 62.1756 277.75 48.2571 277.75 31.0878C277.75 13.9185 263.551 0 246.036 0C228.521 0 214.323 13.9185 214.323 31.0878C214.323 48.2571 228.521 62.1756 246.036 62.1756Z" fill="#0BC9CD"/>
<path d="M133.504 226.389C123.018 222.127 112.021 218.617 101.023 215.608C91.0489 213.352 81.0744 210.093 71.6115 206.082C66.4964 204.076 63.1715 199.062 63.4273 193.546C62.9158 190.036 64.1946 186.526 66.4964 184.019C69.3097 181.512 72.6345 179.757 76.4708 178.754C81.0744 177.501 85.9338 176.999 90.7931 176.999C98.4658 177.25 106.138 179.256 112.788 183.016C121.228 187.028 129.156 192.543 135.806 199.062L141.688 204.828L174.681 168.726L170.333 163.712C160.103 151.427 146.292 142.151 130.947 136.886C117.392 131.872 102.814 129.114 88.2356 129.114C74.6805 129.114 61.3813 131.872 49.105 137.137C37.3403 142.151 26.8543 149.923 18.9259 159.701C10.9975 169.98 6.64964 182.515 7.16115 195.301C7.16115 211.346 11.509 224.634 19.9489 234.161C28.1331 243.437 38.3633 250.708 50.128 255.22C61.3813 259.733 72.6345 263.494 84.3992 266.753H84.655C91.3046 268.257 97.9543 270.012 104.604 272.268C109.207 273.773 113.3 276.029 116.88 279.038C119.182 281.294 120.461 284.553 120.205 287.812C120.461 291.322 119.438 294.832 117.136 297.59C114.578 300.348 111.254 302.604 107.673 303.607C103.837 305.111 99.4888 305.613 95.3967 305.863C85.1665 306.365 75.192 304.359 65.9849 300.097C57.8007 296.086 50.3838 290.319 44.2457 283.55L39.1306 277.784L0 310.627L4.60359 316.393C15.0896 329.681 29.1561 339.96 45.2687 345.726C60.1025 350.991 75.9593 353.749 92.0719 353.749C105.371 353.749 118.67 350.991 130.947 345.726C142.967 340.712 153.453 332.689 161.637 322.661C170.077 312.131 174.425 298.844 173.914 285.556C173.914 269.26 169.821 256.223 161.893 246.947C154.22 237.671 144.502 230.651 133.504 226.389Z" fill="#7050A3"/>
<path d="M565.986 128.864H497.7L436.83 273.021L470.845 354H402.815H470.845L565.986 128.864Z" fill="#7050A3"/>
<path d="M696.166 128.864C632.738 128.864 581.332 179.256 581.332 241.432C581.332 303.608 632.738 354 696.166 354C759.593 354 811 303.608 811 241.432C811 179.256 759.593 128.864 696.166 128.864ZM696.166 292.075C667.521 292.075 644.503 269.511 644.503 241.432C644.503 213.353 667.521 190.789 696.166 190.789C724.81 190.789 747.828 213.353 747.828 241.432C747.828 269.261 724.81 292.075 696.166 292.075Z" fill="#0BC9CD"/>
</g>
<defs>
<clipPath id="clip0_4733_5960">
<rect width="811" height="354" fill="white"/>
</clipPath>
</defs>
</svg>
