<svg width="194" height="183" viewBox="0 0 194 183" fill="none" xmlns="http://www.w3.org/2000/svg">
<path d="M90.6095 182.016C140.34 182.016 180.655 141.464 180.655 91.4406C180.655 41.4173 140.34 0.865479 90.6095 0.865479C40.8788 0.865479 0.564087 41.4173 0.564087 91.4406C0.564087 141.464 40.8788 182.016 90.6095 182.016Z" fill="url(#paint0_angular_42_177)"/>
<path fill-rule="evenodd" clip-rule="evenodd" d="M51.4132 173.235L75.7257 124.505L90.2799 102.447V0.865479C90.2799 0.865479 90.2799 0.865479 90.2799 0.865479C140.193 0.865479 180.655 41.4173 180.655 91.4406C180.655 141.464 140.193 182.016 90.2799 182.016C76.366 182.016 63.1865 178.864 51.4132 173.235Z" fill="#FF923D"/>
<path fill-rule="evenodd" clip-rule="evenodd" d="M175.604 33.7056L111.988 76.5018C111.988 76.5018 101.297 75.595 90.6095 74.7702V90.3793L176.859 143.879C187.284 128.397 193.367 109.759 193.367 89.7018C193.367 68.8526 186.794 49.5362 175.604 33.7056Z" fill="#191D58"/>
<path fill-rule="evenodd" clip-rule="evenodd" d="M90.6095 0.865479V90.9109L165.824 40.7035C149.564 16.6753 121.946 0.865479 90.6095 0.865479C90.6095 0.865479 90.6095 0.865479 90.6095 0.865479Z" fill="#01058A"/>
<path d="M127.179 91.4406C127.179 111.345 111.043 127.48 91.1392 127.48C71.2351 127.48 55.0997 111.345 55.0997 91.4406C55.0997 71.5365 71.2351 55.4011 91.1392 55.4011C111.043 55.4011 127.179 71.5365 127.179 91.4406Z" fill="url(#paint1_angular_42_177)" stroke="white" stroke-width="26.4414"/>
<path d="M119.374 23.036V30.9933H118.169V24.2404H118.123L116.219 25.4838V24.3337L118.204 23.036H119.374ZM124.153 31.1021C123.666 31.1021 123.228 31.0088 122.84 30.8223C122.454 30.6332 122.145 30.3742 121.915 30.0452C121.684 29.7163 121.561 29.3407 121.546 28.9185H122.711C122.74 29.2604 122.891 29.5414 123.166 29.7616C123.441 29.9818 123.769 30.0919 124.153 30.0919C124.458 30.0919 124.729 30.0219 124.965 29.882C125.203 29.7396 125.39 29.544 125.524 29.2954C125.662 29.0467 125.73 28.7631 125.73 28.4445C125.73 28.1207 125.66 27.8319 125.52 27.578C125.381 27.3242 125.188 27.1247 124.942 26.9797C124.698 26.8346 124.418 26.7608 124.102 26.7582C123.861 26.7582 123.619 26.7996 123.376 26.8825C123.132 26.9654 122.935 27.0742 122.785 27.2089L121.686 27.0457L122.132 23.036H126.507V24.0656H123.131L122.878 26.2919H122.925C123.08 26.1417 123.286 26.0161 123.543 25.9151C123.802 25.814 124.079 25.7635 124.374 25.7635C124.859 25.7635 125.29 25.8788 125.668 26.1093C126.049 26.3399 126.348 26.6546 126.566 27.0535C126.786 27.4498 126.895 27.9057 126.892 28.4211C126.895 28.9366 126.778 29.3964 126.542 29.8005C126.309 30.2045 125.985 30.5231 125.571 30.7563C125.159 30.9868 124.686 31.1021 124.153 31.1021ZM132.465 29.5013V29.0817C132.465 28.7812 132.527 28.5066 132.651 28.258C132.778 28.0067 132.962 27.8059 133.203 27.6557C133.446 27.5029 133.74 27.4265 134.085 27.4265C134.437 27.4265 134.732 27.5016 134.971 27.6518C135.209 27.8021 135.389 28.0028 135.511 28.2541C135.635 28.5053 135.697 28.7812 135.697 29.0817V29.5013C135.697 29.8017 135.635 30.0776 135.511 30.3289C135.386 30.5775 135.204 30.7783 134.963 30.9311C134.725 31.0813 134.432 31.1565 134.085 31.1565C133.735 31.1565 133.44 31.0813 133.199 30.9311C132.958 30.7783 132.776 30.5775 132.651 30.3289C132.527 30.0776 132.465 29.8017 132.465 29.5013ZM133.37 29.0817V29.5013C133.37 29.724 133.423 29.9261 133.529 30.1074C133.635 30.2887 133.821 30.3794 134.085 30.3794C134.346 30.3794 134.529 30.2887 134.633 30.1074C134.736 29.9261 134.788 29.724 134.788 29.5013V29.0817C134.788 28.8589 134.738 28.6569 134.637 28.4755C134.538 28.2942 134.354 28.2036 134.085 28.2036C133.826 28.2036 133.642 28.2942 133.533 28.4755C133.424 28.6569 133.37 28.8589 133.37 29.0817ZM128.463 24.9476V24.528C128.463 24.2275 128.525 23.9516 128.649 23.7004C128.776 23.4491 128.96 23.2484 129.201 23.0981C129.444 22.9479 129.738 22.8728 130.083 22.8728C130.435 22.8728 130.73 22.9479 130.969 23.0981C131.207 23.2484 131.387 23.4491 131.509 23.7004C131.631 23.9516 131.691 24.2275 131.691 24.528V24.9476C131.691 25.2481 131.629 25.5239 131.505 25.7752C131.383 26.0238 131.202 26.2246 130.961 26.3774C130.723 26.5277 130.43 26.6028 130.083 26.6028C129.731 26.6028 129.434 26.5277 129.193 26.3774C128.955 26.2246 128.774 26.0238 128.649 25.7752C128.525 25.5239 128.463 25.2481 128.463 24.9476ZM129.372 24.528V24.9476C129.372 25.1704 129.424 25.3724 129.527 25.5537C129.634 25.735 129.819 25.8257 130.083 25.8257C130.342 25.8257 130.523 25.735 130.627 25.5537C130.733 25.3724 130.786 25.1704 130.786 24.9476V24.528C130.786 24.3052 130.736 24.1032 130.635 23.9218C130.534 23.7405 130.35 23.6499 130.083 23.6499C129.824 23.6499 129.64 23.7405 129.531 23.9218C129.425 24.1032 129.372 24.3052 129.372 24.528ZM128.832 30.9933L134.302 23.036H135.231L129.76 30.9933H128.832Z" fill="white"/>
<path d="M161.615 83.4194V91.3767H160.41V84.6239H160.363L158.46 85.8672V84.7171L160.445 83.4194H161.615ZM166.537 91.4855C166.004 91.4855 165.527 91.3935 165.108 91.2096C164.691 91.0257 164.36 90.7706 164.117 90.4442C163.876 90.1152 163.746 89.7345 163.728 89.3019H164.948C164.964 89.5376 165.043 89.7422 165.185 89.9158C165.33 90.0867 165.519 90.2188 165.753 90.3121C165.986 90.4053 166.245 90.452 166.53 90.452C166.843 90.452 167.12 90.3976 167.361 90.2888C167.605 90.18 167.795 90.0284 167.932 89.8342C168.07 89.6373 168.138 89.4107 168.138 89.1542C168.138 88.8874 168.07 88.653 167.932 88.451C167.798 88.2463 167.599 88.0857 167.338 87.9692C167.079 87.8526 166.765 87.7943 166.397 87.7943H165.725V86.8152H166.397C166.693 86.8152 166.952 86.7621 167.175 86.6559C167.4 86.5497 167.576 86.4021 167.703 86.213C167.83 86.0213 167.893 85.7972 167.893 85.5408C167.893 85.2947 167.838 85.081 167.726 84.8997C167.618 84.7158 167.462 84.5721 167.26 84.4684C167.061 84.3648 166.825 84.313 166.553 84.313C166.294 84.313 166.052 84.3609 165.826 84.4568C165.604 84.55 165.422 84.6847 165.282 84.8609C165.143 85.0344 165.067 85.2429 165.057 85.4864H163.895C163.908 85.0564 164.035 84.6783 164.276 84.3519C164.52 84.0255 164.841 83.7704 165.24 83.5865C165.639 83.4025 166.081 83.3106 166.568 83.3106C167.079 83.3106 167.519 83.4103 167.889 83.6098C168.262 83.8066 168.55 84.0695 168.752 84.3985C168.957 84.7275 169.058 85.0875 169.055 85.4786C169.058 85.9242 168.933 86.3023 168.682 86.6132C168.433 86.924 168.102 87.1325 167.687 87.2387V87.3009C168.216 87.3812 168.625 87.591 168.915 87.9303C169.208 88.2697 169.353 88.6906 169.35 89.1931C169.353 89.6308 169.231 90.0233 168.985 90.3704C168.742 90.7175 168.409 90.9907 167.987 91.1902C167.564 91.387 167.081 91.4855 166.537 91.4855ZM174.973 89.8847V89.4651C174.973 89.1646 175.035 88.89 175.159 88.6414C175.286 88.3901 175.47 88.1894 175.711 88.0391C175.954 87.8863 176.248 87.8099 176.593 87.8099C176.945 87.8099 177.24 87.885 177.479 88.0352C177.717 88.1855 177.897 88.3862 178.019 88.6375C178.143 88.8887 178.205 89.1646 178.205 89.4651V89.8847C178.205 90.1852 178.143 90.461 178.019 90.7123C177.894 90.9609 177.712 91.1617 177.471 91.3145C177.233 91.4647 176.94 91.5399 176.593 91.5399C176.243 91.5399 175.948 91.4647 175.707 91.3145C175.466 91.1617 175.283 90.9609 175.159 90.7123C175.035 90.461 174.973 90.1852 174.973 89.8847ZM175.878 89.4651V89.8847C175.878 90.1074 175.931 90.3095 176.037 90.4908C176.143 90.6721 176.329 90.7628 176.593 90.7628C176.854 90.7628 177.037 90.6721 177.141 90.4908C177.244 90.3095 177.296 90.1074 177.296 89.8847V89.4651C177.296 89.2423 177.246 89.0403 177.144 88.8589C177.046 88.6776 176.862 88.587 176.593 88.587C176.334 88.587 176.15 88.6776 176.041 88.8589C175.932 89.0403 175.878 89.2423 175.878 89.4651ZM170.971 85.331V84.9114C170.971 84.6109 171.033 84.335 171.157 84.0838C171.284 83.8325 171.468 83.6318 171.709 83.4816C171.952 83.3313 172.246 83.2562 172.591 83.2562C172.943 83.2562 173.238 83.3313 173.477 83.4816C173.715 83.6318 173.895 83.8325 174.017 84.0838C174.138 84.335 174.199 84.6109 174.199 84.9114V85.331C174.199 85.6315 174.137 85.9073 174.013 86.1586C173.891 86.4073 173.71 86.608 173.469 86.7608C173.231 86.9111 172.938 86.9862 172.591 86.9862C172.239 86.9862 171.942 86.9111 171.701 86.7608C171.463 86.608 171.281 86.4073 171.157 86.1586C171.033 85.9073 170.971 85.6315 170.971 85.331ZM171.88 84.9114V85.331C171.88 85.5538 171.932 85.7558 172.035 85.9371C172.141 86.1184 172.327 86.2091 172.591 86.2091C172.85 86.2091 173.031 86.1184 173.135 85.9371C173.241 85.7558 173.294 85.5538 173.294 85.331V84.9114C173.294 84.6886 173.244 84.4866 173.143 84.3053C173.042 84.1239 172.858 84.0333 172.591 84.0333C172.332 84.0333 172.148 84.1239 172.039 84.3053C171.933 84.4866 171.88 84.6886 171.88 84.9114ZM171.34 91.3767L176.81 83.4194H177.739L172.268 91.3767H171.34Z" fill="white"/>
<path d="M98.5717 159.176V158.305L101.264 155.515C101.552 155.212 101.789 154.947 101.975 154.719C102.164 154.488 102.306 154.27 102.399 154.062C102.492 153.855 102.539 153.635 102.539 153.402C102.539 153.138 102.477 152.91 102.352 152.718C102.228 152.524 102.058 152.375 101.843 152.271C101.628 152.165 101.386 152.112 101.117 152.112C100.832 152.112 100.583 152.17 100.371 152.287C100.158 152.403 99.9951 152.568 99.8811 152.78C99.7671 152.993 99.7101 153.241 99.7101 153.526H98.5639C98.5639 153.042 98.6753 152.618 98.8981 152.256C99.1209 151.893 99.4265 151.612 99.815 151.413C100.204 151.21 100.645 151.109 101.14 151.109C101.64 151.109 102.08 151.209 102.461 151.409C102.844 151.605 103.144 151.875 103.359 152.217C103.574 152.556 103.681 152.939 103.681 153.367C103.681 153.662 103.625 153.951 103.514 154.233C103.405 154.516 103.215 154.83 102.943 155.177C102.671 155.522 102.293 155.94 101.808 156.432L100.227 158.088V158.146H103.809V159.176H98.5717ZM107.97 159.284C107.414 159.284 106.921 159.188 106.494 158.997C106.069 158.805 105.736 158.541 105.495 158.204C105.255 157.867 105.135 157.484 105.138 157.054C105.135 156.717 105.204 156.408 105.344 156.125C105.486 155.841 105.679 155.604 105.923 155.414C106.166 155.223 106.438 155.101 106.739 155.049V155.003C106.343 154.907 106.025 154.694 105.787 154.365C105.549 154.036 105.431 153.658 105.433 153.231C105.431 152.824 105.538 152.462 105.756 152.143C105.976 151.822 106.278 151.569 106.661 151.385C107.044 151.201 107.481 151.109 107.97 151.109C108.455 151.109 108.887 151.203 109.268 151.389C109.652 151.573 109.953 151.826 110.174 152.147C110.394 152.465 110.505 152.827 110.508 153.231C110.505 153.658 110.383 154.036 110.142 154.365C109.902 154.694 109.588 154.907 109.202 155.003V155.049C109.5 155.101 109.768 155.223 110.006 155.414C110.247 155.604 110.439 155.841 110.581 156.125C110.727 156.408 110.8 156.717 110.803 157.054C110.8 157.484 110.679 157.867 110.438 158.204C110.197 158.541 109.863 158.805 109.435 158.997C109.01 159.188 108.522 159.284 107.97 159.284ZM107.97 158.301C108.299 158.301 108.584 158.247 108.825 158.138C109.066 158.027 109.253 157.873 109.385 157.676C109.517 157.476 109.584 157.243 109.587 156.976C109.584 156.699 109.512 156.454 109.369 156.242C109.229 156.03 109.039 155.863 108.798 155.741C108.557 155.619 108.281 155.558 107.97 155.558C107.657 155.558 107.379 155.619 107.135 155.741C106.892 155.863 106.7 156.03 106.56 156.242C106.42 156.454 106.352 156.699 106.354 156.976C106.352 157.243 106.415 157.476 106.545 157.676C106.677 157.873 106.864 158.027 107.108 158.138C107.351 158.247 107.639 158.301 107.97 158.301ZM107.97 154.599C108.235 154.599 108.469 154.545 108.674 154.439C108.878 154.333 109.039 154.185 109.156 153.996C109.275 153.807 109.336 153.586 109.338 153.332C109.336 153.083 109.276 152.866 109.159 152.679C109.045 152.493 108.886 152.349 108.682 152.248C108.477 152.144 108.24 152.092 107.97 152.092C107.696 152.092 107.455 152.144 107.248 152.248C107.043 152.349 106.884 152.493 106.77 152.679C106.656 152.866 106.6 153.083 106.603 153.332C106.6 153.586 106.657 153.807 106.774 153.996C106.89 154.185 107.051 154.333 107.256 154.439C107.463 154.545 107.701 154.599 107.97 154.599ZM116.348 157.684V157.264C116.348 156.963 116.411 156.689 116.535 156.44C116.662 156.189 116.846 155.988 117.087 155.838C117.33 155.685 117.624 155.609 117.969 155.609C118.321 155.609 118.616 155.684 118.854 155.834C119.093 155.984 119.273 156.185 119.395 156.436C119.519 156.688 119.581 156.963 119.581 157.264V157.684C119.581 157.984 119.519 158.26 119.395 158.511C119.27 158.76 119.088 158.961 118.847 159.113C118.608 159.264 118.316 159.339 117.969 159.339C117.619 159.339 117.324 159.264 117.083 159.113C116.842 158.961 116.659 158.76 116.535 158.511C116.411 158.26 116.348 157.984 116.348 157.684ZM117.254 157.264V157.684C117.254 157.906 117.307 158.108 117.413 158.29C117.519 158.471 117.704 158.562 117.969 158.562C118.23 158.562 118.413 158.471 118.516 158.29C118.62 158.108 118.672 157.906 118.672 157.684V157.264C118.672 157.041 118.621 156.839 118.52 156.658C118.422 156.476 118.238 156.386 117.969 156.386C117.71 156.386 117.526 156.476 117.417 156.658C117.308 156.839 117.254 157.041 117.254 157.264ZM112.346 153.13V152.71C112.346 152.41 112.409 152.134 112.533 151.883C112.66 151.631 112.844 151.431 113.085 151.28C113.328 151.13 113.622 151.055 113.967 151.055C114.319 151.055 114.614 151.13 114.853 151.28C115.091 151.431 115.271 151.631 115.393 151.883C115.514 152.134 115.575 152.41 115.575 152.71V153.13C115.575 153.43 115.513 153.706 115.389 153.957C115.267 154.206 115.086 154.407 114.845 154.56C114.606 154.71 114.314 154.785 113.967 154.785C113.614 154.785 113.318 154.71 113.077 154.56C112.839 154.407 112.657 154.206 112.533 153.957C112.409 153.706 112.346 153.43 112.346 153.13ZM113.256 152.71V153.13C113.256 153.353 113.307 153.555 113.411 153.736C113.517 153.917 113.702 154.008 113.967 154.008C114.226 154.008 114.407 153.917 114.511 153.736C114.617 153.555 114.67 153.353 114.67 153.13V152.71C114.67 152.487 114.619 152.285 114.518 152.104C114.417 151.923 114.233 151.832 113.967 151.832C113.708 151.832 113.524 151.923 113.415 152.104C113.309 152.285 113.256 152.487 113.256 152.71ZM112.716 159.176L118.186 151.218H119.115L113.644 159.176H112.716Z" fill="white"/>
<defs>
<radialGradient id="paint0_angular_42_177" cx="0" cy="0" r="1" gradientUnits="userSpaceOnUse" gradientTransform="translate(90.6095 91.4406) rotate(90) scale(90.5751 90.0454)">
<stop stop-color="#F8F8FC"/>
<stop offset="1" stop-color="#F8F8FC" stop-opacity="0"/>
</radialGradient>
<radialGradient id="paint1_angular_42_177" cx="0" cy="0" r="1" gradientUnits="userSpaceOnUse" gradientTransform="translate(91.1392 91.4406) rotate(90) scale(49.2601)">
<stop stop-color="#F8F8FC"/>
<stop offset="1" stop-color="#F8F8FC" stop-opacity="0"/>
</radialGradient>
</defs>
</svg>
