<svg width="296" height="375" viewBox="0 0 296 375" fill="none" xmlns="http://www.w3.org/2000/svg">
<rect x="0.925369" y="0.850723" width="294.08" height="372.915" rx="5.01475" fill="white" stroke="#E7E8F2" stroke-width="0.911773"/>
<path d="M141.609 261.016C191.34 261.016 231.655 220.464 231.655 170.441C231.655 120.417 191.34 79.8655 141.609 79.8655C91.8788 79.8655 51.5641 120.417 51.5641 170.441C51.5641 220.464 91.8788 261.016 141.609 261.016Z" fill="url(#paint0_angular_42_175)"/>
<path fill-rule="evenodd" clip-rule="evenodd" d="M102.413 252.235L126.726 203.505L141.28 181.447V79.8655C141.28 79.8655 141.28 79.8655 141.28 79.8655C191.193 79.8655 231.655 120.417 231.655 170.441C231.655 220.464 191.193 261.016 141.28 261.016C127.366 261.016 114.187 257.864 102.413 252.235Z" fill="#FF923D"/>
<path fill-rule="evenodd" clip-rule="evenodd" d="M226.604 112.706L162.988 155.502C162.988 155.502 152.297 154.595 141.609 153.77V169.379L227.859 222.879C238.284 207.397 244.367 188.759 244.367 168.702C244.367 147.853 237.794 128.536 226.604 112.706Z" fill="#191D58"/>
<path fill-rule="evenodd" clip-rule="evenodd" d="M141.609 79.8655V169.911L216.824 119.703C200.564 95.6753 172.946 79.8655 141.61 79.8655C141.61 79.8655 141.61 79.8655 141.609 79.8655Z" fill="#01058A"/>
<path d="M178.179 170.441C178.179 190.345 162.043 206.48 142.139 206.48C122.235 206.48 106.1 190.345 106.1 170.441C106.1 150.537 122.235 134.401 142.139 134.401C162.043 134.401 178.179 150.537 178.179 170.441Z" fill="url(#paint1_angular_42_175)" stroke="white" stroke-width="26.4414"/>
<path d="M170.374 102.036V109.993H169.169V103.24H169.123L167.219 104.484V103.334L169.204 102.036H170.374ZM175.153 110.102C174.666 110.102 174.228 110.009 173.84 109.822C173.454 109.633 173.145 109.374 172.915 109.045C172.684 108.716 172.561 108.341 172.546 107.918H173.711C173.74 108.26 173.891 108.541 174.166 108.762C174.441 108.982 174.769 109.092 175.153 109.092C175.458 109.092 175.729 109.022 175.965 108.882C176.203 108.74 176.39 108.544 176.524 108.295C176.662 108.047 176.73 107.763 176.73 107.444C176.73 107.121 176.66 106.832 176.52 106.578C176.381 106.324 176.188 106.125 175.942 105.98C175.698 105.835 175.418 105.761 175.102 105.758C174.861 105.758 174.619 105.8 174.376 105.883C174.132 105.965 173.935 106.074 173.785 106.209L172.686 106.046L173.132 102.036H177.507V103.066H174.131L173.878 105.292H173.925C174.08 105.142 174.286 105.016 174.543 104.915C174.802 104.814 175.079 104.764 175.374 104.764C175.859 104.764 176.29 104.879 176.668 105.109C177.049 105.34 177.348 105.655 177.566 106.053C177.786 106.45 177.895 106.906 177.892 107.421C177.895 107.937 177.778 108.396 177.542 108.8C177.309 109.205 176.985 109.523 176.571 109.756C176.159 109.987 175.686 110.102 175.153 110.102ZM183.465 108.501V108.082C183.465 107.781 183.527 107.507 183.651 107.258C183.778 107.007 183.962 106.806 184.203 106.656C184.446 106.503 184.74 106.426 185.085 106.426C185.437 106.426 185.732 106.502 185.971 106.652C186.209 106.802 186.389 107.003 186.511 107.254C186.635 107.505 186.697 107.781 186.697 108.082V108.501C186.697 108.802 186.635 109.078 186.511 109.329C186.386 109.578 186.204 109.778 185.963 109.931C185.725 110.081 185.432 110.156 185.085 110.156C184.735 110.156 184.44 110.081 184.199 109.931C183.958 109.778 183.776 109.578 183.651 109.329C183.527 109.078 183.465 108.802 183.465 108.501ZM184.37 108.082V108.501C184.37 108.724 184.423 108.926 184.529 109.107C184.635 109.289 184.821 109.379 185.085 109.379C185.346 109.379 185.529 109.289 185.633 109.107C185.736 108.926 185.788 108.724 185.788 108.501V108.082C185.788 107.859 185.738 107.657 185.637 107.476C185.538 107.294 185.354 107.204 185.085 107.204C184.826 107.204 184.642 107.294 184.533 107.476C184.424 107.657 184.37 107.859 184.37 108.082ZM179.463 103.948V103.528C179.463 103.227 179.525 102.952 179.649 102.7C179.776 102.449 179.96 102.248 180.201 102.098C180.444 101.948 180.738 101.873 181.083 101.873C181.435 101.873 181.73 101.948 181.969 102.098C182.207 102.248 182.387 102.449 182.509 102.7C182.631 102.952 182.691 103.227 182.691 103.528V103.948C182.691 104.248 182.629 104.524 182.505 104.775C182.383 105.024 182.202 105.225 181.961 105.377C181.723 105.528 181.43 105.603 181.083 105.603C180.731 105.603 180.434 105.528 180.193 105.377C179.955 105.225 179.774 105.024 179.649 104.775C179.525 104.524 179.463 104.248 179.463 103.948ZM180.372 103.528V103.948C180.372 104.17 180.424 104.372 180.527 104.554C180.634 104.735 180.819 104.826 181.083 104.826C181.342 104.826 181.523 104.735 181.627 104.554C181.733 104.372 181.786 104.17 181.786 103.948V103.528C181.786 103.305 181.736 103.103 181.635 102.922C181.534 102.741 181.35 102.65 181.083 102.65C180.824 102.65 180.64 102.741 180.531 102.922C180.425 103.103 180.372 103.305 180.372 103.528ZM179.832 109.993L185.302 102.036H186.231L180.76 109.993H179.832Z" fill="white"/>
<path d="M212.615 162.419V170.377H211.41V163.624H211.363L209.46 164.867V163.717L211.445 162.419H212.615ZM217.537 170.485C217.004 170.485 216.527 170.394 216.108 170.21C215.691 170.026 215.36 169.771 215.117 169.444C214.876 169.115 214.746 168.734 214.728 168.302H215.948C215.964 168.538 216.043 168.742 216.185 168.916C216.33 169.087 216.519 169.219 216.753 169.312C216.986 169.405 217.245 169.452 217.53 169.452C217.843 169.452 218.12 169.398 218.361 169.289C218.605 169.18 218.795 169.028 218.932 168.834C219.07 168.637 219.138 168.411 219.138 168.154C219.138 167.887 219.07 167.653 218.932 167.451C218.798 167.246 218.599 167.086 218.338 166.969C218.079 166.853 217.765 166.794 217.397 166.794H216.725V165.815H217.397C217.693 165.815 217.952 165.762 218.175 165.656C218.4 165.55 218.576 165.402 218.703 165.213C218.83 165.021 218.893 164.797 218.893 164.541C218.893 164.295 218.838 164.081 218.726 163.9C218.618 163.716 218.462 163.572 218.26 163.468C218.061 163.365 217.825 163.313 217.553 163.313C217.294 163.313 217.052 163.361 216.826 163.457C216.604 163.55 216.422 163.685 216.282 163.861C216.143 164.034 216.067 164.243 216.057 164.486H214.895C214.908 164.056 215.035 163.678 215.276 163.352C215.52 163.026 215.841 162.77 216.24 162.586C216.639 162.403 217.081 162.311 217.568 162.311C218.079 162.311 218.519 162.41 218.889 162.61C219.262 162.807 219.55 163.07 219.752 163.399C219.957 163.727 220.058 164.088 220.055 164.479C220.058 164.924 219.933 165.302 219.682 165.613C219.433 165.924 219.102 166.133 218.687 166.239V166.301C219.216 166.381 219.625 166.591 219.915 166.93C220.208 167.27 220.353 167.691 220.35 168.193C220.353 168.631 220.231 169.023 219.985 169.37C219.742 169.717 219.409 169.991 218.987 170.19C218.564 170.387 218.081 170.485 217.537 170.485ZM225.973 168.885V168.465C225.973 168.165 226.035 167.89 226.159 167.641C226.286 167.39 226.47 167.189 226.711 167.039C226.954 166.886 227.248 166.81 227.593 166.81C227.945 166.81 228.24 166.885 228.479 167.035C228.717 167.185 228.897 167.386 229.019 167.637C229.143 167.889 229.205 168.165 229.205 168.465V168.885C229.205 169.185 229.143 169.461 229.019 169.712C228.894 169.961 228.712 170.162 228.471 170.315C228.233 170.465 227.94 170.54 227.593 170.54C227.243 170.54 226.948 170.465 226.707 170.315C226.466 170.162 226.283 169.961 226.159 169.712C226.035 169.461 225.973 169.185 225.973 168.885ZM226.878 168.465V168.885C226.878 169.107 226.931 169.309 227.037 169.491C227.143 169.672 227.329 169.763 227.593 169.763C227.854 169.763 228.037 169.672 228.141 169.491C228.244 169.309 228.296 169.107 228.296 168.885V168.465C228.296 168.242 228.246 168.04 228.144 167.859C228.046 167.678 227.862 167.587 227.593 167.587C227.334 167.587 227.15 167.678 227.041 167.859C226.932 168.04 226.878 168.242 226.878 168.465ZM221.971 164.331V163.911C221.971 163.611 222.033 163.335 222.157 163.084C222.284 162.833 222.468 162.632 222.709 162.482C222.952 162.331 223.246 162.256 223.591 162.256C223.943 162.256 224.238 162.331 224.477 162.482C224.715 162.632 224.895 162.833 225.017 163.084C225.138 163.335 225.199 163.611 225.199 163.911V164.331C225.199 164.631 225.137 164.907 225.013 165.159C224.891 165.407 224.71 165.608 224.469 165.761C224.231 165.911 223.938 165.986 223.591 165.986C223.239 165.986 222.942 165.911 222.701 165.761C222.463 165.608 222.281 165.407 222.157 165.159C222.033 164.907 221.971 164.631 221.971 164.331ZM222.88 163.911V164.331C222.88 164.554 222.932 164.756 223.035 164.937C223.141 165.118 223.327 165.209 223.591 165.209C223.85 165.209 224.031 165.118 224.135 164.937C224.241 164.756 224.294 164.554 224.294 164.331V163.911C224.294 163.689 224.244 163.487 224.143 163.305C224.042 163.124 223.858 163.033 223.591 163.033C223.332 163.033 223.148 163.124 223.039 163.305C222.933 163.487 222.88 163.689 222.88 163.911ZM222.34 170.377L227.81 162.419H228.739L223.268 170.377H222.34Z" fill="white"/>
<path d="M149.572 238.176V237.305L152.264 234.515C152.552 234.212 152.789 233.947 152.975 233.719C153.164 233.488 153.306 233.27 153.399 233.062C153.492 232.855 153.539 232.635 153.539 232.402C153.539 232.138 153.477 231.91 153.352 231.718C153.228 231.524 153.058 231.375 152.843 231.271C152.628 231.165 152.386 231.112 152.117 231.112C151.832 231.112 151.583 231.17 151.371 231.287C151.158 231.403 150.995 231.568 150.881 231.78C150.767 231.993 150.71 232.241 150.71 232.526H149.564C149.564 232.042 149.675 231.618 149.898 231.256C150.121 230.893 150.427 230.612 150.815 230.413C151.204 230.21 151.645 230.109 152.14 230.109C152.64 230.109 153.08 230.209 153.461 230.409C153.844 230.605 154.144 230.875 154.359 231.217C154.574 231.556 154.681 231.939 154.681 232.367C154.681 232.662 154.625 232.951 154.514 233.233C154.405 233.516 154.215 233.83 153.943 234.177C153.671 234.522 153.293 234.94 152.808 235.432L151.227 237.088V237.146H154.809V238.176H149.572ZM158.97 238.284C158.414 238.284 157.921 238.188 157.494 237.997C157.069 237.805 156.736 237.541 156.495 237.204C156.255 236.867 156.135 236.484 156.138 236.054C156.135 235.717 156.204 235.408 156.344 235.125C156.486 234.841 156.679 234.604 156.923 234.414C157.166 234.223 157.438 234.101 157.739 234.049V234.003C157.343 233.907 157.025 233.694 156.787 233.365C156.549 233.036 156.431 232.658 156.433 232.231C156.431 231.824 156.538 231.462 156.756 231.143C156.976 230.822 157.278 230.569 157.661 230.385C158.044 230.201 158.481 230.109 158.97 230.109C159.455 230.109 159.887 230.203 160.268 230.389C160.652 230.573 160.953 230.826 161.174 231.147C161.394 231.465 161.505 231.827 161.508 232.231C161.505 232.658 161.383 233.036 161.142 233.365C160.902 233.694 160.588 233.907 160.202 234.003V234.049C160.5 234.101 160.768 234.223 161.006 234.414C161.247 234.604 161.439 234.841 161.581 235.125C161.727 235.408 161.8 235.717 161.803 236.054C161.8 236.484 161.679 236.867 161.438 237.204C161.197 237.541 160.863 237.805 160.435 237.997C160.01 238.188 159.522 238.284 158.97 238.284ZM158.97 237.301C159.299 237.301 159.584 237.247 159.825 237.138C160.066 237.027 160.253 236.873 160.385 236.676C160.517 236.476 160.584 236.243 160.587 235.976C160.584 235.699 160.512 235.454 160.369 235.242C160.229 235.03 160.039 234.863 159.798 234.741C159.557 234.619 159.281 234.558 158.97 234.558C158.657 234.558 158.379 234.619 158.135 234.741C157.892 234.863 157.7 235.03 157.56 235.242C157.42 235.454 157.352 235.699 157.354 235.976C157.352 236.243 157.415 236.476 157.545 236.676C157.677 236.873 157.864 237.027 158.108 237.138C158.351 237.247 158.639 237.301 158.97 237.301ZM158.97 233.599C159.235 233.599 159.469 233.545 159.674 233.439C159.878 233.333 160.039 233.185 160.156 232.996C160.275 232.807 160.336 232.586 160.338 232.332C160.336 232.083 160.276 231.866 160.159 231.679C160.045 231.493 159.886 231.349 159.682 231.248C159.477 231.144 159.24 231.092 158.97 231.092C158.696 231.092 158.455 231.144 158.248 231.248C158.043 231.349 157.884 231.493 157.77 231.679C157.656 231.866 157.6 232.083 157.603 232.332C157.6 232.586 157.657 232.807 157.774 232.996C157.89 233.185 158.051 233.333 158.256 233.439C158.463 233.545 158.701 233.599 158.97 233.599ZM167.348 236.684V236.264C167.348 235.963 167.411 235.689 167.535 235.44C167.662 235.189 167.846 234.988 168.087 234.838C168.33 234.685 168.624 234.609 168.969 234.609C169.321 234.609 169.616 234.684 169.854 234.834C170.093 234.984 170.273 235.185 170.395 235.436C170.519 235.688 170.581 235.963 170.581 236.264V236.684C170.581 236.984 170.519 237.26 170.395 237.511C170.27 237.76 170.088 237.961 169.847 238.113C169.608 238.264 169.316 238.339 168.969 238.339C168.619 238.339 168.324 238.264 168.083 238.113C167.842 237.961 167.659 237.76 167.535 237.511C167.411 237.26 167.348 236.984 167.348 236.684ZM168.254 236.264V236.684C168.254 236.906 168.307 237.108 168.413 237.29C168.519 237.471 168.704 237.562 168.969 237.562C169.23 237.562 169.413 237.471 169.516 237.29C169.62 237.108 169.672 236.906 169.672 236.684V236.264C169.672 236.041 169.621 235.839 169.52 235.658C169.422 235.476 169.238 235.386 168.969 235.386C168.71 235.386 168.526 235.476 168.417 235.658C168.308 235.839 168.254 236.041 168.254 236.264ZM163.346 232.13V231.71C163.346 231.41 163.409 231.134 163.533 230.883C163.66 230.631 163.844 230.431 164.085 230.28C164.328 230.13 164.622 230.055 164.967 230.055C165.319 230.055 165.614 230.13 165.853 230.28C166.091 230.431 166.271 230.631 166.393 230.883C166.514 231.134 166.575 231.41 166.575 231.71V232.13C166.575 232.43 166.513 232.706 166.389 232.957C166.267 233.206 166.086 233.407 165.845 233.56C165.606 233.71 165.314 233.785 164.967 233.785C164.614 233.785 164.318 233.71 164.077 233.56C163.839 233.407 163.657 233.206 163.533 232.957C163.409 232.706 163.346 232.43 163.346 232.13ZM164.256 231.71V232.13C164.256 232.353 164.307 232.555 164.411 232.736C164.517 232.917 164.702 233.008 164.967 233.008C165.226 233.008 165.407 232.917 165.511 232.736C165.617 232.555 165.67 232.353 165.67 232.13V231.71C165.67 231.487 165.619 231.285 165.518 231.104C165.417 230.923 165.233 230.832 164.967 230.832C164.708 230.832 164.524 230.923 164.415 231.104C164.309 231.285 164.256 231.487 164.256 231.71ZM163.716 238.176L169.186 230.218H170.115L164.644 238.176H163.716Z" fill="white"/>
<path opacity="0.402121" d="M43.1083 335.074H40.4481V326.454H43.2261C44.0623 326.454 44.7779 326.627 45.3728 326.972C45.9677 327.314 46.4237 327.807 46.7408 328.449C47.0579 329.089 47.2164 329.855 47.2164 330.747C47.2164 331.645 47.0565 332.418 46.7366 333.067C46.4167 333.712 45.9509 334.209 45.3391 334.557C44.7274 334.902 43.9838 335.074 43.1083 335.074ZM41.4919 334.148H43.0409C43.7537 334.148 44.3444 334.011 44.813 333.736C45.2816 333.461 45.631 333.069 45.8611 332.561C46.0912 332.054 46.2062 331.449 46.2062 330.747C46.2062 330.051 46.0926 329.452 45.8653 328.95C45.638 328.445 45.2984 328.058 44.8466 327.788C44.3949 327.516 43.8322 327.38 43.1588 327.38H41.4919V334.148ZM48.8327 335.074V328.609H49.8261V335.074H48.8327ZM49.3378 327.532C49.1442 327.532 48.9773 327.466 48.8369 327.334C48.6994 327.202 48.6307 327.043 48.6307 326.858C48.6307 326.673 48.6994 326.514 48.8369 326.382C48.9773 326.251 49.1442 326.185 49.3378 326.185C49.5315 326.185 49.697 326.251 49.8345 326.382C49.9748 326.514 50.045 326.673 50.045 326.858C50.045 327.043 49.9748 327.202 49.8345 327.334C49.697 327.466 49.5315 327.532 49.3378 327.532ZM56.9323 328.609L54.5414 335.074H53.5312L51.1404 328.609H52.218L54.0027 333.761H54.07L55.8547 328.609H56.9323ZM58.2434 335.074V328.609H59.2368V335.074H58.2434ZM58.7485 327.532C58.5549 327.532 58.3879 327.466 58.2476 327.334C58.1101 327.202 58.0414 327.043 58.0414 326.858C58.0414 326.673 58.1101 326.514 58.2476 326.382C58.3879 326.251 58.5549 326.185 58.7485 326.185C58.9421 326.185 59.1077 326.251 59.2452 326.382C59.3855 326.514 59.4557 326.673 59.4557 326.858C59.4557 327.043 59.3855 327.202 59.2452 327.334C59.1077 327.466 58.9421 327.532 58.7485 327.532ZM63.4975 335.209C62.9588 335.209 62.4831 335.073 62.0706 334.801C61.6581 334.526 61.3354 334.139 61.1025 333.639C60.8696 333.137 60.7531 332.543 60.7531 331.859C60.7531 331.179 60.8696 330.59 61.1025 330.091C61.3354 329.591 61.6595 329.205 62.0748 328.933C62.4901 328.661 62.97 328.525 63.5144 328.525C63.9353 328.525 64.2678 328.595 64.5119 328.735C64.7589 328.873 64.9469 329.03 65.076 329.207C65.2079 329.381 65.3103 329.524 65.3832 329.636H65.4674V326.454H66.4608V335.074H65.5011V334.081H65.3832C65.3103 334.199 65.2065 334.348 65.0718 334.527C64.9371 334.704 64.7448 334.863 64.4951 335.003C64.2454 335.14 63.9128 335.209 63.4975 335.209ZM63.6322 334.317C64.0307 334.317 64.3674 334.213 64.6424 334.005C64.9174 333.795 65.1265 333.504 65.2696 333.134C65.4127 332.761 65.4843 332.33 65.4843 331.842C65.4843 331.359 65.4141 330.937 65.2738 330.575C65.1335 330.21 64.9258 329.927 64.6508 329.725C64.3758 329.52 64.0363 329.417 63.6322 329.417C63.2113 329.417 62.8605 329.525 62.5799 329.741C62.3021 329.955 62.0931 330.245 61.9528 330.613C61.8153 330.977 61.7465 331.387 61.7465 331.842C61.7465 332.302 61.8167 332.72 61.957 333.096C62.1001 333.469 62.3105 333.767 62.5883 333.988C62.869 334.207 63.2169 334.317 63.6322 334.317ZM71.1288 335.209C70.5058 335.209 69.9684 335.072 69.5167 334.797C69.0677 334.519 68.7211 334.132 68.477 333.635C68.2357 333.135 68.115 332.554 68.115 331.892C68.115 331.23 68.2357 330.646 68.477 330.141C68.7211 329.633 69.0607 329.238 69.4956 328.954C69.9334 328.668 70.4441 328.525 71.0278 328.525C71.3645 328.525 71.697 328.581 72.0253 328.693C72.3536 328.805 72.6525 328.988 72.9219 329.24C73.1913 329.49 73.4059 329.821 73.5659 330.234C73.7258 330.646 73.8058 331.154 73.8058 331.758V332.178H68.8221V331.32H72.7956C72.7956 330.955 72.7226 330.629 72.5767 330.343C72.4336 330.057 72.2288 329.831 71.9622 329.666C71.6984 329.5 71.3869 329.417 71.0278 329.417C70.6321 329.417 70.2897 329.515 70.0007 329.712C69.7145 329.905 69.4942 330.158 69.3399 330.47C69.1855 330.781 69.1084 331.115 69.1084 331.471V332.044C69.1084 332.532 69.1925 332.946 69.3609 333.285C69.5321 333.622 69.7692 333.879 70.0723 334.056C70.3753 334.23 70.7275 334.317 71.1288 334.317C71.3897 334.317 71.6255 334.28 71.8359 334.207C72.0492 334.132 72.233 334.019 72.3873 333.871C72.5417 333.719 72.6609 333.531 72.7451 333.307L73.7048 333.576C73.6038 333.901 73.434 334.188 73.1955 334.435C72.957 334.679 72.6623 334.87 72.3116 335.007C71.9608 335.142 71.5665 335.209 71.1288 335.209ZM76.3103 331.185V335.074H75.3169V328.609H76.2766V329.619H76.3608C76.5123 329.291 76.7424 329.027 77.0511 328.828C77.3598 328.626 77.7582 328.525 78.2465 328.525C78.6843 328.525 79.0673 328.615 79.3956 328.794C79.7239 328.971 79.9793 329.24 80.1617 329.602C80.3441 329.962 80.4353 330.416 80.4353 330.966V335.074H79.4419V331.034C79.4419 330.526 79.31 330.13 79.0462 329.847C78.7825 329.56 78.4205 329.417 77.9603 329.417C77.6432 329.417 77.3598 329.486 77.11 329.623C76.8631 329.761 76.6681 329.962 76.5249 330.225C76.3818 330.489 76.3103 330.809 76.3103 331.185ZM84.6918 335.209C84.153 335.209 83.6774 335.073 83.2649 334.801C82.8524 334.526 82.5297 334.139 82.2968 333.639C82.0639 333.137 81.9474 332.543 81.9474 331.859C81.9474 331.179 82.0639 330.59 82.2968 330.091C82.5297 329.591 82.8538 329.205 83.2691 328.933C83.6844 328.661 84.1643 328.525 84.7086 328.525C85.1296 328.525 85.4621 328.595 85.7062 328.735C85.9532 328.873 86.1412 329.03 86.2702 329.207C86.4021 329.381 86.5046 329.524 86.5775 329.636H86.6617V326.454H87.6551V335.074H86.6954V334.081H86.5775C86.5046 334.199 86.4007 334.348 86.266 334.527C86.1313 334.704 85.9391 334.863 85.6894 335.003C85.4396 335.14 85.1071 335.209 84.6918 335.209ZM84.8265 334.317C85.225 334.317 85.5617 334.213 85.8367 334.005C86.1117 333.795 86.3208 333.504 86.4639 333.134C86.607 332.761 86.6785 332.33 86.6785 331.842C86.6785 331.359 86.6084 330.937 86.4681 330.575C86.3278 330.21 86.1201 329.927 85.8451 329.725C85.5701 329.52 85.2306 329.417 84.8265 329.417C84.4056 329.417 84.0548 329.525 83.7742 329.741C83.4964 329.955 83.2873 330.245 83.147 330.613C83.0095 330.977 82.9408 331.387 82.9408 331.842C82.9408 332.302 83.0109 332.72 83.1512 333.096C83.2944 333.469 83.5048 333.767 83.7826 333.988C84.0632 334.207 84.4112 334.317 84.8265 334.317ZM94.1919 330.057L93.2996 330.31C93.2435 330.161 93.1607 330.016 93.0512 329.876C92.9446 329.733 92.7987 329.615 92.6135 329.522C92.4283 329.43 92.1912 329.384 91.9021 329.384C91.5065 329.384 91.1767 329.475 90.913 329.657C90.652 329.837 90.5215 330.065 90.5215 330.343C90.5215 330.59 90.6113 330.785 90.7909 330.928C90.9705 331.071 91.2511 331.191 91.6327 331.286L92.5924 331.522C93.1705 331.662 93.6012 331.877 93.8847 332.166C94.1681 332.452 94.3098 332.821 94.3098 333.273C94.3098 333.643 94.2031 333.974 93.9899 334.266C93.7794 334.558 93.4848 334.788 93.106 334.957C92.7271 335.125 92.2866 335.209 91.7843 335.209C91.1248 335.209 90.579 335.066 90.1469 334.78C89.7148 334.494 89.4412 334.075 89.3261 333.525L90.269 333.29C90.3588 333.638 90.5285 333.899 90.7783 334.073C91.0308 334.247 91.3605 334.334 91.7674 334.334C92.2304 334.334 92.598 334.235 92.8702 334.039C93.1452 333.84 93.2827 333.601 93.2827 333.323C93.2827 333.099 93.2042 332.911 93.047 332.759C92.8899 332.605 92.6486 332.49 92.323 332.414L91.2455 332.162C90.6534 332.021 90.2185 331.804 89.9407 331.509C89.6657 331.212 89.5282 330.84 89.5282 330.394C89.5282 330.029 89.6306 329.706 89.8354 329.426C90.0431 329.145 90.3251 328.925 90.6815 328.765C91.0407 328.605 91.4475 328.525 91.9021 328.525C92.5419 328.525 93.0442 328.665 93.409 328.946C93.7766 329.226 94.0376 329.597 94.1919 330.057Z" fill="#25233A"/>
<path d="M45.0807 304.432V316.368H43.274V306.239H43.2041L40.3483 308.104V306.379L43.3265 304.432H45.0807ZM52.2493 316.531C51.5188 316.531 50.8622 316.392 50.2794 316.112C49.7005 315.828 49.2381 315.44 48.8923 314.946C48.5465 314.453 48.362 313.889 48.3386 313.256H50.0871C50.1298 313.769 50.3571 314.191 50.769 314.521C51.1808 314.851 51.6743 315.016 52.2493 315.016C52.7078 315.016 53.1138 314.911 53.4674 314.701C53.8248 314.488 54.1046 314.194 54.3066 313.821C54.5125 313.448 54.6155 313.023 54.6155 312.545C54.6155 312.059 54.5106 311.626 54.3008 311.245C54.091 310.865 53.8015 310.565 53.4324 310.348C53.0672 310.13 52.6476 310.02 52.1735 310.016C51.8122 310.016 51.4489 310.078 51.0837 310.202C50.7185 310.326 50.4232 310.49 50.1978 310.692L48.5485 310.447L49.2187 304.432H55.7811V305.977H50.7165L50.3377 309.316H50.4076C50.6407 309.091 50.9496 308.902 51.3343 308.751C51.7228 308.599 52.1386 308.524 52.5815 308.524C53.3081 308.524 53.955 308.697 54.5223 309.042C55.0934 309.388 55.5422 309.86 55.8685 310.459C56.1988 311.053 56.362 311.737 56.3581 312.51C56.362 313.283 56.1871 313.973 55.8336 314.579C55.4839 315.185 54.9982 315.663 54.3766 316.013C53.7588 316.359 53.0497 316.531 52.2493 316.531ZM64.7171 314.13V313.501C64.7171 313.05 64.8103 312.638 64.9968 312.265C65.1872 311.888 65.4631 311.587 65.8244 311.362C66.1896 311.133 66.6306 311.018 67.1474 311.018C67.6758 311.018 68.1187 311.131 68.4762 311.356C68.8336 311.581 69.1037 311.883 69.2863 312.259C69.4728 312.636 69.566 313.05 69.566 313.501V314.13C69.566 314.581 69.4728 314.995 69.2863 315.372C69.0998 315.745 68.8259 316.046 68.4645 316.275C68.1071 316.5 67.668 316.613 67.1474 316.613C66.6228 316.613 66.1799 316.5 65.8186 316.275C65.4572 316.046 65.1833 315.745 64.9968 315.372C64.8103 314.995 64.7171 314.581 64.7171 314.13ZM66.075 313.501V314.13C66.075 314.464 66.1547 314.768 66.314 315.039C66.4733 315.311 66.7511 315.447 67.1474 315.447C67.5398 315.447 67.8137 315.311 67.9691 315.039C68.1245 314.768 68.2023 314.464 68.2023 314.13V313.501C68.2023 313.167 68.1265 312.864 67.975 312.592C67.8273 312.32 67.5515 312.184 67.1474 312.184C66.7588 312.184 66.483 312.32 66.3198 312.592C66.1566 312.864 66.075 313.167 66.075 313.501ZM58.7141 307.3V306.67C58.7141 306.22 58.8074 305.806 58.9939 305.429C59.1842 305.052 59.4601 304.751 59.8215 304.526C60.1867 304.3 60.6277 304.188 61.1444 304.188C61.6728 304.188 62.1158 304.3 62.4732 304.526C62.8307 304.751 63.1007 305.052 63.2833 305.429C63.466 305.806 63.5573 306.22 63.5573 306.67V307.3C63.5573 307.75 63.464 308.164 63.2775 308.541C63.0949 308.914 62.8229 309.215 62.4616 309.445C62.1041 309.67 61.6651 309.783 61.1444 309.783C60.616 309.783 60.1711 309.67 59.8098 309.445C59.4523 309.215 59.1804 308.914 58.9939 308.541C58.8074 308.164 58.7141 307.75 58.7141 307.3ZM60.0779 306.67V307.3C60.0779 307.634 60.1556 307.937 60.311 308.209C60.4703 308.481 60.7481 308.617 61.1444 308.617C61.533 308.617 61.8049 308.481 61.9604 308.209C62.1197 307.937 62.1993 307.634 62.1993 307.3V306.67C62.1993 306.336 62.1236 306.033 61.972 305.761C61.8205 305.489 61.5446 305.353 61.1444 305.353C60.7559 305.353 60.48 305.489 60.3168 305.761C60.1575 306.033 60.0779 306.336 60.0779 306.67ZM59.2678 316.368L67.4737 304.432H68.8667L60.6607 316.368H59.2678Z" fill="#01058A"/>
<path opacity="0.402121" d="M118.652 327.366H119.695V333.073C119.695 333.663 119.557 334.189 119.279 334.652C119.004 335.112 118.615 335.475 118.113 335.742C117.611 336.006 117.021 336.138 116.345 336.138C115.669 336.138 115.079 336.006 114.577 335.742C114.075 335.475 113.685 335.112 113.407 334.652C113.132 334.189 112.994 333.663 112.994 333.073V327.366H114.038V332.989C114.038 333.41 114.131 333.785 114.316 334.113C114.501 334.439 114.765 334.695 115.107 334.883C115.453 335.069 115.865 335.161 116.345 335.161C116.825 335.161 117.237 335.069 117.582 334.883C117.928 334.695 118.191 334.439 118.374 334.113C118.559 333.785 118.652 333.41 118.652 332.989V327.366ZM126.494 329.521C126.444 329.094 126.239 328.763 125.88 328.528C125.521 328.292 125.08 328.174 124.558 328.174C124.176 328.174 123.843 328.236 123.556 328.359C123.273 328.483 123.051 328.652 122.891 328.868C122.734 329.085 122.656 329.33 122.656 329.605C122.656 329.835 122.71 330.033 122.82 330.199C122.932 330.361 123.075 330.497 123.249 330.607C123.423 330.713 123.605 330.802 123.796 330.872C123.987 330.939 124.162 330.994 124.322 331.036L125.198 331.272C125.422 331.331 125.672 331.412 125.947 331.516C126.225 331.62 126.49 331.762 126.743 331.941C126.998 332.118 127.208 332.345 127.374 332.623C127.54 332.901 127.622 333.242 127.622 333.646C127.622 334.112 127.5 334.533 127.256 334.909C127.015 335.285 126.661 335.583 126.195 335.805C125.732 336.027 125.17 336.138 124.508 336.138C123.89 336.138 123.356 336.038 122.904 335.839C122.455 335.64 122.101 335.362 121.843 335.005C121.588 334.649 121.443 334.235 121.41 333.764H122.487C122.515 334.089 122.625 334.359 122.816 334.572C123.009 334.782 123.253 334.939 123.548 335.043C123.845 335.144 124.165 335.195 124.508 335.195C124.906 335.195 125.264 335.13 125.581 335.001C125.898 334.869 126.149 334.687 126.334 334.454C126.52 334.218 126.612 333.943 126.612 333.629C126.612 333.343 126.532 333.11 126.372 332.93C126.212 332.751 126.002 332.605 125.741 332.493C125.48 332.38 125.198 332.282 124.895 332.198L123.834 331.895C123.161 331.701 122.627 331.425 122.235 331.066C121.842 330.706 121.645 330.236 121.645 329.656C121.645 329.173 121.776 328.752 122.037 328.393C122.301 328.031 122.654 327.75 123.098 327.551C123.544 327.349 124.042 327.248 124.592 327.248C125.147 327.248 125.641 327.348 126.073 327.547C126.506 327.743 126.848 328.013 127.1 328.355C127.356 328.697 127.491 329.086 127.505 329.521H126.494ZM137.387 329.521C137.336 329.094 137.131 328.763 136.772 328.528C136.413 328.292 135.972 328.174 135.45 328.174C135.069 328.174 134.735 328.236 134.449 328.359C134.165 328.483 133.944 328.652 133.784 328.868C133.626 329.085 133.548 329.33 133.548 329.605C133.548 329.835 133.603 330.033 133.712 330.199C133.824 330.361 133.967 330.497 134.141 330.607C134.315 330.713 134.498 330.802 134.689 330.872C134.879 330.939 135.055 330.994 135.215 331.036L136.09 331.272C136.315 331.331 136.564 331.412 136.839 331.516C137.117 331.62 137.382 331.762 137.635 331.941C137.89 332.118 138.101 332.345 138.266 332.623C138.432 332.901 138.515 333.242 138.515 333.646C138.515 334.112 138.393 334.533 138.149 334.909C137.907 335.285 137.554 335.583 137.088 335.805C136.625 336.027 136.062 336.138 135.4 336.138C134.783 336.138 134.248 336.038 133.796 335.839C133.347 335.64 132.994 335.362 132.735 335.005C132.48 334.649 132.336 334.235 132.302 333.764H133.38C133.408 334.089 133.517 334.359 133.708 334.572C133.901 334.782 134.146 334.939 134.44 335.043C134.738 335.144 135.058 335.195 135.4 335.195C135.798 335.195 136.156 335.13 136.473 335.001C136.79 334.869 137.041 334.687 137.227 334.454C137.412 334.218 137.504 333.943 137.504 333.629C137.504 333.343 137.425 333.11 137.265 332.93C137.105 332.751 136.894 332.605 136.633 332.493C136.372 332.38 136.09 332.282 135.787 332.198L134.726 331.895C134.053 331.701 133.52 331.425 133.127 331.066C132.734 330.706 132.538 330.236 132.538 329.656C132.538 329.173 132.668 328.752 132.929 328.393C133.193 328.031 133.546 327.75 133.99 327.551C134.436 327.349 134.934 327.248 135.484 327.248C136.04 327.248 136.534 327.348 136.966 327.547C137.398 327.743 137.74 328.013 137.993 328.355C138.248 328.697 138.383 329.086 138.397 329.521H137.387ZM142.807 336.121C142.184 336.121 141.647 335.983 141.195 335.708C140.746 335.431 140.399 335.043 140.155 334.547C139.914 334.047 139.793 333.466 139.793 332.804C139.793 332.142 139.914 331.558 140.155 331.053C140.399 330.545 140.739 330.149 141.174 329.866C141.612 329.58 142.122 329.437 142.706 329.437C143.043 329.437 143.375 329.493 143.704 329.605C144.032 329.717 144.331 329.9 144.6 330.152C144.87 330.402 145.084 330.733 145.244 331.146C145.404 331.558 145.484 332.066 145.484 332.669V333.09H140.5V332.232H144.474C144.474 331.867 144.401 331.541 144.255 331.255C144.112 330.969 143.907 330.743 143.64 330.577C143.377 330.412 143.065 330.329 142.706 330.329C142.31 330.329 141.968 330.427 141.679 330.624C141.393 330.817 141.172 331.07 141.018 331.381C140.864 331.693 140.787 332.027 140.787 332.383V332.956C140.787 333.444 140.871 333.858 141.039 334.197C141.21 334.534 141.447 334.791 141.751 334.968C142.054 335.142 142.406 335.229 142.807 335.229C143.068 335.229 143.304 335.192 143.514 335.119C143.727 335.043 143.911 334.931 144.066 334.782C144.22 334.631 144.339 334.443 144.423 334.218L145.383 334.488C145.282 334.813 145.112 335.099 144.874 335.346C144.635 335.591 144.341 335.781 143.99 335.919C143.639 336.054 143.245 336.121 142.807 336.121ZM149.622 336.121C149.016 336.121 148.494 335.978 148.056 335.692C147.618 335.405 147.281 335.011 147.046 334.509C146.81 334.006 146.692 333.433 146.692 332.787C146.692 332.131 146.813 331.551 147.054 331.049C147.298 330.544 147.638 330.149 148.073 329.866C148.51 329.58 149.021 329.437 149.605 329.437C150.059 329.437 150.469 329.521 150.834 329.689C151.199 329.858 151.498 330.093 151.73 330.396C151.963 330.699 152.108 331.053 152.164 331.457H151.171C151.095 331.162 150.927 330.901 150.666 330.674C150.407 330.444 150.059 330.329 149.622 330.329C149.234 330.329 148.895 330.43 148.603 330.632C148.314 330.831 148.088 331.113 147.925 331.478C147.765 331.84 147.685 332.265 147.685 332.754C147.685 333.253 147.764 333.688 147.921 334.058C148.081 334.429 148.306 334.716 148.595 334.921C148.886 335.126 149.229 335.229 149.622 335.229C149.88 335.229 150.114 335.184 150.325 335.094C150.535 335.004 150.713 334.875 150.859 334.707C151.005 334.538 151.109 334.336 151.171 334.1H152.164C152.108 334.482 151.969 334.826 151.747 335.132C151.528 335.435 151.238 335.676 150.876 335.856C150.517 336.032 150.099 336.121 149.622 336.121ZM157.691 333.343V329.521H158.684V335.986H157.691V334.892H157.623C157.472 335.22 157.236 335.499 156.916 335.729C156.596 335.957 156.192 336.07 155.704 336.07C155.3 336.07 154.941 335.982 154.626 335.805C154.312 335.626 154.065 335.356 153.886 334.997C153.706 334.635 153.616 334.179 153.616 333.629V329.521H154.61V333.562C154.61 334.033 154.741 334.409 155.005 334.69C155.272 334.97 155.611 335.111 156.024 335.111C156.271 335.111 156.522 335.048 156.777 334.921C157.035 334.795 157.252 334.601 157.426 334.34C157.602 334.079 157.691 333.747 157.691 333.343ZM160.503 335.986V329.521H161.463V330.497H161.53C161.648 330.178 161.862 329.918 162.17 329.719C162.479 329.519 162.827 329.42 163.214 329.42C163.287 329.42 163.378 329.421 163.488 329.424C163.597 329.427 163.68 329.431 163.736 329.437V330.447C163.702 330.438 163.625 330.426 163.505 330.409C163.387 330.389 163.262 330.38 163.13 330.38C162.816 330.38 162.535 330.445 162.288 330.577C162.044 330.706 161.85 330.886 161.707 331.116C161.567 331.343 161.497 331.603 161.497 331.895V335.986H160.503ZM164.914 335.986V329.521H165.907V335.986H164.914ZM165.419 328.443C165.225 328.443 165.058 328.377 164.918 328.245C164.78 328.114 164.712 327.955 164.712 327.77C164.712 327.585 164.78 327.426 164.918 327.294C165.058 327.162 165.225 327.096 165.419 327.096C165.612 327.096 165.778 327.162 165.915 327.294C166.056 327.426 166.126 327.585 166.126 327.77C166.126 327.955 166.056 328.114 165.915 328.245C165.778 328.377 165.612 328.443 165.419 328.443ZM170.538 329.521V330.363H167.188V329.521H170.538ZM168.164 327.972H169.158V334.134C169.158 334.415 169.198 334.625 169.28 334.766C169.364 334.903 169.47 334.996 169.6 335.043C169.731 335.088 169.87 335.111 170.016 335.111C170.126 335.111 170.215 335.105 170.286 335.094C170.356 335.08 170.412 335.069 170.454 335.06L170.656 335.953C170.589 335.978 170.495 336.003 170.374 336.028C170.253 336.056 170.1 336.07 169.915 336.07C169.635 336.07 169.36 336.01 169.09 335.889C168.824 335.769 168.602 335.585 168.425 335.338C168.251 335.091 168.164 334.78 168.164 334.404V327.972ZM172.032 335.986V329.521H173.026V335.986H172.032ZM172.538 328.443C172.344 328.443 172.177 328.377 172.037 328.245C171.899 328.114 171.83 327.955 171.83 327.77C171.83 327.585 171.899 327.426 172.037 327.294C172.177 327.162 172.344 327.096 172.538 327.096C172.731 327.096 172.897 327.162 173.034 327.294C173.175 327.426 173.245 327.585 173.245 327.77C173.245 327.955 173.175 328.114 173.034 328.245C172.897 328.377 172.731 328.443 172.538 328.443ZM177.556 336.121C176.933 336.121 176.396 335.983 175.944 335.708C175.495 335.431 175.148 335.043 174.904 334.547C174.663 334.047 174.542 333.466 174.542 332.804C174.542 332.142 174.663 331.558 174.904 331.053C175.148 330.545 175.488 330.149 175.923 329.866C176.36 329.58 176.871 329.437 177.455 329.437C177.792 329.437 178.124 329.493 178.452 329.605C178.781 329.717 179.08 329.9 179.349 330.152C179.618 330.402 179.833 330.733 179.993 331.146C180.153 331.558 180.233 332.066 180.233 332.669V333.09H175.249V332.232H179.223C179.223 331.867 179.15 331.541 179.004 331.255C178.861 330.969 178.656 330.743 178.389 330.577C178.126 330.412 177.814 330.329 177.455 330.329C177.059 330.329 176.717 330.427 176.428 330.624C176.142 330.817 175.921 331.07 175.767 331.381C175.613 331.693 175.535 332.027 175.535 332.383V332.956C175.535 333.444 175.62 333.858 175.788 334.197C175.959 334.534 176.196 334.791 176.499 334.968C176.802 335.142 177.155 335.229 177.556 335.229C177.817 335.229 178.053 335.192 178.263 335.119C178.476 335.043 178.66 334.931 178.814 334.782C178.969 334.631 179.088 334.443 179.172 334.218L180.132 334.488C180.031 334.813 179.861 335.099 179.623 335.346C179.384 335.591 179.089 335.781 178.739 335.919C178.388 336.054 177.994 336.121 177.556 336.121ZM186.324 330.969L185.431 331.221C185.375 331.073 185.292 330.928 185.183 330.788C185.076 330.645 184.93 330.527 184.745 330.434C184.56 330.342 184.323 330.295 184.034 330.295C183.638 330.295 183.308 330.387 183.045 330.569C182.784 330.749 182.653 330.977 182.653 331.255C182.653 331.502 182.743 331.697 182.923 331.84C183.102 331.983 183.383 332.103 183.764 332.198L184.724 332.434C185.302 332.574 185.733 332.789 186.016 333.078C186.3 333.364 186.441 333.733 186.441 334.185C186.441 334.555 186.335 334.886 186.122 335.178C185.911 335.47 185.616 335.7 185.238 335.868C184.859 336.037 184.418 336.121 183.916 336.121C183.257 336.121 182.711 335.978 182.279 335.692C181.846 335.405 181.573 334.987 181.458 334.437L182.401 334.201C182.49 334.549 182.66 334.81 182.91 334.984C183.163 335.158 183.492 335.245 183.899 335.245C184.362 335.245 184.73 335.147 185.002 334.951C185.277 334.751 185.414 334.513 185.414 334.235C185.414 334.011 185.336 333.823 185.179 333.671C185.022 333.517 184.78 333.402 184.455 333.326L183.377 333.073C182.785 332.933 182.35 332.716 182.072 332.421C181.797 332.124 181.66 331.752 181.66 331.306C181.66 330.941 181.762 330.618 181.967 330.337C182.175 330.057 182.457 329.837 182.813 329.677C183.172 329.517 183.579 329.437 184.034 329.437C184.674 329.437 185.176 329.577 185.541 329.858C185.908 330.138 186.169 330.509 186.324 330.969Z" fill="#25233A"/>
<path d="M113.099 315.457V314.151L117.138 309.966C117.569 309.512 117.924 309.114 118.204 308.772C118.488 308.426 118.699 308.098 118.839 307.787C118.979 307.476 119.049 307.146 119.049 306.796C119.049 306.4 118.956 306.058 118.769 305.77C118.583 305.479 118.328 305.255 118.006 305.1C117.683 304.941 117.32 304.861 116.916 304.861C116.489 304.861 116.116 304.948 115.797 305.123C115.479 305.298 115.234 305.545 115.063 305.863C114.892 306.182 114.806 306.555 114.806 306.982H113.087C113.087 306.256 113.254 305.621 113.588 305.077C113.922 304.533 114.381 304.111 114.964 303.812C115.546 303.509 116.209 303.357 116.951 303.357C117.701 303.357 118.361 303.507 118.933 303.806C119.508 304.101 119.956 304.506 120.279 305.018C120.601 305.527 120.763 306.102 120.763 306.744C120.763 307.186 120.679 307.62 120.512 308.043C120.349 308.467 120.063 308.939 119.655 309.459C119.247 309.976 118.68 310.604 117.954 311.342L115.581 313.825V313.912H120.955V315.457H113.099ZM127.197 315.62C126.362 315.62 125.623 315.476 124.982 315.188C124.345 314.901 123.846 314.505 123.484 313.999C123.123 313.494 122.944 312.919 122.948 312.274C122.944 311.769 123.047 311.305 123.257 310.881C123.471 310.454 123.76 310.099 124.125 309.815C124.491 309.527 124.899 309.345 125.349 309.267V309.197C124.755 309.053 124.279 308.735 123.921 308.241C123.564 307.748 123.387 307.181 123.391 306.54C123.387 305.93 123.548 305.386 123.875 304.908C124.205 304.426 124.658 304.047 125.233 303.771C125.808 303.495 126.463 303.357 127.197 303.357C127.923 303.357 128.572 303.497 129.143 303.777C129.718 304.053 130.171 304.432 130.501 304.913C130.832 305.391 130.999 305.933 131.003 306.54C130.999 307.181 130.816 307.748 130.455 308.241C130.093 308.735 129.623 309.053 129.044 309.197V309.267C129.491 309.345 129.893 309.527 130.251 309.815C130.612 310.099 130.9 310.454 131.113 310.881C131.331 311.305 131.442 311.769 131.446 312.274C131.442 312.919 131.259 313.494 130.898 313.999C130.536 314.505 130.035 314.901 129.394 315.188C128.757 315.476 128.024 315.62 127.197 315.62ZM127.197 314.145C127.69 314.145 128.118 314.064 128.479 313.9C128.84 313.733 129.12 313.502 129.318 313.207C129.516 312.908 129.617 312.558 129.621 312.158C129.617 311.742 129.509 311.375 129.295 311.056C129.085 310.738 128.8 310.487 128.438 310.304C128.077 310.122 127.663 310.031 127.197 310.031C126.727 310.031 126.309 310.122 125.944 310.304C125.579 310.487 125.291 310.738 125.081 311.056C124.871 311.375 124.768 311.742 124.772 312.158C124.768 312.558 124.864 312.908 125.058 313.207C125.256 313.502 125.538 313.733 125.903 313.9C126.268 314.064 126.7 314.145 127.197 314.145ZM127.197 308.591C127.593 308.591 127.945 308.511 128.252 308.352C128.559 308.193 128.8 307.971 128.974 307.688C129.153 307.404 129.244 307.072 129.248 306.691C129.244 306.318 129.155 305.992 128.98 305.712C128.809 305.432 128.57 305.217 128.263 305.065C127.956 304.91 127.601 304.832 127.197 304.832C126.785 304.832 126.424 304.91 126.113 305.065C125.806 305.217 125.567 305.432 125.396 305.712C125.225 305.992 125.141 306.318 125.145 306.691C125.141 307.072 125.227 307.404 125.402 307.688C125.577 307.971 125.818 308.193 126.124 308.352C126.435 308.511 126.793 308.591 127.197 308.591ZM139.764 313.219V312.589C139.764 312.138 139.857 311.727 140.043 311.354C140.234 310.977 140.51 310.676 140.871 310.45C141.236 310.221 141.677 310.106 142.194 310.106C142.722 310.106 143.165 310.219 143.523 310.444C143.88 310.67 144.15 310.971 144.333 311.348C144.519 311.725 144.613 312.138 144.613 312.589V313.219C144.613 313.669 144.519 314.083 144.333 314.46C144.146 314.833 143.873 315.134 143.511 315.363C143.154 315.589 142.715 315.701 142.194 315.701C141.669 315.701 141.227 315.589 140.865 315.363C140.504 315.134 140.23 314.833 140.043 314.46C139.857 314.083 139.764 313.669 139.764 313.219ZM141.122 312.589V313.219C141.122 313.553 141.201 313.856 141.361 314.128C141.52 314.4 141.798 314.536 142.194 314.536C142.586 314.536 142.86 314.4 143.016 314.128C143.171 313.856 143.249 313.553 143.249 313.219V312.589C143.249 312.255 143.173 311.952 143.022 311.68C142.874 311.408 142.598 311.272 142.194 311.272C141.805 311.272 141.53 311.408 141.366 311.68C141.203 311.952 141.122 312.255 141.122 312.589ZM133.761 306.388V305.759C133.761 305.308 133.854 304.894 134.041 304.517C134.231 304.14 134.507 303.839 134.868 303.614C135.233 303.388 135.674 303.276 136.191 303.276C136.719 303.276 137.162 303.388 137.52 303.614C137.877 303.839 138.147 304.14 138.33 304.517C138.513 304.894 138.604 305.308 138.604 305.759V306.388C138.604 306.839 138.511 307.252 138.324 307.629C138.142 308.002 137.87 308.303 137.508 308.533C137.151 308.758 136.712 308.871 136.191 308.871C135.663 308.871 135.218 308.758 134.856 308.533C134.499 308.303 134.227 308.002 134.041 307.629C133.854 307.252 133.761 306.839 133.761 306.388ZM135.125 305.759V306.388C135.125 306.722 135.202 307.025 135.358 307.297C135.517 307.569 135.795 307.705 136.191 307.705C136.58 307.705 136.852 307.569 137.007 307.297C137.166 307.025 137.246 306.722 137.246 306.388V305.759C137.246 305.424 137.17 305.121 137.019 304.849C136.867 304.577 136.591 304.441 136.191 304.441C135.803 304.441 135.527 304.577 135.363 304.849C135.204 305.121 135.125 305.424 135.125 305.759ZM134.314 315.457L142.52 303.521H143.913L135.707 315.457H134.314Z" fill="#FF923D"/>
<path opacity="0.402121" d="M203.776 335.986V327.366H206.79C207.391 327.366 207.886 327.47 208.276 327.677C208.666 327.882 208.957 328.159 209.147 328.506C209.338 328.852 209.434 329.235 209.434 329.656C209.434 330.026 209.368 330.332 209.236 330.573C209.107 330.814 208.936 331.005 208.722 331.146C208.512 331.286 208.283 331.39 208.036 331.457V331.541C208.3 331.558 208.565 331.651 208.832 331.819C209.098 331.987 209.321 332.229 209.501 332.543C209.681 332.857 209.77 333.242 209.77 333.696C209.77 334.129 209.672 334.517 209.476 334.862C209.279 335.207 208.969 335.481 208.545 335.683C208.122 335.885 207.57 335.986 206.891 335.986H203.776ZM204.82 335.06H206.891C207.573 335.06 208.057 334.928 208.343 334.664C208.632 334.398 208.777 334.075 208.777 333.696C208.777 333.405 208.703 333.135 208.554 332.888C208.405 332.638 208.193 332.439 207.918 332.291C207.643 332.139 207.318 332.063 206.942 332.063H204.82V335.06ZM204.82 331.154H206.757C207.071 331.154 207.354 331.092 207.607 330.969C207.862 330.845 208.064 330.671 208.213 330.447C208.364 330.222 208.44 329.959 208.44 329.656C208.44 329.277 208.308 328.955 208.045 328.692C207.781 328.425 207.363 328.292 206.79 328.292H204.82V331.154ZM213.977 336.121C213.394 336.121 212.882 335.982 212.441 335.704C212.003 335.426 211.661 335.038 211.414 334.538C211.17 334.039 211.048 333.455 211.048 332.787C211.048 332.114 211.17 331.526 211.414 331.024C211.661 330.521 212.003 330.131 212.441 329.853C212.882 329.576 213.394 329.437 213.977 329.437C214.561 329.437 215.072 329.576 215.51 329.853C215.95 330.131 216.292 330.521 216.537 331.024C216.784 331.526 216.907 332.114 216.907 332.787C216.907 333.455 216.784 334.039 216.537 334.538C216.292 335.038 215.95 335.426 215.51 335.704C215.072 335.982 214.561 336.121 213.977 336.121ZM213.977 335.229C214.421 335.229 214.786 335.115 215.072 334.888C215.358 334.66 215.57 334.361 215.707 333.991C215.845 333.621 215.914 333.219 215.914 332.787C215.914 332.355 215.845 331.952 215.707 331.579C215.57 331.206 215.358 330.904 215.072 330.674C214.786 330.444 214.421 330.329 213.977 330.329C213.534 330.329 213.169 330.444 212.883 330.674C212.597 330.904 212.385 331.206 212.247 331.579C212.11 331.952 212.041 332.355 212.041 332.787C212.041 333.219 212.11 333.621 212.247 333.991C212.385 334.361 212.597 334.66 212.883 334.888C213.169 335.115 213.534 335.229 213.977 335.229ZM219.417 332.097V335.986H218.423V329.521H219.383V330.531H219.467C219.619 330.203 219.849 329.939 220.158 329.74C220.466 329.538 220.865 329.437 221.353 329.437C221.791 329.437 222.174 329.526 222.502 329.706C222.83 329.883 223.086 330.152 223.268 330.514C223.451 330.873 223.542 331.328 223.542 331.878V335.986H222.548V331.945C222.548 331.437 222.416 331.042 222.153 330.758C221.889 330.472 221.527 330.329 221.067 330.329C220.75 330.329 220.466 330.398 220.216 330.535C219.97 330.673 219.775 330.873 219.631 331.137C219.488 331.401 219.417 331.721 219.417 332.097ZM227.798 336.121C227.26 336.121 226.784 335.985 226.371 335.713C225.959 335.438 225.636 335.05 225.403 334.551C225.17 334.049 225.054 333.455 225.054 332.77C225.054 332.091 225.17 331.502 225.403 331.003C225.636 330.503 225.96 330.117 226.376 329.845C226.791 329.573 227.271 329.437 227.815 329.437C228.236 329.437 228.569 329.507 228.813 329.647C229.06 329.785 229.248 329.942 229.377 330.119C229.509 330.293 229.611 330.436 229.684 330.548H229.768V327.366H230.762V335.986H229.802V334.993H229.684C229.611 335.111 229.507 335.259 229.373 335.439C229.238 335.616 229.046 335.774 228.796 335.915C228.546 336.052 228.214 336.121 227.798 336.121ZM227.933 335.229C228.331 335.229 228.668 335.125 228.943 334.917C229.218 334.707 229.427 334.416 229.57 334.046C229.713 333.673 229.785 333.242 229.785 332.754C229.785 332.271 229.715 331.849 229.575 331.487C229.434 331.122 229.227 330.838 228.952 330.636C228.677 330.431 228.337 330.329 227.933 330.329C227.512 330.329 227.161 330.437 226.881 330.653C226.603 330.866 226.394 331.157 226.254 331.524C226.116 331.889 226.047 332.299 226.047 332.754C226.047 333.214 226.117 333.632 226.258 334.008C226.401 334.381 226.611 334.679 226.889 334.9C227.17 335.119 227.518 335.229 227.933 335.229ZM237.298 330.969L236.406 331.221C236.35 331.073 236.267 330.928 236.158 330.788C236.051 330.645 235.905 330.527 235.72 330.434C235.535 330.342 235.298 330.295 235.009 330.295C234.613 330.295 234.283 330.387 234.019 330.569C233.758 330.749 233.628 330.977 233.628 331.255C233.628 331.502 233.718 331.697 233.897 331.84C234.077 331.983 234.358 332.103 234.739 332.198L235.699 332.434C236.277 332.574 236.708 332.789 236.991 333.078C237.275 333.364 237.416 333.733 237.416 334.185C237.416 334.555 237.31 334.886 237.096 335.178C236.886 335.47 236.591 335.7 236.212 335.868C235.834 336.037 235.393 336.121 234.891 336.121C234.231 336.121 233.686 335.978 233.253 335.692C232.821 335.405 232.548 334.987 232.433 334.437L233.375 334.201C233.465 334.549 233.635 334.81 233.885 334.984C234.137 335.158 234.467 335.245 234.874 335.245C235.337 335.245 235.705 335.147 235.977 334.951C236.252 334.751 236.389 334.513 236.389 334.235C236.389 334.011 236.311 333.823 236.154 333.671C235.996 333.517 235.755 333.402 235.43 333.326L234.352 333.073C233.76 332.933 233.325 332.716 233.047 332.421C232.772 332.124 232.635 331.752 232.635 331.306C232.635 330.941 232.737 330.618 232.942 330.337C233.15 330.057 233.432 329.837 233.788 329.677C234.147 329.517 234.554 329.437 235.009 329.437C235.648 329.437 236.151 329.577 236.515 329.858C236.883 330.138 237.144 330.509 237.298 330.969Z" fill="#25233A"/>
<path d="M208.409 303.521V315.457H206.602V305.327H206.532L203.677 307.192V305.467L206.655 303.521H208.409ZM215.793 315.62C214.993 315.62 214.278 315.482 213.649 315.206C213.023 314.93 212.528 314.547 212.162 314.058C211.801 313.564 211.607 312.993 211.58 312.344H213.41C213.433 312.698 213.551 313.005 213.765 313.265C213.983 313.522 214.266 313.72 214.616 313.86C214.966 313.999 215.354 314.069 215.782 314.069C216.252 314.069 216.668 313.988 217.029 313.825C217.394 313.661 217.68 313.434 217.886 313.143C218.092 312.847 218.194 312.507 218.194 312.123C218.194 311.723 218.092 311.371 217.886 311.068C217.684 310.761 217.386 310.52 216.994 310.345C216.605 310.17 216.135 310.083 215.583 310.083H214.575V308.614H215.583C216.026 308.614 216.415 308.535 216.749 308.375C217.087 308.216 217.351 307.995 217.542 307.711C217.732 307.423 217.827 307.087 217.827 306.703C217.827 306.334 217.744 306.013 217.577 305.741C217.414 305.465 217.18 305.25 216.877 305.094C216.578 304.939 216.225 304.861 215.817 304.861C215.428 304.861 215.065 304.933 214.727 305.077C214.393 305.217 214.121 305.419 213.911 305.683C213.701 305.943 213.588 306.256 213.573 306.621H211.83C211.85 305.976 212.04 305.409 212.401 304.919C212.767 304.43 213.248 304.047 213.847 303.771C214.445 303.495 215.109 303.357 215.84 303.357C216.605 303.357 217.266 303.507 217.821 303.806C218.381 304.101 218.812 304.496 219.115 304.989C219.422 305.483 219.574 306.023 219.57 306.609C219.574 307.278 219.387 307.845 219.01 308.311C218.637 308.778 218.14 309.09 217.518 309.25V309.343C218.311 309.463 218.925 309.778 219.36 310.287C219.799 310.796 220.017 311.427 220.013 312.181C220.017 312.838 219.834 313.426 219.465 313.947C219.1 314.468 218.601 314.878 217.967 315.177C217.334 315.472 216.609 315.62 215.793 315.62ZM228.446 313.219V312.589C228.446 312.138 228.539 311.727 228.726 311.354C228.916 310.977 229.192 310.676 229.553 310.45C229.919 310.221 230.36 310.106 230.876 310.106C231.405 310.106 231.848 310.219 232.205 310.444C232.563 310.67 232.833 310.971 233.015 311.348C233.202 311.725 233.295 312.138 233.295 312.589V313.219C233.295 313.669 233.202 314.083 233.015 314.46C232.829 314.833 232.555 315.134 232.194 315.363C231.836 315.589 231.397 315.701 230.876 315.701C230.352 315.701 229.909 315.589 229.548 315.363C229.186 315.134 228.912 314.833 228.726 314.46C228.539 314.083 228.446 313.669 228.446 313.219ZM229.804 312.589V313.219C229.804 313.553 229.884 313.856 230.043 314.128C230.202 314.4 230.48 314.536 230.876 314.536C231.269 314.536 231.543 314.4 231.698 314.128C231.854 313.856 231.931 313.553 231.931 313.219V312.589C231.931 312.255 231.856 311.952 231.704 311.68C231.556 311.408 231.281 311.272 230.876 311.272C230.488 311.272 230.212 311.408 230.049 311.68C229.886 311.952 229.804 312.255 229.804 312.589ZM222.443 306.388V305.759C222.443 305.308 222.536 304.894 222.723 304.517C222.913 304.14 223.189 303.839 223.551 303.614C223.916 303.388 224.357 303.276 224.873 303.276C225.402 303.276 225.845 303.388 226.202 303.614C226.56 303.839 226.83 304.14 227.012 304.517C227.195 304.894 227.286 305.308 227.286 305.759V306.388C227.286 306.839 227.193 307.252 227.007 307.629C226.824 308.002 226.552 308.303 226.191 308.533C225.833 308.758 225.394 308.871 224.873 308.871C224.345 308.871 223.9 308.758 223.539 308.533C223.181 308.303 222.909 308.002 222.723 307.629C222.536 307.252 222.443 306.839 222.443 306.388ZM223.807 305.759V306.388C223.807 306.722 223.885 307.025 224.04 307.297C224.199 307.569 224.477 307.705 224.873 307.705C225.262 307.705 225.534 307.569 225.689 307.297C225.849 307.025 225.928 306.722 225.928 306.388V305.759C225.928 305.424 225.853 305.121 225.701 304.849C225.55 304.577 225.274 304.441 224.873 304.441C224.485 304.441 224.209 304.577 224.046 304.849C223.887 305.121 223.807 305.424 223.807 305.759ZM222.997 315.457L231.203 303.521H232.596L224.39 315.457H222.997Z" fill="#191D58"/>
<path d="M93.1987 348.236V297.633H93.715V348.236H93.1987Z" fill="#E7E8F2"/>
<path d="M183.981 348.236V297.633H184.497V348.236H183.981Z" fill="#E7E8F2"/>
<path d="M0.925369 5.86548C0.925369 3.0959 3.17055 0.850723 5.94012 0.850723H289.991C292.761 0.850723 295.006 3.0959 295.006 5.86548V40.9688H0.925369V5.86548Z" fill="white" stroke="#E7E8F2" stroke-width="0.911773"/>
<path fill-rule="evenodd" clip-rule="evenodd" d="M279.34 18.6303C278.336 18.6303 277.523 19.4599 277.523 20.4833C277.523 21.5066 278.336 22.3362 279.34 22.3362C280.343 22.3362 281.157 21.5066 281.157 20.4833C281.157 19.4599 280.343 18.6303 279.34 18.6303ZM273.11 18.6303C272.107 18.6303 271.293 19.4599 271.293 20.4833C271.293 21.5066 272.107 22.3362 273.11 22.3362C274.114 22.3362 274.927 21.5066 274.927 20.4833C274.927 19.4599 274.114 18.6303 273.11 18.6303ZM265.064 20.4833C265.064 19.4599 265.877 18.6303 266.881 18.6303C267.884 18.6303 268.698 19.4599 268.698 20.4833C268.698 21.5066 267.884 22.3362 266.881 22.3362C265.877 22.3362 265.064 21.5066 265.064 20.4833Z" fill="#A7A9C0"/>
<path d="M19.6267 25.1597V15.8762H22.9357C23.658 15.8762 24.2563 16.0076 24.7308 16.2705C25.2052 16.5334 25.5603 16.8931 25.796 17.3494C26.0317 17.8027 26.1496 18.3134 26.1496 18.8815C26.1496 19.4527 26.0302 19.9664 25.7915 20.4227C25.5558 20.876 25.1992 21.2356 24.7217 21.5016C24.2473 21.7645 23.6504 21.8959 22.9312 21.8959H20.6557V20.7083H22.8043C23.2606 20.7083 23.6308 20.6297 23.9149 20.4726C24.1989 20.3124 24.4074 20.0948 24.5404 19.8198C24.6734 19.5448 24.7399 19.2321 24.7399 18.8815C24.7399 18.531 24.6734 18.2197 24.5404 17.9477C24.4074 17.6758 24.1974 17.4627 23.9103 17.3086C23.6263 17.1545 23.2515 17.0774 22.7861 17.0774H21.0274V25.1597H19.6267ZM30.5284 25.3002C29.8757 25.3002 29.3061 25.1506 28.8195 24.8514C28.333 24.5523 27.9552 24.1337 27.6863 23.5958C27.4173 23.0579 27.2828 22.4293 27.2828 21.7101C27.2828 20.9878 27.4173 20.3562 27.6863 19.8153C27.9552 19.2744 28.333 18.8543 28.8195 18.5551C29.3061 18.256 29.8757 18.1064 30.5284 18.1064C31.1812 18.1064 31.7508 18.256 32.2374 18.5551C32.7239 18.8543 33.1017 19.2744 33.3706 19.8153C33.6396 20.3562 33.774 20.9878 33.774 21.7101C33.774 22.4293 33.6396 23.0579 33.3706 23.5958C33.1017 24.1337 32.7239 24.5523 32.2374 24.8514C31.7508 25.1506 31.1812 25.3002 30.5284 25.3002ZM30.533 24.1624C30.9561 24.1624 31.3066 24.0506 31.5846 23.827C31.8626 23.6034 32.0681 23.3057 32.2011 22.934C32.3371 22.5623 32.4051 22.1528 32.4051 21.7056C32.4051 21.2613 32.3371 20.8534 32.2011 20.4817C32.0681 20.1069 31.8626 19.8062 31.5846 19.5796C31.3066 19.3529 30.9561 19.2396 30.533 19.2396C30.1069 19.2396 29.7533 19.3529 29.4723 19.5796C29.1942 19.8062 28.9872 20.1069 28.8512 20.4817C28.7183 20.8534 28.6518 21.2613 28.6518 21.7056C28.6518 22.1528 28.7183 22.5623 28.8512 22.934C28.9872 23.3057 29.1942 23.6034 29.4723 23.827C29.7533 24.0506 30.1069 24.1624 30.533 24.1624ZM35.2869 25.1597V18.197H36.597V19.3031H36.6695C36.7964 18.9284 37.02 18.6337 37.3404 18.4192C37.6637 18.2016 38.0294 18.0928 38.4373 18.0928C38.5219 18.0928 38.6217 18.0958 38.7365 18.1019C38.8544 18.1079 38.9465 18.1154 39.013 18.1245V19.4209C38.9586 19.4058 38.8619 19.3892 38.7229 19.3711C38.5839 19.3499 38.4449 19.3393 38.3059 19.3393C37.9855 19.3393 37.7 19.4073 37.4491 19.5433C37.2013 19.6763 37.0049 19.8622 36.8599 20.1009C36.7148 20.3366 36.6423 20.6056 36.6423 20.9078V25.1597H35.2869ZM43.8474 18.197V19.285H40.0443V18.197H43.8474ZM41.0642 16.5289H42.4195V23.1153C42.4195 23.3782 42.4588 23.5762 42.5374 23.7091C42.616 23.8391 42.7172 23.9282 42.8411 23.9766C42.968 24.0219 43.1055 24.0446 43.2536 24.0446C43.3624 24.0446 43.4576 24.037 43.5392 24.0219C43.6208 24.0068 43.6842 23.9947 43.7296 23.9856L43.9743 25.1053C43.8958 25.1355 43.784 25.1657 43.6389 25.1959C43.4939 25.2292 43.3125 25.2473 43.095 25.2503C42.7384 25.2564 42.4059 25.1929 42.0977 25.06C41.7895 24.927 41.5401 24.7215 41.3498 24.4435C41.1594 24.1654 41.0642 23.8164 41.0642 23.3964V16.5289ZM48.6603 18.197V19.285H44.7257V18.197H48.6603ZM45.8045 25.1597V17.3902C45.8045 16.955 45.8997 16.5939 46.0901 16.3068C46.2805 16.0167 46.5328 15.8006 46.8471 15.6586C47.1614 15.5135 47.5029 15.441 47.8716 15.441C48.1435 15.441 48.3762 15.4637 48.5696 15.509C48.763 15.5513 48.9066 15.5906 49.0003 15.6269L48.683 16.7238C48.6195 16.7057 48.5379 16.6845 48.4382 16.6604C48.3385 16.6332 48.2176 16.6196 48.0755 16.6196C47.7462 16.6196 47.5104 16.7012 47.3684 16.8644C47.2294 17.0275 47.1599 17.2633 47.1599 17.5715V25.1597H45.8045ZM52.7173 25.3002C52.0646 25.3002 51.4949 25.1506 51.0084 24.8514C50.5218 24.5523 50.1441 24.1337 49.8751 23.5958C49.6062 23.0579 49.4717 22.4293 49.4717 21.7101C49.4717 20.9878 49.6062 20.3562 49.8751 19.8153C50.1441 19.2744 50.5218 18.8543 51.0084 18.5551C51.4949 18.256 52.0646 18.1064 52.7173 18.1064C53.37 18.1064 53.9397 18.256 54.4262 18.5551C54.9128 18.8543 55.2905 19.2744 55.5595 19.8153C55.8284 20.3562 55.9629 20.9878 55.9629 21.7101C55.9629 22.4293 55.8284 23.0579 55.5595 23.5958C55.2905 24.1337 54.9128 24.5523 54.4262 24.8514C53.9397 25.1506 53.37 25.3002 52.7173 25.3002ZM52.7218 24.1624C53.1449 24.1624 53.4955 24.0506 53.7735 23.827C54.0515 23.6034 54.257 23.3057 54.39 22.934C54.526 22.5623 54.5939 22.1528 54.5939 21.7056C54.5939 21.2613 54.526 20.8534 54.39 20.4817C54.257 20.1069 54.0515 19.8062 53.7735 19.5796C53.4955 19.3529 53.1449 19.2396 52.7218 19.2396C52.2957 19.2396 51.9422 19.3529 51.6611 19.5796C51.3831 19.8062 51.1761 20.1069 51.0401 20.4817C50.9071 20.8534 50.8407 21.2613 50.8407 21.7056C50.8407 22.1528 50.9071 22.5623 51.0401 22.934C51.1761 23.3057 51.3831 23.6034 51.6611 23.827C51.9422 24.0506 52.2957 24.1624 52.7218 24.1624ZM58.8311 15.8762V25.1597H57.4758V15.8762H58.8311ZM60.6545 25.1597V18.197H62.0099V25.1597H60.6545ZM61.339 17.1227C61.1033 17.1227 60.9008 17.0442 60.7316 16.887C60.5654 16.7269 60.4823 16.5365 60.4823 16.3159C60.4823 16.0922 60.5654 15.9019 60.7316 15.7447C60.9008 15.5845 61.1033 15.5045 61.339 15.5045C61.5747 15.5045 61.7757 15.5845 61.9419 15.7447C62.1111 15.9019 62.1957 16.0922 62.1957 16.3159C62.1957 16.5365 62.1111 16.7269 61.9419 16.887C61.7757 17.0442 61.5747 17.1227 61.339 17.1227ZM66.7661 25.3002C66.1133 25.3002 65.5437 25.1506 65.0572 24.8514C64.5706 24.5523 64.1929 24.1337 63.9239 23.5958C63.655 23.0579 63.5205 22.4293 63.5205 21.7101C63.5205 20.9878 63.655 20.3562 63.9239 19.8153C64.1929 19.2744 64.5706 18.8543 65.0572 18.5551C65.5437 18.256 66.1133 18.1064 66.7661 18.1064C67.4188 18.1064 67.9885 18.256 68.475 18.5551C68.9616 18.8543 69.3393 19.2744 69.6083 19.8153C69.8772 20.3562 70.0117 20.9878 70.0117 21.7101C70.0117 22.4293 69.8772 23.0579 69.6083 23.5958C69.3393 24.1337 68.9616 24.5523 68.475 24.8514C67.9885 25.1506 67.4188 25.3002 66.7661 25.3002ZM66.7706 24.1624C67.1937 24.1624 67.5443 24.0506 67.8223 23.827C68.1003 23.6034 68.3058 23.3057 68.4388 22.934C68.5747 22.5623 68.6427 22.1528 68.6427 21.7056C68.6427 21.2613 68.5747 20.8534 68.4388 20.4817C68.3058 20.1069 68.1003 19.8062 67.8223 19.5796C67.5443 19.3529 67.1937 19.2396 66.7706 19.2396C66.3445 19.2396 65.991 19.3529 65.7099 19.5796C65.4319 19.8062 65.2249 20.1069 65.0889 20.4817C64.9559 20.8534 64.8894 21.2613 64.8894 21.7056C64.8894 22.1528 64.9559 22.5623 65.0889 22.934C65.2249 23.3057 65.4319 23.6034 65.7099 23.827C65.991 24.0506 66.3445 24.1624 66.7706 24.1624Z" fill="#01058A"/>
<defs>
<radialGradient id="paint0_angular_42_175" cx="0" cy="0" r="1" gradientUnits="userSpaceOnUse" gradientTransform="translate(141.609 170.441) rotate(90) scale(90.5751 90.0454)">
<stop stop-color="#F8F8FC"/>
<stop offset="1" stop-color="#F8F8FC" stop-opacity="0"/>
</radialGradient>
<radialGradient id="paint1_angular_42_175" cx="0" cy="0" r="1" gradientUnits="userSpaceOnUse" gradientTransform="translate(142.139 170.441) rotate(90) scale(49.2601)">
<stop stop-color="#F8F8FC"/>
<stop offset="1" stop-color="#F8F8FC" stop-opacity="0"/>
</radialGradient>
</defs>
</svg>
