<svg xmlns="http://www.w3.org/2000/svg" width="90" height="90" viewBox="0 0 90 90">
  <g id="Sync_followers" data-name="Sync followers" transform="translate(-2865 -2990)">
    <rect id="bg" width="90" height="90" rx="12" transform="translate(2865 2990)" fill="#6a49f2" opacity="0.078"/>
    <g id="Icon" transform="translate(1869)">
      <g id="Icon-2" data-name="Icon" transform="translate(1008.442 2988.88)">
        <path id="Path_128" data-name="Path 128" d="M53.558,31.518V51.206q-.082.4-.163.8a6.83,6.83,0,0,1-6.783,5.617c-2.621-.066-5.244-.008-7.866-.02a.629.629,0,0,0-.661.386c-1.4,2.7-2.823,5.389-4.224,8.088a2.124,2.124,0,0,1-.974,1.046H32.23a2.1,2.1,0,0,1-.973-1.046c-1.39-2.675-2.8-5.338-4.185-8.016a.739.739,0,0,0-.783-.461c-2.65.019-5.3.011-7.949.008a5.732,5.732,0,0,1-.9-.047A6.686,6.686,0,0,1,11.9,52.675a14.56,14.56,0,0,1-.339-1.469V31.518c.029-.132.062-.263.087-.4a6.953,6.953,0,0,1,4.682-5.707c.368-.131.758-.2,1.137-.3H47.652a.363.363,0,0,0,.1.059,6.757,6.757,0,0,1,5.593,5.343C53.438,30.849,53.489,31.186,53.558,31.518ZM32.55,63.223c.109-.193.185-.318.253-.447,1.18-2.248,2.369-4.492,3.533-6.749a1.487,1.487,0,0,1,1.47-.889c3.007.016,6.015,0,9.022.009a3.665,3.665,0,0,0,1.886-.465,4.685,4.685,0,0,0,2.379-4.339q.021-8.981,0-17.962A6.181,6.181,0,0,0,50.926,31a4.232,4.232,0,0,0-4.02-3.419q-14.353-.012-28.706,0a3.7,3.7,0,0,0-2.416.875,4.843,4.843,0,0,0-1.763,3.935q-.006,8.96,0,17.921a6.332,6.332,0,0,0,.081,1.019,4.4,4.4,0,0,0,4.4,3.829c2.855-.067,5.714.008,8.57-.03a1.763,1.763,0,0,1,1.811,1.084C30.061,58.543,31.3,60.839,32.55,63.223Z"/>
        <path id="Path_129" data-name="Path 129" d="M28.915,38.907a4.762,4.762,0,0,1,.687-6.669,4.711,4.711,0,0,1,6.587,6.668c.118.066.232.128.345.191a7.85,7.85,0,0,1,4.252,6.872,2.213,2.213,0,0,1-2.373,2.43c-3.266.007-6.532,0-9.8,0-.656,0-1.312.009-1.968,0a2.229,2.229,0,0,1-2.314-2.453,7.842,7.842,0,0,1,4.354-6.889c.048-.026.1-.051.143-.079A.874.874,0,0,0,28.915,38.907Zm-2.086,7H38.307a5.547,5.547,0,0,0-6.041-5.272A5.506,5.506,0,0,0,26.828,45.906Zm5.748-12.254A2.241,2.241,0,1,0,34.8,35.9,2.254,2.254,0,0,0,32.576,33.651Z"/>
      </g>
      <path id="Color_Overlay" data-name="Color Overlay" d="M1040.672,3056a2.093,2.093,0,0,1-.973-1.045c-1.39-2.675-2.8-5.338-4.185-8.016a.738.738,0,0,0-.783-.461c-2.65.019-5.3.011-7.949.008a5.619,5.619,0,0,1-.9-.049,6.684,6.684,0,0,1-5.545-4.882,14.57,14.57,0,0,1-.338-1.47V3020.4c.029-.131.061-.264.086-.4a6.953,6.953,0,0,1,4.682-5.706c.368-.132.758-.2,1.138-.3h30.188a.332.332,0,0,0,.1.058,6.76,6.76,0,0,1,5.594,5.344c.09.327.141.662.21,1v19.688c-.054.267-.109.531-.163.8a6.829,6.829,0,0,1-6.783,5.616c-1.67-.043-3.343-.034-5.015-.026-.95.006-1.9.011-2.851.006a.628.628,0,0,0-.661.387c-1.4,2.7-2.822,5.388-4.224,8.087a2.122,2.122,0,0,1-.974,1.045Zm-3.343-10.9c1.174,2.327,2.41,4.623,3.663,7.007.109-.194.185-.318.253-.447,1.18-2.248,2.368-4.492,3.532-6.75a1.489,1.489,0,0,1,1.47-.887c1.9.01,3.805.009,5.708.008q1.657,0,3.315,0a3.664,3.664,0,0,0,1.885-.465,4.687,4.687,0,0,0,2.379-4.339q.022-8.981,0-17.962a6.233,6.233,0,0,0-.164-1.378,4.234,4.234,0,0,0-4.021-3.419q-14.352-.012-28.705,0a3.7,3.7,0,0,0-2.416.875,4.844,4.844,0,0,0-1.763,3.936q-.005,8.96,0,17.92a6.242,6.242,0,0,0,.081,1.02,4.4,4.4,0,0,0,4.4,3.829c1.589-.039,3.18-.031,4.77-.024,1.266.005,2.533.011,3.8-.005h.048A1.753,1.753,0,0,1,1037.329,3045.1Zm-2.241-7.816a2.23,2.23,0,0,1-2.314-2.453,7.844,7.844,0,0,1,4.353-6.89c.049-.026.1-.051.144-.078a.8.8,0,0,0,.085-.072,4.762,4.762,0,0,1,.688-6.669,4.71,4.71,0,0,1,6.587,6.667c.119.066.232.129.345.193a7.851,7.851,0,0,1,4.253,6.871,2.214,2.214,0,0,1-2.373,2.431c-3.266.007-6.532,0-9.8,0l-1.222,0C1035.586,3037.285,1035.337,3037.284,1035.088,3037.281Zm5.62-7.767a5.506,5.506,0,0,0-5.439,5.272h11.479a5.526,5.526,0,0,0-5.779-5.277C1040.884,3029.509,1040.8,3029.51,1040.709,3029.513Zm-1.951-4.758a2.245,2.245,0,1,0,2.26-2.223h-.012A2.252,2.252,0,0,0,1038.758,3024.755Z" fill="#6a49f2"/>
    </g>
  </g>
</svg>
