<?xml version="1.0" encoding="utf-8"?>
<!-- Generator: Adobe Illustrator 18.0.0, SVG Export Plug-In . SVG Version: 6.00 Build 0)  -->
<!DOCTYPE svg PUBLIC "-//W3C//DTD SVG 1.1//EN" "http://www.w3.org/Graphics/SVG/1.1/DTD/svg11.dtd">
<svg version="1.1" id="Layer_1" xmlns="http://www.w3.org/2000/svg" xmlns:xlink="http://www.w3.org/1999/xlink" x="0px" y="0px"
	 viewBox="0 0 1879.8 104" enable-background="new 0 0 1879.8 104" xml:space="preserve">
<path fill="#F6F4FE" d="M0,60.5c0-19.7,0-39.3,0-59c626.6,0,1253.2,0,1879.8,0c0,23,0,46,0,69c-31.8-3.7-61.1-15.7-90.5-27.6
	c-9.7-4-19.5-7.7-29.4-11.2c-31.6-11.5-63.9-16.2-97.1-8.2c-21,5.1-42.1,10.1-62.8,16.4c-45.2,13.6-90.8,17.1-137.1,7.4
	c-31.1-6.5-62.1-13.6-93.1-20.6c-26.8-6-53.7-11.7-81.2-13.4c-29.2-1.8-58.4-0.7-87.1,4.3c-47,8.2-94,17.2-140.6,27.4
	c-39.3,8.6-78.5,11.3-117.9,4.2c-31.1-5.6-61.9-13-92.8-19.6c-36.5-7.7-73.3-13.9-110.5-16.3c-37-2.4-73.5,1.3-109.6,9.3
	c-39.8,8.8-79.5,18.1-119.5,25.8c-33.8,6.5-67.9,6.6-101.6-2.1c-23.5-6.1-47.1-12-70.5-18.7c-41-11.9-81.2-10.4-120.9,5.4
	c-14.8,5.9-29.8,11.7-44.6,17.6c-21.9,8.7-44,16.5-67.6,19c-6.4,0.7-12.9,1.2-19.3,1.8c-5.7,0-11.3,0-17,0c-4.3-0.4-8.5-1-12.8-1.3
	C37.1,68.9,18.3,66.4,0,60.5z"/>
<path opacity="0.2" fill="#F6F4FE" d="M0,60.7C0,43,0,25.4,0,7.7c626.6,0,1253.2,0,1879.8,0c0,8,0,16,0,24
	c-18.5-2.6-37.1-1.4-55.1,2.7c-29.2,6.6-58.3,13.7-87,22.1c-54.4,16-109.3,19.8-164.9,8.4c-37.6-7.8-75.1-16.3-112.6-24.7
	c-30.5-6.8-61.1-13.5-92.4-16.3c-37-3.4-73.9-1.3-110.7,3.1c-61.6,7.4-121.9,21.4-182.3,35c-49.1,11.1-98.3,13.9-147.7,4.7
	c-44-8.2-87.6-18.5-131.4-27.4c-48.5-9.9-97.5-16.6-147.1-17c-41.6-0.4-82.1,7.1-122.5,16c-42.9,9.5-85.7,19.5-128.8,27.8
	c-46.2,8.9-92.4,7.6-138.1-4.8c-31.8-8.6-63.6-17.1-95.6-24.9c-20.9-5.1-42.4-7.2-64-5C64.6,34.9,32.2,47.3,0,60.7z"/>
<path opacity="0.5" fill="#F6F4FE" d="M1879.8,52.5c-16.1,4.1-32.2,8.3-48.3,12.4c-41,10.5-82.3,10.4-123.9,4.1
	c-45.7-6.9-90.2-18.9-135.1-29c-41.2-9.2-82.5-16.6-125-15.9c-48.8,0.7-96.9,7.4-144.6,17.1c-43.8,8.9-87.4,19.3-131.4,27.4
	c-49.7,9.2-99.2,6.2-148.7-5c-60-13.6-120.1-27.4-181.3-34.8c-36.6-4.4-73.4-6.4-110.2-3.1c-31.4,2.8-62.1,9.5-92.8,16.4
	c-37.3,8.4-74.6,16.8-112.1,24.5c-55.8,11.5-110.8,7.8-165.4-8.4c-27.4-8.1-55.2-15-83.1-21.4C238,27.5,199,33.1,161.1,47.1
	c-26.7,9.8-53,20.6-79.6,30.6C57.4,86.7,32.8,93.5,6.9,94.8c-1,0-1.9,0.5-2.9,0.7c-1.3,0-2.7,0-4,0c0-28.7,0-57.3,0-86
	c626.6,0,1253.2,0,1879.8,0C1879.8,23.8,1879.8,38.1,1879.8,52.5z"/>
</svg>
