<svg width="354" height="282" viewBox="0 0 354 282" fill="none" xmlns="http://www.w3.org/2000/svg">
<rect x="1" y="1" width="352" height="280" rx="24" fill="white"/>
<path d="M26.1186 40V29.8182H29.8473C30.5698 29.8182 31.1681 29.9375 31.642 30.1761C32.116 30.4115 32.4706 30.7313 32.706 31.1357C32.9413 31.5367 33.0589 31.9891 33.0589 32.4929C33.0589 32.9171 32.9811 33.2751 32.8253 33.5668C32.6695 33.8551 32.4607 34.0871 32.1989 34.2628C31.9403 34.4351 31.6553 34.5611 31.3438 34.6406V34.7401C31.6818 34.7566 32.0116 34.866 32.3331 35.0682C32.6579 35.267 32.9264 35.5504 33.1385 35.9183C33.3506 36.2862 33.4567 36.7337 33.4567 37.2607C33.4567 37.781 33.334 38.2483 33.0888 38.6626C32.8468 39.0736 32.4723 39.4001 31.9652 39.642C31.4581 39.8807 30.8101 40 30.0213 40H26.1186ZM27.6548 38.6825H29.8722C30.608 38.6825 31.1349 38.54 31.4531 38.255C31.7713 37.9699 31.9304 37.6136 31.9304 37.1861C31.9304 36.8646 31.8492 36.5696 31.6868 36.3011C31.5244 36.0327 31.2924 35.8189 30.9908 35.6598C30.6925 35.5007 30.3378 35.4212 29.9268 35.4212H27.6548V38.6825ZM27.6548 34.223H29.7131C30.0578 34.223 30.3677 34.1567 30.6428 34.0241C30.9212 33.8916 31.1416 33.706 31.304 33.4673C31.4697 33.2254 31.5526 32.9403 31.5526 32.6122C31.5526 32.1913 31.4051 31.8383 31.1101 31.5533C30.8151 31.2682 30.3627 31.1257 29.7528 31.1257H27.6548V34.223ZM37.3817 40.169C36.8978 40.169 36.4603 40.0795 36.0692 39.9006C35.6781 39.7183 35.3683 39.4548 35.1396 39.1101C34.9142 38.7654 34.8015 38.3428 34.8015 37.8423C34.8015 37.4115 34.8844 37.0568 35.0501 36.7784C35.2158 36.5 35.4395 36.2796 35.7212 36.1172C36.003 35.9548 36.3178 35.8321 36.6658 35.7493C37.0138 35.6664 37.3685 35.6035 37.7298 35.5604C38.1871 35.5073 38.5584 35.4643 38.8434 35.4311C39.1284 35.3946 39.3356 35.3366 39.4648 35.2571C39.5941 35.1776 39.6587 35.0483 39.6587 34.8693V34.8345C39.6587 34.4003 39.5361 34.0639 39.2908 33.8253C39.0489 33.5866 38.6876 33.4673 38.207 33.4673C37.7066 33.4673 37.3121 33.5784 37.0238 33.8004C36.7388 34.0192 36.5415 34.2628 36.4322 34.5312L35.0352 34.2131C35.2009 33.7491 35.4428 33.3745 35.761 33.0895C36.0825 32.8011 36.4521 32.5923 36.8697 32.4631C37.2873 32.3305 37.7264 32.2642 38.1871 32.2642C38.4921 32.2642 38.8152 32.3007 39.1566 32.3736C39.5013 32.4432 39.8228 32.5724 40.1211 32.7614C40.4227 32.9503 40.6696 33.2204 40.8619 33.5717C41.0541 33.9197 41.1502 34.3722 41.1502 34.929V40H39.6985V38.956H39.6388C39.5427 39.1482 39.3986 39.3371 39.2063 39.5227C39.0141 39.7083 38.7672 39.8625 38.4656 39.9851C38.1639 40.1077 37.8027 40.169 37.3817 40.169ZM37.7049 38.9759C38.1159 38.9759 38.4672 38.8946 38.7589 38.7322C39.0539 38.5698 39.2776 38.3577 39.43 38.0959C39.5858 37.8307 39.6637 37.5473 39.6637 37.2457V36.2614C39.6107 36.3144 39.5079 36.3641 39.3555 36.4105C39.2063 36.4536 39.0356 36.4917 38.8434 36.5249C38.6512 36.5547 38.4639 36.5829 38.2816 36.6094C38.0993 36.6326 37.9469 36.6525 37.8242 36.669C37.5359 36.7055 37.2724 36.7668 37.0337 36.853C36.7984 36.9392 36.6095 37.0634 36.467 37.2259C36.3278 37.3849 36.2582 37.5971 36.2582 37.8622C36.2582 38.2301 36.3941 38.5085 36.6658 38.6974C36.9376 38.883 37.284 38.9759 37.7049 38.9759ZM44.6167 29.8182V40H43.1301V29.8182H44.6167ZM48.8388 40.169C48.3549 40.169 47.9174 40.0795 47.5263 39.9006C47.1352 39.7183 46.8253 39.4548 46.5966 39.1101C46.3712 38.7654 46.2585 38.3428 46.2585 37.8423C46.2585 37.4115 46.3414 37.0568 46.5071 36.7784C46.6728 36.5 46.8965 36.2796 47.1783 36.1172C47.46 35.9548 47.7749 35.8321 48.1229 35.7493C48.4709 35.6664 48.8255 35.6035 49.1868 35.5604C49.6442 35.5073 50.0154 35.4643 50.3004 35.4311C50.5855 35.3946 50.7926 35.3366 50.9219 35.2571C51.0511 35.1776 51.1158 35.0483 51.1158 34.8693V34.8345C51.1158 34.4003 50.9931 34.0639 50.7479 33.8253C50.5059 33.5866 50.1446 33.4673 49.6641 33.4673C49.1636 33.4673 48.7692 33.5784 48.4808 33.8004C48.1958 34.0192 47.9986 34.2628 47.8892 34.5312L46.4922 34.2131C46.6579 33.7491 46.8999 33.3745 47.218 33.0895C47.5395 32.8011 47.9091 32.5923 48.3267 32.4631C48.7443 32.3305 49.1835 32.2642 49.6442 32.2642C49.9491 32.2642 50.2723 32.3007 50.6136 32.3736C50.9583 32.4432 51.2798 32.5724 51.5781 32.7614C51.8797 32.9503 52.1267 33.2204 52.3189 33.5717C52.5111 33.9197 52.6072 34.3722 52.6072 34.929V40H51.1555V38.956H51.0959C50.9998 39.1482 50.8556 39.3371 50.6634 39.5227C50.4711 39.7083 50.2242 39.8625 49.9226 39.9851C49.621 40.1077 49.2597 40.169 48.8388 40.169ZM49.1619 38.9759C49.5729 38.9759 49.9242 38.8946 50.2159 38.7322C50.5109 38.5698 50.7346 38.3577 50.8871 38.0959C51.0429 37.8307 51.1207 37.5473 51.1207 37.2457V36.2614C51.0677 36.3144 50.965 36.3641 50.8125 36.4105C50.6634 36.4536 50.4927 36.4917 50.3004 36.5249C50.1082 36.5547 49.9209 36.5829 49.7386 36.6094C49.5563 36.6326 49.4039 36.6525 49.2812 36.669C48.9929 36.7055 48.7294 36.7668 48.4908 36.853C48.2554 36.9392 48.0665 37.0634 47.924 37.2259C47.7848 37.3849 47.7152 37.5971 47.7152 37.8622C47.7152 38.2301 47.8511 38.5085 48.1229 38.6974C48.3946 38.883 48.741 38.9759 49.1619 38.9759ZM56.0737 35.4659V40H54.5872V32.3636H56.014V33.6065H56.1085C56.2842 33.2022 56.5592 32.8774 56.9338 32.6321C57.3116 32.3868 57.7872 32.2642 58.3606 32.2642C58.881 32.2642 59.3367 32.3736 59.7278 32.5923C60.1189 32.8078 60.4222 33.1293 60.6376 33.5568C60.853 33.9844 60.9608 34.513 60.9608 35.1428V40H59.4743V35.3217C59.4743 34.7682 59.3301 34.3357 59.0417 34.0241C58.7534 33.7093 58.3573 33.5518 57.8535 33.5518C57.5088 33.5518 57.2022 33.6264 56.9338 33.7756C56.6686 33.9247 56.4582 34.1435 56.3024 34.4318C56.1499 34.7169 56.0737 35.0616 56.0737 35.4659ZM66.171 40.1541C65.4319 40.1541 64.7955 39.9867 64.2619 39.652C63.7316 39.3139 63.3239 38.8482 63.0389 38.255C62.7538 37.6617 62.6113 36.9822 62.6113 36.2166C62.6113 35.4411 62.7572 34.7566 63.0488 34.1634C63.3405 33.5668 63.7515 33.1011 64.2818 32.7663C64.8121 32.4316 65.4368 32.2642 66.1561 32.2642C66.7361 32.2642 67.2531 32.3719 67.7072 32.5874C68.1613 32.7995 68.5275 33.0978 68.8059 33.4822C69.0877 33.8667 69.255 34.3158 69.3081 34.8295H67.8613C67.7818 34.4716 67.5995 34.1634 67.3145 33.9048C67.0327 33.6463 66.6549 33.517 66.1809 33.517C65.7666 33.517 65.4037 33.6264 65.0922 33.8452C64.7839 34.0606 64.5436 34.3688 64.3713 34.7699C64.1989 35.1676 64.1127 35.6383 64.1127 36.1818C64.1127 36.7386 64.1973 37.2192 64.3663 37.6236C64.5353 38.0279 64.774 38.3411 65.0822 38.5632C65.3938 38.7853 65.76 38.8963 66.1809 38.8963C66.4627 38.8963 66.7179 38.8449 66.9466 38.7422C67.1786 38.6361 67.3725 38.4853 67.5282 38.2898C67.6873 38.0942 67.7984 37.8589 67.8613 37.5838H69.3081C69.255 38.0777 69.0943 38.5185 68.8258 38.9062C68.5574 39.294 68.1977 39.599 67.747 39.821C67.2995 40.0431 66.7742 40.1541 66.171 40.1541ZM74.1889 40.1541C73.4366 40.1541 72.7886 39.9934 72.245 39.6719C71.7048 39.3471 71.2872 38.8913 70.9922 38.3047C70.7005 37.7147 70.5547 37.0237 70.5547 36.2315C70.5547 35.4493 70.7005 34.7599 70.9922 34.1634C71.2872 33.5668 71.6982 33.1011 72.2251 32.7663C72.7554 32.4316 73.3752 32.2642 74.0845 32.2642C74.5154 32.2642 74.933 32.3355 75.3374 32.478C75.7417 32.6205 76.1046 32.8442 76.4261 33.1491C76.7476 33.4541 77.0012 33.8501 77.1868 34.3374C77.3724 34.8213 77.4652 35.4096 77.4652 36.1023V36.6293H71.3949V35.5156H76.0085C76.0085 35.1245 75.929 34.7782 75.7699 34.4766C75.6108 34.1716 75.3871 33.9313 75.0987 33.7557C74.8137 33.58 74.4789 33.4922 74.0945 33.4922C73.6768 33.4922 73.3123 33.5949 73.0007 33.8004C72.6925 34.0026 72.4538 34.2678 72.2848 34.5959C72.1191 34.9207 72.0362 35.2737 72.0362 35.6548V36.5249C72.0362 37.0353 72.1257 37.4695 72.3047 37.8274C72.487 38.1854 72.7405 38.4588 73.0653 38.6477C73.3902 38.8333 73.7696 38.9261 74.2038 38.9261C74.4856 38.9261 74.7424 38.8864 74.9744 38.8068C75.2064 38.724 75.407 38.6013 75.576 38.4389C75.745 38.2765 75.8743 38.076 75.9638 37.8374L77.3707 38.0909C77.258 38.5052 77.0559 38.8681 76.7642 39.1797C76.4759 39.4879 76.1129 39.7282 75.6754 39.9006C75.2412 40.0696 74.7457 40.1541 74.1889 40.1541Z" fill="#212529"/>
<path d="M25.6278 54.5611V53.5455H32.7188V54.5611H29.7457V63H28.6009V54.5611H25.6278ZM35.4275 58.7344V63H34.338V53.5455H35.4275V57.017H35.5198C35.686 56.6508 35.9353 56.36 36.2677 56.1445C36.6031 55.926 37.0494 55.8168 37.6064 55.8168C38.0896 55.8168 38.5128 55.9137 38.876 56.1076C39.2391 56.2984 39.5207 56.5923 39.7208 56.9893C39.9239 57.3833 40.0255 57.8849 40.0255 58.4943V63H38.936V58.5682C38.936 58.005 38.7898 57.5695 38.4974 57.2617C38.2081 56.9509 37.8065 56.7955 37.2925 56.7955C36.9355 56.7955 36.6154 56.8709 36.3323 57.0217C36.0522 57.1725 35.8306 57.3925 35.6675 57.6818C35.5075 57.9711 35.4275 58.322 35.4275 58.7344ZM42.0186 63V55.9091H43.1081V63H42.0186ZM42.5726 54.7273C42.3603 54.7273 42.1771 54.6549 42.0233 54.5103C41.8725 54.3656 41.7971 54.1918 41.7971 53.9886C41.7971 53.7855 41.8725 53.6116 42.0233 53.467C42.1771 53.3223 42.3603 53.25 42.5726 53.25C42.785 53.25 42.9666 53.3223 43.1174 53.467C43.2712 53.6116 43.3482 53.7855 43.3482 53.9886C43.3482 54.1918 43.2712 54.3656 43.1174 54.5103C42.9666 54.6549 42.785 54.7273 42.5726 54.7273ZM50.1263 57.4972L49.1476 57.7741C49.0861 57.611 48.9953 57.4525 48.8753 57.2987C48.7583 57.1417 48.5983 57.0124 48.3952 56.9109C48.192 56.8093 47.932 56.7585 47.615 56.7585C47.181 56.7585 46.8194 56.8585 46.5301 57.0586C46.2439 57.2556 46.1008 57.5064 46.1008 57.8111C46.1008 58.0819 46.1992 58.2958 46.3962 58.4528C46.5932 58.6097 46.901 58.7405 47.3195 58.8452L48.3721 59.1037C49.0061 59.2576 49.4785 59.493 49.7893 59.81C50.1002 60.1239 50.2556 60.5286 50.2556 61.0241C50.2556 61.4304 50.1386 61.7936 49.9047 62.1136C49.6739 62.4337 49.3508 62.6861 48.9353 62.8707C48.5198 63.0554 48.0366 63.1477 47.4857 63.1477C46.7625 63.1477 46.1639 62.9908 45.6899 62.6768C45.2159 62.3629 44.9159 61.9044 44.7897 61.3011L45.8238 61.0426C45.9223 61.4242 46.1085 61.7105 46.3824 61.9013C46.6594 62.0921 47.021 62.1875 47.4672 62.1875C47.9751 62.1875 48.3782 62.0798 48.6768 61.8643C48.9784 61.6458 49.1292 61.3842 49.1292 61.0795C49.1292 60.8333 49.043 60.6271 48.8706 60.4609C48.6983 60.2917 48.4336 60.1655 48.0766 60.0824L46.8948 59.8054C46.2454 59.6515 45.7684 59.413 45.4637 59.0898C45.1621 58.7636 45.0113 58.3558 45.0113 57.8665C45.0113 57.4664 45.1236 57.1125 45.3483 56.8047C45.576 56.4969 45.8853 56.2553 46.2762 56.0799C46.6701 55.9045 47.1164 55.8168 47.615 55.8168C48.3167 55.8168 48.8676 55.9706 49.2677 56.2784C49.6708 56.5862 49.9571 56.9924 50.1263 57.4972ZM55.5518 63V55.9091H56.6044V57.017H56.6967C56.8445 56.6385 57.083 56.3446 57.4123 56.1353C57.7416 55.9229 58.1371 55.8168 58.5987 55.8168C59.0665 55.8168 59.4558 55.9229 59.7667 56.1353C60.0806 56.3446 60.3253 56.6385 60.5007 57.017H60.5746C60.7562 56.6508 61.0285 56.36 61.3917 56.1445C61.7549 55.926 62.1903 55.8168 62.6982 55.8168C63.3321 55.8168 63.8507 56.0153 64.2539 56.4123C64.6571 56.8062 64.8587 57.4202 64.8587 58.2543V63H63.7692V58.2543C63.7692 57.7311 63.6261 57.3571 63.3398 57.1325C63.0536 56.9078 62.7166 56.7955 62.3288 56.7955C61.8303 56.7955 61.444 56.9463 61.1701 57.2479C60.8962 57.5464 60.7592 57.925 60.7592 58.3835V63H59.6513V58.1435C59.6513 57.7403 59.5205 57.4156 59.2589 57.1694C58.9973 56.9201 58.6603 56.7955 58.2479 56.7955C57.9647 56.7955 57.7 56.8709 57.4538 57.0217C57.2107 57.1725 57.0137 57.3817 56.8629 57.6495C56.7152 57.9142 56.6413 58.2204 56.6413 58.5682V63H55.5518ZM69.7314 63.1477C69.0912 63.1477 68.5295 62.9954 68.0463 62.6907C67.5662 62.386 67.1908 61.9598 66.9199 61.4119C66.6522 60.8641 66.5183 60.224 66.5183 59.4915C66.5183 58.7528 66.6522 58.1081 66.9199 57.5572C67.1908 57.0063 67.5662 56.5785 68.0463 56.2738C68.5295 55.9691 69.0912 55.8168 69.7314 55.8168C70.3715 55.8168 70.9316 55.9691 71.4118 56.2738C71.8949 56.5785 72.2704 57.0063 72.5382 57.5572C72.809 58.1081 72.9444 58.7528 72.9444 59.4915C72.9444 60.224 72.809 60.8641 72.5382 61.4119C72.2704 61.9598 71.8949 62.386 71.4118 62.6907C70.9316 62.9954 70.3715 63.1477 69.7314 63.1477ZM69.7314 62.169C70.2176 62.169 70.6177 62.0444 70.9316 61.7951C71.2456 61.5458 71.4779 61.218 71.6287 60.8118C71.7795 60.4055 71.8549 59.9654 71.8549 59.4915C71.8549 59.0175 71.7795 58.5759 71.6287 58.1665C71.4779 57.7572 71.2456 57.4264 70.9316 57.174C70.6177 56.9216 70.2176 56.7955 69.7314 56.7955C69.2451 56.7955 68.845 56.9216 68.5311 57.174C68.2172 57.4264 67.9848 57.7572 67.834 58.1665C67.6832 58.5759 67.6078 59.0175 67.6078 59.4915C67.6078 59.9654 67.6832 60.4055 67.834 60.8118C67.9848 61.218 68.2172 61.5458 68.5311 61.7951C68.845 62.0444 69.2451 62.169 69.7314 62.169ZM75.697 58.7344V63H74.6075V55.9091H75.6601V57.017H75.7524C75.9186 56.657 76.171 56.3677 76.5095 56.1491C76.848 55.9276 77.2851 55.8168 77.8206 55.8168C78.3007 55.8168 78.7208 55.9152 79.0809 56.1122C79.441 56.3061 79.721 56.6016 79.9211 56.9986C80.1211 57.3925 80.2211 57.8911 80.2211 58.4943V63H79.1317V58.5682C79.1317 58.0111 78.987 57.5772 78.6977 57.2663C78.4084 56.9524 78.0114 56.7955 77.5067 56.7955C77.1589 56.7955 76.848 56.8709 76.5741 57.0217C76.3033 57.1725 76.0894 57.3925 75.9324 57.6818C75.7755 57.9711 75.697 58.322 75.697 58.7344ZM85.2958 55.9091V56.8324H81.6211V55.9091H85.2958ZM82.6921 54.2102H83.7816V60.9688C83.7816 61.2765 83.8262 61.5073 83.9155 61.6612C84.0078 61.812 84.1248 61.9136 84.2663 61.9659C84.411 62.0152 84.5633 62.0398 84.7234 62.0398C84.8434 62.0398 84.9419 62.0336 85.0188 62.0213C85.0958 62.0059 85.1573 61.9936 85.2035 61.9844L85.4251 62.9631C85.3512 62.9908 85.2481 63.0185 85.1158 63.0462C84.9834 63.0769 84.8157 63.0923 84.6126 63.0923C84.3048 63.0923 84.0032 63.0262 83.7077 62.8938C83.4154 62.7615 83.1722 62.5599 82.9783 62.2891C82.7875 62.0182 82.6921 61.6766 82.6921 61.2642V54.2102ZM88.1765 58.7344V63H87.087V53.5455H88.1765V57.017H88.2688C88.435 56.6508 88.6843 56.36 89.0167 56.1445C89.3522 55.926 89.7984 55.8168 90.3555 55.8168C90.8387 55.8168 91.2618 55.9137 91.625 56.1076C91.9882 56.2984 92.2698 56.5923 92.4698 56.9893C92.6729 57.3833 92.7745 57.8849 92.7745 58.4943V63H91.685V58.5682C91.685 58.005 91.5388 57.5695 91.2464 57.2617C90.9571 56.9509 90.5555 56.7955 90.0415 56.7955C89.6845 56.7955 89.3645 56.8709 89.0813 57.0217C88.8013 57.1725 88.5797 57.3925 88.4165 57.6818C88.2565 57.9711 88.1765 58.322 88.1765 58.7344Z" fill="#ADB5BD"/>
<path d="M69.9688 241H71.125L73.8438 247.641H73.9375L76.6563 241H77.8125V249H76.9062V242.922H76.8281L74.3281 249H73.4531L70.9531 242.922H70.875V249H69.9688V241ZM81.3955 249.141C81.0153 249.141 80.6702 249.069 80.3604 248.926C80.0505 248.78 79.8044 248.57 79.6221 248.297C79.4398 248.021 79.3486 247.687 79.3486 247.297C79.3486 246.953 79.4163 246.674 79.5518 246.461C79.6872 246.245 79.8682 246.076 80.0947 245.953C80.3213 245.831 80.5713 245.74 80.8447 245.68C81.1208 245.617 81.3981 245.568 81.6768 245.531C82.0413 245.484 82.3369 245.449 82.5635 245.426C82.7926 245.4 82.9593 245.357 83.0635 245.297C83.1702 245.237 83.2236 245.133 83.2236 244.984V244.953C83.2236 244.568 83.1182 244.268 82.9072 244.055C82.6989 243.841 82.3825 243.734 81.958 243.734C81.5179 243.734 81.1729 243.831 80.9229 244.023C80.6729 244.216 80.4971 244.422 80.3955 244.641L79.5205 244.328C79.6768 243.964 79.8851 243.68 80.1455 243.477C80.4085 243.271 80.695 243.128 81.0049 243.047C81.3174 242.964 81.6247 242.922 81.9268 242.922C82.1195 242.922 82.3408 242.945 82.5908 242.992C82.8434 243.036 83.0869 243.129 83.3213 243.27C83.5583 243.41 83.7549 243.622 83.9111 243.906C84.0674 244.19 84.1455 244.57 84.1455 245.047V249H83.2236V248.187H83.1768C83.1143 248.318 83.0101 248.457 82.8643 248.605C82.7184 248.754 82.5244 248.88 82.2822 248.984C82.04 249.089 81.7445 249.141 81.3955 249.141ZM81.5361 248.312C81.9007 248.312 82.208 248.241 82.458 248.098C82.7106 247.954 82.9007 247.77 83.0283 247.543C83.1585 247.316 83.2236 247.078 83.2236 246.828V245.984C83.1846 246.031 83.0986 246.074 82.9658 246.113C82.8356 246.15 82.6846 246.182 82.5127 246.211C82.3434 246.237 82.1781 246.26 82.0166 246.281C81.8577 246.299 81.7288 246.315 81.6299 246.328C81.3903 246.359 81.1663 246.41 80.958 246.48C80.7523 246.548 80.5856 246.651 80.458 246.789C80.333 246.924 80.2705 247.109 80.2705 247.344C80.2705 247.664 80.389 247.906 80.626 248.07C80.8656 248.232 81.1689 248.312 81.5361 248.312ZM85.8281 249V243H86.7187V243.906H86.7813C86.8906 243.609 87.0885 243.368 87.375 243.184C87.6615 242.999 87.9844 242.906 88.3438 242.906C88.4115 242.906 88.4961 242.908 88.5977 242.91C88.6992 242.913 88.776 242.917 88.8281 242.922V243.859C88.7969 243.852 88.7253 243.84 88.6133 243.824C88.5039 243.806 88.388 243.797 88.2656 243.797C87.974 243.797 87.7135 243.858 87.4844 243.98C87.2578 244.1 87.0781 244.267 86.9453 244.48C86.8151 244.691 86.75 244.932 86.75 245.203V249H85.8281ZM95.8115 241V249H94.8428V242.016H94.7959L92.8428 243.312V242.328L94.8428 241H95.8115ZM99.0303 247.906L98.9678 248.328C98.9235 248.625 98.8558 248.943 98.7646 249.281C98.6761 249.62 98.5837 249.939 98.4873 250.238C98.391 250.538 98.3115 250.776 98.249 250.953H97.5459C97.5798 250.786 97.624 250.566 97.6787 250.293C97.7334 250.02 97.7881 249.714 97.8428 249.375C97.9001 249.039 97.9469 248.695 97.9834 248.344L98.0303 247.906H99.0303ZM103.816 249V248.297L106.457 245.406C106.767 245.068 107.022 244.773 107.223 244.523C107.423 244.271 107.572 244.034 107.668 243.812C107.767 243.589 107.816 243.354 107.816 243.109C107.816 242.828 107.749 242.585 107.613 242.379C107.48 242.173 107.298 242.014 107.066 241.902C106.835 241.79 106.574 241.734 106.285 241.734C105.978 241.734 105.71 241.798 105.48 241.926C105.254 242.051 105.078 242.227 104.953 242.453C104.831 242.68 104.77 242.945 104.77 243.25H103.848C103.848 242.781 103.956 242.37 104.172 242.016C104.388 241.661 104.682 241.385 105.055 241.187C105.43 240.99 105.85 240.891 106.316 240.891C106.785 240.891 107.201 240.99 107.563 241.187C107.924 241.385 108.208 241.652 108.414 241.988C108.62 242.324 108.723 242.698 108.723 243.109C108.723 243.404 108.669 243.691 108.563 243.973C108.458 244.251 108.276 244.562 108.016 244.906C107.758 245.247 107.4 245.664 106.941 246.156L105.145 248.078V248.141H108.863V249H103.816ZM113.086 249.109C112.497 249.109 111.996 248.949 111.582 248.629C111.168 248.306 110.852 247.839 110.633 247.227C110.414 246.612 110.305 245.87 110.305 245C110.305 244.135 110.414 243.397 110.633 242.785C110.854 242.171 111.172 241.702 111.586 241.379C112.003 241.053 112.503 240.891 113.086 240.891C113.669 240.891 114.168 241.053 114.582 241.379C114.999 241.702 115.316 242.171 115.535 242.785C115.757 243.397 115.867 244.135 115.867 245C115.867 245.87 115.758 246.612 115.539 247.227C115.32 247.839 115.004 248.306 114.59 248.629C114.176 248.949 113.674 249.109 113.086 249.109ZM113.086 248.25C113.669 248.25 114.122 247.969 114.445 247.406C114.768 246.844 114.93 246.042 114.93 245C114.93 244.307 114.855 243.717 114.707 243.23C114.561 242.743 114.35 242.372 114.074 242.117C113.801 241.862 113.471 241.734 113.086 241.734C112.508 241.734 112.056 242.02 111.73 242.59C111.405 243.158 111.242 243.961 111.242 245C111.242 245.693 111.315 246.281 111.461 246.766C111.607 247.25 111.816 247.618 112.09 247.871C112.366 248.124 112.698 248.25 113.086 248.25ZM117.352 249V248.297L119.992 245.406C120.302 245.068 120.557 244.773 120.758 244.523C120.958 244.271 121.107 244.034 121.203 243.812C121.302 243.589 121.352 243.354 121.352 243.109C121.352 242.828 121.284 242.585 121.148 242.379C121.016 242.173 120.833 242.014 120.602 241.902C120.37 241.79 120.109 241.734 119.82 241.734C119.513 241.734 119.245 241.798 119.016 241.926C118.789 242.051 118.613 242.227 118.488 242.453C118.366 242.68 118.305 242.945 118.305 243.25H117.383C117.383 242.781 117.491 242.37 117.707 242.016C117.923 241.661 118.217 241.385 118.59 241.187C118.965 240.99 119.385 240.891 119.852 240.891C120.32 240.891 120.736 240.99 121.098 241.187C121.46 241.385 121.743 241.652 121.949 241.988C122.155 242.324 122.258 242.698 122.258 243.109C122.258 243.404 122.204 243.691 122.098 243.973C121.993 244.251 121.811 244.562 121.551 244.906C121.293 245.247 120.935 245.664 120.477 246.156L118.68 248.078V248.141H122.398V249H117.352ZM126.715 249.109C126.199 249.109 125.74 249.021 125.336 248.844C124.935 248.667 124.616 248.421 124.379 248.105C124.145 247.788 124.017 247.419 123.996 247H124.98C125.001 247.258 125.09 247.48 125.246 247.668C125.402 247.853 125.607 247.996 125.859 248.098C126.112 248.199 126.392 248.25 126.699 248.25C127.043 248.25 127.348 248.19 127.613 248.07C127.879 247.951 128.087 247.784 128.238 247.57C128.389 247.357 128.465 247.109 128.465 246.828C128.465 246.534 128.392 246.275 128.246 246.051C128.1 245.824 127.887 245.647 127.605 245.52C127.324 245.392 126.98 245.328 126.574 245.328H125.934V244.469H126.574C126.892 244.469 127.171 244.411 127.41 244.297C127.652 244.182 127.841 244.021 127.977 243.812C128.115 243.604 128.184 243.359 128.184 243.078C128.184 242.807 128.124 242.572 128.004 242.371C127.884 242.171 127.715 242.014 127.496 241.902C127.28 241.79 127.025 241.734 126.73 241.734C126.454 241.734 126.194 241.785 125.949 241.887C125.707 241.986 125.509 242.13 125.355 242.32C125.202 242.508 125.118 242.734 125.105 243H124.168C124.184 242.581 124.31 242.214 124.547 241.898C124.784 241.581 125.094 241.333 125.477 241.156C125.862 240.979 126.285 240.891 126.746 240.891C127.241 240.891 127.665 240.991 128.02 241.191C128.374 241.389 128.646 241.651 128.836 241.977C129.026 242.302 129.121 242.654 129.121 243.031C129.121 243.482 129.003 243.866 128.766 244.184C128.531 244.501 128.212 244.721 127.809 244.844V244.906C128.314 244.99 128.708 245.204 128.992 245.551C129.276 245.895 129.418 246.32 129.418 246.828C129.418 247.263 129.299 247.654 129.063 248C128.828 248.344 128.508 248.615 128.102 248.812C127.695 249.01 127.233 249.109 126.715 249.109Z" fill="#212529"/>
<path d="M28.1875 218V208H28.8281V218H28.1875ZM30.3438 211C30.2969 210.604 30.1068 210.297 29.7734 210.078C29.4401 209.859 29.0313 209.75 28.5469 209.75C28.1927 209.75 27.8828 209.807 27.6172 209.922C27.3542 210.036 27.1484 210.194 27 210.395C26.8542 210.595 26.7813 210.823 26.7813 211.078C26.7813 211.292 26.832 211.475 26.9336 211.629C27.0378 211.78 27.1706 211.906 27.332 212.008C27.4935 212.107 27.6628 212.189 27.8398 212.254C28.0169 212.316 28.1797 212.367 28.3281 212.406L29.1406 212.625C29.349 212.68 29.5807 212.755 29.8359 212.852C30.0938 212.948 30.3398 213.079 30.5742 213.246C30.8112 213.41 31.0065 213.621 31.1602 213.879C31.3138 214.137 31.3906 214.453 31.3906 214.828C31.3906 215.26 31.2773 215.651 31.0508 216C30.8268 216.349 30.4987 216.626 30.0664 216.832C29.6367 217.038 29.1146 217.141 28.5 217.141C27.9271 217.141 27.431 217.048 27.0117 216.863C26.5951 216.678 26.2669 216.421 26.0273 216.09C25.7904 215.759 25.6563 215.375 25.625 214.938H26.625C26.651 215.24 26.7526 215.49 26.9297 215.687C27.1094 215.883 27.3359 216.029 27.6094 216.125C27.8854 216.219 28.1823 216.266 28.5 216.266C28.8698 216.266 29.2018 216.206 29.4961 216.086C29.7904 215.964 30.0234 215.794 30.1953 215.578C30.3672 215.359 30.4531 215.104 30.4531 214.812C30.4531 214.547 30.3789 214.331 30.2305 214.164C30.082 213.997 29.8867 213.862 29.6445 213.758C29.4023 213.654 29.1406 213.562 28.8594 213.484L27.875 213.203C27.25 213.023 26.7552 212.767 26.3906 212.434C26.026 212.1 25.8438 211.664 25.8438 211.125C25.8438 210.677 25.9648 210.286 26.207 209.953C26.4518 209.617 26.7799 209.357 27.1914 209.172C27.6055 208.984 28.0677 208.891 28.5781 208.891C29.0938 208.891 29.5521 208.983 29.9531 209.168C30.3542 209.35 30.6719 209.6 30.9062 209.918C31.1432 210.236 31.2682 210.596 31.2813 211H30.3438ZM35.4521 217.109C34.8636 217.109 34.3623 216.949 33.9482 216.629C33.5342 216.306 33.2178 215.839 32.999 215.227C32.7803 214.612 32.6709 213.87 32.6709 213C32.6709 212.135 32.7803 211.397 32.999 210.785C33.2204 210.171 33.5381 209.702 33.9521 209.379C34.3688 209.053 34.8688 208.891 35.4521 208.891C36.0355 208.891 36.5342 209.053 36.9482 209.379C37.3649 209.702 37.6826 210.171 37.9014 210.785C38.1227 211.397 38.2334 212.135 38.2334 213C38.2334 213.87 38.124 214.612 37.9053 215.227C37.6865 215.839 37.3701 216.306 36.9561 216.629C36.542 216.949 36.0407 217.109 35.4521 217.109ZM35.4521 216.25C36.0355 216.25 36.4886 215.969 36.8115 215.406C37.1344 214.844 37.2959 214.042 37.2959 213C37.2959 212.307 37.2217 211.717 37.0732 211.23C36.9274 210.743 36.7165 210.372 36.4404 210.117C36.167 209.862 35.8376 209.734 35.4521 209.734C34.874 209.734 34.4222 210.02 34.0967 210.59C33.7712 211.158 33.6084 211.961 33.6084 213C33.6084 213.693 33.6813 214.281 33.8271 214.766C33.973 215.25 34.1826 215.618 34.4561 215.871C34.7321 216.124 35.0641 216.25 35.4521 216.25Z" fill="#212529"/>
<path d="M28.1875 111V101H28.8281V111H28.1875ZM30.3438 104C30.2969 103.604 30.1068 103.297 29.7734 103.078C29.4401 102.859 29.0313 102.75 28.5469 102.75C28.1927 102.75 27.8828 102.807 27.6172 102.922C27.3542 103.036 27.1484 103.194 27 103.395C26.8542 103.595 26.7813 103.823 26.7813 104.078C26.7813 104.292 26.832 104.475 26.9336 104.629C27.0378 104.78 27.1706 104.906 27.332 105.008C27.4935 105.107 27.6628 105.189 27.8398 105.254C28.0169 105.316 28.1797 105.367 28.3281 105.406L29.1406 105.625C29.349 105.68 29.5807 105.755 29.8359 105.852C30.0938 105.948 30.3398 106.079 30.5742 106.246C30.8112 106.41 31.0065 106.621 31.1602 106.879C31.3138 107.137 31.3906 107.453 31.3906 107.828C31.3906 108.26 31.2773 108.651 31.0508 109C30.8268 109.349 30.4987 109.626 30.0664 109.832C29.6367 110.038 29.1146 110.141 28.5 110.141C27.9271 110.141 27.431 110.048 27.0117 109.863C26.5951 109.678 26.2669 109.421 26.0273 109.09C25.7904 108.759 25.6563 108.375 25.625 107.938H26.625C26.651 108.24 26.7526 108.49 26.9297 108.687C27.1094 108.883 27.3359 109.029 27.6094 109.125C27.8854 109.219 28.1823 109.266 28.5 109.266C28.8698 109.266 29.2018 109.206 29.4961 109.086C29.7904 108.964 30.0234 108.794 30.1953 108.578C30.3672 108.359 30.4531 108.104 30.4531 107.812C30.4531 107.547 30.3789 107.331 30.2305 107.164C30.082 106.997 29.8867 106.862 29.6445 106.758C29.4023 106.654 29.1406 106.562 28.8594 106.484L27.875 106.203C27.25 106.023 26.7552 105.767 26.3906 105.434C26.026 105.1 25.8438 104.664 25.8438 104.125C25.8438 103.677 25.9648 103.286 26.207 102.953C26.4518 102.617 26.7799 102.357 27.1914 102.172C27.6055 101.984 28.0677 101.891 28.5781 101.891C29.0938 101.891 29.5521 101.983 29.9531 102.168C30.3542 102.35 30.6719 102.6 30.9062 102.918C31.1432 103.236 31.2682 103.596 31.2813 104H30.3438ZM35.6553 102V110H34.6865V103.016H34.6396L32.6865 104.312V103.328L34.6865 102H35.6553ZM38.874 108.906L38.8115 109.328C38.7673 109.625 38.6995 109.943 38.6084 110.281C38.5199 110.62 38.4274 110.939 38.3311 111.238C38.2347 111.538 38.1553 111.776 38.0928 111.953H37.3896C37.4235 111.786 37.4678 111.566 37.5225 111.293C37.5771 111.02 37.6318 110.714 37.6865 110.375C37.7438 110.039 37.7907 109.695 37.8271 109.344L37.874 108.906H38.874ZM42.8965 110.109C42.3079 110.109 41.8066 109.949 41.3926 109.629C40.9785 109.306 40.6621 108.839 40.4434 108.227C40.2246 107.612 40.1152 106.87 40.1152 106C40.1152 105.135 40.2246 104.397 40.4434 103.785C40.6647 103.171 40.9824 102.702 41.3965 102.379C41.8132 102.053 42.3132 101.891 42.8965 101.891C43.4798 101.891 43.9785 102.053 44.3926 102.379C44.8092 102.702 45.127 103.171 45.3457 103.785C45.5671 104.397 45.6777 105.135 45.6777 106C45.6777 106.87 45.5684 107.612 45.3496 108.227C45.1309 108.839 44.8145 109.306 44.4004 109.629C43.9863 109.949 43.485 110.109 42.8965 110.109ZM42.8965 109.25C43.4798 109.25 43.9329 108.969 44.2559 108.406C44.5788 107.844 44.7402 107.042 44.7402 106C44.7402 105.307 44.666 104.717 44.5176 104.23C44.3717 103.743 44.1608 103.372 43.8848 103.117C43.6113 102.862 43.2819 102.734 42.8965 102.734C42.3184 102.734 41.8665 103.02 41.541 103.59C41.2155 104.158 41.0527 104.961 41.0527 106C41.0527 106.693 41.1257 107.281 41.2715 107.766C41.4173 108.25 41.627 108.618 41.9004 108.871C42.1764 109.124 42.5085 109.25 42.8965 109.25ZM49.7715 110.109C49.1829 110.109 48.6816 109.949 48.2676 109.629C47.8535 109.306 47.5371 108.839 47.3184 108.227C47.0996 107.612 46.9902 106.87 46.9902 106C46.9902 105.135 47.0996 104.397 47.3184 103.785C47.5397 103.171 47.8574 102.702 48.2715 102.379C48.6882 102.053 49.1882 101.891 49.7715 101.891C50.3548 101.891 50.8535 102.053 51.2676 102.379C51.6842 102.702 52.002 103.171 52.2207 103.785C52.4421 104.397 52.5527 105.135 52.5527 106C52.5527 106.87 52.4434 107.612 52.2246 108.227C52.0059 108.839 51.6895 109.306 51.2754 109.629C50.8613 109.949 50.36 110.109 49.7715 110.109ZM49.7715 109.25C50.3548 109.25 50.8079 108.969 51.1309 108.406C51.4538 107.844 51.6152 107.042 51.6152 106C51.6152 105.307 51.541 104.717 51.3926 104.23C51.2467 103.743 51.0358 103.372 50.7598 103.117C50.4863 102.862 50.1569 102.734 49.7715 102.734C49.1934 102.734 48.7415 103.02 48.416 103.59C48.0905 104.158 47.9277 104.961 47.9277 106C47.9277 106.693 48.0007 107.281 48.1465 107.766C48.2923 108.25 48.502 108.618 48.7754 108.871C49.0514 109.124 49.3835 109.25 49.7715 109.25ZM56.6465 110.109C56.0579 110.109 55.5566 109.949 55.1426 109.629C54.7285 109.306 54.4121 108.839 54.1934 108.227C53.9746 107.612 53.8652 106.87 53.8652 106C53.8652 105.135 53.9746 104.397 54.1934 103.785C54.4147 103.171 54.7324 102.702 55.1465 102.379C55.5632 102.053 56.0632 101.891 56.6465 101.891C57.2298 101.891 57.7285 102.053 58.1426 102.379C58.5592 102.702 58.877 103.171 59.0957 103.785C59.3171 104.397 59.4277 105.135 59.4277 106C59.4277 106.87 59.3184 107.612 59.0996 108.227C58.8809 108.839 58.5645 109.306 58.1504 109.629C57.7363 109.949 57.235 110.109 56.6465 110.109ZM56.6465 109.25C57.2298 109.25 57.6829 108.969 58.0059 108.406C58.3288 107.844 58.4902 107.042 58.4902 106C58.4902 105.307 58.416 104.717 58.2676 104.23C58.1217 103.743 57.9108 103.372 57.6348 103.117C57.3613 102.862 57.0319 102.734 56.6465 102.734C56.0684 102.734 55.6165 103.02 55.291 103.59C54.9655 104.158 54.8027 104.961 54.8027 106C54.8027 106.693 54.8757 107.281 55.0215 107.766C55.1673 108.25 55.377 108.618 55.6504 108.871C55.9264 109.124 56.2585 109.25 56.6465 109.25Z" fill="#212529"/>
<path d="M261.777 241H262.934L265.652 247.641H265.746L268.465 241H269.621V249H268.715V242.922H268.637L266.137 249H265.262L262.762 242.922H262.684V249H261.777V241ZM273.204 249.141C272.824 249.141 272.479 249.069 272.169 248.926C271.859 248.78 271.613 248.57 271.431 248.297C271.248 248.021 271.157 247.687 271.157 247.297C271.157 246.953 271.225 246.674 271.36 246.461C271.496 246.245 271.677 246.076 271.903 245.953C272.13 245.831 272.38 245.74 272.653 245.68C272.929 245.617 273.207 245.568 273.485 245.531C273.85 245.484 274.146 245.449 274.372 245.426C274.601 245.4 274.768 245.357 274.872 245.297C274.979 245.237 275.032 245.133 275.032 244.984V244.953C275.032 244.568 274.927 244.268 274.716 244.055C274.507 243.841 274.191 243.734 273.767 243.734C273.326 243.734 272.981 243.831 272.731 244.023C272.481 244.216 272.306 244.422 272.204 244.641L271.329 244.328C271.485 243.964 271.694 243.68 271.954 243.477C272.217 243.271 272.504 243.128 272.813 243.047C273.126 242.964 273.433 242.922 273.735 242.922C273.928 242.922 274.149 242.945 274.399 242.992C274.652 243.036 274.896 243.129 275.13 243.27C275.367 243.41 275.563 243.622 275.72 243.906C275.876 244.19 275.954 244.57 275.954 245.047V249H275.032V248.187H274.985C274.923 248.318 274.819 248.457 274.673 248.605C274.527 248.754 274.333 248.88 274.091 248.984C273.849 249.089 273.553 249.141 273.204 249.141ZM273.345 248.312C273.709 248.312 274.017 248.241 274.267 248.098C274.519 247.954 274.709 247.77 274.837 247.543C274.967 247.316 275.032 247.078 275.032 246.828V245.984C274.993 246.031 274.907 246.074 274.774 246.113C274.644 246.15 274.493 246.182 274.321 246.211C274.152 246.237 273.987 246.26 273.825 246.281C273.666 246.299 273.537 246.315 273.438 246.328C273.199 246.359 272.975 246.41 272.767 246.48C272.561 246.548 272.394 246.651 272.267 246.789C272.142 246.924 272.079 247.109 272.079 247.344C272.079 247.664 272.198 247.906 272.435 248.07C272.674 248.232 272.978 248.312 273.345 248.312ZM277.637 249V243H278.527V243.906H278.59C278.699 243.609 278.897 243.368 279.184 243.184C279.47 242.999 279.793 242.906 280.152 242.906C280.22 242.906 280.305 242.908 280.406 242.91C280.508 242.913 280.585 242.917 280.637 242.922V243.859C280.605 243.852 280.534 243.84 280.422 243.824C280.313 243.806 280.197 243.797 280.074 243.797C279.783 243.797 279.522 243.858 279.293 243.98C279.066 244.1 278.887 244.267 278.754 244.48C278.624 244.691 278.559 244.932 278.559 245.203V249H277.637ZM287.511 249.109C286.995 249.109 286.535 249.021 286.132 248.844C285.731 248.667 285.412 248.421 285.175 248.105C284.94 247.788 284.813 247.419 284.792 247H285.776C285.797 247.258 285.886 247.48 286.042 247.668C286.198 247.853 286.403 247.996 286.655 248.098C286.908 248.199 287.188 248.25 287.495 248.25C287.839 248.25 288.144 248.19 288.409 248.07C288.675 247.951 288.883 247.784 289.034 247.57C289.185 247.357 289.261 247.109 289.261 246.828C289.261 246.534 289.188 246.275 289.042 246.051C288.896 245.824 288.683 245.647 288.401 245.52C288.12 245.392 287.776 245.328 287.37 245.328H286.729V244.469H287.37C287.688 244.469 287.966 244.411 288.206 244.297C288.448 244.182 288.637 244.021 288.772 243.812C288.91 243.604 288.979 243.359 288.979 243.078C288.979 242.807 288.92 242.572 288.8 242.371C288.68 242.171 288.511 242.014 288.292 241.902C288.076 241.79 287.821 241.734 287.526 241.734C287.25 241.734 286.99 241.785 286.745 241.887C286.503 241.986 286.305 242.13 286.151 242.32C285.998 242.508 285.914 242.734 285.901 243H284.964C284.979 242.581 285.106 242.214 285.343 241.898C285.58 241.581 285.89 241.333 286.272 241.156C286.658 240.979 287.081 240.891 287.542 240.891C288.037 240.891 288.461 240.991 288.815 241.191C289.17 241.389 289.442 241.651 289.632 241.977C289.822 242.302 289.917 242.654 289.917 243.031C289.917 243.482 289.799 243.866 289.562 244.184C289.327 244.501 289.008 244.721 288.604 244.844V244.906C289.11 244.99 289.504 245.204 289.788 245.551C290.072 245.895 290.214 246.32 290.214 246.828C290.214 247.263 290.095 247.654 289.858 248C289.624 248.344 289.304 248.615 288.897 248.812C288.491 249.01 288.029 249.109 287.511 249.109ZM294.624 241V249H293.655V242.016H293.608L291.655 243.312V242.328L293.655 241H294.624ZM297.843 247.906L297.78 248.328C297.736 248.625 297.668 248.943 297.577 249.281C297.489 249.62 297.396 249.939 297.3 250.238C297.203 250.538 297.124 250.776 297.062 250.953H296.358C296.392 250.786 296.437 250.566 296.491 250.293C296.546 250.02 296.601 249.714 296.655 249.375C296.713 249.039 296.759 248.695 296.796 248.344L296.843 247.906H297.843ZM302.629 249V248.297L305.27 245.406C305.579 245.068 305.835 244.773 306.035 244.523C306.236 244.271 306.384 244.034 306.48 243.812C306.579 243.589 306.629 243.354 306.629 243.109C306.629 242.828 306.561 242.585 306.426 242.379C306.293 242.173 306.111 242.014 305.879 241.902C305.647 241.79 305.387 241.734 305.098 241.734C304.79 241.734 304.522 241.798 304.293 241.926C304.066 242.051 303.891 242.227 303.766 242.453C303.643 242.68 303.582 242.945 303.582 243.25H302.66C302.66 242.781 302.768 242.37 302.984 242.016C303.201 241.661 303.495 241.385 303.867 241.187C304.242 240.99 304.663 240.891 305.129 240.891C305.598 240.891 306.013 240.99 306.375 241.187C306.737 241.385 307.021 241.652 307.227 241.988C307.432 242.324 307.535 242.698 307.535 243.109C307.535 243.404 307.482 243.691 307.375 243.973C307.271 244.251 307.089 244.562 306.828 244.906C306.57 245.247 306.212 245.664 305.754 246.156L303.957 248.078V248.141H307.676V249H302.629ZM311.898 249.109C311.31 249.109 310.809 248.949 310.395 248.629C309.98 248.306 309.664 247.839 309.445 247.227C309.227 246.612 309.117 245.87 309.117 245C309.117 244.135 309.227 243.397 309.445 242.785C309.667 242.171 309.984 241.702 310.398 241.379C310.815 241.053 311.315 240.891 311.898 240.891C312.482 240.891 312.98 241.053 313.395 241.379C313.811 241.702 314.129 242.171 314.348 242.785C314.569 243.397 314.68 244.135 314.68 245C314.68 245.87 314.57 246.612 314.352 247.227C314.133 247.839 313.816 248.306 313.402 248.629C312.988 248.949 312.487 249.109 311.898 249.109ZM311.898 248.25C312.482 248.25 312.935 247.969 313.258 247.406C313.581 246.844 313.742 246.042 313.742 245C313.742 244.307 313.668 243.717 313.52 243.23C313.374 242.743 313.163 242.372 312.887 242.117C312.613 241.862 312.284 241.734 311.898 241.734C311.32 241.734 310.868 242.02 310.543 242.59C310.217 243.158 310.055 243.961 310.055 245C310.055 245.693 310.128 246.281 310.273 246.766C310.419 247.25 310.629 247.618 310.902 247.871C311.178 248.124 311.51 248.25 311.898 248.25ZM316.164 249V248.297L318.805 245.406C319.115 245.068 319.37 244.773 319.57 244.523C319.771 244.271 319.919 244.034 320.016 243.812C320.115 243.589 320.164 243.354 320.164 243.109C320.164 242.828 320.096 242.585 319.961 242.379C319.828 242.173 319.646 242.014 319.414 241.902C319.182 241.79 318.922 241.734 318.633 241.734C318.326 241.734 318.057 241.798 317.828 241.926C317.602 242.051 317.426 242.227 317.301 242.453C317.178 242.68 317.117 242.945 317.117 243.25H316.195C316.195 242.781 316.303 242.37 316.52 242.016C316.736 241.661 317.03 241.385 317.402 241.187C317.777 240.99 318.198 240.891 318.664 240.891C319.133 240.891 319.548 240.99 319.91 241.187C320.272 241.385 320.556 241.652 320.762 241.988C320.967 242.324 321.07 242.698 321.07 243.109C321.07 243.404 321.017 243.691 320.91 243.973C320.806 244.251 320.624 244.562 320.363 244.906C320.105 245.247 319.747 245.664 319.289 246.156L317.492 248.078V248.141H321.211V249H316.164ZM325.527 249.109C325.012 249.109 324.552 249.021 324.148 248.844C323.747 248.667 323.428 248.421 323.191 248.105C322.957 247.788 322.829 247.419 322.809 247H323.793C323.814 247.258 323.902 247.48 324.059 247.668C324.215 247.853 324.419 247.996 324.672 248.098C324.924 248.199 325.204 248.25 325.512 248.25C325.855 248.25 326.16 248.19 326.426 248.07C326.691 247.951 326.9 247.784 327.051 247.57C327.202 247.357 327.277 247.109 327.277 246.828C327.277 246.534 327.204 246.275 327.059 246.051C326.913 245.824 326.699 245.647 326.418 245.52C326.137 245.392 325.793 245.328 325.387 245.328H324.746V244.469H325.387C325.704 244.469 325.983 244.411 326.223 244.297C326.465 244.182 326.654 244.021 326.789 243.812C326.927 243.604 326.996 243.359 326.996 243.078C326.996 242.807 326.936 242.572 326.816 242.371C326.697 242.171 326.527 242.014 326.309 241.902C326.092 241.79 325.837 241.734 325.543 241.734C325.267 241.734 325.007 241.785 324.762 241.887C324.52 241.986 324.322 242.13 324.168 242.32C324.014 242.508 323.931 242.734 323.918 243H322.98C322.996 242.581 323.122 242.214 323.359 241.898C323.596 241.581 323.906 241.333 324.289 241.156C324.674 240.979 325.098 240.891 325.559 240.891C326.053 240.891 326.478 240.991 326.832 241.191C327.186 241.389 327.458 241.651 327.648 241.977C327.839 242.302 327.934 242.654 327.934 243.031C327.934 243.482 327.815 243.866 327.578 244.184C327.344 244.501 327.025 244.721 326.621 244.844V244.906C327.126 244.99 327.521 245.204 327.805 245.551C328.089 245.895 328.23 246.32 328.23 246.828C328.23 247.263 328.112 247.654 327.875 248C327.641 248.344 327.32 248.615 326.914 248.812C326.508 249.01 326.046 249.109 325.527 249.109Z" fill="#212529"/>
<line x1="25" y1="225.75" x2="329" y2="225.75" stroke="#DEE2E6" stroke-width="0.5"/>
<line x1="25" y1="119.75" x2="329" y2="119.75" stroke="#DEE2E6" stroke-width="0.5"/>
<line x1="69.25" y1="227" x2="69.25" y2="232" stroke="#DEE2E6" stroke-width="0.5"/>
<line x1="329.25" y1="227" x2="329.25" y2="232" stroke="#DEE2E6" stroke-width="0.5"/>
<path d="M70 226L82.3333 172L94.6667 214L107 150L119.333 170L131.667 226H144L156.333 206L168.667 210.5L181 148L193.333 219L205.667 214L218 222.5L230.333 131.5L242.667 133L255 120L267.333 145L279.667 226H292L304.333 208.5L316.667 133C316.667 133 324.184 143.971 329 151" stroke="#D98C33" stroke-width="2"/>
<line x1="206.25" y1="120" x2="206.25" y2="226" stroke="#868E96" stroke-width="0.5" stroke-dasharray="3 2"/>
<g filter="url(#filter0_bddd_1133_9651)">
<rect x="216" y="150" width="117" height="26" rx="8" fill="white" fill-opacity="0.9" shape-rendering="crispEdges"/>
<circle cx="229" cy="163" r="5" fill="#D98C33"/>
<path d="M243.4 159H244.557L247.275 165.641H247.369L250.088 159H251.244V167H250.338V160.922H250.26L247.76 167H246.885L244.385 160.922H244.307V167H243.4V159ZM254.827 167.141C254.447 167.141 254.102 167.069 253.792 166.926C253.482 166.78 253.236 166.57 253.054 166.297C252.871 166.021 252.78 165.687 252.78 165.297C252.78 164.953 252.848 164.674 252.983 164.461C253.119 164.245 253.3 164.076 253.526 163.953C253.753 163.831 254.003 163.74 254.276 163.68C254.552 163.617 254.83 163.568 255.108 163.531C255.473 163.484 255.769 163.449 255.995 163.426C256.224 163.4 256.391 163.357 256.495 163.297C256.602 163.237 256.655 163.133 256.655 162.984V162.953C256.655 162.568 256.55 162.268 256.339 162.055C256.131 161.841 255.814 161.734 255.39 161.734C254.95 161.734 254.604 161.831 254.354 162.023C254.104 162.216 253.929 162.422 253.827 162.641L252.952 162.328C253.108 161.964 253.317 161.68 253.577 161.477C253.84 161.271 254.127 161.128 254.437 161.047C254.749 160.964 255.056 160.922 255.358 160.922C255.551 160.922 255.772 160.945 256.022 160.992C256.275 161.036 256.519 161.129 256.753 161.27C256.99 161.41 257.187 161.622 257.343 161.906C257.499 162.19 257.577 162.57 257.577 163.047V167H256.655V166.187H256.608C256.546 166.318 256.442 166.457 256.296 166.605C256.15 166.754 255.956 166.88 255.714 166.984C255.472 167.089 255.176 167.141 254.827 167.141ZM254.968 166.312C255.332 166.312 255.64 166.241 255.89 166.098C256.142 165.954 256.332 165.77 256.46 165.543C256.59 165.316 256.655 165.078 256.655 164.828V163.984C256.616 164.031 256.53 164.074 256.397 164.113C256.267 164.15 256.116 164.182 255.944 164.211C255.775 164.237 255.61 164.26 255.448 164.281C255.289 164.299 255.16 164.315 255.062 164.328C254.822 164.359 254.598 164.41 254.39 164.48C254.184 164.548 254.017 164.651 253.89 164.789C253.765 164.924 253.702 165.109 253.702 165.344C253.702 165.664 253.821 165.906 254.058 166.07C254.297 166.232 254.601 166.312 254.968 166.312ZM259.26 167V161H260.15V161.906H260.213C260.322 161.609 260.52 161.368 260.807 161.184C261.093 160.999 261.416 160.906 261.775 160.906C261.843 160.906 261.928 160.908 262.029 160.91C262.131 160.913 262.208 160.917 262.26 160.922V161.859C262.229 161.852 262.157 161.84 262.045 161.824C261.936 161.806 261.82 161.797 261.697 161.797C261.406 161.797 261.145 161.858 260.916 161.98C260.689 162.1 260.51 162.267 260.377 162.48C260.247 162.691 260.182 162.932 260.182 163.203V167H259.26ZM269.243 159V167H268.274V160.016H268.228L266.274 161.312V160.328L268.274 159H269.243ZM271.794 167L275.372 159.922V159.859H271.247V159H276.372V159.906L272.81 167H271.794Z" fill="#495057"/>
<path d="M307.53 168V158H308.171V168H307.53ZM309.687 161C309.64 160.604 309.45 160.297 309.116 160.078C308.783 159.859 308.374 159.75 307.89 159.75C307.535 159.75 307.226 159.807 306.96 159.922C306.697 160.036 306.491 160.194 306.343 160.395C306.197 160.595 306.124 160.823 306.124 161.078C306.124 161.292 306.175 161.475 306.276 161.629C306.381 161.78 306.513 161.906 306.675 162.008C306.836 162.107 307.006 162.189 307.183 162.254C307.36 162.316 307.522 162.367 307.671 162.406L308.483 162.625C308.692 162.68 308.924 162.755 309.179 162.852C309.437 162.948 309.683 163.079 309.917 163.246C310.154 163.41 310.349 163.621 310.503 163.879C310.657 164.137 310.733 164.453 310.733 164.828C310.733 165.26 310.62 165.651 310.394 166C310.17 166.349 309.841 166.626 309.409 166.832C308.979 167.038 308.457 167.141 307.843 167.141C307.27 167.141 306.774 167.048 306.354 166.863C305.938 166.678 305.61 166.421 305.37 166.09C305.133 165.759 304.999 165.375 304.968 164.938H305.968C305.994 165.24 306.095 165.49 306.272 165.687C306.452 165.883 306.679 166.029 306.952 166.125C307.228 166.219 307.525 166.266 307.843 166.266C308.213 166.266 308.545 166.206 308.839 166.086C309.133 165.964 309.366 165.794 309.538 165.578C309.71 165.359 309.796 165.104 309.796 164.812C309.796 164.547 309.722 164.331 309.573 164.164C309.425 163.997 309.229 163.862 308.987 163.758C308.745 163.654 308.483 163.562 308.202 163.484L307.218 163.203C306.593 163.023 306.098 162.767 305.733 162.434C305.369 162.1 305.187 161.664 305.187 161.125C305.187 160.677 305.308 160.286 305.55 159.953C305.795 159.617 306.123 159.357 306.534 159.172C306.948 158.984 307.41 158.891 307.921 158.891C308.437 158.891 308.895 158.983 309.296 159.168C309.697 159.35 310.015 159.6 310.249 159.918C310.486 160.236 310.611 160.596 310.624 161H309.687ZM314.842 167.109C314.514 167.104 314.186 167.042 313.857 166.922C313.529 166.802 313.23 166.6 312.959 166.316C312.688 166.03 312.471 165.643 312.307 165.156C312.143 164.667 312.061 164.052 312.061 163.312C312.061 162.604 312.127 161.977 312.26 161.43C312.393 160.88 312.585 160.418 312.838 160.043C313.09 159.665 313.395 159.379 313.752 159.184C314.111 158.988 314.516 158.891 314.967 158.891C315.415 158.891 315.813 158.98 316.162 159.16C316.514 159.337 316.8 159.585 317.021 159.902C317.243 160.22 317.386 160.586 317.451 161H316.498C316.41 160.641 316.238 160.342 315.982 160.105C315.727 159.868 315.389 159.75 314.967 159.75C314.347 159.75 313.859 160.02 313.502 160.559C313.148 161.098 312.969 161.854 312.967 162.828H313.029C313.175 162.607 313.348 162.418 313.549 162.262C313.752 162.103 313.976 161.98 314.221 161.895C314.465 161.809 314.725 161.766 314.998 161.766C315.456 161.766 315.876 161.88 316.256 162.109C316.636 162.336 316.941 162.65 317.17 163.051C317.399 163.449 317.514 163.906 317.514 164.422C317.514 164.917 317.403 165.37 317.182 165.781C316.96 166.19 316.649 166.516 316.248 166.758C315.85 166.997 315.381 167.115 314.842 167.109ZM314.842 166.25C315.17 166.25 315.464 166.168 315.725 166.004C315.988 165.84 316.195 165.62 316.346 165.344C316.499 165.068 316.576 164.76 316.576 164.422C316.576 164.091 316.502 163.79 316.354 163.52C316.208 163.246 316.006 163.029 315.748 162.867C315.493 162.706 315.201 162.625 314.873 162.625C314.626 162.625 314.395 162.674 314.182 162.773C313.968 162.87 313.781 163.003 313.619 163.172C313.46 163.341 313.335 163.535 313.244 163.754C313.153 163.97 313.107 164.198 313.107 164.437C313.107 164.755 313.182 165.052 313.33 165.328C313.481 165.604 313.687 165.827 313.947 165.996C314.21 166.165 314.508 166.25 314.842 166.25ZM321.612 167.109C321.076 167.109 320.602 167.014 320.19 166.824C319.782 166.632 319.463 166.367 319.233 166.031C319.004 165.693 318.891 165.307 318.894 164.875C318.891 164.536 318.957 164.224 319.093 163.937C319.228 163.648 319.413 163.408 319.647 163.215C319.884 163.02 320.149 162.896 320.44 162.844V162.797C320.058 162.698 319.753 162.483 319.526 162.152C319.3 161.819 319.188 161.44 319.19 161.016C319.188 160.609 319.291 160.246 319.499 159.926C319.707 159.605 319.994 159.353 320.358 159.168C320.726 158.983 321.144 158.891 321.612 158.891C322.076 158.891 322.49 158.983 322.854 159.168C323.219 159.353 323.506 159.605 323.714 159.926C323.925 160.246 324.032 160.609 324.034 161.016C324.032 161.44 323.916 161.819 323.687 162.152C323.46 162.483 323.159 162.698 322.784 162.797V162.844C323.073 162.896 323.334 163.02 323.565 163.215C323.797 163.408 323.982 163.648 324.12 163.937C324.258 164.224 324.328 164.536 324.331 164.875C324.328 165.307 324.211 165.693 323.979 166.031C323.75 166.367 323.431 166.632 323.022 166.824C322.616 167.014 322.146 167.109 321.612 167.109ZM321.612 166.25C321.974 166.25 322.287 166.191 322.55 166.074C322.813 165.957 323.016 165.792 323.159 165.578C323.302 165.365 323.375 165.115 323.378 164.828C323.375 164.526 323.297 164.259 323.144 164.027C322.99 163.796 322.78 163.613 322.515 163.48C322.252 163.348 321.951 163.281 321.612 163.281C321.271 163.281 320.966 163.348 320.698 163.48C320.433 163.613 320.223 163.796 320.069 164.027C319.918 164.259 319.844 164.526 319.847 164.828C319.844 165.115 319.913 165.365 320.054 165.578C320.197 165.792 320.401 165.957 320.667 166.074C320.933 166.191 321.248 166.25 321.612 166.25ZM321.612 162.453C321.899 162.453 322.153 162.396 322.374 162.281C322.598 162.167 322.774 162.007 322.901 161.801C323.029 161.595 323.094 161.354 323.097 161.078C323.094 160.807 323.03 160.572 322.905 160.371C322.78 160.168 322.607 160.012 322.386 159.902C322.164 159.79 321.907 159.734 321.612 159.734C321.313 159.734 321.051 159.79 320.827 159.902C320.603 160.012 320.43 160.168 320.308 160.371C320.185 160.572 320.125 160.807 320.128 161.078C320.125 161.354 320.187 161.595 320.312 161.801C320.439 162.007 320.615 162.167 320.839 162.281C321.063 162.396 321.321 162.453 321.612 162.453Z" fill="#212529"/>
</g>
<path d="M205.527 193.222C205.262 192.822 204.998 192.122 204.469 191.222C204.204 190.722 203.411 189.722 203.146 189.322C202.97 188.922 202.97 188.722 203.058 188.322C203.146 187.722 203.675 187.222 204.292 187.222C204.733 187.222 205.174 187.622 205.527 187.922C205.703 188.122 205.968 188.522 206.144 188.722C206.321 188.922 206.321 189.022 206.497 189.222C206.673 189.522 206.761 189.722 206.673 189.322C206.585 188.822 206.497 188.022 206.321 187.222C206.232 186.622 206.144 186.522 206.056 186.122C205.968 185.622 205.88 185.322 205.791 184.822C205.703 184.522 205.615 183.722 205.527 183.322C205.439 182.822 205.439 181.922 205.791 181.522C206.056 181.222 206.585 181.122 206.938 181.322C207.379 181.622 207.643 182.322 207.731 182.622C207.908 183.122 208.084 183.822 208.172 184.622C208.349 185.622 208.613 187.122 208.613 187.422C208.613 187.022 208.525 186.322 208.613 185.922C208.701 185.622 208.878 185.222 209.23 185.122C209.495 185.022 209.76 185.022 210.024 185.022C210.289 185.122 210.553 185.322 210.729 185.522C211.082 186.122 211.082 187.422 211.082 187.322C211.17 186.922 211.17 186.122 211.347 185.722C211.435 185.522 211.788 185.322 211.964 185.222C212.229 185.122 212.581 185.122 212.846 185.222C213.022 185.222 213.375 185.522 213.463 185.722C213.639 186.022 213.728 187.022 213.816 187.422C213.816 187.522 213.904 187.022 214.08 186.722C214.433 186.122 215.667 185.922 215.756 187.322C215.756 188.022 215.756 187.922 215.756 188.422C215.756 188.922 215.756 189.222 215.756 189.622C215.756 190.022 215.667 190.922 215.579 191.322C215.491 191.622 215.227 192.322 214.962 192.722C214.962 192.722 213.992 193.922 213.904 194.522C213.816 195.122 213.816 195.122 213.816 195.522C213.816 195.922 213.904 196.422 213.904 196.422C213.904 196.422 213.198 196.522 212.846 196.422C212.493 196.322 212.052 195.622 211.964 195.322C211.788 195.022 211.523 195.022 211.347 195.322C211.17 195.722 210.729 196.422 210.377 196.422C209.76 196.522 208.525 196.422 207.643 196.422C207.643 196.422 207.82 195.422 207.467 195.022C207.202 194.722 206.761 194.222 206.497 193.922L205.527 193.222Z" fill="white"/>
<path d="M205.527 193.222C205.262 192.822 204.998 192.122 204.469 191.222C204.204 190.722 203.411 189.722 203.146 189.322C202.97 188.922 202.97 188.722 203.058 188.322C203.146 187.722 203.675 187.222 204.292 187.222C204.733 187.222 205.174 187.622 205.527 187.922C205.703 188.122 205.968 188.522 206.144 188.722C206.321 188.922 206.321 189.022 206.497 189.222C206.673 189.522 206.761 189.722 206.673 189.322C206.585 188.822 206.497 188.022 206.321 187.222C206.232 186.622 206.144 186.522 206.056 186.122C205.968 185.622 205.88 185.322 205.791 184.822C205.703 184.522 205.615 183.722 205.527 183.322C205.439 182.822 205.439 181.922 205.791 181.522C206.056 181.222 206.585 181.122 206.938 181.322C207.379 181.622 207.643 182.322 207.731 182.622C207.908 183.122 208.084 183.822 208.172 184.622C208.349 185.622 208.613 187.122 208.613 187.422C208.613 187.022 208.525 186.322 208.613 185.922C208.701 185.622 208.878 185.222 209.23 185.122C209.495 185.022 209.76 185.022 210.024 185.022C210.289 185.122 210.553 185.322 210.729 185.522C211.082 186.122 211.082 187.422 211.082 187.322C211.17 186.922 211.17 186.122 211.347 185.722C211.435 185.522 211.788 185.322 211.964 185.222C212.229 185.122 212.581 185.122 212.846 185.222C213.022 185.222 213.375 185.522 213.463 185.722C213.639 186.022 213.728 187.022 213.816 187.422C213.816 187.522 213.904 187.022 214.08 186.722C214.433 186.122 215.667 185.922 215.756 187.322C215.756 188.022 215.756 187.922 215.756 188.422C215.756 188.922 215.756 189.222 215.756 189.622C215.756 190.022 215.667 190.922 215.579 191.322C215.491 191.622 215.227 192.322 214.962 192.722C214.962 192.722 213.992 193.922 213.904 194.522C213.816 195.122 213.816 195.122 213.816 195.522C213.816 195.922 213.904 196.422 213.904 196.422C213.904 196.422 213.198 196.522 212.846 196.422C212.493 196.322 212.052 195.622 211.964 195.322C211.788 195.022 211.523 195.022 211.347 195.322C211.17 195.722 210.729 196.422 210.377 196.422C209.76 196.522 208.525 196.422 207.643 196.422C207.643 196.422 207.82 195.422 207.467 195.022C207.202 194.722 206.761 194.222 206.497 193.922L205.527 193.222Z" stroke="black" stroke-width="0.75" stroke-linecap="round" stroke-linejoin="round"/>
<path d="M212.846 193.523V190.123" stroke="black" stroke-width="0.75" stroke-linecap="round"/>
<path d="M211.082 193.523L210.994 190.123" stroke="black" stroke-width="0.75" stroke-linecap="round"/>
<path d="M209.318 190.123V193.523" stroke="black" stroke-width="0.75" stroke-linecap="round"/>
<rect x="1" y="1" width="352" height="280" rx="24" stroke="#F1F3F5"/>
<defs>
<filter id="filter0_bddd_1133_9651" x="212" y="146" width="125" height="34" filterUnits="userSpaceOnUse" color-interpolation-filters="sRGB">
<feFlood flood-opacity="0" result="BackgroundImageFix"/>
<feGaussianBlur in="BackgroundImageFix" stdDeviation="2"/>
<feComposite in2="SourceAlpha" operator="in" result="effect1_backgroundBlur_1133_9651"/>
<feColorMatrix in="SourceAlpha" type="matrix" values="0 0 0 0 0 0 0 0 0 0 0 0 0 0 0 0 0 0 127 0" result="hardAlpha"/>
<feOffset dy="1"/>
<feGaussianBlur stdDeviation="1"/>
<feComposite in2="hardAlpha" operator="out"/>
<feColorMatrix type="matrix" values="0 0 0 0 0 0 0 0 0 0 0 0 0 0 0 0 0 0 0.1 0"/>
<feBlend mode="normal" in2="effect1_backgroundBlur_1133_9651" result="effect2_dropShadow_1133_9651"/>
<feColorMatrix in="SourceAlpha" type="matrix" values="0 0 0 0 0 0 0 0 0 0 0 0 0 0 0 0 0 0 127 0" result="hardAlpha"/>
<feOffset dy="1"/>
<feGaussianBlur stdDeviation="0.5"/>
<feComposite in2="hardAlpha" operator="out"/>
<feColorMatrix type="matrix" values="0 0 0 0 0 0 0 0 0 0 0 0 0 0 0 0 0 0 0.06 0"/>
<feBlend mode="normal" in2="effect2_dropShadow_1133_9651" result="effect3_dropShadow_1133_9651"/>
<feColorMatrix in="SourceAlpha" type="matrix" values="0 0 0 0 0 0 0 0 0 0 0 0 0 0 0 0 0 0 127 0" result="hardAlpha"/>
<feOffset/>
<feGaussianBlur stdDeviation="0.5"/>
<feComposite in2="hardAlpha" operator="out"/>
<feColorMatrix type="matrix" values="0 0 0 0 0 0 0 0 0 0 0 0 0 0 0 0 0 0 0.2 0"/>
<feBlend mode="normal" in2="effect3_dropShadow_1133_9651" result="effect4_dropShadow_1133_9651"/>
<feBlend mode="normal" in="SourceGraphic" in2="effect4_dropShadow_1133_9651" result="shape"/>
</filter>
</defs>
</svg>
