<svg width="293" height="309" viewBox="0 0 293 309" fill="none" xmlns="http://www.w3.org/2000/svg">
<rect x="0.5" y="0.5" width="292" height="308" rx="23.5" fill="white"/>
<path d="M122.733 47V36.8182H126.293C127.002 36.8182 127.587 36.9408 128.048 37.1861C128.508 37.428 128.851 37.7545 129.077 38.1655C129.302 38.5732 129.415 39.0256 129.415 39.5227C129.415 39.9602 129.337 40.3215 129.181 40.6065C129.029 40.8916 128.826 41.117 128.575 41.2827C128.326 41.4484 128.056 41.571 127.764 41.6506V41.75C128.076 41.7699 128.389 41.8793 128.704 42.0781C129.019 42.277 129.282 42.562 129.494 42.9332C129.706 43.3045 129.812 43.7585 129.812 44.2955C129.812 44.8059 129.696 45.2649 129.464 45.6726C129.232 46.0803 128.866 46.4034 128.366 46.642C127.865 46.8807 127.214 47 126.412 47H122.733ZM123.966 45.9062H126.412C127.217 45.9062 127.789 45.7505 128.127 45.4389C128.469 45.1241 128.639 44.7429 128.639 44.2955C128.639 43.9508 128.551 43.6326 128.376 43.3409C128.2 43.0459 127.95 42.8106 127.625 42.6349C127.3 42.456 126.916 42.3665 126.472 42.3665H123.966V45.9062ZM123.966 41.2926H126.253C126.624 41.2926 126.959 41.2197 127.257 41.0739C127.559 40.928 127.797 40.7225 127.973 40.4574C128.152 40.1922 128.241 39.8807 128.241 39.5227C128.241 39.0753 128.086 38.6958 127.774 38.3842C127.463 38.0694 126.969 37.9119 126.293 37.9119H123.966V41.2926ZM131.679 47V39.3636H132.853V47H131.679ZM132.276 38.0909C132.047 38.0909 131.85 38.013 131.684 37.8572C131.522 37.7015 131.441 37.5142 131.441 37.2955C131.441 37.0767 131.522 36.8894 131.684 36.7337C131.85 36.5779 132.047 36.5 132.276 36.5C132.505 36.5 132.7 36.5779 132.863 36.7337C133.028 36.8894 133.111 37.0767 133.111 37.2955C133.111 37.5142 133.028 37.7015 132.863 37.8572C132.7 38.013 132.505 38.0909 132.276 38.0909ZM136.175 36.8182V47H135.002V36.8182H136.175ZM139.497 36.8182V47H138.324V36.8182H139.497ZM148.885 47H145.743V36.8182H149.024C150.012 36.8182 150.857 37.022 151.559 37.4297C152.262 37.834 152.801 38.4157 153.175 39.1747C153.55 39.9304 153.737 40.8352 153.737 41.8892C153.737 42.9498 153.548 43.8629 153.17 44.6286C152.792 45.3909 152.242 45.9775 151.52 46.3885C150.797 46.7962 149.919 47 148.885 47ZM146.976 45.9062H148.805C149.647 45.9062 150.345 45.7438 150.898 45.419C151.452 45.0942 151.864 44.6319 152.136 44.032C152.408 43.4321 152.544 42.7178 152.544 41.8892C152.544 41.0672 152.41 40.3596 152.141 39.7663C151.873 39.1697 151.472 38.7124 150.938 38.3942C150.404 38.0727 149.74 37.9119 148.944 37.9119H146.976V45.9062ZM160.459 43.8778V39.3636H161.632V47H160.459V45.7074H160.379C160.2 46.0952 159.922 46.425 159.544 46.6967C159.166 46.9652 158.689 47.0994 158.112 47.0994C157.635 47.0994 157.211 46.995 156.839 46.7862C156.468 46.5741 156.176 46.2559 155.964 45.8317C155.752 45.4041 155.646 44.8655 155.646 44.2159V39.3636H156.819V44.1364C156.819 44.6932 156.975 45.1373 157.287 45.4688C157.602 45.8002 158.003 45.9659 158.49 45.9659C158.782 45.9659 159.078 45.8913 159.38 45.7422C159.685 45.593 159.94 45.3643 160.145 45.0561C160.354 44.7479 160.459 44.3551 160.459 43.8778ZM166.983 47.1591C166.247 47.1591 165.612 46.9967 165.078 46.6719C164.548 46.3438 164.139 45.8864 163.85 45.2997C163.565 44.7098 163.423 44.0237 163.423 43.2415C163.423 42.4593 163.565 41.7699 163.85 41.1733C164.139 40.5734 164.54 40.1061 165.054 39.7713C165.571 39.4332 166.174 39.2642 166.863 39.2642C167.261 39.2642 167.654 39.3305 168.042 39.4631C168.429 39.5956 168.782 39.8111 169.1 40.1094C169.419 40.4044 169.672 40.7955 169.861 41.2827C170.05 41.7699 170.145 42.3698 170.145 43.0824V43.5795H164.258V42.5653H168.951C168.951 42.1345 168.865 41.75 168.693 41.4119C168.524 41.0739 168.282 40.8071 167.967 40.6115C167.655 40.416 167.288 40.3182 166.863 40.3182C166.396 40.3182 165.992 40.4342 165.65 40.6662C165.312 40.8949 165.052 41.1932 164.87 41.5611C164.687 41.929 164.596 42.3234 164.596 42.7443V43.4205C164.596 43.9972 164.696 44.486 164.895 44.8871C165.097 45.2848 165.377 45.5881 165.735 45.7969C166.093 46.0024 166.509 46.1051 166.983 46.1051C167.291 46.1051 167.569 46.062 167.818 45.9759C168.07 45.8864 168.287 45.7538 168.469 45.5781C168.651 45.3991 168.792 45.1771 168.892 44.9119L170.025 45.2301C169.906 45.6146 169.705 45.9527 169.424 46.2443C169.142 46.5327 168.794 46.758 168.38 46.9205C167.965 47.0795 167.5 47.1591 166.983 47.1591Z" fill="#868E96"/>
<path d="M81.3317 87.7273V60.4545H83.0788V87.7273H81.3317ZM86.7969 68.9134C86.6832 67.9048 86.2145 67.1236 85.3906 66.5696C84.5668 66.0085 83.5298 65.728 82.2798 65.728C81.3849 65.728 80.6108 65.87 79.9574 66.1541C79.304 66.4311 78.7962 66.8146 78.4339 67.3047C78.0788 67.7876 77.9013 68.3381 77.9013 68.956C77.9013 69.4744 78.022 69.9219 78.2635 70.2983C78.5121 70.6747 78.8352 70.9908 79.233 71.2464C79.6378 71.495 80.071 71.7045 80.5327 71.875C80.9943 72.0384 81.4382 72.1733 81.8643 72.2798L83.995 72.8338C84.6911 73.0043 85.4048 73.2351 86.1364 73.5263C86.8679 73.8175 87.5462 74.201 88.1712 74.6768C88.7962 75.1527 89.3004 75.7422 89.6839 76.4453C90.0746 77.1484 90.2699 77.9901 90.2699 78.9702C90.2699 80.206 89.9503 81.3033 89.3111 82.2621C88.679 83.2209 87.7592 83.9773 86.5518 84.5312C85.3516 85.0852 83.8991 85.3622 82.1946 85.3622C80.5611 85.3622 79.1477 85.103 77.9545 84.5845C76.7614 84.0661 75.8274 83.331 75.1527 82.3793C74.478 81.4205 74.1051 80.2841 74.0341 78.9702H77.3366C77.4006 79.7585 77.6563 80.4155 78.1037 80.9411C78.5582 81.4595 79.1371 81.8466 79.8402 82.1023C80.5504 82.3509 81.3281 82.4751 82.1733 82.4751C83.1037 82.4751 83.9311 82.3295 84.6555 82.0384C85.3871 81.7401 85.9624 81.3281 86.3814 80.8026C86.8004 80.2699 87.0099 79.6484 87.0099 78.9382C87.0099 78.2919 86.8253 77.7628 86.456 77.3509C86.0938 76.9389 85.6001 76.598 84.9751 76.3281C84.3572 76.0582 83.6577 75.8203 82.8764 75.6143L80.2983 74.9112C78.5511 74.4354 77.1662 73.7358 76.1435 72.8125C75.1278 71.8892 74.62 70.6676 74.62 69.1477C74.62 67.8906 74.9609 66.7933 75.6428 65.8558C76.3246 64.9183 77.2479 64.1903 78.4126 63.6719C79.5774 63.1463 80.8913 62.8835 82.3544 62.8835C83.8317 62.8835 85.1349 63.1428 86.2642 63.6612C87.4006 64.1797 88.2955 64.8935 88.9489 65.8026C89.6023 66.7045 89.9432 67.7415 89.9716 68.9134H86.7969ZM101.501 85.2983C100.038 85.2983 98.7314 85.0462 97.5808 84.5419C96.4373 84.0376 95.5318 83.3381 94.8642 82.4432C94.2037 81.5412 93.8485 80.4972 93.7988 79.3111H97.144C97.1866 79.9574 97.4032 80.5185 97.7939 80.9943C98.1916 81.4631 98.71 81.8253 99.3493 82.081C99.9885 82.3366 100.699 82.4645 101.48 82.4645C102.339 82.4645 103.099 82.3153 103.76 82.017C104.427 81.7187 104.949 81.3033 105.326 80.7706C105.702 80.2308 105.89 79.6094 105.89 78.9062C105.89 78.1747 105.702 77.532 105.326 76.978C104.956 76.4169 104.413 75.9766 103.696 75.657C102.986 75.3374 102.126 75.1776 101.118 75.1776H99.2747V72.4929H101.118C101.927 72.4929 102.638 72.3473 103.248 72.0561C103.866 71.7649 104.349 71.3601 104.697 70.8416C105.045 70.3161 105.219 69.7017 105.219 68.9986C105.219 68.3239 105.067 67.7379 104.761 67.2408C104.463 66.7365 104.037 66.3423 103.483 66.0582C102.936 65.7741 102.29 65.6321 101.544 65.6321C100.834 65.6321 100.17 65.7635 99.5517 66.0263C98.9409 66.282 98.4437 66.6513 98.0602 67.1342C97.6767 67.6101 97.4707 68.1818 97.4423 68.8494H94.2569C94.2924 67.6705 94.6404 66.6335 95.301 65.7386C95.9686 64.8437 96.8493 64.1442 97.943 63.6399C99.0368 63.1357 100.251 62.8835 101.586 62.8835C102.986 62.8835 104.193 63.157 105.209 63.7038C106.231 64.2436 107.02 64.9645 107.574 65.8665C108.135 66.7685 108.412 67.7557 108.405 68.8281C108.412 70.0497 108.071 71.0866 107.382 71.9389C106.7 72.7912 105.791 73.3629 104.655 73.6541V73.8246C106.104 74.0447 107.226 74.62 108.021 75.5504C108.824 76.4808 109.221 77.6349 109.214 79.0128C109.221 80.2131 108.888 81.2891 108.213 82.2408C107.545 83.1925 106.633 83.9418 105.475 84.4886C104.317 85.0284 102.993 85.2983 101.501 85.2983ZM116.784 82.017L116.624 83.1783C116.517 84.0305 116.336 84.9183 116.08 85.8416C115.832 86.772 115.573 87.6349 115.303 88.4304C115.04 89.2259 114.823 89.858 114.653 90.3267H112.394C112.487 89.8864 112.615 89.2898 112.778 88.5369C112.941 87.7912 113.101 86.9567 113.257 86.0334C113.414 85.1101 113.531 84.169 113.609 83.2102L113.715 82.017H116.784ZM128.066 85.2983C127.093 85.2841 126.134 85.1065 125.189 84.7656C124.252 84.4247 123.399 83.8565 122.632 83.0611C121.865 82.2656 121.251 81.1967 120.789 79.8544C120.335 78.5121 120.107 76.8359 120.107 74.826C120.107 72.9226 120.296 71.2322 120.672 69.755C121.056 68.2777 121.606 67.0312 122.323 66.0156C123.041 64.9929 123.907 64.2152 124.923 63.6825C125.938 63.1499 127.078 62.8835 128.343 62.8835C129.642 62.8835 130.796 63.1392 131.805 63.6506C132.813 64.1619 133.63 64.8686 134.255 65.7706C134.887 66.6726 135.289 67.6989 135.459 68.8494H132.21C131.99 67.9403 131.553 67.1982 130.899 66.6229C130.246 66.0476 129.394 65.7599 128.343 65.7599C126.744 65.7599 125.498 66.456 124.603 67.848C123.715 69.2401 123.268 71.1754 123.261 73.6541H123.421C123.797 73.0362 124.259 72.5107 124.806 72.0774C125.36 71.6371 125.977 71.2997 126.659 71.0653C127.348 70.8239 128.073 70.7031 128.833 70.7031C130.097 70.7031 131.24 71.0121 132.263 71.63C133.293 72.2408 134.113 73.0859 134.724 74.1655C135.335 75.245 135.64 76.4808 135.64 77.8729C135.64 79.2649 135.324 80.5256 134.692 81.6548C134.067 82.7841 133.186 83.679 132.05 84.3395C130.914 84.9929 129.585 85.3125 128.066 85.2983ZM128.055 82.5284C128.893 82.5284 129.642 82.3224 130.303 81.9105C130.963 81.4986 131.485 80.9446 131.869 80.2486C132.252 79.5526 132.444 78.7749 132.444 77.9155C132.444 77.0774 132.256 76.3139 131.879 75.625C131.51 74.9361 130.999 74.3892 130.345 73.9844C129.699 73.5795 128.96 73.3771 128.129 73.3771C127.497 73.3771 126.911 73.4979 126.372 73.7393C125.839 73.9808 125.37 74.3146 124.965 74.7408C124.561 75.1669 124.241 75.657 124.007 76.2109C123.779 76.7578 123.666 77.3366 123.666 77.9474C123.666 78.7642 123.854 79.5206 124.23 80.2166C124.614 80.9126 125.136 81.4737 125.796 81.8999C126.464 82.3189 127.217 82.5284 128.055 82.5284ZM139.521 85V82.6136L146.903 74.9645C147.692 74.1335 148.342 73.4055 148.853 72.7805C149.371 72.1484 149.759 71.5483 150.014 70.9801C150.27 70.4119 150.398 69.8082 150.398 69.169C150.398 68.4446 150.227 67.8196 149.886 67.294C149.545 66.7614 149.08 66.353 148.491 66.0689C147.901 65.7777 147.237 65.6321 146.499 65.6321C145.717 65.6321 145.036 65.7919 144.453 66.1115C143.871 66.4311 143.423 66.8821 143.111 67.4645C142.798 68.0469 142.642 68.7287 142.642 69.5099H139.499C139.499 68.1818 139.805 67.0206 140.415 66.0263C141.026 65.032 141.864 64.2614 142.93 63.7145C143.995 63.1605 145.206 62.8835 146.562 62.8835C147.933 62.8835 149.141 63.157 150.185 63.7038C151.236 64.2436 152.056 64.9822 152.646 65.9197C153.235 66.8501 153.53 67.9013 153.53 69.0732C153.53 69.8828 153.377 70.6747 153.072 71.4489C152.773 72.223 152.251 73.0859 151.506 74.0376C150.76 74.9822 149.723 76.1293 148.395 77.4787L144.059 82.017V82.1768H153.881V85H139.521ZM158.654 85L168.178 66.1648V66.005H157.163V63.1818H171.587V66.1009L162.095 85H158.654Z" fill="#212529"/>
<path d="M177.433 85.2024C176.851 85.2024 176.35 84.9964 175.931 84.5845C175.512 84.1655 175.303 83.6612 175.303 83.0717C175.303 82.4893 175.512 81.9922 175.931 81.5803C176.35 81.1612 176.851 80.9517 177.433 80.9517C178.016 80.9517 178.517 81.1612 178.936 81.5803C179.355 81.9922 179.564 82.4893 179.564 83.0717C179.564 83.4624 179.465 83.821 179.266 84.1477C179.074 84.4673 178.818 84.723 178.499 84.9148C178.179 85.1065 177.824 85.2024 177.433 85.2024ZM190.593 85.3622C188.91 85.3551 187.472 84.9112 186.278 84.0305C185.085 83.1499 184.173 81.8679 183.54 80.1847C182.908 78.5014 182.592 76.4737 182.592 74.1016C182.592 71.7365 182.908 69.7159 183.54 68.0398C184.18 66.3636 185.096 65.0852 186.289 64.2045C187.489 63.3239 188.924 62.8835 190.593 62.8835C192.262 62.8835 193.693 63.3274 194.886 64.2152C196.08 65.0959 196.992 66.3743 197.624 68.0504C198.263 69.7195 198.583 71.7365 198.583 74.1016C198.583 76.4808 198.267 78.5121 197.635 80.1953C197.003 81.8714 196.09 83.1534 194.897 84.0412C193.704 84.9219 192.269 85.3622 190.593 85.3622ZM190.593 82.5178C192.07 82.5178 193.224 81.7969 194.055 80.3551C194.893 78.9134 195.312 76.8288 195.312 74.1016C195.312 72.2905 195.121 70.7599 194.737 69.5099C194.361 68.2528 193.817 67.3011 193.107 66.6548C192.404 66.0014 191.566 65.6747 190.593 65.6747C189.123 65.6747 187.969 66.3991 187.131 67.848C186.293 69.2969 185.87 71.3814 185.863 74.1016C185.863 75.9197 186.051 77.4574 186.428 78.7145C186.811 79.9645 187.354 80.9126 188.058 81.5589C188.761 82.1982 189.606 82.5178 190.593 82.5178ZM209.958 85.3622C208.275 85.3551 206.837 84.9112 205.644 84.0305C204.45 83.1499 203.538 81.8679 202.906 80.1847C202.274 78.5014 201.958 76.4737 201.958 74.1016C201.958 71.7365 202.274 69.7159 202.906 68.0398C203.545 66.3636 204.461 65.0852 205.654 64.2045C206.855 63.3239 208.289 62.8835 209.958 62.8835C211.627 62.8835 213.058 63.3274 214.252 64.2152C215.445 65.0959 216.357 66.3743 216.99 68.0504C217.629 69.7195 217.948 71.7365 217.948 74.1016C217.948 76.4808 217.632 78.5121 217 80.1953C216.368 81.8714 215.455 83.1534 214.262 84.0412C213.069 84.9219 211.634 85.3622 209.958 85.3622ZM209.958 82.5178C211.436 82.5178 212.59 81.7969 213.421 80.3551C214.259 78.9134 214.678 76.8288 214.678 74.1016C214.678 72.2905 214.486 70.7599 214.102 69.5099C213.726 68.2528 213.183 67.3011 212.472 66.6548C211.769 66.0014 210.931 65.6747 209.958 65.6747C208.488 65.6747 207.334 66.3991 206.496 67.848C205.658 69.2969 205.235 71.3814 205.228 74.1016C205.228 75.9197 205.416 77.4574 205.793 78.7145C206.176 79.9645 206.72 80.9126 207.423 81.5589C208.126 82.1982 208.971 82.5178 209.958 82.5178Z" fill="#CED4DA"/>
<path d="M49.6591 135.091C49.2462 135.091 48.858 135.013 48.4943 134.858C48.1326 134.703 47.8134 134.488 47.5369 134.213C47.2623 133.937 47.0464 133.617 46.8892 133.256C46.7339 132.894 46.6572 132.506 46.6591 132.091C46.661 131.676 46.7396 131.288 46.8949 130.926C47.0521 130.564 47.268 130.246 47.5426 129.972C47.8172 129.695 48.1354 129.479 48.4972 129.324C48.8589 129.169 49.2462 129.091 49.6591 129.091C50.0739 129.091 50.4621 129.169 50.8239 129.324C51.1875 129.479 51.5057 129.695 51.7784 129.972C52.053 130.246 52.268 130.564 52.4233 130.926C52.5786 131.288 52.6572 131.676 52.6591 132.091C52.661 132.506 52.5843 132.894 52.429 133.256C52.2737 133.617 52.0587 133.937 51.7841 134.213C51.5095 134.488 51.1903 134.703 50.8267 134.858C50.4631 135.013 50.0739 135.091 49.6591 135.091ZM56.8294 135.091C56.4165 135.091 56.0283 135.013 55.6646 134.858C55.3029 134.703 54.9838 134.488 54.7072 134.213C54.4326 133.937 54.2167 133.617 54.0595 133.256C53.9042 132.894 53.8275 132.506 53.8294 132.091C53.8313 131.676 53.9099 131.288 54.0652 130.926C54.2224 130.564 54.4383 130.246 54.7129 129.972C54.9875 129.695 55.3057 129.479 55.6675 129.324C56.0292 129.169 56.4165 129.091 56.8294 129.091C57.2442 129.091 57.6324 129.169 57.9942 129.324C58.3578 129.479 58.676 129.695 58.9487 129.972C59.2233 130.246 59.4383 130.564 59.5936 130.926C59.7489 131.288 59.8275 131.676 59.8294 132.091C59.8313 132.506 59.7546 132.894 59.5993 133.256C59.444 133.617 59.229 133.937 58.9544 134.213C58.6798 134.488 58.3607 134.703 57.997 134.858C57.6334 135.013 57.2442 135.091 56.8294 135.091ZM63.9997 135.091C63.5868 135.091 63.1986 135.013 62.8349 134.858C62.4732 134.703 62.1541 134.488 61.8776 134.213C61.6029 133.937 61.387 133.617 61.2298 133.256C61.0745 132.894 60.9978 132.506 60.9997 132.091C61.0016 131.676 61.0802 131.288 61.2355 130.926C61.3927 130.564 61.6086 130.246 61.8832 129.972C62.1579 129.695 62.476 129.479 62.8378 129.324C63.1995 129.169 63.5868 129.091 63.9997 129.091C64.4145 129.091 64.8027 129.169 65.1645 129.324C65.5281 129.479 65.8463 129.695 66.119 129.972C66.3937 130.246 66.6086 130.564 66.7639 130.926C66.9192 131.288 66.9978 131.676 66.9997 132.091C67.0016 132.506 66.9249 132.894 66.7696 133.256C66.6143 133.617 66.3993 133.937 66.1247 134.213C65.8501 134.488 65.531 134.703 65.1673 134.858C64.8037 135.013 64.4145 135.091 63.9997 135.091ZM71.17 135.091C70.7571 135.091 70.3689 135.013 70.0053 134.858C69.6435 134.703 69.3244 134.488 69.0479 134.213C68.7732 133.937 68.5573 133.617 68.4001 133.256C68.2448 132.894 68.1681 132.506 68.17 132.091C68.1719 131.676 68.2505 131.288 68.4058 130.926C68.563 130.564 68.7789 130.246 69.0536 129.972C69.3282 129.695 69.6464 129.479 70.0081 129.324C70.3698 129.169 70.7571 129.091 71.17 129.091C71.5848 129.091 71.9731 129.169 72.3348 129.324C72.6984 129.479 73.0166 129.695 73.2893 129.972C73.564 130.246 73.7789 130.564 73.9342 130.926C74.0895 131.288 74.1681 131.676 74.17 132.091C74.1719 132.506 74.0952 132.894 73.9399 133.256C73.7846 133.617 73.5696 133.937 73.295 134.213C73.0204 134.488 72.7013 134.703 72.3376 134.858C71.974 135.013 71.5848 135.091 71.17 135.091ZM91.9903 135.091C91.5775 135.091 91.1892 135.013 90.8256 134.858C90.4638 134.703 90.1447 134.488 89.8682 134.213C89.5936 133.937 89.3777 133.617 89.2205 133.256C89.0652 132.894 88.9884 132.506 88.9903 132.091C88.9922 131.676 89.0708 131.288 89.2261 130.926C89.3833 130.564 89.5992 130.246 89.8739 129.972C90.1485 129.695 90.4667 129.479 90.8284 129.324C91.1902 129.169 91.5775 129.091 91.9903 129.091C92.4051 129.091 92.7934 129.169 93.1551 129.324C93.5187 129.479 93.8369 129.695 94.1097 129.972C94.3843 130.246 94.5992 130.564 94.7545 130.926C94.9098 131.288 94.9884 131.676 94.9903 132.091C94.9922 132.506 94.9155 132.894 94.7602 133.256C94.6049 133.617 94.39 133.937 94.1153 134.213C93.8407 134.488 93.5216 134.703 93.158 134.858C92.7943 135.013 92.4051 135.091 91.9903 135.091ZM99.1607 135.091C98.7478 135.091 98.3595 135.013 97.9959 134.858C97.6341 134.703 97.315 134.488 97.0385 134.213C96.7639 133.937 96.548 133.617 96.3908 133.256C96.2355 132.894 96.1588 132.506 96.1607 132.091C96.1625 131.676 96.2411 131.288 96.3964 130.926C96.5536 130.564 96.7696 130.246 97.0442 129.972C97.3188 129.695 97.637 129.479 97.9987 129.324C98.3605 129.169 98.7478 129.091 99.1607 129.091C99.5754 129.091 99.9637 129.169 100.325 129.324C100.689 129.479 101.007 129.695 101.28 129.972C101.555 130.246 101.77 130.564 101.925 130.926C102.08 131.288 102.159 131.676 102.161 132.091C102.163 132.506 102.086 132.894 101.931 133.256C101.775 133.617 101.56 133.937 101.286 134.213C101.011 134.488 100.692 134.703 100.328 134.858C99.9646 135.013 99.5754 135.091 99.1607 135.091ZM106.331 135.091C105.918 135.091 105.53 135.013 105.166 134.858C104.804 134.703 104.485 134.488 104.209 134.213C103.934 133.937 103.718 133.617 103.561 133.256C103.406 132.894 103.329 132.506 103.331 132.091C103.333 131.676 103.411 131.288 103.567 130.926C103.724 130.564 103.94 130.246 104.214 129.972C104.489 129.695 104.807 129.479 105.169 129.324C105.531 129.169 105.918 129.091 106.331 129.091C106.746 129.091 107.134 129.169 107.496 129.324C107.859 129.479 108.178 129.695 108.45 129.972C108.725 130.246 108.94 130.564 109.095 130.926C109.25 131.288 109.329 131.676 109.331 132.091C109.333 132.506 109.256 132.894 109.101 133.256C108.946 133.617 108.731 133.937 108.456 134.213C108.181 134.488 107.862 134.703 107.499 134.858C107.135 135.013 106.746 135.091 106.331 135.091ZM113.501 135.091C113.088 135.091 112.7 135.013 112.337 134.858C111.975 134.703 111.656 134.488 111.379 134.213C111.104 133.937 110.889 133.617 110.731 133.256C110.576 132.894 110.499 132.506 110.501 132.091C110.503 131.676 110.582 131.288 110.737 130.926C110.894 130.564 111.11 130.246 111.385 129.972C111.659 129.695 111.978 129.479 112.339 129.324C112.701 129.169 113.088 129.091 113.501 129.091C113.916 129.091 114.304 129.169 114.666 129.324C115.03 129.479 115.348 129.695 115.621 129.972C115.895 130.246 116.11 130.564 116.265 130.926C116.421 131.288 116.499 131.676 116.501 132.091C116.503 132.506 116.426 132.894 116.271 133.256C116.116 133.617 115.901 133.937 115.626 134.213C115.352 134.488 115.033 134.703 114.669 134.858C114.305 135.013 113.916 135.091 113.501 135.091ZM135.372 135.091C134.959 135.091 134.57 135.013 134.207 134.858C133.845 134.703 133.526 134.488 133.249 134.213C132.975 133.937 132.759 133.617 132.602 133.256C132.446 132.894 132.37 132.506 132.372 132.091C132.373 131.676 132.452 131.288 132.607 130.926C132.765 130.564 132.98 130.246 133.255 129.972C133.53 129.695 133.848 129.479 134.21 129.324C134.571 129.169 134.959 129.091 135.372 129.091C135.786 129.091 136.175 129.169 136.536 129.324C136.9 129.479 137.218 129.695 137.491 129.972C137.766 130.246 137.98 130.564 138.136 130.926C138.291 131.288 138.37 131.676 138.372 132.091C138.373 132.506 138.297 132.894 138.141 133.256C137.986 133.617 137.771 133.937 137.497 134.213C137.222 134.488 136.903 134.703 136.539 134.858C136.176 135.013 135.786 135.091 135.372 135.091ZM142.542 135.091C142.129 135.091 141.741 135.013 141.377 134.858C141.015 134.703 140.696 134.488 140.42 134.213C140.145 133.937 139.929 133.617 139.772 133.256C139.617 132.894 139.54 132.506 139.542 132.091C139.544 131.676 139.622 131.288 139.778 130.926C139.935 130.564 140.151 130.246 140.425 129.972C140.7 129.695 141.018 129.479 141.38 129.324C141.742 129.169 142.129 129.091 142.542 129.091C142.957 129.091 143.345 129.169 143.707 129.324C144.07 129.479 144.388 129.695 144.661 129.972C144.936 130.246 145.151 130.564 145.306 130.926C145.461 131.288 145.54 131.676 145.542 132.091C145.544 132.506 145.467 132.894 145.312 133.256C145.156 133.617 144.942 133.937 144.667 134.213C144.392 134.488 144.073 134.703 143.71 134.858C143.346 135.013 142.957 135.091 142.542 135.091ZM149.712 135.091C149.299 135.091 148.911 135.013 148.547 134.858C148.186 134.703 147.867 134.488 147.59 134.213C147.315 133.937 147.1 133.617 146.942 133.256C146.787 132.894 146.71 132.506 146.712 132.091C146.714 131.676 146.793 131.288 146.948 130.926C147.105 130.564 147.321 130.246 147.596 129.972C147.87 129.695 148.189 129.479 148.55 129.324C148.912 129.169 149.299 129.091 149.712 129.091C150.127 129.091 150.515 129.169 150.877 129.324C151.241 129.479 151.559 129.695 151.832 129.972C152.106 130.246 152.321 130.564 152.476 130.926C152.632 131.288 152.71 131.676 152.712 132.091C152.714 132.506 152.637 132.894 152.482 133.256C152.327 133.617 152.112 133.937 151.837 134.213C151.563 134.488 151.243 134.703 150.88 134.858C150.516 135.013 150.127 135.091 149.712 135.091ZM156.883 135.091C156.47 135.091 156.081 135.013 155.718 134.858C155.356 134.703 155.037 134.488 154.76 134.213C154.486 133.937 154.27 133.617 154.113 133.256C153.957 132.894 153.881 132.506 153.883 132.091C153.884 131.676 153.963 131.288 154.118 130.926C154.276 130.564 154.491 130.246 154.766 129.972C155.041 129.695 155.359 129.479 155.721 129.324C156.082 129.169 156.47 129.091 156.883 129.091C157.297 129.091 157.686 129.169 158.047 129.324C158.411 129.479 158.729 129.695 159.002 129.972C159.276 130.246 159.491 130.564 159.647 130.926C159.802 131.288 159.881 131.676 159.883 132.091C159.884 132.506 159.808 132.894 159.652 133.256C159.497 133.617 159.282 133.937 159.008 134.213C158.733 134.488 158.414 134.703 158.05 134.858C157.687 135.013 157.297 135.091 156.883 135.091Z" fill="#F0D1AD"/>
<path d="M182.435 137.139C182.017 137.133 181.599 137.053 181.182 136.901C180.764 136.748 180.383 136.491 180.038 136.13C179.694 135.765 179.417 135.273 179.208 134.653C178.999 134.03 178.895 133.248 178.895 132.307C178.895 131.405 178.979 130.607 179.148 129.911C179.317 129.211 179.563 128.623 179.884 128.146C180.206 127.665 180.594 127.3 181.048 127.052C181.505 126.803 182.02 126.679 182.594 126.679C183.164 126.679 183.671 126.793 184.115 127.022C184.563 127.247 184.927 127.562 185.209 127.967C185.491 128.371 185.673 128.837 185.756 129.364H184.543C184.43 128.906 184.211 128.527 183.886 128.225C183.562 127.924 183.131 127.773 182.594 127.773C181.805 127.773 181.183 128.116 180.729 128.802C180.279 129.488 180.052 130.451 180.048 131.69H180.128C180.313 131.409 180.534 131.168 180.789 130.969C181.048 130.767 181.333 130.612 181.644 130.502C181.956 130.393 182.286 130.338 182.634 130.338C183.217 130.338 183.75 130.484 184.234 130.776C184.718 131.064 185.106 131.463 185.398 131.974C185.689 132.481 185.835 133.062 185.835 133.719C185.835 134.348 185.694 134.925 185.413 135.449C185.131 135.969 184.735 136.384 184.224 136.692C183.717 136.997 183.121 137.146 182.435 137.139ZM182.435 136.045C182.852 136.045 183.227 135.941 183.558 135.732C183.893 135.523 184.156 135.243 184.349 134.892C184.544 134.541 184.642 134.15 184.642 133.719C184.642 133.298 184.548 132.915 184.359 132.57C184.173 132.222 183.916 131.946 183.588 131.74C183.263 131.535 182.892 131.432 182.474 131.432C182.16 131.432 181.866 131.495 181.594 131.621C181.323 131.743 181.084 131.912 180.879 132.128C180.676 132.343 180.517 132.59 180.401 132.869C180.285 133.144 180.227 133.434 180.227 133.739C180.227 134.143 180.322 134.521 180.511 134.872C180.703 135.223 180.965 135.507 181.296 135.722C181.631 135.938 182.01 136.045 182.435 136.045ZM188.108 137L192.662 127.991V127.912H187.412V126.818H193.935V127.972L189.401 137H188.108ZM195.788 137V136.105L199.149 132.426C199.544 131.995 199.868 131.621 200.124 131.303C200.379 130.981 200.568 130.679 200.69 130.398C200.816 130.113 200.879 129.814 200.879 129.503C200.879 129.145 200.793 128.835 200.621 128.573C200.452 128.311 200.22 128.109 199.925 127.967C199.63 127.824 199.298 127.753 198.93 127.753C198.539 127.753 198.198 127.834 197.906 127.996C197.618 128.156 197.394 128.379 197.235 128.668C197.079 128.956 197.001 129.294 197.001 129.682H195.828C195.828 129.085 195.966 128.562 196.241 128.111C196.516 127.66 196.89 127.309 197.364 127.057C197.842 126.805 198.377 126.679 198.97 126.679C199.567 126.679 200.095 126.805 200.556 127.057C201.017 127.309 201.378 127.648 201.64 128.076C201.902 128.504 202.033 128.979 202.033 129.503C202.033 129.877 201.965 130.244 201.829 130.602C201.696 130.956 201.464 131.352 201.133 131.79C200.805 132.224 200.349 132.754 199.766 133.381L197.479 135.827V135.906H202.212V137H195.788ZM207.705 137.139C207.049 137.139 206.464 137.027 205.95 136.801C205.44 136.576 205.034 136.263 204.732 135.862C204.434 135.457 204.272 134.988 204.245 134.455H205.498C205.524 134.783 205.637 135.066 205.836 135.305C206.035 135.54 206.295 135.722 206.616 135.852C206.938 135.981 207.294 136.045 207.685 136.045C208.123 136.045 208.511 135.969 208.849 135.817C209.187 135.664 209.452 135.452 209.644 135.18C209.836 134.909 209.933 134.594 209.933 134.236C209.933 133.861 209.84 133.531 209.654 133.246C209.469 132.958 209.197 132.733 208.839 132.57C208.481 132.408 208.043 132.327 207.526 132.327H206.711V131.233H207.526C207.931 131.233 208.285 131.16 208.59 131.014C208.898 130.868 209.139 130.663 209.311 130.398C209.487 130.133 209.575 129.821 209.575 129.463C209.575 129.118 209.498 128.818 209.346 128.563C209.193 128.308 208.978 128.109 208.7 127.967C208.424 127.824 208.1 127.753 207.725 127.753C207.374 127.753 207.042 127.817 206.731 127.947C206.423 128.073 206.171 128.257 205.975 128.499C205.78 128.737 205.674 129.026 205.657 129.364H204.464C204.484 128.83 204.644 128.363 204.946 127.962C205.248 127.557 205.642 127.242 206.129 127.017C206.62 126.792 207.158 126.679 207.745 126.679C208.375 126.679 208.915 126.807 209.366 127.062C209.817 127.314 210.163 127.647 210.405 128.061C210.647 128.475 210.768 128.923 210.768 129.403C210.768 129.977 210.617 130.466 210.315 130.87C210.017 131.274 209.611 131.554 209.097 131.71V131.79C209.74 131.896 210.242 132.169 210.604 132.61C210.965 133.048 211.146 133.589 211.146 134.236C211.146 134.789 210.995 135.286 210.693 135.727C210.395 136.165 209.987 136.509 209.47 136.761C208.953 137.013 208.365 137.139 207.705 137.139Z" fill="#212529"/>
<path d="M32.5 132C32.5 121.23 41.2304 112.5 52 112.5H241C251.77 112.5 260.5 121.23 260.5 132V151.5H32.5V132Z" stroke="#E9ECEF"/>
<path d="M50.375 176.139C49.6259 176.139 48.9879 175.935 48.4609 175.528C47.9339 175.117 47.5313 174.522 47.2528 173.743C46.9744 172.961 46.8352 172.016 46.8352 170.909C46.8352 169.809 46.9744 168.869 47.2528 168.09C47.5346 167.308 47.9389 166.711 48.4659 166.3C48.9962 165.886 49.6326 165.679 50.375 165.679C51.1174 165.679 51.7521 165.886 52.2791 166.3C52.8094 166.711 53.2138 167.308 53.4922 168.09C53.7739 168.869 53.9148 169.809 53.9148 170.909C53.9148 172.016 53.7756 172.961 53.4972 173.743C53.2188 174.522 52.8161 175.117 52.2891 175.528C51.7621 175.935 51.1241 176.139 50.375 176.139ZM50.375 175.045C51.1174 175.045 51.6941 174.687 52.1051 173.972C52.5161 173.256 52.7216 172.235 52.7216 170.909C52.7216 170.027 52.6271 169.277 52.4382 168.657C52.2526 168.037 51.9841 167.565 51.6328 167.24C51.2848 166.915 50.8655 166.753 50.375 166.753C49.6392 166.753 49.0642 167.116 48.6499 167.842C48.2356 168.564 48.0284 169.587 48.0284 170.909C48.0284 171.791 48.1212 172.54 48.3068 173.156C48.4924 173.773 48.7592 174.242 49.1072 174.563C49.4586 174.885 49.8812 175.045 50.375 175.045ZM59.2443 176.139C58.5881 176.139 58.0031 176.027 57.4893 175.801C56.9789 175.576 56.5729 175.263 56.2713 174.862C55.973 174.457 55.8106 173.988 55.7841 173.455H57.0369C57.0634 173.783 57.1761 174.066 57.375 174.305C57.5739 174.54 57.834 174.722 58.1555 174.852C58.477 174.981 58.8333 175.045 59.2244 175.045C59.6619 175.045 60.0497 174.969 60.3878 174.817C60.7259 174.664 60.991 174.452 61.1832 174.18C61.3755 173.909 61.4716 173.594 61.4716 173.236C61.4716 172.861 61.3788 172.531 61.1932 172.246C61.0076 171.958 60.7358 171.733 60.3778 171.57C60.0199 171.408 59.5824 171.327 59.0653 171.327H58.25V170.233H59.0653C59.4697 170.233 59.8243 170.16 60.1293 170.014C60.4375 169.868 60.6778 169.663 60.8501 169.398C61.0258 169.133 61.1136 168.821 61.1136 168.463C61.1136 168.118 61.0374 167.818 60.8849 167.563C60.7325 167.308 60.517 167.109 60.2386 166.967C59.9635 166.824 59.6387 166.753 59.2642 166.753C58.9129 166.753 58.5814 166.817 58.2699 166.947C57.9616 167.073 57.7098 167.257 57.5142 167.499C57.3187 167.737 57.2126 168.026 57.196 168.364H56.0028C56.0227 167.83 56.1835 167.363 56.4851 166.962C56.7867 166.557 57.1811 166.242 57.6683 166.017C58.1589 165.792 58.6974 165.679 59.2841 165.679C59.9138 165.679 60.4541 165.807 60.9048 166.062C61.3556 166.314 61.7019 166.647 61.9439 167.061C62.1858 167.475 62.3068 167.923 62.3068 168.403C62.3068 168.977 62.156 169.466 61.8544 169.87C61.5561 170.274 61.1501 170.554 60.6364 170.71V170.79C61.2794 170.896 61.7815 171.169 62.1428 171.61C62.504 172.048 62.6847 172.589 62.6847 173.236C62.6847 173.789 62.5339 174.286 62.2322 174.727C61.9339 175.165 61.5263 175.509 61.0092 175.761C60.4922 176.013 59.9039 176.139 59.2443 176.139ZM72.2749 165.341L68.9936 177.531H67.9197L71.201 165.341H72.2749ZM77.5833 176V175.105L80.9441 171.426C81.3385 170.995 81.6633 170.621 81.9185 170.303C82.1737 169.981 82.3626 169.679 82.4853 169.398C82.6112 169.113 82.6742 168.814 82.6742 168.503C82.6742 168.145 82.588 167.835 82.4157 167.573C82.2466 167.311 82.0146 167.109 81.7196 166.967C81.4247 166.824 81.0932 166.753 80.7253 166.753C80.3342 166.753 79.9928 166.834 79.7012 166.996C79.4128 167.156 79.1891 167.379 79.03 167.668C78.8742 167.956 78.7963 168.294 78.7963 168.682H77.623C77.623 168.085 77.7606 167.562 78.0357 167.111C78.3108 166.66 78.6853 166.309 79.1593 166.057C79.6365 165.805 80.1718 165.679 80.7651 165.679C81.3617 165.679 81.8903 165.805 82.351 166.057C82.8117 166.309 83.173 166.648 83.4348 167.076C83.6967 167.504 83.8276 167.979 83.8276 168.503C83.8276 168.877 83.7596 169.244 83.6238 169.602C83.4912 169.956 83.2592 170.352 82.9277 170.79C82.5996 171.224 82.1439 171.754 81.5605 172.381L79.2736 174.827V174.906H84.0066V176H77.5833ZM89.5002 176.139C88.8439 176.139 88.2589 176.027 87.7452 175.801C87.2348 175.576 86.8288 175.263 86.5272 174.862C86.2289 174.457 86.0665 173.988 86.04 173.455H87.2928C87.3193 173.783 87.432 174.066 87.6309 174.305C87.8297 174.54 88.0899 174.722 88.4114 174.852C88.7329 174.981 89.0892 175.045 89.4803 175.045C89.9178 175.045 90.3056 174.969 90.6436 174.817C90.9817 174.664 91.2469 174.452 91.4391 174.18C91.6313 173.909 91.7275 173.594 91.7275 173.236C91.7275 172.861 91.6346 172.531 91.449 172.246C91.2634 171.958 90.9917 171.733 90.6337 171.57C90.2757 171.408 89.8382 171.327 89.3212 171.327H88.5059V170.233H89.3212C89.7256 170.233 90.0802 170.16 90.3851 170.014C90.6934 169.868 90.9337 169.663 91.106 169.398C91.2817 169.133 91.3695 168.821 91.3695 168.463C91.3695 168.118 91.2933 167.818 91.1408 167.563C90.9883 167.308 90.7729 167.109 90.4945 166.967C90.2194 166.824 89.8946 166.753 89.5201 166.753C89.1687 166.753 88.8373 166.817 88.5257 166.947C88.2175 167.073 87.9656 167.257 87.7701 167.499C87.5745 167.737 87.4685 168.026 87.4519 168.364H86.2587C86.2786 167.83 86.4393 167.363 86.7409 166.962C87.0426 166.557 87.437 166.242 87.9242 166.017C88.4147 165.792 88.9533 165.679 89.54 165.679C90.1697 165.679 90.7099 165.807 91.1607 166.062C91.6114 166.314 91.9578 166.647 92.1998 167.061C92.4417 167.475 92.5627 167.923 92.5627 168.403C92.5627 168.977 92.4119 169.466 92.1103 169.87C91.812 170.274 91.406 170.554 90.8922 170.71V170.79C91.5352 170.896 92.0373 171.169 92.3986 171.61C92.7599 172.048 92.9405 172.589 92.9405 173.236C92.9405 173.789 92.7897 174.286 92.4881 174.727C92.1898 175.165 91.7821 175.509 91.2651 175.761C90.748 176.013 90.1597 176.139 89.5002 176.139Z" fill="#212529"/>
<path d="M32.5 151.5H146.5V190.5H52C41.2304 190.5 32.5 181.77 32.5 171V151.5Z" stroke="#E9ECEF"/>
<path d="M164.634 165.818V176H163.401V167.111H163.341L160.855 168.761V167.509L163.401 165.818H164.634ZM167.562 176V175.105L170.923 171.426C171.317 170.995 171.642 170.621 171.897 170.303C172.152 169.981 172.341 169.679 172.464 169.398C172.59 169.113 172.653 168.814 172.653 168.503C172.653 168.145 172.567 167.835 172.394 167.573C172.225 167.311 171.993 167.109 171.698 166.967C171.403 166.824 171.072 166.753 170.704 166.753C170.313 166.753 169.971 166.834 169.68 166.996C169.391 167.156 169.168 167.379 169.009 167.668C168.853 167.956 168.775 168.294 168.775 168.682H167.602C167.602 168.085 167.739 167.562 168.014 167.111C168.289 166.66 168.664 166.309 169.138 166.057C169.615 165.805 170.15 165.679 170.744 165.679C171.34 165.679 171.869 165.805 172.33 166.057C172.79 166.309 173.152 166.648 173.413 167.076C173.675 167.504 173.806 167.979 173.806 168.503C173.806 168.877 173.738 169.244 173.602 169.602C173.47 169.956 173.238 170.352 172.906 170.79C172.578 171.224 172.122 171.754 171.539 172.381L169.252 174.827V174.906H173.985V176H167.562ZM179.479 176.139C178.822 176.139 178.237 176.027 177.724 175.801C177.213 175.576 176.807 175.263 176.506 174.862C176.207 174.457 176.045 173.988 176.018 173.455H177.271C177.298 173.783 177.411 174.066 177.609 174.305C177.808 174.54 178.068 174.722 178.39 174.852C178.711 174.981 179.068 175.045 179.459 175.045C179.896 175.045 180.284 174.969 180.622 174.817C180.96 174.664 181.225 174.452 181.418 174.18C181.61 173.909 181.706 173.594 181.706 173.236C181.706 172.861 181.613 172.531 181.428 172.246C181.242 171.958 180.97 171.733 180.612 171.57C180.254 171.408 179.817 171.327 179.3 171.327H178.484V170.233H179.3C179.704 170.233 180.059 170.16 180.364 170.014C180.672 169.868 180.912 169.663 181.085 169.398C181.26 169.133 181.348 168.821 181.348 168.463C181.348 168.118 181.272 167.818 181.119 167.563C180.967 167.308 180.751 167.109 180.473 166.967C180.198 166.824 179.873 166.753 179.499 166.753C179.147 166.753 178.816 166.817 178.504 166.947C178.196 167.073 177.944 167.257 177.749 167.499C177.553 167.737 177.447 168.026 177.43 168.364H176.237C176.257 167.83 176.418 167.363 176.719 166.962C177.021 166.557 177.415 166.242 177.903 166.017C178.393 165.792 178.932 165.679 179.518 165.679C180.148 165.679 180.688 165.807 181.139 166.062C181.59 166.314 181.936 166.647 182.178 167.061C182.42 167.475 182.541 167.923 182.541 168.403C182.541 168.977 182.39 169.466 182.089 169.87C181.79 170.274 181.384 170.554 180.871 170.71V170.79C181.514 170.896 182.016 171.169 182.377 171.61C182.738 172.048 182.919 172.589 182.919 173.236C182.919 173.789 182.768 174.286 182.467 174.727C182.168 175.165 181.761 175.509 181.244 175.761C180.727 176.013 180.138 176.139 179.479 176.139Z" fill="#212529"/>
<path d="M146.5 151.5H260.5V171C260.5 181.77 251.77 190.5 241 190.5H146.5V151.5Z" stroke="#E9ECEF"/>
<rect x="32" y="211" width="229" height="40" rx="20" fill="#D98C33"/>
<path d="M141.25 231C141.25 231.414 140.914 231.75 140.5 231.75C140.086 231.75 139.75 231.414 139.75 231C139.75 230.586 140.086 230.25 140.5 230.25C140.914 230.25 141.25 230.586 141.25 231Z" stroke="white" stroke-width="1.5" stroke-linecap="round" stroke-linejoin="round"/>
<path d="M147.25 231C147.25 231.414 146.914 231.75 146.5 231.75C146.086 231.75 145.75 231.414 145.75 231C145.75 230.586 146.086 230.25 146.5 230.25C146.914 230.25 147.25 230.586 147.25 231Z" stroke="white" stroke-width="1.5" stroke-linecap="round" stroke-linejoin="round"/>
<path d="M153.25 231C153.25 231.414 152.914 231.75 152.5 231.75C152.086 231.75 151.75 231.414 151.75 231C151.75 230.586 152.086 230.25 152.5 230.25C152.914 230.25 153.25 230.586 153.25 231Z" stroke="white" stroke-width="1.5" stroke-linecap="round" stroke-linejoin="round"/>
<path d="M96.9688 274V266H99.6719C100.299 266 100.813 266.113 101.211 266.34C101.612 266.564 101.909 266.867 102.102 267.25C102.294 267.633 102.391 268.06 102.391 268.531C102.391 269.003 102.294 269.431 102.102 269.816C101.911 270.202 101.617 270.509 101.219 270.738C100.82 270.965 100.31 271.078 99.6875 271.078H97.75V270.219H99.6563C100.086 270.219 100.431 270.145 100.691 269.996C100.952 269.848 101.141 269.647 101.258 269.395C101.378 269.139 101.438 268.852 101.438 268.531C101.438 268.211 101.378 267.924 101.258 267.672C101.141 267.419 100.951 267.221 100.688 267.078C100.424 266.932 100.076 266.859 99.6406 266.859H97.9375V274H96.9688ZM106.199 274.125C105.658 274.125 105.182 273.996 104.773 273.738C104.367 273.48 104.049 273.12 103.82 272.656C103.594 272.193 103.48 271.651 103.48 271.031C103.48 270.406 103.594 269.861 103.82 269.395C104.049 268.928 104.367 268.566 104.773 268.309C105.182 268.051 105.658 267.922 106.199 267.922C106.741 267.922 107.215 268.051 107.621 268.309C108.03 268.566 108.348 268.928 108.574 269.395C108.803 269.861 108.918 270.406 108.918 271.031C108.918 271.651 108.803 272.193 108.574 272.656C108.348 273.12 108.03 273.48 107.621 273.738C107.215 273.996 106.741 274.125 106.199 274.125ZM106.199 273.297C106.611 273.297 106.949 273.191 107.215 272.98C107.48 272.77 107.677 272.492 107.805 272.148C107.932 271.805 107.996 271.432 107.996 271.031C107.996 270.63 107.932 270.257 107.805 269.91C107.677 269.564 107.48 269.284 107.215 269.07C106.949 268.857 106.611 268.75 106.199 268.75C105.788 268.75 105.449 268.857 105.184 269.07C104.918 269.284 104.721 269.564 104.594 269.91C104.466 270.257 104.402 270.63 104.402 271.031C104.402 271.432 104.466 271.805 104.594 272.148C104.721 272.492 104.918 272.77 105.184 272.98C105.449 273.191 105.788 273.297 106.199 273.297ZM111.48 274L109.652 268H110.621L111.918 272.594H111.98L113.262 268H114.246L115.512 272.578H115.574L116.871 268H117.84L116.012 274H115.105L113.793 269.391H113.699L112.387 274H111.48ZM121.37 274.125C120.792 274.125 120.293 273.997 119.874 273.742C119.457 273.484 119.136 273.125 118.909 272.664C118.685 272.201 118.573 271.661 118.573 271.047C118.573 270.432 118.685 269.891 118.909 269.422C119.136 268.951 119.451 268.583 119.854 268.32C120.261 268.055 120.735 267.922 121.276 267.922C121.589 267.922 121.897 267.974 122.202 268.078C122.507 268.182 122.784 268.352 123.034 268.586C123.284 268.818 123.483 269.125 123.632 269.508C123.78 269.891 123.854 270.362 123.854 270.922V271.312H119.229V270.516H122.917C122.917 270.177 122.849 269.875 122.714 269.609C122.581 269.344 122.391 269.134 122.144 268.98C121.899 268.827 121.61 268.75 121.276 268.75C120.909 268.75 120.591 268.841 120.323 269.023C120.058 269.203 119.853 269.437 119.71 269.727C119.567 270.016 119.495 270.326 119.495 270.656V271.188C119.495 271.641 119.573 272.025 119.729 272.34C119.888 272.652 120.108 272.891 120.39 273.055C120.671 273.216 120.998 273.297 121.37 273.297C121.612 273.297 121.831 273.263 122.026 273.195C122.224 273.125 122.395 273.021 122.538 272.883C122.681 272.742 122.792 272.568 122.87 272.359L123.761 272.609C123.667 272.911 123.509 273.177 123.288 273.406C123.067 273.633 122.793 273.81 122.468 273.937C122.142 274.063 121.776 274.125 121.37 274.125ZM125.257 274V268H126.147V268.906H126.21C126.319 268.609 126.517 268.368 126.804 268.184C127.09 267.999 127.413 267.906 127.772 267.906C127.84 267.906 127.925 267.908 128.026 267.91C128.128 267.913 128.205 267.917 128.257 267.922V268.859C128.226 268.852 128.154 268.84 128.042 268.824C127.933 268.806 127.817 268.797 127.694 268.797C127.403 268.797 127.142 268.858 126.913 268.98C126.687 269.1 126.507 269.267 126.374 269.48C126.244 269.691 126.179 269.932 126.179 270.203V274H125.257ZM131.683 274.125C131.104 274.125 130.606 273.997 130.187 273.742C129.77 273.484 129.448 273.125 129.222 272.664C128.998 272.201 128.886 271.661 128.886 271.047C128.886 270.432 128.998 269.891 129.222 269.422C129.448 268.951 129.763 268.583 130.167 268.32C130.573 268.055 131.047 267.922 131.589 267.922C131.901 267.922 132.21 267.974 132.515 268.078C132.819 268.182 133.097 268.352 133.347 268.586C133.597 268.818 133.796 269.125 133.944 269.508C134.093 269.891 134.167 270.362 134.167 270.922V271.312H129.542V270.516H133.229C133.229 270.177 133.162 269.875 133.026 269.609C132.894 269.344 132.703 269.134 132.456 268.98C132.211 268.827 131.922 268.75 131.589 268.75C131.222 268.75 130.904 268.841 130.636 269.023C130.37 269.203 130.166 269.437 130.022 269.727C129.879 270.016 129.808 270.326 129.808 270.656V271.188C129.808 271.641 129.886 272.025 130.042 272.34C130.201 272.652 130.421 272.891 130.702 273.055C130.983 273.216 131.31 273.297 131.683 273.297C131.925 273.297 132.144 273.263 132.339 273.195C132.537 273.125 132.707 273.021 132.851 272.883C132.994 272.742 133.104 272.568 133.183 272.359L134.073 272.609C133.979 272.911 133.822 273.177 133.601 273.406C133.379 273.633 133.106 273.81 132.78 273.937C132.455 274.063 132.089 274.125 131.683 274.125ZM137.835 274.125C137.335 274.125 136.894 273.999 136.511 273.746C136.128 273.491 135.828 273.132 135.612 272.668C135.396 272.202 135.288 271.651 135.288 271.016C135.288 270.385 135.396 269.839 135.612 269.375C135.828 268.911 136.129 268.553 136.515 268.301C136.9 268.048 137.345 267.922 137.851 267.922C138.241 267.922 138.55 267.987 138.776 268.117C139.006 268.245 139.18 268.391 139.3 268.555C139.422 268.716 139.517 268.849 139.585 268.953H139.663V266H140.585V274H139.694V273.078H139.585C139.517 273.187 139.421 273.326 139.296 273.492C139.171 273.656 138.993 273.803 138.761 273.934C138.529 274.061 138.22 274.125 137.835 274.125ZM137.96 273.297C138.33 273.297 138.642 273.201 138.897 273.008C139.153 272.812 139.347 272.543 139.479 272.199C139.612 271.853 139.679 271.453 139.679 271C139.679 270.552 139.614 270.16 139.483 269.824C139.353 269.486 139.16 269.223 138.905 269.035C138.65 268.845 138.335 268.75 137.96 268.75C137.569 268.75 137.244 268.85 136.983 269.051C136.726 269.249 136.532 269.518 136.401 269.859C136.274 270.198 136.21 270.578 136.21 271C136.21 271.427 136.275 271.815 136.405 272.164C136.538 272.51 136.733 272.786 136.991 272.992C137.252 273.195 137.575 273.297 137.96 273.297ZM145.62 274V266H146.542V268.953H146.62C146.688 268.849 146.782 268.716 146.901 268.555C147.024 268.391 147.198 268.245 147.425 268.117C147.654 267.987 147.964 267.922 148.354 267.922C148.86 267.922 149.305 268.048 149.69 268.301C150.076 268.553 150.377 268.911 150.593 269.375C150.809 269.839 150.917 270.385 150.917 271.016C150.917 271.651 150.809 272.202 150.593 272.668C150.377 273.132 150.077 273.491 149.694 273.746C149.312 273.999 148.87 274.125 148.37 274.125C147.985 274.125 147.676 274.061 147.444 273.934C147.213 273.803 147.034 273.656 146.909 273.492C146.784 273.326 146.688 273.187 146.62 273.078H146.511V274H145.62ZM146.526 271C146.526 271.453 146.593 271.853 146.726 272.199C146.858 272.543 147.052 272.812 147.308 273.008C147.563 273.201 147.875 273.297 148.245 273.297C148.631 273.297 148.952 273.195 149.21 272.992C149.47 272.786 149.666 272.51 149.796 272.164C149.929 271.815 149.995 271.427 149.995 271C149.995 270.578 149.93 270.198 149.8 269.859C149.672 269.518 149.478 269.249 149.218 269.051C148.96 268.85 148.636 268.75 148.245 268.75C147.87 268.75 147.555 268.845 147.3 269.035C147.045 269.223 146.852 269.486 146.722 269.824C146.591 270.16 146.526 270.552 146.526 271ZM152.706 276.25C152.55 276.25 152.41 276.237 152.288 276.211C152.166 276.188 152.081 276.164 152.034 276.141L152.269 275.328C152.493 275.385 152.69 275.406 152.862 275.391C153.034 275.375 153.187 275.298 153.319 275.16C153.455 275.025 153.578 274.805 153.69 274.5L153.862 274.031L151.644 268H152.644L154.3 272.781H154.362L156.019 268H157.019L154.472 274.875C154.357 275.185 154.215 275.441 154.046 275.645C153.877 275.85 153.68 276.003 153.456 276.102C153.235 276.201 152.985 276.25 152.706 276.25ZM161.454 274V266H162.423V269.969H162.517L166.11 266H167.376L164.017 269.609L167.376 274H166.204L163.423 270.281L162.423 271.406V274H161.454ZM168.958 274H167.942L170.88 266H171.88L174.817 274H173.802L171.411 267.266H171.349L168.958 274ZM169.333 270.875H173.427V271.734H169.333V270.875ZM176.063 274V266H178.767C179.394 266 179.907 266.113 180.306 266.34C180.707 266.564 181.004 266.867 181.196 267.25C181.389 267.633 181.485 268.06 181.485 268.531C181.485 269.003 181.389 269.431 181.196 269.816C181.006 270.202 180.712 270.509 180.313 270.738C179.915 270.965 179.405 271.078 178.782 271.078H176.845V270.219H178.751C179.181 270.219 179.526 270.145 179.786 269.996C180.047 269.848 180.235 269.647 180.353 269.395C180.472 269.139 180.532 268.852 180.532 268.531C180.532 268.211 180.472 267.924 180.353 267.672C180.235 267.419 180.045 267.221 179.782 267.078C179.519 266.932 179.17 266.859 178.735 266.859H177.032V274H176.063ZM183.046 274V266H187.874V266.859H184.015V269.562H187.624V270.422H184.015V273.141H187.937V274H183.046ZM192.089 274H189.62V266H192.198C192.974 266 193.638 266.16 194.19 266.48C194.743 266.798 195.166 267.255 195.46 267.852C195.754 268.445 195.901 269.156 195.901 269.984C195.901 270.818 195.753 271.535 195.456 272.137C195.159 272.736 194.727 273.197 194.159 273.52C193.591 273.84 192.901 274 192.089 274ZM190.589 273.141H192.026C192.688 273.141 193.236 273.013 193.671 272.758C194.106 272.503 194.43 272.139 194.644 271.668C194.857 271.197 194.964 270.635 194.964 269.984C194.964 269.339 194.858 268.783 194.647 268.316C194.437 267.848 194.121 267.488 193.702 267.238C193.283 266.986 192.761 266.859 192.136 266.859H190.589V273.141Z" fill="#ADB5BD"/>
<a href="https://www.kaped.io/">
<rect fill="black" fill-opacity="0" x="64.4854" y="0.34375" width="36.0723" height="13.3125"/>
</a>
<rect x="0.5" y="0.5" width="292" height="308" rx="23.5" stroke="#F1F3F5"/>
</svg>
