<svg width="354" height="102" viewBox="0 0 354 102" fill="none" xmlns="http://www.w3.org/2000/svg">
<rect x="1" y="1" width="352" height="100" rx="24" fill="white"/>
<path d="M34.5753 33.1293H33.0241C32.9645 32.7978 32.8535 32.5062 32.6911 32.2543C32.5286 32.0024 32.3298 31.7886 32.0945 31.6129C31.8591 31.4373 31.5956 31.3047 31.304 31.2152C31.0156 31.1257 30.709 31.081 30.3842 31.081C29.7976 31.081 29.2723 31.2285 28.8082 31.5234C28.3475 31.8184 27.983 32.2509 27.7145 32.821C27.4493 33.3911 27.3168 34.0871 27.3168 34.9091C27.3168 35.7377 27.4493 36.437 27.7145 37.0071C27.983 37.5772 28.3492 38.008 28.8132 38.2997C29.2772 38.5914 29.7992 38.7372 30.3793 38.7372C30.7008 38.7372 31.0057 38.6941 31.294 38.608C31.5857 38.5185 31.8492 38.3875 32.0845 38.2152C32.3198 38.0429 32.5187 37.8324 32.6811 37.5838C32.8468 37.3319 32.9612 37.0436 33.0241 36.7188L34.5753 36.7237C34.4924 37.2242 34.3317 37.6849 34.093 38.1058C33.8577 38.5234 33.5545 38.8847 33.1832 39.1896C32.8153 39.4912 32.3944 39.7249 31.9205 39.8906C31.4465 40.0563 30.9295 40.1392 30.3693 40.1392C29.4877 40.1392 28.7022 39.9304 28.0128 39.5128C27.3234 39.0919 26.7798 38.4903 26.3821 37.7081C25.9877 36.9259 25.7905 35.9929 25.7905 34.9091C25.7905 33.822 25.9893 32.889 26.3871 32.1101C26.7848 31.3279 27.3284 30.728 28.0178 30.3104C28.7071 29.8894 29.491 29.679 30.3693 29.679C30.9096 29.679 31.4134 29.7569 31.8807 29.9126C32.3513 30.0651 32.7739 30.2905 33.1484 30.5888C33.523 30.8838 33.8329 31.245 34.0781 31.6726C34.3234 32.0968 34.4891 32.5824 34.5753 33.1293ZM36.2942 40V32.3636H37.731V33.5767H37.8105C37.9498 33.1657 38.195 32.8426 38.5463 32.6072C38.901 32.3686 39.302 32.2493 39.7495 32.2493C39.8423 32.2493 39.9516 32.2526 40.0776 32.2592C40.2069 32.2659 40.3079 32.2741 40.3809 32.2841V33.706C40.3212 33.6894 40.2151 33.6712 40.0627 33.6513C39.9102 33.6281 39.7578 33.6165 39.6053 33.6165C39.254 33.6165 38.9408 33.6911 38.6657 33.8402C38.3939 33.986 38.1784 34.1899 38.0194 34.4517C37.8603 34.7102 37.7807 35.0052 37.7807 35.3366V40H36.2942ZM44.685 40.1541C43.9326 40.1541 43.2847 39.9934 42.7411 39.6719C42.2009 39.3471 41.7833 38.8913 41.4883 38.3047C41.1966 37.7147 41.0508 37.0237 41.0508 36.2315C41.0508 35.4493 41.1966 34.7599 41.4883 34.1634C41.7833 33.5668 42.1942 33.1011 42.7212 32.7663C43.2515 32.4316 43.8713 32.2642 44.5806 32.2642C45.0115 32.2642 45.4291 32.3355 45.8335 32.478C46.2378 32.6205 46.6007 32.8442 46.9222 33.1491C47.2437 33.4541 47.4973 33.8501 47.6829 34.3374C47.8685 34.8213 47.9613 35.4096 47.9613 36.1023V36.6293H41.891V35.5156H46.5046C46.5046 35.1245 46.4251 34.7782 46.266 34.4766C46.1069 34.1716 45.8832 33.9313 45.5948 33.7557C45.3098 33.58 44.975 33.4922 44.5906 33.4922C44.1729 33.4922 43.8084 33.5949 43.4968 33.8004C43.1886 34.0026 42.9499 34.2678 42.7809 34.5959C42.6152 34.9207 42.5323 35.2737 42.5323 35.6548V36.5249C42.5323 37.0353 42.6218 37.4695 42.8008 37.8274C42.9831 38.1854 43.2366 38.4588 43.5614 38.6477C43.8862 38.8333 44.2657 38.9261 44.6999 38.9261C44.9817 38.9261 45.2385 38.8864 45.4705 38.8068C45.7025 38.724 45.9031 38.6013 46.0721 38.4389C46.2411 38.2765 46.3704 38.076 46.4599 37.8374L47.8668 38.0909C47.7541 38.5052 47.552 38.8681 47.2603 39.1797C46.9719 39.4879 46.609 39.7282 46.1715 39.9006C45.7373 40.0696 45.2418 40.1541 44.685 40.1541ZM52.4693 40.1491C51.8528 40.1491 51.3026 39.9917 50.8187 39.6768C50.3381 39.3587 49.9603 38.9062 49.6852 38.3196C49.4134 37.7296 49.2775 37.022 49.2775 36.1967C49.2775 35.3714 49.4151 34.6655 49.6902 34.0788C49.9686 33.4922 50.3497 33.0431 50.8336 32.7315C51.3175 32.42 51.8661 32.2642 52.4792 32.2642C52.9532 32.2642 53.3343 32.3438 53.6227 32.5028C53.9144 32.6586 54.1397 32.8409 54.2988 33.0497C54.4612 33.2585 54.5872 33.4425 54.6767 33.6016H54.7662V29.8182H56.2527V40H54.801V38.8118H54.6767C54.5872 38.9742 54.4579 39.1598 54.2889 39.3686C54.1232 39.5774 53.8945 39.7597 53.6028 39.9155C53.3111 40.0713 52.9333 40.1491 52.4693 40.1491ZM52.7974 38.8814C53.225 38.8814 53.5862 38.7687 53.8812 38.5433C54.1795 38.3146 54.4049 37.9981 54.5574 37.5938C54.7131 37.1894 54.791 36.7187 54.791 36.1818C54.791 35.6515 54.7148 35.1875 54.5623 34.7898C54.4099 34.392 54.1861 34.0821 53.8912 33.8601C53.5962 33.638 53.2316 33.527 52.7974 33.527C52.35 33.527 51.9771 33.643 51.6788 33.875C51.3805 34.107 51.1551 34.4235 51.0027 34.8246C50.8535 35.2256 50.7789 35.678 50.7789 36.1818C50.7789 36.6922 50.8552 37.1513 51.0076 37.5589C51.1601 37.9666 51.3855 38.2898 51.6838 38.5284C51.9854 38.7637 52.3566 38.8814 52.7974 38.8814ZM58.3743 40V32.3636H59.8608V40H58.3743ZM59.125 31.1854C58.8665 31.1854 58.6444 31.0992 58.4588 30.9268C58.2765 30.7512 58.1854 30.5424 58.1854 30.3004C58.1854 30.0552 58.2765 29.8464 58.4588 29.674C58.6444 29.4983 58.8665 29.4105 59.125 29.4105C59.3835 29.4105 59.6039 29.4983 59.7862 29.674C59.9718 29.8464 60.0646 30.0552 60.0646 30.3004C60.0646 30.5424 59.9718 30.7512 59.7862 30.9268C59.6039 31.0992 59.3835 31.1854 59.125 31.1854ZM65.4252 32.3636V33.5568H61.2541V32.3636H65.4252ZM62.3727 30.5341H63.8592V37.7578C63.8592 38.0462 63.9023 38.2633 63.9885 38.4091C64.0746 38.5516 64.1857 38.6494 64.3216 38.7024C64.4608 38.7521 64.6116 38.777 64.774 38.777C64.8933 38.777 64.9977 38.7687 65.0872 38.7521C65.1767 38.7356 65.2463 38.7223 65.296 38.7124L65.5645 39.9403C65.4783 39.9735 65.3556 40.0066 65.1966 40.0398C65.0375 40.0762 64.8386 40.0961 64.6 40.0994C64.2089 40.1061 63.8443 40.0365 63.5062 39.8906C63.1681 39.7448 62.8947 39.5194 62.6859 39.2145C62.4771 38.9096 62.3727 38.5268 62.3727 38.0661V30.5341ZM76.4473 32.4929C76.3942 32.0223 76.1755 31.6577 75.791 31.3991C75.4065 31.1373 74.9226 31.0064 74.3393 31.0064C73.9217 31.0064 73.5604 31.0727 73.2555 31.2053C72.9506 31.3345 72.7136 31.5135 72.5446 31.7422C72.3788 31.9676 72.296 32.2244 72.296 32.5128C72.296 32.7547 72.3523 32.9635 72.465 33.1392C72.581 33.3149 72.7318 33.4624 72.9174 33.5817C73.1064 33.6977 73.3085 33.7955 73.524 33.875C73.7394 33.9512 73.9466 34.0142 74.1454 34.0639L75.1397 34.3224C75.4645 34.402 75.7976 34.5097 76.139 34.6456C76.4804 34.7815 76.7969 34.9605 77.0886 35.1825C77.3803 35.4046 77.6156 35.6797 77.7946 36.0078C77.9769 36.3359 78.068 36.7287 78.068 37.1861C78.068 37.7628 77.9189 38.2749 77.6206 38.7223C77.3256 39.1697 76.8964 39.5227 76.3329 39.7812C75.7728 40.0398 75.095 40.169 74.2995 40.169C73.5372 40.169 72.8777 40.0481 72.3208 39.8061C71.764 39.5642 71.3282 39.2211 71.0133 38.777C70.6984 38.3295 70.5244 37.7992 70.4913 37.1861H72.0325C72.0623 37.554 72.1816 37.8606 72.3904 38.1058C72.6026 38.3478 72.8727 38.5284 73.2008 38.6477C73.5323 38.7637 73.8952 38.8217 74.2896 38.8217C74.7238 38.8217 75.1099 38.7538 75.448 38.6179C75.7894 38.4787 76.0578 38.2865 76.2534 38.0412C76.4489 37.7926 76.5467 37.5026 76.5467 37.1712C76.5467 36.8696 76.4605 36.6226 76.2882 36.4304C76.1191 36.2382 75.8888 36.0791 75.5971 35.9531C75.3088 35.8272 74.9823 35.7161 74.6177 35.62L73.4146 35.2919C72.5993 35.0698 71.9529 34.7434 71.4757 34.3125C71.0017 33.8816 70.7647 33.3116 70.7647 32.6023C70.7647 32.0156 70.9238 31.5036 71.242 31.0661C71.5602 30.6286 71.9911 30.2888 72.5346 30.0469C73.0782 29.8016 73.6913 29.679 74.3741 29.679C75.0635 29.679 75.6717 29.8 76.1987 30.0419C76.729 30.2839 77.1466 30.617 77.4515 31.0412C77.7565 31.4621 77.9155 31.946 77.9288 32.4929H76.4473ZM83.0011 40.1541C82.262 40.1541 81.6256 39.9867 81.092 39.652C80.5617 39.3139 80.154 38.8482 79.869 38.255C79.5839 37.6617 79.4414 36.9822 79.4414 36.2166C79.4414 35.4411 79.5872 34.7566 79.8789 34.1634C80.1706 33.5668 80.5816 33.1011 81.1119 32.7663C81.6422 32.4316 82.2669 32.2642 82.9862 32.2642C83.5662 32.2642 84.0832 32.3719 84.5373 32.5874C84.9914 32.7995 85.3576 33.0978 85.636 33.4822C85.9177 33.8667 86.0851 34.3158 86.1381 34.8295H84.6914C84.6119 34.4716 84.4296 34.1634 84.1445 33.9048C83.8628 33.6463 83.485 33.517 83.011 33.517C82.5967 33.517 82.2338 33.6264 81.9222 33.8452C81.614 34.0606 81.3737 34.3688 81.2013 34.7699C81.029 35.1676 80.9428 35.6383 80.9428 36.1818C80.9428 36.7386 81.0273 37.2192 81.1964 37.6236C81.3654 38.0279 81.604 38.3411 81.9123 38.5632C82.2238 38.7853 82.5901 38.8963 83.011 38.8963C83.2927 38.8963 83.5479 38.8449 83.7766 38.7422C84.0086 38.6361 84.2025 38.4853 84.3583 38.2898C84.5174 38.0942 84.6284 37.8589 84.6914 37.5838H86.1381C86.0851 38.0777 85.9244 38.5185 85.6559 38.9062C85.3874 39.294 85.0278 39.599 84.5771 39.821C84.1296 40.0431 83.6043 40.1541 83.0011 40.1541ZM90.9444 40.1541C90.2285 40.1541 89.6038 39.9901 89.0701 39.6619C88.5365 39.3338 88.1222 38.8748 87.8272 38.2848C87.5323 37.6948 87.3848 37.0054 87.3848 36.2166C87.3848 35.4245 87.5323 34.7318 87.8272 34.1385C88.1222 33.5452 88.5365 33.0845 89.0701 32.7564C89.6038 32.4283 90.2285 32.2642 90.9444 32.2642C91.6603 32.2642 92.2851 32.4283 92.8187 32.7564C93.3523 33.0845 93.7666 33.5452 94.0616 34.1385C94.3566 34.7318 94.5041 35.4245 94.5041 36.2166C94.5041 37.0054 94.3566 37.6948 94.0616 38.2848C93.7666 38.8748 93.3523 39.3338 92.8187 39.6619C92.2851 39.9901 91.6603 40.1541 90.9444 40.1541ZM90.9494 38.9062C91.4134 38.9062 91.7979 38.7836 92.1028 38.5384C92.4077 38.2931 92.6331 37.9666 92.7789 37.5589C92.9281 37.1513 93.0027 36.7022 93.0027 36.2116C93.0027 35.7244 92.9281 35.277 92.7789 34.8693C92.6331 34.4583 92.4077 34.1286 92.1028 33.88C91.7979 33.6314 91.4134 33.5071 90.9494 33.5071C90.4821 33.5071 90.0943 33.6314 89.786 33.88C89.4811 34.1286 89.2541 34.4583 89.1049 34.8693C88.9591 35.277 88.8862 35.7244 88.8862 36.2116C88.8862 36.7022 88.9591 37.1513 89.1049 37.5589C89.2541 37.9666 89.4811 38.2931 89.786 38.5384C90.0943 38.7836 90.4821 38.9062 90.9494 38.9062ZM96.1634 40V32.3636H97.6001V33.5767H97.6797C97.8189 33.1657 98.0642 32.8426 98.4155 32.6072C98.7701 32.3686 99.1712 32.2493 99.6186 32.2493C99.7114 32.2493 99.8208 32.2526 99.9467 32.2592C100.076 32.2659 100.177 32.2741 100.25 32.2841V33.706C100.19 33.6894 100.084 33.6712 99.9318 33.6513C99.7794 33.6281 99.6269 33.6165 99.4744 33.6165C99.1231 33.6165 98.8099 33.6911 98.5348 33.8402C98.263 33.986 98.0476 34.1899 97.8885 34.4517C97.7294 34.7102 97.6499 35.0052 97.6499 35.3366V40H96.1634ZM104.554 40.1541C103.802 40.1541 103.154 39.9934 102.61 39.6719C102.07 39.3471 101.652 38.8913 101.357 38.3047C101.066 37.7147 100.92 37.0237 100.92 36.2315C100.92 35.4493 101.066 34.7599 101.357 34.1634C101.652 33.5668 102.063 33.1011 102.59 32.7663C103.121 32.4316 103.74 32.2642 104.45 32.2642C104.881 32.2642 105.298 32.3355 105.703 32.478C106.107 32.6205 106.47 32.8442 106.791 33.1491C107.113 33.4541 107.366 33.8501 107.552 34.3374C107.738 34.8213 107.83 35.4096 107.83 36.1023V36.6293H101.76V35.5156H106.374C106.374 35.1245 106.294 34.7782 106.135 34.4766C105.976 34.1716 105.752 33.9313 105.464 33.7557C105.179 33.58 104.844 33.4922 104.46 33.4922C104.042 33.4922 103.677 33.5949 103.366 33.8004C103.058 34.0026 102.819 34.2678 102.65 34.5959C102.484 34.9207 102.401 35.2737 102.401 35.6548V36.5249C102.401 37.0353 102.491 37.4695 102.67 37.8274C102.852 38.1854 103.106 38.4588 103.431 38.6477C103.755 38.8333 104.135 38.9261 104.569 38.9261C104.851 38.9261 105.108 38.8864 105.34 38.8068C105.572 38.724 105.772 38.6013 105.941 38.4389C106.11 38.2765 106.24 38.076 106.329 37.8374L107.736 38.0909C107.623 38.5052 107.421 38.8681 107.129 39.1797C106.841 39.4879 106.478 39.7282 106.041 39.9006C105.606 40.0696 105.111 40.1541 104.554 40.1541Z" fill="#212529"/>
<rect x="113" y="25" width="73" height="20" rx="6" fill="#EBFBEE"/>
<path d="M120.119 40V29.8182H126.502V31.1406H121.655V34.2429H126.169V35.5604H121.655V38.6776H126.562V40H120.119ZM129.608 32.3636L131.294 35.3366L132.994 32.3636H134.619L132.238 36.1818L134.639 40H133.014L131.294 37.1463L129.578 40H127.948L130.324 36.1818L127.977 32.3636H129.608ZM139.062 40.1541C138.323 40.1541 137.686 39.9867 137.153 39.652C136.622 39.3139 136.215 38.8482 135.93 38.255C135.644 37.6617 135.502 36.9822 135.502 36.2166C135.502 35.4411 135.648 34.7566 135.939 34.1634C136.231 33.5668 136.642 33.1011 137.172 32.7663C137.703 32.4316 138.327 32.2642 139.047 32.2642C139.627 32.2642 140.144 32.3719 140.598 32.5874C141.052 32.7995 141.418 33.0978 141.697 33.4822C141.978 33.8667 142.146 34.3158 142.199 34.8295H140.752C140.672 34.4716 140.49 34.1634 140.205 33.9048C139.923 33.6463 139.546 33.517 139.072 33.517C138.657 33.517 138.294 33.6264 137.983 33.8452C137.675 34.0606 137.434 34.3688 137.262 34.7699C137.09 35.1676 137.003 35.6383 137.003 36.1818C137.003 36.7386 137.088 37.2192 137.257 37.6236C137.426 38.0279 137.665 38.3411 137.973 38.5632C138.284 38.7853 138.651 38.8963 139.072 38.8963C139.353 38.8963 139.608 38.8449 139.837 38.7422C140.069 38.6361 140.263 38.4853 140.419 38.2898C140.578 38.0942 140.689 37.8589 140.752 37.5838H142.199C142.146 38.0777 141.985 38.5185 141.716 38.9062C141.448 39.294 141.088 39.599 140.638 39.821C140.19 40.0431 139.665 40.1541 139.062 40.1541ZM147.08 40.1541C146.327 40.1541 145.679 39.9934 145.136 39.6719C144.595 39.3471 144.178 38.8913 143.883 38.3047C143.591 37.7147 143.445 37.0237 143.445 36.2315C143.445 35.4493 143.591 34.7599 143.883 34.1634C144.178 33.5668 144.589 33.1011 145.116 32.7663C145.646 32.4316 146.266 32.2642 146.975 32.2642C147.406 32.2642 147.824 32.3355 148.228 32.478C148.632 32.6205 148.995 32.8442 149.317 33.1491C149.638 33.4541 149.892 33.8501 150.077 34.3374C150.263 34.8213 150.356 35.4096 150.356 36.1023V36.6293H144.286V35.5156H148.899C148.899 35.1245 148.82 34.7782 148.661 34.4766C148.501 34.1716 148.278 33.9313 147.989 33.7557C147.704 33.58 147.37 33.4922 146.985 33.4922C146.567 33.4922 146.203 33.5949 145.891 33.8004C145.583 34.0026 145.344 34.2678 145.175 34.5959C145.01 34.9207 144.927 35.2737 144.927 35.6548V36.5249C144.927 37.0353 145.016 37.4695 145.195 37.8274C145.378 38.1854 145.631 38.4588 145.956 38.6477C146.281 38.8333 146.66 38.9261 147.094 38.9261C147.376 38.9261 147.633 38.8864 147.865 38.8068C148.097 38.724 148.298 38.6013 148.467 38.4389C148.636 38.2765 148.765 38.076 148.854 37.8374L150.261 38.0909C150.149 38.5052 149.946 38.8681 149.655 39.1797C149.366 39.4879 149.004 39.7282 148.566 39.9006C148.132 40.0696 147.636 40.1541 147.08 40.1541ZM153.492 29.8182V40H152.005V29.8182H153.492ZM156.978 29.8182V40H155.491V29.8182H156.978ZM162.269 40.1541C161.517 40.1541 160.869 39.9934 160.325 39.6719C159.785 39.3471 159.367 38.8913 159.072 38.3047C158.781 37.7147 158.635 37.0237 158.635 36.2315C158.635 35.4493 158.781 34.7599 159.072 34.1634C159.367 33.5668 159.778 33.1011 160.305 32.7663C160.836 32.4316 161.455 32.2642 162.165 32.2642C162.595 32.2642 163.013 32.3355 163.417 32.478C163.822 32.6205 164.185 32.8442 164.506 33.1491C164.828 33.4541 165.081 33.8501 165.267 34.3374C165.452 34.8213 165.545 35.4096 165.545 36.1023V36.6293H159.475V35.5156H164.089C164.089 35.1245 164.009 34.7782 163.85 34.4766C163.691 34.1716 163.467 33.9313 163.179 33.7557C162.894 33.58 162.559 33.4922 162.175 33.4922C161.757 33.4922 161.392 33.5949 161.081 33.8004C160.773 34.0026 160.534 34.2678 160.365 34.5959C160.199 34.9207 160.116 35.2737 160.116 35.6548V36.5249C160.116 37.0353 160.206 37.4695 160.385 37.8274C160.567 38.1854 160.821 38.4588 161.145 38.6477C161.47 38.8333 161.85 38.9261 162.284 38.9261C162.566 38.9261 162.823 38.8864 163.055 38.8068C163.287 38.724 163.487 38.6013 163.656 38.4389C163.825 38.2765 163.954 38.076 164.044 37.8374L165.451 38.0909C165.338 38.5052 165.136 38.8681 164.844 39.1797C164.556 39.4879 164.193 39.7282 163.756 39.9006C163.321 40.0696 162.826 40.1541 162.269 40.1541ZM168.681 35.4659V40H167.195V32.3636H168.621V33.6065H168.716C168.892 33.2022 169.167 32.8774 169.541 32.6321C169.919 32.3868 170.395 32.2642 170.968 32.2642C171.488 32.2642 171.944 32.3736 172.335 32.5923C172.726 32.8078 173.03 33.1293 173.245 33.5568C173.46 33.9844 173.568 34.513 173.568 35.1428V40H172.082V35.3217C172.082 34.7682 171.938 34.3357 171.649 34.0241C171.361 33.7093 170.965 33.5518 170.461 33.5518C170.116 33.5518 169.81 33.6264 169.541 33.7756C169.276 33.9247 169.066 34.1435 168.91 34.4318C168.757 34.7169 168.681 35.0616 168.681 35.4659ZM179.126 32.3636V33.5568H174.955V32.3636H179.126ZM176.074 30.5341H177.56V37.7578C177.56 38.0462 177.603 38.2633 177.69 38.4091C177.776 38.5516 177.887 38.6494 178.023 38.7024C178.162 38.7521 178.313 38.777 178.475 38.777C178.594 38.777 178.699 38.7687 178.788 38.7521C178.878 38.7356 178.947 38.7223 178.997 38.7124L179.266 39.9403C179.179 39.9735 179.057 40.0066 178.898 40.0398C178.739 40.0762 178.54 40.0961 178.301 40.0994C177.91 40.1061 177.545 40.0365 177.207 39.8906C176.869 39.7448 176.596 39.5194 176.387 39.2145C176.178 38.9096 176.074 38.5268 176.074 38.0661V30.5341Z" fill="#37B24D"/>
<path d="M304.246 40L308.577 31.429V31.3594H303.55V29.8182H310.486V31.3942L306.161 40H304.246ZM312.09 40V38.6676L315.625 35.2024C315.963 34.861 316.245 34.5578 316.47 34.2926C316.696 34.0275 316.865 33.7706 316.977 33.522C317.09 33.2734 317.146 33.0083 317.146 32.7266C317.146 32.4051 317.074 32.13 316.928 31.9013C316.782 31.6693 316.581 31.4903 316.326 31.3643C316.071 31.2384 315.781 31.1754 315.456 31.1754C315.121 31.1754 314.828 31.245 314.576 31.3842C314.324 31.5201 314.129 31.714 313.99 31.9659C313.854 32.2178 313.786 32.5178 313.786 32.8658H312.031C312.031 32.2195 312.178 31.6577 312.473 31.1804C312.768 30.7031 313.174 30.3336 313.691 30.0717C314.212 29.8099 314.808 29.679 315.481 29.679C316.164 29.679 316.764 29.8066 317.281 30.0618C317.798 30.317 318.199 30.6667 318.484 31.1108C318.772 31.5549 318.916 32.062 318.916 32.6321C318.916 33.0133 318.843 33.3878 318.698 33.7557C318.552 34.1236 318.295 34.5312 317.927 34.9787C317.562 35.4261 317.05 35.968 316.391 36.6044L314.636 38.3892V38.4588H319.07V40H312.09ZM324.44 40.1392C323.724 40.1392 323.088 40.0166 322.531 39.7713C321.977 39.526 321.54 39.1847 321.218 38.7472C320.897 38.3097 320.726 37.8042 320.706 37.2308H322.575C322.592 37.5059 322.683 37.7462 322.849 37.9517C323.015 38.1539 323.235 38.3113 323.51 38.424C323.785 38.5367 324.093 38.593 324.435 38.593C324.799 38.593 325.123 38.5301 325.404 38.4041C325.686 38.2749 325.906 38.0959 326.066 37.8672C326.225 37.6385 326.302 37.375 326.299 37.0767C326.302 36.7685 326.223 36.4967 326.061 36.2614C325.898 36.026 325.663 35.8421 325.355 35.7095C325.05 35.5769 324.682 35.5107 324.251 35.5107H323.351V34.0888H324.251C324.606 34.0888 324.915 34.0275 325.181 33.9048C325.449 33.7822 325.66 33.6098 325.812 33.3878C325.964 33.1624 326.039 32.9022 326.036 32.6072C326.039 32.3189 325.974 32.0687 325.842 31.8565C325.713 31.6411 325.529 31.4737 325.29 31.3544C325.055 31.2351 324.778 31.1754 324.46 31.1754C324.148 31.1754 323.86 31.2318 323.595 31.3445C323.329 31.4571 323.116 31.6179 322.953 31.8267C322.791 32.0322 322.705 32.2775 322.695 32.5625H320.92C320.933 31.9924 321.097 31.492 321.412 31.0611C321.73 30.6269 322.155 30.2888 322.685 30.0469C323.215 29.8016 323.81 29.679 324.47 29.679C325.149 29.679 325.739 29.8066 326.24 30.0618C326.743 30.3137 327.133 30.6534 327.408 31.081C327.683 31.5085 327.82 31.9808 327.82 32.4979C327.824 33.0713 327.655 33.5518 327.313 33.9396C326.975 34.3274 326.531 34.581 325.981 34.7003V34.7798C326.697 34.8793 327.245 35.1444 327.627 35.5753C328.011 36.0028 328.202 36.5348 328.198 37.1712C328.198 37.7412 328.036 38.2517 327.711 38.7024C327.39 39.1499 326.945 39.5012 326.379 39.7564C325.815 40.0116 325.169 40.1392 324.44 40.1392Z" fill="#51CF66"/>
<path d="M25 73C25 70.7909 26.7909 69 29 69H153V77H29C26.7909 77 25 75.2091 25 73V73Z" fill="#FA5252"/>
<rect x="155" y="69" width="56.6667" height="8" fill="#F76707"/>
<rect x="213.667" y="69" width="56.6667" height="8" fill="#FFA94D"/>
<path d="M272.333 69H325C327.209 69 329 70.7909 329 73V73C329 75.2091 327.209 77 325 77H272.333V69Z" fill="#51CF66"/>
<circle cx="300" cy="73" r="8.5" fill="white" stroke="#51CF66" stroke-width="5"/>
<rect x="1" y="1" width="352" height="100" rx="24" stroke="#F1F3F5"/>
</svg>
