<svg width="354" height="162" viewBox="0 0 354 162" fill="none" xmlns="http://www.w3.org/2000/svg">
<rect x="1" y="1" width="352" height="160" rx="24" fill="white"/>
<path d="M34.5753 35.1293H33.0241C32.9645 34.7978 32.8535 34.5062 32.6911 34.2543C32.5286 34.0024 32.3298 33.7886 32.0945 33.6129C31.8591 33.4373 31.5956 33.3047 31.304 33.2152C31.0156 33.1257 30.709 33.081 30.3842 33.081C29.7976 33.081 29.2723 33.2285 28.8082 33.5234C28.3475 33.8184 27.983 34.2509 27.7145 34.821C27.4493 35.3911 27.3168 36.0871 27.3168 36.9091C27.3168 37.7377 27.4493 38.437 27.7145 39.0071C27.983 39.5772 28.3492 40.008 28.8132 40.2997C29.2772 40.5914 29.7992 40.7372 30.3793 40.7372C30.7008 40.7372 31.0057 40.6941 31.294 40.608C31.5857 40.5185 31.8492 40.3875 32.0845 40.2152C32.3198 40.0429 32.5187 39.8324 32.6811 39.5838C32.8468 39.3319 32.9612 39.0436 33.0241 38.7188L34.5753 38.7237C34.4924 39.2242 34.3317 39.6849 34.093 40.1058C33.8577 40.5234 33.5545 40.8847 33.1832 41.1896C32.8153 41.4912 32.3944 41.7249 31.9205 41.8906C31.4465 42.0563 30.9295 42.1392 30.3693 42.1392C29.4877 42.1392 28.7022 41.9304 28.0128 41.5128C27.3234 41.0919 26.7798 40.4903 26.3821 39.7081C25.9877 38.9259 25.7905 37.9929 25.7905 36.9091C25.7905 35.822 25.9893 34.889 26.3871 34.1101C26.7848 33.3279 27.3284 32.728 28.0178 32.3104C28.7071 31.8894 29.491 31.679 30.3693 31.679C30.9096 31.679 31.4134 31.7569 31.8807 31.9126C32.3513 32.0651 32.7739 32.2905 33.1484 32.5888C33.523 32.8838 33.8329 33.245 34.0781 33.6726C34.3234 34.0968 34.4891 34.5824 34.5753 35.1293ZM41.1316 38.8331V34.3636H42.623V42H41.1614V40.6776H41.0819C40.9062 41.0852 40.6245 41.425 40.2367 41.6967C39.8522 41.9652 39.3733 42.0994 38.7999 42.0994C38.3094 42.0994 37.8752 41.9917 37.4973 41.7763C37.1228 41.5575 36.8278 41.2344 36.6124 40.8068C36.4003 40.3793 36.2942 39.8506 36.2942 39.2209V34.3636H37.7807V39.0419C37.7807 39.5623 37.9249 39.9766 38.2132 40.2848C38.5016 40.593 38.8761 40.7472 39.3368 40.7472C39.6152 40.7472 39.892 40.6776 40.1671 40.5384C40.4455 40.3991 40.6758 40.1887 40.8581 39.907C41.0437 39.6252 41.1349 39.2673 41.1316 38.8331ZM44.6204 42V34.3636H46.0572V35.5767H46.1367C46.2759 35.1657 46.5212 34.8426 46.8725 34.6072C47.2272 34.3686 47.6282 34.2493 48.0756 34.2493C48.1684 34.2493 48.2778 34.2526 48.4038 34.2592C48.533 34.2659 48.6341 34.2741 48.707 34.2841V35.706C48.6474 35.6894 48.5413 35.6712 48.3888 35.6513C48.2364 35.6281 48.0839 35.6165 47.9315 35.6165C47.5801 35.6165 47.2669 35.6911 46.9918 35.8402C46.7201 35.986 46.5046 36.1899 46.3455 36.4517C46.1864 36.7102 46.1069 37.0052 46.1069 37.3366V42H44.6204ZM49.9934 42V34.3636H51.4302V35.5767H51.5098C51.649 35.1657 51.8942 34.8426 52.2456 34.6072C52.6002 34.3686 53.0012 34.2493 53.4487 34.2493C53.5415 34.2493 53.6509 34.2526 53.7768 34.2592C53.9061 34.2659 54.0072 34.2741 54.0801 34.2841V35.706C54.0204 35.6894 53.9144 35.6712 53.7619 35.6513C53.6094 35.6281 53.457 35.6165 53.3045 35.6165C52.9532 35.6165 52.64 35.6911 52.3649 35.8402C52.0931 35.986 51.8777 36.1899 51.7186 36.4517C51.5595 36.7102 51.4799 37.0052 51.4799 37.3366V42H49.9934ZM58.3842 42.1541C57.6319 42.1541 56.9839 41.9934 56.4403 41.6719C55.9001 41.3471 55.4825 40.8913 55.1875 40.3047C54.8958 39.7147 54.75 39.0237 54.75 38.2315C54.75 37.4493 54.8958 36.7599 55.1875 36.1634C55.4825 35.5668 55.8935 35.1011 56.4205 34.7663C56.9508 34.4316 57.5705 34.2642 58.2798 34.2642C58.7107 34.2642 59.1283 34.3355 59.5327 34.478C59.937 34.6205 60.3 34.8442 60.6214 35.1491C60.9429 35.4541 61.1965 35.8501 61.3821 36.3374C61.5677 36.8213 61.6605 37.4096 61.6605 38.1023V38.6293H55.5902V37.5156H60.2038C60.2038 37.1245 60.1243 36.7782 59.9652 36.4766C59.8061 36.1716 59.5824 35.9313 59.294 35.7557C59.009 35.58 58.6742 35.4922 58.2898 35.4922C57.8722 35.4922 57.5076 35.5949 57.196 35.8004C56.8878 36.0026 56.6491 36.2678 56.4801 36.5959C56.3144 36.9207 56.2315 37.2737 56.2315 37.6548V38.5249C56.2315 39.0353 56.321 39.4695 56.5 39.8274C56.6823 40.1854 56.9358 40.4588 57.2607 40.6477C57.5855 40.8333 57.965 40.9261 58.3991 40.9261C58.6809 40.9261 58.9377 40.8864 59.1697 40.8068C59.4018 40.724 59.6023 40.6013 59.7713 40.4389C59.9403 40.2765 60.0696 40.076 60.1591 39.8374L61.5661 40.0909C61.4534 40.5052 61.2512 40.8681 60.9595 41.1797C60.6712 41.4879 60.3082 41.7282 59.8707 41.9006C59.4366 42.0696 58.9411 42.1541 58.3842 42.1541ZM64.7963 37.4659V42H63.3098V34.3636H64.7367V35.6065H64.8311C65.0068 35.2022 65.2819 34.8774 65.6564 34.6321C66.0343 34.3868 66.5099 34.2642 67.0833 34.2642C67.6036 34.2642 68.0594 34.3736 68.4505 34.5923C68.8416 34.8078 69.1448 35.1293 69.3603 35.5568C69.5757 35.9844 69.6834 36.513 69.6834 37.1428V42H68.1969V37.3217C68.1969 36.7682 68.0527 36.3357 67.7644 36.0241C67.476 35.7093 67.08 35.5518 66.5762 35.5518C66.2315 35.5518 65.9249 35.6264 65.6564 35.7756C65.3913 35.9247 65.1808 36.1435 65.025 36.4318C64.8726 36.7169 64.7963 37.0616 64.7963 37.4659ZM75.2417 34.3636V35.5568H71.0705V34.3636H75.2417ZM72.1891 32.5341H73.6756V39.7578C73.6756 40.0462 73.7187 40.2633 73.8049 40.4091C73.891 40.5516 74.0021 40.6494 74.138 40.7024C74.2772 40.7521 74.428 40.777 74.5904 40.777C74.7097 40.777 74.8141 40.7687 74.9036 40.7521C74.9931 40.7356 75.0627 40.7223 75.1124 40.7124L75.3809 41.9403C75.2947 41.9735 75.1721 42.0066 75.013 42.0398C74.8539 42.0762 74.655 42.0961 74.4164 42.0994C74.0253 42.1061 73.6607 42.0365 73.3226 41.8906C72.9846 41.7448 72.7111 41.5194 72.5023 41.2145C72.2935 40.9096 72.1891 40.5268 72.1891 40.0661V32.5341ZM80.7104 42V31.8182H84.4391C85.1616 31.8182 85.7599 31.9375 86.2338 32.1761C86.7078 32.4115 87.0624 32.7313 87.2978 33.1357C87.5331 33.5367 87.6507 33.9891 87.6507 34.4929C87.6507 34.9171 87.5729 35.2751 87.4171 35.5668C87.2613 35.8551 87.0525 36.0871 86.7907 36.2628C86.5321 36.4351 86.2471 36.5611 85.9355 36.6406V36.7401C86.2736 36.7566 86.6034 36.866 86.9249 37.0682C87.2497 37.267 87.5182 37.5504 87.7303 37.9183C87.9424 38.2862 88.0485 38.7337 88.0485 39.2607C88.0485 39.781 87.9258 40.2483 87.6806 40.6626C87.4386 41.0736 87.0641 41.4001 86.557 41.642C86.0499 41.8807 85.4019 42 84.6131 42H80.7104ZM82.2466 40.6825H84.464C85.1998 40.6825 85.7267 40.54 86.0449 40.255C86.3631 39.9699 86.5222 39.6136 86.5222 39.1861C86.5222 38.8646 86.441 38.5696 86.2786 38.3011C86.1162 38.0327 85.8842 37.8189 85.5826 37.6598C85.2843 37.5007 84.9296 37.4212 84.5186 37.4212H82.2466V40.6825ZM82.2466 36.223H84.3049C84.6496 36.223 84.9595 36.1567 85.2346 36.0241C85.513 35.8916 85.7334 35.706 85.8958 35.4673C86.0615 35.2254 86.1444 34.9403 86.1444 34.6122C86.1444 34.1913 85.9969 33.8383 85.7019 33.5533C85.4069 33.2682 84.9545 33.1257 84.3446 33.1257H82.2466V36.223ZM91.9735 42.169C91.4896 42.169 91.0521 42.0795 90.661 41.9006C90.2699 41.7183 89.96 41.4548 89.7314 41.1101C89.506 40.7654 89.3933 40.3428 89.3933 39.8423C89.3933 39.4115 89.4761 39.0568 89.6419 38.7784C89.8076 38.5 90.0313 38.2796 90.313 38.1172C90.5948 37.9548 90.9096 37.8321 91.2576 37.7493C91.6056 37.6664 91.9603 37.6035 92.3216 37.5604C92.7789 37.5073 93.1502 37.4643 93.4352 37.4311C93.7202 37.3946 93.9274 37.3366 94.0566 37.2571C94.1859 37.1776 94.2505 37.0483 94.2505 36.8693V36.8345C94.2505 36.4003 94.1279 36.0639 93.8826 35.8253C93.6407 35.5866 93.2794 35.4673 92.7988 35.4673C92.2984 35.4673 91.9039 35.5784 91.6156 35.8004C91.3306 36.0192 91.1333 36.2628 91.024 36.5312L89.627 36.2131C89.7927 35.7491 90.0346 35.3745 90.3528 35.0895C90.6743 34.8011 91.0439 34.5923 91.4615 34.4631C91.8791 34.3305 92.3182 34.2642 92.7789 34.2642C93.0839 34.2642 93.407 34.3007 93.7484 34.3736C94.0931 34.4432 94.4146 34.5724 94.7129 34.7614C95.0145 34.9503 95.2614 35.2204 95.4537 35.5717C95.6459 35.9197 95.742 36.3722 95.742 36.929V42H94.2903V40.956H94.2306C94.1345 41.1482 93.9904 41.3371 93.7981 41.5227C93.6059 41.7083 93.359 41.8625 93.0574 41.9851C92.7557 42.1077 92.3945 42.169 91.9735 42.169ZM92.2967 40.9759C92.7077 40.9759 93.059 40.8946 93.3507 40.7322C93.6457 40.5698 93.8694 40.3577 94.0218 40.0959C94.1776 39.8307 94.2555 39.5473 94.2555 39.2457V38.2614C94.2025 38.3144 94.0997 38.3641 93.9473 38.4105C93.7981 38.4536 93.6274 38.4917 93.4352 38.5249C93.243 38.5547 93.0557 38.5829 92.8734 38.6094C92.6911 38.6326 92.5386 38.6525 92.416 38.669C92.1277 38.7055 91.8642 38.7668 91.6255 38.853C91.3902 38.9392 91.2013 39.0634 91.0588 39.2259C90.9196 39.3849 90.85 39.5971 90.85 39.8622C90.85 40.2301 90.9859 40.5085 91.2576 40.6974C91.5294 40.883 91.8758 40.9759 92.2967 40.9759ZM99.2085 31.8182V42H97.7219V31.8182H99.2085ZM103.431 42.169C102.947 42.169 102.509 42.0795 102.118 41.9006C101.727 41.7183 101.417 41.4548 101.188 41.1101C100.963 40.7654 100.85 40.3428 100.85 39.8423C100.85 39.4115 100.933 39.0568 101.099 38.7784C101.265 38.5 101.488 38.2796 101.77 38.1172C102.052 37.9548 102.367 37.8321 102.715 37.7493C103.063 37.6664 103.417 37.6035 103.779 37.5604C104.236 37.5073 104.607 37.4643 104.892 37.4311C105.177 37.3946 105.384 37.3366 105.514 37.2571C105.643 37.1776 105.708 37.0483 105.708 36.8693V36.8345C105.708 36.4003 105.585 36.0639 105.34 35.8253C105.098 35.5866 104.736 35.4673 104.256 35.4673C103.755 35.4673 103.361 35.5784 103.073 35.8004C102.788 36.0192 102.59 36.2628 102.481 36.5312L101.084 36.2131C101.25 35.7491 101.492 35.3745 101.81 35.0895C102.131 34.8011 102.501 34.5923 102.919 34.4631C103.336 34.3305 103.775 34.2642 104.236 34.2642C104.541 34.2642 104.864 34.3007 105.205 34.3736C105.55 34.4432 105.872 34.5724 106.17 34.7614C106.472 34.9503 106.718 35.2204 106.911 35.5717C107.103 35.9197 107.199 36.3722 107.199 36.929V42H105.747V40.956H105.688C105.592 41.1482 105.447 41.3371 105.255 41.5227C105.063 41.7083 104.816 41.8625 104.514 41.9851C104.213 42.1077 103.852 42.169 103.431 42.169ZM103.754 40.9759C104.165 40.9759 104.516 40.8946 104.808 40.7322C105.103 40.5698 105.326 40.3577 105.479 40.0959C105.635 39.8307 105.713 39.5473 105.713 39.2457V38.2614C105.66 38.3144 105.557 38.3641 105.404 38.4105C105.255 38.4536 105.084 38.4917 104.892 38.5249C104.7 38.5547 104.513 38.5829 104.33 38.6094C104.148 38.6326 103.996 38.6525 103.873 38.669C103.585 38.7055 103.321 38.7668 103.083 38.853C102.847 38.9392 102.658 39.0634 102.516 39.2259C102.377 39.3849 102.307 39.5971 102.307 39.8622C102.307 40.2301 102.443 40.5085 102.715 40.6974C102.986 40.883 103.333 40.9759 103.754 40.9759ZM110.665 37.4659V42H109.179V34.3636H110.606V35.6065H110.7C110.876 35.2022 111.151 34.8774 111.526 34.6321C111.903 34.3868 112.379 34.2642 112.952 34.2642C113.473 34.2642 113.929 34.3736 114.32 34.5923C114.711 34.8078 115.014 35.1293 115.229 35.5568C115.445 35.9844 115.553 36.513 115.553 37.1428V42H114.066V37.3217C114.066 36.7682 113.922 36.3357 113.634 36.0241C113.345 35.7093 112.949 35.5518 112.445 35.5518C112.101 35.5518 111.794 35.6264 111.526 35.7756C111.26 35.9247 111.05 36.1435 110.894 36.4318C110.742 36.7169 110.665 37.0616 110.665 37.4659ZM120.763 42.1541C120.024 42.1541 119.387 41.9867 118.854 41.652C118.323 41.3139 117.916 40.8482 117.631 40.255C117.346 39.6617 117.203 38.9822 117.203 38.2166C117.203 37.4411 117.349 36.7566 117.641 36.1634C117.932 35.5668 118.343 35.1011 118.874 34.7663C119.404 34.4316 120.029 34.2642 120.748 34.2642C121.328 34.2642 121.845 34.3719 122.299 34.5874C122.753 34.7995 123.119 35.0978 123.398 35.4822C123.679 35.8667 123.847 36.3158 123.9 36.8295H122.453C122.374 36.4716 122.191 36.1634 121.906 35.9048C121.625 35.6463 121.247 35.517 120.773 35.517C120.358 35.517 119.996 35.6264 119.684 35.8452C119.376 36.0606 119.135 36.3688 118.963 36.7699C118.791 37.1676 118.705 37.6383 118.705 38.1818C118.705 38.7386 118.789 39.2192 118.958 39.6236C119.127 40.0279 119.366 40.3411 119.674 40.5632C119.986 40.7853 120.352 40.8963 120.773 40.8963C121.054 40.8963 121.31 40.8449 121.538 40.7422C121.77 40.6361 121.964 40.4853 122.12 40.2898C122.279 40.0942 122.39 39.8589 122.453 39.5838H123.9C123.847 40.0777 123.686 40.5185 123.418 40.9062C123.149 41.294 122.79 41.599 122.339 41.821C121.891 42.0431 121.366 42.1541 120.763 42.1541ZM128.781 42.1541C128.028 42.1541 127.38 41.9934 126.837 41.6719C126.297 41.3471 125.879 40.8913 125.584 40.3047C125.292 39.7147 125.146 39.0237 125.146 38.2315C125.146 37.4493 125.292 36.7599 125.584 36.1634C125.879 35.5668 126.29 35.1011 126.817 34.7663C127.347 34.4316 127.967 34.2642 128.676 34.2642C129.107 34.2642 129.525 34.3355 129.929 34.478C130.334 34.6205 130.696 34.8442 131.018 35.1491C131.339 35.4541 131.593 35.8501 131.779 36.3374C131.964 36.8213 132.057 37.4096 132.057 38.1023V38.6293H125.987V37.5156H130.6C130.6 37.1245 130.521 36.7782 130.362 36.4766C130.203 36.1716 129.979 35.9313 129.691 35.7557C129.405 35.58 129.071 35.4922 128.686 35.4922C128.269 35.4922 127.904 35.5949 127.593 35.8004C127.284 36.0026 127.046 36.2678 126.877 36.5959C126.711 36.9207 126.628 37.2737 126.628 37.6548V38.5249C126.628 39.0353 126.718 39.4695 126.896 39.8274C127.079 40.1854 127.332 40.4588 127.657 40.6477C127.982 40.8333 128.361 40.9261 128.796 40.9261C129.077 40.9261 129.334 40.8864 129.566 40.8068C129.798 40.724 129.999 40.6013 130.168 40.4389C130.337 40.2765 130.466 40.076 130.556 39.8374L131.963 40.0909C131.85 40.5052 131.648 40.8681 131.356 41.1797C131.068 41.4879 130.705 41.7282 130.267 41.9006C129.833 42.0696 129.338 42.1541 128.781 42.1541Z" fill="#212529"/>
<path d="M257.018 44.4545V29.9091H257.95V44.4545H257.018ZM259.706 34.5625C259.653 34.0663 259.429 33.6799 259.036 33.4034C258.645 33.1269 258.138 32.9886 257.513 32.9886C257.073 32.9886 256.696 33.0549 256.382 33.1875C256.068 33.3201 255.827 33.5 255.661 33.7273C255.494 33.9545 255.409 34.214 255.405 34.5057C255.405 34.7481 255.46 34.9583 255.57 35.1364C255.683 35.3144 255.837 35.4659 256.03 35.5909C256.223 35.7121 256.437 35.8144 256.672 35.8977C256.907 35.9811 257.143 36.0511 257.382 36.108L258.473 36.3807C258.912 36.483 259.335 36.6212 259.74 36.7955C260.149 36.9697 260.515 37.1894 260.837 37.4545C261.162 37.7197 261.42 38.0398 261.609 38.4148C261.799 38.7898 261.893 39.2292 261.893 39.733C261.893 40.4148 261.719 41.0152 261.371 41.5341C261.022 42.0492 260.518 42.4527 259.859 42.7443C259.204 43.0322 258.411 43.1761 257.479 43.1761C256.573 43.1761 255.787 43.036 255.121 42.7557C254.458 42.4754 253.939 42.0663 253.564 41.5284C253.193 40.9905 252.992 40.3352 252.962 39.5625H255.036C255.066 39.9678 255.191 40.3049 255.411 40.5739C255.63 40.8428 255.916 41.0436 256.268 41.1761C256.625 41.3087 257.022 41.375 257.462 41.375C257.92 41.375 258.321 41.3068 258.666 41.1705C259.015 41.0303 259.287 40.8371 259.484 40.5909C259.681 40.3409 259.782 40.0492 259.786 39.7159C259.782 39.4129 259.693 39.1629 259.518 38.9659C259.344 38.7652 259.1 38.5985 258.786 38.4659C258.475 38.3295 258.111 38.2083 257.695 38.1023L256.371 37.7614C255.412 37.5152 254.655 37.142 254.098 36.642C253.545 36.1383 253.268 35.4697 253.268 34.6364C253.268 33.9508 253.454 33.3504 253.825 32.8352C254.2 32.3201 254.71 31.9205 255.354 31.6364C255.998 31.3485 256.727 31.2045 257.541 31.2045C258.367 31.2045 259.09 31.3485 259.712 31.6364C260.337 31.9205 260.827 32.3163 261.183 32.8239C261.539 33.3277 261.723 33.9072 261.734 34.5625H259.706ZM267.92 43.1591C267.364 43.1553 266.82 43.0587 266.29 42.8693C265.759 42.6761 265.282 42.3636 264.858 41.9318C264.434 41.4962 264.097 40.9186 263.847 40.1989C263.597 39.4754 263.473 38.5795 263.477 37.5114C263.477 36.5152 263.583 35.6269 263.795 34.8466C264.008 34.0663 264.312 33.4072 264.71 32.8693C265.108 32.3277 265.587 31.9148 266.148 31.6307C266.712 31.3466 267.343 31.2045 268.04 31.2045C268.771 31.2045 269.419 31.3485 269.983 31.6364C270.551 31.9242 271.009 32.3182 271.358 32.8182C271.706 33.3144 271.922 33.875 272.006 34.5H269.932C269.826 34.053 269.608 33.697 269.278 33.4318C268.953 33.1629 268.54 33.0284 268.04 33.0284C267.233 33.0284 266.612 33.3788 266.176 34.0795C265.744 34.7803 265.527 35.7424 265.523 36.9659H265.602C265.788 36.6326 266.028 36.3466 266.324 36.108C266.619 35.8693 266.953 35.6856 267.324 35.5568C267.699 35.4242 268.095 35.358 268.511 35.358C269.193 35.358 269.805 35.5208 270.347 35.8466C270.892 36.1723 271.324 36.6212 271.642 37.1932C271.96 37.7614 272.117 38.4129 272.114 39.1477C272.117 39.9129 271.943 40.6004 271.591 41.2102C271.239 41.8163 270.748 42.2936 270.119 42.642C269.491 42.9905 268.758 43.1629 267.92 43.1591ZM267.909 41.4545C268.322 41.4545 268.691 41.3542 269.017 41.1534C269.343 40.9527 269.6 40.6818 269.79 40.3409C269.979 40 270.072 39.6174 270.068 39.1932C270.072 38.7765 269.981 38.3996 269.795 38.0625C269.614 37.7254 269.362 37.4583 269.04 37.2614C268.718 37.0644 268.35 36.9659 267.938 36.9659C267.631 36.9659 267.345 37.0246 267.08 37.142C266.814 37.2595 266.583 37.4223 266.386 37.6307C266.189 37.8352 266.034 38.0739 265.92 38.3466C265.811 38.6155 265.754 38.9034 265.75 39.2102C265.754 39.6155 265.848 39.9886 266.034 40.3295C266.22 40.6705 266.475 40.9432 266.801 41.1477C267.127 41.3523 267.496 41.4545 267.909 41.4545ZM275.972 41.4091L275.898 42.0341C275.845 42.5114 275.75 42.9962 275.614 43.4886C275.481 43.9848 275.341 44.4413 275.193 44.858C275.045 45.2746 274.926 45.6023 274.835 45.8409H273.449C273.502 45.6098 273.574 45.2955 273.665 44.8977C273.759 44.5 273.85 44.053 273.938 43.5568C274.025 43.0606 274.083 42.5568 274.114 42.0455L274.153 41.4091H275.972ZM282.061 43.1591C281.504 43.1553 280.961 43.0587 280.43 42.8693C279.9 42.6761 279.423 42.3636 278.999 41.9318C278.574 41.4962 278.237 40.9186 277.987 40.1989C277.737 39.4754 277.614 38.5795 277.618 37.5114C277.618 36.5152 277.724 35.6269 277.936 34.8466C278.148 34.0663 278.453 33.4072 278.851 32.8693C279.249 32.3277 279.728 31.9148 280.288 31.6307C280.853 31.3466 281.483 31.2045 282.18 31.2045C282.911 31.2045 283.559 31.3485 284.124 31.6364C284.692 31.9242 285.15 32.3182 285.499 32.8182C285.847 33.3144 286.063 33.875 286.146 34.5H284.072C283.966 34.053 283.749 33.697 283.419 33.4318C283.093 33.1629 282.68 33.0284 282.18 33.0284C281.374 33.0284 280.752 33.3788 280.317 34.0795C279.885 34.7803 279.667 35.7424 279.663 36.9659H279.743C279.929 36.6326 280.169 36.3466 280.464 36.108C280.76 35.8693 281.093 35.6856 281.464 35.5568C281.839 35.4242 282.235 35.358 282.652 35.358C283.334 35.358 283.946 35.5208 284.487 35.8466C285.033 36.1723 285.464 36.6212 285.783 37.1932C286.101 37.7614 286.258 38.4129 286.254 39.1477C286.258 39.9129 286.084 40.6004 285.732 41.2102C285.379 41.8163 284.889 42.2936 284.26 42.642C283.631 42.9905 282.898 43.1629 282.061 43.1591ZM282.05 41.4545C282.463 41.4545 282.832 41.3542 283.158 41.1534C283.483 40.9527 283.741 40.6818 283.93 40.3409C284.12 40 284.213 39.6174 284.209 39.1932C284.213 38.7765 284.122 38.3996 283.936 38.0625C283.754 37.7254 283.502 37.4583 283.18 37.2614C282.858 37.0644 282.491 36.9659 282.078 36.9659C281.771 36.9659 281.485 37.0246 281.22 37.142C280.955 37.2595 280.724 37.4223 280.527 37.6307C280.33 37.8352 280.175 38.0739 280.061 38.3466C279.951 38.6155 279.894 38.9034 279.891 39.2102C279.894 39.6155 279.989 39.9886 280.175 40.3295C280.36 40.6705 280.616 40.9432 280.942 41.1477C281.268 41.3523 281.637 41.4545 282.05 41.4545ZM288.601 43L293.55 33.2045V33.125H287.805V31.3636H295.732V33.1648L290.788 43H288.601ZM297.565 43V41.4773L301.605 37.517C301.991 37.1269 302.313 36.7803 302.571 36.4773C302.829 36.1742 303.022 35.8807 303.151 35.5966C303.279 35.3125 303.344 35.0095 303.344 34.6875C303.344 34.3201 303.26 34.0057 303.094 33.7443C302.927 33.4792 302.698 33.2746 302.406 33.1307C302.115 32.9867 301.783 32.9148 301.412 32.9148C301.029 32.9148 300.694 32.9943 300.406 33.1534C300.118 33.3087 299.895 33.5303 299.736 33.8182C299.58 34.1061 299.503 34.4489 299.503 34.8466H297.497C297.497 34.108 297.666 33.4659 298.003 32.9205C298.34 32.375 298.804 31.9527 299.395 31.6534C299.99 31.3542 300.671 31.2045 301.44 31.2045C302.221 31.2045 302.906 31.3504 303.497 31.642C304.088 31.9337 304.546 32.3333 304.872 32.8409C305.202 33.3485 305.366 33.928 305.366 34.5795C305.366 35.0152 305.283 35.4432 305.116 35.8636C304.95 36.2841 304.656 36.75 304.236 37.2614C303.819 37.7727 303.234 38.392 302.48 39.1193L300.474 41.1591V41.2386H305.543V43H297.565Z" fill="#212529"/>
<path d="M308.793 43.125C308.448 43.125 308.152 43.0038 307.906 42.7614C307.66 42.5189 307.539 42.2235 307.543 41.875C307.539 41.5341 307.66 41.2424 307.906 41C308.152 40.7576 308.448 40.6364 308.793 40.6364C309.126 40.6364 309.416 40.7576 309.662 41C309.912 41.2424 310.039 41.5341 310.043 41.875C310.039 42.1061 309.978 42.3163 309.861 42.5057C309.747 42.6951 309.596 42.8466 309.406 42.9602C309.221 43.0701 309.016 43.125 308.793 43.125ZM316.011 31.2045C316.568 31.2083 317.11 31.3068 317.636 31.5C318.167 31.6894 318.644 32 319.068 32.4318C319.492 32.8598 319.83 33.4337 320.08 34.1534C320.33 34.8731 320.455 35.7633 320.455 36.8239C320.458 37.8239 320.352 38.7178 320.136 39.5057C319.924 40.2898 319.619 40.9527 319.222 41.4943C318.824 42.036 318.345 42.4489 317.784 42.733C317.223 43.017 316.593 43.1591 315.892 43.1591C315.157 43.1591 314.506 43.0152 313.938 42.7273C313.373 42.4394 312.917 42.0455 312.568 41.5455C312.22 41.0455 312.006 40.4735 311.926 39.8295H314C314.106 40.2917 314.322 40.6591 314.648 40.9318C314.977 41.2008 315.392 41.3352 315.892 41.3352C316.699 41.3352 317.32 40.9848 317.756 40.2841C318.191 39.5833 318.409 38.6098 318.409 37.3636H318.33C318.144 37.697 317.903 37.9848 317.608 38.2273C317.313 38.4659 316.977 38.6496 316.602 38.7784C316.231 38.9072 315.837 38.9716 315.42 38.9716C314.739 38.9716 314.125 38.8087 313.58 38.483C313.038 38.1572 312.608 37.7102 312.29 37.142C311.975 36.5739 311.816 35.9242 311.812 35.1932C311.812 34.4356 311.987 33.7557 312.335 33.1534C312.688 32.5473 313.178 32.0701 313.807 31.7216C314.436 31.3693 315.17 31.197 316.011 31.2045ZM316.017 32.9091C315.608 32.9091 315.239 33.0095 314.909 33.2102C314.583 33.4072 314.326 33.6761 314.136 34.017C313.951 34.3542 313.858 34.7311 313.858 35.1477C313.862 35.5606 313.955 35.9356 314.136 36.2727C314.322 36.6098 314.574 36.8769 314.892 37.0739C315.214 37.2708 315.581 37.3693 315.994 37.3693C316.301 37.3693 316.587 37.3106 316.852 37.1932C317.117 37.0758 317.348 36.9129 317.545 36.7045C317.746 36.4924 317.902 36.2519 318.011 35.983C318.125 35.714 318.18 35.4299 318.176 35.1307C318.176 34.733 318.081 34.3655 317.892 34.0284C317.706 33.6913 317.451 33.4205 317.125 33.2159C316.803 33.0114 316.434 32.9091 316.017 32.9091ZM327.08 31.3636V43H324.972V33.4148H324.903L322.182 35.1534V33.2216L325.074 31.3636H327.08Z" fill="#CED4DA"/>
<line x1="25" y1="60.5" x2="329" y2="60.5" stroke="#F1F3F5"/>
<path d="M34.5753 83.1293H33.0241C32.9645 82.7978 32.8535 82.5062 32.6911 82.2543C32.5286 82.0024 32.3298 81.7886 32.0945 81.6129C31.8591 81.4373 31.5956 81.3047 31.304 81.2152C31.0156 81.1257 30.709 81.081 30.3842 81.081C29.7976 81.081 29.2723 81.2285 28.8082 81.5234C28.3475 81.8184 27.983 82.2509 27.7145 82.821C27.4493 83.3911 27.3168 84.0871 27.3168 84.9091C27.3168 85.7377 27.4493 86.437 27.7145 87.0071C27.983 87.5772 28.3492 88.008 28.8132 88.2997C29.2772 88.5914 29.7992 88.7372 30.3793 88.7372C30.7008 88.7372 31.0057 88.6941 31.294 88.608C31.5857 88.5185 31.8492 88.3875 32.0845 88.2152C32.3198 88.0429 32.5187 87.8324 32.6811 87.5838C32.8468 87.3319 32.9612 87.0436 33.0241 86.7188L34.5753 86.7237C34.4924 87.2242 34.3317 87.6849 34.093 88.1058C33.8577 88.5234 33.5545 88.8847 33.1832 89.1896C32.8153 89.4912 32.3944 89.7249 31.9205 89.8906C31.4465 90.0563 30.9295 90.1392 30.3693 90.1392C29.4877 90.1392 28.7022 89.9304 28.0128 89.5128C27.3234 89.0919 26.7798 88.4903 26.3821 87.7081C25.9877 86.9259 25.7905 85.9929 25.7905 84.9091C25.7905 83.822 25.9893 82.889 26.3871 82.1101C26.7848 81.3279 27.3284 80.728 28.0178 80.3104C28.7071 79.8894 29.491 79.679 30.3693 79.679C30.9096 79.679 31.4134 79.7569 31.8807 79.9126C32.3513 80.0651 32.7739 80.2905 33.1484 80.5888C33.523 80.8838 33.8329 81.245 34.0781 81.6726C34.3234 82.0968 34.4891 82.5824 34.5753 83.1293ZM36.2942 90V82.3636H37.731V83.5767H37.8105C37.9498 83.1657 38.195 82.8426 38.5463 82.6072C38.901 82.3686 39.302 82.2493 39.7495 82.2493C39.8423 82.2493 39.9516 82.2526 40.0776 82.2592C40.2069 82.2659 40.3079 82.2741 40.3809 82.2841V83.706C40.3212 83.6894 40.2151 83.6712 40.0627 83.6513C39.9102 83.6281 39.7578 83.6165 39.6053 83.6165C39.254 83.6165 38.9408 83.6911 38.6657 83.8402C38.3939 83.986 38.1784 84.1899 38.0194 84.4517C37.8603 84.7102 37.7807 85.0052 37.7807 85.3366V90H36.2942ZM44.685 90.1541C43.9326 90.1541 43.2847 89.9934 42.7411 89.6719C42.2009 89.3471 41.7833 88.8913 41.4883 88.3047C41.1966 87.7147 41.0508 87.0237 41.0508 86.2315C41.0508 85.4493 41.1966 84.7599 41.4883 84.1634C41.7833 83.5668 42.1942 83.1011 42.7212 82.7663C43.2515 82.4316 43.8713 82.2642 44.5806 82.2642C45.0115 82.2642 45.4291 82.3355 45.8335 82.478C46.2378 82.6205 46.6007 82.8442 46.9222 83.1491C47.2437 83.4541 47.4973 83.8501 47.6829 84.3374C47.8685 84.8213 47.9613 85.4096 47.9613 86.1023V86.6293H41.891V85.5156H46.5046C46.5046 85.1245 46.4251 84.7782 46.266 84.4766C46.1069 84.1716 45.8832 83.9313 45.5948 83.7557C45.3098 83.58 44.975 83.4922 44.5906 83.4922C44.1729 83.4922 43.8084 83.5949 43.4968 83.8004C43.1886 84.0026 42.9499 84.2678 42.7809 84.5959C42.6152 84.9207 42.5323 85.2737 42.5323 85.6548V86.5249C42.5323 87.0353 42.6218 87.4695 42.8008 87.8274C42.9831 88.1854 43.2366 88.4588 43.5614 88.6477C43.8862 88.8333 44.2657 88.9261 44.6999 88.9261C44.9817 88.9261 45.2385 88.8864 45.4705 88.8068C45.7025 88.724 45.9031 88.6013 46.0721 88.4389C46.2411 88.2765 46.3704 88.076 46.4599 87.8374L47.8668 88.0909C47.7541 88.5052 47.552 88.8681 47.2603 89.1797C46.9719 89.4879 46.609 89.7282 46.1715 89.9006C45.7373 90.0696 45.2418 90.1541 44.685 90.1541ZM52.4693 90.1491C51.8528 90.1491 51.3026 89.9917 50.8187 89.6768C50.3381 89.3587 49.9603 88.9062 49.6852 88.3196C49.4134 87.7296 49.2775 87.022 49.2775 86.1967C49.2775 85.3714 49.4151 84.6655 49.6902 84.0788C49.9686 83.4922 50.3497 83.0431 50.8336 82.7315C51.3175 82.42 51.8661 82.2642 52.4792 82.2642C52.9532 82.2642 53.3343 82.3438 53.6227 82.5028C53.9144 82.6586 54.1397 82.8409 54.2988 83.0497C54.4612 83.2585 54.5872 83.4425 54.6767 83.6016H54.7662V79.8182H56.2527V90H54.801V88.8118H54.6767C54.5872 88.9742 54.4579 89.1598 54.2889 89.3686C54.1232 89.5774 53.8945 89.7597 53.6028 89.9155C53.3111 90.0713 52.9333 90.1491 52.4693 90.1491ZM52.7974 88.8814C53.225 88.8814 53.5862 88.7687 53.8812 88.5433C54.1795 88.3146 54.4049 87.9981 54.5574 87.5938C54.7131 87.1894 54.791 86.7187 54.791 86.1818C54.791 85.6515 54.7148 85.1875 54.5623 84.7898C54.4099 84.392 54.1861 84.0821 53.8912 83.8601C53.5962 83.638 53.2316 83.527 52.7974 83.527C52.35 83.527 51.9771 83.643 51.6788 83.875C51.3805 84.107 51.1551 84.4235 51.0027 84.8246C50.8535 85.2256 50.7789 85.678 50.7789 86.1818C50.7789 86.6922 50.8552 87.1513 51.0076 87.5589C51.1601 87.9666 51.3855 88.2898 51.6838 88.5284C51.9854 88.7637 52.3566 88.8814 52.7974 88.8814ZM58.3743 90V82.3636H59.8608V90H58.3743ZM59.125 81.1854C58.8665 81.1854 58.6444 81.0992 58.4588 80.9268C58.2765 80.7512 58.1854 80.5424 58.1854 80.3004C58.1854 80.0552 58.2765 79.8464 58.4588 79.674C58.6444 79.4983 58.8665 79.4105 59.125 79.4105C59.3835 79.4105 59.6039 79.4983 59.7862 79.674C59.9718 79.8464 60.0646 80.0552 60.0646 80.3004C60.0646 80.5424 59.9718 80.7512 59.7862 80.9268C59.6039 81.0992 59.3835 81.1854 59.125 81.1854ZM65.4252 82.3636V83.5568H61.2541V82.3636H65.4252ZM62.3727 80.5341H63.8592V87.7578C63.8592 88.0462 63.9023 88.2633 63.9885 88.4091C64.0746 88.5516 64.1857 88.6494 64.3216 88.7024C64.4608 88.7521 64.6116 88.777 64.774 88.777C64.8933 88.777 64.9977 88.7687 65.0872 88.7521C65.1767 88.7356 65.2463 88.7223 65.296 88.7124L65.5645 89.9403C65.4783 89.9735 65.3556 90.0066 65.1966 90.0398C65.0375 90.0762 64.8386 90.0961 64.6 90.0994C64.2089 90.1061 63.8443 90.0365 63.5062 89.8906C63.1681 89.7448 62.8947 89.5194 62.6859 89.2145C62.4771 88.9096 62.3727 88.5268 62.3727 88.0661V80.5341ZM70.894 90V79.8182H72.4302V88.6776H77.0439V90H70.894ZM78.677 90V82.3636H80.1635V90H78.677ZM79.4277 81.1854C79.1692 81.1854 78.9471 81.0992 78.7615 80.9268C78.5792 80.7512 78.4881 80.5424 78.4881 80.3004C78.4881 80.0552 78.5792 79.8464 78.7615 79.674C78.9471 79.4983 79.1692 79.4105 79.4277 79.4105C79.6863 79.4105 79.9067 79.4983 80.089 79.674C80.2746 79.8464 80.3674 80.0552 80.3674 80.3004C80.3674 80.5424 80.2746 80.7512 80.089 80.9268C79.9067 81.0992 79.6863 81.1854 79.4277 81.1854ZM82.1634 90V82.3636H83.5902V83.6065H83.6847C83.8438 83.1856 84.1039 82.8575 84.4652 82.6222C84.8265 82.3835 85.259 82.2642 85.7628 82.2642C86.2732 82.2642 86.7008 82.3835 87.0455 82.6222C87.3935 82.8608 87.6503 83.1889 87.8161 83.6065H87.8956C88.0779 83.1989 88.3679 82.8741 88.7656 82.6321C89.1634 82.3868 89.6373 82.2642 90.1875 82.2642C90.8802 82.2642 91.4453 82.4813 91.8828 82.9155C92.3236 83.3497 92.544 84.0043 92.544 84.8793V90H91.0575V85.0185C91.0575 84.5014 90.9167 84.1269 90.6349 83.8949C90.3532 83.6629 90.0168 83.5469 89.6257 83.5469C89.1418 83.5469 88.7656 83.696 88.4972 83.9943C88.2287 84.2893 88.0945 84.6688 88.0945 85.1328V90H86.6129V84.924C86.6129 84.5097 86.4837 84.1766 86.2251 83.9247C85.9666 83.6728 85.6302 83.5469 85.2159 83.5469C84.9342 83.5469 84.674 83.6214 84.4354 83.7706C84.2 83.9164 84.0095 84.1203 83.8636 84.3821C83.7211 84.6439 83.6499 84.9472 83.6499 85.2919V90H82.1634ZM94.5364 90V82.3636H96.0229V90H94.5364ZM95.2871 81.1854C95.0286 81.1854 94.8065 81.0992 94.6209 80.9268C94.4386 80.7512 94.3475 80.5424 94.3475 80.3004C94.3475 80.0552 94.4386 79.8464 94.6209 79.674C94.8065 79.4983 95.0286 79.4105 95.2871 79.4105C95.5456 79.4105 95.766 79.4983 95.9483 79.674C96.1339 79.8464 96.2267 80.0552 96.2267 80.3004C96.2267 80.5424 96.1339 80.7512 95.9483 80.9268C95.766 81.0992 95.5456 81.1854 95.2871 81.1854ZM101.587 82.3636V83.5568H97.4162V82.3636H101.587ZM98.5348 80.5341H100.021V87.7578C100.021 88.0462 100.064 88.2633 100.151 88.4091C100.237 88.5516 100.348 88.6494 100.484 88.7024C100.623 88.7521 100.774 88.777 100.936 88.777C101.055 88.777 101.16 88.7687 101.249 88.7521C101.339 88.7356 101.408 88.7223 101.458 88.7124L101.727 89.9403C101.64 89.9735 101.518 90.0066 101.359 90.0398C101.2 90.0762 101.001 90.0961 100.762 90.0994C100.371 90.1061 100.006 90.0365 99.6683 89.8906C99.3303 89.7448 99.0568 89.5194 98.848 89.2145C98.6392 88.9096 98.5348 88.5268 98.5348 88.0661V80.5341Z" fill="#212529"/>
<path d="M243.675 92.4545V77.9091H244.607V92.4545H243.675ZM246.362 82.5625C246.309 82.0663 246.086 81.6799 245.692 81.4034C245.302 81.1269 244.794 80.9886 244.169 80.9886C243.73 80.9886 243.353 81.0549 243.038 81.1875C242.724 81.3201 242.483 81.5 242.317 81.7273C242.15 81.9545 242.065 82.214 242.061 82.5057C242.061 82.7481 242.116 82.9583 242.226 83.1364C242.339 83.3144 242.493 83.4659 242.686 83.5909C242.879 83.7121 243.093 83.8144 243.328 83.8977C243.563 83.9811 243.8 84.0511 244.038 84.108L245.129 84.3807C245.569 84.483 245.991 84.6212 246.396 84.7955C246.805 84.9697 247.171 85.1894 247.493 85.4545C247.819 85.7197 248.076 86.0398 248.266 86.4148C248.455 86.7898 248.55 87.2292 248.55 87.733C248.55 88.4148 248.375 89.0152 248.027 89.5341C247.679 90.0492 247.175 90.4527 246.516 90.7443C245.86 91.0322 245.067 91.1761 244.135 91.1761C243.23 91.1761 242.444 91.036 241.777 90.7557C241.114 90.4754 240.595 90.0663 240.22 89.5284C239.849 88.9905 239.648 88.3352 239.618 87.5625H241.692C241.722 87.9678 241.847 88.3049 242.067 88.5739C242.286 88.8428 242.572 89.0436 242.925 89.1761C243.281 89.3087 243.679 89.375 244.118 89.375C244.576 89.375 244.978 89.3068 245.322 89.1705C245.671 89.0303 245.944 88.8371 246.141 88.5909C246.338 88.3409 246.438 88.0492 246.442 87.7159C246.438 87.4129 246.349 87.1629 246.175 86.9659C246 86.7652 245.756 86.5985 245.442 86.4659C245.131 86.3295 244.768 86.2083 244.351 86.1023L243.027 85.7614C242.069 85.5152 241.311 85.142 240.754 84.642C240.201 84.1383 239.925 83.4697 239.925 82.6364C239.925 81.9508 240.11 81.3504 240.482 80.8352C240.857 80.3201 241.366 79.9205 242.01 79.6364C242.654 79.3485 243.383 79.2045 244.197 79.2045C245.023 79.2045 245.747 79.3485 246.368 79.6364C246.993 79.9205 247.483 80.3163 247.839 80.8239C248.196 81.3277 248.379 81.9072 248.391 82.5625H246.362ZM255.048 79.3636V91H252.94V81.4148H252.872L250.151 83.1534V81.2216L253.043 79.3636H255.048ZM262.304 91.2216C261.368 91.2216 260.565 90.9848 259.895 90.5114C259.228 90.0341 258.715 89.3466 258.355 88.4489C257.999 87.5473 257.821 86.4621 257.821 85.1932C257.825 83.9242 258.005 82.8447 258.361 81.9545C258.721 81.0606 259.234 80.3788 259.901 79.9091C260.571 79.4394 261.372 79.2045 262.304 79.2045C263.236 79.2045 264.037 79.4394 264.707 79.9091C265.378 80.3788 265.891 81.0606 266.247 81.9545C266.607 82.8485 266.787 83.928 266.787 85.1932C266.787 86.4659 266.607 87.553 266.247 88.4545C265.891 89.3523 265.378 90.0379 264.707 90.5114C264.041 90.9848 263.24 91.2216 262.304 91.2216ZM262.304 89.4432C263.031 89.4432 263.605 89.0852 264.026 88.3693C264.45 87.6496 264.662 86.5909 264.662 85.1932C264.662 84.2689 264.565 83.4924 264.372 82.8636C264.179 82.2348 263.906 81.7614 263.554 81.4432C263.202 81.1212 262.785 80.9602 262.304 80.9602C261.58 80.9602 261.009 81.3201 260.588 82.0398C260.168 82.7557 259.955 83.8068 259.952 85.1932C259.948 86.1212 260.041 86.9015 260.23 87.5341C260.423 88.1667 260.696 88.6439 261.048 88.9659C261.401 89.2841 261.819 89.4432 262.304 89.4432ZM270.659 89.4091L270.585 90.0341C270.532 90.5114 270.438 90.9962 270.301 91.4886C270.169 91.9848 270.028 92.4413 269.881 92.858C269.733 93.2746 269.614 93.6023 269.523 93.8409H268.136C268.189 93.6098 268.261 93.2955 268.352 92.8977C268.447 92.5 268.538 92.053 268.625 91.5568C268.712 91.0606 268.771 90.5568 268.801 90.0455L268.841 89.4091H270.659ZM276.788 91.2216C275.853 91.2216 275.05 90.9848 274.379 90.5114C273.713 90.0341 273.199 89.3466 272.839 88.4489C272.483 87.5473 272.305 86.4621 272.305 85.1932C272.309 83.9242 272.489 82.8447 272.845 81.9545C273.205 81.0606 273.718 80.3788 274.385 79.9091C275.055 79.4394 275.857 79.2045 276.788 79.2045C277.72 79.2045 278.521 79.4394 279.192 79.9091C279.862 80.3788 280.375 81.0606 280.732 81.9545C281.091 82.8485 281.271 83.928 281.271 85.1932C281.271 86.4659 281.091 87.553 280.732 88.4545C280.375 89.3523 279.862 90.0379 279.192 90.5114C278.525 90.9848 277.724 91.2216 276.788 91.2216ZM276.788 89.4432C277.516 89.4432 278.089 89.0852 278.51 88.3693C278.934 87.6496 279.146 86.5909 279.146 85.1932C279.146 84.2689 279.05 83.4924 278.857 82.8636C278.663 82.2348 278.391 81.7614 278.038 81.4432C277.686 81.1212 277.269 80.9602 276.788 80.9602C276.065 80.9602 275.493 81.3201 275.072 82.0398C274.652 82.7557 274.44 83.8068 274.436 85.1932C274.432 86.1212 274.525 86.9015 274.714 87.5341C274.908 88.1667 275.18 88.6439 275.533 88.9659C275.885 89.2841 276.304 89.4432 276.788 89.4432ZM287.46 91.2216C286.525 91.2216 285.722 90.9848 285.051 90.5114C284.384 90.0341 283.871 89.3466 283.511 88.4489C283.155 87.5473 282.977 86.4621 282.977 85.1932C282.981 83.9242 283.161 82.8447 283.517 81.9545C283.877 81.0606 284.39 80.3788 285.057 79.9091C285.727 79.4394 286.528 79.2045 287.46 79.2045C288.392 79.2045 289.193 79.4394 289.864 79.9091C290.534 80.3788 291.047 81.0606 291.403 81.9545C291.763 82.8485 291.943 83.928 291.943 85.1932C291.943 86.4659 291.763 87.553 291.403 88.4545C291.047 89.3523 290.534 90.0379 289.864 90.5114C289.197 90.9848 288.396 91.2216 287.46 91.2216ZM287.46 89.4432C288.188 89.4432 288.761 89.0852 289.182 88.3693C289.606 87.6496 289.818 86.5909 289.818 85.1932C289.818 84.2689 289.722 83.4924 289.528 82.8636C289.335 82.2348 289.063 81.7614 288.71 81.4432C288.358 81.1212 287.941 80.9602 287.46 80.9602C286.737 80.9602 286.165 81.3201 285.744 82.0398C285.324 82.7557 285.112 83.8068 285.108 85.1932C285.104 86.1212 285.197 86.9015 285.386 87.5341C285.58 88.1667 285.852 88.6439 286.205 88.9659C286.557 89.2841 286.975 89.4432 287.46 89.4432ZM298.132 91.2216C297.196 91.2216 296.393 90.9848 295.723 90.5114C295.056 90.0341 294.543 89.3466 294.183 88.4489C293.827 87.5473 293.649 86.4621 293.649 85.1932C293.653 83.9242 293.833 82.8447 294.189 81.9545C294.549 81.0606 295.062 80.3788 295.729 79.9091C296.399 79.4394 297.2 79.2045 298.132 79.2045C299.064 79.2045 299.865 79.4394 300.536 79.9091C301.206 80.3788 301.719 81.0606 302.075 81.9545C302.435 82.8485 302.615 83.928 302.615 85.1932C302.615 86.4659 302.435 87.553 302.075 88.4545C301.719 89.3523 301.206 90.0379 300.536 90.5114C299.869 90.9848 299.068 91.2216 298.132 91.2216ZM298.132 89.4432C298.859 89.4432 299.433 89.0852 299.854 88.3693C300.278 87.6496 300.49 86.5909 300.49 85.1932C300.49 84.2689 300.393 83.4924 300.2 82.8636C300.007 82.2348 299.734 81.7614 299.382 81.4432C299.03 81.1212 298.613 80.9602 298.132 80.9602C297.409 80.9602 296.837 81.3201 296.416 82.0398C295.996 82.7557 295.784 83.8068 295.78 85.1932C295.776 86.1212 295.869 86.9015 296.058 87.5341C296.251 88.1667 296.524 88.6439 296.876 88.9659C297.229 89.2841 297.647 89.4432 298.132 89.4432Z" fill="#212529"/>
<path d="M305.793 91.125C305.448 91.125 305.152 91.0038 304.906 90.7614C304.66 90.5189 304.539 90.2235 304.543 89.875C304.539 89.5341 304.66 89.2424 304.906 89C305.152 88.7576 305.448 88.6364 305.793 88.6364C306.126 88.6364 306.416 88.7576 306.662 89C306.912 89.2424 307.039 89.5341 307.043 89.875C307.039 90.1061 306.978 90.3163 306.861 90.5057C306.747 90.6951 306.596 90.8466 306.406 90.9602C306.221 91.0701 306.016 91.125 305.793 91.125ZM312.991 91.2216C312.056 91.2216 311.253 90.9848 310.582 90.5114C309.916 90.0341 309.402 89.3466 309.043 88.4489C308.687 87.5473 308.509 86.4621 308.509 85.1932C308.512 83.9242 308.692 82.8447 309.048 81.9545C309.408 81.0606 309.921 80.3788 310.588 79.9091C311.259 79.4394 312.06 79.2045 312.991 79.2045C313.923 79.2045 314.724 79.4394 315.395 79.9091C316.065 80.3788 316.579 81.0606 316.935 81.9545C317.295 82.8485 317.474 83.928 317.474 85.1932C317.474 86.4659 317.295 87.553 316.935 88.4545C316.579 89.3523 316.065 90.0379 315.395 90.5114C314.728 90.9848 313.927 91.2216 312.991 91.2216ZM312.991 89.4432C313.719 89.4432 314.293 89.0852 314.713 88.3693C315.137 87.6496 315.349 86.5909 315.349 85.1932C315.349 84.2689 315.253 83.4924 315.06 82.8636C314.866 82.2348 314.594 81.7614 314.241 81.4432C313.889 81.1212 313.473 80.9602 312.991 80.9602C312.268 80.9602 311.696 81.3201 311.276 82.0398C310.855 82.7557 310.643 83.8068 310.639 85.1932C310.635 86.1212 310.728 86.9015 310.918 87.5341C311.111 88.1667 311.384 88.6439 311.736 88.9659C312.088 89.2841 312.507 89.4432 312.991 89.4432ZM323.663 91.2216C322.728 91.2216 321.925 90.9848 321.254 90.5114C320.588 90.0341 320.074 89.3466 319.714 88.4489C319.358 87.5473 319.18 86.4621 319.18 85.1932C319.184 83.9242 319.364 82.8447 319.72 81.9545C320.08 81.0606 320.593 80.3788 321.26 79.9091C321.93 79.4394 322.732 79.2045 323.663 79.2045C324.595 79.2045 325.396 79.4394 326.067 79.9091C326.737 80.3788 327.25 81.0606 327.607 81.9545C327.966 82.8485 328.146 83.928 328.146 85.1932C328.146 86.4659 327.966 87.553 327.607 88.4545C327.25 89.3523 326.737 90.0379 326.067 90.5114C325.4 90.9848 324.599 91.2216 323.663 91.2216ZM323.663 89.4432C324.391 89.4432 324.964 89.0852 325.385 88.3693C325.809 87.6496 326.021 86.5909 326.021 85.1932C326.021 84.2689 325.925 83.4924 325.732 82.8636C325.538 82.2348 325.266 81.7614 324.913 81.4432C324.561 81.1212 324.144 80.9602 323.663 80.9602C322.94 80.9602 322.368 81.3201 321.947 82.0398C321.527 82.7557 321.315 83.8068 321.311 85.1932C321.307 86.1212 321.4 86.9015 321.589 87.5341C321.783 88.1667 322.055 88.6439 322.408 88.9659C322.76 89.2841 323.179 89.4432 323.663 89.4432Z" fill="#CED4DA"/>
<path d="M25 133C25 130.791 26.7909 129 29 129H225V137H29C26.7909 137 25 135.209 25 133V133Z" fill="#D98C33"/>
<path d="M227 129H325C327.209 129 329 130.791 329 133V133C329 135.209 327.209 137 325 137H227V129Z" fill="#F7E8D6"/>
<rect x="1" y="1" width="352" height="160" rx="24" stroke="#F1F3F5"/>
</svg>
