<svg xmlns="http://www.w3.org/2000/svg" viewBox="0 0 1978.46 294.35"><defs><style>.cls-1{fill:#300058;}</style></defs><title>dark-texture-tiger</title><g id="Layer_2" data-name="Layer 2"><g id="Layer_1-2" data-name="Layer 1"><path class="cls-1" d="M118.88,268.67c9.35,3,18.57,1.67,28,1.13a139.56,139.56,0,0,1,25.78.41c19,2.44,36.63-.91,53-10.5,10.33-6,20.43-12.5,30.49-19,15.58-10.07,32.79-12.8,50.84-11.33,14.78,1.2,29.51,2.25,44.18-.88a7.83,7.83,0,0,1,2.67-.23c6.63,1.07,13-.5,19.18-2.39,16.56-5.09,33.07-6.38,49.94-1.52a210.17,210.17,0,0,0,21.59,4.74c4.49.79,9.12.79,13.69,1.19,3.41.29,7,0,10.18,1.1,9.69,3.28,19.19,7.14,28.82,10.64a77.56,77.56,0,0,0,7.77,2l.27-.9-6.52-4.25-1.52-.77a.27.27,0,0,0-.36-.19l-1.62-.85-2.74-1.46-1-.39-2.29-1-1.1-.44c-.27-.18-.54-.36-.8-.55l-2-1.35-1.74-1.51-1.59-1.05-1.27-.87-1.59-.88-4.46-3a7.28,7.28,0,0,1,1.57-.57,82.86,82.86,0,0,1,25.59,4.49c2.8,1,5.63,1.9,8.44,2.85l1.86.78.08.05,11.64,5.23.57-1.23-11.81-5.51a.47.47,0,0,0-.47-.27l-.23-.07.23.07-.55-.37-3.76-2-.53-.39c-2.24-1.27-4.35-3-6.76-3.71-4.78-1.38-9.73-2.17-14.62-3.19-5.77-1.21-11.68-1.94-17.28-3.69-10.95-3.43-21.68-7.56-32.59-11.1-3.5-1.14-7.3-1.35-11-2a.38.38,0,0,0-.43-.23h0l-1.13-.33-1.29-.07-4,.37a.45.45,0,0,0-.55.21l-1.12,1.23-.06.57.54-.18,2.48-.24,2.28.23.1,0,.92.14-.06,0,1.2.25a.2.2,0,0,0,.33.11l.95.19,1.38.35,1.13.3a.21.21,0,0,0,.32.14l1.11.34a.2.2,0,0,0,.31.14l1.17.39.21.12,1.52.67,2.39,1.15,1.11.46.8.49,1.11.46.78.5,1.13.47.77.49,1.14.48,2.66,1.42,1.09.38,5.09,2,2.43.82,8.41,3.85c-7.35,1.93-14.07.73-20.61-2a103.11,103.11,0,0,0-30.12-7.85c-5.95-.54-12.11-.87-18,.06-15.8,2.51-31.46,5.88-47.23,8.58-3.72.63-7.66,0-12.32-.13l19-11.23a3.38,3.38,0,0,1,.63-.23A102.05,102.05,0,0,1,381,203.1c9.25-.5,18.84.3,27.53-3.41,6.76-2.9,13.05-2,19.63-.33,9.58,2.41,19.19,4.72,28.79,7.08l5.22,1.5.35-1-5.62-2.31h0l-1.49-.64c-4-1.82-7.83-3.89-11.9-5.4-4.71-1.73-9.62-2.93-14.42-4.42-6.94-2.17-13.88-4.05-21.28-4.09-9.17-.06-18.34-.79-27.52-.85a84,84,0,0,0-14.33,1.2c-7.62,1.26-14.44,4.87-20.85,8.92-9.57,6-20,9.34-31,11.2-11.47,1.95-23,3.59-34.32,6.34A107.39,107.39,0,0,0,258.6,225c-9.9,4.82-18.24,12-27,18.72-16.17,12.48-34.71,14.06-54.32,10.23a65.68,65.68,0,0,0-19.05-.48c-5,.52-9.79,2.91-14.73,4.27a18.79,18.79,0,0,1-6.91,1c-6.2-.75-12.38-1.83-18.51-3.06-6.36-1.28-12.59-3.26-19-4.3-10.68-1.73-21.24-3.77-31.39-7.61-.32-.12-.76.07-2.14.23,12.25,9.25,26.67,11.84,39.05,18.8a13.58,13.58,0,0,1-4.87.1c-16.31-2.53-35-.7-51.07,2.8,1.09,2.4,4.48,2.2,7.12,2,8.73-.66,17.24,2.52,26,2.26,8.37-.26,16.78-.93,25.2-1.24C111,268.59,115.32,267.51,118.88,268.67Z"/><path class="cls-1" d="M833.72,101.58q1.88,1,3.78,2.28c2.44,1.62,29.68,15.71,29.7,15.55.37-2.15-2.07-3.6-4.07-4.49-12-5.36-21.88-14.24-32.18-22.22C821,85,809,80.2,799.8,71.64a73.73,73.73,0,0,0-7.77-6.8,39.51,39.51,0,0,0-10.51-5c-16.28-5.3-34-4.67-50.38-9.56-15.48-4.62-29.08-14-44.6-18.45-15.09-4.35-28.43-3.11-44.07-3-7.4.05-14.34,1.93-21.28,4.09-4.8,1.5-9.71,2.7-14.41,4.43-4.08,1.5-7.95,3.57-11.91,5.39l-1.49.65-5.64,2.32.35,1,5.22-1.51c9.6-2.35,19.21-4.67,28.79-7.07,6.59-1.65,12.87-2.57,19.63.32,8.69,3.72,18.28,2.92,27.53,3.41a102.7,102.7,0,0,1,28.48,5.69,3.41,3.41,0,0,1,.63.24l19,11.22c-9.59-5.66-32.63,7.15-40.64,11.92,2.31-1.38,12.22-.13,15.48-.58,4.6-.63,9.3-1.32,13.85-2.23,11.74-2.35,22.93-5.72,35.08-4.94a60,60,0,0,1,28.46,9.37c-2.57,3.4-7.67,2.87-11.93,2.72s-9.77,1.7-9.67,6c22.9-5.87,44.36,1.93,65,11.3C820.4,95.89,827,97.85,833.72,101.58Z"/><path class="cls-1" d="M1009.36,95.48c-1.47-3.94-26.59.32-30,1.07-9.95,2.22-18.82,3.6-28.9,5.16a13.19,13.19,0,0,1-4.88-.1c12.38-7,26.8-9.54,39-18.8-1.38-.15-1.82-.34-2.14-.22-10.15,3.83-20.71,5.88-31.39,7.61-6.39,1-12.62,3-19,4.29-6.13,1.24-12.31,2.31-18.51,3.07a18.6,18.6,0,0,1-6.91-1c-17.66-4.85-39.27,0-57.29,1.09-.93,1.09.84,2.41,2.23,2.74,13.36,3.16,26.81,6.37,40.53,7.51,12.5,1,27.07,3.51,39.2-.44,3.56-1.15,7.87-.07,11.84.07s7.75.36,11.63.6a106.82,106.82,0,0,0,26-1.39c8.51-1.64,16.81-5,25.08-7.54C1007.77,98.65,1010,97.26,1009.36,95.48Z"/><path class="cls-1" d="M148.63,96.61c1.68.21,3.35.45,5,.75,7.21,1.33,13.27,5.8,21,4.68a46.43,46.43,0,0,1,19.92,1.77c4,1.18,8.11,2.32,13.27,3.8l-.83-1.72c9.13,1.15,18.16,2.83,27.25,3.29,12.69.65,24.75-1.19,35.66-9.09A143.74,143.74,0,0,1,296.55,84.8a126.2,126.2,0,0,1,43.3-10.62l1.81-.75-.18-.74-2.09.06c-3.35-.56-6.7-1.58-10.06-1.6a145.14,145.14,0,0,0-19.68.86c-9.22,1.21-17,6-24.47,11.28a14.15,14.15,0,0,1-7.37,2.47c-4.76.12-9.6-1.18-14.31-.76-8.58.76-17,.74-25.45-1.15-8.9-2-16.81,2.18-24.82,5.18-.12,0-.13.4-.37,1.18a17.7,17.7,0,0,0,3.27.43c7.14-.4,14.21-.73,21.37.51,7.69,1.33,15.47,2.37,23.32.09,2.39-.69,5.2,0,7.82.09.13.44.25.89.38,1.33-4.81,2.51-9.35,5.92-14.46,7.37-14.4,4.1-29.1,1.6-43.7.78-3-.16-6-.69-9-.57a4,4,0,0,1-3.83-1.77c-2.43-3-4.78-6.69-9.2-6.63-3.66.06-7.3,1-10.94,1.57-4.77.78-9.5,1.86-14.29,2.31-2.59.24-5.28-.56-7.92-.9C169.33,86.6,182.5,78.34,197.81,75A89.33,89.33,0,0,1,213,73.15c9.38-.44,18.78-.5,28.17-.69a41.37,41.37,0,0,1,4.31.14c5.84.52,11.67,1.19,17.52,1.63,7.26.55,13.81-1.92,20.23-5a87.68,87.68,0,0,1,26.55-8.14c17.06-2.18,33.94-.9,50.85,1.77,13.54,2.13,27.2,5.07,40.65-.68,4-1.72,9.13-1.22,12.05-5.59-2.17.07-4.22.11-6.28.19-3.1.13-6.29-.16-9.27.49-6.63,1.46-13.16.76-19.65-.34-6.17-1.05-12.25-2.66-18.37-4.07-1.07-.25-2.07-.8-3.13-1.14A36.78,36.78,0,0,0,351,50c-3.4-.54-6.88-.6-10.28-1.16a79.56,79.56,0,0,0-32.33,1.38c-12.63,3.09-24.1,9-35.75,14.44-9,4.2-18.34,3.8-27.78,2.71-4.76-.56-9.5-1.51-14.28-1.73-2.13-.09-5.69.63-6.19,1.92-.92,2.39-2,2-3.62,1.74-9.47-1.19-18.93-2-28.48-.56-4,.57-8.07.26-12.07.7-8.84,1-18.64,3.34-25.45,9.19-4.46,3.83-8.67,8.3-14.24,10.21-3.39,1.16-7.74,1.81-8.93,5.2C137.25,95.58,143,95.92,148.63,96.61Z"/><path class="cls-1" d="M244.91,29c8.68,4.79,17.82,7,27.48,8a69.62,69.62,0,0,1,19.45,4.88,42.26,42.26,0,0,0,14.07,2.65c7,.31,14.11-.2,21.17-.39,1.86,0,3.72-.23,5.58-.35l.66-1.11c-1.1-1-2.19-2.78-3.32-2.81-8.2-.21-16.33.23-24.5-1.89-7.58-2-15.19-3.44-22.15-7.32a17.36,17.36,0,0,0-7.57-2.05c-4.41-.18-8.85.51-13.27.44a25.74,25.74,0,0,1-7.82-1.39c-7.89-2.75-15.16-7.31-23.74-8.07-.34,0-.66-.34-1.56-.84a32.82,32.82,0,0,1,3.6-1.43,32.3,32.3,0,0,1,17.06.53,74.61,74.61,0,0,0,23.72,2.82c7.19-.25,14.56-.72,21.12,3.47,7.09,4.54,15,4,23,2.94l-24.4-9.81c0-.43.07-.85.1-1.28,1.73-.85,3.48-2.43,5.2-2.4a102.89,102.89,0,0,1,17,1.31,229.65,229.65,0,0,1,24.68,6A53.87,53.87,0,0,0,360,23.1c2.07-.13,4.66.22,6.1-.87,5.58-4.22,10.65-2.84,16.29-.11a36.47,36.47,0,0,0,13,3.91c7.79.54,15.66-.05,23.5-.17l5.17.33-1.9-1.9-4.31-.56c-4.65-1-9.27-2.48-14-2.82a43.27,43.27,0,0,1-20.46-6.84,25.18,25.18,0,0,0-16.71-4c-8.8,1.11-17.54,1.81-26.4.83-6.54-.72-13.13-1-20.39-1.52,5.86-3.49,11.19-5.61,17.5-5,4,.38,8-.11,12.06-.34a24.14,24.14,0,0,0,4-1c-.85-.6-1.08-.88-1.36-.94-12-2.57-23.78-3.43-35.63,1.29a35.23,35.23,0,0,1-14.11,2.05c-6.29-.25-12.42.11-18.2,2.32-11.4,4.36-22.89,4.79-34.69,2.27-17.62-3.78-36.18,2.46-54.2-1.4-7.78-1.67-16.6-4.47-23.11.11,0,3.5,7.27,1,8.64,4.23.84,2-1.47,3.76-3.43,4.61-29.44,12.8-62.86,10.71-95,10.22-1.87,0-4.44.64-4.26,2.51,29.13,5.07,58.63-.1,87.58-3.93C189.9,23.18,222.47,16.61,244.91,29Z"/><path class="cls-1" d="M538.39,140.56c8.68,4.78,17.82,7,27.48,8a69,69,0,0,1,19.46,4.88,42.15,42.15,0,0,0,14.06,2.64c7,.31,14.11-.19,21.17-.39,1.86,0,3.72-.22,5.59-.34l.66-1.12c-1.11-1-2.2-2.77-3.33-2.8-8.2-.22-16.33.23-24.5-1.9-7.58-2-15.19-3.44-22.15-7.32a17.46,17.46,0,0,0-7.56-2.05c-4.41-.18-8.85.52-13.27.44a25,25,0,0,1-7.82-1.39c-7.89-2.75-15.17-7.31-23.75-8.06-.34,0-.65-.35-1.56-.85a32.82,32.82,0,0,1,3.6-1.43,32.3,32.3,0,0,1,17.06.53,74.35,74.35,0,0,0,23.72,2.82c7.19-.24,14.56-.72,21.12,3.48,7.1,4.53,15,4,23,2.93L587,128.86c0-.42.07-.85.1-1.28,1.74-.84,3.48-2.42,5.2-2.4a101.74,101.74,0,0,1,17,1.32A229.6,229.6,0,0,1,634,132.44a53.9,53.9,0,0,0,19.55,2.23c2.07-.13,4.67.22,6.1-.87,5.59-4.22,10.66-2.84,16.3-.1a36.62,36.62,0,0,0,13,3.91c7.79.53,15.66-.06,23.5-.18l5.18.33-1.91-1.9-4.31-.56c-4.65-1-9.26-2.47-14-2.81a43.52,43.52,0,0,1-20.46-6.84,25.11,25.11,0,0,0-16.7-4c-8.8,1.1-17.54,1.8-26.41.82-6.54-.72-13.13-1-20.39-1.52,5.86-3.48,11.19-5.61,17.51-5,4,.38,8-.11,12.06-.34a24.38,24.38,0,0,0,4-1c-.85-.6-1.09-.88-1.37-.94-12-2.56-23.78-3.43-35.63,1.3A35.41,35.41,0,0,1,595.91,117c-6.29-.26-12.42.1-18.2,2.31-11.39,4.36-22.89,4.8-34.68,2.27a44.63,44.63,0,0,0-21.62,1.11,17.58,17.58,0,0,1-3.18.31l-10.94,11a20.6,20.6,0,0,0,3.21.35A52.2,52.2,0,0,1,538.39,140.56Z"/><path class="cls-1" d="M31.25,80.29c8.78,4.59,18,6.62,27.65,7.42a69.64,69.64,0,0,1,19.56,4.44,42.21,42.21,0,0,0,14.12,2.33c7,.15,14.1-.51,21.15-.86,1.87-.1,3.72-.32,5.58-.48L120,92c-1.13-1-2.26-2.72-3.39-2.73-8.2,0-16.32.6-24.54-1.34-7.62-1.8-15.26-3.1-22.31-6.82a17.39,17.39,0,0,0-7.61-1.88c-4.41-.08-8.83.71-13.25.74A25.48,25.48,0,0,1,41,78.77c-8-2.58-15.32-7-23.92-7.53-.34,0-.67-.33-1.58-.82a33.59,33.59,0,0,1,3.57-1.5,32.28,32.28,0,0,1,17.06.14,74.59,74.59,0,0,0,23.78,2.29c7.19-.41,14.54-1,21.19,3,7.2,4.37,15.05,3.69,23.05,2.42L79.54,67.51c0-.43,0-.86.07-1.28,1.72-.89,3.42-2.51,5.14-2.52a102,102,0,0,1,17,.93A230.26,230.26,0,0,1,126.61,70a54.17,54.17,0,0,0,19.59,1.79c2.07-.18,4.67.11,6.09-1,5.48-4.34,10.58-3.08,16.28-.47A36.63,36.63,0,0,0,181.65,74c7.8.36,15.66-.41,23.49-.7l5.18.21-1.94-1.86-4.33-.46c-4.67-.87-9.31-2.27-14-2.5a43.42,43.42,0,0,1-20.6-6.38,25.13,25.13,0,0,0-16.8-3.62c-8.77,1.3-17.49,2.2-26.38,1.42-6.55-.58-13.14-.7-20.41-1.07,5.77-3.61,11.06-5.85,17.38-5.39,4,.29,8-.29,12.05-.61a24.17,24.17,0,0,0,4-1.1c-.86-.58-1.1-.86-1.39-.91-12-2.3-23.85-2.89-35.59,2.1a35.23,35.23,0,0,1-14.06,2.36c-6.29-.11-12.41.39-18.14,2.73-11.3,4.61-22.78,5.3-34.63,3a44.67,44.67,0,0,0-21.58,1.6,19.6,19.6,0,0,1-3.18.39L0,74.39a20.7,20.7,0,0,0,3.22.28A52.31,52.31,0,0,1,31.25,80.29Z"/><path class="cls-1" d="M953.69,150.07l-2,.82c-10.25,4.16-24.95,6-36,7-9.65.9-25.2-1.42-33.1-7.54-8.66-6.72-17.71-13-26-20.1-12.61-10.79-27-13.36-42.88-11.29-8.08,1.06-16.14,2.17-24.39.73-9.68-1.69-19.45-3-29.36-1.61-2.26.31-4.66-.26-7-.48-3.4-.33-6.79-.71-10.18-1.07L747,120.8a9.21,9.21,0,0,1,2.56.41c5.07,2.37,10.38,2.53,15.8,2a16.64,16.64,0,0,1,2-.07c.19,0,.37.18,1.11.58-12.51,7.74-20.12,11.48-35.39,10.85a37.12,37.12,0,0,0,24.77,1.87c2.61-.71,5.14-1.72,7.75-2.47,11.6-3.34,24.72-2,36.57-.8a7.29,7.29,0,0,1,3.83,1.19c7.94,6.67,16.38,12.23,26.59,15,6.22,1.7,12.11,4.57,18.21,6.76,4.19,1.51,8.45,2.86,12.75,4.05,1.35.37,2.91,0,4.37-.06,0-.29.1-.57.16-.86-2-1.13-4.09-2.13-6-3.4a111.73,111.73,0,0,0-32.89-14.74c-6.59-1.84-12.82-5-19.21-7.51,9.35-2.94,18.63-2.29,27.83-1.44a23.37,23.37,0,0,1,9.3,3.31c9.69,5.74,19.19,11.8,28.72,17.79a10.18,10.18,0,0,1,1.93,2.18l0,.06h.07l0-.09a11.8,11.8,0,0,0,2,1.58c6.94,3.37,13.78,7,20.91,9.91,6.81,2.77,14,4.5,21.15.88,8.91-4.53,18.94-3.84,27.77-7.54,2.9-1.21,5.61-3.75,8.16-5.55,1.94-1.37,9.08-8.48,11.07-8.42C963.61,146.07,958.59,148.06,953.69,150.07Z"/><path class="cls-1" d="M136.42,118.7a25.5,25.5,0,0,1,5.74,1c11.14,3.27,22.85,5.63,34.49,5.75a49.48,49.48,0,0,1,26.46,7.68,28.5,28.5,0,0,1,3,2.53l-.43.62-15-.45-.29,1.07a18.11,18.11,0,0,0,3.16,1.48c7.17,1.75,14.38,3.34,21.54,5.13,5.31,1.33,10.53,3.05,15.87,4.26,3.87.87,8,2,11.79,1.54a50.55,50.55,0,0,0,15.17-4c10.49-4.76,20.74-5.91,31.38-.81a34.57,34.57,0,0,0,15.69,3c5.81-.06,11.63.53,17.45.78,2.64.12,5.28.09,7.92.12l2.59,1.61-12.91,3.67c1.18.56,1.95,1.22,2.75,1.26,7.94.31,15.94,1.21,23.8.53a40.61,40.61,0,0,0,16.42-5c6-3.49,11-8.77,16.57-13.09,6-4.65,11.92-9.75,20.42-8.58,7.21,1,13.94-.92,20.75-3,7-2.18,14.27-3.65,21.43-5.39a5.5,5.5,0,0,1,2.32,0c5.92,1.22,11.85,2.4,17.74,3.77,8.54,2,17.53,3.18,26.19,1.16A31.25,31.25,0,0,0,500,120.16c3.31-2.47,6.35-3,10.54-2.94q12.6.06,25.19.9c3.78.25,7.72.53,11.24-.88,0-1-1.12-1.54-2-1.88-9.62-3.51-19.36-7-29.53-8.6-9.89-1.51-19.53.27-29.44.19-5.64,0-11.11-2.8-16.92-1.4,8.49,5.19,17.51,8,27.7,6.57A62.32,62.32,0,0,1,488,118.5c-5.15,3-10.85,1.74-16.08.75-2.56-.48-5-2.19-8-2.39-5-.33-10.12-.63-14.85-2A38.8,38.8,0,0,0,422.17,116c-5.76,2.38-11.4,2.38-17.39.88-3.83-1-8.44-2.3-11.78-1-7.67,2.93-15.2,2.35-22.43.28-7.43-2.13-13.26,0-18.74,4.17-9,6.91-18.46,12.07-30.17,12.46-3.33.12-6.61,1.89-9.92,2.9,12.54,3.35,25,4.4,35.93-3,8.06-5.43,16.88-7.47,26-9.15a33.5,33.5,0,0,1,4.77-.07c-4.75,4.75-9,8.62-12.78,12.86-6.67,7.43-14.67,11.56-24.81,11.06l-9.34-.35a76.29,76.29,0,0,1-7.88-.91c-6.66-1.43-13.21-3.41-19.91-4.56-5.67-1-9.83-4.09-14-7.38,9.76-3.47,19.31-6.94,28.93-10.21a20.19,20.19,0,0,1,7.23-1.2,28.6,28.6,0,0,0,15.69-4.1,68.5,68.5,0,0,1,9.08-4.31c5.07-1.92,10.26-3.54,15.4-5.28-.36-.4-.71-.81-1.07-1.22l-3.18.48-1.05.12-1,.13-1.36.41c-7.47,1.14-14.93,2.37-22.41,3.39-2.3.32-4.69-.06-7,.12-4.06.33-8.3.2-12.09,1.42-6.69,2.14-13.08,5.21-19.64,7.77a31.34,31.34,0,0,1-6.76,1.9,64.61,64.61,0,0,0-21.29,6.85,121,121,0,0,1-17.82,7.79,31.3,31.3,0,0,1-12.8,1.87c-7-.72-13.8-2.63-20.66-4.15-8.46-1.87-13.52-8.95-20-13.7-5.33-3.9-10.53-5.94-17-5.32-13.1,1.25-26.14-.79-39-2.92-10.41-1.71-21.81-5-31.77.09-4.42,2.24-8.28,5.72-13.09,6.88-4,1-8.2.22-12.28.65-3.66.38-7.15,1.68-10.68,2.73a76.11,76.11,0,0,1-26.76,2.93c-1.09.91.87,2.28,2.3,2.33,19.58.7,39.54,1.36,58.41-3.92C117.73,123,126.78,118.17,136.42,118.7Z"/><path class="cls-1" d="M781.24,194.51a62.05,62.05,0,0,0,7.71,1.81c10.26,1.64,20.9-1,30.28-5.08,5.55-2.41,10.94-5.34,16.82-6.76,15.89-3.86,30,1.94,45,6.32a141.12,141.12,0,0,0,37.26,5.45l41.13.53c4.62.06,9.39.09,13.67-1.65-.82-3.27-5.34-3.46-8.68-3a141.14,141.14,0,0,1-52.7-3.24c-1.06-.28-2.29-.71-2.61-1.77-.54-1.77,1.85-2.9,3.69-3.17,38.12-5.76,77-1.68,115.48-4.35,2.87-.2,6.3-.83,7.37-3.5-10.29.81-20.63.71-30.95.6l-77.27-.8c-23.19-.24-47.47,1.62-69.38-7.46-5.61-2.32-11.23-5-17.64-4.79-1.07,0-2.3-.85-3.25-1.57C832.33,158.37,827,157.27,821,158c-4.84.59-9.27-.52-13.95-.15-5.05.39-10.27,1.34-15.39,1.76-.23.76.86,1.18,1.66,1.21,5.18.24,10.13,1.66,15.27,1.66,3.9.14,7.8.16,11.7.32a37,37,0,0,1,4,.6c0,.32,0,.64,0,1l-9.52,2.18c1.18,2.94,3.28,2.61,5.23,2.8,6,.6,12,1.21,18,2,1.29.17,2.48,1.07,4.63,2-1.63.53-2.2.72-2.76.89-5.22,1.58-10.73,2.57-15.59,4.91-5.24,2.54-9.93,1.51-14.89,0-1.49-.45-3-1.23-4.47-1.3-7.42-.33-14.4-2.21-21.41-4.67-12-4.22-28.61-.49-41,.41q-22.65,1.65-45.22,4.21a182.52,182.52,0,0,0,53-.88c6.36-1,13.41-2.73,19.82-1.1s12.86,3.94,19.48,5.42c3.45.77,7,.85,10.56,1.27a44.14,44.14,0,0,1,7.55,1.42c-4.17,2.7-8.32,4.87-13.39,5.08-9.3.38-18.17-1.82-27.06-4.05-6.05-1.52-11.38-2.67-17.41-.39-3.14,1.19-6.25,2.69-9.6,3-2.1.17-4.35-.13-6.17.93.7,1,2.06,1,3.23,1,7.37-.12,14.75-1.29,22.11-.66C767.05,189.53,774.06,192.41,781.24,194.51Z"/><path class="cls-1" d="M744,148.85c4.72,1.83,9.17,4.42,14,5.91a60.22,60.22,0,0,1,11.27,5c3.76,2.06,8,.92,12.07.92.19,0,.39-.43.83-.94-3.13-.54-6-1.08-8.45-3.33l6.74-1,.09-1a10.68,10.68,0,0,0-3.11-1.08c-10-.17-18.29-4.86-26.47-9.73a20.7,20.7,0,0,0-13.84-3,58.83,58.83,0,0,1-7.75.19c-1.58,0-3.16-.28-4.73-.26-1.86,0-3.71.23-5.56.35l3.68,3.69a10.47,10.47,0,0,1,1.37.06c3.93.7,7.88,1.36,11.79,2.17A50.24,50.24,0,0,1,744,148.85Z"/><path class="cls-1" d="M375,33.09a26,26,0,0,0-4.66-.66c-1.44-.11-2.9.09-4.34,0a66.28,66.28,0,0,1-6.74-1,34.11,34.11,0,0,1-4.1-1.39c-5.28-1.77-10,1.06-14.9,1.95l-.72,0a.51.51,0,0,0-.53.23l-.93.21a.38.38,0,0,0-.46.16l-4.32,2.09.3.84,3-.67.94-.11,4.31-.47.94,0,1,.19,4.23,1v.9l-8.88,3.89.29,1.42c1.66.11,3.42.65,5,.27,14.12-3.43,27.59.13,40.91,4,11.14,3.25,21.29-1.51,30.32-8.22C401.91,36.19,388.48,36.61,375,33.09Z"/><path class="cls-1" d="M206.36,55.17c9.28,2.64,18.34,4,27.28-.94a18.54,18.54,0,0,1,2.46-1.08,50.89,50.89,0,0,1,22-3.55c3.7.25,7.45-.25,11.18-.41l.26-1.39a46.33,46.33,0,0,0-6.92-1.72c-3.76-.38-7.57-.22-11.35-.46-4.11-.27-8.24-1.28-12.29-1-7.91.49-15.75,1.83-23.65,2.44-4.11.32-8.28-.3-12.42-.21-13,.27-25.88,3.22-39.09,3.08-4.28,0-8.75-.19-12.61,1.65,5.16,4,12.45,2.57,18.93,2,6.79-.65,12.91.67,19.58,1.13C195.1,55,201,53.65,206.36,55.17Z"/><path class="cls-1" d="M926.31,132.07c9.28,2.64,18.34,4,27.28-.95a19.94,19.94,0,0,1,2.46-1.08,50.88,50.88,0,0,1,22-3.54c3.7.25,7.45-.25,11.18-.41l.26-1.4a47.59,47.59,0,0,0-6.92-1.72c-3.76-.37-7.57-.21-11.35-.46-4.11-.27-8.24-1.28-12.3-1-7.9.5-15.74,1.83-23.64,2.45-4.11.31-8.28-.31-12.42-.22-13,.28-25.88,3.22-39.09,3.08-4.28,0-8.75-.19-12.61,1.66,5.16,4,12.45,2.57,18.93,2,6.79-.66,12.91.66,19.58,1.13C915.05,131.9,921,130.55,926.31,132.07Z"/><path class="cls-1" d="M91,154.07c7.2-1.64,14.41-3.17,21.62-4.73,5.78-1.25,11.57-2.26,16.66-5.69A27.9,27.9,0,0,1,149,138.76c5.43.71,10.84,1.56,16.26,2.33,1.34.19,2.69.31,4,.46a3.92,3.92,0,0,0-2.15-2.26c-7.51-2.38-15-4.63-22.56-7-6.55-2.06-11.87.24-17.21,4-3.11,2.17-7,3.37-10.58,4.69-5,1.81-10.15,3.29-15.2,5-5.75,1.92-11.48,3.91-17.22,5.86L78.21,158c3.27-.79,6.56-1.51,9.81-2.4C89.06,155.29,89.93,154.31,91,154.07Z"/><path class="cls-1" d="M697.83,249.78c12.34,1.73,25.36,6.52,37.51,1.76,4.15-1.63,7.86-4.33,12.15-5.57,5.65-1.64,12.15-.71,17.08-3.94-.72-1.55-2.82-1.71-4.52-1.64-11.89.46-23.78.37-35.67,1-5.91.3-12.07.24-17.92,1.14-1.75.27-7.43,2.53-6.44-1.62.33-1.35,5.81-3.87,7-4.58a73.15,73.15,0,0,1,17.15-7.56c4.09-1.21,8.27-2.06,12.45-2.91l35.46-7.18c-8.16-1.9-16.66-1.57-25-1a86,86,0,0,0-17.66,2.63c-10.13,2.91-19,9-28.15,14.2-16.63,9.35-33.47,9.44-52.05,9.17-11-.17-22-.19-32.41-4.41-7.11-2.88-14.32-6.61-21.81-8.88-6.66-4.19-14.14-5.21-22.17-3.83-2.85.48-5.54,1.81-8.38,2.39-6.91,1.41-13.82,2-20.9.72-4.09-.76-8.34-.59-12.52-.84,0,.39-.09.78-.13,1.17a11.34,11.34,0,0,0,2.26,1c6.2,1.31,12.6,2,18.57,4s11.6,1.42,17.51,1.48c6.84.07,14.62,0,21.29.95,4.45.61,8,3.45,11.93,5.27,4.29,2,9.47,3.08,14.05,4.27,1.58.42,3.17.75,4.76,1,10.72,1.83,21.58.79,32.41,1.25,7.48.32,15,.55,22.44.62,6.72.06,13.2-1.06,19.9-.3C696.59,249.62,697.21,249.69,697.83,249.78Z"/><path class="cls-1" d="M232.84,36.35c3.48,0,7-.72,10.47-1.12-.5-.48-.95-1.27-1.52-1.36-7.87-1.29-15.74-2.66-23.65-3.63-14.76-1.81-30.78,3.67-45.21,6.45a8.75,8.75,0,0,0-3.59,1.25c2.45,1.39,5.44,1.38,8.26,1.23C196.2,38.19,214.2,36.19,232.84,36.35Z"/><path class="cls-1" d="M243.37,35.22h0l0-.23,0,.24h0Z"/><path class="cls-1" d="M471.24,91.55l-.1.87c2.69,1,5.36,2,8.07,2.86.33.11.66.21,1,.3-6.8,1.63-13.65,3.07-20.47,4.61l2.65,1.35c2.1-.05,4.22,0,6.31-.2,5.87-.62,11.74-1.3,17.59-2.14,1-.15,1.91-1.37,3-1.68a19.82,19.82,0,0,1,2.54-.56c.95,0,1.89-.09,2.84-.17.81.2,1.64,1,2.45,1,4.8-.11,9.65-.94,14.4-.53,7,.6,13.86,2,20.88.52a2,2,0,0,1,.86.22c3,.91,6,2.55,9,2.6,13.54.21,27.08,0,40.62-.16a61.36,61.36,0,0,0,8.28-1.09c6.38-1,12.75-2,19.13-3,3.08-.48,6.2-1.57,9.22-1.34,10,.79,20.06,2,30.07,3.16a25.74,25.74,0,0,1,15.59,7.24c8.1,8.21,18.11,10.9,29.17,11.68,4.49.32,9,1.75,13.27,3.21,6.75,2.29,13.32,5.07,20,7.54.53.2,1.35-.4,2-.63l-1.53-.92a.34.34,0,0,0-.39-.25l-1.32-.54-.16.06a2,2,0,0,1-.59,0,44,44,0,0,1-5.52-3.49c-7.59-6.46-16.46-10.08-25.93-12.84-6.85-2-13.81-4.32-20-7.85C666.53,97,659.72,91,650.17,90.06a13,13,0,0,1,3.33-2.46c6.57-3.28,13.63-4.95,20.85-3.94,14.3,2,28.45,4.58,41,12.69,5.51,3.56,11.64,6.21,17.64,9,4.72,2.16,6.73,1.36,10.65-3.1.3-.34,1-.32,1.49-.52,6.45-2.62,12.71-.87,19.1.5,13,2.78,26.06,5.23,39.11,7.77.55.11,1.2-.26,2.71-.64-4.58-1.57-8.14-2.92-11.77-4-10.28-3.13-20.63-6-30.88-9.27a61,61,0,0,0-23.21-2.64A29.54,29.54,0,0,1,730,92c-3.51-1-6.7-3.12-10.19-4.27a181.07,181.07,0,0,0-18.6-5.39c-5.45-1.18-11.13-1.26-16.66-2.15a73.62,73.62,0,0,0-35.5,2.74c-8.15,2.71-16.62,4.11-25.18,3.11a69.8,69.8,0,0,0-31.12,3.21c-4.71,1.6-9.9,1.81-15.37,2.73,4.75-4.08,8.36-8.72,13.1-10.88,5.54-2.52,12-3.39,18.19-4,8.86-.94,17.81-1,26.72-1.53a15.29,15.29,0,0,0,3.17-.88l-.18-1.21c-11.91-.7-23.81-1.79-35.73-2a51.91,51.91,0,0,0-28.18,7.62c-5,3-10.33,6-15.9,7.79a83.1,83.1,0,0,1-30.22,3.63,144,144,0,0,0-33.28,1.92l-.43-.43Z"/><path class="cls-1" d="M437.4,49.4l14.29,4.39L446.93,49l-9.51-.1C437.41,49.09,437.41,49.25,437.4,49.4Z"/><path class="cls-1" d="M590.49,190.22l.59.11a10.85,10.85,0,0,0,4.56.3c-.35-2.84-7-4.65-9.14-5.51l-4.62-1.85c-1.67-.67-3.38-1-5.09-1.49l-1-.2h.12l-3.34-.56-6.87-1-.13-.16-.2,0-6.14-2.48-2.41-.62h.06l-1.43-.36L554,176l-6.64-1.92-1.46-.42-2.37-.6.06,0-1.47-.38-.83-.25a.33.33,0,0,0-.52-.09l-.13,0-12.77-4.44-1.93-.92-15.19-8v0l-6.7-2.44c-3.91-1.87-8-3.49-11.69-5.7-3.43-2.05-6.48-4.74-9.7-7.15l-.8-.91,1.2-.57h.13l.82,0,.11,0,.93.11h0l3.36.61h-.06l2.44.42h-.05l2.41.38c3.15.67,6.33,1.18,9.42,2,3.73,1,7.31,2.72,11.08,3.51,7.63,1.6,15.37,2.59,23,4,7.48,1.39,14.66,3.69,22,5.6.77.2,1.79.3,2.16-.4a83.48,83.48,0,0,1-11.23-5.1c-3.5-2-6.69-4.56-10.3-6.39a29.88,29.88,0,0,0-8.94-2.87c-2.69-.42-5.94-1.3-8.64-1.06-9.42.83-18.69.55-27.73-2.55a.28.28,0,0,0-.4-.14l-1.19-.36-.05-.16-.17,0-1.41-.53-2.87-1.1h.06l-3.08-1.09a.22.22,0,0,0-.35-.12l-1-.28a.3.3,0,0,0-.41-.17l-.93-.21h.1l-2.87-.94-4.73-1.89-1.45-.44-1.43-.35h0l-1-.16h.15l-1.49-.31h0l-.94-.15,0,0-5.68-.89h-.06l-1,0-.92.06h0l-4.32,1.11h.05l-3.34,1.71-.18,0-.08.17-3.53.82-.95-.07-6.18-.4h0l-5.71-.16h.05l-3.35-.33-4.76-.07-1-.05-.8-.06h-1l-1.13-.07-.71,0a10.45,10.45,0,0,1-.91.62,10.26,10.26,0,0,1-.91.5,10.26,10.26,0,0,0,.91-.5,10.45,10.45,0,0,0,.91-.62L416,135l-12.71,1.36-1.07.23-7.38.93L390,139.16c.08.27.17.55.26.82l5.82-1,4.85-.43,1.41.05h12.57a.22.22,0,0,0,.37,0l1.56,0a.21.21,0,0,0,.35,0l1.75-.52,6.23.29.88.15,1,0,1.1.14,2.27.16.86.05,1,.07,1.06.13-.12,0,2.59.58a.23.23,0,0,0,.37.11l1,.21,1.34.36,1.4.38.06,0,1.08.29a.3.3,0,0,0,.42.15c.28.05.56.11.83.18l3.85,1H446l2.42.47-.08,0,1.26.23,1.22.15.94.08,2.32.49,1.46.44,2.86,1-.05,0,1.53.52,1.34.43,3.44.58L466,147l11.84,5.32,1.55,1.27,11.34,6.88h0l1.39.49,1.44.43,2.55.63a.33.33,0,0,0,.45.15l.93.23a.46.46,0,0,0,.5.24l1.14.45.15.13,1.41.59,1.41.49,11.41,2.9,2.13.64.81.15,1.4.43h0l3.75,1.08,1.45.41,1.14-.11-1.14.11,17.85,6.5.08.15.16-.05,1.41.53,2.05.81.92.25a.44.44,0,0,0,.5.22l.86.21h0l9.12,3.34a.45.45,0,0,0,.48.27l3.27,1.53,1.39.52,1.45.44,2.39.49h0l1.07.12-.12,0,2.39.25h0l.93.07c3.39.91,7,2.23,10.44,2.62C583.27,188.66,586.89,189.51,590.49,190.22Zm-170-54.62a6.46,6.46,0,0,0,.94-.31A6.46,6.46,0,0,1,420.49,135.6Z"/><path class="cls-1" d="M63.45,208.23c4.51.87,9.06,1.58,13.49,2.75,6.77,1.8,13.72,3.3,20.11,6.06,16.23,7,32.93,12,50.52,13.9a6.22,6.22,0,0,1,1.33.53c-.45.21-.6.34-.76.34-8.69.35-17.38,1.24-26.09.23l-1.17-.1-4.17-.19-.91,0-3.7-.22-1.48-.13-10.07-.64-1.31-.12H95.67c0,.27,0,.53,0,.8l3.63.83h0a.36.36,0,0,0,.54.18l1.7.26,1.11.26a.29.29,0,0,0,.4.14l.94.2,1.37.35,1.06.21c1.74.28,3.49.53,5.23.83,8.12,1.4,16.25,2.73,24.35,4.24,13.83,2.57,26.28-1.16,38.42-7.54a44.55,44.55,0,0,1,14.54-4.63,92.2,92.2,0,0,0,33-10.72c7.9-4.4,15.23-9.83,23.15-14.2,9.24-5.09,19.77-6.34,29.86-8.84,10.63-2.63,21.27-3.82,32.29-2.32,14.87,2,29.75,2.42,44.06-3.78-1.1-2.31-2.47-4.52-5.82-4.19-12.27,1.19-24.45.68-36.24-3.1-14-4.48-27.73-3.58-41.65.21-6.31,1.72-12.56,4.25-19.41,3.1a113.7,113.7,0,0,0-11.37-1.15c-5.37-.35-10.65-.45-15.89,1.58-3.91,1.5-8.2,2.49-12.09-.65a3.28,3.28,0,0,0-2.24-.59c-4.86.57-9.65,1-14,4-6.56,4.57-12.67,10-21,11.57-10.93,2-21.83,1.4-32.78.27-8.79-.91-17.63-1.46-26.45-1.93-1.83-.1-3.71.83-5.56,1.29,13.93,4.17,27.51,7.91,41.26,10.84,14.16,3,27.61,1.47,40.32-6.69,5.16-3.32,11.88-4.25,18-6.08,5.67-1.71,11.37-3.32,17.12-4.71,4.34-1,8.78-1.67,13.18-2.48.13.42.27.84.41,1.26a27,27,0,0,1-2.14,1.73c-4.29,2.84-8.84,5.33-12.87,8.5-10.76,8.47-23.29,12.9-36.35,15.71-7.29,1.57-14.29,3.18-20.83,7-5.84,3.41-12.64,5.09-19.11,2.79-9.7-3.45-20.17-5.08-28.82-11.24-2.23-1.58-4.12-3.93-6.56-4.84-7.42-2.76-14.9-6.25-22.61-7.09-8.24-.89-16.57-4.64-25.1-1.24-.67.26-1.56-.11-2.33,0a45.17,45.17,0,0,0-4.94.7c-5.35,1.17-10.62,2.8-16,3.49-3.44.44-4.24,2-4.35,5.26,1.39-.11,2.57-.21,3.74-.29C47,209.31,55.08,206.61,63.45,208.23Z"/><path class="cls-1" d="M391.57,21c4.45,1.14,8.95,2.11,13.31,3.54,6.65,2.2,13.5,4.1,19.71,7.24,15.79,8,32.17,13.9,49.62,16.85a5.92,5.92,0,0,1,1.3.61c-.47.18-.62.3-.78.29-8.7-.16-17.43.22-26.06-1.31L447.5,48l-4.15-.42-.9-.1-3.68-.44-1.47-.22-10-1.23-1.3-.2-3.56-.2c0,.27,0,.53-.07.8l3.58,1a.35.35,0,0,0,.52.21l1.68.36,1.09.33a.3.3,0,0,0,.4.16l.92.26,1.35.42,1,.28c1.73.38,3.46.73,5.18,1.13,8,1.88,16.06,3.69,24.06,5.67,13.65,3.38,26.3.4,38.79-5.26a44.36,44.36,0,0,1,14.79-3.76,92.64,92.64,0,0,0,33.54-8.76c8.14-3.93,15.78-8.91,24-12.81,9.52-4.54,20.1-5.17,30.33-7.07,10.76-2,21.46-2.55,32.36-.41,31.17,6.15,65.49,4.41,97.05,2l27-2c.94-.91.35-2.64-.78-3.29a6.42,6.42,0,0,0-3.82-.45c-16.43,1.43-33.05,2.55-49.36.13-13.31-2-24.24-2.94-37.52-2.07-9.78.64-20.74-1.73-29.88-5.27C624.9,1.58,611.11,1.67,597,4.63c-6.41,1.35-12.79,3.5-19.57,2a112.69,112.69,0,0,0-11.28-1.81c-5.34-.67-10.6-1.08-16,.63-4,1.28-8.32,2-12-1.36a3.3,3.3,0,0,0-2.2-.72c-4.88.29-9.69.45-14.17,3.18-6.82,4.17-13.24,9.28-21.62,10.32-11,1.37-21.87.11-32.74-1.67-8.72-1.42-17.5-2.49-26.28-3.48-1.82-.21-3.75.61-5.63.95,13.66,5,27,9.52,40.55,13.26,14,3.85,27.48,3.09,40.64-4.3,5.35-3,12.12-3.54,18.29-5,5.75-1.38,11.54-2.65,17.36-3.7,4.39-.78,8.86-1.15,13.3-1.7.11.43.22.86.34,1.29a26.2,26.2,0,0,1-2.24,1.6c-4.45,2.58-9.14,4.8-13.35,7.72-11.24,7.83-24,11.51-37.21,13.54-7.37,1.14-14.45,2.33-21.21,5.76-6,3.06-12.92,4.34-19.24,1.66-9.48-4-19.84-6.26-28.11-12.91-2.13-1.71-3.88-4.17-6.26-5.22-7.24-3.2-14.5-7.12-22.15-8.41-8.17-1.38-16.27-5.62-25-2.72-.68.22-1.55-.2-2.32-.17a46,46,0,0,0-5,.41c-5.4.85-10.76,2.17-16.2,2.54-3.47.23-4.35,1.76-4.65,5l3.75-.08C375.08,21.09,383.31,18.87,391.57,21Z"/><path class="cls-1" d="M981.27,262.56c-4.45-1.14-9-2.11-13.31-3.54-6.65-2.19-13.51-4.1-19.71-7.23-15.79-8-32.17-13.91-49.62-16.86a5.92,5.92,0,0,1-1.3-.61c.46-.18.62-.3.78-.29,8.7.16,17.43-.22,26.06,1.31l1.16.17,4.15.43.91.09,3.68.44,1.47.22,10,1.24,1.29.19,3.57.2.06-.8-3.57-1a.36.36,0,0,0-.53-.21l-1.68-.36-1.09-.33a.29.29,0,0,0-.39-.16l-.93-.26-1.35-.42-1-.28c-1.72-.38-3.45-.73-5.17-1.13-8-1.88-16.07-3.68-24.06-5.67-13.65-3.38-26.3-.4-38.79,5.26a44.61,44.61,0,0,1-14.79,3.77,92.37,92.37,0,0,0-33.54,8.75c-8.15,3.93-15.79,8.91-23.95,12.81-9.52,4.54-20.11,5.17-30.33,7.07-10.77,2-21.46,2.56-32.36.41-31.17-6.15-65.49-4.41-97.06-2l-27,2c-.94.91-.35,2.63.77,3.28a6.44,6.44,0,0,0,3.82.45c16.44-1.43,33-2.55,49.37-.12,13.31,2,24.24,2.93,37.51,2.06,9.79-.64,20.75,1.74,29.88,5.27,13.69,5.3,27.48,5.21,41.59,2.25,6.4-1.35,12.79-3.5,19.57-2,3.7.85,7.5,1.34,11.28,1.82,5.33.66,10.6,1.07,15.95-.64,4-1.27,8.33-2,12,1.36a3.34,3.34,0,0,0,2.21.72c4.88-.29,9.69-.45,14.16-3.18,6.83-4.17,13.25-9.27,21.62-10.32,11-1.37,21.87-.1,32.74,1.67,8.72,1.43,17.51,2.49,26.29,3.49,1.82.2,3.75-.62,5.63-1-13.66-5-27-9.52-40.56-13.26-14-3.84-27.47-3.09-40.63,4.3-5.35,3-12.12,3.54-18.29,5-5.75,1.37-11.54,2.64-17.36,3.69-4.4.79-8.87,1.15-13.3,1.7-.12-.43-.23-.86-.34-1.29a24.71,24.71,0,0,1,2.24-1.6c4.45-2.57,9.14-4.8,13.34-7.72,11.25-7.82,24-11.51,37.22-13.54,7.37-1.14,14.45-2.33,21.21-5.76,6-3.06,12.91-4.34,19.24-1.66,9.48,4,19.84,6.26,28.11,12.92,2.12,1.71,3.87,4.16,6.26,5.21,7.24,3.2,14.5,7.13,22.15,8.41,8.17,1.38,16.27,5.62,25,2.73.68-.23,1.55.19,2.33.16a43.44,43.44,0,0,0,5-.41c5.41-.85,10.77-2.17,16.2-2.53,3.47-.24,4.36-1.77,4.66-5-1.39,0-2.57.06-3.75.07C997.75,262.45,989.52,264.67,981.27,262.56Z"/><path class="cls-1" d="M804.79,206.82a78.59,78.59,0,0,1-29.64-6.37c-11.15-4.93-22.6-5.4-34.42-3.48-5.37.87-10.75,2.4-16.31.85-3-.84-6.18-1.4-9.29-1.94-4.4-.76-8.75-1.3-13.26-.09-3.36.9-7,1.34-9.93-1.6a2.74,2.74,0,0,0-1.8-.68c-4.07.05-8.07,0-11.88,2.09-5.83,3.19-11.35,7.18-18.34,7.72-9.2.71-18.15-.76-27.1-2.66-7.18-1.52-14.43-2.74-21.68-3.91-1.5-.24-3.13.36-4.71.58,11.14,4.67,22,8.94,33.14,12.57,11.43,3.73,22.68,3.63,33.88-2,4.56-2.29,10.2-2.47,15.37-3.45,4.83-.92,9.68-1.75,14.55-2.39,3.68-.48,7.4-.61,11.1-.89l.23,1.08a21.65,21.65,0,0,1-1.92,1.24c-3.79,2-7.77,3.62-11.37,5.89C691.78,215.44,681,218,670,219.18c-6.15.66-12.08,1.37-17.81,3.95-5.12,2.31-10.89,3.1-16,.64-7.71-3.71-16.22-6-22.83-11.81-1.69-1.51-3.05-3.61-5-4.58-5.88-2.93-11.75-6.47-18.05-7.84-6.73-1.46-13.28-5.29-20.62-3.22-.58.16-1.29-.23-1.93-.23a38.1,38.1,0,0,0-4.14.14c-4.52.5-9,1.39-13.54,1.48-2.89.06-3.68,1.3-4.06,4l3.12.08c6.84.24,13.75-1.28,20.52.8,3.65,1.11,7.35,2.09,10.91,3.45,5.43,2.08,11,3.93,16.07,6.77,3.06,1.72,6.34,3.45,9.61,4.91,1.68.76,3.41,1.37,5.11,2.1,1.37.58,2.49,1.48,3.9,2.05a131.13,131.13,0,0,0,21.9,6.85,5,5,0,0,1,1.05.56c-.39.13-.52.22-.65.21-7.22-.47-14.47-.5-21.58-2.1l-1-.19-3.42-.51-.75-.12-3-.5-1.21-.24-8.26-1.42-.75,1.35,1.38.36.89.31a.23.23,0,0,0,.32.15l.76.25,1.1.41.85.27c1.42.38,2.84.74,4.26,1.14,6.58,1.86,13.18,3.68,19.74,5.63,11.19,3.34,21.8,1.36,32.39-2.86a36.94,36.94,0,0,1,12.42-2.54,76.78,76.78,0,0,0,28.16-6c6.91-2.94,13.45-6.78,20.37-9.69,8.08-3.41,16.89-3.51,25.44-4.69,9-1.24,17.91-1.29,26.87.92,13,3.2,29.15,5.28,42.57,4.56,8.7-.47,17.13-3.08,25.46-5.66l31.07-9.66c-7.08-3.06-15.23-2.46-22.72-.61s-14.66,4.87-22.18,6.58A89.64,89.64,0,0,1,804.79,206.82Z"/><path class="cls-1" d="M393.86,245.2c4.07-.69,8.33-.69,12.21-1.93a13.82,13.82,0,0,1,9.1-.28c6.48,2.16,13.17,3.79,19.93,2.46,5.13-1,9.69.09,14.33,1.63s9.54,3.2,14.2,5.08c7.81,3.14,15.93,3.67,24.19,3.43l4.63-.35c0-.44,0-.89,0-1.33l-4.62-.39-.83-.08-1.16-.05c-5.6-1.67-11.34-3-16.79-5.08-19-7.25-38-14-58.61-15.29-5.67-.37-11.16-.69-16.6,1.09-3.3,1.08-6.62,2.1-9.88,3.27-8.32,3-16.43,6-25.76,4.35-5.22-.9-11,.13-16.27,1.22a17.2,17.2,0,0,1-10.41-.61,41.38,41.38,0,0,0-9.35-2.23c-4.21-.6-8.49-.73-12.72-1.2a42.93,42.93,0,0,0-17.25,1.49c-6.63,2-13.54,2.95-20.28,4.57a56.72,56.72,0,0,0-9,3c-3.07,1.3-6,3-8.94,4.54-4.07,2.12-8.19,4.14-12.17,6.4-3.79,2.15-7.16,5.43-11.19,6.71-16.8,5.36-33,13-51,13.93-4,.21-8.1.59-12-.09-16.38-2.88-32.47-2.64-48.51,2.34-6.15,1.9-12.69,2.52-19.06,3.69-1.13.21-2.29.26-4.12.47,1.15,1.14,1.65,2,2.39,2.32,5.89,2.29,11.08,6.69,18,6,2-.2,4,.09,6-.12,6.07-.64,12.15-1,17.41-5a17.65,17.65,0,0,1,13.58-3.56,54.3,54.3,0,0,0,25.54-2,62.93,62.93,0,0,1,11.85-2.34c13.88-1.78,27.78-3.42,41.68-5.07,6.86-.81,12.87-3,17.63-8.47a52.57,52.57,0,0,1,10-8.44,27.27,27.27,0,0,1,8.15-3.56c5.29-1.44,11-1.76,16-3.82,8.34-3.43,17.28-1.84,25.71-4.05,1.32-.35,3.11.36,4.49,1,10.94,5,22.35,4.86,33.92,3.27a13.09,13.09,0,0,1,2,0,19.21,19.21,0,0,0,4.2.18c9.28-1.63,18.61-3.57,27.85-.27,7.58,2.7,14.91,6.1,22.49,8.83A48.78,48.78,0,0,0,416,263.39c8.18.85,16.49.77,24.6,2.05,10.8,1.7,21.49,3.59,32.32.75a36.14,36.14,0,0,0,5.8-2.62c-7.5-2-14.9-4.47-22.51-5.73-10.78-1.78-21.7-2.7-32.59-3.81a93.86,93.86,0,0,0-10.07-.12c-2.72,0-5.7.84-8.12,0-5.35-1.84-10.41-4.5-15.59-6.83l-.5,0,.5-.43A24.42,24.42,0,0,1,393.86,245.2Z"/><path class="cls-1" d="M721.52,40.14c13.53-.84,26.41-1,39.53,1.41,0-.73,26.45,11,28.57,11.5a28.77,28.77,0,0,0,3.73.91c8.95,1.71,17.72,2.4,26,7.21,9.5,5.49,14.79,13.51,26.41,14.73,9,.95,19.68-.52,27.09-6.05-9.14-.41-19.91.51-28.43-2.93-7.92-3.19-13.76-9.92-20.57-14.8-4.28-3.08-5.92-4.18-10.08-5.06a35.9,35.9,0,0,0-14.2.43c-6.79.15-11.74-1.44-18.44-4.18-7-2.87-15.81-4.09-22.18-7.5.48-1,4.29-2.09,5.27-2.22A68.16,68.16,0,0,1,781,34h0a54.15,54.15,0,0,0,11,2.37c10.3,0,21.65.56,31.86,1.4C836.33,44,847.55,46,861.59,45.66v-1a138.81,138.81,0,0,1-18.26-5.76c-1.79-.82-8.49-2.92-9.46-4.69-2.88-5.27,4.5-4.76,9.47-5.11a45.41,45.41,0,0,1,12.94,1.11c17.31,3.54,33.3,13.48,51.48,8.9,5.62-1.41,11.28-3.37,17-2.85,7.34.66,13,5.35,19.9,6.61,12.81,2.33,27.52-.08,40.86,1,.06-.35.11-.7.17-1.06-12.89-2.25-28.51-3.53-40.86-8-7.39-2.66-13.34-7.76-21.2-9.21-8.55-1.58-18,1.3-27.46,1.37-1.25,0-1.94,0-3,0a151.47,151.47,0,0,1-30.3-2.73c12.31-8.06,23.76-5.05,37.84-6.86l-.09-1.3c-16.91-2.48-26.52-2.87-42,1.87-13.73,4.2-26.83.87-40.53,6.17-5.75,0-12.68,3.18-18.55,3.37.24-.23-5.37.22-5.67-.08-5.41-.46-10.46-1.41-15.69-2.3-15.31-1.45-30,4.5-44.71,8.6a207.65,207.65,0,0,1-21.52,3.13l-.3-1.13,7.21-2.9c-12.43-4.15-26-1.08-38.71,0,7.91,7.92,8.68,6.29,19.34,6.41C706.84,39.38,714.17,39.77,721.52,40.14Zm153,22.41a3,3,0,0,0,.45-.5A3,3,0,0,1,874.54,62.55Zm26-23.75a4.64,4.64,0,0,0-.83.14A4.64,4.64,0,0,1,900.5,38.8Z"/><path class="cls-1" d="M676.72,51.47c-5.62,1.62-11.1,3.63-16.65,5.45-10.06,3.31-20,2.16-30.19-.12C617.3,54,604.57,52.33,591.49,53c-10.17.53-20.5.82-30.59-.22-10.59-1.1-21.1-1.17-31.67-1.53s-19.33,2.46-27.92,7.16c-10.07,5.51-18.78,10.24-30.77,8.92C458.28,66,446.21,61.4,435,57.79a40.55,40.55,0,0,0-5.78-1c-.09.36-.17.73-.25,1.09a115.33,115.33,0,0,0,16.72,10.68c0,.1,0,.21,0,.31l1.45.41c9.25,2.58,18.23,6.9,28,7.75s18.64-2.9,27.14-7c12.48-6.07,25.4-11.21,39.47-13.67,8.71-1.53,16.94.85,25.5,1.73A6.26,6.26,0,0,1,564.3,60c-3,1-6.25,1.79-9.18,3-2.6,1.1-4.85,2.87-7.39,4.1a103.86,103.86,0,0,1-11.83,5.22,143.11,143.11,0,0,1-17,4.83c-5.63,1.19-11.46,1.64-17.2,2.41-.08.37-.15.74-.22,1.1A18.26,18.26,0,0,0,505,82c2,.29,4.09.2,6.13.42a65.22,65.22,0,0,0,31-3.87c10.41-4,21.11-7.43,31.88-10.58,18.73-5.47,37.76-7.48,57.23-2.76a41.79,41.79,0,0,0,22.32-.63c10.52-3.32,20.53-8,30.73-12.13.49-.2.68-1,1.44-2.2C682.3,50.66,679.38,50.71,676.72,51.47Z"/><path class="cls-1" d="M61.37,180.53A119.62,119.62,0,0,0,74,182.11c12.2.45,24.4.9,36.6.81a52.31,52.31,0,0,1,21.55,4.16c1.65.71,3.37,1.22,5.06,1.82a50.13,50.13,0,0,0,31.72.39c7-2.1,13.28-6.27,19.86-9.58,1.82-.92,3.54-2.05,5.31-3.09l-.22-.86c-1.62-.08-3.32-.5-4.85-.17-5.14,1.08-10.47,1.82-15.26,3.83-8.09,3.39-16.5,3.87-25,4.23-8.78.38-16.63-3.17-24.42-6.61-6.7-2.95-13.45-4.12-20.54-1.58a17.32,17.32,0,0,1-3.1.42,15,15,0,0,1,1.43-1.79c3.06-2.46,6.66-2.75,10.42-2.7,5.69.08,11.57.82,17-.3,9.5-2,18.76-5.13,28.12-7.79l2.34-.5.8.22c-.24-.29-.49-.57-.73-.85l-3.84-.29c-7.58-1.29-14.88.77-22.3,1.72-3,.38-6.46.41-9.16-.72-9.53-4-18-2.62-26.3,3.22-10.06,7.11-21.11,11.6-33.6,12-1.7.06-3.4.42-5.1.65C60.32,179.9,60.82,180.45,61.37,180.53Z"/><path class="cls-1" d="M973,58.16a119.1,119.1,0,0,0-12.58-1.58c-12.2-.45-24.4-.9-36.6-.81a52.39,52.39,0,0,1-21.56-4.16c-1.64-.71-3.36-1.22-5-1.82a50.2,50.2,0,0,0-31.72-.4c-7,2.11-13.28,6.28-19.86,9.59-1.82.92-3.54,2.05-5.31,3.09l.22.86c1.62.08,3.32.5,4.85.17,5.14-1.09,10.47-1.82,15.26-3.83,8.09-3.39,16.5-3.87,25-4.23,8.78-.38,16.62,3.17,24.42,6.61,6.7,2.95,13.45,4.12,20.54,1.58a18.07,18.07,0,0,1,3.1-.43,14.53,14.53,0,0,1-1.43,1.8c-3.06,2.46-6.66,2.75-10.42,2.7-5.69-.08-11.57-.82-17.05.3-9.5,2-18.76,5.13-28.12,7.79l-2.34.5-.8-.22c.24.29.49.57.73.85l3.84.29c7.58,1.29,14.88-.77,22.3-1.72,3-.38,6.46-.41,9.16.72,9.53,4,18.05,2.62,26.3-3.22,10.06-7.11,21.11-11.6,33.6-12,1.7-.06,3.4-.43,5.1-.65C974.06,58.79,973.56,58.23,973,58.16Z"/><path class="cls-1" d="M445.53,192.38c7.25,4.7,15.27,6.85,23.74,7.6a38.83,38.83,0,0,1,18.56,6.33c10,6.71,21.11,8.95,32.93,8.26a97.84,97.84,0,0,1,26.39,1.85c6.63,1.41,13.33,2.48,20,3.69l4,.65.14-.54-3.2-1.45-.77-.25-1.21-1-8.34-3.52c-3.22-1.36-6.34-3.12-9.7-4a80.36,80.36,0,0,0-30.62-2.13c-8.22,1-15.92-.81-22.44-6a48.83,48.83,0,0,0-26.67-10.8,26.68,26.68,0,0,1-6.8-1.74c-7.53-2.81-14.88-6.15-22.52-8.59-12.46-4-25.08-7.46-37.67-11a78.5,78.5,0,0,0-9.23-1.47l-.3.81A26.62,26.62,0,0,0,395,171q22.08,9.24,44.18,18.41A40.37,40.37,0,0,1,445.53,192.38Z"/><path class="cls-1" d="M281.49,204.74c-4.22.46-8.46.85-12.64,1.6-6.17,1.1-12.32,2.34-18.41,3.82a23.71,23.71,0,0,0-7.94,3.24c-5.66,4-11.17,8.24-16.41,12.77a52.1,52.1,0,0,1-20.47,11.15c-7.58,2-15.68,2.09-23.52,3.21-1.81.25-3.52,1.3-5.27,2,.08.57.17,1.14.25,1.72,9,.63,18,1.64,27,1.8,9.65.16,18.46-3.13,26.21-8.86,12.78-9.45,25.22-19.46,40.41-24.93a79.19,79.19,0,0,1,13-3c9.68-1.72,19.4-3.18,29.08-4.9,1.77-.31,3.41-1.34,5.11-2-.08-.36-.16-.71-.25-1.07-2.6.15-5.22.21-7.82.48Q295.65,203.15,281.49,204.74Z"/><path class="cls-1" d="M721.25,160.79c-4.25-.11-8.5-.3-12.74-.13-6.26.26-12.53.65-18.76,1.3a23.49,23.49,0,0,0-8.31,2.13c-6.14,3.19-12.18,6.65-18,10.42a51.87,51.87,0,0,1-21.79,8.27c-7.78,1-15.81-.05-23.73,0-1.84,0-3.67.82-5.5,1.26,0,.58,0,1.16,0,1.74,8.84,1.85,17.62,4.07,26.53,5.45,9.54,1.47,18.72-.6,27.18-5.22,13.94-7.63,27.62-15.87,43.41-19.22a79.42,79.42,0,0,1,13.28-1.24c9.82-.39,19.65-.52,29.47-.91,1.79-.07,3.56-.87,5.34-1.33,0-.36-.07-.73-.1-1.09-2.61-.2-5.21-.5-7.82-.59Q735.51,161.14,721.25,160.79Z"/><path class="cls-1" d="M461.65,131.28h0Z"/><path class="cls-1" d="M426,138.57h0Z"/><path class="cls-1" d="M77.84,227.83c3.83,1.14,7.68,2.21,11.52,3.31l.51-.63a11.34,11.34,0,0,0-1.49-2.08c-6.92-6.25-12-10.54-21.74-11.19-7.78-.52-16,1.27-23.47,1.88-2.65.21-5.35-.06-8.36-.12.35,1,.4,1.66.64,1.73C42.53,222.9,49.24,227,57,225.89A48.7,48.7,0,0,1,77.84,227.83Z"/><path class="cls-1" d="M606.67,182.88c-.28-.9-.29-1.37-.48-1.47-5.1-2.57-10.06-5.58-15.4-7.54-6.78-2.48-13.89-4.08-20.84-6.13-2.31-.68-4.55-1.6-6.81-2.4,3.87,4.2,8.27,7.61,13.59,9.36,8.36,2.76,16.83,5.2,25.28,7.67A27.1,27.1,0,0,0,606.67,182.88Z"/><path class="cls-1" d="M161.16,163.12l-.19-.07,0,.1Z"/><path class="cls-1" d="M161,163.05l-.12,0,.1.12S161,163.05,161,163.05Z"/><path class="cls-1" d="M141,177.31a2.46,2.46,0,0,0-.06.3l.59-.12h5.71l2.08-.21a.33.33,0,0,0,.48,0c5.84-1.31,11.64-2.85,17.53-3.89,10.88-1.92,21.78-4.56,32.75-5,9-.34,18.17,2.15,27.28,3.25,5.1.62,10.29,1.71,15.32,1.24a135.35,135.35,0,0,0,23.4-4.1c11.76-3.21,23.55-2.56,35.34-1.44,10.17,1,20.28,2.7,30.36,4.4,5,.85,9.91,2.59,14.93,3.5,5.45,1,11,1.6,16.49,2.18,3.76.4,7.59.24,11.33.73,6.05.78,12.06,1.89,18.09,2.86l8.69,1.34c.08-.35.15-.7.22-1.06l-8.84-2.07c-3.06-.83-6.11-1.69-9.18-2.48-6.23-1.6-12.13-4.42-19-3.46-3.25.45-6.75-.86-10.14-1.37l0-1.28a32.66,32.66,0,0,1,3.28-1.27c8-2.17,16.06-4,23.92-6.52,6.73-2.16,13.31-3.52,20.42-2.25a32.89,32.89,0,0,0,11.65.33c4.92-.95,9.09.21,13.18,2.43a72.62,72.62,0,0,1,8.27,5.14c7.18,5.22,15.49,7.76,23.93,10.2l-23.74-18,.67-1.18c5.93,1.11,11.94,1.55,17.57,4.43,8.07,4.12,14.33,10.29,20.45,16.69a40.42,40.42,0,0,0,14.33,9.72c12.83,5.17,26.33,6.74,40,7.65l6.83.87c.06-.25.12-.5.19-.75l-5.61-1.59-2.86-1-.9-.08-1.62-.7c-8.33-2.37-16.61-4.86-25-7.07-8.67-2.29-16.28-6.12-22-13.25a49.19,49.19,0,0,0-17.06-13.37,11.86,11.86,0,0,1-1.39-1l.52-1c3.52,1.75,7.13,3.34,10.54,5.27,6.89,3.91,13.22,9.35,20.57,11.75,14,4.56,28.54,7.51,42.9,10.94,2.85.68,5.91.46,9.44.7-.85-1-1.13-1.53-1.59-1.75-12-5.68-23.57-12.31-37.07-14-7.82-1-15.53-2.72-22.14-7.3-10.49-7.27-22.51-9.57-34.76-11.37-5-.73-9.81-2.17-14.75-3-4.13-.73-8.39-1.81-12.48-1.45a51.23,51.23,0,0,1-16-1c-6.48-1.48-12.66-.41-18.7,2.18-6.78,2.9-13.66,5.57-20.45,8.47-10.92,4.66-22.27,5.57-33.92,4.13-10.76-1.33-21.51-2.7-32.27-4-3-.35-6.11-.06-9-.71-8.08-1.77-15.9-1.06-23.92.75-6.78,1.53-13.46,4.14-20.77,2.71-8.46-1.66-17.06-2.55-25.51-4.21-6.47-1.27-12.87-3-18.31-7.13a15.55,15.55,0,0,0-12.79-2.83c-7.87,1.65-15.18-.27-22.34-2.9-6.19-2.28-11.82-1.25-17.51,1.39s-11.7,5.31-17.56,8l-.91-.11h0l-1,0-3.15.95-1.73,1.49h.83l5.75-.25,1.32,0c4-.65,8.27-.67,12-2.09a39.56,39.56,0,0,1,22-1.87,57.94,57.94,0,0,0,18.6.81c7.39-1.07,12.91,2.08,19.34,5.3a20.79,20.79,0,0,1-2.84,1.16c-5.78,1.31-11.7,2.15-17.32,3.93-10.23,3.22-20.3,7-30.42,10.57a9.06,9.06,0,0,0-2.1,1.51h-.85l-.06,0-.84,0-2.92.92-5.25,1.27v0A5,5,0,0,0,141,177.31Z"/><path class="cls-1" d="M421,83.67l1.17-.42,1-.84c4.34,1.32,8.6,3.36,13,3.79,9.44.94,18.95,1.12,28.44,1.42,1.92.06,3.87-.7,5.8-1.08-8.94-2.73-17.61-5.21-26.83-4.53a125.07,125.07,0,0,1-14.35-.24c-2.5-.11-5-.54-7.48-.82-1.7.1-3.4.18-5.09.33-4.45.39-8.89,1.12-13.35,1.16-7.13.07-14.27-.63-21.4-.42-6.23.18-12.43,1.39-18.67,1.72-11.31.59-22.17-3.63-33.65-3-9.16.52-17.75,1.94-25.29,7.13-10.31,7.1-20.55,14.34-30.43,22-8.91,6.91-18.69,10.27-29.89,9.83a26.26,26.26,0,0,0-4.28.55l-1.88.74.19.58,2.54.4.24-.14-.14-.24,1.45.48,8.69,1.58c-1.4,1-2.19,1.9-3.16,2.2-8.58,2.6-17.12,4.7-25.56-.72-1.82-1.16-4.21-1.47-6.38-2a27.48,27.48,0,0,0-4.22-.29c2.14,1.64,3.31,2.72,4.64,3.52,5,3,9.37,7.79,15.79,7.5,4.88-.22,10-.57,14.53-2.1,7.19-2.41,14.07-5.78,21-8.9a36.76,36.76,0,0,0,8.49-5.39c4.22-3.52,9.22-6.12,14-9,5.67-3.39,11.32-6.83,17.2-9.81a28.39,28.39,0,0,1,10.34-3.34,135.59,135.59,0,0,1,28.8,1.05c6.3.88,12.73,3.12,19.37.83,2.59-.89,5.69-.24,8.35-1,6.29-1.81,12.5-1.63,18,1.61,10.22,6,21,7.32,32.4,5.31,8-1.42,16.08-2.79,24.1-4.3a21.24,21.24,0,0,0,4.08-1.67c-2.67-1.4-5.11-2.51-7.49-2.39-9.29.47-18.62.88-27.82,2.18-9.66,1.35-16.8-2.55-22.27-8.09,3.63-.25,8.27-.1,12.7-1S416.54,85.13,421,83.67Z"/><path class="cls-1" d="M998.53,216.24l1.21-.25,1.12-.7c4.11,1.89,8.06,4.49,12.38,5.52,9.22,2.2,18.62,3.67,28,5.26,1.9.32,3.93-.18,5.9-.3-8.49-3.91-16.75-7.54-26-8.11a124.74,124.74,0,0,1-14.19-2.18c-2.46-.45-4.87-1.21-7.3-1.83-1.69-.12-3.39-.28-5.08-.36-4.47-.22-9-.09-13.39-.65-7.07-.91-14.06-2.56-21.14-3.32-6.2-.67-12.51-.31-18.73-.83-11.29-.94-21.48-6.6-32.94-7.5-9.15-.73-17.86-.48-26,3.64-11.18,5.64-22.3,11.43-33.13,17.69-9.76,5.64-19.91,7.66-31,5.7a24.78,24.78,0,0,0-4.31,0l-2,.47c0,.2.08.4.11.6l2.47.74.25-.1-.11-.25,1.37.67,8.4,2.74c-1.52.8-2.42,1.58-3.42,1.74-8.86,1.43-17.61,2.35-25.24-4.16-1.64-1.4-4-2-6-2.87a27.58,27.58,0,0,0-4.14-.86c1.9,1.92,2.9,3.15,4.11,4.12,4.58,3.66,8.24,9,14.64,9.57,4.86.44,9.94.77,14.68-.12,7.44-1.42,14.71-3.82,22-6a36.51,36.51,0,0,0,9.14-4.18c4.65-2.92,10-4.83,15.06-7,6.07-2.58,12.13-5.23,18.36-7.39a28.39,28.39,0,0,1,10.7-1.9,135.86,135.86,0,0,1,28.39,4.93c6.13,1.74,12.2,4.82,19.08,3.45,2.69-.53,5.67.54,8.41.14,6.48-.95,12.61.08,17.63,4,9.31,7.35,19.79,10.09,31.38,9.64,8.15-.32,16.31-.59,24.46-1a22.4,22.4,0,0,0,4.27-1.11c-2.46-1.74-4.73-3.18-7.1-3.38-9.27-.79-18.57-1.65-27.85-1.61-9.77,0-16.31-4.8-21-11,3.63.25,8.2,1,12.71.75S993.94,217.09,998.53,216.24Z"/><path class="cls-1" d="M402.85,74.38c6.27-.56,12.47-1.81,18.68-2.88.81-.14,1.48-1.07,2.21-1.63l-.39-.85c-16.29,1.7-33.1-2.69-49,4.73a51.11,51.11,0,0,0,10.43,1C390.82,74.74,396.87,74.91,402.85,74.38Z"/><path class="cls-1" d="M369.42,107.08l-4.39.77c.36.41.71.82,1.07,1.22l3.59-1.12Z"/><path class="cls-1" d="M437.42,48.93l-.84-.38-.16.3,1,.55C437.41,49.25,437.41,49.09,437.42,48.93Z"/><path class="cls-1" d="M629.33,165.55c10.31-2.35,20.17-6.41,30.47-8.81,8.38-2,17-2.77,25.53-3.59l27.5-2.64c-21.77-3.59-45-7-65.19,1.88-6.24,2.76-12.06,6.65-18.71,8.16-8.44,1.91-18.59-1.43-26.4,1.9C605.85,170.88,622.71,167.06,629.33,165.55Z"/><path class="cls-1" d="M987.42,170.45c9.51,3.09,18.88,1.71,28.43,1.15a141.69,141.69,0,0,1,26.22.42c19.3,2.48,37.24-.93,53.92-10.68,10.51-6.14,20.77-12.7,31-19.31,15.85-10.24,33.35-13,51.7-11.52,15,1.22,30,2.29,44.93-.89a7.58,7.58,0,0,1,2.71-.23c6.74,1.08,13.23-.51,19.5-2.44,16.84-5.17,33.63-6.49,50.78-1.54a212.63,212.63,0,0,0,22,4.81c4.57.81,9.28.81,13.92,1.21,3.47.3,7.14,0,10.35,1.12,9.86,3.34,19.52,7.26,29.31,10.83a80.16,80.16,0,0,0,7.9,2c.09-.31.19-.61.28-.91l-6.63-4.33-1.56-.78a.25.25,0,0,0-.35-.19l-1.65-.87-2.79-1.48-1.06-.4-2.33-1.05-1.12-.44-.81-.56L1360,133c-.58-.52-1.17-1-1.76-1.54l-1.62-1.07-1.29-.88-1.61-.9-4.55-3.07a7.15,7.15,0,0,1,1.61-.58,84.49,84.49,0,0,1,26,4.56c2.84,1,5.72,1.94,8.58,2.9l1.89.8.08,0,11.84,5.32.58-1.26-12-5.6a.47.47,0,0,0-.47-.28l-.23-.07.23.07-.56-.37-3.82-2-.54-.39c-2.28-1.29-4.42-3.07-6.87-3.78-4.87-1.39-9.91-2.2-14.87-3.24-5.87-1.22-11.88-2-17.57-3.75-11.14-3.48-22-7.68-33.15-11.29-3.56-1.15-7.42-1.37-11.15-2a.43.43,0,0,0-.45-.26l-1.15-.33-1.32-.07-4.11.37a.45.45,0,0,0-.55.23l-1.14,1.24-.06.58.54-.18,2.53-.25,2.32.24.09,0,.95.15-.07,0,1.22.26a.2.2,0,0,0,.34.1l1,.2,1.41.36,1.14.3a.22.22,0,0,0,.33.14l1.13.35c0,.17.16.21.32.14l1.18.4.22.12,1.54.68,2.43,1.18,1.13.46.82.5,1.13.46.79.51,1.14.49.79.49,1.16.49,2.71,1.44,1.1.39,5.18,2,2.47.84,8.55,3.91c-7.48,2-14.31.74-21-2a105,105,0,0,0-30.64-8c-6.05-.54-12.31-.88-18.27.06-16.06,2.55-32,6-48,8.73-3.79.64-7.8,0-12.53-.14,7-4.15,13.17-7.79,19.32-11.41a2.73,2.73,0,0,1,.64-.24,104.27,104.27,0,0,1,29-5.79c9.41-.5,19.17.32,28-3.46,6.88-3,13.27-2,20-.33,9.75,2.44,19.52,4.8,29.28,7.19l5.31,1.53.36-1-5.72-2.34,0,0-1.51-.65c-4-1.85-8-4-12.11-5.48-4.79-1.77-9.78-3-14.66-4.51-7.06-2.2-14.11-4.11-21.64-4.16-9.33-.05-18.65-.79-28-.86a85.92,85.92,0,0,0-14.58,1.23c-7.75,1.28-14.68,5-21.19,9.06-9.74,6.15-20.3,9.5-31.52,11.4-11.66,2-23.42,3.65-34.9,6.44a109.19,109.19,0,0,0-21.56,8.29c-10.07,4.9-18.56,12.21-27.41,19-16.44,12.69-35.3,14.3-55.23,10.41-13.63-2.67-27.64-6-41.42-7.86a64.19,64.19,0,0,0-30,3c1.75,2.08,5,1.73,7.67,1.41,12.75-1.55,29.65,1.26,41.59,5.9a108.74,108.74,0,0,0-23.09,3.8c-6.8,1.82-13,.69-20,1.73-5.67.85-12,2.62-17.74,1.92-4.64-.56-8.34-2.06-13.24-2.06-3,0-34.62,3.93-34.57,4,1.11,2.45,4.56,2.25,7.24,2,8.89-.68,17.54,2.56,26.43,2.29,8.51-.26,17.07-.94,25.63-1.25C979.41,170.37,983.79,169.27,987.42,170.45Z"/><path class="cls-1" d="M1943.64,208.65c7.52-.06,13.18.1,13.39.74-1.08-3.25-5.12-4.45-8.55-4.31s-7.23,1.65-9.94-.78c4.16-3.32,9.55-6.1,13.91-9.67,4.67-3.82,7.64-7.56,14-8.91,4.24-.9,9.28-.94,11.88-4.41-10.4-1.21-23.17-.95-32.92,3.34-9.2,4-17.33,7.84-27.51,9.56-11.67,2-23.43,3.65-34.9,6.45a109.28,109.28,0,0,0-21.57,8.29c-10.07,4.9-18.56,12.21-27.41,19-16.44,12.69-35.3,14.3-55.23,10.4-13.63-2.66-27.64-5.95-41.42-7.86a64.19,64.19,0,0,0-30,3c1.75,2.09,5,1.74,7.67,1.41,12.75-1.54,29.65,1.27,41.59,5.9a108.76,108.76,0,0,0-23.09,3.81c-6.8,1.82-13,.68-20,1.73-5.66.84-12,2.62-17.74,1.92-4.64-.56-8.34-2.07-13.24-2.06-3,0-34.62,3.93-34.57,4,1.11,2.45,4.56,2.24,7.24,2,8.89-.68,17.54,2.56,26.44,2.29,8.5-.26,17.06-1,25.62-1.26,4-.14,8.41-1.24,12-.06,9.51,3.09,18.88,1.7,28.43,1.15a141.69,141.69,0,0,1,26.22.41c19.3,2.48,37.24-.92,53.92-10.67,10.51-6.14,20.77-12.71,31-19.31,13.33-8.62,30.36-13.72,46.07-14.9C1908,209.77,1929.26,208.78,1943.64,208.65Z"/><path class="cls-1" d="M1953.46,234.23c2-.8,3.86-2,3.66-4-.24-2.33-3.21-3.13-5.56-3.22-18-.71-34.84,3.63-52.9.28-4-.75-7.47-.16-11.37.24-2.91.3-7.51,2.25-9.93,2.23a57.7,57.7,0,0,1,15.13,2.14c6,1.69,11.9,4.54,18.17,5.32,2.33.29,14.26,3,15.47,2.53-7.16,2.92-14.09,2.59-21,.74a104.73,104.73,0,0,0-31.42-3.94c-14.54.59-24.29,5-35.38,14.39-.85.73-1.75,1.93-1.07,2.82,14.48-7.3,34.86-8.53,50.74-6.13a211.94,211.94,0,0,0,22.39,1.92c4.63.21,9.31-.4,14-.61,11.06-.48,17.14-10.8,27.73-14.2C1952.5,234.59,1953,234.42,1953.46,234.23Z"/><path class="cls-1" d="M1414,40.18c8.83,4.86,18.12,7.14,28,8.18a70.24,70.24,0,0,1,19.78,5A43.08,43.08,0,0,0,1476,56c7.16.31,14.35-.2,21.53-.4,1.9,0,3.79-.23,5.68-.35l.67-1.14c-1.12-1-2.23-2.82-3.38-2.85-8.34-.22-16.6.24-24.91-1.92-7.71-2-15.45-3.5-22.53-7.45a17.73,17.73,0,0,0-7.69-2.08c-4.48-.18-9,.52-13.49.45a26,26,0,0,1-8-1.42c-8-2.8-15.41-7.43-24.14-8.2-.35,0-.67-.35-1.59-.86a33.32,33.32,0,0,1,3.66-1.45,32.87,32.87,0,0,1,17.35.54,75.68,75.68,0,0,0,24.12,2.86c7.32-.25,14.8-.73,21.48,3.54,7.21,4.61,15.21,4.09,23.38,3l-24.82-10c0-.44.07-.87.11-1.3,1.76-.86,3.53-2.47,5.28-2.44a104.15,104.15,0,0,1,17.31,1.33,235.08,235.08,0,0,1,25.1,6.05,55,55,0,0,0,19.87,2.27c2.11-.14,4.75.22,6.21-.89,5.68-4.29,10.84-2.89,16.57-.11a37,37,0,0,0,13.21,4c7.93.55,15.93,0,23.9-.18l5.26.34-1.93-1.94-4.39-.56c-4.73-1-9.42-2.52-14.19-2.87A44.13,44.13,0,0,1,1554.89,25a25.63,25.63,0,0,0-17-4.07c-8.94,1.12-17.83,1.84-26.85.84-6.65-.73-13.35-1-20.73-1.54,6-3.55,11.38-5.71,17.8-5.09,4,.39,8.18-.11,12.26-.35a23.89,23.89,0,0,0,4.08-1c-.86-.61-1.1-.9-1.38-1-12.19-2.61-24.18-3.48-36.24,1.32a35.66,35.66,0,0,1-14.35,2.08c-6.39-.26-12.63.11-18.5,2.36-11.59,4.43-23.28,4.87-35.27,2.3a45.49,45.49,0,0,0-22,1.13,19.23,19.23,0,0,1-3.24.32l-11.12,11.13a21.25,21.25,0,0,0,3.26.36A53,53,0,0,1,1414,40.18Z"/><path class="cls-1" d="M1837,51.57c-11.18,1.07-20.78,6.72-30.84,10.63-9.44,3.67-17.39,1.61-25.87-1.07-.07-.33-.13-.67-.2-1l8.76-2.28c-.11-.39-.21-.78-.32-1.17-1.21-.06-2.44,0-3.64-.19-7.3-1-14.73-1.58-20.92-6.38-8.81-6.83-18-13.19-26.46-20.43-12.82-11-27.47-13.59-43.61-11.48-8.21,1.07-16.41,2.2-24.79.74-9.85-1.72-19.78-3-29.86-1.64-2.3.32-4.74-.26-7.11-.49-3.45-.33-6.9-.72-10.35-1.08l4.35,4.36a9.57,9.57,0,0,1,2.61.42c5.15,2.4,10.55,2.57,16.06,2a19.77,19.77,0,0,1,2-.08c.19,0,.37.19,1.13.6-12.72,7.87-20.46,11.67-36,11a37.81,37.81,0,0,0,25.2,1.91c2.65-.73,5.22-1.76,7.87-2.52,11.8-3.39,25.14-2.08,37.19-.82a7.56,7.56,0,0,1,3.9,1.22c8.07,6.78,16.65,12.44,27,15.27,6.32,1.73,12.32,4.65,18.51,6.88,4.27,1.53,8.6,2.91,13,4.11,1.37.38,2.95,0,4.44-.06.06-.29.11-.58.16-.87-2-1.15-4.15-2.16-6.08-3.46a113.67,113.67,0,0,0-33.44-15c-6.7-1.87-13-5-19.54-7.63,9.52-3,19-2.33,28.31-1.47A23.76,23.76,0,0,1,1728,35c9.85,5.83,19.51,12,29.2,18.09a10.29,10.29,0,0,1,2,2.22l0,.05h.08l0-.09a12.2,12.2,0,0,0,2,1.61c7.06,3.42,14,7.12,21.27,10.07,6.92,2.83,14.26,4.59,21.5.9,10.44-5.3,21.81-6.56,33.14-8.08l16.45-16.45c-2.68,1.4-5.34,2.82-8,4.19S1840,51.3,1837,51.57Z"/><path class="cls-1" d="M1005.25,18a25.35,25.35,0,0,1,5.84,1c11.33,3.32,23.24,5.72,35.07,5.85a50.37,50.37,0,0,1,26.91,7.8,29.54,29.54,0,0,1,3,2.58l-.44.63-15.23-.46-.29,1.09a17,17,0,0,0,3.21,1.5c7.29,1.79,14.62,3.4,21.9,5.22,5.4,1.35,10.71,3.11,16.14,4.33,3.93.89,8.08,2,12,1.58a51.47,51.47,0,0,0,15.43-4c10.67-4.84,21.09-6,31.91-.82a35.17,35.17,0,0,0,16,3.05c5.91-.06,11.83.54,17.75.8,2.68.11,5.37.08,8,.12l2.63,1.63L1192,53.57c1.2.57,2,1.24,2.8,1.27,8.07.32,16.2,1.23,24.2.55a41.18,41.18,0,0,0,16.69-5.11c6.13-3.55,11.18-8.92,16.85-13.31,6.12-4.73,12.13-9.91,20.77-8.73,7.33,1,14.17-.93,21.1-3.07,7.14-2.22,14.51-3.72,21.79-5.49a5.69,5.69,0,0,1,2.36,0c6,1.24,12,2.45,18,3.83,8.69,2,17.82,3.24,26.63,1.18A31.74,31.74,0,0,0,1375,19.44c3.37-2.52,6.45-3,10.71-3q12.82.06,25.62.91c3.84.26,7.85.54,11.43-.89,0-1-1.14-1.57-2.08-1.91-9.79-3.57-19.69-7.17-30-8.75-10.05-1.53-19.85.28-29.93.19-5.74,0-11.3-2.85-17.21-1.42,8.64,5.28,17.81,8.18,28.17,6.68a62.87,62.87,0,0,1-8.92,6.49c-5.24,3.07-11,1.77-16.35.77-2.6-.49-5.1-2.23-8.16-2.43-5.06-.34-10.28-.64-15.09-2.09a39.46,39.46,0,0,0-27.33,1.19c-5.85,2.42-11.59,2.42-17.68.89-3.89-1-8.58-2.33-12-1-7.81,3-15.47,2.38-22.82.28-7.55-2.17-13.48-.05-19.06,4.24-9.11,7-18.76,12.28-30.67,12.67-3.39.12-6.73,1.92-10.09,3,12.75,3.41,25.39,4.48,36.54-3,8.19-5.52,17.16-7.6,26.46-9.3a31.91,31.91,0,0,1,4.86-.07c-4.83,4.83-9.12,8.76-13,13.07-6.79,7.55-14.92,11.76-25.23,11.25l-9.49-.36a76.27,76.27,0,0,1-8-.92c-6.77-1.46-13.43-3.47-20.24-4.64-5.77-1-10-4.16-14.22-7.5,9.93-3.53,19.64-7.06,29.42-10.38a20.2,20.2,0,0,1,7.35-1.22,29.23,29.23,0,0,0,16-4.17,71,71,0,0,1,9.24-4.39c5.16-1.95,10.43-3.59,15.66-5.37l-1.09-1.23-3.24.48-1.06.12-1,.13-1.38.42c-7.6,1.16-15.18,2.41-22.79,3.45-2.34.32-4.77-.07-7.13.12-4.12.33-8.44.21-12.3,1.44-6.79,2.18-13.29,5.3-20,7.9a31.89,31.89,0,0,1-6.88,1.94,65.42,65.42,0,0,0-21.64,7,124.41,124.41,0,0,1-18.12,7.91,31.7,31.7,0,0,1-13,1.91c-7.08-.73-14-2.68-21-4.22-8.59-1.91-13.74-9.1-20.35-13.93-5.42-4-10.7-6-17.23-5.42-13.33,1.27-26.59-.8-39.7-3-10.59-1.75-22.18-5-32.31.09-4.49,2.27-8.42,5.81-13.31,7-4.06,1-8.33.23-12.49.66-3.72.39-7.27,1.72-10.86,2.78a77.46,77.46,0,0,1-27.21,3c-1.11.93.89,2.32,2.34,2.37,19.91.71,40.2,1.38,59.39-4C986.25,22.32,995.45,17.42,1005.25,18Z"/><path class="cls-1" d="M1661,95a64.2,64.2,0,0,0,7.84,1.85c10.43,1.66,21.25-1,30.79-5.17,5.65-2.45,11.13-5.43,17.11-6.88,16.15-3.92,30.47,2,45.7,6.43a143.36,143.36,0,0,0,37.9,5.54l41.82.54c4.7.06,9.54.1,13.89-1.68-.83-3.32-5.42-3.51-8.83-3.08a143.31,143.31,0,0,1-53.58-3.3c-1.08-.27-2.33-.72-2.65-1.79-.55-1.8,1.88-3,3.75-3.23,38.76-5.85,78.31-1.71,117.42-4.42,2.92-.2,6.41-.84,7.5-3.56-10.46.83-21,.72-31.47.61l-78.58-.81c-23.57-.24-48.27,1.65-70.54-7.58-5.71-2.37-11.43-5.13-18-4.87-1.08,0-2.33-.87-3.3-1.61-4.87-3.74-10.33-4.86-16.35-4.12-4.92.6-9.42-.53-14.18-.16-5.14.4-10.45,1.37-15.66,1.79-.23.78.88,1.2,1.69,1.24,5.27.23,10.31,1.68,15.53,1.68,4,.15,7.94.17,11.9.33a41.34,41.34,0,0,1,4.1.6c0,.33,0,.66,0,1l-9.68,2.23c1.19,3,3.34,2.64,5.32,2.84,6.1.61,12.21,1.23,18.29,2,1.31.17,2.53,1.09,4.71,2.09-1.66.53-2.24.73-2.81.9-5.31,1.61-10.91,2.61-15.85,5-5.33,2.58-10.1,1.53-15.15,0-1.51-.46-3-1.25-4.54-1.32-7.55-.35-14.64-2.25-21.77-4.76-12.21-4.29-29.09-.49-41.73.42q-23,1.67-46,4.29a186.17,186.17,0,0,0,53.9-.9c6.47-1.06,13.63-2.78,20.15-1.13s13.08,4,19.82,5.52c3.5.79,7.15.87,10.74,1.3a43.8,43.8,0,0,1,7.67,1.44c-4.24,2.74-8.47,5-13.62,5.16-9.46.38-18.48-1.85-27.51-4.12-6.16-1.54-11.57-2.71-17.7-.39-3.2,1.21-6.36,2.74-9.77,3-2.13.17-4.43-.13-6.28.94.71,1,2.1,1.06,3.29,1,7.49-.11,15-1.3,22.48-.66C1646.52,90,1653.65,92.9,1661,95Z"/><path class="cls-1" d="M1385.28,195.45c-7.22,2.08-14.46,4.14-21.75,5.94-11.17,2.76-22.29,3.69-33.77.75-6.63-1.7-13.76-1.51-20.67-2-4.71-.36-9.57.13-14.11-.89a90,90,0,0,1-17.6-5.91c-9.7-4.47-19.88-5.4-30.28-5.48a7.21,7.21,0,0,0-2,.6c-.07.35-.13.71-.2,1.07,3,1.09,6,2.72,9.07,3.19,11.7,1.79,22.16,6.9,32.41,12.26a77.3,77.3,0,0,0,21.38,7.73c7.1,1.37,13.87,3.77,19.73,8.17,5.3,4,11.08,5.65,17.64,4.31,1.59-.79,4.66.23,4-3.3-2.49-1.83-5.47-1.33-8.21-1.91a54,54,0,0,1-12.84-5c-2.89-1.44-5.36-3.74-8-5.65l-.28,0,.18-.3.11.23c5.25-.22,10.51-.37,15.76-.67,7.4-.43,14.79-1,22.19-1.45l5.82-.44c3.27.2,6.55.63,9.81.56,9.76-.21,16.67,2.2,25.38,5.83,2.76,1.15,5.84,1.16,8.83,1.16l36.42,0c2.32,0,4.82-.07,6.65-1.48l-.42-1.46c-22.45,2.34-42.63-1.52-63.86-8.08,7.73-2.82,13.11-2,20.81-.62,7.16,1.29,14.49,1.1,21.72.92,18.38-.44,36.87-.9,54.85-4.72,1.15-.24,2.63-1.22,2-2.2-5.21-1-10.57-.36-15.86.07a248.3,248.3,0,0,1-44.3-.33C1412.36,195,1398.65,191.59,1385.28,195.45Z"/><path class="cls-1" d="M1623.08,48.62c4.8,1.86,9.33,4.49,14.21,6a61.42,61.42,0,0,1,11.47,5.11c3.82,2.09,8.14.93,12.27.93.2,0,.4-.44.85-1-3.18-.54-6.11-1.09-8.6-3.38l6.86-1.06.09-1a11.06,11.06,0,0,0-3.17-1.09c-10.13-.17-18.6-4.94-26.91-9.9a21.09,21.09,0,0,0-14.07-3.07,59.24,59.24,0,0,1-7.89.2c-1.6,0-3.21-.29-4.81-.27-1.88,0-3.77.23-5.65.36l3.74,3.75a10.62,10.62,0,0,1,1.39.06c4,.72,8,1.38,12,2.2A50.85,50.85,0,0,1,1623.08,48.62Z"/><path class="cls-1" d="M1400.77,246.05a4.07,4.07,0,0,0-2.84,0c-3.33.77-6.77,2.49-10.08,3s-7.27-.35-10.78-.32c-9.22.1-17,5.11-25.8,5.88-7.71.68-12.85,1.45-20.09,4.44-1.21.5-2.41,1.06-3.61,1.65-9.18,4.53-17.78,11.14-27.71,12.31a153.17,153.17,0,0,1-24.6.92c-4.36-.19-9-.5-12.79,1.67a91.26,91.26,0,0,1,25.53,3.78c6.61,2,13.48,2.57,20.23,3.85,6.56,1.25,11.88,3.85,18.77,2.54a65.7,65.7,0,0,0,12.61-4.26l14.11-5.87c-6.77-1-13.77-1.93-20.36-.12-3,.81-5.81,2.18-8.85,2.8-4.59.93-9.34.09-14-.76,2.47.46,10.19-3,12.92-4,6.11-2.29,11-6.7,16.78-9.21,6.4-2.76,13.6-2.5,20.17-4.69a140.5,140.5,0,0,1,21.59-5.07C1384.26,254.22,1405,248.32,1400.77,246.05Z"/><path class="cls-1" d="M1393.38,169c-10-5-19.85-5.93-30.07-1.09a33.19,33.19,0,0,1-4.37,1.93c-6.86,2.1-13.74,3.66-21.08,3.09-4.2-.33-8.49.51-12.74.82v1.16a82.84,82.84,0,0,0,8.2,1.57c3.83.35,7.72.07,11.54.51,5.75.66,11.3,1.48,17.24.37a107.56,107.56,0,0,1,23.4-1.9c7.62.27,15.72-1.6,22.79,3.12a2.66,2.66,0,0,0,.66.18c8,2.32,16.56,5.09,24.77,6.55a66.5,66.5,0,0,0,12.3.65l52.14-.45c3.35,0,6.77-.07,9.88-1.29-.59-1.62-2.66-2-4.39-2.12-16.42-1.07-32.9-.58-49.32-1.58a279.64,279.64,0,0,1-47.35-7.46C1402.37,172,1397.55,171.1,1393.38,169Z"/><path class="cls-1" d="M1789.3,140.9c-10-5-19.86-5.93-30.08-1.1a34.5,34.5,0,0,1-4.36,1.94c-6.86,2.1-13.75,3.66-21.08,3.09-4.2-.33-8.5.5-12.75.81,0,.39,0,.78,0,1.17a80.33,80.33,0,0,0,8.19,1.56c3.83.36,7.73.08,11.55.51,5.74.66,11.29,1.49,17.24.37a108.07,108.07,0,0,1,23.4-1.89c7.61.26,15.72-1.61,22.79,3.12a2.14,2.14,0,0,0,.65.17c8.06,2.32,16.56,5.09,24.78,6.56a67.38,67.38,0,0,0,12.3.65l52.14-.45c3.34,0,6.77-.08,9.88-1.3-.59-1.62-2.67-2-4.39-2.11-16.42-1.08-32.9-.59-49.33-1.58A279.38,279.38,0,0,1,1802.9,145C1798.29,143.87,1793.47,143,1789.3,140.9Z"/><path class="cls-1" d="M1808.47,31.55c9.43,2.68,18.64,4.05,27.74-1a19.89,19.89,0,0,1,2.5-1.09,51.51,51.51,0,0,1,22.32-3.6c3.76.25,7.58-.26,11.37-.42l.26-1.42a47.64,47.64,0,0,0-7-1.75c-3.82-.38-7.7-.22-11.54-.47-4.18-.28-8.37-1.3-12.5-1-8,.5-16,1.85-24,2.48-4.17.32-8.41-.31-12.62-.22-13.19.28-26.32,3.27-39.75,3.13-4.35,0-8.9-.19-12.83,1.69,5.25,4,12.66,2.61,19.26,2,6.9-.67,13.13.68,19.91,1.15C1797,31.38,1803,30,1808.47,31.55Z"/><path class="cls-1" d="M1388.23,220q3.3,0,6.56-.21a34.9,34.9,0,0,0-4-2.15c-1.46-.54-3-.9-4.56-1.34-3.07-.87-6.26-1.63-9.39-2.24a64,64,0,0,0-17.53-.93l-.36.05c-2.92.4-9.6,2.65-11.69,1.36,3.37,2.09,4.72,3.62,8.87,4A308.39,308.39,0,0,0,1388.23,220Z"/><path class="cls-1" d="M1576.13,151.25c12.55,1.75,25.79,6.62,38.15,1.78,4.22-1.65,8-4.4,12.35-5.66,5.75-1.67,12.36-.72,17.37-4-.73-1.58-2.87-1.74-4.6-1.68-12.09.47-24.18.38-36.27,1-6,.31-12.28.25-18.22,1.16-1.78.28-7.56,2.57-6.55-1.64.33-1.38,5.91-3.94,7.1-4.66a74.73,74.73,0,0,1,17.43-7.69c4.16-1.23,8.42-2.09,12.67-3l36-7.3c-8.3-1.94-16.94-1.6-25.44-1a88.24,88.24,0,0,0-18,2.68c-10.3,3-19.28,9.19-28.62,14.44-16.91,9.51-34,9.6-52.93,9.32-11.21-.17-22.39-.19-33-4.48-7.23-2.93-14.56-6.73-22.17-9-6.77-4.26-14.38-5.29-22.55-3.9-2.89.49-5.63,1.84-8.52,2.43-7,1.44-14.06,2.06-21.25.73-4.16-.77-8.48-.6-12.73-.85,0,.4-.09.79-.13,1.19a11.49,11.49,0,0,0,2.3,1c6.3,1.33,12.8,2,18.88,4s11.79,1.44,17.8,1.5c7,.07,14.87,0,21.66,1,4.52.62,8.09,3.52,12.13,5.37,4.36,2,9.62,3.13,14.28,4.34,1.61.42,3.22.76,4.84,1,10.9,1.87,22,.81,33,1.28,7.6.32,15.2.56,22.81.63,6.84.06,13.43-1.08,20.24-.31Z"/><path class="cls-1" d="M1402.34,229.38a16.48,16.48,0,0,0-8.36.75,61.5,61.5,0,0,1-8.14,2.37c-5.48.87-11.79-.65-17.38-.8-6-.16-12.06,0-17.63,2.48l-4.36,1.92-38.43,17a60.13,60.13,0,0,0,15.93-3.75c4.31-1.66,8.42-3.81,12.73-5.44a63.11,63.11,0,0,1,17.9-4.15c3.16-.21,6.07.4,9.17.54,3.26.15,6.38-.71,9.67-1.44a48.93,48.93,0,0,0,7-1.9c1.72-.66,3.36-1.51,5.13-2a27.52,27.52,0,0,1,8.6-.57l14,.54C1407.68,232.1,1405.1,230,1402.34,229.38Z"/><path class="cls-1" d="M1780.23,162.3a23.05,23.05,0,0,0,2.15,1c7.4,3,30.88,4.49,23,3.32,3.48.52,11.13,1.7,15.77,2.91,2.8.73,27.38,7.42,27.38,8.67-2.86,2.51-7,2.86-10.76,3a218.12,218.12,0,0,1-38-2.05c-3.84-.54-8.72-.69-10.5,2.75,7.48-1,14.53,3.16,21.7,5.48,15.9,5.17,33.29,1.52,49.15-3.79s31.4-12.31,48.05-13.94c6.29-.62,12.64-.44,19-.43a388.52,388.52,0,0,0,51.36-3.29c-2.69-2.6-6.77-3-10.51-3.16-30.66-1.49-61.36,1.12-91.93,3.9-16.28,1.48-33.34,3.18-49.12-2-7.39-2.4-15.22-2.91-23.05-3.19-4.27-.16-8.54-.19-12.82-.26-1.87,0-10.93,1-12.06-.31C1779.79,161.83,1780,162.15,1780.23,162.3Z"/><path class="cls-1" d="M1007.4,208.88c-20.75-4.46-42.89-8.15-63.81-2.39l36.39,4c3.57.39,28-1.94,28.73-.26C1008.33,209.34,1007.89,209,1007.4,208.88Z"/><path class="cls-1" d="M1036.64,265.92a62.62,62.62,0,0,1-13-5.65c-6.37-3.67-12.12-8.47-18.94-11.21s-14.19-3.24-21.47-3.74l-24.19-1.63c13.79,11.35,34.83,6.33,51.22,13.42,3.89,1.68,17.18,7.09,15.72,12.73-.39,1.5-1.52,2.86-1.33,4.4.38,3.25,30.82-5,31.89-2.18-1.57-4.17-9.42-3.73-13.23-4.47A61.69,61.69,0,0,1,1036.64,265.92Z"/><path class="cls-1" d="M1467,90.68l.6.11a10.9,10.9,0,0,0,4.64.31c-.35-2.89-7.11-4.73-9.29-5.61l-4.7-1.87a50.22,50.22,0,0,0-5.18-1.52l-1-.2h.12l-3.39-.58-7-1-.13-.17-.2,0-6.24-2.51-2.45-.64h0l-1.45-.37-1.49-.42-6.75-2-1.49-.42-2.41-.62.07,0-1.51-.39-.84-.25a.34.34,0,0,0-.53-.09l-.12,0-13-4.52-2-.94-15.44-8.11v0l-6.81-2.49c-4-1.9-8.11-3.54-11.88-5.8-3.49-2.08-6.59-4.82-9.87-7.27l-.81-.92,1.22-.58h.13l.84,0,.11,0,.94.11h0l3.41.63h-.06l2.47.43h0l2.45.39c3.2.68,6.44,1.2,9.58,2.07,3.79,1.06,7.43,2.77,11.26,3.57,7.76,1.62,15.63,2.63,23.42,4.08,7.61,1.42,14.91,3.76,22.37,5.7.78.21,1.82.31,2.2-.4a84.07,84.07,0,0,1-11.43-5.19c-3.55-2.06-6.81-4.64-10.47-6.5a30.59,30.59,0,0,0-9.09-2.92c-2.73-.42-6-1.32-8.79-1.08-9.57.85-19,.56-28.2-2.58a.27.27,0,0,0-.4-.15l-1.21-.36-.05-.17-.18,0-1.43-.54-2.92-1.11h.06l-3.13-1.11q-.11-.26-.36-.12l-1.06-.29a.3.3,0,0,0-.42-.17l-1-.22h.11c-1-.32-2-.63-2.92-1l-4.81-1.92-1.48-.45-1.45-.35h0l-1-.16h.15l-1.52-.32h0l-1-.15,0,0-5.77-.91s-.07,0-.06,0l-1,0-.94.07h0L1330.63,32h0l-3.4,1.75-.18,0-.08.16-3.59.85-1-.08-6.28-.4h0l-5.8-.16h.05L1307,33.7l-4.84-.06-1,0-.82-.07-1,0-1.15-.08-.73,0a10.59,10.59,0,0,1-.91.63,9.56,9.56,0,0,1-.94.51,9.56,9.56,0,0,0,.94-.51,10.59,10.59,0,0,0,.91-.63l-7.85,1-12.93,1.38-1.08.24-7.51.94-5,1.69c.08.29.17.57.26.85l5.92-1,4.94-.44,1.42.05h12.79a.23.23,0,0,0,.38,0l1.58,0a.21.21,0,0,0,.36,0l1.78-.53,6.33.3.9.15,1,0,1.11.15,2.31.15.87.05,1,.08,1.07.13-.12,0,2.63.59a.24.24,0,0,0,.38.11l1,.22,1.36.36,1.42.38.06,0,1.1.29a.29.29,0,0,0,.42.15l.85.18,3.91,1h0l2.46.48-.08,0,1.28.22,1.24.16,1,.08,2.36.49,1.49.46,2.91,1-.06,0,1.56.53,1.36.44,3.5.58,1.39.3,12,5.41,1.58,1.3,11.53,7h0l1.41.5,1.47.44L1371,62a.34.34,0,0,0,.46.15l.94.23a.5.5,0,0,0,.51.25l1.16.46.16.13,1.43.59,1.43.5,11.61,3,2.16.65.82.16,1.43.44h0l3.81,1.09,1.47.42,1.16-.12-1.16.12,18.16,6.61.08.15.16,0,1.44.54,2.08.82.94.26a.43.43,0,0,0,.5.22l.87.21,0,0,9.27,3.39a.45.45,0,0,0,.5.27l3.32,1.56,1.42.53,1.47.45,2.43.5h0l1.09.12-.13,0,2.44.26h0l.95.08c3.45.92,7.1,2.26,10.62,2.66C1459.64,89.09,1463.33,90,1467,90.68ZM1294.11,35.14a8.25,8.25,0,0,0,1-.31A8.25,8.25,0,0,1,1294.11,35.14Z"/><path class="cls-1" d="M986.08,134.54c-.38.63.69,1.53,1.57,1.74,13.81,3.29,28.71,6.52,41.85,1.15,9.3-3.81,19-8.26,29.16-9.61a93.88,93.88,0,0,0,33.51-10.9c8-4.48,15.5-10,23.55-14.44,9.39-5.18,20.1-6.45,30.36-9,10.81-2.68,21.63-3.89,32.83-2.36,15.12,2.07,30.25,2.46,44.81-3.84-1.12-2.36-2.52-4.6-5.92-4.27-12.48,1.21-24.87.7-36.85-3.15-14.21-4.55-28.2-3.64-42.35.22-6.42,1.75-12.77,4.31-19.75,3.15a114.27,114.27,0,0,0-11.56-1.17c-5.45-.36-10.82-.46-16.15,1.6-4,1.53-8.34,2.54-12.3-.66a3.42,3.42,0,0,0-2.28-.6c-4.94.59-9.81,1-14.19,4.08-7.74,5.38-13.82,9.78-23.09,11.75s-18.36,5.19-27.34,8.4c-4.16,1.49-8.4,3-11.94,5.67l28.31-1.6c10.74-.61,20.66-2.74,29.81-8.61,5.24-3.37,12.08-4.32,18.26-6.19,5.75-1.74,11.55-3.37,17.4-4.78,4.41-1.07,8.93-1.7,13.4-2.53l.42,1.29a26.2,26.2,0,0,1-2.18,1.76c-4.36,2.88-9,5.42-13.08,8.64-10.94,8.61-23.69,13.12-37,16-6.91,1.49-13,3.16-18.92,6.75s-12,7.19-19.1,8.55a68,68,0,0,1-7.13.84l-24,1.95A.75.75,0,0,0,986.08,134.54Z"/><path class="cls-1" d="M1684.9,107.56a79.85,79.85,0,0,1-30.15-6.48c-11.33-5-23-5.48-35-3.54-5.46.88-10.93,2.45-16.59.87a94.3,94.3,0,0,0-9.45-2c-4.47-.78-8.9-1.33-13.48-.1-3.42.92-7.11,1.37-10.1-1.62a2.81,2.81,0,0,0-1.83-.7c-4.13,0-8.2,0-12.08,2.13-5.92,3.25-11.54,7.3-18.65,7.85-9.36.72-18.45-.77-27.56-2.7-7.3-1.55-14.67-2.79-22-4-1.52-.24-3.19.37-4.79.59,11.33,4.75,22.41,9.09,33.7,12.78,11.62,3.8,23.06,3.7,34.46-2,4.63-2.33,10.36-2.51,15.62-3.51,4.91-.93,9.84-1.78,14.8-2.43,3.73-.49,7.52-.62,11.29-.91l.23,1.1c-.65.43-1.27.91-2,1.27-3.86,2-7.9,3.68-11.56,6-9.8,6.16-20.72,8.76-31.94,10-6.26.67-12.29,1.39-18.12,4-5.21,2.34-11.07,3.15-16.3.64-7.84-3.76-16.49-6.06-23.21-12-1.72-1.52-3.1-3.66-5.08-4.65-6-3-12-6.58-18.35-8-6.84-1.48-13.51-5.38-21-3.28-.59.16-1.31-.23-2-.23a36.86,36.86,0,0,0-4.21.15c-4.6.5-9.17,1.4-13.77,1.5-2.94.06-3.74,1.31-4.13,4,1.18,0,2.17,0,3.17.09,7,.24,14-1.3,20.87.81,3.71,1.13,7.48,2.13,11.09,3.51,5.53,2.11,11.24,4,16.35,6.88,3.11,1.75,6.44,3.51,9.76,5,1.71.77,3.48,1.39,5.2,2.13,1.4.59,2.54,1.5,4,2.09a133.38,133.38,0,0,0,22.27,7,5.21,5.21,0,0,1,1.07.57,2.8,2.8,0,0,1-.67.21c-7.33-.48-14.71-.5-21.93-2.13l-1-.19-3.48-.53-.77-.11-3.08-.52-1.23-.24-8.41-1.44c-.25.46-.51.91-.76,1.36l1.4.38.91.31a.25.25,0,0,0,.33.16l.77.25,1.12.41.86.28c1.45.38,2.89.75,4.33,1.16,6.69,1.89,13.41,3.74,20.07,5.73,11.39,3.39,22.18,1.37,32.94-2.91a37.65,37.65,0,0,1,12.63-2.59,77.86,77.86,0,0,0,28.64-6.07c7-3,13.67-6.89,20.71-9.86,8.21-3.45,17.17-3.56,25.87-4.76,9.16-1.27,18.21-1.31,27.32.93,13.24,3.26,29.64,5.38,43.29,4.64,8.85-.48,17.42-3.13,25.89-5.76l31.59-9.81c-7.2-3.11-15.48-2.5-23.1-.63s-14.9,5-22.55,6.69A91.15,91.15,0,0,1,1684.9,107.56Z"/><path class="cls-1" d="M1267,146.59c4.14-.7,8.48-.7,12.42-2a14.17,14.17,0,0,1,9.26-.28c6.59,2.2,13.39,3.85,20.26,2.5,5.22-1,9.85.09,14.57,1.66s9.7,3.26,14.44,5.16c7.94,3.2,16.2,3.74,24.6,3.49l4.7-.36c0-.44,0-.89,0-1.34l-4.69-.4-.85-.09-1.17-.05c-5.7-1.7-11.54-3-17.08-5.16-19.3-7.37-38.68-14.2-59.6-15.55-5.76-.37-11.34-.7-16.88,1.11-3.35,1.09-6.72,2.13-10,3.32-8.46,3-16.7,6.07-26.2,4.43-5.3-.91-11.14.13-16.54,1.24a17.51,17.51,0,0,1-10.58-.62,42.22,42.22,0,0,0-9.52-2.27c-4.28-.61-8.62-.74-12.93-1.22a43.65,43.65,0,0,0-17.54,1.52c-6.74,2-13.77,3-20.62,4.64a58.73,58.73,0,0,0-9.2,3.06c-3.12,1.33-6.07,3.06-9.08,4.63-4.14,2.14-8.33,4.2-12.38,6.5-3.86,2.19-7.28,5.52-11.38,6.82-17.08,5.45-33.59,13.18-51.88,14.17-9.15.49-17,3.85-25.77,5.92-8.4,2-18.26,1.11-27,1.36-3.39.1-7,.26-9.8,2.15a146.9,146.9,0,0,0,22.51,2.83c10.24.49,21-1.5,30.78-4.29,20.89-6,41.34-8.85,62.9-11.4,7-.82,13.09-3,17.93-8.61a52.92,52.92,0,0,1,10.14-8.58,27.33,27.33,0,0,1,8.29-3.62c5.38-1.47,11.17-1.79,16.26-3.89,8.48-3.49,17.57-1.87,26.14-4.12,1.35-.35,3.16.37,4.57,1,11.13,5.1,22.73,4.94,34.49,3.33a11.24,11.24,0,0,1,2,0,20.63,20.63,0,0,0,4.28.18c9.44-1.66,18.92-3.63,28.32-.28,7.71,2.75,15.16,6.21,22.87,9a49.65,49.65,0,0,0,11.52,2.56c8.32.87,16.77.78,25,2.09,11,1.73,21.85,3.65,32.86.76a35.72,35.72,0,0,0,5.9-2.66c-7.62-2-15.14-4.55-22.88-5.83-11-1.81-22.07-2.74-33.14-3.87a97,97,0,0,0-10.24-.13c-2.77,0-5.8.86-8.25,0-5.44-1.88-10.6-4.59-15.87-6.95l-.5,0,.51-.44A24.23,24.23,0,0,1,1267,146.59Z"/><path class="cls-1" d="M1650.63,192.13c4.14-.71,8.47-.71,12.41-2a14.17,14.17,0,0,1,9.26-.28c6.59,2.2,13.4,3.86,20.26,2.51,5.22-1,9.86.08,14.58,1.66s9.7,3.25,14.44,5.16c7.94,3.19,16.2,3.73,24.6,3.48l4.7-.35c0-.45,0-.9,0-1.35l-4.69-.39-.85-.09-1.18-.05c-5.7-1.7-11.53-3-17.07-5.16-19.31-7.38-38.69-14.2-59.6-15.55-5.77-.38-11.35-.71-16.88,1.1-3.35,1.1-6.73,2.14-10,3.33-8.46,3-16.7,6.07-26.19,4.43-5.31-.92-11.15.12-16.55,1.24a17.59,17.59,0,0,1-10.58-.63,42.68,42.68,0,0,0-9.51-2.27c-4.28-.61-8.63-.74-12.93-1.22a43.65,43.65,0,0,0-17.54,1.52c-6.74,2-13.77,3-20.62,4.64a58.43,58.43,0,0,0-9.2,3.07c-3.12,1.32-6.07,3.05-9.09,4.62-4.14,2.15-8.33,4.2-12.38,6.5-3.85,2.19-7.28,5.52-11.37,6.83-17.09,5.44-33.59,13.18-51.88,14.16-4.06.22-8.24.6-12.19-.1-16.66-2.92-33-2.67-49.34,2.39-4.87,1.51-10.08,1.58-14.92,3-3.74,1.1-7.21,3.35-10.85,4.88,1.91-.81,7.67,1.08,9.86,1.29q5.87.58,11.74.74a161.54,161.54,0,0,0,23.48-1.08c7.55-.91,14.77-3,22.22-4.26,6.46-1.08,12.68-.58,19.19-2.75a64.26,64.26,0,0,1,12-2.38c14.11-1.81,28.25-3.48,42.38-5.15,7-.83,13.09-3,17.93-8.62a53.66,53.66,0,0,1,10.15-8.58,27.63,27.63,0,0,1,8.28-3.62c5.38-1.47,11.18-1.79,16.26-3.88,8.49-3.49,17.58-1.88,26.15-4.12,1.35-.36,3.16.36,4.57,1,11.12,5.1,22.73,4.94,34.49,3.33a11.24,11.24,0,0,1,2,0,19.87,19.87,0,0,0,4.27.18c9.44-1.66,18.93-3.63,28.33-.28,7.7,2.75,15.16,6.21,22.86,9a49.88,49.88,0,0,0,11.52,2.56c8.32.88,16.78.79,25,2.09,11,1.73,21.85,3.65,32.86.76a36.1,36.1,0,0,0,5.9-2.66c-7.62-2-15.15-4.55-22.89-5.83-11-1.81-22.07-2.74-33.13-3.87a97.11,97.11,0,0,0-10.24-.13c-2.77,0-5.8.86-8.26,0-5.44-1.87-10.59-4.58-15.86-6.95l-.5,0,.51-.44A23.58,23.58,0,0,1,1650.63,192.13Z"/><path class="cls-1" d="M1109.55,235.79h0Z"/><path class="cls-1" d="M1129.46,225.86h0Z"/><path class="cls-1" d="M1130.46,225.94h0Z"/><path class="cls-1" d="M1125.61,235.27h0Z"/><path class="cls-1" d="M1053.51,228.3h0Z"/><path class="cls-1" d="M1230,213h0Z"/><path class="cls-1" d="M1126.46,235.29h0Z"/><path class="cls-1" d="M1109.55,235.79h0Z"/><path class="cls-1" d="M1189.35,201.46h0Z"/><path class="cls-1" d="M1200,214.1h0Z"/><path class="cls-1" d="M1032,224.33c2.09.45,4.19.85,6.3,1.18,7.92,1.23,15.77,2.66,23.77,2.81,18.43,1.44,35.53,13.12,53.75,15.82,14.86,2.21,34.4,12.19,50.44,7.91-1.17.32-2.3.79-3.44,1.18,5.06-.09,19.43,1.58,23.66-1.91-.48.4-1,.75-1.48,1.18l4.56-.11c-2.58-6.79-25.95-5.17-34.67-7-10.42-2.21-20.31-8.17-30.35-10-7.72-1.41-14.51,1.58-21.88.34-9.74-1.64-25.09-7.37-33.39-11.82.44-.94,4.69-2.08,5.36-2.26a70.68,70.68,0,0,1,17,.44c5.37-1.34,19,3.43,25.17,3.67,5.66.23,10.76-.75,15.94.08,12.78,2,22.21,8.43,35.82,8.22q-2.52-.19,5-.13c0-2.34-11.65-4.44-14.31-5.43s-5.68-1.6-8.13-3.21c-1.61-1.06-14.18-12.68-2.41-8.13,11.4-1,20.2,1.72,31.44,4.38,8.39,2.57,23.86,8.53,31.72,5.69-5.51,2,21.1-3.3,22-3.31,6.53-.1,11.06,3.08,17.54,5,9.26,2.8,47.94,5.05,48.4,2.08-12.17-2.13-25.65-3.65-37.4-6.73-9.78-2.57-17.25-9.54-27.4-11-8.46-1.22-20.2,1.76-29.27,1.67-9.5,0-18.74-2.3-28.47-2.28.59-.53-.19-.7-2.35-.49,5-3.25,10.46-6,16-6.05,7.72,0,14.07.15,22.51-.93-.64-9.44-63.28,2.37-69.47,3-14,1.52-25.66,8-39.82,7.11-12.28-.77-23.18-3.42-36-.51-4.94,1.12-9.22,3.44-14.16,4.23-6.71,1.07-14.24.34-20.93-.55-6.91-.92-14-2.56-20.73-.57,2-.6,9.8,3.74,12.12,4.43Q1028.24,223.49,1032,224.33Zm154.76,26.75a3.66,3.66,0,0,0,.46-.51A3.66,3.66,0,0,1,1186.8,251.08Zm26.4-24.16a5,5,0,0,0-.84.16A5,5,0,0,1,1213.2,226.92Z"/><path class="cls-1" d="M1072.21,259.14c12.88-3.05,25.92-5.07,39.29-4.2,8.28.55,15.11,4.81,22.63,7.68a5.94,5.94,0,0,1-3.12,1.22c-3,.3-6.12.29-9.1.83-2.64.48-5.14,1.69-7.76,2.31a97.83,97.83,0,0,1-12.07,2.36,128.26,128.26,0,0,1-16.62.77c-5.41-.16-10.8-1.08-16.2-1.67-.16.35-.33.69-.49,1a16.17,16.17,0,0,0,2.88,2.06c1.75.76,3.65,1.16,5.43,1.85a56.76,56.76,0,0,0,29.07,3.46c10.47-1.49,21-2.36,31.61-2.93,18.38-1,36.13,1.49,52.52,10.69a36.1,36.1,0,0,0,20.35,4.61c10.39-.81,20.67-3,31-4.72.49-.08.87-.82,1.87-1.83-3.26-.36-5.91-1-8.52-.87-5.51.28-11,1-16.49,1.46-10,.89-18.7-2.57-27.29-7.19-10.64-5.73-21.73-10.33-33.75-12.72-9.34-1.86-18.76-4-27.63-7.39-9.29-3.55-18.78-6.08-28.25-8.91s-18.14-2.11-27.14.5c-2.3.66-4.57,1.67-6.91,1.89-6.54.64-13.25,2-19.63,1.11-6.87-.92-13.42-4.08-20.16-6.11a41.07,41.07,0,0,0-6-.9l-.39,1.25c5,3.07,10,6.16,15.09,9.19C1047.61,260.71,1059.49,262.15,1072.21,259.14Z"/><path class="cls-1" d="M1006,89.33a51,51,0,0,0,32.25.41c7.07-2.14,13.51-6.38,20.19-9.75,1.86-.93,3.6-2.09,5.4-3.14l-.22-.88c-1.65-.08-3.37-.5-4.93-.17-5.22,1.11-10.65,1.85-15.52,3.9-8.22,3.45-16.78,3.94-25.4,4.3-8.93.39-16.9-3.23-24.83-6.72-6.81-3-13.68-4.19-20.89-1.6a18.76,18.76,0,0,1-3.15.42,13.75,13.75,0,0,1,1.46-1.82c3.11-2.51,6.77-2.79,10.59-2.74,5.79.07,11.77.83,17.33-.32a148.13,148.13,0,0,0,20.09-5.41c4.28-1.53,9.51-2.38,13.39-4.64-9.92-.7-19.24,1.18-29,2.44-8.69,1.11-17.11-1.66-26,.54-13,3.22-17,15.46-27.4,22.08-7.35,4.66-16.14,8.37-24,12.18-.51.66.67,1.29,1.5,1.29a97.87,97.87,0,0,0,35.72-7.11c4.59-1.79,8.84-4.37,13.44-6.12s9.8-2.65,14.42-.93"/><path class="cls-1" d="M1319.58,92.88c7.37,4.77,15.52,7,24.14,7.72a39.61,39.61,0,0,1,18.87,6.44c10.18,6.82,21.46,9.11,33.49,8.4a99.88,99.88,0,0,1,26.83,1.88c6.74,1.44,13.55,2.52,20.33,3.76l4.08.65.13-.55-3.24-1.47-.79-.25-1.23-1-8.48-3.58c-3.28-1.39-6.45-3.18-9.86-4.07a81.87,81.87,0,0,0-31.14-2.17,29.6,29.6,0,0,1-22.82-6.12,49.53,49.53,0,0,0-27.11-11,27,27,0,0,1-6.92-1.77c-7.66-2.86-15.13-6.26-22.91-8.74-12.67-4-25.49-7.59-38.3-11.17a79,79,0,0,0-9.38-1.5c-.11.28-.21.55-.31.82a25.52,25.52,0,0,0,3.21,1.9q22.44,9.41,44.92,18.73A40,40,0,0,1,1319.58,92.88Z"/><path class="cls-1" d="M1199,238.29h0Z"/><path class="cls-1" d="M1267.89,255.69c4.26-1.12,8.24-3.33,12.52-4.33,7.38-1.74,15-2.44,22-5.56.86-.38,2,0,3-.15,3.5-.67,7-1.45,10.45-2.19l-.05-1.12c-4.83-.61-9.67-1.81-14.48-1.71a180.84,180.84,0,0,0-24.83,2c-9.11,1.47-17.91.42-26.8-1-5.39-.9-10.78-1.82-16.2-2.52-2.11-.27-4.29.14-6.43.06-1.88-.06-4,.15-5.57-.65-7.25-3.75-14.37-3.56-21.57-.08l-.9-.1-.94.07-6.3,2.3-4,1.24c0,.25.11.5.16.75l3.41-.36,3.33-.42,1-.16c4-.51,7.8-.38,11.6,1.71l-10.2,5.28c.13.45.25.9.37,1.35,2.17,0,4.43.4,6.49-.08,16.1-3.74,31.41.57,46.65,4.69C1256.42,256.25,1262.09,257.21,1267.89,255.69Z"/><path class="cls-1" d="M1559.63,241.47c-4.26,1.12-8.25,3.33-12.52,4.34-7.38,1.73-15,2.43-22,5.55-.86.38-2,0-3,.15-3.5.68-7,1.46-10.45,2.2l0,1.11c4.83.62,9.68,1.82,14.49,1.71a182.41,182.41,0,0,0,24.83-2c9.1-1.48,17.91-.43,26.8,1.05,5.39.89,10.78,1.82,16.2,2.52,2.1.27,4.29-.14,6.43-.07,1.87.06,4-.15,5.56.66,7.25,3.75,14.37,3.56,21.58.07l.9.1.94-.07,6.3-2.3,4-1.24-.15-.74-3.41.35-3.33.43-1,.16c-4,.51-7.81.38-11.6-1.72l10.19-5.27-.36-1.36c-2.17,0-4.44-.39-6.5.09-16.1,3.74-31.41-.57-46.64-4.7C1571.1,240.92,1565.43,240,1559.63,241.47Z"/><path class="cls-1" d="M1449.07,278.19c4.26-.84,8.24-2.51,12.52-3.26,7.38-1.31,15-1.84,22-4.19.86-.29,2,0,3-.12,3.49-.51,7-1.09,10.45-1.65l0-.84c-4.83-.46-9.67-1.37-14.48-1.29a238.43,238.43,0,0,0-24.83,1.5c-9.11,1.12-17.91.32-26.8-.79-5.4-.67-10.79-1.37-16.2-1.9-2.11-.2-4.29.11-6.43.05-1.88-.05-4,.11-5.57-.49a29.43,29.43,0,0,0-21.57-.06l-.9-.08-.94.05-6.3,1.74-4,.94c0,.18.1.37.16.56l3.41-.27,3.32-.32,1-.12a23.47,23.47,0,0,1,11.6,1.29l-10.2,4c.13.34.25.68.37,1a39,39,0,0,0,6.49-.06c16.1-2.82,31.41.43,46.65,3.54C1437.6,278.61,1443.27,279.34,1449.07,278.19Z"/><path class="cls-1" d="M1152.77,105.44c-4.29.48-8.61.87-12.85,1.63-6.27,1.12-12.53,2.38-18.72,3.89a24,24,0,0,0-8.08,3.29c-5.75,4.07-11.36,8.38-16.69,13a52.83,52.83,0,0,1-20.81,11.33c-7.71,2.06-15.94,2.13-23.92,3.26-1.84.27-3.57,1.33-5.36,2,.09.58.18,1.17.26,1.75,9.16.64,18.31,1.67,27.48,1.83,9.82.16,18.77-3.18,26.66-9,13-9.6,25.65-19.79,41.09-25.35A80.85,80.85,0,0,1,1155,110c9.84-1.75,19.73-3.24,29.57-5,1.8-.32,3.46-1.37,5.19-2.08-.08-.36-.16-.72-.25-1.08-2.65.15-5.31.21-8,.48Q1167.18,103.84,1152.77,105.44Z"/><path class="cls-1" d="M1600,60.75c-4.32-.11-8.65-.3-13-.12-6.36.26-12.73.66-19.07,1.31a24,24,0,0,0-8.45,2.17c-6.25,3.24-12.39,6.76-18.3,10.6A52.8,52.8,0,0,1,1519,83.12c-7.92,1-16.08-.06-24.14,0-1.86,0-3.72.83-5.59,1.28,0,.59,0,1.18,0,1.77,9,1.88,17.92,4.14,27,5.53,9.7,1.5,19-.6,27.64-5.3,14.17-7.76,28.09-16.13,44.14-19.55a81,81,0,0,1,13.5-1.26c10-.4,20-.53,30-.92,1.82-.07,3.62-.89,5.43-1.35,0-.37-.07-.74-.1-1.11-2.65-.21-5.3-.51-7.95-.6Q1614.43,61.11,1600,60.75Z"/><path class="cls-1" d="M1861.32,192.73a23.82,23.82,0,0,0-6.84.24c-5.51.8-11.09,1.61-16.29,3.62-9.54,3.69-17.34,11.21-27.13,14.19-16.93,5.16-37.16,2.58-54.59,2.68-1.87,0-3.73.83-5.59,1.27,0,.6,0,1.19,0,1.78,9,1.88,17.92,4.13,27,5.53,7.46,1.15,16.13.5,23.74.74a50.18,50.18,0,0,0,28.09-7.49c3.8-2.38,7.25-5.27,10.9-7.88a89.85,89.85,0,0,1,25.2-12.57A7.78,7.78,0,0,0,1861.32,192.73Z"/><path class="cls-1" d="M1299.75,38.16h0Z"/><path class="cls-1" d="M1259.89,270.29c-21.19-8.17-43.37-4.56-65.19-5.84,8,4,16.21,6.86,25.26,6.95,8.9.09,17.8.87,26.71,1.05,4.42.09,8.86-.48,13.28-.75Z"/><path class="cls-1" d="M1483.43,83.22c-.28-.92-.29-1.4-.48-1.5-5.19-2.62-10.23-5.67-15.66-7.66-6.9-2.53-14.13-4.15-21.2-6.24-2.34-.69-4.62-1.62-6.92-2.44,3.94,4.27,8.41,7.74,13.82,9.52,8.5,2.81,17.12,5.28,25.71,7.8A27.9,27.9,0,0,0,1483.43,83.22Z"/><path class="cls-1" d="M1857.7,62.09c3.9,1.07,7.8,2.47,11.78,2.82,8.13.71,16.31.93,24.48,1.13,2.57.07,5.17-.58,7.76-.9-15-6.57-30.58-4-46-5A4.15,4.15,0,0,0,1857.7,62.09Z"/><path class="cls-1" d="M1025.35,235.35c4.55,1.25,9,3.15,13.66,3.61,9.15.92,18.38,1.06,27.58,1.47a10.45,10.45,0,0,0,3.34-.41c.57-.18,1-.92,1.28-1.22-14.9-6.7-30.46-2.87-45.46-5.18C1025.62,234.2,1025.48,234.77,1025.35,235.35Z"/><path class="cls-1" d="M1370,192.06c.07-.35.13-.7.2-1.05l-6.19-1.2,0,.15c-4.15-1.12-7.53-2.09-10.94-2.86-10.67-2.4-21.38-4.57-32-7.08a62,62,0,0,0-23.74-.92,30.12,30.12,0,0,1-10.39-.62c-3.64-.77-7-2.66-10.65-3.57a184.83,184.83,0,0,0-19.27-4.06c-5.62-.78-11.39-.43-17.06-.92a74.7,74.7,0,0,0-35.79,5.46c-8.06,3.35-16.55,5.41-25.3,5a71.15,71.15,0,0,0-31.32,5.61c-4.66,2-9.9,2.58-15.38,3.93,4.51-4.5,7.82-9.48,12.46-12,5.43-3,11.93-4.35,18.14-5.48,8.92-1.62,18-2.36,27-3.56a15.25,15.25,0,0,0,3.15-1.13c-.1-.41-.19-.81-.28-1.21-12.13.18-24.28,0-36.38.67a52.77,52.77,0,0,0-28,9.85c-4.89,3.48-10,6.89-15.54,9.1a84.3,84.3,0,0,1-30.37,6,154.35,154.35,0,0,0-46.26,8.09c-7.49,2.45-15.07,4.62-22.61,6.91l-2.44.2a12.1,12.1,0,0,0,3,2c.79.17,4.54-1.27,5.6-1.37,5.94-.55,11.78,1.52,17.77.32,3.85-.77,7.4-2.62,11.21-3.53,6.15-1.47,12.66-.43,18.88-1.56,6-1.1,11.63-4.19,17.71-4.06,8.14.17,15.33,2,23.57,1.42,9.87-.71,19.73-1.59,29.59-2.46a63.2,63.2,0,0,0,8.31-1.72q9.6-2.21,19.17-4.45c3.09-.72,6.18-2.07,9.26-2.05,10.24,0,20.49.48,30.73.94a26.07,26.07,0,0,1,16.35,6.16c8.83,7.71,19.18,9.69,30.47,9.64,4.57,0,9.22,1.09,13.69,2.25,7,1.82,13.89,4.14,20.86,6.14a1.73,1.73,0,0,0,1.18-.35l-.21.67,3.17.92.35-1.09-2.61-.87.15-.07-1.63-.81a.34.34,0,0,0-.41-.23l-1.38-.45-.16.07a.72.72,0,0,0-.59,0,43.25,43.25,0,0,1-5.87-3.12c-8.18-6-17.45-9-27.26-11.06-7.09-1.51-14.33-3.34-20.82-6.45-8.17-3.92-15.53-9.54-25.28-9.73a13,13,0,0,1,3.19-2.74c6.42-3.82,13.45-6.05,20.85-5.57,14.65,1,29.19,2.5,42.51,9.77,5.86,3.2,12.27,5.42,18.56,7.76,5,1.84,6.93.87,10.56-3.94.29-.38,1-.4,1.49-.64,6.33-3.15,12.81-1.85,19.4-.94,13.39,1.84,26.82,3.34,40.24,4.93a2.78,2.78,0,0,0,1.24-.31,2.74,2.74,0,0,0,0,.28Z"/><path class="cls-1" d="M1030.41,63.12l-.2-.07v.1Z"/><path class="cls-1" d="M1030.21,63.05l-.12,0,.11.12Z"/><path class="cls-1" d="M1353.68,165.3l-.24-.08h0l-.12.06.1,0Z"/><path class="cls-1" d="M1009.87,77.55a2.8,2.8,0,0,0-.06.31l.6-.13h5.81l2.11-.22a.33.33,0,0,0,.49,0c5.94-1.33,11.84-2.9,17.82-4,11.07-1.95,22.15-4.64,33.3-5.07,9.19-.35,18.48,2.19,27.75,3.31,5.18.63,10.46,1.73,15.57,1.26a139,139,0,0,0,23.8-4.17c12-3.27,24-2.6,35.93-1.47,10.35,1,20.62,2.76,30.88,4.48,5.12.86,10.08,2.63,15.18,3.56,5.54,1,11.16,1.62,16.76,2.21,3.83.41,7.72.25,11.53.75,6.15.79,12.26,1.92,18.39,2.91l8.84,1.36c.08-.36.15-.72.22-1.08l-9-2.11c-3.11-.84-6.21-1.71-9.33-2.52-6.33-1.63-12.33-4.49-19.3-3.52-3.31.47-6.87-.87-10.31-1.39l0-1.3c1.11-.43,2.19-1,3.33-1.29,8.11-2.21,16.33-4.08,24.33-6.64,6.84-2.18,13.53-3.57,20.76-2.28a33.31,33.31,0,0,0,11.85.34c5-1,9.24.21,13.4,2.47A74.15,74.15,0,0,1,1309,68.6c7.3,5.32,15.75,7.89,24.34,10.38l-24.15-18.3.68-1.19c6,1.12,12.14,1.57,17.87,4.5,8.2,4.18,14.57,10.46,20.8,17a41.2,41.2,0,0,0,14.57,9.89c13,5.25,26.77,6.85,40.64,7.77l7,.89c.06-.26.12-.51.19-.77l-5.7-1.61-2.92-1-.9-.08-1.66-.71c-8.46-2.41-16.89-4.94-25.39-7.19-8.82-2.33-16.56-6.23-22.42-13.48a50.16,50.16,0,0,0-17.34-13.59,12.28,12.28,0,0,1-1.42-1c.17-.34.35-.68.53-1,3.58,1.77,7.25,3.39,10.72,5.36,7,4,13.45,9.5,20.92,11.94,14.24,4.64,29,7.64,43.62,11.13,2.9.69,6,.47,9.59.71-.86-1-1.14-1.56-1.61-1.78-12.17-5.78-24-12.52-37.7-14.26-7.94-1-15.78-2.77-22.51-7.43-10.67-7.39-22.88-9.73-35.35-11.56-5-.75-10-2.21-15-3.1-4.2-.74-8.53-1.84-12.69-1.48a51.83,51.83,0,0,1-16.26-1c-6.58-1.5-12.86-.41-19,2.22-6.89,3-13.89,5.67-20.79,8.62-11.11,4.74-22.65,5.66-34.5,4.2-10.93-1.36-21.87-2.75-32.81-4-3-.36-6.21-.07-9.18-.72-8.22-1.8-16.17-1.08-24.32.76-6.9,1.56-13.69,4.21-21.13,2.75-8.6-1.68-17.34-2.59-25.94-4.27-6.58-1.3-13.08-3.07-18.62-7.26a15.78,15.78,0,0,0-13-2.87c-8,1.67-15.43-.28-22.71-3-6.3-2.32-12-1.27-17.81,1.41s-11.9,5.4-17.86,8.09l-.92-.11,0,0-1,0-3.2,1L992.88,56h.84l5.85-.26,1.35,0c4.08-.66,8.4-.68,12.19-2.12a40,40,0,0,1,22.38-1.9,59.29,59.29,0,0,0,18.91.82c7.52-1.09,13.13,2.11,19.67,5.39a20.26,20.26,0,0,1-2.89,1.18c-5.87,1.33-11.89,2.19-17.61,4-10.4,3.28-20.64,7.1-30.93,10.75a9.58,9.58,0,0,0-2.14,1.53h-.86l-.06,0-.86,0-3,.94-5.34,1.29v0A3.45,3.45,0,0,0,1009.87,77.55Z"/><path class="cls-1" d="M1421.65,164.69a1.78,1.78,0,0,0,.56.2,155.55,155.55,0,0,0,41.74,4c9.19-.35,18.49,2.19,27.75,3.31,5.18.62,10.46,1.73,15.57,1.26a139,139,0,0,0,23.8-4.17c12-3.27,24-2.61,35.93-1.47,10.35,1,20.62,2.75,30.88,4.48,5.12.86,10.08,2.63,15.18,3.56,5.54,1,11.16,1.62,16.76,2.21,3.83.4,7.72.25,11.53.74,6.15.8,12.26,1.93,18.39,2.92l8.84,1.36c.08-.36.15-.72.22-1.08l-9-2.11c-3.11-.84-6.21-1.72-9.33-2.52-6.33-1.63-12.33-4.49-19.3-3.52-3.31.46-6.87-.87-10.31-1.4l0-1.29a32.21,32.21,0,0,1,3.33-1.29c8.11-2.21,16.33-4.08,24.33-6.64,6.84-2.19,13.53-3.58,20.76-2.29a33.32,33.32,0,0,0,11.85.35c5-1,9.24.21,13.4,2.46A74.23,74.23,0,0,1,1703,169c7.3,5.31,15.75,7.89,24.34,10.37l-24.15-18.29.68-1.2c6,1.12,12.14,1.58,17.87,4.5,8.2,4.19,14.57,10.47,20.8,17a40.94,40.94,0,0,0,14.57,9.89c13.05,5.26,26.77,6.85,40.64,7.78l7,.88c.06-.25.12-.51.19-.76l-5.7-1.62-2.92-1-.9-.09-1.66-.7c-8.46-2.41-16.89-4.95-25.39-7.19-8.82-2.33-16.56-6.23-22.42-13.48a50.07,50.07,0,0,0-17.34-13.59,11.22,11.22,0,0,1-1.42-1c.18-.33.35-.67.53-1,3.58,1.78,7.25,3.4,10.72,5.37,7,4,13.45,9.5,20.92,11.94,14.24,4.64,29,7.64,43.62,11.12,2.9.69,6,.48,9.59.72-.86-1-1.14-1.56-1.61-1.78-12.17-5.78-24-12.52-37.7-14.26-7.94-1-15.78-2.78-22.51-7.43-10.67-7.39-22.88-9.73-35.35-11.57-5-.74-10-2.2-15-3.09-4.2-.74-8.53-1.85-12.69-1.48a51.83,51.83,0,0,1-16.26-1c-6.58-1.5-12.86-.41-19,2.22-6.89,2.95-13.89,5.67-20.79,8.62-11.11,4.74-22.65,5.66-34.5,4.19-10.93-1.35-21.86-2.74-32.81-4-3-.36-6.21-.07-9.18-.72-8.22-1.8-16.17-1.08-24.32.76-6.9,1.56-13.69,4.21-21.13,2.75-8.59-1.68-17.34-2.59-25.94-4.28-6.58-1.29-13.08-3.06-18.62-7.25a15.78,15.78,0,0,0-13-2.88c-8,1.68-15.43-.27-22.71-2.94-6.3-2.32-12-1.27-17.81,1.41s-11.9,5.4-17.86,8.09l-.92-.11h0l-1,0-3.2,1-1.76,1.51h.84l5.85-.25,1.35,0c4.08-.66,8.4-.68,12.19-2.12a40.11,40.11,0,0,1,22.38-1.91,59,59,0,0,0,18.91.83c7.52-1.09,13.13,2.11,19.67,5.39a23,23,0,0,1-2.89,1.18c-13.62,3.08-27.15,4.83-41.12,3.13a3.39,3.39,0,0,0-2.14.2C1421.3,163.24,1421.05,164.28,1421.65,164.69Z"/><path class="cls-1" d="M1881.9,117.14l1.24-.26,1.13-.71c4.19,1.92,8.2,4.57,12.6,5.62,9.37,2.24,18.93,3.73,28.45,5.34,1.93.33,4-.18,6-.3-8.64-4-17-7.66-26.41-8.25a124.54,124.54,0,0,1-14.43-2.22c-2.51-.45-5-1.22-7.43-1.86-1.72-.12-3.44-.28-5.16-.36-4.54-.22-9.12-.09-13.61-.67-7.2-.91-14.3-2.6-21.51-3.37-6.3-.68-12.71-.31-19-.84-11.49-1-21.84-6.71-33.5-7.63-9.3-.74-18.15-.49-26.46,3.7-11.37,5.74-22.68,11.62-33.69,18-9.93,5.74-20.25,7.79-31.47,5.8a25.71,25.71,0,0,0-4.39,0l-2,.48.12.61,2.5.75.25-.11-.1-.25,1.39.68,8.54,2.79c-1.55.81-2.47,1.61-3.48,1.77-9,1.45-17.9,2.39-25.66-4.23-1.67-1.43-4-2.07-6.15-2.92a27.54,27.54,0,0,0-4.21-.88,57.85,57.85,0,0,0,4.19,4.19c4.65,3.72,8.37,9.14,14.88,9.74,5,.45,10.11.78,14.92-.13,7.58-1.44,15-3.88,22.39-6.08a37,37,0,0,0,9.29-4.25c4.73-3,10.13-4.9,15.32-7.11,6.17-2.63,12.34-5.32,18.67-7.52a28.91,28.91,0,0,1,10.88-1.93,138.39,138.39,0,0,1,28.86,5c6.24,1.77,12.41,4.9,19.41,3.51,2.73-.54,5.77.54,8.56.14,6.58-1,12.81.08,17.91,4.11,9.47,7.48,20.13,10.26,31.92,9.8,8.29-.32,16.58-.59,24.87-1a21.5,21.5,0,0,0,4.34-1.12c-2.5-1.77-4.81-3.23-7.22-3.44-9.42-.8-18.88-1.67-28.32-1.64-9.93,0-16.58-4.88-21.33-11.21,3.69.25,8.34,1,12.93.76S1877.24,118,1881.9,117.14Z"/><path class="cls-1" d="M1645.93,221.28l1.22-.33,1.09-.78c4.29,1.68,8.45,4.09,12.9,4.88,9.49,1.7,19.12,2.64,28.71,3.7,2,.21,4-.41,6-.64-8.86-3.48-17.45-6.68-26.85-6.72a127.26,127.26,0,0,1-14.53-1.38c-2.52-.31-5-.95-7.52-1.43-1.72,0-3.45-.09-5.18-.07-4.54,0-9.11.43-13.63.12-7.23-.5-14.42-1.77-21.66-2.13-6.33-.32-12.71.42-19.06.26-11.52-.3-22.19-5.44-33.88-5.69-9.33-.2-18.15.56-26.21,5.22-11,6.38-22,12.91-32.59,19.9-9.58,6.3-19.76,8.94-31.09,7.6a25.76,25.76,0,0,0-4.37.22l-2,.59.15.61,2.54.61.25-.13-.12-.25,1.43.61,8.69,2.28c-1.5.91-2.37,1.76-3.38,2-8.9,2-17.73,3.41-25.86-2.75-1.75-1.33-4.15-1.83-6.3-2.56a28.17,28.17,0,0,0-4.25-.63c2,1.83,3.13,3,4.41,3.94,4.87,3.44,8.89,8.64,15.42,8.86,5,.16,10.14.2,14.9-1,7.47-1.87,14.71-4.73,22-7.35a37.58,37.58,0,0,0,9-4.78c4.55-3.24,9.82-5.48,14.87-8,6-3,12-6,18.21-8.58a28.74,28.74,0,0,1,10.76-2.56,138.46,138.46,0,0,1,29.1,3.34c6.32,1.4,12.67,4.18,19.57,2.39,2.7-.7,5.79.21,8.56-.36,6.52-1.33,12.8-.66,18.12,3.07,9.88,6.92,20.69,9.09,32.42,7.95,8.26-.8,16.53-1.55,24.77-2.44a21.86,21.86,0,0,0,4.27-1.37c-2.59-1.63-5-2.95-7.4-3-9.45-.26-18.94-.58-28.37,0-9.91.61-16.83-3.92-21.94-10,3.71,0,8.39.55,12.95,0S1641.32,222.41,1645.93,221.28Z"/><path class="cls-1" d="M1506.47,65.59c10.49-2.38,20.52-6.52,31-9,8.51-2,17.25-2.82,26-3.66l28-2.68c-22.14-3.65-45.76-7.14-66.29,1.92-6.35,2.79-12.26,6.75-19,8.29-8.58,2-18.9-1.46-26.85,1.93C1482.6,71,1499.75,67.13,1506.47,65.59Z"/><path class="cls-1" d="M585.58,254.6l14.91,3.24a322,322,0,0,0-61.91,5c14.58-1.49,26.62,6.79,40.37,9.53,12.39,2.47,25.37,5,38,6.85,31.43,4.58,63.85-.79,95,5.43-8,7.45-20.41,6.73-31.31,5.64q-41.16-4.14-82.46-6.7c-26.36-1.63-52-11.33-78.68-6.74-10.26,1.77-20.12,5.47-30.4,7.15-10,1.64-20.17,1.34-30.29,1-25.8-.77-51.19-1.79-77-.37a13.65,13.65,0,0,1-5.18-.38c-2.23-.77-3.9-2.64-5.93-3.85-6.65-4-15-.19-22.72.35-10.88.76-21.78-5.19-32.4-2.7-9.84,2.31-17.2,6.22-27.6,6.31-4.07,0-34.42-4.55-35.61-3.15,3.53-4.14,10-3.21,15.4-3.06,10.75.29,21-3.86,31.53-6.27,18.44-4.25,37.65-3.11,56.54-1.94l57.17,3.54c16.89,1,33.89,2.44,50.82,1.11,8.51-.66,17-1.61,25.55-2.5,9.53-1,17.63-7.25,24.6-13.83a21.23,21.23,0,0,1,5.56-4.26c4.92-2.26,10.65-.31,16.06-.46,8.27-.23,15.67-4,24-3.74C568.43,250.12,577.1,252.76,585.58,254.6Z"/></g></g></svg>