<svg xmlns="http://www.w3.org/2000/svg" viewBox="0 0 1261.07 197.13"><defs><style>.cls-1{fill:#300058;}</style></defs><title>waves-back</title><g id="Layer_2" data-name="Layer 2"><g id="Layer_1-2" data-name="Layer 1"><path class="cls-1" d="M355.56,6.66A275.29,275.29,0,0,1,396.4,8.34c9.23,1.2,17.09,2.72,25.8,4.28,4.56.81,9.21,1.58,14.14,2.13a163.66,163.66,0,0,0,31.39.3c-23.79,10.24-68.62,3.72-100.28,2.23-17.24-.81-31.94,2.17-48,1.42-8.59-.4-17.27-3.07-25.87-3.95-12.12-1.25-21.72-.62-34-.81,1.64,0,6.63-1.44,8.37-1.73,3.34-.55,6.84-1,10.44-1.32,6.87-.64,13.8-.59,20.83-1,17-.95,33.61-2.45,50.73-3.08C351.84,6.76,353.69,6.71,355.56,6.66Z"/><path class="cls-1" d="M94.32,27.27a398.52,398.52,0,0,0-40.1-1.92c9.16-1.62,18.36-2.69,34.65-3.2,17.64-.56,35.28.23,52.78.89,3.1.12,66.8,4.7,66.3,6.21-13.76,0-29.26,4-42.76,4.84a144.81,144.81,0,0,1-34-1.29C118.86,31.13,106.93,28.61,94.32,27.27Z"/><path class="cls-1" d="M551.33,12c26.68-1.91,58.55-1.62,85.1-1,46.57,1.17,91,4.37,136.51,6.52-22.7,2.69-51.14,5.13-77.29,5.9-27.09.8-61-1.44-85.13-3.72-19.26-1.82-36.07-3.66-57.94-3.58-7.12,0-33.92-.07-38.51,1.16C523.83,14.69,536.81,13,551.33,12Z"/><path class="cls-1" d="M208,101.4c-15.31,1.31-29.33,3.19-42.94,4.16s-26.57,1-37.85-1.34a229.2,229.2,0,0,0-51.67-5.54c16.25-6.2,37.92-5.07,57.19-3.3.76,0,19.57,1.27,38.65,2.63S209,100.86,208,101.4Z"/><path class="cls-1" d="M359.06,106.36c-18.73-1-36.89-3.31-55.29-4.86C282,99.66,258.86,98.82,235.85,99c26.64-5.93,62.49-.37,91.07,1.35,25.87,1.55,42,1.74,66.22.16,42.7-2.77,83.95-11.81,128.9-5.81-1.33.92-37.58,2.14-42.12,2.5-19.24,1.56-37.94,4.2-56.4,6.3-12.66,1.44-25.63,2.9-39.54,3.25C375.52,107,367.23,106.8,359.06,106.36Z"/><path class="cls-1" d="M513.36,51.89A170.88,170.88,0,0,1,548,53.68c5.95,1,11.92,2.19,17.63,3.33-4.6.59-20.42-1-24.71-1-10.34-.1-21.2.38-31.22,1.22-12.66,1.06-24.43,2.91-36,4.83C434.31,68.56,405.4,71.72,364,65.13c-33.25-5.3-59.86-5.74-96.3-4.51.15-4.4,56.29-3.95,66.82-3.34,19.65,1.15,35,4.72,53.49,6.32C431.76,67.4,471.75,53.7,513.36,51.89Z"/><path class="cls-1" d="M162.29,58.08a62.56,62.56,0,0,1-13.12-4.53,373.24,373.24,0,0,0,38.66,1.5c12.94-.16,23.11-1.54,35.26-2.81,18.92-2,45-4.52,63.47-.83-.46.77-63.22,8.11-65,8.35-14.41,1.94-31.34,2.48-46.2.65A115,115,0,0,1,162.29,58.08Z"/><path class="cls-1" d="M724,41.92l-1.57,3.3a185.5,185.5,0,0,0-48-7.07C651,37.64,631.47,42.38,609,42.34c-23.07,0-44.79-3.6-69.31-3.29-20.62.26-43.74,1.8-63.12-1.49,29,1.43,53.5-1.44,81.36-2.57,22.56-.92,45.67,1.4,67.72,1,5.39-.09,12.47-.55,18.28-.79C675.61,33.94,696.21,37.84,724,41.92Z"/><path class="cls-1" d="M445,36.91C416.65,36,400.6,43.06,374.47,44c-20.56.73-37.23-3.39-56.87-4.24-17.66-.77-33,2-50.12,2-16.71,0-47.32-3.27-61.6-6.05,20.64-.86,35.72,2.14,56,3a333.39,333.39,0,0,0,43.8-1.19c13.84-1.21,27.66-3.35,41.79-4.06,15.1-.75,29.73,1.22,44.7,1.42,14.8.2,29.53-1.12,43.95.58C424.47,34.14,452.76,36.75,445,36.91Z"/><path class="cls-1" d="M571.12,77.51a156.07,156.07,0,0,1,17.2,3.86c1.21.37,4.25,2,5.6,2.08A442.22,442.22,0,0,0,545,82.38c-16.21.48-31.25,2.41-47.11,3.13a360.09,360.09,0,0,1-39.61-.83c-6.9-.49-13.62-1.21-20.05-2.16-2-.3-18.08-3.63-18.54-3.53,6.74-1.41,33.34,1.54,43,1,6.25-.35,11.53-1.15,17.13-1.86,13.38-1.67,25.89-4.29,40.66-4.16,15.28.14,29.63,0,43.81,2.36C566.49,76.71,568.81,77.1,571.12,77.51Z"/><path class="cls-1" d="M333.34,78.89c-9.69.64-19.27,1.52-28.8,2.3-37.2,3-72.66,1.35-105.17-5.34-1.27-.2-1.64-.43-1.12-.69,16.58,1,33.2,2.19,50,1.09,18.81-1.23,35.48-5.9,55.36-5.74S351.91,73,371,74.74A144.45,144.45,0,0,1,395.86,79c0-.13-34-1-37.7-1C349.78,78,341.52,78.35,333.34,78.89Z"/><path class="cls-1" d="M144.42,78.72C108,78.38,55.21,88,34.89,69.35c8.13,2.26,16.25,5.08,24.38,4,28.45-5.08,55.54-2.26,83.16,1.13,13,.9,24.63,2.36,34,5.55C166,79.32,155.11,78.82,144.42,78.72Z"/><path class="cls-1" d="M284.52,117.87a274,274,0,0,1,40.84,1.68c9.23,1.2,17.1,2.72,25.8,4.28,4.56.81,9.22,1.58,14.15,2.12a162.85,162.85,0,0,0,31.39.3c-23.8,10.25-68.63,3.73-100.29,2.24-17.23-.82-31.94,2.16-48,1.42-8.6-.4-17.28-3.07-25.87-4-12.12-1.25-21.73-.62-34-.8,1.64,0,6.63-1.44,8.38-1.73,3.33-.56,6.83-1,10.44-1.33,6.86-.64,13.79-.58,20.82-1,17-1,33.61-2.45,50.74-3.08C280.8,118,282.66,117.91,284.52,117.87Z"/><path class="cls-1" d="M80.26,119.06c-12.53,1.66-28.95,5.17-44.27,6.5S6.75,126.05,0,119a43.43,43.43,0,0,0,14.57.59c32.51-7.34,69.08-12.41,96.58-.43C100.18,118.36,89.82,118,80.26,119.06Z"/><path class="cls-1" d="M56.92,142.5a78.66,78.66,0,0,0-28.8,4.14c24.38-15.23,71.79-11.29,108.36-6.77-19,1.69-36.57,9-58.6,6.1C70.65,144.84,64.39,142.87,56.92,142.5Z"/><path class="cls-1" d="M424,112.66c16.46-1.9,36.12-1.62,52.5-1,28.73,1.18,56.14,4.38,84.21,6.53a356.57,356.57,0,0,1-47.68,5.9c-16.71.8-37.65-1.44-52.51-3.72-11.89-1.82-22.26-3.67-35.75-3.59-4.39,0-20.92-.07-23.75,1.16C407.06,115.38,415.06,113.7,424,112.66Z"/><path class="cls-1" d="M442.32,163.1a170.16,170.16,0,0,1,34.61,1.79c5.95,1,11.93,2.19,17.63,3.33-4.59.58-20.42-1-24.71-1-10.34-.1-21.2.38-31.21,1.22-12.67,1.06-24.44,2.9-36,4.82-39.34,6.52-68.25,9.68-109.63,3.09-33.24-5.3-59.85-5.74-96.29-4.52.15-4.4,56.28-3.95,66.82-3.33,19.65,1.15,35,4.71,53.48,6.31C360.72,178.6,400.72,164.9,442.32,163.1Z"/><path class="cls-1" d="M93.76,169.7a29.72,29.72,0,0,1-9.41-4c9.45.66,19.43.67,32.45.51s23.11-1.54,35.26-2.8c18.92-2,45-4.52,63.47-.84-.47.77-63.23,8.12-65,8.36-14.42,1.93-31.34,2.47-46.2.65A73.3,73.3,0,0,1,93.76,169.7Z"/><path class="cls-1" d="M653,153.13l-1.57,3.29a185.45,185.45,0,0,0-48-7.06c-23.41-.51-43,4.23-65.42,4.19-23.08,0-44.8-3.61-69.32-3.29-20.62.26-43.74,1.8-63.11-1.5,29,1.43,53.49-1.43,81.36-2.56,22.55-.92,45.66,1.4,67.72,1,5.39-.09,12.46-.56,18.27-.8C604.57,145.14,625.18,149.05,653,153.13Z"/><path class="cls-1" d="M374,148.12c-28.4-1-44.44,6.14-70.57,7.07-20.56.74-37.23-3.39-56.87-4.24-17.67-.76-33,2-50.13,2-16.7,0-47.31-3.27-61.59-6.05,20.63-.86,35.72,2.13,56,3a335.09,335.09,0,0,0,43.8-1.18c13.85-1.21,27.66-3.36,41.79-4.06,15.1-.75,29.73,1.22,44.71,1.42,14.8.2,29.52-1.12,44,.57C353.44,145.34,381.72,148,374,148.12Z"/><path class="cls-1" d="M500.09,188.72a156.38,156.38,0,0,1,17.19,3.86c1.22.37,4.26,2,5.61,2.08a442.44,442.44,0,0,0-49-1.08c-16.21.48-31.25,2.41-47.11,3.14a365.11,365.11,0,0,1-39.61-.83c-6.89-.5-13.62-1.22-20-2.17-2-.29-18.08-3.62-18.54-3.52,6.74-1.41,33.34,1.54,43,1,6.26-.36,11.53-1.16,17.13-1.86,13.39-1.68,25.89-4.29,40.66-4.16,15.29.14,29.64,0,43.81,2.36C495.45,187.91,497.77,188.3,500.09,188.72Z"/><path class="cls-1" d="M630.67,173.37c-37,3-65.07,1.63-101.18-1.2a341,341,0,0,0-86,4.4c12-1,26.5-1.36,38.45-.13,12.4,1.27,24.31,3.42,36.38,5a256.68,256.68,0,0,0,57.51,1.5A315.54,315.54,0,0,0,630.67,173.37Z"/><path class="cls-1" d="M262.3,190.1c-9.69.64-19.26,1.52-28.8,2.29-37.19,3-72.65,1.36-105.17-5.33-1.26-.2-1.63-.43-1.12-.69,16.58,1,33.21,2.18,50,1.09,18.8-1.23,35.47-5.91,55.35-5.74s48.27,2.49,67.35,4.22a145.42,145.42,0,0,1,24.87,4.3c0-.13-34-1-37.7-1.05C278.74,189.19,270.48,189.56,262.3,190.1Z"/><path class="cls-1" d="M892.64,6.66a275.37,275.37,0,0,1,40.85,1.68c9.23,1.2,17.09,2.72,25.79,4.28,4.56.81,9.22,1.58,14.15,2.13a163.65,163.65,0,0,0,31.39.3C981,25.29,936.19,18.77,904.53,17.28c-17.23-.81-31.93,2.17-48,1.42-8.6-.4-17.27-3.07-25.87-3.95-12.12-1.25-21.72-.62-34-.81,1.64,0,6.63-1.44,8.37-1.73,3.34-.55,6.84-1,10.44-1.32,6.87-.64,13.8-.59,20.83-1C853.3,9,870,7.46,887.08,6.83,888.92,6.76,890.78,6.71,892.64,6.66Z"/><path class="cls-1" d="M1032.14,1.45c16.46-1.9,36.12-1.61,52.5-.94,28.73,1.17,56.14,4.37,84.22,6.52a355.3,355.3,0,0,1-47.69,5.9c-16.71.8-37.65-1.44-52.51-3.72-11.89-1.82-22.26-3.66-35.74-3.58-4.4,0-20.93-.07-23.76,1.16C1015.18,4.17,1023.19,2.49,1032.14,1.45Z"/><path class="cls-1" d="M745.06,101.4c-21.22,1.31-40.64,3.19-59.51,4.16s-36.82,1-52.44-1.34a435.9,435.9,0,0,0-71.62-5.54c22.53-6.2,52.56-5.07,79.26-3.3,1.06,0,27.13,1.27,53.57,2.63S746.5,100.86,745.06,101.4Z"/><path class="cls-1" d="M896.15,106.36c-18.74-1-36.9-3.31-55.3-4.86C819.12,99.66,796,98.82,772.94,99c26.64-5.93,62.49-.37,91.07,1.35,25.87,1.55,42,1.74,66.22.16,42.7-2.77,83.95-11.81,128.9-5.81-1.33.92-37.58,2.14-42.12,2.5-19.24,1.56-37.94,4.2-56.4,6.3-12.67,1.44-25.63,2.9-39.54,3.25C912.61,107,904.32,106.8,896.15,106.36Z"/><path class="cls-1" d="M1050.45,51.89a170.78,170.78,0,0,1,34.6,1.79c6,1,11.93,2.19,17.63,3.33-4.59.59-20.41-1-24.7-1-10.35-.1-21.2.38-31.22,1.22-12.67,1.06-24.43,2.91-36,4.83-39.33,6.51-68.24,9.67-109.62,3.08-33.25-5.3-59.86-5.74-96.3-4.51.15-4.4,56.29-3.95,66.82-3.34,19.65,1.15,35,4.72,53.49,6.32C968.85,67.4,1008.84,53.7,1050.45,51.89Z"/><path class="cls-1" d="M624.12,58.08a145.6,145.6,0,0,1-21.06-4.53c20.14,1.16,41.17,1.66,62.08,1.5s37.1-1.54,56.61-2.81c30.37-2,72.2-4.52,101.9-.83-.75.77-101.51,8.11-104.34,8.35-23.14,1.94-50.32,2.48-74.17.65C637.64,59.84,630.55,59.05,624.12,58.08Z"/><path class="cls-1" d="M1261.07,41.92l-1.56,3.3a185.5,185.5,0,0,0-48-7.07c-23.41-.51-43,4.23-65.42,4.19-23.07,0-44.8-3.6-69.32-3.29-20.61.26-43.73,1.8-63.11-1.49,29,1.43,53.5-1.44,81.36-2.57,22.56-.92,45.66,1.4,67.72,1,5.39-.09,12.46-.55,18.27-.79C1212.7,33.94,1233.3,37.84,1261.07,41.92Z"/><path class="cls-1" d="M982.13,36.91c-28.4-.95-44.44,6.15-70.57,7.08-20.56.73-37.23-3.39-56.87-4.24-17.66-.77-33,2-50.12,2-16.71,0-47.32-3.27-61.6-6.05,20.63-.86,35.72,2.14,56,3a333.39,333.39,0,0,0,43.8-1.19c13.84-1.21,27.66-3.35,41.78-4.06,15.1-.75,29.74,1.22,44.71,1.42,14.8.2,29.53-1.12,44,.58C961.56,34.14,989.85,36.75,982.13,36.91Z"/><path class="cls-1" d="M1108.21,77.51a156.38,156.38,0,0,1,17.19,3.86c1.22.37,4.26,2,5.61,2.08a442.35,442.35,0,0,0-49-1.07c-16.2.48-31.24,2.41-47.11,3.13a360,360,0,0,1-39.6-.83c-6.9-.49-13.63-1.21-20.05-2.16-2-.3-18.08-3.63-18.54-3.53,6.74-1.41,33.34,1.54,43,1,6.25-.35,11.52-1.15,17.13-1.86,13.38-1.67,25.89-4.29,40.65-4.16,15.29.14,29.64,0,43.82,2.36C1103.57,76.71,1105.9,77.1,1108.21,77.51Z"/><path class="cls-1" d="M1238.79,62.17c-37,3-65.06,1.63-101.17-1.21a341,341,0,0,0-86,4.4c12-1,26.5-1.36,38.45-.13,12.41,1.28,24.32,3.42,36.38,5a256.69,256.69,0,0,0,57.51,1.5A316.49,316.49,0,0,0,1238.79,62.17Z"/><path class="cls-1" d="M837.42,78.89c-14.8.64-29.44,1.52-44,2.3-56.84,3-111,1.35-160.7-5.34q-2.9-.3-1.71-.69c25.34,1,50.74,2.19,76.45,1.09,28.73-1.23,54.2-5.9,84.58-5.74s73.75,2.49,102.9,4.23A328.71,328.71,0,0,1,933,79c0-.13-51.93-1-57.61-1C862.54,78,849.92,78.35,837.42,78.89Z"/><path class="cls-1" d="M746.87,117.87c23-.33,46.61,0,68.06,1.68,15.38,1.2,28.48,2.72,43,4.28,7.6.81,15.36,1.58,23.57,2.12a451.38,451.38,0,0,0,52.3.3c-39.64,10.25-114.35,3.73-167.1,2.24-28.72-.82-53.22,2.16-79.95,1.42-14.33-.4-28.79-3.07-43.11-4-20.2-1.25-36.2-.62-56.61-.8,2.73,0,11-1.44,14-1.73,5.55-.56,11.39-1,17.39-1.33,11.44-.64,23-.58,34.7-1,28.26-1,56-2.45,84.54-3.08Q742.21,117.94,746.87,117.87Z"/><path class="cls-1" d="M961.11,112.66c16.46-1.9,36.12-1.62,52.5-1,28.72,1.18,56.14,4.38,84.21,6.53a357,357,0,0,1-47.68,5.9c-16.71.8-37.65-1.44-52.52-3.72-11.88-1.82-22.25-3.67-35.74-3.59-4.39,0-20.92-.07-23.75,1.16C944.14,115.38,952.15,113.7,961.11,112.66Z"/><path class="cls-1" d="M979.41,163.1a170.16,170.16,0,0,1,34.61,1.79c6,1,11.92,2.19,17.63,3.33-4.6.58-20.42-1-24.71-1-10.34-.1-21.2.38-31.21,1.22-12.67,1.06-24.44,2.9-36,4.82-39.33,6.52-68.24,9.68-109.62,3.09-33.24-5.3-59.86-5.74-96.3-4.52.15-4.4,56.29-3.95,66.83-3.33,19.64,1.15,35,4.71,53.48,6.31C897.81,178.6,937.8,164.9,979.41,163.1Z"/><path class="cls-1" d="M630.85,169.7a29.62,29.62,0,0,1-9.41-4c9.45.66,19.42.67,32.45.51s23.11-1.54,35.26-2.8c18.91-2,45-4.52,63.46-.84-.46.77-63.22,8.12-65,8.36-14.42,1.93-31.34,2.47-46.2.65A73.3,73.3,0,0,1,630.85,169.7Z"/><path class="cls-1" d="M1190,153.13l-1.57,3.29a185.46,185.46,0,0,0-48-7.06c-23.4-.51-43,4.23-65.42,4.19-23.07,0-44.79-3.61-69.31-3.29-20.62.26-43.74,1.8-63.12-1.5,29,1.43,53.5-1.43,81.37-2.56,22.55-.92,45.66,1.4,67.71,1,5.39-.09,12.47-.56,18.28-.8C1141.66,145.14,1162.27,149.05,1190,153.13Z"/><path class="cls-1" d="M911.09,148.12c-28.39-1-44.43,6.14-70.57,7.07-20.55.74-37.23-3.39-56.86-4.24-17.67-.76-33,2-50.13,2-16.7,0-47.31-3.27-61.6-6.05,20.64-.86,35.73,2.13,56,3a335.14,335.14,0,0,0,43.8-1.18c13.85-1.21,27.66-3.36,41.79-4.06,15.1-.75,29.73,1.22,44.7,1.42,14.81.2,29.53-1.12,43.95.57C890.52,145.34,918.81,148,911.09,148.12Z"/><path class="cls-1" d="M1167.75,173.37c-37,3-65.06,1.63-101.17-1.2a340.93,340.93,0,0,0-86,4.4c12-1,26.5-1.36,38.45-.13,12.4,1.27,24.31,3.42,36.38,5a256.59,256.59,0,0,0,57.5,1.5A315.37,315.37,0,0,0,1167.75,173.37Z"/><path class="cls-1" d="M820.79,193.39c-16.07.64-32,1.52-47.78,2.29-61.73,3-120.57,1.36-174.52-5.33-2.09-.2-2.71-.43-1.86-.7,27.52,1,55.1,2.19,83,1.09,31.2-1.23,58.86-5.9,91.85-5.73s80.09,2.49,111.75,4.22a391.25,391.25,0,0,1,41.27,4.29c0-.13-56.38-1-62.55-1C848.07,192.47,834.37,192.84,820.79,193.39Z"/></g></g></svg>