<svg width="162" height="91" viewBox="0 0 162 91" fill="none" xmlns="http://www.w3.org/2000/svg">
<path d="M13 59.6C14.1 59.6 15.2 59.5 16.3 59.5C17.4 59.4 18.6 59.4 19.7 59.4C21.1 59.4 22.2 59.5 23.3 59.6C23.8 59.7 24.2 60.1 24.1 60.6C23.6 71.9 31.3 83.3 42.1 87.1C44.8 88 47.6 88.5 50.6 88.5C59.3 88.5 67.8 84.3 72.7 77.6C72.9 77.3 73.3 77.2 73.6 77.2C74 77.2 74.3 77.5 74.4 77.8C76.5 82.8 81.6 86.4 87 86.7C92.4 87 97.9 83.8 100.4 79C100.6 78.7 100.8 78.5 101.2 78.5C101.5 78.5 101.9 78.6 102.1 78.8C105.2 82.5 110.1 84.6 115.6 84.6C122.6 84.6 128.8 81.3 131.8 75.9C132.1 75.4 132.6 75.3 133.1 75.5C134.7 76.3 136.4 76.7 138.2 76.7C142.3 76.7 146.5 74.8 149.4 71.5C152 68.7 153.2 65.3 152.9 62C152.9 61.7 153 61.4 153.2 61.2C157.2 56.8 159.2 52.8 159.2 49C159.2 46.7 158.2 44.2 156.5 42.5C155 41 153.3 40.3 151.5 40.5C151 40.5 150.6 40.2 150.4 39.7C150.3 39.2 150.5 38.7 151 38.5C152.9 37.7 153.4 35.9 153.6 34.9C154 32.6 153.1 30.1 151.6 28.8C149.9 27.3 147.6 26.6 144.8 26.6C143.1 26.6 141.3 26.9 139.5 27.4C139.1 27.5 138.6 27.3 138.3 26.9C138.1 26.5 138.1 26 138.5 25.7C140.3 24 140.1 20.9 138.9 18.8C137.6 16.5 135.2 14.8 132.8 13.3C120.4 5.7 110 2 100.2 2H99.7C88.8 2.1 76 8.4 72.6 20C72.5 20.4 72.2 20.6 71.8 20.7C71.4 20.8 71.1 20.6 70.8 20.3C67.1 15.4 60.9 12.4 54.6 12.4C53.6 12.4 52.5 12.5 51.6 12.6C44.4 13.8 38 19.2 35.7 26C35.6 26.3 35.3 26.6 35 26.7C34.7 26.8 34.3 26.7 34.1 26.4C33 25.3 31.4 24.6 29.7 24.6C28.6 24.6 27.6 24.9 26.7 25.4C24.4 26.7 23.2 29.8 23.9 32.3C24 32.6 23.9 32.9 23.7 33.2C23.5 33.4 23.2 33.6 22.9 33.6C15.2 33.6 7.9 38.3 4.5 45.2C2.7 48.9 2.2 54.3 5.3 57.3C7.4 59.3 10.4 59.6 13 59.6ZM136.9 36.7C139.7 36.9 142.1 39.2 142.3 41.9C142.4 43.3 141.9 44.8 140.9 45.9C140 47 138.7 47.6 137.4 47.6C136.9 47.6 136.4 47.2 136.4 46.6C136.4 46 136.8 45.6 137.4 45.6C138.2 45.6 138.9 45.2 139.5 44.5C140.1 43.8 140.4 42.9 140.4 42C140.2 40.3 138.6 38.8 136.8 38.6C136.3 38.6 135.8 38.1 135.9 37.5C135.8 37 136.3 36.6 136.9 36.7ZM123.5 65.3C123.7 64.8 124.3 64.6 124.8 64.8C128.6 66.5 133.4 65.4 136 62.2C136.5 61.6 136.8 61 136.7 60.6C136.7 60.5 136.6 60.3 136.5 60.2C136.4 60.1 136.3 60.1 136.3 60.1C135.8 60.3 135.2 60.1 135 59.6C134.8 59.1 135 58.5 135.5 58.3C136.1 58.1 136.8 58.1 137.4 58.5C138.1 58.9 138.6 59.7 138.7 60.5C138.8 61.5 138.4 62.5 137.5 63.6C135.3 66.3 131.9 67.7 128.4 67.7C126.8 67.7 125.3 67.4 123.8 66.7C123.5 66.4 123.3 65.8 123.5 65.3ZM84.9 19.1C86.3 16.3 89.2 14.4 92.6 13.8C96 13.2 99.4 14.1 101.7 16.2C102.6 17 103.3 18.1 103.7 19.2C103.7 19.2 103.8 19.2 103.9 19.2C110.1 18.8 116.3 23.9 117.1 30.1C117.2 30.6 116.8 31.1 116.2 31.2H116.1C115.6 31.2 115.2 30.8 115.1 30.3C114.5 25.3 109.6 21.1 104.6 21.1C104.6 21.1 104.6 21.1 104.5 21.1L103.6 22.8C103.5 22.9 103.5 23.1 103.4 23.2C103.1 23.7 102.5 23.8 102 23.5C101.5 23.2 101.4 22.6 101.6 22.2L101.7 21.9C102.3 20.6 101.4 18.8 100.2 17.7C98.4 16 95.6 15.3 92.8 15.8C90 16.3 87.7 17.9 86.5 20.1C86.2 20.6 85.6 20.8 85.2 20.5C84.9 20.2 84.7 19.6 84.9 19.1ZM35.8 46.2C36.2 45.9 36.9 45.9 37.2 46.4C37.5 46.8 37.5 47.5 37 47.8C35.3 49.2 34.3 51.5 34.4 54C34.5 56.5 35.7 58.7 37.5 60C40.4 61.9 44.4 61.7 48.5 61.2C48.8 61.2 49.1 61.3 49.3 61.5C49.5 61.7 49.6 62 49.6 62.4C49.4 63.7 49.4 65.1 49.8 66.4C53.8 69.2 59.6 69 63.4 66C63.8 65.7 64.5 65.7 64.8 66.2C65.1 66.6 65.1 67.3 64.6 67.6C62.3 69.4 59.3 70.4 56.3 70.4C53.5 70.4 50.6 69.6 48.3 67.9C48.1 67.8 48 67.6 47.9 67.4C47.5 66.1 47.3 64.8 47.4 63.4C43.4 63.8 39.5 63.9 36.3 61.8C33.9 60.2 32.4 57.4 32.3 54.3C32.3 50.9 33.5 48 35.8 46.2Z" fill="white"/>
<path d="M152.9 62.1C152.9 61.8 153 61.5 153.2 61.3C156.4 57.8 158.3 54.5 158.9 51.3C157.3 52.3 155.5 53 153.7 53.4C148.7 54.5 142.5 51.8 141.6 46.8C139.4 51.6 134.4 55 129.2 55.4C123.9 55.7 118.6 52.9 115.8 48.4C111.5 53.2 106.6 58.2 100.3 59.8C94 61.3 86 57.6 85.5 51.1C78.8 57.8 66.2 57 60.3 49.5C55 52 49 53.5 43.2 52.3C40.5 51.8 38 50.5 35.9 48.8C34.8 50.2 34.3 52 34.4 53.9C34.5 56.4 35.7 58.6 37.5 59.9C40.4 61.8 44.4 61.6 48.5 61.1C48.8 61.1 49.1 61.2 49.3 61.4C49.5 61.6 49.6 61.9 49.6 62.3C49.4 63.6 49.4 65 49.8 66.3C53.8 69.1 59.6 68.9 63.4 65.9C63.8 65.6 64.5 65.6 64.8 66.1C65.1 66.5 65.1 67.2 64.6 67.5C62.3 69.3 59.3 70.3 56.3 70.3C53.5 70.3 50.6 69.5 48.3 67.8C48.1 67.7 48 67.5 47.9 67.3C47.5 66 47.3 64.7 47.4 63.3C43.4 63.7 39.5 63.8 36.3 61.7C33.9 60.1 32.4 57.3 32.3 54.2C32.2 51.7 33 49.3 34.4 47.6C32.7 45.8 31.5 43.6 31.1 41.2C26.7 44.3 22.1 47.4 17 48.8C12.5 50.1 7.4 49.9 3.5 47.7C2.5 51.1 2.7 55 5.2 57.4C7.3 59.5 10.3 59.7 12.9 59.7C14 59.7 15.1 59.6 16.2 59.6C17.3 59.5 18.5 59.5 19.6 59.5C21 59.5 22.1 59.6 23.2 59.7C23.7 59.8 24.1 60.2 24 60.7C23.5 72 31.2 83.4 42 87.2C44.7 88.1 47.5 88.6 50.5 88.6C59.2 88.6 67.7 84.4 72.6 77.7C72.8 77.4 73.2 77.3 73.5 77.3C73.9 77.3 74.2 77.6 74.3 77.9C76.4 82.9 81.5 86.5 86.9 86.8C92.3 87.1 97.8 83.9 100.3 79.1C100.5 78.8 100.7 78.6 101.1 78.6C101.4 78.6 101.8 78.7 102 78.9C105.1 82.6 110 84.7 115.5 84.7C122.5 84.7 128.7 81.4 131.7 76C132 75.5 132.5 75.4 133 75.6C134.6 76.4 136.3 76.8 138.1 76.8C142.2 76.8 146.4 74.9 149.3 71.6C152 68.8 153.2 65.4 152.9 62.1ZM137.6 63.5C135.4 66.2 132 67.6 128.5 67.6C126.9 67.6 125.4 67.3 123.9 66.6C123.4 66.4 123.2 65.8 123.4 65.3C123.6 64.8 124.2 64.6 124.7 64.8C128.5 66.5 133.3 65.4 135.9 62.2C136.4 61.6 136.7 61 136.6 60.6C136.6 60.5 136.5 60.3 136.4 60.2C136.3 60.1 136.2 60.1 136.2 60.1C135.7 60.3 135.1 60.1 134.9 59.6C134.7 59.1 134.9 58.5 135.4 58.3C136 58.1 136.7 58.1 137.3 58.5C138 58.9 138.5 59.7 138.6 60.5C138.9 61.4 138.5 62.4 137.6 63.5Z" fill="#C7EAFB"/>
<path d="M13 61.6C14.1 61.6 15.3 61.5 16.4 61.5C18.4 61.4 20.6 61.3 22.2 61.5C22 73.4 30.2 85.1 41.4 89C44.3 90 47.3 90.5 50.5 90.5C59.3 90.5 67.8 86.6 73.2 80.1C75.9 85 81.2 88.4 86.9 88.7C87.1 88.7 87.4 88.7 87.6 88.7C93.1 88.7 98.5 85.7 101.4 81.2C104.9 84.7 110 86.7 115.5 86.7C122.9 86.7 129.5 83.3 133 77.8C134.6 78.5 136.3 78.8 138.2 78.8C142.8 78.8 147.6 76.6 150.9 72.9C153.7 69.8 155.2 66 154.9 62.3C159.1 57.7 161.1 53.3 161.1 49.1C161.1 46.2 159.9 43.3 157.8 41.2C156.6 40 155.3 39.2 153.9 38.8C154.7 37.9 155.2 36.7 155.4 35.4C155.9 32.4 154.8 29.3 152.7 27.4C150 25 145.8 24.2 141.3 25C142.2 22.7 141.7 19.9 140.6 18C139 15.3 136.4 13.5 133.8 11.8C121.1 3.8 110.4 0 100.2 0H99.7C88.7 0.1 75.7 6.3 71.3 17.7C67.1 13.1 60.9 10.4 54.6 10.4C53.5 10.4 52.3 10.5 51.2 10.7C43.8 11.9 37.2 17.2 34.3 24.1C33 23.2 31.3 22.7 29.6 22.7C28.2 22.7 26.8 23.1 25.6 23.7C22.9 25.3 21.3 28.6 21.6 31.7C13.6 32.2 6.1 37.2 2.6 44.4C0.499997 48.8 -2.86102e-06 55 3.9 58.7C6.5 61.2 10 61.6 13 61.6ZM4.5 45.2C7.8 38.3 15.2 33.7 22.9 33.6C23.2 33.6 23.5 33.5 23.7 33.2C23.9 33 23.9 32.6 23.9 32.3C23.2 29.7 24.4 26.7 26.7 25.4C27.6 24.9 28.6 24.6 29.7 24.6C31.4 24.6 33 25.2 34.1 26.4C34.3 26.6 34.7 26.8 35 26.7C35.3 26.6 35.6 26.4 35.7 26C38 19.1 44.4 13.8 51.6 12.6C52.6 12.4 53.6 12.4 54.6 12.4C60.9 12.4 67.1 15.4 70.8 20.3C71 20.6 71.4 20.7 71.8 20.7C72.2 20.6 72.5 20.4 72.6 20C76 8.4 88.8 2.1 99.7 2H100.2C110 2 120.4 5.7 132.8 13.5C135.2 15 137.6 16.6 138.9 19C140.1 21 140.3 24.1 138.5 25.9C138.2 26.2 138.1 26.7 138.3 27.1C138.5 27.5 139 27.7 139.5 27.6C141.3 27.1 143.1 26.8 144.8 26.8C147.6 26.8 149.9 27.6 151.6 29C153.2 30.4 154 32.9 153.6 35.1C153.4 36.1 152.9 37.9 151 38.7C150.5 38.9 150.3 39.4 150.4 39.9C150.5 40.4 151 40.7 151.5 40.7C153.3 40.5 155.1 41.3 156.5 42.7C158.2 44.4 159.2 46.9 159.2 49.2C159.2 53 157.2 57 153.2 61.4C153 61.6 152.9 61.9 152.9 62.2C153.2 65.5 152 68.9 149.4 71.7C146.4 75 142.2 76.9 138.2 76.9C136.4 76.9 134.6 76.5 133.1 75.7C132.6 75.5 132 75.6 131.8 76.1C128.8 81.4 122.6 84.8 115.6 84.8C110.1 84.8 105.2 82.7 102.1 79C101.9 78.7 101.6 78.6 101.2 78.7C100.9 78.7 100.6 78.9 100.4 79.2C97.9 84 92.4 87.1 87 86.9C81.6 86.7 76.4 83 74.4 78C74.3 77.7 74 77.4 73.6 77.4C73.2 77.4 72.9 77.5 72.7 77.8C67.8 84.5 59.3 88.7 50.6 88.7C47.7 88.7 44.8 88.2 42.1 87.3C31.4 83.5 23.7 72.1 24.1 60.8C24.1 60.3 23.8 59.8 23.3 59.8C22.2 59.6 21.1 59.6 19.7 59.6C18.6 59.6 17.4 59.7 16.3 59.7C15.2 59.7 14.1 59.8 13 59.8C10.4 59.8 7.4 59.5 5.3 57.5C2.1 54.3 2.7 48.9 4.5 45.2Z" fill="#6FBAE7"/>
<path d="M36.4 61.6C39.6 63.7 43.4 63.7 47.5 63.2C47.4 64.5 47.6 65.9 48 67.2C48.1 67.4 48.2 67.6 48.4 67.7C50.7 69.4 53.5 70.2 56.4 70.2C59.4 70.2 62.3 69.3 64.7 67.4C65.1 67.1 65.2 66.4 64.9 66C64.6 65.6 63.9 65.5 63.5 65.8C59.7 68.8 53.9 68.9 49.9 66.2C49.5 64.9 49.4 63.5 49.7 62.2C49.8 61.9 49.7 61.6 49.4 61.3C49.2 61.1 48.9 61 48.6 61C44.5 61.5 40.6 61.8 37.6 59.8C35.8 58.6 34.6 56.4 34.5 53.8C34.4 51.3 35.4 49 37.1 47.6C37.5 47.3 37.6 46.6 37.3 46.2C37 45.8 36.3 45.7 35.9 46C33.7 47.8 32.4 50.7 32.6 53.9C32.6 57.2 34.1 60 36.4 61.6Z" fill="#6FBAE7"/>
<path d="M124 66.6C125.4 67.2 127 67.6 128.6 67.6C132 67.6 135.5 66.1 137.7 63.5C138.6 62.4 139 61.4 138.9 60.4C138.8 59.6 138.3 58.8 137.6 58.4C137 58 136.3 58 135.7 58.2C135.2 58.4 134.9 59 135.2 59.5C135.4 60 136 60.3 136.5 60C136.5 60 136.6 60 136.7 60.1C136.8 60.2 136.9 60.4 136.9 60.5C136.9 60.9 136.7 61.5 136.2 62.1C133.6 65.3 128.7 66.4 125 64.7C124.5 64.5 123.9 64.7 123.7 65.2C123.3 65.8 123.5 66.4 124 66.6Z" fill="#6FBAE7"/>
<path d="M85.3 20.4C85.8 20.7 86.4 20.5 86.6 20C87.8 17.8 90.1 16.2 92.9 15.7C95.7 15.2 98.4 15.9 100.3 17.6C101.5 18.7 102.4 20.5 101.8 21.8L101.7 22.1C101.4 22.6 101.6 23.2 102.1 23.4C102.6 23.7 103.2 23.5 103.5 23.1C103.6 23 103.6 22.9 103.7 22.7L104.6 21C104.6 21 104.6 21 104.7 21C109.7 21 114.6 25.1 115.2 30.2C115.3 30.7 115.7 31.1 116.2 31.1H116.3C116.8 31 117.2 30.5 117.2 30C116.4 23.8 110.2 18.7 104 19.1C103.9 19.1 103.9 19.1 103.8 19.1C103.4 18 102.7 16.9 101.8 16.1C99.5 14 96.1 13.1 92.7 13.7C89.3 14.3 86.4 16.3 85 19C84.7 19.6 84.9 20.2 85.3 20.4Z" fill="#6FBAE7"/>
<path d="M136.7 38.7C138.5 38.9 140.2 40.4 140.3 42.1C140.4 42.9 140.1 43.9 139.4 44.6C138.8 45.3 138.1 45.6 137.3 45.7C136.7 45.7 136.3 46.2 136.3 46.7C136.3 47.2 136.8 47.7 137.3 47.7C138.6 47.7 139.9 47 140.8 46C141.8 44.9 142.3 43.4 142.2 42C142 39.3 139.6 37 136.8 36.8C136.2 36.7 135.8 37.2 135.7 37.7C135.7 38.1 136.2 38.6 136.7 38.7Z" fill="#6FBAE7"/>
</svg>
