<svg width="717" height="291" viewBox="0 0 717 291" fill="none" xmlns="http://www.w3.org/2000/svg">
<path id="curtain-1-g" d="M717 0C510 0.2 231.5 0.2 227.4 7.5C223.7 14 225.3 13.8 183 13.8C138.7 13.8 138 13.9 134.6 22.7C132.4 28.5 125.5 28 224.4 28.3L313.8 28.5L315 30.4C316.5 32.6 316 34.7 313.3 38.3C309.9 42.8 310.6 42.7 276.3 43.1L244.5 43.5L241.4 46.5C239.7 48.2 237.9 50.7 237.5 52.1C237 53.5 235.5 55.4 234.2 56.4L231.7 58.1L150 58.5C71.7 58.9 68.2 58.9 65.9 60.3C62 62.6 58.8 69.3 60.3 71.7C60.8 72.5 87.2 72.8 211.4 72.9C324.2 73 362 73.3 362.8 74C364.4 75.3 364.1 77.6 362 81.3C358.7 86.9 360.8 86.7 306.9 86.7C251.2 86.8 253.8 86.4 250.2 94.5C249.6 95.8 248 97.8 246.6 98.7L244.1 100.5L183.6 100.9C115.9 101.3 120.2 101 116.2 106.9C113.3 111.1 113.5 114.5 116.6 115.1C117.9 115.4 164.6 115.6 220.2 115.6C333.3 115.6 323.7 115.1 322.8 121.3C322.2 125.3 318.7 129.1 314.6 130.3C312.9 130.8 290.7 131 254.1 131C187.4 130.9 193.6 130.2 188.3 138.6C184 145.3 184.5 145.2 156.6 145C122.4 144.8 117.2 146.1 117 155.1C116.9 160.8 106.6 160.4 248.6 160.2C371.9 160 376.5 160.1 377.5 161.4C379.4 163.9 375.8 171.7 372 173.4C370.5 174.1 341.6 174.3 255.4 174.4C123.1 174.5 135 173.8 130.6 181.9C126.2 189.9 130.6 189.3 77.6 189.1C21.8 188.9 21.6 188.9 17.3 196.4C15.2 200 15.1 202.5 16.9 203.3C17.6 203.6 84.9 204 166.3 204.2C247.7 204.3 314.9 204.6 315.7 204.8C319.5 205.7 316.1 214.1 310.7 217L307.4 218.8L225.6 219.2C132.4 219.6 143 218.7 137.6 226.8C133.7 232.7 135.5 232.4 90.4 232.6C42.4 232.8 41.8 232.9 39.1 243.1C37.9 247.7 30.2 247.4 154.9 247.5C262.9 247.6 268.8 247.7 269.7 249C271.7 251.7 269.8 256.6 265.6 259.8L263 261.8L171.8 261.9C67.5 262 77.4 261.3 72.9 269.3C68.6 277 70.5 276.6 36.8 277C9.80001 277.4 7.20001 277.5 5.30001 278.8C0.500006 282.1 -1.79999 289.7 1.80001 290.4C2.70001 290.6 500.5 290.9 717 291.1V0Z" fill="#FA9E00"/>
</svg>
