<svg width="371" height="89" viewBox="0 0 371 89" fill="none" xmlns="http://www.w3.org/2000/svg">
<path d="M126.837 0.11547C63.6371 0.21547 70.5371 -0.0845299 69.2371 2.41547C68.1371 4.41547 68.6371 4.31547 55.7371 4.31547C42.2371 4.31547 42.0371 4.31547 41.0371 7.01547C40.3371 8.81547 38.2371 8.61547 68.3371 8.71547L95.5371 8.81547L95.9371 9.41547C96.3371 10.1155 96.2371 10.7155 95.4371 11.8155C94.4371 13.2155 94.6371 13.1155 84.1371 13.3155L74.4371 13.4155L73.5371 14.3155C73.0371 14.8155 72.4371 15.6155 72.3371 16.0155C72.2371 16.4155 71.7371 17.0155 71.3371 17.3155L70.5371 17.8155L45.6371 17.9155C21.8371 18.0155 20.7371 18.0155 20.0371 18.5155C18.8371 19.2155 17.8371 21.2155 18.3371 22.0155C18.5371 22.3155 26.5371 22.3155 64.2371 22.4155C98.5371 22.4155 110.037 22.5155 110.337 22.7155C110.837 23.1155 110.737 23.8155 110.037 24.9155C109.037 26.6155 109.637 26.5155 93.2371 26.5155C76.3371 26.5155 77.1371 26.4155 76.0371 28.9155C75.8371 29.3155 75.3371 29.9155 74.9371 30.2155L74.1371 30.7155L55.7371 30.8155C35.1371 30.9155 36.4371 30.8155 35.2371 32.6155C34.4371 33.9155 34.5371 34.9155 35.4371 35.1155C35.8371 35.2155 50.0371 35.2155 66.9371 35.2155C101.337 35.2155 98.4371 35.0155 98.1371 36.9155C97.9371 38.1155 96.8371 39.3155 95.6371 39.6155C95.1371 39.7155 88.3371 39.8155 77.2371 39.8155C56.9371 39.8155 58.8371 39.6155 57.2371 42.1155C55.9371 44.1155 56.1371 44.1155 47.6371 44.0155C37.2371 43.9155 35.6371 44.3155 35.6371 47.1155C35.6371 48.8155 32.4371 48.7155 75.6371 48.6155C113.137 48.5155 114.537 48.6155 114.837 49.0155C115.437 49.8155 114.337 52.1155 113.137 52.6155C112.637 52.8155 103.937 52.9155 77.7371 52.9155C37.5371 52.9155 41.1371 52.7155 39.8371 55.2155C38.5371 57.6155 39.8371 57.4155 23.7371 57.4155C6.7371 57.3155 6.7371 57.3155 5.4371 59.6155C4.6371 60.9155 4.6371 61.6155 5.1371 61.9155C5.4371 61.9155 25.8371 62.1155 50.5371 62.1155C75.3371 62.1155 95.7371 62.2155 95.9371 62.3155C97.1371 62.6155 96.0371 65.1155 94.4371 66.0155L93.4371 66.5155L68.5371 66.6155C40.2371 66.7155 43.4371 66.5155 41.8371 68.9155C40.6371 70.7155 41.2371 70.6155 27.4371 70.7155C12.8371 70.7155 12.6371 70.8155 11.8371 73.9155C11.4371 75.3155 9.1371 75.2155 47.0371 75.2155C79.8371 75.2155 81.6371 75.3155 81.9371 75.7155C82.5371 76.5155 81.9371 78.0155 80.6371 79.0155L79.8371 79.6155H52.1371C20.5371 79.7155 23.5371 79.4155 22.2371 81.9155C20.9371 84.2155 21.5371 84.1155 11.2371 84.3155C3.0371 84.4155 2.2371 84.5155 1.6371 84.9155C0.1371 85.9155 -0.5629 88.2155 0.5371 88.4155C0.8371 88.5155 43.1371 88.6155 94.5371 88.6155L188.037 88.7155L190.037 88.1155C194.637 86.8155 197.937 83.4155 199.037 78.8155C199.537 76.7155 199.237 35.1155 198.637 35.0155C198.237 34.9155 195.537 40.0155 195.037 41.8155C194.937 42.1155 194.737 42.5155 194.537 42.7155C194.037 43.3155 193.237 44.8155 192.637 46.3155C191.837 48.1155 191.137 49.7155 188.337 55.5155C187.137 58.1155 185.537 61.2155 184.937 62.5155C183.537 65.4155 183.937 65.2155 178.137 65.3155C171.237 65.4155 171.337 66.2155 176.637 55.6155C178.837 51.1155 181.037 46.7155 181.437 45.8155C181.837 44.9155 182.537 43.7155 183.037 43.0155C183.537 42.3155 183.837 41.6155 183.837 41.5155C183.837 41.3155 187.137 34.6155 187.937 33.3155C188.137 33.0155 188.837 31.6155 189.437 30.3155C193.437 21.8155 193.437 21.8155 193.737 21.4155C194.237 20.7155 195.037 20.5155 196.937 20.5155C199.337 20.5155 199.337 20.6155 199.337 15.2155C199.337 4.91547 194.537 -0.0845299 184.737 0.11547C183.437 -0.0845299 157.337 0.0154701 126.837 0.11547ZM191.337 4.31547C195.337 6.31547 197.837 12.5155 194.637 12.5155C193.937 12.5155 186.637 5.61547 186.337 4.71547C185.937 3.51547 189.237 3.21547 191.337 4.31547ZM201.637 20.3155C200.937 20.4155 200.237 20.6155 200.037 20.8155C199.037 21.8155 198.937 31.5155 199.937 32.5155C200.637 33.2155 201.537 34.9155 202.137 36.3155C202.637 37.6155 204.337 41.2155 207.337 47.3155C208.437 49.6155 209.937 52.6155 210.437 53.9155C211.537 56.3155 211.937 57.1155 212.937 59.1155C213.237 59.7155 214.037 61.2155 214.537 62.3155C216.037 65.4155 215.837 65.3155 221.537 65.2155C226.737 65.1155 226.937 65.1155 226.437 63.9155C225.937 62.6155 224.437 59.5155 223.737 58.1155C223.337 57.3155 222.537 55.7155 221.937 54.5155C221.337 53.3155 219.537 49.6155 217.937 46.4155C216.337 43.2155 214.437 39.3155 213.637 37.7155C212.837 36.1155 212.037 34.5155 211.737 33.9155C211.437 33.4155 210.537 31.5155 209.637 29.7155C208.737 27.9155 207.837 25.9155 207.437 25.4155C207.137 24.8155 206.537 23.7155 206.237 23.0155C205.237 20.4155 204.337 19.9155 201.637 20.3155ZM232.337 20.2155C231.037 20.3155 230.837 20.7155 230.737 23.7155C230.637 27.7155 230.837 29.4155 231.537 29.5155C231.837 29.6155 238.237 29.7155 245.637 29.7155H259.137L260.137 30.3155C263.837 32.4155 264.037 37.7155 260.437 40.2155L259.537 40.8155L245.537 40.9155C232.537 41.0155 231.537 41.0155 231.137 41.4155C230.737 41.8155 230.337 60.3155 230.737 63.3155C230.937 65.2155 230.937 65.2155 236.037 65.2155C241.937 65.2155 241.437 66.0155 241.437 57.8155C241.437 49.4155 240.137 50.4155 251.037 50.4155C261.337 50.4155 262.137 50.3155 265.437 48.7155C271.737 45.7155 275.437 37.0155 273.137 30.9155C270.637 24.4155 267.337 21.6155 261.237 20.4155C259.037 20.0155 235.737 19.8155 232.337 20.2155ZM278.237 20.2155C276.937 20.4155 276.837 20.7155 276.837 24.9155C276.837 29.2155 276.837 29.3155 278.137 29.6155C280.237 30.1155 316.337 29.8155 316.837 29.3155C317.237 28.9155 317.037 20.9155 316.637 20.5155C316.237 20.1155 280.237 19.8155 278.237 20.2155ZM321.137 20.5155C320.437 21.0155 320.237 28.8155 320.937 29.5155C321.137 29.7155 324.037 29.8155 334.637 29.8155C347.137 29.8155 348.137 29.9155 349.837 30.3155C362.337 33.5155 362.537 51.5155 350.137 55.1155C347.837 55.8155 332.237 55.9155 331.637 55.3155C331.237 54.9155 331.237 54.0155 331.137 46.6155C331.037 38.9155 331.037 38.3155 330.637 37.9155C330.037 37.3155 321.837 37.1155 321.037 37.7155C320.437 38.1155 320.337 64.2155 320.937 64.9155C321.437 65.5155 345.337 65.5155 349.237 64.9155C351.837 64.5155 355.337 63.7155 355.737 63.4155C355.837 63.3155 356.337 63.1155 356.837 62.9155C359.237 62.1155 364.637 57.8155 366.337 55.2155C366.837 54.5155 367.437 53.6155 367.637 53.2155C367.837 52.8155 368.237 52.0155 368.437 51.4155C370.137 46.1155 370.037 46.5155 370.037 42.8155C370.037 36.0155 368.037 31.2155 362.937 26.3155C360.037 23.5155 354.237 21.0155 348.937 20.3155C344.337 19.8155 321.937 19.8155 321.137 20.5155ZM131.637 20.8155C131.937 21.3155 132.037 22.6155 132.037 30.8155C132.037 42.8155 131.937 42.4155 134.437 40.0155C136.637 37.9155 146.037 28.9155 147.337 27.6155C150.437 24.5155 154.437 20.9155 155.137 20.6155C156.237 20.1155 167.237 20.1155 167.637 20.6155C168.237 21.3155 168.337 21.2155 155.837 33.2155C149.837 38.9155 146.537 42.4155 146.537 42.9155C146.537 43.3155 147.337 44.2155 149.337 46.0155C150.837 47.4155 153.437 49.9155 155.137 51.6155C156.837 53.3155 159.537 55.8155 161.037 57.3155C168.137 64.1155 168.437 64.4155 167.737 65.1155C167.237 65.5155 156.837 65.4155 156.037 65.0155C155.237 64.6155 146.937 56.8155 141.937 51.8155C139.237 49.1155 139.437 49.0155 135.837 52.5155C131.737 56.4155 132.037 55.8155 132.037 60.5155C132.037 65.7155 132.537 65.3155 126.737 65.3155C120.537 65.3155 121.237 67.0155 121.237 52.6155C121.237 46.1155 121.237 40.1155 121.137 39.3155C120.937 30.8155 121.237 21.2155 121.637 20.8155C122.437 19.9155 131.137 20.0155 131.637 20.8155ZM278.537 38.1155C276.937 38.3155 276.837 38.5155 276.837 42.9155C276.837 47.7155 276.637 47.4155 280.337 47.5155C300.137 47.5155 311.437 47.5155 311.837 47.3155C312.437 47.0155 312.537 38.9155 311.937 38.4155C311.537 38.0155 280.637 37.8155 278.537 38.1155ZM277.537 55.9155L276.937 56.2155L276.837 60.3155C276.737 64.2155 276.837 64.4155 277.237 64.8155C277.937 65.4155 315.437 65.4155 316.337 64.8155C317.037 64.3155 317.137 56.6155 316.537 55.9155C316.037 55.5155 278.537 55.4155 277.537 55.9155ZM185.837 69.1155C186.437 69.7155 186.437 69.8155 186.437 72.8155C186.437 76.3155 186.337 76.7155 185.037 76.9155C183.237 77.3155 167.237 76.9155 166.837 76.4155C166.337 75.9155 166.137 71.3155 166.537 69.9155C166.937 68.5155 166.837 68.5155 176.437 68.5155H185.337L185.837 69.1155Z" fill="white"/>
</svg>
