<svg width="912" height="510" viewBox="0 0 912 510" fill="none" xmlns="http://www.w3.org/2000/svg">
<g id="office-space">
<g id="floor">
<path id="Vector" d="M271.141 257.7L1 257V510H912V294.792L271.141 257.7Z" fill="#FA9E00"/>
</g>
<path id="shadow" d="M2.14179 314.711L1 347L236.5 326.41L308 305.819L209.429 297L2.14179 314.711Z" fill="#030D28" fill-opacity="0.26"/>
<g id="wall-windows">
<path id="back-wall" d="M249 304.852L912 326V2L249 80.4039V304.852Z" fill="#09184D"/>
<g id="windows">
<path id="Vector_2" d="M468.991 264.3L850.676 280.2V32.5L468.991 85.3V264.3Z" fill="#F46E0D"/>
<path id="Vector_3" d="M468.991 264.3L850.676 280.2V269L468.991 258.1V264.3Z" fill="#3B5BB2"/>
<path id="Vector_4" d="M468.991 91.7L850.676 44.8V32.5L468.991 85.3V91.7Z" fill="#3B5BB2"/>
<path id="Vector_5" d="M730.458 40.1H716.792V289.2H730.458V40.1Z" fill="#09184D"/>
<path id="Vector_6" d="M734.836 54.8H730.458V275.9H734.836V54.8Z" fill="#3B5BB2"/>
<path id="Vector_7" d="M584.511 266.7H590.703V71.8L584.511 72.7V266.7Z" fill="#3B5BB2"/>
<path id="Vector_8" d="M468.991 260.8L478.493 260.5V83.9L468.991 85.3V260.8Z" fill="#3B5BB2"/>
<path id="Vector_9" d="M584.511 61.9H572.126V276.9H584.511V61.9Z" fill="#09184D"/>
</g>
</g>
<g id="shelves">
<path id="Vector_10" d="M1.06778 315L249 305.373V80.7388L1.06778 67V315Z" fill="#132566"/>
<g id="Group">
<path id="Vector_11" d="M142.459 318.5L241.164 312V95.1L142.459 89.4V318.5Z" fill="#09184D"/>
<path id="Vector_12" d="M197.192 310L236.019 307.8V99.4L197.192 97.1V310Z" fill="#030C28"/>
<path id="Vector_13" d="M197.192 108.6L236.019 99.4L197.192 97.1V108.6Z" fill="#010412"/>
<path id="Vector_14" d="M197.192 168.8L236.019 163L197.192 162.3V168.8Z" fill="#010412"/>
<path id="Vector_15" d="M197.192 310L236.019 307.8L197.192 299.3V310Z" fill="#010412"/>
<path id="Vector_16" d="M197.192 238.9L236.019 237.4L197.192 235.3V238.9Z" fill="#010412"/>
<path id="Vector_17" d="M111.585 310.7L142.459 318.5V89.4L111.585 98.1V310.7Z" fill="#040F35"/>
<path id="Vector_18" d="M195.554 243.3L238.124 241.6V237.4L195.554 238.9V243.3Z" fill="#09184D"/>
<path id="Vector_19" d="M195.554 162.3L238.124 163.1V158.8L195.554 157.9V162.3Z" fill="#09184D"/>
</g>
<g id="Group_2">
<path id="Vector_20" d="M32.9949 324L136.846 317.3V89.3L32.9949 83.2V324Z" fill="#09184D"/>
<path id="Vector_21" d="M90.6508 315.2L131.349 312.8V93.8L90.6508 92.3V315.2Z" fill="#030C28"/>
<path id="Vector_22" d="M90.6508 104.4L131.349 93.8L90.6508 92.3V104.4Z" fill="#010412"/>
<path id="Vector_23" d="M90.6508 166.7L131.349 160.6L90.6508 159.9V166.7Z" fill="#010412"/>
<path id="Vector_24" d="M90.6508 315.2L131.349 312.8L90.6508 303.9V315.2Z" fill="#09184D"/>
<path id="Vector_25" d="M90.6508 240.4L131.349 238.8L90.6508 236.7V240.4Z" fill="#010412"/>
<path id="Vector_26" d="M0.600006 315.9L32.9949 324V83.2L0.600006 92.3V315.9Z" fill="#040F35"/>
<path id="Vector_27" d="M88.7797 245.1L133.571 243.3V238.8L88.7797 240.5V245.1Z" fill="#09184D"/>
<path id="Vector_28" d="M88.7797 159.9L133.571 160.7V156.2L88.7797 155.2V159.9Z" fill="#09184D"/>
</g>
</g>
<g id="lights-2">
<path id="Vector_29" d="M516.3 0.600006H514.3V61.6H516.3V0.600006Z" fill="#030C28"/>
<path id="Vector_30" d="M515.3 57.7C512 57.7 509.4 60.4 509.4 63.6V97.5H521.2V63.6C521.2 60.3 518.6 57.7 515.3 57.7Z" fill="#030C28"/>
<path id="Vector_31" d="M494.8 6.5H492.8V92.8H494.8V6.5Z" fill="#030C28"/>
<path id="Vector_32" d="M493.8 88.8C490.5 88.8 487.9 91.5 487.9 94.7V128.6H499.7V94.7C499.7 91.5 497 88.8 493.8 88.8Z" fill="#030C28"/>
<path id="Vector_33" d="M469 2H467V63H469V2Z" fill="#030C28"/>
<path id="Vector_34" d="M468.8 41.1C465.5 41.1 462.9 43.8 462.9 47V80.9H474.7V47C474.7 43.7 472 41.1 468.8 41.1Z" fill="#030C28"/>
</g>
<g id="lights-1">
<path id="Vector_35" d="M325 56.8H323.6V100.8H325V56.8Z" fill="#030C28"/>
<path id="Vector_36" d="M324.3 98C321.9 98 320 99.9 320 102.3V126.7H328.5V102.3C328.6 99.9 326.7 98 324.3 98Z" fill="#030C28"/>
<path id="Vector_37" d="M309.5 61H308.1V123.2H309.5V61Z" fill="#030C28"/>
<path id="Vector_38" d="M308.8 120.4C306.4 120.4 304.5 122.3 304.5 124.7V149.1H313V124.7C313.1 122.3 311.2 120.4 308.8 120.4Z" fill="#030C28"/>
<path id="Vector_39" d="M291.5 44.8H290.1V88.8H291.5V44.8Z" fill="#030C28"/>
<path id="Vector_40" d="M290.8 86C288.4 86 286.5 87.9 286.5 90.3V114.7H295V90.3C295 87.9 293.1 86 290.8 86Z" fill="#030C28"/>
</g>
<g id="tray">
<g id="Group_3">
<g id="Group_4">
<path id="Vector_41" d="M347.012 372.042C347.131 372.752 347.486 373.226 347.841 373.581C347.959 373.699 350.445 375.357 350.445 375.357C350.327 375.238 350.209 375.238 350.209 375.12C350.09 375.002 349.972 375.002 349.972 374.883C349.854 374.765 349.854 374.765 349.735 374.646C347.486 371.214 351.748 367.307 354.825 368.728C354.944 368.728 355.062 368.846 355.181 368.964C355.181 368.964 352.813 367.544 352.695 367.425C349.498 366.123 346.539 369.438 347.012 372.042Z" fill="#09184D"/>
</g>
<g id="Group_5">
<g id="Group_6">
<path id="Vector_42" d="M353.405 368.491C352.339 368.491 351.274 368.964 350.445 369.675C348.788 371.214 348.551 373.581 349.972 374.883C350.564 375.475 351.392 375.83 352.339 375.83C353.405 375.83 354.47 375.357 355.299 374.646C356.956 373.108 357.193 370.74 355.772 369.438C355.181 368.728 354.352 368.491 353.405 368.491Z" fill="#25427D"/>
</g>
<g id="Group_7">
<path id="Vector_43" d="M353.523 369.201C352.576 369.201 351.748 369.556 351.037 370.267C349.735 371.569 349.38 373.463 350.445 374.528C350.919 375.002 351.511 375.238 352.221 375.238C353.168 375.238 353.997 374.883 354.707 374.173C356.009 372.871 356.246 370.977 355.299 369.911C354.825 369.438 354.234 369.201 353.523 369.201Z" fill="#0F1314"/>
</g>
<g id="Group_8">
<path id="Vector_44" d="M353.997 369.201C354.47 370.267 354.234 371.687 353.168 372.634C352.458 373.226 351.629 373.581 350.801 373.581C350.445 373.581 350.209 373.581 349.972 373.463C350.09 373.818 350.209 374.173 350.564 374.41C351.037 374.883 351.629 375.12 352.339 375.12C353.286 375.12 354.115 374.765 354.825 374.055C356.128 372.752 356.364 370.858 355.417 369.793C354.944 369.556 354.47 369.319 353.997 369.201Z" fill="#030C28"/>
</g>
</g>
</g>
<g id="Group_9">
<path id="Vector_45" d="M350.919 368.254C352.221 367.425 353.523 367.899 353.523 367.899L355.181 363.874L352.339 362.572L350.919 368.254Z" fill="#0F1314"/>
</g>
<g id="Group 1">
<g id="Group_10">
<g id="Group_11">
<path id="Vector_46" d="M388.445 375.12C388.563 375.83 389.037 376.541 389.392 376.896C389.629 377.132 392.47 378.908 392.47 378.908C392.351 378.79 392.233 378.79 392.115 378.671C391.996 378.553 391.878 378.435 391.759 378.435C391.641 378.316 391.641 378.198 391.523 378.198C389.037 374.291 393.772 369.793 397.323 371.45C397.442 371.569 397.56 371.569 397.797 371.687C397.797 371.687 395.074 370.03 394.956 369.911C391.286 368.254 387.853 372.042 388.445 375.12Z" fill="#09184D"/>
</g>
<g id="Group_12">
<g id="Group_13">
<path id="Vector_47" d="M395.666 370.977C394.482 370.977 393.298 371.45 392.351 372.397C390.576 374.173 390.221 376.777 391.759 378.435C392.47 379.145 393.417 379.5 394.482 379.5C395.666 379.5 396.85 379.027 397.797 378.079C399.572 376.304 399.928 373.699 398.389 372.042C397.678 371.332 396.731 370.977 395.666 370.977Z" fill="#25427D"/>
</g>
<g id="Group_14">
<path id="Vector_48" d="M395.784 371.687C394.719 371.687 393.772 372.161 392.943 372.871C391.404 374.291 391.168 376.541 392.351 377.724C392.825 378.198 393.535 378.553 394.364 378.553C395.429 378.553 396.376 378.079 397.205 377.369C398.744 375.949 398.981 373.699 397.797 372.516C397.323 372.042 396.613 371.687 395.784 371.687Z" fill="#0F1314"/>
</g>
<g id="Group_15">
<path id="Vector_49" d="M396.376 371.805C396.968 372.989 396.613 374.646 395.429 375.83C394.719 376.541 393.653 377.014 392.706 377.014C392.351 377.014 391.996 376.896 391.641 376.777C391.759 377.251 391.996 377.606 392.233 377.961C392.706 378.435 393.417 378.79 394.245 378.79C395.311 378.79 396.258 378.316 397.086 377.606C398.625 376.185 398.862 373.936 397.678 372.752C397.442 372.161 396.968 371.924 396.376 371.805Z" fill="#030C28"/>
</g>
</g>
</g>
<g id="Group_16">
<path id="Vector_50" d="M392.825 370.74C394.245 369.793 395.903 370.385 395.903 370.385L397.797 365.768L394.601 364.348L392.825 370.74Z" fill="#0F1314"/>
</g>
</g>
<g id="Group 2">
<g id="Group_17">
<g id="Group_18">
<path id="Vector_51" d="M428.693 369.201C428.812 369.911 429.285 370.622 429.641 370.977C429.877 371.214 432.718 372.989 432.718 372.989C432.6 372.871 432.482 372.871 432.363 372.752C432.245 372.634 432.126 372.516 432.008 372.516C431.89 372.397 431.89 372.279 431.771 372.279C429.285 368.372 434.021 363.874 437.572 365.531C437.69 365.65 437.809 365.65 438.045 365.768C438.045 365.768 435.323 364.111 435.204 363.992C431.535 362.335 428.102 366.123 428.693 369.201Z" fill="#09184D"/>
</g>
<g id="Group_19">
<g id="Group_20">
<path id="Vector_52" d="M435.915 365.058C434.731 365.058 433.547 365.531 432.6 366.478C430.824 368.254 430.469 370.858 432.008 372.516C432.718 373.226 433.665 373.581 434.731 373.581C435.915 373.581 437.098 373.108 438.045 372.161C439.821 370.385 440.176 367.781 438.637 366.123C437.927 365.413 436.98 365.058 435.915 365.058Z" fill="#25427D"/>
</g>
<g id="Group_21">
<path id="Vector_53" d="M436.033 365.768C434.968 365.768 434.021 366.242 433.192 366.952C431.653 368.372 431.416 370.622 432.6 371.805C433.074 372.279 433.784 372.634 434.612 372.634C435.678 372.634 436.625 372.161 437.454 371.45C438.992 370.03 439.229 367.781 438.045 366.597C437.572 366.123 436.862 365.768 436.033 365.768Z" fill="#0F1314"/>
</g>
<g id="Group_22">
<path id="Vector_54" d="M436.625 365.886C437.217 367.07 436.862 368.728 435.678 369.911C434.968 370.622 433.902 371.095 432.955 371.095C432.6 371.095 432.245 370.977 431.89 370.858C432.008 371.332 432.245 371.687 432.482 372.042C432.955 372.516 433.665 372.871 434.494 372.871C435.559 372.871 436.507 372.397 437.335 371.687C438.874 370.266 439.111 368.017 437.927 366.834C437.69 366.242 437.217 366.005 436.625 365.886Z" fill="#030C28"/>
</g>
</g>
</g>
<g id="Group_23">
<path id="Vector_55" d="M433.074 364.821C434.494 363.874 436.151 364.466 436.151 364.466L438.045 359.849L434.849 358.429L433.074 364.821Z" fill="#0F1314"/>
</g>
</g>
<g id="Group 3">
<g id="Group_24">
<g id="Group_25">
<path id="Vector_56" d="M373.056 363.282C373.174 363.992 373.648 364.703 374.003 365.058C374.239 365.295 377.081 367.07 377.081 367.07C376.962 366.952 376.844 366.952 376.725 366.834C376.607 366.715 376.489 366.597 376.37 366.597C376.252 366.478 376.252 366.36 376.134 366.36C373.648 362.454 378.383 357.955 381.934 359.612C382.052 359.731 382.171 359.731 382.408 359.849C382.408 359.849 379.685 358.192 379.566 358.074C375.897 356.416 372.464 360.204 373.056 363.282Z" fill="#09184D"/>
</g>
<g id="Group_26">
<g id="Group_27">
<path id="Vector_57" d="M380.277 359.139C379.093 359.139 377.909 359.612 376.962 360.559C375.186 362.335 374.831 364.939 376.37 366.597C377.081 367.307 378.028 367.662 379.093 367.662C380.277 367.662 381.461 367.189 382.408 366.242C384.183 364.466 384.538 361.862 382.999 360.204C382.289 359.494 381.342 359.139 380.277 359.139Z" fill="#25427D"/>
</g>
<g id="Group_28">
<path id="Vector_58" d="M380.395 359.849C379.33 359.849 378.383 360.323 377.554 361.033C376.015 362.453 375.778 364.703 376.962 365.886C377.436 366.36 378.146 366.715 378.975 366.715C380.04 366.715 380.987 366.242 381.816 365.531C383.355 364.111 383.591 361.862 382.408 360.678C381.934 360.204 381.224 359.849 380.395 359.849Z" fill="#0F1314"/>
</g>
<g id="Group_29">
<path id="Vector_59" d="M380.987 359.968C381.579 361.151 381.224 362.809 380.04 363.992C379.33 364.703 378.264 365.176 377.317 365.176C376.962 365.176 376.607 365.058 376.252 364.939C376.37 365.413 376.607 365.768 376.844 366.123C377.317 366.597 378.028 366.952 378.856 366.952C379.922 366.952 380.869 366.478 381.697 365.768C383.236 364.348 383.473 362.098 382.289 360.915C382.052 360.323 381.579 360.086 380.987 359.968Z" fill="#030C28"/>
</g>
</g>
</g>
<g id="Group_30">
<path id="Vector_60" d="M377.436 358.902C378.856 357.955 380.514 358.547 380.514 358.547L382.408 353.93L379.211 352.51L377.436 358.902Z" fill="#0F1314"/>
</g>
</g>
<g id="Group_31">
<path id="Vector_61" d="M401.585 365.886L443.254 361.033V272.368L401.585 270V365.886Z" fill="#09194E"/>
</g>
<g id="Group_32">
<path id="Vector_62" d="M401.585 287.638V288.467L443.372 288.585L443.254 287.757L401.585 287.638Z" fill="#123D6A"/>
</g>
<g id="Group_33">
<path id="Vector_63" d="M401.585 307.881V308.828L443.372 307.644L443.254 306.816L401.585 307.881Z" fill="#123D6A"/>
</g>
<g id="Group_34">
<path id="Vector_64" d="M401.585 327.532V328.361L443.372 325.993L443.254 325.164L401.585 327.532Z" fill="#123D6A"/>
</g>
<g id="Group_35">
<path id="Vector_65" d="M401.585 347.183L401.703 348.011L443.372 343.868L443.254 342.921L401.585 347.183Z" fill="#123D6A"/>
</g>
<g id="Group_36">
<path id="Vector_66" d="M345.237 363.401L401.585 365.886V270L345.237 272.368V363.401Z" fill="#2949A2"/>
</g>
<g id="Group_37">
<path id="Vector_67" d="M345.118 289.769L401.466 288.467L401.703 287.638L345.355 288.941L345.118 289.769Z" fill="#0F1314"/>
</g>
<g id="Group_38">
<path id="Vector_68" d="M345 308.828L401.466 308.71L401.703 307.881L345.355 307.999L345 308.828Z" fill="#0F1314"/>
</g>
<g id="Group_39">
<path id="Vector_69" d="M345 327.414L401.466 328.361L401.822 327.532L345.355 326.585L345 327.414Z" fill="#0F1314"/>
</g>
<g id="Group_40">
<path id="Vector_70" d="M345 346.117L401.466 348.011L401.822 347.183L345.474 345.289L345 346.117Z" fill="#0F1314"/>
</g>
</g>
<g id="ppl">
<g id="Group_41">
<g id="Group_42">
<path id="Vector_71" d="M461.5 243.5C460.7 243.8 460.3 244.6 460.5 245.4C460.6 245.7 470.9 278.7 470.5 319.6C470.5 320.4 471.2 321.1 472 321.1C472.8 321.1 473.5 320.4 473.5 319.6C473.9 278.2 463.5 244.8 463.4 244.5C463.1 243.6 462.3 243.2 461.5 243.5Z" fill="#103099"/>
</g>
<g id="Group_43">
<path id="Vector_72" d="M502.5 240.1C501.7 240.4 501.3 241.2 501.5 242C501.6 242.3 511.9 275.3 511.5 316.2C511.5 317 512.2 317.7 513 317.7C513.8 317.7 514.5 317 514.5 316.2C514.9 274.8 504.5 241.4 504.4 241.1C504.1 240.3 503.3 239.8 502.5 240.1Z" fill="#103099"/>
</g>
<g id="Group_44">
<g id="Group_45">
<g id="Group_46">
<path id="Vector_73" d="M508.3 230.3C507.8 228.3 505.6 224.4 500.4 224.4L461.6 224.5C456.4 224.4 451.1 227.7 450.1 231.8C450.1 231.8 454 268.3 454.3 269.6C455.2 273.4 458.1 276.2 460.7 275.6C463.3 275 511.4 267.6 511.4 267.6L504.9 231.3C505 230.6 508.4 230.9 508.3 230.3Z" fill="#3B5BB2"/>
</g>
</g>
<g id="Group_47">
<g id="Group_48">
<path id="Vector_74" d="M504.7 227.4L466.4 228.3C461.4 228.3 454.7 231.1 455.5 235.7L460.8 275.6C502.1 273.3 516.2 266.5 516.2 266.5C516.2 266.5 511.5 240.7 509.4 232.7C508.5 229.8 507.7 227.3 504.7 227.4Z" fill="#030C28"/>
</g>
</g>
</g>
<g id="Group_49">
<g id="Group_50">
<g id="Group_51">
<g id="Group_52">
<path id="Vector_75" d="M558 315.9L516.1 314.2C513.2 314.7 510.1 316 509.9 317.9L504.4 395.8L506.7 394.7L514.1 317.5C514.3 316.4 515.3 316 517 315.7L557.5 317.6C559.2 317.3 561.2 320.8 561.5 321.8L577.1 404.4L579.1 403.4L564.8 319.4C564.1 317.6 561.3 316.1 558 315.9Z" fill="#103099"/>
</g>
<g id="Group_53">
<path id="Vector_76" d="M554.5 316.5L513.8 313.9C510.9 314.4 508.4 316.3 508.1 318.2L501.3 394.6L504.3 395.8L510.4 318C510.6 316.9 512.1 315.7 513.8 315.4L554.5 318C556.3 318.2 558.5 319.5 558.9 320.5L573.8 403.6L576.9 404.5L561.3 319.9C560.7 318.1 558.5 316.8 554.5 316.5Z" fill="#497DAF"/>
</g>
</g>
</g>
<g id="Group_54">
<g id="Group_55">
<g id="Group_56">
<path id="Vector_77" d="M522.1 323L477.5 318.8C474.6 319.1 470.9 321.1 470.6 323L465.5 404.5L467.7 404.1L474.8 322.8C475 321.7 476.6 320.6 478.3 320.4L521.5 324.7C523.2 324.5 524.9 328.1 525.2 329.1L532.4 416.8L534.4 415.9L528.6 326.7C528 325 525.3 323.3 522.1 323Z" fill="#103099"/>
</g>
<g id="Group_57">
<path id="Vector_78" d="M518.6 323.4L474.7 319.2C471.8 319.5 469.2 321.3 468.8 323.2L462.5 403.9L465.4 404.5L471.1 323.2C471.3 322.1 472.9 321 474.6 320.8L518.5 325C520.3 325.3 522.4 326.7 522.7 327.7L529.2 415.8L532.2 416.8L525.1 327.1C524.6 325.3 522.5 323.9 518.6 323.4Z" fill="#497DAF"/>
</g>
</g>
</g>
</g>
<g id="Group_58">
<g id="Group_59">
<path id="Vector_79" d="M566.8 316.2L515.8 313.1C515.2 313.1 514.8 313.1 514.6 313.2L467.3 319.1C466 319.6 465.5 323 468 323.7L532.3 329.1C532.8 329.1 533.3 329.1 533.5 329L567.7 321.3C569.9 320.7 569.8 316.5 566.8 316.2Z" fill="#598EC2"/>
</g>
</g>
<g id="Group_60">
<g id="Group_61">
<path id="Vector_80" d="M561.9 315.5L510.9 311.3C510.3 311.3 509.9 311.3 509.7 311.4L467.9 319C465.2 319.5 467.4 320.8 470.4 321L532.5 326.1C533 326.1 533.5 326.1 533.7 326L567.9 318.3C570.5 317.5 564.9 315.7 561.9 315.5Z" fill="#3B5BB2"/>
</g>
</g>
<path id="Vector_81" d="M572.2 315.8C562.1 338.4 556.2 383.7 554.2 391.2C553 395.6 563.3 397.5 564.6 391.2C565.9 384.9 588.2 338.2 593.5 318.2C596.1 308.4 582.3 293.2 572.2 315.8Z" fill="#FFC4C1"/>
<g id="Group_62">
<g id="Group_63">
<path id="Vector_82" d="M578.3 294C562.9 288.9 536.9 283.2 526.5 285.8C516.1 288.4 501.1 297.8 506.7 310.7C509 316 515.6 323.3 534.3 319.3C553 315.2 583.5 324 591.5 319.4C608.2 309.8 597.7 300.4 578.3 294Z" fill="#0F1314"/>
</g>
</g>
<g id="Group_64">
<g id="Group_65">
<path id="Vector_83" d="M570.4 301.9C561.7 313.6 553.8 373.9 553.8 373.9C561.5 379.8 572.3 378.2 572.3 378.2C588.4 341.4 599.5 311.6 599.5 311.6C599.5 311.6 574.9 295.7 570.4 301.9Z" fill="#0F1314"/>
</g>
</g>
<g id="Group_66">
<g id="Group_67">
<path id="Vector_84" d="M570.4 301.9C561.7 313.6 553.8 373.9 553.8 373.9C561.5 379.8 572.3 378.2 572.3 378.2C582.9 354.1 592.9 319.5 589.9 309C586.1 296.1 573.3 298 570.4 301.9Z" fill="#0F1314"/>
</g>
</g>
<g id="Group_68">
<path id="Vector_85" d="M579.1 396.9C574 396.6 569.5 394.2 566.5 390.9C566 390.3 565.9 388.9 566.6 387.8C562.7 389 557.5 388.9 552.5 388.1C552.5 390.1 551.7 393.2 551.4 393.6C550.3 395.3 548.4 399.2 550.6 401.7C552.8 404.2 557.8 403.3 559.3 402.8C560.8 402.3 561.6 402.5 566.3 404.2C571.1 405.9 581.9 402.4 582.8 401.9C583.8 401.4 584.1 397.3 579.1 396.9Z" fill="#3B5BB2"/>
</g>
<g id="Group_69">
<g id="Group_70">
<path id="Vector_86" d="M566.2 402C561.1 399.9 560.3 399.7 558.6 400.1C557 400.5 552.1 400.9 549.5 398.6C549.5 399.7 549.7 400.8 550.5 401.7C552.7 404.2 557.6 403.3 559.2 402.8C560.7 402.3 561.5 402.5 566.2 404.2C571 405.9 581.8 402.4 582.7 401.9C582.9 401.8 583.1 401.5 583.2 401C580.6 401.8 570.8 403.9 566.2 402Z" fill="#103099"/>
</g>
</g>
<path id="Vector_87" d="M585.1 312.3C580.7 303.1 560.3 300.5 567.3 324.2C574.3 348 599.1 386.2 602.5 393.2C604.5 397.4 613.6 392.1 610.4 386.5C607.4 381 594.1 331 585.1 312.3Z" fill="#FFC4C1"/>
<g id="Group_71">
<path id="Vector_88" d="M627.2 385.5C622.6 387.7 617.5 387.8 613.3 386.3C612.5 386 611.8 384.9 611.8 383.5C609 386.4 604.4 388.9 599.6 390.7C600.6 392.5 601.4 395.5 601.3 396C601.2 398 601.4 402.4 604.6 403.5C607.7 404.6 611.6 401.4 612.7 400.3C613.8 399.1 614.5 398.9 619.5 398.1C624.5 397.3 632.2 388.9 632.8 388C633.5 387.1 631.8 383.3 627.2 385.5Z" fill="#3B5BB2"/>
</g>
<g id="Group_72">
<g id="Group_73">
<path id="Vector_89" d="M618.5 396.1C613 396.8 612.2 397 611 398.1C609.8 399.2 605.7 402 602.3 401.2C602.8 402.2 603.6 403 604.7 403.4C607.8 404.5 611.7 401.3 612.8 400.2C613.9 399 614.6 398.8 619.6 398C624.6 397.2 632.3 388.8 632.9 387.9C633 387.7 633 387.3 632.9 386.9C630.9 389 623.3 395.6 618.5 396.1Z" fill="#103099"/>
</g>
</g>
<g id="Group_74">
<path id="Vector_90" d="M561.7 316.3C561.7 316.3 564.6 322 568.1 333.2C574.3 353.4 591.1 382.2 591.1 382.2C600.8 381.6 607.3 373.4 607.3 373.4C600.3 358.2 585.9 307 585.9 307L561.7 316.3Z" fill="#030C28"/>
</g>
<g id="Group_75">
<path id="Vector_91" d="M590.8 352.6C585.5 341.8 585 328.2 579.3 318.2C577.8 315.6 577.3 312.6 577.9 309.9L561.7 316.4C561.7 316.4 564.6 322.1 568.1 333.3C574.3 353.5 591.1 382.3 591.1 382.3C599.1 381.8 604.9 376.1 606.7 374.2C605.1 372.2 603.4 370.3 601.7 368.4C597.4 363.5 593.7 358.5 590.8 352.6Z" fill="#030C28"/>
</g>
<g id="Group_76">
<path id="Vector_92" d="M570.9 295.7C555.8 289.8 513.5 286.6 503 288.5C492.5 290.5 483.4 297.8 488.1 311C490 316.4 496 324.4 518.8 323.1C540.6 321.9 565.4 322.1 574.2 319C591.1 313 589.8 303.1 570.9 295.7Z" fill="#030C28"/>
</g>
<g id="Group_77">
<path id="Vector_93" d="M545.6 303.9C521 303.9 543.2 290.3 543.4 290.1C527 287.1 509.2 287.4 502.9 288.6C492.4 290.6 483.3 297.9 488 311.1C489.9 316.5 495.9 324.5 518.7 323.2C540.5 322 565.3 322.2 574.1 319.1C575.6 318.6 577.2 317.9 578.4 317.3C574.9 308.1 561 303.9 545.6 303.9Z" fill="#030C28"/>
</g>
<g id="Group_78">
<path id="Vector_94" d="M529.9 181.6C518.8 177 515.5 189.2 516 193.8C516.5 198.4 516.8 203.7 510.7 208.4C504.5 213.1 503.1 218.3 498.6 225.5C490.1 239.1 505.8 240.6 505.8 240.6C528.7 239.6 530.9 226.2 530.9 226.2C530.9 226.2 528.2 222 524.4 217.1C522.1 214.1 522.6 207.6 523.9 207.6C524.8 207.6 526.8 212.8 530.1 211.9C533.7 211 539.9 205.9 539.9 205.9C539.5 201.5 539.9 199.9 541.8 197.2C543.7 194.5 543 192.2 542.6 190.5C542.3 187.9 540.7 186.1 529.9 181.6Z" fill="#FFC4C1"/>
</g>
<g id="Group_79">
<g id="Group_80">
<path id="Vector_95" d="M529.9 181.6C525.3 179.7 522.1 180.7 519.8 182.8C520.4 183.6 520.9 184.6 521.2 185.6C523.7 193.8 521.6 203.8 515.6 210C513.4 212.3 509.9 212.7 507 211.7C503.6 215.5 502 219.9 498.5 225.4C490 239 505.7 240.5 505.7 240.5C521.2 239.8 527.2 233.5 529.5 229.5C516.8 218.2 522.6 207.6 523.9 207.6C524.8 207.6 526.8 212.8 530.1 211.9C530.1 211.9 525.8 211.5 523 204.2C520 196.1 532.6 188.8 540 188.6C540.7 188.6 541.4 188.7 542 188.9C541.2 187 538.5 185.1 529.9 181.6Z" fill="#E39E98"/>
</g>
</g>
<g id="Group_81">
<g id="Group_82">
<g id="Group_83">
<path id="Vector_96" d="M517.1 165C512.6 164.4 509 167.6 509 172C509 176.5 508.4 182.4 512.9 182.9C517.3 183.4 525.2 178.4 525.2 174C525.2 169.6 521.6 165.6 517.1 165Z" fill="#0F1314"/>
</g>
<g id="Group_84">
<path id="Vector_97" d="M526.9 167.1C524.7 165.4 521.8 165.7 520.5 167.8C520.4 168 520.2 168.2 520.1 168.5C521.1 167.6 522.8 167.5 524.1 168.5C525.6 169.6 526.1 171.7 525.1 173.1C524.3 174.3 522.7 174.6 521.3 173.9C521.5 174.1 521.7 174.3 521.9 174.5C524.1 176.1 527 175.8 528.3 173.8C529.7 171.7 529 168.7 526.9 167.1Z" fill="#0F1314"/>
</g>
<g id="Group_85">
<path id="Vector_98" d="M509 164.9C507.6 165.3 506.9 166.9 507.5 168.4C508.1 169.9 509.8 170.7 511.2 170.3C511.3 170.3 511.5 170.2 511.6 170.1C510.7 170.2 509.8 169.6 509.5 168.7C509.1 167.7 509.5 166.6 510.5 166.3C511.3 166 512.3 166.5 512.8 167.3C512.8 167.1 512.7 167 512.7 166.8C512.1 165.4 510.4 164.5 509 164.9Z" fill="#0F1314"/>
</g>
</g>
<g id="Group_86">
<path id="Vector_99" d="M543.3 184.6C543.3 184.6 544.2 179.2 539.2 175.5C534.2 171.8 526.3 170.1 517.7 175.5C509 180.9 511.1 197.9 514.1 201.6C517.1 205.2 517.6 199.4 520.3 198.8C522.9 198.1 526.1 197 525.2 194.1C523.6 189 529.4 184.3 530.7 190.5C531.4 194.2 537.7 192.5 537.7 192.5C534.9 193.2 530.3 196.8 530.3 196.8C533.6 195.4 545.1 199.5 547.9 193C550.6 186.4 543.3 184.6 543.3 184.6Z" fill="#0F1314"/>
</g>
</g>
<g id="Group_87">
<g id="Group_88">
<path id="Vector_100" d="M536 247.5C537.4 243 539.5 236.4 536.9 233.6C534.3 230.7 530.2 224.3 530.2 224.3C514.5 220.4 509.9 208.8 509.9 208.8C509.9 208.8 492.2 223.5 490.4 253.8C490 260.7 484.5 281.4 486.8 305.7C486.8 305.7 505.5 303 518.4 294.6C530.6 286.7 538.9 285.5 538.9 285.5C536.6 276.7 534.5 251.9 536 247.5Z" fill="#FA9E00"/>
</g>
</g>
<g id="Group_89">
<g id="Group_90">
<path id="Vector_101" d="M520.5 260.5C520.9 256.1 524.4 251.3 523.9 246.2C523.2 238.4 506 233.7 506.1 228.5C506.4 220.1 492.2 223.3 490.4 253.6C490 260.5 484.5 281.2 486.8 305.5C486.8 305.5 505.5 302.8 518.4 294.4C524.6 290.4 529.8 288.1 533.4 286.8C531.7 285 530.1 283 528.6 281C524.2 275.2 519.9 268.3 520.5 260.5Z" fill="#0F1314"/>
</g>
</g>
</g>
<g id="Group_91">
<path id="Vector_102" d="M697.1 252C697.1 265.6 696.5 279.5 701.2 306.6C706.8 338.6 726.2 323.1 728.9 302C731.6 280.9 730.1 252.5 730.1 252.5L697.1 252Z" fill="#030C28"/>
<path id="Vector_103" d="M701.3 306.6C704.6 325.8 713 327.9 719.7 321.9V252.3L697.2 251.9C697.1 265.5 696.5 279.4 701.3 306.6Z" fill="#0F1314"/>
<path id="Vector_104" d="M674 253.6C674 267.2 672.5 281.7 677.3 308.9C682.9 340.9 704.1 326.9 705.8 303.6C707.4 282.4 707 254.1 707 254.1L674 253.6Z" fill="#030C28"/>
<path id="Vector_105" d="M748.3 194.1C744 181.3 739.4 187.1 732.5 177.6C723.4 165.1 707.4 166 701.6 165.9C694.5 165.8 689.7 166 679.5 172.6C669.2 179.1 666.8 189.3 670.7 215.3C672.5 227.6 672.2 260.5 672.2 260.5C699.2 271.7 731.4 258.7 731.4 258.7L730.9 207.6C730.9 207.6 731.9 213.5 737.6 221.3C743.2 229.1 752.1 232.8 757.8 224.4C763.6 215.9 758.8 209.5 757.8 205.4C756.6 201.4 748.9 195.9 748.3 194.1Z" fill="#103099"/>
<path id="Vector_106" d="M693.9 165.3C683.7 177.7 691.7 193 691.7 193C694.4 192.2 694.6 188.5 698.2 189.8C701.8 191.1 708.1 191.9 708.1 191.9C708.1 191.9 700.9 173.2 698.4 167.7C695.9 162.2 693.9 165.3 693.9 165.3Z" fill="white"/>
<path id="Vector_107" d="M703.5 166.1C703.5 166.1 700.5 164.8 701.8 170C703.1 175.2 708.2 192.1 708.2 192.1C708.2 192.1 711.9 188.6 713.5 186C715.2 183.4 717.3 185.9 719.4 185.2C719.4 185.1 716.6 170.2 703.5 166.1Z" fill="white"/>
<path id="Vector_108" d="M703.7 249.2C701.6 246.1 711 237 707.7 234.7C698.7 228.5 689.9 220.9 684.9 211C680.4 202.2 679.8 192.2 680 182.5C680.1 178.4 666.7 189.2 670.6 215.2C672.4 227.5 672.1 260.4 672.1 260.4C692 268.7 714.7 263.8 725.3 260.6C724.3 257.7 723.3 254.8 722.4 251.9C721.9 250.4 705.1 251.1 703.7 249.2Z" fill="#3B5BB2"/>
<path id="Vector_109" d="M747.7 217.5C744.8 214.3 744.9 209.9 742.8 206.4C740.8 203.1 735.9 203.8 733.1 201.4C723.8 193.5 718.9 204.7 721.1 212.7C722.2 216.5 729.5 229.5 731.2 231.9L731 207.6C731 207.6 732 213.5 737.7 221.3C743.3 229.1 752.2 232.8 757.9 224.4C758.9 222.9 759.6 221.5 760 220.1C755.5 221.5 750.9 221.2 747.7 217.5Z" fill="#3B5BB2"/>
<path id="Vector_110" d="M721.2 154.6V155.2L725.3 156.7L725.2 155.9L721.2 154.6Z" fill="#030C28"/>
<g id="Group_92">
<path id="Vector_111" d="M697.6 166.2C693.7 171.9 694.3 179.8 708.2 191.9C708.2 191.9 705.5 172.1 714.8 175.2C724 178.2 703.5 157.5 697.6 166.2Z" fill="#FFC4C1"/>
<path id="Vector_112" d="M697.6 166.2C694.5 170.8 694.2 176.7 701.3 185.1C701.4 183.1 702.1 181.2 703.5 179.6C705.2 177.6 708.2 175.6 711 175.4C712 174.8 713.2 174.6 714.8 175.2C724 178.2 703.5 157.5 697.6 166.2Z" fill="#E39E98"/>
</g>
<path id="Vector_113" d="M722.5 153.3C722.6 152.3 722.6 151.5 722.5 150.7C722.4 148.3 721.9 146.7 721.2 145.4C718.5 140.2 706.5 141.9 702.6 145.4C698.7 148.9 698 163.6 701.4 168.8C701.6 169 701.7 169.3 701.9 169.5C705.7 174.4 714.2 178.1 718.1 176.3C722.1 174.4 724 162.4 723.7 159.4C723.4 156.5 722.3 157.3 722.5 153.3Z" fill="#FFC4C1"/>
<path id="Vector_114" d="M702.6 145.4C698.7 148.9 698 163.6 701.4 168.8C701.6 169 701.7 169.3 701.9 169.5C702.8 169 703.5 168.1 703.5 168.1C708.5 168.1 706.7 163.7 706.7 163.7C710.9 161.5 708.1 158.2 708.1 158.2C709.5 159.6 711.2 156.8 711.2 156.8C714.1 158.1 713.9 153.6 713.9 153.6C715.7 153.6 715 151.7 715 151.7C719.6 153.3 719.2 148.5 719.2 148.5C720.3 150.3 721.5 150.7 722.5 150.6C722.4 148.2 721.9 146.6 721.2 145.3C718.5 140.2 706.5 141.9 702.6 145.4Z" fill="#E39E98"/>
<g id="Group_93">
<path id="Vector_115" d="M723.4 154.8C720.8 156.1 719.9 158 719.7 158.7C719.4 158.7 719.1 158.9 718.9 159.1C715.1 157.5 712.1 161 711.4 161.8L702.5 160.2C702.3 160.2 702.2 160.3 702.1 160.4L701.9 160.9C701.9 161 701.9 161.1 701.9 161.2C701.9 161.3 702 161.3 702.1 161.4L711 163C711 163.7 711 165.6 712.1 166.5C712.5 166.8 713 167 713.5 167C713.9 167 714.3 166.9 714.7 166.8C718.8 165.5 719.2 160.6 719.2 159.9C719.3 159.7 719.5 159.6 719.6 159.6C719.7 160.2 720.3 162 721.4 162.5C721.9 162.8 722.5 162.7 723.1 162.4C725.2 161.4 726.3 157.1 725.4 155.3C725.1 154.6 724.3 154.4 723.4 154.8ZM718.7 159.8C718.7 159.9 718.6 164.9 714.6 166.2C713.7 166.5 713.1 166.4 712.6 166C711.5 165.1 711.7 162.8 711.7 162.8C711.7 162.7 711.7 162.5 711.8 162.4C711.9 162.2 714.8 158.1 718.7 159.8ZM722.9 161.9C722.5 162.1 722.1 162.1 721.7 162C720.8 161.6 720.3 159.9 720.2 159.3V159.2C720.2 159.1 720.6 156.9 723.6 155.4C723.9 155.3 724.1 155.2 724.3 155.2C724.7 155.2 724.9 155.4 725 155.7C725.7 157.2 724.6 161.1 722.9 161.9Z" fill="#697082"/>
</g>
<path id="Vector_116" d="M724.6 140.3C725.4 137 721.7 138.1 721.7 138.1C722.2 132.1 716.9 133.4 716.9 133.4C713.9 125.7 707.7 130 707.7 130C704.6 126.8 703.3 130.4 703.3 130.4C695.3 125.9 693.3 132.2 693.3 132.2C688.2 131.1 688.9 135.3 688.9 135.3C682.7 137.1 686.1 141.3 686.1 141.3C678.5 143.7 684.1 148.7 684.1 148.7C680.1 152.4 686 152.1 686 152.1C678.6 156.8 686.6 160.3 686.6 160.3C684.5 164.5 688.8 164.5 688.8 164.5C693.3 170.6 697.5 166.2 697.5 166.2C699.8 169.5 702 166.1 702 166.1C706.7 166.1 705 161.9 705 161.9C708.9 159.9 706.3 156.7 706.3 156.7C707.6 158 709.2 155.4 709.2 155.4C711.9 156.7 711.7 152.4 711.7 152.4C713.4 152.4 712.8 150.6 712.8 150.6C717.2 152.1 716.8 147.6 716.8 147.6C719.1 151.1 721.6 148.9 721.6 148.9C722 151 721.8 153 721.8 153C724.5 154 724.1 150.3 724.1 150.3C728.3 150.4 725.2 146.7 725.2 146.7C731.1 143.2 724.6 140.3 724.6 140.3Z" fill="black"/>
<path id="Vector_117" d="M724.6 140.3C725.4 137 721.7 138.1 721.7 138.1C722.2 132.1 716.9 133.4 716.9 133.4C713.9 125.7 707.7 130 707.7 130C704.6 126.8 703.3 130.4 703.3 130.4C695.3 125.9 693.3 132.2 693.3 132.2C688.2 131.1 688.9 135.3 688.9 135.3C682.7 137.1 686.1 141.3 686.1 141.3C678.5 143.7 684.1 148.7 684.1 148.7C680.1 152.4 686 152.1 686 152.1C678.6 156.8 686.6 160.3 686.6 160.3C684.5 164.5 688.8 164.5 688.8 164.5C693.3 170.6 697.5 166.2 697.5 166.2C699.8 169.5 702 166.1 702 166.1C706.7 166.1 705 161.9 705 161.9C708.9 159.9 706.3 156.7 706.3 156.7C707.6 158 709.2 155.4 709.2 155.4C711.9 156.7 711.7 152.4 711.7 152.4C713.4 152.4 712.8 150.6 712.8 150.6C717.2 152.1 716.8 147.6 716.8 147.6C719.1 151.1 721.6 148.9 721.6 148.9C722 151 721.8 153 721.8 153C724.5 154 724.1 150.3 724.1 150.3C728.3 150.4 725.2 146.7 725.2 146.7C731.1 143.2 724.6 140.3 724.6 140.3Z" fill="#0F1314"/>
<g id="Group_94">
<path id="Vector_118" d="M724.6 140.3C725.4 137 721.7 138.1 721.7 138.1C722.2 132.1 716.9 133.4 716.9 133.4C713.9 125.7 707.7 130 707.7 130C704.6 126.8 703.3 130.4 703.3 130.4C695.3 125.9 693.3 132.2 693.3 132.2C688.2 131.1 688.9 135.3 688.9 135.3C685.7 136.2 685.1 137.8 685.2 139.2C685.7 138.8 686.4 138.5 687.3 138.2C687.3 138.2 686.6 134.4 691.3 135.4C691.3 135.4 693.2 129.7 700.4 133.8C700.4 133.8 701.6 130.5 704.4 133.4C704.4 133.4 710.1 129.5 712.8 136.5C712.8 136.5 717.7 135.4 717.2 140.8C717.2 140.8 720.6 139.8 719.9 142.8C719.9 142.8 725.9 145.4 720.6 148.7C720.6 148.7 720.8 149 721.1 149.4C721.5 149.2 721.8 149 721.8 149C722.2 151.1 722 153.1 722 153.1C724.7 154.1 724.3 150.4 724.3 150.4C728.5 150.5 725.4 146.8 725.4 146.8C731.1 143.2 724.6 140.3 724.6 140.3Z" fill="#3B5BB2"/>
</g>
<g id="Group_95">
<path id="Vector_119" d="M768 200.6C768.8 196.6 765.7 196.6 765.7 196.6C765.5 189.9 760.7 193.4 760.7 193.4C760.7 193.4 760 192.6 760.3 185.8C760.6 179 757.4 177.9 757.4 177.9C756.9 179 757.6 188.1 755.8 191.7C754 195.3 752.7 195.6 752.7 195.6C751 193.3 751.5 188.6 747.8 187.6C745.4 186.9 748.5 190.2 748 193.8C747.5 197.4 749 197.3 749.9 202.1C750.5 205.6 749.2 209.6 747.5 212.4C745.7 215.1 754.8 223.2 760.5 216.6C760.8 216.3 761.6 210.7 761.6 210.7C764.3 211.1 767.9 207.5 769.6 204.1C771.2 200.7 768 200.6 768 200.6Z" fill="#FFC4C1"/>
<path id="Vector_120" d="M766.8 205.1C765.5 206 764.2 208 761 205.6C760 204.8 757.8 201.3 757.7 201.1C755.1 197.1 760.7 193.6 760.6 193.2C760.1 190.4 760.2 189.5 760.3 185.8C760.5 181.5 759.3 179.5 758.4 178.6C758.5 178.8 758.6 179.1 758.7 179.3C758.7 179.4 758.8 179.5 758.9 179.6C759.2 180.4 759.6 181.1 759.8 181.9C760 182.7 759 190.5 755.9 191.4C755.9 191.5 755.8 191.5 755.8 191.6C754 195.2 752.7 195.5 752.7 195.5C751 193.2 751.5 188.5 747.8 187.5C747.5 187.4 747.3 187.4 747.1 187.5C748.3 187.8 749.3 188.6 750.2 189.8C752.2 192.7 751 195.6 752.1 198.7C752.9 201 754.9 202.7 755.6 205.1C757 210 754.1 214.5 750.3 217.3C753.1 219.3 757.3 220.2 760.5 216.5C760.8 216.2 761.6 210.6 761.6 210.6C764.3 211 767.9 207.4 769.6 204C771.2 200.7 768.2 204.2 766.8 205.1Z" fill="#E39E98"/>
</g>
<g id="Group_96">
<path id="Vector_121" d="M644.5 217.5C637.3 231.2 645.9 247.1 663.5 229.3C681.2 211.5 690.7 186.9 687.7 180.7C677 158.2 653.1 201.2 644.5 217.5Z" fill="#103099"/>
<g id="Group_97">
<path id="Vector_122" d="M628.7 237.9C628.7 237.9 612.6 252.8 609.6 255.8C606.7 258.8 591.3 260.8 588.2 260.1C585.2 259.5 587.3 262.8 589.3 262.6C589.3 262.6 583.8 263.4 581.6 262.9C579.4 262.4 581.2 265.8 585.1 265.9C585.1 265.9 583.4 266.1 582.9 265.9C582.4 265.7 582.2 268.7 588.2 268.2C588.2 268.2 587.4 270.4 590.5 270.3C593.7 270.2 599.2 268.9 599.2 268.9C599.2 268.9 596.6 271.2 593.8 272.1C591.1 273 595.2 274.3 599 272.5C602.7 270.8 607 268.7 610.2 268.6C613.5 268.5 612.7 264.2 617.3 261.5C621.9 258.8 633.2 255.1 637.6 249.4C642.2 243.9 637.7 227.9 628.7 237.9Z" fill="#FFC4C1"/>
<path id="Vector_123" d="M628.7 237.9C628.7 237.9 628 238.5 626.9 239.6C630.2 240.5 632.6 244.8 629.4 247.8C625.7 251.3 622.5 255.2 618.2 258C616.1 259.4 613.8 260.5 611.6 261.7C609.5 262.9 607.9 264.1 606 265.5C598.8 270.8 590.6 266.3 582.8 266.1C582.7 266.8 583.5 268.6 588.3 268.2C588.3 268.2 587.5 270.4 590.6 270.3C593.8 270.2 599.3 268.9 599.3 268.9C599.3 268.9 596.7 271.2 593.9 272.1C591.2 273 595.3 274.3 599.1 272.5C602.8 270.8 607.1 268.7 610.3 268.6C613.6 268.5 612.8 264.2 617.4 261.5C622 258.8 633.3 255.1 637.7 249.4C642.2 243.9 637.7 227.9 628.7 237.9Z" fill="#E39E98"/>
</g>
<path id="Vector_124" d="M623.8 241.4C623.8 241.4 634.9 252.8 632.9 256.4L661.1 231.5L646.2 215.6C646.3 215.7 629.9 232.5 623.8 241.4Z" fill="#103099"/>
</g>
</g>
<g id="Group_98">
<g id="Group_99">
<path id="Vector_125" d="M889 252.7C888.2 252.4 887.4 252.9 887.1 253.7C887 254 876.6 287.4 877 328.8C877 329.6 877.7 330.3 878.5 330.3C879.3 330.3 880 329.6 880 328.8C879.6 287.9 889.9 254.9 890 254.6C890.2 253.7 889.8 252.9 889 252.7Z" fill="#103099"/>
</g>
<g id="Group_100">
<g id="Group_101">
<path id="Vector_126" d="M884.9 233.7L842.8 234.3C837.6 234.4 834.6 238.3 834.1 240.3C834 240.9 838.1 240.6 838.2 241.2L831.7 275.5C831.7 275.5 883.1 284.2 885.7 284.8C888.4 285.4 891.3 282.6 892.1 278.8C892.4 277.5 896.3 241 896.3 241C895.3 236.9 890.1 233.6 884.9 233.7Z" fill="#3B5BB2"/>
</g>
</g>
<g id="Group_102">
<g id="Group_103">
<path id="Vector_127" d="M880.1 237.5L838.5 237.3C835.6 237.3 833.6 239.6 834 242.5L827.2 274.3C827.2 274.3 844.5 282.4 885.8 284.8L891.1 244.9C891.7 240.2 885 237.5 880.1 237.5Z" fill="#030C28"/>
</g>
</g>
<g id="Group_104">
<path id="Vector_128" d="M825.1 244.9C824.3 245.1 823.8 245.9 824 246.7C832.7 278.8 830.6 319.3 830.6 319.7C830.6 320.5 831.2 321.2 832 321.3H832.1C832.9 321.3 833.6 320.7 833.6 319.9C833.6 319.5 835.7 278.6 826.9 246C826.7 245.1 825.9 244.6 825.1 244.9Z" fill="#103099"/>
</g>
<g id="Group_105">
<g id="Group_106">
<g id="Group_107">
<g id="Group_108">
<path id="Vector_129" d="M830.4 316.4L788.5 323.1C785.2 323.3 782.3 324.8 781.8 326.6L767.5 410.6L769.5 411.6L785.1 329C785.4 328 787.4 324.5 789.1 324.8L829.6 317.9C831.3 318.2 832.3 318.6 832.5 319.7L839.9 401.9L842.2 403L836.7 320.1C836.4 318.2 833.3 316.9 830.4 316.4Z" fill="#103099"/>
</g>
<g id="Group_109">
<path id="Vector_130" d="M832.7 316.1L792 323.7C788 324.1 785.8 325.4 785.1 327.1L769.5 411.7L772.6 410.8L787.5 327.7C787.9 326.7 790.1 325.4 791.9 325.2L832.6 317.6C834.3 317.9 835.9 319.1 836 320.2L842.1 403L845.1 401.8L838.3 320.4C838.1 318.5 835.6 316.6 832.7 316.1Z" fill="#497DAF"/>
</g>
</g>
</g>
<g id="Group_110">
<g id="Group_111">
<g id="Group_112">
<path id="Vector_131" d="M873 328L828.4 332.2C825.1 332.5 822.4 334.2 821.9 336L816.1 425.2L818.1 426.1L825.3 338.4C825.6 337.3 827.3 333.8 829 334L872.2 329.7C873.9 329.9 875.5 331 875.7 332.1L882.8 413.4L885 413.8L879.9 332.3C879.5 330.3 875.9 328.4 873 328Z" fill="#103099"/>
</g>
<g id="Group_113">
<path id="Vector_132" d="M875.8 328.3L831.9 332.5C828 333.1 825.9 334.5 825.3 336.2L818.2 425.9L821.2 424.9L827.7 336.8C828 335.7 830.1 334.3 831.9 334.1L875.8 329.9C877.5 330.1 879.1 331.2 879.3 332.3L885 413.6L887.9 413L881.6 332.3C881.3 330.5 878.6 328.7 875.8 328.3Z" fill="#497DAF"/>
</g>
</g>
</g>
</g>
<g id="Group_114">
<g id="Group_115">
<path id="Vector_133" d="M883.2 328.3L845.2 323.3C845 323.2 844.5 323.2 844 323.2L783.6 325.4C780.6 325.6 780.5 329.8 782.8 330.5L817 338.2C817.2 338.3 817.6 338.3 818.2 338.3L882.5 332.9C885.6 332.7 884.5 328.8 883.2 328.3Z" fill="#598EC2"/>
</g>
</g>
<g id="Group_116">
<g id="Group_117">
<path id="Vector_134" d="M882.6 328.1L850.2 321.5C850 321.4 849.5 321.4 849 321.4L788.6 324.7C785.6 325 780.1 326.7 782.6 327.4L816.8 335.1C817 335.2 817.4 335.2 818 335.2L880.1 330.1C883.1 329.9 885.3 328.6 882.6 328.1Z" fill="#3B5BB2"/>
</g>
</g>
<g id="Group_118">
<g id="Group_119">
<g id="Group_120">
<path id="Vector_135" d="M798 385.3C795.9 383.8 785.5 359.2 785.5 359.2L770.9 366.4C770.9 366.4 780 382.6 777.9 387.9C775.9 393.2 770.8 399.5 764.9 402.2C759 404.8 761.2 409.6 762.6 409.8C763.9 410 778.5 409.4 783.4 405.2C788.3 401 789.2 400.5 791.2 400.4C793.2 400.3 801 398.6 802.5 394.7C804.1 390.7 800.1 386.7 798 385.3Z" fill="#09184D"/>
</g>
<g id="Group_121">
<path id="Vector_136" d="M798 385.3C795.9 383.8 785.5 359.2 785.5 359.2L774.1 369.5C774.1 369.5 777.8 378.4 786.9 377.2C790 384.2 791.3 386.7 792.5 387.5C794.6 389 798.6 392.9 797 396.9C796.5 398.2 795.4 399.2 794.1 400C797.2 399.2 801.4 397.6 802.5 394.7C804.1 390.7 800.1 386.7 798 385.3Z" fill="#0F1314"/>
</g>
<path id="Vector_137" d="M802.5 390.7C799.6 395.5 793.5 396.1 788.4 397.9C781 404.4 776.5 407.7 761.8 409.2C763.3 410.9 768.9 409.6 772.3 409.3C778.5 408.9 783.7 405.7 788.6 401.5C793.3 399.5 804 400.7 803 392.5C802.9 392.1 803 392.2 802.5 390.7Z" fill="#103099"/>
</g>
<g id="Group_122">
<path id="Vector_138" d="M759.3 306.8C754.4 304.1 737.3 308.7 738.6 315.1C742.2 332.9 766.6 361.7 773.2 377.2C773.2 377.2 783.8 377.9 790.8 371.1C787.2 361.7 774.8 315.5 759.3 306.8Z" fill="#0F1314"/>
</g>
<g id="Group_123">
<path id="Vector_139" d="M754.5 299.8C724.3 312.6 744.6 326.8 755.8 326.8C771.4 326.8 784.7 323.4 816.6 322.7C848.5 322 857.8 318.6 853.3 304.1C847.9 286.8 788.4 285.4 754.5 299.8Z" fill="#0F1314"/>
</g>
<g id="Group_124">
<path id="Vector_140" d="M834.7 289.8C814.7 286.8 789.1 294.8 771 301.1C739.8 311.9 757.7 327.7 769 327.7C785.2 327.7 798.1 326.9 829.9 329.2C861.7 331.5 868.2 328.9 865 313C863.1 303.8 853.4 292.7 834.7 289.8Z" fill="#030C28"/>
</g>
<g id="Group_125">
<g id="Group_126">
<path id="Vector_141" d="M753.1 377.3C753.1 377.3 752.5 392.5 747.9 395.8C743.3 399.1 735.6 401.7 729.2 400.7C722.8 399.7 722.1 404.9 723.1 405.8C724.1 406.7 736.6 414.1 743 413.3C749.4 412.5 750.4 412.5 752.2 413.5C753.9 414.5 761.4 417.3 764.8 414.8C768.2 412.3 767.1 406.9 766.1 404.5C765.1 402.1 769.8 375.8 769.8 375.8L753.1 377.3Z" fill="#09184D"/>
</g>
<g id="Group_127">
<path id="Vector_142" d="M754.7 378.3C754.7 378.3 753 387.8 761.3 391.7C760.1 399.2 759.8 402 760.4 403.4C761.4 405.8 762.6 411.2 759.1 413.7C758 414.5 756.5 414.7 754.9 414.7C757.9 415.7 762.4 416.7 764.8 414.9C768.2 412.4 767.1 407 766.1 404.6C765.1 402.2 769.8 375.9 769.8 375.9L754.7 378.3Z" fill="#0F1314"/>
</g>
<path id="Vector_143" d="M751.1 410C741.4 411.4 735.9 411.8 722.8 405.1C723.1 407.4 729 409.5 732.3 411.2C737.6 414.1 743.5 413.8 749.6 413.1C754.7 414.4 764.6 420.3 767 411.5C766.9 411.6 766.7 411.7 766.6 411.7C761.6 413.9 756.3 411.2 751.1 410Z" fill="#103099"/>
</g>
<g id="Group_128">
<path id="Vector_144" d="M749.8 384.3C749.8 384.3 758.3 390.7 767.9 388.7C767.9 388.7 776.9 356.1 777.7 334.7C778.2 322.8 779.6 316.5 779.6 316.5L753.6 315.5C753.6 315.6 752.7 367.7 749.8 384.3Z" fill="#030C28"/>
</g>
<g id="Group_129">
<path id="Vector_145" d="M856.1 261.2C852.6 242.6 837.8 226.2 829 224.6C820.2 222.9 818.1 217.8 815.7 214.4C807.7 203.2 801.5 231.8 799.3 243.5C797.4 253.9 804.4 276.5 807.6 282.6C810.8 288.8 815.6 287.8 826.6 301.2C837.7 314.6 864.4 326.4 864.4 326.4C864.4 326.4 870.1 323.8 867.6 300.6C865 277.5 859.6 279.8 856.1 261.2Z" fill="#FA9E00"/>
</g>
<g id="Group_130">
<path id="Vector_146" d="M856.1 261.2C852.6 242.6 837.8 226.2 829 224.6C820.2 222.9 813.2 228.3 817 231.7C818 232.6 820.7 235.2 821.1 236.1C823.2 240 823.4 244.5 822.3 248.7C821.9 253.3 822.4 257.9 821.8 262.4C821.1 267.5 820 272.1 817.2 276.4C815 279.8 812.2 282.5 809 284.8C810.7 286.9 832.5 298.1 835.6 300.5C851.1 302.5 846.1 278 849.7 278C854 278 850.2 295.6 853.2 298.6C856.1 301.4 861.2 300.1 861.1 304.1C861 307.9 845.4 314 843.5 315.1C854 321.8 864.4 326.4 864.4 326.4C864.4 326.4 870.1 323.8 867.6 300.6C865 277.5 859.6 279.8 856.1 261.2Z" fill="#333333"/>
</g>
<g id="Group_131">
<path id="Vector_147" d="M804.3 212.6C803 208.7 793 222.6 793 222.6C793 222.6 805.7 220.3 801.8 239.6C801.8 239.6 815 229.1 815.3 217.1C815.3 217 805.5 216.5 804.3 212.6Z" fill="#FFC4C1"/>
</g>
<g id="Group_132">
<path id="Vector_148" d="M793 222.6C793 222.6 806.1 222 806.1 214.5C806.1 210.5 793 222.6 793 222.6Z" fill="#E39E98"/>
</g>
<g id="Group_133">
<path id="Vector_149" d="M794.8 189.9C794.8 189.9 788.1 191.3 787.3 198.3C786.5 205.3 783.7 202.3 782.7 205.7C781.8 209.1 783.9 215 782.9 217.4C781.9 219.8 782.4 225 790.9 223.2C799.4 221.4 801.1 217.6 802 215.7C802 215.7 812.8 220 815.3 212.6C817.8 205.1 813.6 183.1 794.8 189.9Z" fill="#FFC4C1"/>
</g>
<g id="Group_134">
<path id="Vector_150" d="M798.1 201.2C798.1 201.2 801.3 202.8 800 206C798.7 209.1 799.3 211.8 803 208.1C806.7 204.4 809 208.5 807 210.9C805.1 213.3 802.7 218.7 809.4 220.6C816.1 222.5 817.3 217.3 816.7 214.8C816.2 212.3 820.1 194.7 798.1 201.2Z" fill="#09184D"/>
</g>
<g id="Group_135">
<path id="Vector_151" d="M821 193.2C814.2 189 817.1 184.2 809.2 185.6C801.4 187 800 180.7 793.7 184.4C787.4 188.1 791.7 194.9 796 195.8C800.3 196.7 825.1 200.4 825.1 200.4C825.1 200.4 827.8 197.4 821 193.2Z" fill="#030C28"/>
</g>
<g id="Group_136">
<path id="Vector_152" d="M803.1 195.1C794.6 196.7 790.5 188.9 790.5 188.9C789.5 192.8 791.5 200.2 798.9 201.3C806.3 202.4 811.2 200.1 810.2 206C809.2 211.9 818.3 219.9 818.4 214.9C818.5 209.8 820.7 214.5 825 205.5C829.3 196.4 811.6 193.5 803.1 195.1Z" fill="#0F1314"/>
</g>
</g>
<g id="Group_137">
<g id="Group_138">
<g id="Group_139">
<path id="Vector_153" d="M809.6 275.2C808.1 275.1 806.3 275.1 804.1 275.2C799.2 275.3 792.8 275.5 786.2 275.8C771.9 276.3 756.8 276.9 754.3 275.5C750.1 273.3 750.3 271.9 746.5 272.2C742.7 272.5 742.6 272.8 741.3 271.3C740.3 270.2 739.7 272.9 740.8 274.3L741.2 274.7C741.5 274.9 742 275.1 742.5 275.1C747.1 275.1 748 276.8 746.2 277.9C745.7 278.2 745.3 278.3 744.9 278.4C744 278.6 743.1 278.5 741.9 278.6C741.5 278.6 741.1 278.7 740.6 278.8C740.6 278.8 741 278.5 741.3 278C741.7 277.4 742.1 276.7 741.6 276.4C741.1 276.1 740.3 275.8 739.4 276.1C738.6 276.4 737.7 277.2 736.8 278.9C735 282.4 737.8 281.7 740.5 282.7C743.2 283.7 740.7 285.4 743.8 287.8C745 288.7 745 290.3 746 290.5C749.8 291.2 754.8 287.3 759.3 285.5C760.9 284.9 775.3 287.5 788.3 289.7C789.3 289.9 790.4 290 791.4 290.2C793.1 290.5 794.8 290.8 796.4 291C797.7 291.2 799 291.4 800.2 291.6C804 292.2 807 292.5 808.7 292.5C810.3 292.5 811.7 291.2 812.7 289.4C812.7 289.4 812.7 289.4 812.7 289.3C812.9 289 813 288.7 813.1 288.4C813.2 288.2 813.3 287.9 813.4 287.6C814 286.1 814.3 284.5 814.5 282.9C814.6 281.4 814.5 279.9 814.1 278.7C813.5 276.8 812.1 275.3 809.6 275.2Z" fill="#FFC4C1"/>
</g>
</g>
<g id="Group_140">
<g id="Group_141">
<path id="Vector_154" d="M822.7 226.3C807.9 230.3 809.2 266.1 803.9 268.1C798.6 270.1 800.8 272.6 800.8 272.6L785.6 274.7C791.7 285.9 786.8 294.9 786.8 294.9C786.8 294.9 807.8 296.4 808.9 296.1C815.2 294.5 828.7 277.4 837.3 254.6C846.2 231.4 831.1 224 822.7 226.3Z" fill="#F46E0D"/>
</g>
<g id="Group_142">
<path id="Vector_155" d="M816.3 282.2C812 286.2 808.3 274.5 808.3 285.4C808.3 292.7 798.6 288.6 796.3 291.2C793.6 294.3 786.9 294.9 786.9 294.9C786.9 294.9 807.9 296.4 809 296.1C815.3 294.5 828.8 277.4 837.4 254.6C841.5 243.7 840.3 236.3 837.1 231.7C842.5 244.5 822.1 277 816.3 282.2Z" fill="#FA9E00"/>
</g>
</g>
</g>
</g>
<g id="Group_143">
<path id="Vector_156" d="M596.6 292L745.7 281.7V274.7L596.6 281.5V292Z" fill="#123D6A"/>
<path id="Vector_157" d="M440.6 417.5L764.8 458.8V314.7L440.6 288.8V417.5Z" fill="#0F1314"/>
<path id="Vector_158" d="M764.8 458.8L858.4 433.6V304.4L764.8 314.7V458.8Z" fill="#030C28"/>
<path id="Vector_159" d="M743.4 274.7L588 271.3L419.4 280.9L775.8 304.5L873.5 296.2L595 282.8L743.4 274.7Z" fill="#103099"/>
<path id="Vector_160" d="M419.4 292L775.8 318.9V304.5L419.4 280.9V292Z" fill="#132566"/>
<path id="Vector_161" d="M775.8 318.9L873.5 307V296.2L775.8 304.5V318.9Z" fill="#123D6A"/>
</g>
<g id="Group_144">
<g id="Group_145">
<path id="Vector_162" d="M690.6 293.1L744.5 295.1L757.3 293.9L700.7 292.4L690.6 293.1Z" fill="#030C28"/>
</g>
<g id="Group_146">
<path id="Vector_163" d="M743.2 269.6L709.6 271.4C709.2 271.4 708.7 271.8 708.8 272.3L709.5 293.8L744.2 295.9L744.1 270.4C744 269.9 743.7 269.6 743.2 269.6Z" fill="#030C28"/>
</g>
<g id="Group_147">
<path id="Vector_164" d="M736.4 269.4L699.3 271.1C698.8 271.1 698.4 271.5 698.4 272L699.2 293.8L737.4 295.9L737.3 270.2C737.3 269.7 736.9 269.4 736.4 269.4Z" fill="#0F1314"/>
</g>
<g id="Group_148">
<path id="Vector_165" d="M690.2 293.1L690.4 297.4L744.5 299.9L744.4 295.1L690.2 293.1Z" fill="#030C28"/>
</g>
<g id="Group_149">
<path id="Vector_166" d="M744.5 295.1V299.9L757.4 297.9L757.3 293.9L744.5 295.1Z" fill="#3B5BB2"/>
</g>
<g id="Group_150">
<path id="Vector_167" d="M772.6 213.5L774.1 284.9C774.1 284.9 778.1 283.9 778.1 280.3C778.1 277.3 777 232.9 776.6 218.1C776.5 215.4 775.8 213.5 772.6 213.5Z" fill="#497DAF"/>
</g>
<g id="Group_151">
<path id="Vector_168" d="M771.7 213.5L664.7 213.2C663.2 213.2 661.9 214.4 662 215.7L664.4 278.8L775.9 283.9L774.4 215.7C774.3 214.4 773.3 213.5 771.7 213.5Z" fill="#030C28"/>
</g>
<g id="Group_152">
<path id="Vector_169" d="M768.4 217.2L667.1 216.9C665.7 216.9 664.4 218 664.5 219.2L666.7 278.8L772.4 283.8L770.9 219.3C770.9 218 769.9 217.2 768.4 217.2Z" fill="#0F1314"/>
</g>
<g id="Group_153">
<path id="Vector_170" d="M664.2 281.6C664.1 281.9 664.3 282.1 664.6 282.1L773.9 287.2C774.5 287.2 775.2 286.8 775.3 286.2L776 283.8L664.4 278.7L664.2 281.6Z" fill="#030C28"/>
</g>
</g>
<g id="Group_154">
<g id="Group_155">
<path id="Vector_171" d="M512.8 281.5L561.7 281.2L623.1 282.3L574.3 280L512.8 281.5Z" fill="#4277A9"/>
</g>
<g id="Group_156">
<path id="Vector_172" d="M512.8 281.8C512.8 281.9 512.9 282.1 513.1 282.1L561.1 282C561.4 282 561.6 281.9 561.6 281.8L561.8 280.5L512.9 281.3L512.8 281.8Z" fill="#0F1314"/>
</g>
<g id="Group_157">
<g id="Group_158">
<path id="Vector_173" d="M565.9 234.9C564.3 245 559.3 275.4 559 277.5C558.7 279.9 561.2 280.5 561.2 280.5L568.9 231.8C566.9 231.7 566.2 233 565.9 234.9Z" fill="#0F1314"/>
</g>
<g id="Group_159">
<path id="Vector_174" d="M630.1 234.1L569.5 231.8C568.6 231.8 567.8 232.4 567.7 233.2L560.3 279.8L623.6 280.3L631.4 235.7C631.4 234.9 630.8 234.1 630.1 234.1Z" fill="#123D6A"/>
</g>
<g id="Group_160">
<path id="Vector_175" d="M569.4 235.7L565 263.4L593.2 235.2L571.1 234.4C570.2 234.3 569.5 234.9 569.4 235.7Z" fill="#0F1314"/>
<path id="Vector_176" d="M628.5 236.3L612.8 235.8C598.1 250.5 583.5 265.1 568.8 279.8L622.3 280.3L629.6 237.8C629.8 237.1 629.2 236.4 628.5 236.3Z" fill="#0F1314"/>
</g>
<g id="Group_161">
<path id="Vector_177" d="M560.1 279.8L560.3 281.4C560.3 281.8 560.7 282 561.1 282L623.1 282.3C623.3 282.3 623.4 282.2 623.4 282L623.3 280.2L560.1 279.8Z" fill="#09184D"/>
</g>
</g>
</g>
<g id="Group_162">
<g id="Group_163">
<path id="Vector_178" d="M509.6 217C502.8 217.2 499.9 226.7 507.7 248C515.5 269.3 518.7 279.2 525.4 276.5C530.1 274.6 532.4 268.5 526.2 249.8C520 231.2 517.2 216.8 509.6 217Z" fill="#FFC4C1"/>
</g>
<g id="Group_164">
<path id="Vector_179" d="M506.9 216.8C494.7 221 508.3 256.1 509.4 259.1C514.5 257 522.9 253 528.3 251.6C528 250.7 523.4 211.2 506.9 216.8Z" fill="#FA9E00"/>
</g>
<g id="Group_165">
<g id="Group_166">
<path id="Vector_180" d="M579.1 271.4C578.3 271.8 579.6 273.4 579.6 273.4C577.8 272.7 576.8 273.9 575.5 272.8C574.2 271.7 574.9 269.7 578.5 270.3C582.1 270.8 581.8 266.2 580.6 267.2C579.4 268.2 578.6 267.8 575.7 267.1C572.8 266.4 572.9 267.9 569.3 269.1C565.7 270.3 534.6 264.2 525.2 264.1C518.2 264 514.3 275.8 524 277.3C530.4 278.3 564.7 275.5 566.7 276.6C570 278.5 570.8 282.1 573.9 282C574.7 282 574.9 280.8 576 280.2C578.7 278.6 577 277 579.2 276.6C581.4 276.1 583.6 277 582.6 274.1C581.5 271 579.9 271 579.1 271.4Z" fill="#FFC4C1"/>
</g>
</g>
</g>
</g>
<g id="plant">
<g id="Group_167">
<path id="Vector_181" d="M755.339 501C769.779 501 781.484 497.243 781.484 492.609C781.484 487.975 769.779 484.218 755.339 484.218C740.9 484.218 729.195 487.975 729.195 492.609C729.195 497.243 740.9 501 755.339 501Z" fill="#09194E"/>
</g>
<path id="Vector_182" d="M729.195 492.786C729.195 493.934 740.854 494.817 755.339 494.817C769.737 494.817 781.484 493.934 781.484 492.786L787.932 456.748H722.747L729.195 492.786Z" fill="#09194E"/>
<path id="Vector_183" d="M726.103 475.65C726.368 475.827 731.403 481.391 741.03 476.887C746.86 474.149 753.661 479.625 760.197 480.42C766.469 481.215 772.298 477.77 777.156 481.303C777.951 481.921 780.512 484.13 782.544 486.073L787.844 456.748H722.658L726.103 475.65Z" fill="url(#paint0_linear)"/>
<g id="Group_168">
<path id="Vector_184" d="M723.807 461.695C723.807 459.31 737.939 457.455 755.339 457.455C772.74 457.455 786.872 459.398 786.872 461.695L792.967 451.184H717.712L723.807 461.695Z" fill="url(#paint1_linear)"/>
</g>
<g id="Group_169">
<path id="Vector_185" d="M755.339 468.407C772.803 468.407 786.96 465.283 786.96 461.43C786.96 457.576 772.803 454.452 755.339 454.452C737.876 454.452 723.718 457.576 723.718 461.43C723.718 465.283 737.876 468.407 755.339 468.407Z" fill="url(#paint2_linear)"/>
</g>
<g id="Group_170">
<path id="Vector_186" d="M755.339 457.19C776.12 457.19 792.967 454.461 792.967 451.095C792.967 447.729 776.12 445.001 755.339 445.001C734.558 445.001 717.712 447.729 717.712 451.095C717.712 454.461 734.558 457.19 755.339 457.19Z" fill="#103099"/>
</g>
<g id="Group_171">
<path id="Vector_187" d="M755.339 455.158C773.584 455.158 788.374 453.339 788.374 451.095C788.374 448.851 773.584 447.032 755.339 447.032C737.095 447.032 722.305 448.851 722.305 451.095C722.305 453.339 737.095 455.158 755.339 455.158Z" fill="#0F1314"/>
</g>
<g id="Group_172">
<g id="Group_173">
<path id="Vector_188" d="M737.851 380.257C741.825 396.244 743.945 407.815 747.39 452.067L750.57 450.565C750.57 450.565 742.179 386.793 738.469 379.816C734.671 372.838 737.762 380.081 737.851 380.257Z" fill="#0D2941"/>
</g>
<g id="Group_174">
<path id="Vector_189" d="M734.759 333.709C735.554 329.558 738.204 285.747 733.346 274C733.346 274 697.574 289.634 709.409 330.794C709.409 330.794 738.822 356.144 710.823 340.687C710.823 340.687 713.119 370.541 738.469 380.434C738.469 380.434 736.879 363.387 736.967 359.942C736.879 351.286 732.993 342.542 734.759 333.709Z" fill="#123D6A"/>
</g>
<g id="Group_175">
<path id="Vector_190" d="M749.775 336.977C758.519 295.022 733.346 274 733.346 274C714.974 330.176 738.469 380.434 738.469 380.434C752.69 372.043 749.775 345.103 749.775 345.103C722.835 362.592 749.775 336.977 749.775 336.977Z" fill="#0D2941"/>
</g>
</g>
<g id="Group_176">
<path id="Vector_191" d="M725.926 390.238C734.318 374.074 719.302 358.705 718.242 370.276C717.27 381.759 700.753 384.409 708.879 377.961C717.005 371.513 712.677 366.125 712.677 366.125C689.624 352.611 655 367.008 655 367.008C655 367.008 695.012 366.39 717.27 394.213C732.286 413.026 743.327 438.2 748.891 452.42C750.305 452.774 751.806 453.215 753.131 453.657C742.974 422.389 718.154 405.165 725.926 390.238Z" fill="#0D2941"/>
</g>
<g id="Group_177">
<path id="Vector_192" d="M750.305 438.376C749.156 442.263 746.772 446.767 744.917 451.714C745.535 451.802 746.153 451.89 746.772 451.979C748.98 446.149 751.983 437.846 752.69 434.667C753.838 429.544 796.941 426.011 740.854 369.923C745.182 393.948 759.579 406.137 750.305 438.376Z" fill="#0D2941"/>
</g>
<g id="Group_178">
<g id="Group_179">
<path id="Vector_193" d="M724.867 427.777C724.867 427.777 732.816 418.149 722.305 399.159C722.305 399.159 718.949 422.389 719.302 396.068C719.302 396.068 714.356 388.118 707.908 387.058C701.46 386.087 710.823 401.102 705.7 400.307C700.577 399.601 705.435 391.828 703.227 384.85C701.107 377.872 672.93 385.203 672.93 385.203C672.93 385.203 684.855 411.878 714.356 423.802C731.138 430.515 741.384 442.704 747.125 451.979C748.008 452.155 748.803 452.332 749.686 452.597C744.652 444.647 736.172 433.96 724.867 427.777Z" fill="#123D6A"/>
</g>
<g id="Group_180">
<path id="Vector_194" d="M724.867 427.777C724.867 427.777 724.602 407.109 704.375 402.604C684.236 398.099 673.019 385.203 673.019 385.203C673.019 385.203 684.943 411.878 714.444 423.802C731.226 430.515 741.472 442.704 747.213 451.979C748.097 452.155 749.068 452.332 749.951 452.597C745.005 444.912 736.791 434.667 724.867 427.777Z" fill="#0D2941"/>
</g>
</g>
<g id="Group_181">
<g id="Group_182">
<path id="Vector_195" d="M797.913 322.668C793.143 316.927 793.232 311.097 793.232 311.097C789.522 316.044 779.276 323.905 779.276 323.905C796.588 367.273 774.241 330.088 774.241 330.088C750.04 362.239 767.793 374.251 763.819 400.661C760.551 422.301 747.655 444.382 743.15 451.537C744.652 451.625 746.153 451.89 747.567 452.155C751.983 442.086 763.377 414.793 764.879 399.071C766.733 379.551 774.153 390.15 786.43 387.853C798.708 385.557 798.443 375.311 798.443 375.311C791.642 372.926 782.897 376.636 782.897 376.636C782.897 376.636 783.074 372.749 788.197 373.279C793.408 373.809 794.468 369.835 794.468 369.835C794.468 369.835 795.263 369.04 803.124 367.45C810.985 365.86 814.342 349.078 814.342 349.078C806.304 345.28 794.821 351.374 794.821 351.374C799.061 346.693 811.427 339.804 811.427 339.804C834.833 324.346 822.026 305.356 822.026 305.356C795.175 301.823 797.913 322.668 797.913 322.668Z" fill="#123D6A"/>
</g>
<g id="Group_183">
<path id="Vector_196" d="M797.914 322.668C793.144 317.015 793.144 311.097 793.144 311.097C789.434 316.044 779.188 323.905 779.188 323.905C796.5 367.273 774.154 330.088 774.154 330.088C770.179 335.299 767.353 339.98 765.409 344.308C758.343 359.677 761.876 370.188 763.643 382.554C764.438 388.03 764.791 393.86 763.819 400.572C760.551 422.212 747.656 444.294 743.239 451.449C744.741 451.537 746.242 451.802 747.656 452.067C752.072 441.998 763.466 414.705 764.968 398.982C766.823 379.462 774.242 390.061 786.519 387.765C798.797 385.468 772.034 380.964 772.034 380.964C765.233 378.579 800.74 336.712 800.74 336.712C824.147 321.343 822.115 305.268 822.115 305.268C795.176 301.823 797.914 322.668 797.914 322.668Z" fill="#0D2941"/>
</g>
<g id="Group_184">
<path id="Vector_197" d="M765.409 344.397C758.342 359.765 761.876 370.276 763.642 382.642C763.642 382.642 769.825 376.636 768.942 367.361C768.147 357.999 762.494 357.999 765.409 344.397Z" fill="#123D6A"/>
</g>
<g id="Group_185">
<path id="Vector_198" d="M779.364 377.607C779.364 377.607 780.777 376.989 782.809 376.459C782.809 376.194 782.986 375.046 783.957 374.163C779.541 374.074 779.364 377.607 779.364 377.607Z" fill="#103099"/>
<path id="Vector_199" d="M774.153 330.088C773.358 331.147 772.651 332.119 771.945 333.179C775.478 338.744 784.929 353.406 781.661 341.393C778.304 337.065 774.153 330.088 774.153 330.088Z" fill="#103099"/>
<path id="Vector_200" d="M793.143 311.186C792.348 312.246 791.2 313.482 789.963 314.719C790.405 316.927 791.553 320.372 794.38 323.816C794.38 323.816 794.026 321.167 794.821 317.987C793.143 314.1 793.143 311.186 793.143 311.186Z" fill="#103099"/>
<path id="Vector_201" d="M789.168 373.191C793.497 373.103 794.38 369.658 794.38 369.658C794.38 369.658 794.468 369.57 795.086 369.305C791.465 370.188 790.935 370.718 790.935 370.718C790.935 370.718 790.582 372.219 789.168 373.191Z" fill="#103099"/>
<path id="Vector_202" d="M798.708 349.608C802.418 348.725 807.011 348.283 810.72 350.049C810.72 350.049 807.894 364.005 801.446 367.626C801.888 367.538 802.418 367.45 802.947 367.273C810.809 365.683 814.165 348.901 814.165 348.901C809.219 346.605 802.771 348.106 798.708 349.608Z" fill="#103099"/>
<path id="Vector_203" d="M806.834 306.593C809.925 305.974 813.723 305.798 818.493 306.416C818.493 306.416 831.3 325.406 807.894 340.863C807.894 340.863 795.528 347.665 791.288 352.434C791.288 352.434 792.967 351.551 795.44 350.668C800.209 345.986 811.339 339.803 811.339 339.803C834.745 324.346 821.938 305.356 821.938 305.356C815.225 304.473 810.367 305.091 806.834 306.593Z" fill="#103099"/>
<path id="Vector_204" d="M783.339 376.371C786.519 375.576 791.023 374.958 794.91 376.371C794.91 376.371 795.086 384.32 786.872 387.765C798.619 385.292 798.354 375.311 798.354 375.311C792.613 373.191 785.37 375.576 783.339 376.371Z" fill="#103099"/>
</g>
</g>
<g id="Group_186">
<g id="Group_187">
<path id="Vector_205" d="M789.698 373.456C788.992 380.699 795.263 387.323 790.405 389.09C785.547 390.768 791.642 374.251 785.547 376.459C779.453 378.667 776.273 387.5 776.273 387.5C781.926 413.291 773.976 391.121 773.976 391.121C767.617 411.79 777.333 419.651 777.333 419.651C781.661 415.411 786.695 413.821 786.695 413.821C813.282 396.421 819.465 367.98 819.465 367.98C819.465 367.98 790.405 366.213 789.698 373.456Z" fill="#123D6A"/>
</g>
<g id="Group_188">
<path id="Vector_206" d="M792.26 390.945C773.358 399.248 777.333 419.563 777.333 419.563C764.437 430.869 758.254 446.415 755.693 454.717C756.399 455.071 757.547 453.657 758.254 454.011C760.551 444.648 766.998 426.541 786.695 413.645C813.282 396.245 819.465 367.804 819.465 367.804C819.465 367.804 811.074 382.643 792.26 390.945Z" fill="#0D2941"/>
</g>
<g id="Group_189">
<path id="Vector_207" d="M788.462 383.349C789.169 379.462 788.462 376.724 787.049 376.283C786.695 376.194 786.165 376.194 785.635 376.459C784.487 376.901 783.427 377.519 782.544 378.314C782.721 378.226 782.809 378.226 782.986 378.137C789.08 375.929 782.986 392.446 787.844 390.768C788.815 390.415 789.345 389.885 789.522 389.178C788.197 388.737 788.285 386.175 788.462 383.349Z" fill="#103099"/>
<path id="Vector_208" d="M790.582 371.69C798.443 368.51 816.815 369.57 816.815 369.57C816.815 369.57 810.897 396.509 786.165 413.998C786.519 413.91 786.695 413.821 786.695 413.821C813.282 396.421 819.465 367.98 819.465 367.98C819.465 367.98 795.44 366.478 790.582 371.69Z" fill="#103099"/>
<path id="Vector_209" d="M773.976 391.121C773.446 392.976 773.005 394.654 772.651 396.244C774.595 401.014 779.718 405.254 774.153 391.651C773.976 391.298 773.976 391.121 773.976 391.121Z" fill="#103099"/>
<path id="Vector_210" d="M777.244 419.563C778.304 418.503 779.364 417.708 780.424 416.913C779.364 417.531 778.128 418.238 776.891 419.209C777.156 419.474 777.244 419.563 777.244 419.563Z" fill="#103099"/>
</g>
</g>
<g id="Group_190">
<path id="Vector_211" d="M798.973 417.001C798.973 417.001 795.351 418.856 799.149 422.831C802.948 426.805 793.32 423.449 794.821 418.149C796.323 412.85 784.311 417.796 786.43 426.187C788.462 434.137 769.118 438.73 757.194 452.332C757.813 452.597 758.431 452.862 759.049 453.127C764.349 447.916 776.891 436.433 790.935 429.102C809.66 419.386 834.039 424.862 834.039 424.862C834.039 424.862 815.578 413.91 798.973 417.001Z" fill="#0D2941"/>
</g>
<g id="Group_191">
<path id="Vector_212" d="M737.851 350.579C734.759 354.554 735.112 356.232 748.185 347.841C748.185 347.841 749.951 364.182 744.034 375.311C751.806 364.27 749.686 345.28 749.686 345.28C740.147 351.374 737.409 352.169 737.851 350.579Z" fill="#103099"/>
<path id="Vector_213" d="M733.346 274.088C733.346 274.088 720.185 279.83 712.412 293.609C720.185 281.684 731.756 276.65 731.756 276.65C731.756 276.65 756.399 297.23 748.45 338.302C749.245 337.507 749.775 337.065 749.775 337.065C758.431 295.11 733.346 274.088 733.346 274.088Z" fill="#103099"/>
<path id="Vector_214" d="M710.734 340.775C710.734 340.775 710.823 342.188 711.264 344.485C722.128 350.226 722.658 348.725 719.92 345.28C717.977 344.573 715.062 343.16 710.734 340.775Z" fill="#103099"/>
</g>
</g>
</g>
<defs>
<linearGradient id="paint0_linear" x1="762.255" y1="489.848" x2="757.116" y2="466.724" gradientUnits="userSpaceOnUse">
<stop offset="2.7e-07" stop-color="#09194E"/>
<stop offset="1" stop-color="#082480"/>
</linearGradient>
<linearGradient id="paint1_linear" x1="782.739" y1="456.411" x2="743.891" y2="456.411" gradientUnits="userSpaceOnUse">
<stop offset="2.7e-07" stop-color="#09194E"/>
<stop offset="1" stop-color="#09194E"/>
</linearGradient>
<linearGradient id="paint2_linear" x1="782.746" y1="461.443" x2="743.898" y2="461.443" gradientUnits="userSpaceOnUse">
<stop offset="2.7e-07" stop-color="#09194E"/>
<stop offset="1" stop-color="#09254E"/>
</linearGradient>
</defs>
</svg>
