<svg viewBox="0 0 1170 691">
<g id="bg">
<path id="BACKGROUND_LANDING_3_" d="M1170 0.299988H0V680.3H1170V0.299988Z" fill="url(#paint0_linear)"/>
<g id="folds">
<g id="Group">
<g id="Group_2" opacity="0.5">
<path id="Vector" opacity="0.5" d="M187.469 523H82L600.531 0H706L187.469 523Z" fill="url(#paint1_linear)"/>
<path id="Vector_2" opacity="0.5" d="M483.2 690.1H348L1012.7 3H1147.9L483.2 690.1Z" fill="url(#paint2_linear)"/>
</g>
</g>
</g>
<g id="curve-2">
<path id="Vector_3" d="M623.4 0.299988L475.1 148.6C466.3 157.4 454.6 162.3 442.1 162.3C429.6 162.3 417.9 157.4 409.1 148.6C400.3 139.8 395.4 128.1 395.4 115.6C395.4 103.1 400.3 91.4 409.1 82.6L491.5 0.299988H489.3L408 81.6C398.9 90.7 393.9 102.8 393.9 115.6C393.9 128.5 398.9 140.5 408 149.6C417.1 158.7 429.2 163.7 442.1 163.7C455 163.7 467.1 158.7 476.2 149.6L625.6 0.299988H623.4Z" fill="#526CC6"/>
</g>
<g id="shades">
<path id="Vector_4" d="M732.5 680.4H0V454.7C6.6 464.3 14 473.4 22.2 481.7C57.3 517.2 106.2 538.7 156.1 540.5C225.4 543 297.5 509.7 361.9 535.4C410.8 554.9 443.2 604.6 493 621.6C522 631.5 553.7 629.1 584.3 626.2C614.9 623.4 646.3 620.3 675.7 629.1C701.1 636.8 724.7 655.7 732.5 680.4Z" fill="url(#paint3_linear)"/>
</g>
<path id="unda-4" d="M650 288.4C687.997 288.4 718.8 257.597 718.8 219.6C718.8 181.603 687.997 150.8 650 150.8C612.003 150.8 581.2 181.603 581.2 219.6C581.2 257.597 612.003 288.4 650 288.4Z" fill="url(#paint4_linear)"/>
<path id="unda-3" d="M926.1 590.2C1020.71 590.2 1097.4 513.551 1097.4 419C1097.4 324.449 1020.71 247.8 926.1 247.8C831.494 247.8 754.8 324.449 754.8 419C754.8 513.551 831.494 590.2 926.1 590.2Z" fill="url(#paint5_linear)"/>
<path id="unda-2" d="M1170 284.6V396.2C1139.2 396.2 1114.2 371.2 1114.2 340.4C1114.2 309.5 1139.2 284.6 1170 284.6Z" fill="url(#paint6_linear)"/>
<path id="unda-1" d="M475.6 527.5C496.697 527.5 513.8 510.397 513.8 489.3C513.8 468.203 496.697 451.1 475.6 451.1C454.503 451.1 437.4 468.203 437.4 489.3C437.4 510.397 454.503 527.5 475.6 527.5Z" fill="url(#paint7_linear)"/>
<path id="rect-2" opacity="0.6" d="M72.6 133.3H0V149.3H72.6V133.3Z" fill="#526CC6"/>
<path id="rect-1" opacity="0.3" d="M1170 133.3H1097.4V149.3H1170V133.3Z" fill="#526CC6"/>
<g id="curve-1">
<path id="Vector_5" d="M618.2 569.2C609.1 560.1 597 555.1 584.1 555.1C571.2 555.1 559.1 560.1 550 569.2L438.9 680.4H441.1L551.2 570.4C560 561.6 571.7 556.7 584.2 556.7C596.7 556.7 608.4 561.6 617.2 570.4C626 579.2 630.9 590.9 630.9 603.4C630.9 615.9 626 627.6 617.2 636.4L573 680.4H575.2L618.3 637.4C627.4 628.3 632.4 616.2 632.4 603.4C632.3 590.4 627.3 578.3 618.2 569.2Z" fill="#526CC6"/>
</g>
<g id="circ-2">
<g id="Group_3">
<g id="Group_4">
<path id="Vector_6" d="M330.7 0.299988H329.6C329.6 0.399988 329.6 0.600012 329.6 0.700012C329.6 16.8 316.5 30 300.3 30C284.1 30 271 16.9 271 0.700012C271 0.600012 271 0.399988 271 0.299988H269.9C269.9 0.399988 269.9 0.600012 269.9 0.700012C269.9 17.4 283.5 31.1 300.3 31.1C317.1 31.1 330.7 17.5 330.7 0.700012C330.7 0.600012 330.7 0.499988 330.7 0.299988Z" fill="#526CC6"/>
</g>
</g>
<g id="Group_5">
<path id="Vector_7" d="M339.3 0.299988H338.2C338.2 0.399988 338.2 0.600012 338.2 0.700012C338.2 21.6 321.2 38.6 300.3 38.6C279.4 38.6 262.4 21.6 262.4 0.700012C262.4 0.600012 262.4 0.399988 262.4 0.299988H261.3C261.3 0.399988 261.3 0.600012 261.3 0.700012C261.3 22.2 278.8 39.7 300.3 39.7C321.8 39.7 339.3 22.2 339.3 0.700012C339.3 0.600012 339.3 0.499988 339.3 0.299988Z" fill="#526CC6"/>
</g>
<g id="Group_6">
<path id="Vector_8" d="M347.9 0.299988H346.8C346.8 0.399988 346.8 0.600012 346.8 0.700012C346.8 26.3 325.9 47.2 300.3 47.2C274.7 47.2 253.8 26.3 253.8 0.700012C253.8 0.600012 253.8 0.399988 253.8 0.299988H252.7C252.7 0.399988 252.7 0.600012 252.7 0.700012C252.7 13.4 257.7 25.4 266.6 34.4C275.6 43.4 287.6 48.3 300.3 48.3C313 48.3 325 43.3 334 34.4C343 25.4 347.9 13.5 347.9 0.700012C347.9 0.600012 347.9 0.499988 347.9 0.299988Z" fill="#526CC6"/>
</g>
<g id="Group_7">
<path id="Vector_9" d="M356.5 0.299988H355.4C355.4 0.399988 355.4 0.600012 355.4 0.700012C355.4 31.1 330.7 55.8 300.3 55.8C269.9 55.8 245.2 31.1 245.2 0.700012C245.2 0.600012 245.2 0.399988 245.2 0.299988H244.1C244.1 0.399988 244.1 0.600012 244.1 0.700012C244.1 15.7 250 29.8 260.6 40.4C271.2 51 285.3 56.9 300.4 56.9C315.4 56.9 329.5 51.1 340.2 40.4C350.8 29.8 356.7 15.7 356.7 0.700012C356.5 0.600012 356.5 0.499988 356.5 0.299988Z" fill="#526CC6"/>
</g>
<g id="Group_8">
<path id="Vector_10" d="M365.2 0.299988H364.1C364.1 0.399988 364.1 0.600012 364.1 0.700012C364.1 35.8 335.5 64.4 300.3 64.4C265.1 64.4 236.5 35.8 236.5 0.700012C236.5 0.600012 236.5 0.399988 236.5 0.299988H235.4C235.4 0.399988 235.4 0.600012 235.4 0.700012C235.4 9.40001 237.1 17.9 240.5 25.9C243.8 33.6 248.4 40.5 254.4 46.5C260.4 52.5 267.3 57.1 275 60.4C283 63.8 291.5 65.5 300.2 65.5C309 65.5 317.5 63.8 325.4 60.4C333.1 57.1 340.1 52.5 346 46.5C352 40.5 356.6 33.6 359.9 25.9C363.3 17.9 365 9.40001 365 0.700012C365.2 0.600012 365.2 0.499988 365.2 0.299988Z" fill="#526CC6"/>
</g>
<g id="Group_9">
<path id="Vector_11" d="M373.8 0.299988H372.7C372.7 0.399988 372.7 0.600012 372.7 0.700012C372.7 40.6 340.2 73 300.3 73C260.4 73 227.9 40.6 227.9 0.700012C227.9 0.600012 227.9 0.399988 227.9 0.299988H226.8C226.8 0.399988 226.8 0.600012 226.8 0.700012C226.8 10.6 228.7 20.2 232.6 29.3C236.3 38 241.6 45.9 248.3 52.6C255 59.3 262.9 64.6 271.7 68.3C280.8 72.1 290.4 74.1 300.3 74.1C310.2 74.1 319.8 72.2 328.9 68.3C337.7 64.6 345.5 59.3 352.3 52.6C359.1 45.9 364.4 38 368.1 29.3C371.9 20.2 373.9 10.6 373.9 0.700012C373.8 0.600012 373.8 0.499988 373.8 0.299988Z" fill="#526CC6"/>
</g>
<g id="Group_10">
<path id="Vector_12" d="M382.4 0.299988H381.3C381.3 0.399988 381.3 0.600012 381.3 0.700012C381.3 45.3 345 81.6 300.3 81.6C255.6 81.6 219.3 45.3 219.3 0.700012C219.3 0.600012 219.3 0.399988 219.3 0.299988H218.2C218.2 0.399988 218.2 0.600012 218.2 0.700012C218.2 11.8 220.4 22.5 224.7 32.6C228.8 42.4 234.7 51.1 242.3 58.7C249.8 66.2 258.6 72.1 268.4 76.3C278.5 80.6 289.3 82.7 300.3 82.7C311.4 82.7 322.1 80.5 332.3 76.3C342.1 72.2 350.9 66.3 358.4 58.7C365.9 51.2 371.9 42.4 376 32.6C380.3 22.5 382.5 11.7 382.5 0.700012C382.4 0.600012 382.4 0.499988 382.4 0.299988Z" fill="#526CC6"/>
</g>
</g>
<g id="points-3">
<path id="Vector_13" d="M74.9 587.9C76.1702 587.9 77.2 586.87 77.2 585.6C77.2 584.33 76.1702 583.3 74.9 583.3C73.6297 583.3 72.6 584.33 72.6 585.6C72.6 586.87 73.6297 587.9 74.9 587.9Z" fill="#526CC6"/>
<path id="Vector_14" d="M93.3 587.9C94.5703 587.9 95.6 586.87 95.6 585.6C95.6 584.33 94.5703 583.3 93.3 583.3C92.0297 583.3 91 584.33 91 585.6C91 586.87 92.0297 587.9 93.3 587.9Z" fill="#526CC6"/>
<path id="Vector_15" d="M111.6 587.9C112.87 587.9 113.9 586.87 113.9 585.6C113.9 584.33 112.87 583.3 111.6 583.3C110.33 583.3 109.3 584.33 109.3 585.6C109.3 586.87 110.33 587.9 111.6 587.9Z" fill="#526CC6"/>
<path id="Vector_16" d="M130 587.9C131.27 587.9 132.3 586.87 132.3 585.6C132.3 584.33 131.27 583.3 130 583.3C128.73 583.3 127.7 584.33 127.7 585.6C127.7 586.87 128.73 587.9 130 587.9Z" fill="#526CC6"/>
<path id="Vector_17" d="M148.4 587.9C149.67 587.9 150.7 586.87 150.7 585.6C150.7 584.33 149.67 583.3 148.4 583.3C147.13 583.3 146.1 584.33 146.1 585.6C146.1 586.87 147.13 587.9 148.4 587.9Z" fill="#526CC6"/>
<path id="Vector_18" d="M166.7 587.9C167.97 587.9 169 586.87 169 585.6C169 584.33 167.97 583.3 166.7 583.3C165.43 583.3 164.4 584.33 164.4 585.6C164.4 586.87 165.43 587.9 166.7 587.9Z" fill="#526CC6"/>
<path id="Vector_19" d="M185.1 587.9C186.37 587.9 187.4 586.87 187.4 585.6C187.4 584.33 186.37 583.3 185.1 583.3C183.83 583.3 182.8 584.33 182.8 585.6C182.8 586.87 183.83 587.9 185.1 587.9Z" fill="#526CC6"/>
<path id="Vector_20" d="M203.4 587.9C204.67 587.9 205.7 586.87 205.7 585.6C205.7 584.33 204.67 583.3 203.4 583.3C202.13 583.3 201.1 584.33 201.1 585.6C201.1 586.87 202.13 587.9 203.4 587.9Z" fill="#526CC6"/>
<path id="Vector_21" d="M221.8 587.9C223.07 587.9 224.1 586.87 224.1 585.6C224.1 584.33 223.07 583.3 221.8 583.3C220.53 583.3 219.5 584.33 219.5 585.6C219.5 586.87 220.53 587.9 221.8 587.9Z" fill="#526CC6"/>
<path id="Vector_22" d="M74.9 606.3C76.1702 606.3 77.2 605.27 77.2 604C77.2 602.73 76.1702 601.7 74.9 601.7C73.6297 601.7 72.6 602.73 72.6 604C72.6 605.27 73.6297 606.3 74.9 606.3Z" fill="#526CC6"/>
<path id="Vector_23" d="M93.3 606.3C94.5703 606.3 95.6 605.27 95.6 604C95.6 602.73 94.5703 601.7 93.3 601.7C92.0297 601.7 91 602.73 91 604C91 605.27 92.0297 606.3 93.3 606.3Z" fill="#526CC6"/>
<path id="Vector_24" d="M111.6 606.3C112.87 606.3 113.9 605.27 113.9 604C113.9 602.73 112.87 601.7 111.6 601.7C110.33 601.7 109.3 602.73 109.3 604C109.3 605.27 110.33 606.3 111.6 606.3Z" fill="#526CC6"/>
<path id="Vector_25" d="M130 606.3C131.27 606.3 132.3 605.27 132.3 604C132.3 602.73 131.27 601.7 130 601.7C128.73 601.7 127.7 602.73 127.7 604C127.7 605.27 128.73 606.3 130 606.3Z" fill="#526CC6"/>
<path id="Vector_26" d="M148.4 606.3C149.67 606.3 150.7 605.27 150.7 604C150.7 602.73 149.67 601.7 148.4 601.7C147.13 601.7 146.1 602.73 146.1 604C146.1 605.27 147.13 606.3 148.4 606.3Z" fill="#526CC6"/>
<path id="Vector_27" d="M166.7 606.3C167.97 606.3 169 605.27 169 604C169 602.73 167.97 601.7 166.7 601.7C165.43 601.7 164.4 602.73 164.4 604C164.4 605.27 165.43 606.3 166.7 606.3Z" fill="#526CC6"/>
<path id="Vector_28" d="M185.1 606.3C186.37 606.3 187.4 605.27 187.4 604C187.4 602.73 186.37 601.7 185.1 601.7C183.83 601.7 182.8 602.73 182.8 604C182.8 605.27 183.83 606.3 185.1 606.3Z" fill="#526CC6"/>
<path id="Vector_29" d="M203.4 606.3C204.67 606.3 205.7 605.27 205.7 604C205.7 602.73 204.67 601.7 203.4 601.7C202.13 601.7 201.1 602.73 201.1 604C201.1 605.27 202.13 606.3 203.4 606.3Z" fill="#526CC6"/>
<path id="Vector_30" d="M221.8 606.3C223.07 606.3 224.1 605.27 224.1 604C224.1 602.73 223.07 601.7 221.8 601.7C220.53 601.7 219.5 602.73 219.5 604C219.5 605.27 220.53 606.3 221.8 606.3Z" fill="#526CC6"/>
<path id="Vector_31" d="M74.9 624.6C76.1702 624.6 77.2 623.57 77.2 622.3C77.2 621.03 76.1702 620 74.9 620C73.6297 620 72.6 621.03 72.6 622.3C72.6 623.57 73.6297 624.6 74.9 624.6Z" fill="#526CC6"/>
<path id="Vector_32" d="M93.3 624.6C94.5703 624.6 95.6 623.57 95.6 622.3C95.6 621.03 94.5703 620 93.3 620C92.0297 620 91 621.03 91 622.3C91 623.57 92.0297 624.6 93.3 624.6Z" fill="#526CC6"/>
<path id="Vector_33" d="M111.6 624.6C112.87 624.6 113.9 623.57 113.9 622.3C113.9 621.03 112.87 620 111.6 620C110.33 620 109.3 621.03 109.3 622.3C109.3 623.57 110.33 624.6 111.6 624.6Z" fill="#526CC6"/>
<path id="Vector_34" d="M130 624.6C131.27 624.6 132.3 623.57 132.3 622.3C132.3 621.03 131.27 620 130 620C128.73 620 127.7 621.03 127.7 622.3C127.7 623.57 128.73 624.6 130 624.6Z" fill="#526CC6"/>
<path id="Vector_35" d="M148.4 624.6C149.67 624.6 150.7 623.57 150.7 622.3C150.7 621.03 149.67 620 148.4 620C147.13 620 146.1 621.03 146.1 622.3C146.1 623.57 147.13 624.6 148.4 624.6Z" fill="#526CC6"/>
<path id="Vector_36" d="M166.7 624.6C167.97 624.6 169 623.57 169 622.3C169 621.03 167.97 620 166.7 620C165.43 620 164.4 621.03 164.4 622.3C164.4 623.57 165.43 624.6 166.7 624.6Z" fill="#526CC6"/>
<path id="Vector_37" d="M185.1 624.6C186.37 624.6 187.4 623.57 187.4 622.3C187.4 621.03 186.37 620 185.1 620C183.83 620 182.8 621.03 182.8 622.3C182.8 623.57 183.83 624.6 185.1 624.6Z" fill="#526CC6"/>
<path id="Vector_38" d="M203.4 624.6C204.67 624.6 205.7 623.57 205.7 622.3C205.7 621.03 204.67 620 203.4 620C202.13 620 201.1 621.03 201.1 622.3C201.1 623.57 202.13 624.6 203.4 624.6Z" fill="#526CC6"/>
<path id="Vector_39" d="M221.8 624.6C223.07 624.6 224.1 623.57 224.1 622.3C224.1 621.03 223.07 620 221.8 620C220.53 620 219.5 621.03 219.5 622.3C219.5 623.57 220.53 624.6 221.8 624.6Z" fill="#526CC6"/>
</g>
<g id="circ-1">
<g id="Group_11">
<g id="Group_12">
<path id="Vector_40" d="M1015.3 649.6C998.5 649.6 984.9 663.2 984.9 680V680.4H986V680C986 663.9 999.1 650.7 1015.3 650.7C1031.5 650.7 1044.6 663.8 1044.6 680V680.4H1045.7V680C1045.7 663.2 1032.1 649.6 1015.3 649.6Z" fill="#526CC6"/>
</g>
</g>
<g id="Group_13">
<path id="Vector_41" d="M1015.3 641C993.8 641 976.3 658.5 976.3 680C976.3 680.1 976.3 680.2 976.3 680.4H977.4C977.4 680.3 977.4 680.2 977.4 680C977.4 659.1 994.4 642.1 1015.3 642.1C1036.2 642.1 1053.2 659.1 1053.2 680C1053.2 680.1 1053.2 680.2 1053.2 680.4H1054.3C1054.3 680.3 1054.3 680.2 1054.3 680C1054.3 658.5 1036.8 641 1015.3 641Z" fill="#526CC6"/>
</g>
<g id="Group_14">
<path id="Vector_42" d="M1049 646.3C1040 637.3 1028 632.4 1015.3 632.4C1002.6 632.4 990.6 637.4 981.6 646.3C972.6 655.3 967.7 667.2 967.7 680C967.7 680.1 967.7 680.2 967.7 680.4H968.8C968.8 680.3 968.8 680.2 968.8 680C968.8 654.4 989.7 633.5 1015.3 633.5C1041 633.5 1061.8 654.4 1061.8 680C1061.8 680.1 1061.8 680.2 1061.8 680.4H1062.9C1062.9 680.3 1062.9 680.2 1062.9 680C1062.9 667.3 1058 655.3 1049 646.3Z" fill="#526CC6"/>
</g>
<g id="Group_15">
<path id="Vector_43" d="M1055.1 640.3C1044.5 629.7 1030.4 623.8 1015.3 623.8C1000.3 623.8 986.2 629.6 975.5 640.3C964.9 650.9 959 665 959 680C959 680.1 959 680.2 959 680.4H960.1C960.1 680.3 960.1 680.2 960.1 680C960.1 649.6 984.8 624.9 1015.2 624.9C1045.6 624.9 1070.3 649.6 1070.3 680C1070.3 680.1 1070.3 680.2 1070.3 680.4H1071.4C1071.4 680.3 1071.4 680.2 1071.4 680C1071.5 665 1065.7 650.9 1055.1 640.3Z" fill="#526CC6"/>
</g>
<g id="Group_16">
<path id="Vector_44" d="M1075.1 654.8C1071.8 647.1 1067.2 640.2 1061.2 634.2C1055.2 628.3 1048.3 623.6 1040.6 620.3C1032.6 616.9 1024.1 615.2 1015.4 615.2C1006.6 615.2 998.1 616.9 990.2 620.3C982.5 623.6 975.5 628.2 969.6 634.2C963.6 640.2 959 647.1 955.7 654.8C952.3 662.8 950.6 671.3 950.6 680C950.6 680.1 950.6 680.2 950.6 680.4H951.7C951.7 680.3 951.7 680.2 951.7 680C951.7 644.9 980.3 616.3 1015.5 616.3C1050.7 616.3 1079.3 644.9 1079.3 680C1079.3 680.1 1079.3 680.2 1079.3 680.4H1080.4C1080.4 680.3 1080.4 680.2 1080.4 680C1080.2 671.2 1078.4 662.8 1075.1 654.8Z" fill="#526CC6"/>
</g>
<g id="Group_17">
<path id="Vector_45" d="M1083 651.4C1079.3 642.7 1074 634.8 1067.2 628.1C1060.5 621.4 1052.6 616.1 1043.8 612.4C1034.7 608.6 1025.1 606.6 1015.2 606.6C1005.3 606.6 995.7 608.5 986.6 612.4C977.9 616.1 970 621.4 963.2 628.1C956.5 634.8 951.2 642.7 947.5 651.4C943.7 660.4 941.7 670.1 941.7 680C941.7 680.1 941.7 680.2 941.7 680.4H942.8C942.8 680.3 942.8 680.2 942.8 680C942.8 640.1 975.3 607.7 1015.2 607.7C1055.1 607.7 1087.6 640.1 1087.6 680C1087.6 680.1 1087.6 680.2 1087.6 680.4H1088.7C1088.7 680.3 1088.7 680.2 1088.7 680C1088.8 670.1 1086.8 660.5 1083 651.4Z" fill="#526CC6"/>
</g>
<g id="Group_18">
<path id="Vector_46" d="M1090.9 648.1C1086.8 638.3 1080.8 629.6 1073.3 622C1065.8 614.5 1057 608.6 1047.2 604.4C1037.1 600.1 1026.3 598 1015.2 598C1004.1 598 993.4 600.2 983.2 604.4C973.4 608.5 964.6 614.4 957.1 622C949.6 629.5 943.6 638.3 939.5 648.1C935.2 658.2 933 669 933 680C933 680.1 933 680.2 933 680.4H934.1C934.1 680.3 934.1 680.2 934.1 680C934.1 635.4 970.4 599.1 1015.1 599.1C1059.8 599.1 1096.1 635.4 1096.1 680C1096.1 680.1 1096.1 680.2 1096.1 680.4H1097.2C1097.2 680.3 1097.2 680.2 1097.2 680C1097.4 668.9 1095.2 658.2 1090.9 648.1Z" fill="#526CC6"/>
</g>
</g>
<g id="points-2">
<path id="Vector_47" d="M964.3 468C965.57 468 966.6 466.97 966.6 465.7C966.6 464.43 965.57 463.4 964.3 463.4C963.03 463.4 962 464.43 962 465.7C962 466.97 963.03 468 964.3 468Z" fill="#526CC6"/>
<path id="Vector_48" d="M982.6 468C983.87 468 984.9 466.97 984.9 465.7C984.9 464.43 983.87 463.4 982.6 463.4C981.33 463.4 980.3 464.43 980.3 465.7C980.3 466.97 981.33 468 982.6 468Z" fill="#526CC6"/>
<path id="Vector_49" d="M1001 468C1002.27 468 1003.3 466.97 1003.3 465.7C1003.3 464.43 1002.27 463.4 1001 463.4C999.73 463.4 998.7 464.43 998.7 465.7C998.7 466.97 999.73 468 1001 468Z" fill="#526CC6"/>
<path id="Vector_50" d="M1019.4 468C1020.67 468 1021.7 466.97 1021.7 465.7C1021.7 464.43 1020.67 463.4 1019.4 463.4C1018.13 463.4 1017.1 464.43 1017.1 465.7C1017.1 466.97 1018.13 468 1019.4 468Z" fill="#526CC6"/>
<path id="Vector_51" d="M1037.7 468C1038.97 468 1040 466.97 1040 465.7C1040 464.43 1038.97 463.4 1037.7 463.4C1036.43 463.4 1035.4 464.43 1035.4 465.7C1035.4 466.97 1036.43 468 1037.7 468Z" fill="#526CC6"/>
<path id="Vector_52" d="M1056.1 468C1057.37 468 1058.4 466.97 1058.4 465.7C1058.4 464.43 1057.37 463.4 1056.1 463.4C1054.83 463.4 1053.8 464.43 1053.8 465.7C1053.8 466.97 1054.83 468 1056.1 468Z" fill="#526CC6"/>
<path id="Vector_53" d="M1074.4 468C1075.67 468 1076.7 466.97 1076.7 465.7C1076.7 464.43 1075.67 463.4 1074.4 463.4C1073.13 463.4 1072.1 464.43 1072.1 465.7C1072.1 466.97 1073.13 468 1074.4 468Z" fill="#526CC6"/>
<path id="Vector_54" d="M1092.8 468C1094.07 468 1095.1 466.97 1095.1 465.7C1095.1 464.43 1094.07 463.4 1092.8 463.4C1091.53 463.4 1090.5 464.43 1090.5 465.7C1090.5 466.97 1091.53 468 1092.8 468Z" fill="#526CC6"/>
<path id="Vector_55" d="M1111.1 468C1112.37 468 1113.4 466.97 1113.4 465.7C1113.4 464.43 1112.37 463.4 1111.1 463.4C1109.83 463.4 1108.8 464.43 1108.8 465.7C1108.8 466.97 1109.83 468 1111.1 468Z" fill="#526CC6"/>
<path id="Vector_56" d="M964.3 486.3C965.57 486.3 966.6 485.27 966.6 484C966.6 482.73 965.57 481.7 964.3 481.7C963.03 481.7 962 482.73 962 484C962 485.27 963.03 486.3 964.3 486.3Z" fill="#526CC6"/>
<path id="Vector_57" d="M982.6 486.3C983.87 486.3 984.9 485.27 984.9 484C984.9 482.73 983.87 481.7 982.6 481.7C981.33 481.7 980.3 482.73 980.3 484C980.3 485.27 981.33 486.3 982.6 486.3Z" fill="#526CC6"/>
<path id="Vector_58" d="M1001 486.3C1002.27 486.3 1003.3 485.27 1003.3 484C1003.3 482.73 1002.27 481.7 1001 481.7C999.73 481.7 998.7 482.73 998.7 484C998.7 485.27 999.73 486.3 1001 486.3Z" fill="#526CC6"/>
<path id="Vector_59" d="M1019.4 486.3C1020.67 486.3 1021.7 485.27 1021.7 484C1021.7 482.73 1020.67 481.7 1019.4 481.7C1018.13 481.7 1017.1 482.73 1017.1 484C1017.1 485.27 1018.13 486.3 1019.4 486.3Z" fill="#526CC6"/>
<path id="Vector_60" d="M1037.7 486.3C1038.97 486.3 1040 485.27 1040 484C1040 482.73 1038.97 481.7 1037.7 481.7C1036.43 481.7 1035.4 482.73 1035.4 484C1035.4 485.27 1036.43 486.3 1037.7 486.3Z" fill="#526CC6"/>
<path id="Vector_61" d="M1056.1 486.3C1057.37 486.3 1058.4 485.27 1058.4 484C1058.4 482.73 1057.37 481.7 1056.1 481.7C1054.83 481.7 1053.8 482.73 1053.8 484C1053.8 485.27 1054.83 486.3 1056.1 486.3Z" fill="#526CC6"/>
<path id="Vector_62" d="M1074.4 486.3C1075.67 486.3 1076.7 485.27 1076.7 484C1076.7 482.73 1075.67 481.7 1074.4 481.7C1073.13 481.7 1072.1 482.73 1072.1 484C1072.1 485.27 1073.13 486.3 1074.4 486.3Z" fill="#526CC6"/>
<path id="Vector_63" d="M1092.8 486.3C1094.07 486.3 1095.1 485.27 1095.1 484C1095.1 482.73 1094.07 481.7 1092.8 481.7C1091.53 481.7 1090.5 482.73 1090.5 484C1090.5 485.27 1091.53 486.3 1092.8 486.3Z" fill="#526CC6"/>
<path id="Vector_64" d="M1111.1 486.3C1112.37 486.3 1113.4 485.27 1113.4 484C1113.4 482.73 1112.37 481.7 1111.1 481.7C1109.83 481.7 1108.8 482.73 1108.8 484C1108.8 485.27 1109.83 486.3 1111.1 486.3Z" fill="#526CC6"/>
<path id="Vector_65" d="M964.3 504.6C965.57 504.6 966.6 503.57 966.6 502.3C966.6 501.03 965.57 500 964.3 500C963.03 500 962 501.03 962 502.3C962 503.57 963.03 504.6 964.3 504.6Z" fill="#526CC6"/>
<path id="Vector_66" d="M982.6 504.6C983.87 504.6 984.9 503.57 984.9 502.3C984.9 501.03 983.87 500 982.6 500C981.33 500 980.3 501.03 980.3 502.3C980.3 503.57 981.33 504.6 982.6 504.6Z" fill="#526CC6"/>
<path id="Vector_67" d="M1001 504.6C1002.27 504.6 1003.3 503.57 1003.3 502.3C1003.3 501.03 1002.27 500 1001 500C999.73 500 998.7 501.03 998.7 502.3C998.7 503.57 999.73 504.6 1001 504.6Z" fill="#526CC6"/>
<path id="Vector_68" d="M1019.4 504.6C1020.67 504.6 1021.7 503.57 1021.7 502.3C1021.7 501.03 1020.67 500 1019.4 500C1018.13 500 1017.1 501.03 1017.1 502.3C1017.1 503.57 1018.13 504.6 1019.4 504.6Z" fill="#526CC6"/>
<path id="Vector_69" d="M1037.7 504.6C1038.97 504.6 1040 503.57 1040 502.3C1040 501.03 1038.97 500 1037.7 500C1036.43 500 1035.4 501.03 1035.4 502.3C1035.4 503.57 1036.43 504.6 1037.7 504.6Z" fill="#526CC6"/>
<path id="Vector_70" d="M1056.1 504.6C1057.37 504.6 1058.4 503.57 1058.4 502.3C1058.4 501.03 1057.37 500 1056.1 500C1054.83 500 1053.8 501.03 1053.8 502.3C1053.8 503.57 1054.83 504.6 1056.1 504.6Z" fill="#526CC6"/>
<path id="Vector_71" d="M1074.4 504.6C1075.67 504.6 1076.7 503.57 1076.7 502.3C1076.7 501.03 1075.67 500 1074.4 500C1073.13 500 1072.1 501.03 1072.1 502.3C1072.1 503.57 1073.13 504.6 1074.4 504.6Z" fill="#526CC6"/>
<path id="Vector_72" d="M1092.8 504.6C1094.07 504.6 1095.1 503.57 1095.1 502.3C1095.1 501.03 1094.07 500 1092.8 500C1091.53 500 1090.5 501.03 1090.5 502.3C1090.5 503.57 1091.53 504.6 1092.8 504.6Z" fill="#526CC6"/>
<path id="Vector_73" d="M1111.1 504.6C1112.37 504.6 1113.4 503.57 1113.4 502.3C1113.4 501.03 1112.37 500 1111.1 500C1109.83 500 1108.8 501.03 1108.8 502.3C1108.8 503.57 1109.83 504.6 1111.1 504.6Z" fill="#526CC6"/>
</g>
<g id="points-1">
<path id="Vector_74" d="M662.2 351.8C663.47 351.8 664.5 350.77 664.5 349.5C664.5 348.23 663.47 347.2 662.2 347.2C660.93 347.2 659.9 348.23 659.9 349.5C659.9 350.77 660.93 351.8 662.2 351.8Z" fill="#526CC6"/>
<path id="Vector_75" d="M680.6 351.8C681.87 351.8 682.9 350.77 682.9 349.5C682.9 348.23 681.87 347.2 680.6 347.2C679.33 347.2 678.3 348.23 678.3 349.5C678.3 350.77 679.33 351.8 680.6 351.8Z" fill="#526CC6"/>
<path id="Vector_76" d="M698.9 351.8C700.17 351.8 701.2 350.77 701.2 349.5C701.2 348.23 700.17 347.2 698.9 347.2C697.63 347.2 696.6 348.23 696.6 349.5C696.6 350.77 697.63 351.8 698.9 351.8Z" fill="#526CC6"/>
<path id="Vector_77" d="M717.3 351.8C718.57 351.8 719.6 350.77 719.6 349.5C719.6 348.23 718.57 347.2 717.3 347.2C716.03 347.2 715 348.23 715 349.5C715 350.77 716.03 351.8 717.3 351.8Z" fill="#526CC6"/>
<path id="Vector_78" d="M735.6 351.8C736.87 351.8 737.9 350.77 737.9 349.5C737.9 348.23 736.87 347.2 735.6 347.2C734.33 347.2 733.3 348.23 733.3 349.5C733.3 350.77 734.33 351.8 735.6 351.8Z" fill="#526CC6"/>
<path id="Vector_79" d="M754 351.8C755.27 351.8 756.3 350.77 756.3 349.5C756.3 348.23 755.27 347.2 754 347.2C752.73 347.2 751.7 348.23 751.7 349.5C751.7 350.77 752.73 351.8 754 351.8Z" fill="#526CC6"/>
<path id="Vector_80" d="M772.4 351.8C773.67 351.8 774.7 350.77 774.7 349.5C774.7 348.23 773.67 347.2 772.4 347.2C771.13 347.2 770.1 348.23 770.1 349.5C770.1 350.77 771.13 351.8 772.4 351.8Z" fill="#526CC6"/>
<path id="Vector_81" d="M790.7 351.8C791.97 351.8 793 350.77 793 349.5C793 348.23 791.97 347.2 790.7 347.2C789.43 347.2 788.4 348.23 788.4 349.5C788.4 350.77 789.43 351.8 790.7 351.8Z" fill="#526CC6"/>
<path id="Vector_82" d="M809.1 351.8C810.37 351.8 811.4 350.77 811.4 349.5C811.4 348.23 810.37 347.2 809.1 347.2C807.83 347.2 806.8 348.23 806.8 349.5C806.8 350.77 807.83 351.8 809.1 351.8Z" fill="#526CC6"/>
<path id="Vector_83" d="M662.2 370.2C663.47 370.2 664.5 369.17 664.5 367.9C664.5 366.63 663.47 365.6 662.2 365.6C660.93 365.6 659.9 366.63 659.9 367.9C659.9 369.17 660.93 370.2 662.2 370.2Z" fill="#526CC6"/>
<path id="Vector_84" d="M680.6 370.2C681.87 370.2 682.9 369.17 682.9 367.9C682.9 366.63 681.87 365.6 680.6 365.6C679.33 365.6 678.3 366.63 678.3 367.9C678.3 369.17 679.33 370.2 680.6 370.2Z" fill="#526CC6"/>
<path id="Vector_85" d="M698.9 370.2C700.17 370.2 701.2 369.17 701.2 367.9C701.2 366.63 700.17 365.6 698.9 365.6C697.63 365.6 696.6 366.63 696.6 367.9C696.6 369.17 697.63 370.2 698.9 370.2Z" fill="#526CC6"/>
<path id="Vector_86" d="M717.3 370.2C718.57 370.2 719.6 369.17 719.6 367.9C719.6 366.63 718.57 365.6 717.3 365.6C716.03 365.6 715 366.63 715 367.9C715 369.17 716.03 370.2 717.3 370.2Z" fill="#526CC6"/>
<path id="Vector_87" d="M735.6 370.2C736.87 370.2 737.9 369.17 737.9 367.9C737.9 366.63 736.87 365.6 735.6 365.6C734.33 365.6 733.3 366.63 733.3 367.9C733.3 369.17 734.33 370.2 735.6 370.2Z" fill="#526CC6"/>
<path id="Vector_88" d="M754 370.2C755.27 370.2 756.3 369.17 756.3 367.9C756.3 366.63 755.27 365.6 754 365.6C752.73 365.6 751.7 366.63 751.7 367.9C751.7 369.17 752.73 370.2 754 370.2Z" fill="#526CC6"/>
<path id="Vector_89" d="M772.4 370.2C773.67 370.2 774.7 369.17 774.7 367.9C774.7 366.63 773.67 365.6 772.4 365.6C771.13 365.6 770.1 366.63 770.1 367.9C770.1 369.17 771.13 370.2 772.4 370.2Z" fill="#526CC6"/>
<path id="Vector_90" d="M790.7 370.2C791.97 370.2 793 369.17 793 367.9C793 366.63 791.97 365.6 790.7 365.6C789.43 365.6 788.4 366.63 788.4 367.9C788.4 369.17 789.43 370.2 790.7 370.2Z" fill="#526CC6"/>
<path id="Vector_91" d="M809.1 370.2C810.37 370.2 811.4 369.17 811.4 367.9C811.4 366.63 810.37 365.6 809.1 365.6C807.83 365.6 806.8 366.63 806.8 367.9C806.8 369.17 807.83 370.2 809.1 370.2Z" fill="#526CC6"/>
<path id="Vector_92" d="M662.2 388.5C663.47 388.5 664.5 387.47 664.5 386.2C664.5 384.93 663.47 383.9 662.2 383.9C660.93 383.9 659.9 384.93 659.9 386.2C659.9 387.47 660.93 388.5 662.2 388.5Z" fill="#526CC6"/>
<path id="Vector_93" d="M680.6 388.5C681.87 388.5 682.9 387.47 682.9 386.2C682.9 384.93 681.87 383.9 680.6 383.9C679.33 383.9 678.3 384.93 678.3 386.2C678.3 387.47 679.33 388.5 680.6 388.5Z" fill="#526CC6"/>
<path id="Vector_94" d="M698.9 388.5C700.17 388.5 701.2 387.47 701.2 386.2C701.2 384.93 700.17 383.9 698.9 383.9C697.63 383.9 696.6 384.93 696.6 386.2C696.6 387.47 697.63 388.5 698.9 388.5Z" fill="#526CC6"/>
<path id="Vector_95" d="M717.3 388.5C718.57 388.5 719.6 387.47 719.6 386.2C719.6 384.93 718.57 383.9 717.3 383.9C716.03 383.9 715 384.93 715 386.2C715 387.47 716.03 388.5 717.3 388.5Z" fill="#526CC6"/>
<path id="Vector_96" d="M735.6 388.5C736.87 388.5 737.9 387.47 737.9 386.2C737.9 384.93 736.87 383.9 735.6 383.9C734.33 383.9 733.3 384.93 733.3 386.2C733.3 387.47 734.33 388.5 735.6 388.5Z" fill="#526CC6"/>
<path id="Vector_97" d="M754 388.5C755.27 388.5 756.3 387.47 756.3 386.2C756.3 384.93 755.27 383.9 754 383.9C752.73 383.9 751.7 384.93 751.7 386.2C751.7 387.47 752.73 388.5 754 388.5Z" fill="#526CC6"/>
<path id="Vector_98" d="M772.4 388.5C773.67 388.5 774.7 387.47 774.7 386.2C774.7 384.93 773.67 383.9 772.4 383.9C771.13 383.9 770.1 384.93 770.1 386.2C770.1 387.47 771.13 388.5 772.4 388.5Z" fill="#526CC6"/>
<path id="Vector_99" d="M790.7 388.5C791.97 388.5 793 387.47 793 386.2C793 384.93 791.97 383.9 790.7 383.9C789.43 383.9 788.4 384.93 788.4 386.2C788.4 387.47 789.43 388.5 790.7 388.5Z" fill="#526CC6"/>
<path id="Vector_100" d="M809.1 388.5C810.37 388.5 811.4 387.47 811.4 386.2C811.4 384.93 810.37 383.9 809.1 383.9C807.83 383.9 806.8 384.93 806.8 386.2C806.8 387.47 807.83 388.5 809.1 388.5Z" fill="#526CC6"/>
</g>
</g>
<defs>
<linearGradient id="paint0_linear" x1="1029.91" y1="-1.96775" x2="280.686" y2="574.476" gradientUnits="userSpaceOnUse">
<stop stop-color="#163DA8"/>
<stop offset="1" stop-color="#102F99"/>
</linearGradient>
<linearGradient id="paint1_linear" x1="446.462" y1="211.986" x2="462.594" y2="225.972" gradientUnits="userSpaceOnUse">
<stop stop-color="#153AA5" stop-opacity="0"/>
<stop offset="1" stop-opacity="0.54"/>
</linearGradient>
<linearGradient id="paint2_linear" x1="815.2" y1="281.5" x2="836.315" y2="299.361" gradientUnits="userSpaceOnUse">
<stop stop-color="#153AA5" stop-opacity="0"/>
<stop offset="1" stop-opacity="0.54"/>
</linearGradient>
<linearGradient id="paint3_linear" x1="143.607" y1="792.667" x2="414.305" y2="518.911" gradientUnits="userSpaceOnUse">
<stop stop-color="#163DA8"/>
<stop offset="1" stop-color="#102F99"/>
</linearGradient>
<linearGradient id="paint4_linear" x1="590.588" y1="254.35" x2="711.91" y2="183.424" gradientUnits="userSpaceOnUse">
<stop stop-color="#163DA8"/>
<stop offset="1" stop-color="#102F99"/>
</linearGradient>
<linearGradient id="paint5_linear" x1="798.787" y1="546.317" x2="1050.39" y2="294.714" gradientUnits="userSpaceOnUse">
<stop stop-color="#3A67CC"/>
<stop offset="1" stop-color="#102F99"/>
</linearGradient>
<linearGradient id="paint6_linear" x1="1119.88" y1="365.215" x2="1193.9" y2="321.944" gradientUnits="userSpaceOnUse">
<stop stop-color="#102F99"/>
<stop offset="1" stop-color="#163DA8"/>
</linearGradient>
<linearGradient id="paint7_linear" x1="442.64" y1="508.637" x2="510.041" y2="469.233" gradientUnits="userSpaceOnUse">
<stop stop-color="#163DA8"/>
<stop offset="1" stop-color="#102F99"/>
</linearGradient>
</defs>
</svg>
