<svg width="181" height="97" viewBox="0 0 181 97" fill="none" xmlns="http://www.w3.org/2000/svg">
<g clip-path="url(#clip0)">
<path d="M151.1 49.7C147.8 48.1 143.9 47.2 139.5 47.2C137.9 47.2 136.1 47.3 134.4 47.6C135.5 48.1 136.5 48.7 137.4 49.4C141.4 52.6 143.5 57.9 142.8 63C142.7 63.5 142.3 63.9 141.8 63.9H141.7C141.2 63.8 140.8 63.3 140.9 62.8C141.5 58.4 139.7 53.8 136.2 51.1C132.7 48.4 127.8 47.6 123.7 49.2C123.2 49.4 122.6 49.1 122.4 48.6C122.2 48.1 122.5 47.5 123 47.3C125.9 46.2 129.1 46 132.1 46.8C132.1 46.7 132.1 46.6 132.2 46.5C136.5 36.1 127 24.9 124 21.7C112.3 9.3 96.5 2 81.5 2C78 2 74.5 2.4 71.2 3.2C51.8 7.8 37.8 27.9 41.3 45.6C45 44 49.4 44 53.1 45.6C53.6 45.8 53.8 46.4 53.6 46.9C53.4 47.4 52.8 47.6 52.3 47.4C47.9 45.4 42.4 46.3 38.8 49.4C35.2 52.6 33.7 58 35.2 62.5C35.3 62.9 35.2 63.3 34.8 63.6C34.5 63.9 34 63.9 33.6 63.6C32.8 63.1 31.8 63 30.7 63.3C29.5 63.7 28.5 64.6 28.1 65.7C27.3 67.8 28.4 70.5 30.6 71.9C31.1 72.2 31.2 72.8 30.9 73.3C30.7 73.6 30.4 73.8 30 73.8C29.8 73.8 29.6 73.8 29.5 73.7C26.5 71.9 25.1 68.1 26.1 65.1C26.7 63.4 28.1 62.1 30 61.5C30.9 61.2 31.8 61.1 32.7 61.3C31.9 56.5 33.7 51.2 37.3 48C37.8 47.6 38.3 47.2 38.8 46.9C36.3 45.7 33.5 45.1 30.6 45.1C27.2 45.1 24 46 21.2 47.6C15.6 50.8 11.8 57.2 11.7 63.7C11.7 64.2 11.3 64.7 10.7 64.7C8.4 64.7 6.2 65.8 4.5 67.9C2.4 70.3 1.4 73.7 1.9 76.7C2.9 82.9 8.4 87.2 13.1 89.1C18.7 91.4 25 91.6 31 91.8L81.2 93.7C93.4 94.2 106 94.6 118.4 94.6C129.7 94.6 139.7 94.2 148.9 93.4C155.8 92.8 163.6 91.8 169.9 87.8C175.5 84.2 180.2 76.9 178.3 70C177.1 65.7 172.4 62.3 167.7 62.3C165.6 62.3 163.8 63 162.4 64.3C162.1 64.6 161.7 64.7 161.3 64.5C160.9 64.4 160.7 64 160.7 63.6C160.7 58 156.8 52.5 151.1 49.7ZM66.8 13.6C71.2 10.1 77.9 10 82.4 13.4C82.8 13.7 82.9 14.4 82.6 14.8C82.3 15.2 81.6 15.3 81.2 15C77.4 12.2 71.7 12.2 68 15.2C67.8 15.3 67.6 15.4 67.4 15.4C67.1 15.4 66.8 15.3 66.6 15C66.3 14.5 66.4 13.9 66.8 13.6ZM88 85.5C86.3 86.4 84.5 86.8 82.6 86.8C78.7 86.8 74.8 85 72.5 81.9C69.8 83.7 66.2 84.3 62.7 83.5C58.8 82.6 55.6 80 54.2 76.7C54 76.2 54.2 75.6 54.7 75.4C55.2 75.2 55.8 75.4 56 75.9C57.2 78.7 59.8 80.8 63.1 81.6C66.4 82.4 69.8 81.7 72 79.8C72.2 79.6 72.5 79.5 72.8 79.6C73.1 79.6 73.3 79.8 73.5 80.1C76.1 84.5 82.4 86.3 86.9 83.9C87.4 83.6 88 83.8 88.3 84.3C88.6 84.6 88.5 85.2 88 85.5ZM156.2 76.5C156.1 82.2 150.5 85.8 145.7 88.2C145.6 88.3 145.4 88.3 145.3 88.3C144.9 88.3 144.6 88.1 144.4 87.7C144.2 87.2 144.4 86.6 144.8 86.4C149.2 84.2 154.2 81.1 154.2 76.5C154.2 76 154.7 75.5 155.2 75.5C155.8 75.5 156.2 76 156.2 76.5Z" fill="white"/>
<path d="M28.5 69.4C28.8 70.2 29.3 70.9 30 71.5C29.4 70.8 28.9 70.1 28.5 69.4Z" fill="#C7EAFB"/>
<path d="M172.4 81.6C164.4 82.6 155.2 78 153.9 70C147.8 75.7 138.1 77.1 130.6 73.3C129.5 72.7 128.3 72 127 72.1C125.7 72.1 124.6 73 123.5 73.7C113.2 80.4 98.4 79.2 89.3 70.9C80.1 80.8 61.8 79.7 53.9 68.7C51.6 73.4 46.6 76.6 41.4 76.7C37.7 76.8 33.9 75.3 31.2 72.8C31.2 73 31.2 73.3 31.1 73.5C30.9 73.8 30.6 74 30.2 74C30 74 29.8 74 29.7 73.9C28.4 73.1 27.5 72 26.8 70.7C21.4 74.7 15.5 78.6 8.9 78.8C6.7 78.9 4.4 78.4 2.3 77.4C3.6 83.2 8.8 87.2 13.4 89C19 91.3 25.3 91.5 31.3 91.7L81.5 93.6C93.7 94.1 106.3 94.5 118.7 94.5C130 94.5 140 94.1 149.2 93.3C156.1 92.7 163.9 91.7 170.2 87.7C172.9 86 175.3 83.5 176.9 80.6C175.5 81.1 174 81.4 172.4 81.6ZM88 85.5C86.3 86.4 84.5 86.8 82.6 86.8C78.7 86.8 74.8 85 72.5 81.9C69.8 83.7 66.2 84.3 62.7 83.5C58.8 82.6 55.6 80 54.2 76.7C54 76.2 54.2 75.6 54.7 75.4C55.2 75.2 55.8 75.4 56 75.9C57.2 78.7 59.8 80.8 63.1 81.6C66.4 82.4 69.8 81.7 72 79.8C72.2 79.6 72.5 79.5 72.8 79.6C73.1 79.6 73.3 79.8 73.5 80.1C76.1 84.5 82.4 86.3 86.9 83.9C87.4 83.6 88 83.8 88.3 84.3C88.6 84.6 88.5 85.2 88 85.5ZM145.7 88.2C145.6 88.3 145.4 88.3 145.3 88.3C144.9 88.3 144.6 88.1 144.4 87.7C144.2 87.2 144.4 86.6 144.8 86.4C149.2 84.2 154.2 81.1 154.2 76.5C154.2 76 154.7 75.5 155.2 75.5C155.8 75.5 156.2 76 156.2 76.5C156.2 82.3 150.6 85.8 145.7 88.2Z" fill="#C7EAFB"/>
<path d="M152 47.9C147.1 45.5 141.1 44.7 134.5 45.5C136.7 38 133.3 28.7 125.4 20.2C113.4 7.6 97 0 81.5 0C77.8 0 74.2 0.4 70.7 1.3C61 3.5 52 9.7 46 18.3C40.1 26.6 37.7 35.9 39.2 44.8C36.6 43.7 33.8 43.1 30.9 43.1C27.2 43.1 23.6 44 20.5 45.8C14.5 49.2 10.5 55.8 10.1 62.6C7.6 62.9 5.2 64.2 3.3 66.4C0.900003 69.3 -0.299997 73.2 0.300003 76.8C1.4 83.9 7.5 88.7 12.8 90.8C18.8 93.2 25.5 93.5 31.4 93.7L81.6 95.6C93.8 96.1 106.4 96.5 118.9 96.5C130.2 96.5 140.3 96.1 149.6 95.3C156.7 94.7 164.8 93.7 171.5 89.4C177.7 85.4 182.9 77.3 180.7 69.3C179.3 64.1 173.8 60.1 168.2 60.1C166.3 60.1 164.5 60.6 163 61.5C161.8 56 157.7 50.7 152 47.9ZM161.6 64.4C162 64.5 162.4 64.5 162.7 64.2C164.1 62.9 165.9 62.2 168 62.2C172.7 62.2 177.4 65.6 178.6 69.9C180.5 76.9 175.9 84.2 170.2 87.7C163.9 91.7 156.1 92.7 149.2 93.3C140 94.1 130 94.5 118.7 94.5C106.3 94.5 93.7 94 81.5 93.6L31.3 91.7C25.3 91.5 19 91.2 13.4 89C8.6 87 3.1 82.7 2.1 76.5C1.6 73.5 2.6 70.2 4.7 67.7C6.4 65.7 8.6 64.6 10.9 64.5C11.4 64.5 11.9 64.1 11.9 63.5C12 57 15.7 50.7 21.4 47.4C24.2 45.8 27.5 44.9 30.8 44.9C33.7 44.9 36.5 45.5 39 46.7C38.5 47 38 47.4 37.5 47.8C33.8 51 32.1 56.3 32.9 61.1C32.1 61 31.1 61 30.2 61.3C28.4 61.9 26.9 63.3 26.3 64.9C25.2 67.9 26.7 71.6 29.7 73.5C29.9 73.6 30 73.6 30.2 73.6C30.5 73.6 30.9 73.4 31.1 73.1C31.4 72.6 31.2 72 30.8 71.7C28.6 70.4 27.5 67.7 28.3 65.5C28.7 64.4 29.7 63.5 30.9 63.1C32 62.8 33 62.9 33.8 63.4C34.2 63.6 34.6 63.6 35 63.4C35.3 63.1 35.5 62.7 35.4 62.3C34 57.7 35.4 52.3 39 49.2C42.6 46 48.1 45.2 52.5 47.2C53 47.4 53.6 47.2 53.8 46.7C54 46.2 53.8 45.6 53.3 45.4C49.6 43.7 45.3 43.8 41.5 45.4C37.8 27.9 51.8 7.8 71.1 3.2C74.5 2.4 77.9 2 81.5 2C96.5 2 112.4 9.3 123.9 21.6C126.9 24.8 136.3 36 132.1 46.4C132.1 46.5 132 46.6 132 46.7C129 45.9 125.8 46 122.9 47.2C122.4 47.4 122.1 48 122.3 48.5C122.5 49 123.1 49.3 123.6 49.1C127.7 47.5 132.6 48.2 136.1 51C139.6 53.7 141.4 58.3 140.8 62.7C140.7 63.2 141.1 63.8 141.6 63.8H141.7C142.2 63.8 142.6 63.4 142.7 62.9C143.4 57.8 141.3 52.5 137.3 49.3C136.4 48.6 135.4 48 134.3 47.5C136 47.3 137.8 47.1 139.4 47.1C143.8 47.1 147.7 47.9 151 49.6C156.7 52.4 160.6 57.9 160.9 63.5C161 63.9 161.2 64.3 161.6 64.4Z" fill="#6FBAE7"/>
<path d="M87 83.7C82.5 86.1 76.2 84.3 73.6 79.9C73.4 79.6 73.2 79.5 72.9 79.4C72.6 79.4 72.3 79.4 72.1 79.6C69.8 81.5 66.5 82.2 63.2 81.4C59.9 80.6 57.2 78.5 56.1 75.7C55.9 75.2 55.3 75 54.8 75.2C54.3 75.4 54.1 76 54.3 76.5C55.7 79.8 58.9 82.4 62.8 83.3C66.3 84.1 69.9 83.6 72.6 81.7C74.9 84.8 78.8 86.6 82.7 86.6C84.6 86.6 86.4 86.2 88.1 85.3C88.6 85 88.8 84.4 88.5 83.9C88.1 83.7 87.5 83.5 87 83.7Z" fill="#6FBAE7"/>
<path d="M155.2 75.5C154.7 75.5 154.2 75.9 154.2 76.5C154.1 81.1 149.1 84.3 144.8 86.4C144.3 86.6 144.1 87.2 144.4 87.7C144.6 88 144.9 88.3 145.3 88.3C145.5 88.3 145.6 88.3 145.7 88.2C150.6 85.8 156.2 82.2 156.2 76.5C156.2 76 155.8 75.5 155.2 75.5Z" fill="#6FBAE7"/>
<path d="M67.5 15.3C67.7 15.3 67.9 15.2 68.1 15.1C71.8 12.2 77.5 12.1 81.3 14.9C81.7 15.2 82.4 15.1 82.7 14.7C83 14.3 82.9 13.6 82.5 13.3C78 10 71.2 10.1 66.8 13.6C66.4 13.9 66.3 14.6 66.6 15C66.9 15.2 67.2 15.3 67.5 15.3Z" fill="#6FBAE7"/>
</g>
<defs>
<clipPath id="clip0">
<rect width="181" height="96.5" fill="white"/>
</clipPath>
</defs>
</svg>
