<svg width="192" height="110" viewBox="0 0 192 110" fill="none" xmlns="http://www.w3.org/2000/svg">
<g clip-path="url(#clip0)">
<path d="M22 92.4C25.6 92.4 29 91.5 32 89.8C32.5 89.5 33.1 89.7 33.4 90.1C37.1 96.2 43.6 100.3 50.7 101.3C51.7 101.4 52.7 101.5 53.7 101.5C59.7 101.5 65.5 99.2 69.9 95.3C67.7 94.3 65.6 93 63.5 91.7C63 91.4 62.9 90.8 63.2 90.3C63.5 89.8 64.1 89.7 64.6 90C67.4 91.7 70.3 93.5 73.4 94.5C76.8 95.6 80.1 95.5 82.6 94.4C83.1 94.2 83.7 94.4 83.9 94.9C84.1 95.4 83.9 96 83.4 96.2C81.8 96.9 80 97.3 78.1 97.3C76.4 97.3 74.6 97 72.7 96.4H72.6C77.8 102.9 86.5 106.9 95.7 106.9C102.7 106.9 109.2 104.6 114 100.5C114.2 100.3 114.4 100.3 114.7 100.3H114.8C115.1 100.3 115.3 100.5 115.5 100.7C118.7 105 124.2 107.6 130.2 107.6C136 107.6 141.3 105.2 144.5 101.2C147.3 97.6 152.2 97.1 157 96.6C159.6 96.3 162.3 96.1 164.4 95.3C175.4 91.3 184.8 81.8 188.3 71.2C190.3 65.2 191.3 56.1 185.1 46.7C180.3 39.4 171.1 34.7 161.8 34.7C156.4 34.7 151.4 36.2 147.4 39.1C147.2 39.3 146.8 39.3 146.6 39.3C146.3 39.2 146.1 39 145.9 38.7C141.3 28.3 131.1 20.8 119.8 19.4C119.1 19.3 118.5 19.3 117.9 19.3C115.4 19.3 113.6 20 112.7 21.3C112.5 21.6 112.2 21.7 111.8 21.7C111.5 21.7 111.2 21.5 111 21.2C104.6 9.2 91 2 75.3 2C70.9 2 66.7 2.6 62.6 3.7C51.5 6.9 42.1 13.4 36.3 22.2C30.4 31.1 28.5 42.5 31.2 52.1C35 49 40 47.6 44.9 48.2C46.2 48.4 47.6 48.9 48.4 49.8C50.1 47.3 53.2 45.7 56.3 45.9C60.1 46.1 63.5 48.8 64.7 52.5C64.9 53 64.6 53.6 64 53.8C63.5 54 62.9 53.7 62.7 53.1C61.8 50.2 59 48.1 56.1 47.9C53.1 47.7 50.2 49.7 49.3 52.5C49.1 53 48.7 53.3 48.2 53.2C47.7 53.1 47.4 52.7 47.4 52.2C47.4 51.3 46 50.5 44.6 50.3C39.7 49.6 34.5 51.4 31.1 55C27.7 58.6 26.2 63.8 27.1 68.7C27.2 69.2 26.9 69.8 26.3 69.9C26.2 69.9 26.2 69.9 26.1 69.9C25.6 69.9 25.2 69.6 25.1 69.1C24.1 63.9 25.6 58.2 29.1 54.2C26.9 53.3 24.5 52.9 22.1 52.9C15.6 52.9 9.3 55.9 5.7 60.8C0.299997 68.1 0.799997 79.2 7 86C10.6 90 16.2 92.4 22 92.4ZM143.4 98.5C144.6 98.2 145.6 97.3 146.6 96.6C150.5 93.6 154 90.6 155.3 86.5C155.4 86.2 155.7 85.9 156 85.8C156.3 85.7 156.7 85.8 156.9 86C158 87.1 159.7 87.6 161.5 87.5C163.2 87.4 164.8 86.6 165.8 85.4C166.8 84.2 167.1 82.3 166.2 81.5C165.8 81.1 165.7 80.5 166.1 80.1C166.5 79.7 167.1 79.6 167.5 80C169.5 81.7 169 84.8 167.4 86.7C166 88.3 163.9 89.3 161.6 89.5C159.8 89.6 158.1 89.2 156.7 88.3C155 92.3 151.6 95.2 147.8 98.1C146.7 98.9 145.5 99.9 143.9 100.3C143.3 100.5 142.6 100.6 141.9 100.6C140.4 100.6 138.9 100.2 137.6 99.9L131.5 98.2C131 98.1 130.7 97.5 130.8 97C130.9 96.5 131.5 96.2 132 96.3L138.1 98C139.9 98.4 141.8 98.9 143.4 98.5ZM119.3 38.5C122 37.1 125.5 37.2 128.2 38.7C130.5 40 132 42.4 132.5 45C134.7 44.5 137.2 45.3 138.8 47.1C140.4 49 141.1 51.7 140.8 54.6C140.7 55.3 140.3 56.1 139.6 56.4C139.4 56.5 139.2 56.5 139 56.5C138.7 56.5 138.5 56.4 138.2 56.3C137.7 56 137.6 55.4 137.9 54.9C138.1 54.6 138.4 54.5 138.7 54.5V54.4C139 52.1 138.5 49.9 137.2 48.5C135.9 47 133.6 46.4 132 47.3C131.7 47.5 131.3 47.5 131 47.3C130.7 47.1 130.5 46.8 130.5 46.5C130.5 44.1 129.1 41.7 127 40.5C124.9 39.3 122.2 39.2 120.1 40.3C119.6 40.6 119 40.4 118.8 39.9C118.6 39.4 118.8 38.8 119.3 38.5ZM80.1 11.9C83.6 11 87.5 11.7 90.8 13.9C94.1 16.1 96.3 19.4 96.9 22.9C97 23.4 96.6 24 96.1 24C96 24 96 24 95.9 24C95.4 24 95 23.6 94.9 23.2C94.4 20.2 92.5 17.4 89.7 15.5C86.9 13.6 83.6 13 80.6 13.8C80.1 13.9 79.5 13.6 79.4 13.1C79.3 12.6 79.6 12 80.1 11.9Z" fill="white"/>
<path d="M172.9 66C171.1 66.6 169.1 66.4 167.3 67C165.3 67.7 163.6 69.2 161.8 70.3C155.9 73.9 147.7 73.4 142.4 69C138.5 77.5 126.3 80.8 118.7 75.3C104.9 87.5 81 85.6 69.4 71.3C62.9 79.6 48 78.7 42.5 69.7C36.9 71.8 31.3 73.8 25.4 74.8C18.6 76 11 75.8 5.4 71.6C4.3 70.8 3.3 69.7 2.4 68.5C1.2 74.7 2.8 81.4 7 86C10.6 90 16.3 92.4 22.1 92.4C25.7 92.4 29.1 91.5 32.1 89.8C32.6 89.5 33.2 89.7 33.5 90.1C37.2 96.2 43.7 100.3 50.8 101.3C51.8 101.4 52.8 101.5 53.8 101.5C59.8 101.5 65.6 99.2 70 95.3C67.8 94.3 65.7 93 63.6 91.7C63.1 91.4 63 90.8 63.3 90.3C63.6 89.8 64.2 89.7 64.7 90C67.5 91.7 70.4 93.5 73.5 94.5C76.9 95.6 80.2 95.5 82.7 94.4C83.2 94.2 83.8 94.4 84 94.9C84.2 95.4 84 96 83.5 96.2C81.9 96.9 80.1 97.3 78.2 97.3C76.5 97.3 74.7 97 72.8 96.4H72.7C77.9 102.9 86.6 106.9 95.8 106.9C102.8 106.9 109.3 104.6 114.1 100.5C114.3 100.3 114.5 100.3 114.8 100.3H114.9C115.2 100.3 115.4 100.5 115.6 100.7C118.8 105 124.3 107.6 130.3 107.6C136.1 107.6 141.4 105.2 144.6 101.2C147.4 97.6 152.3 97.1 157.1 96.6C159.7 96.3 162.4 96.1 164.5 95.3C175.5 91.3 184.9 81.8 188.4 71.2C190.1 66.1 191.1 58.7 187.5 50.8C185 54.3 182.3 57.8 179.5 61.1C177.6 63 175.5 65.2 172.9 66ZM167.3 86.8C165.9 88.4 163.8 89.4 161.5 89.6C159.7 89.7 158 89.3 156.6 88.4C154.9 92.4 151.5 95.3 147.7 98.2C146.6 99 145.4 100 143.8 100.4C143.2 100.6 142.5 100.7 141.8 100.7C140.3 100.7 138.8 100.3 137.5 100L131.4 98.3C130.9 98.2 130.6 97.6 130.7 97.1C130.8 96.6 131.4 96.3 131.9 96.4L138 98.1C139.6 98.5 141.5 99.1 143.2 98.6C144.4 98.3 145.4 97.4 146.4 96.7C150.3 93.7 153.8 90.7 155.1 86.6C155.2 86.3 155.5 86 155.8 85.9C156.1 85.8 156.5 85.9 156.7 86.1C157.8 87.2 159.5 87.7 161.3 87.6C163 87.5 164.6 86.7 165.6 85.5C166.6 84.3 166.9 82.4 166 81.6C165.6 81.2 165.5 80.6 165.9 80.2C166.3 79.8 166.9 79.7 167.3 80.1C169.4 81.7 168.9 84.9 167.3 86.8Z" fill="#C7EAFB"/>
<path d="M22 94.4C25.6 94.4 29.1 93.6 32.1 92C36.2 98.1 42.9 102.3 50.3 103.3C51.4 103.4 52.5 103.5 53.6 103.5C59.8 103.5 66 101.2 70.7 97.2C76.3 104.4 85.7 108.8 95.7 108.8C102.8 108.8 109.4 106.6 114.5 102.6C118.1 106.9 123.9 109.5 130.2 109.5C136.6 109.5 142.5 106.8 146.1 102.3C148.4 99.4 152.7 99 157.2 98.5C159.9 98.2 162.7 97.9 165.1 97.1C176.8 92.8 186.4 83.1 190.2 71.7C193.2 62.5 192 53.4 186.7 45.4C181.4 37.4 171.9 32.5 161.7 32.5C156.3 32.5 151.3 33.9 147.1 36.6C142 26.2 131.5 18.6 119.9 17.2C116.4 16.8 113.6 17.3 111.9 18.8C105.1 7.2 91.2 0 75.3 0C70.8 0 66.3 0.6 62.1 1.8C50.5 5.1 40.7 11.9 34.7 21.1C28.6 30.3 26.5 41.9 29.2 52C27 51.2 24.6 50.9 22.2 50.9C15.1 50.9 8.2 54.3 4.2 59.7C-1.8 67.8 -1.2 80 5.6 87.5C9.5 91.8 15.7 94.4 22 94.4ZM5.7 60.8C9.3 55.9 15.6 52.9 22.1 52.9C24.6 52.9 27 53.3 29.1 54.2C25.6 58.2 24.1 63.9 25.1 69.1C25.2 69.6 25.6 69.9 26.1 69.9C26.2 69.9 26.2 69.9 26.3 69.9C26.8 69.8 27.2 69.3 27.1 68.7C26.2 63.8 27.7 58.6 31.1 55C34.5 51.4 39.7 49.6 44.6 50.3C46 50.5 47.4 51.2 47.4 52.2C47.4 52.7 47.7 53.1 48.2 53.2C48.7 53.3 49.2 53 49.3 52.5C50.2 49.7 53.2 47.8 56.1 47.9C59 48.1 61.8 50.3 62.7 53.1C62.9 53.6 63.4 53.9 64 53.8C64.5 53.6 64.8 53.1 64.7 52.5C63.5 48.8 60.1 46.1 56.3 45.9C53.2 45.7 50.1 47.3 48.4 49.8C47.5 48.9 46.2 48.4 44.9 48.2C40.1 47.5 35 49 31.2 52.1C28.4 42.5 30.3 31.1 36.3 22.2C42.1 13.4 51.5 6.9 62.6 3.7C66.7 2.6 70.9 2 75.3 2C91 2 104.6 9.2 110.9 20.9C111.1 21.2 111.4 21.4 111.7 21.4C112.1 21.4 112.4 21.3 112.6 21C113.6 19.7 115.3 19 117.8 19C118.4 19 119.1 19 119.7 19.1C130.9 20.5 141.2 28 145.8 38.4C145.9 38.7 146.2 38.9 146.5 39C146.8 39.1 147.1 39 147.3 38.8C151.3 35.9 156.3 34.4 161.7 34.4C171.1 34.4 180.2 39.1 185 46.4C191.2 55.8 190.2 64.9 188.2 70.9C184.7 81.5 175.4 91 164.3 95C162.2 95.8 159.5 96.1 156.9 96.3C152.1 96.8 147.2 97.3 144.4 100.9C141.2 104.9 135.9 107.3 130.1 107.3C124 107.3 118.5 104.7 115.4 100.4C115.2 100.2 115 100 114.7 100H114.6C114.4 100 114.1 100.1 113.9 100.2C109.1 104.3 102.6 106.6 95.6 106.6C86.4 106.6 77.7 102.6 72.5 96.1H72.6C74.4 96.7 76.3 97 78 97C79.9 97 81.7 96.6 83.3 95.9C83.8 95.7 84 95.1 83.8 94.6C83.6 94.1 83 93.9 82.5 94.1C79.9 95.3 76.6 95.3 73.3 94.2C70.2 93.2 67.3 91.4 64.5 89.7C64 89.4 63.4 89.6 63.1 90C62.8 90.5 63 91.1 63.4 91.4C65.4 92.7 67.5 94 69.8 95C65.4 98.9 59.6 101.2 53.6 101.2C52.6 101.2 51.6 101.1 50.6 101C43.5 100.1 37.1 95.9 33.3 89.8C33 89.3 32.4 89.2 31.9 89.5C29 91.2 25.6 92.1 21.9 92.1C16.2 92.4 10.6 90 7 86C0.799998 79.2 0.299997 68.1 5.7 60.8Z" fill="#6FBAE7"/>
<path d="M132.1 96.3C131.6 96.2 131 96.5 130.9 97C130.8 97.5 131.1 98.1 131.6 98.2L137.7 99.9C139 100.2 140.4 100.6 142 100.6C142.6 100.6 143.3 100.5 144 100.3C145.5 99.9 146.8 98.9 147.9 98.1C151.6 95.2 155.1 92.3 156.8 88.3C158.2 89.2 159.9 89.6 161.7 89.5C164 89.4 166.1 88.4 167.5 86.7C169.1 84.8 169.6 81.7 167.6 80C167.2 79.6 166.5 79.7 166.2 80.1C165.8 80.5 165.9 81.2 166.3 81.5C167.3 82.3 166.9 84.3 165.9 85.4C164.9 86.6 163.3 87.4 161.6 87.5C159.9 87.6 158.2 87.1 157 86C156.7 85.8 156.4 85.7 156.1 85.8C155.8 85.9 155.5 86.1 155.4 86.5C154.2 90.6 150.6 93.6 146.7 96.6C145.8 97.3 144.7 98.2 143.5 98.5C141.9 99 140 98.5 138.3 98L132.1 96.3Z" fill="#6FBAE7"/>
<path d="M120.2 40.3C122.3 39.2 125 39.3 127.1 40.5C129.2 41.7 130.5 44.1 130.6 46.5C130.6 46.9 130.8 47.2 131.1 47.3C131.4 47.5 131.8 47.5 132.1 47.3C133.7 46.4 136 47 137.3 48.5C138.6 49.9 139.1 52.1 138.8 54.4V54.5C138.5 54.5 138.2 54.7 138 54.9C137.7 55.4 137.8 56 138.3 56.3C138.5 56.5 138.8 56.5 139.1 56.5C139.3 56.5 139.5 56.5 139.7 56.4C140.4 56.1 140.8 55.3 140.9 54.6C141.3 51.7 140.6 49 138.9 47.1C137.3 45.3 134.8 44.5 132.6 45C132.1 42.4 130.5 40 128.3 38.7C125.7 37.1 122.2 37 119.4 38.5C118.9 38.8 118.7 39.4 119 39.8C119.1 40.4 119.7 40.6 120.2 40.3Z" fill="#6FBAE7"/>
<path d="M80.6 13.8C83.6 13 86.9 13.7 89.7 15.5C92.5 17.4 94.4 20.2 94.9 23.2C95 23.7 95.4 24 95.9 24C95.9 24 96 24 96.1 24C96.6 23.9 97 23.4 96.9 22.9C96.4 19.3 94.1 16 90.8 13.9C87.5 11.7 83.6 11 80.1 11.9C79.6 12 79.2 12.6 79.4 13.1C79.5 13.6 80.1 14 80.6 13.8Z" fill="#6FBAE7"/>
</g>
<defs>
<clipPath id="clip0">
<rect width="191.8" height="109.4" fill="white"/>
</clipPath>
</defs>
</svg>
