<svg width="976" height="798" viewBox="0 0 976 798" fill="none" xmlns="http://www.w3.org/2000/svg">
<g id="funding">
<path id="shadow" opacity="0.08" d="M487.9 798C757.219 798 975.545 769.06 975.545 733.36C975.545 697.66 757.219 668.72 487.9 668.72C218.581 668.72 0.254997 697.66 0.254997 733.36C0.254997 769.06 218.581 798 487.9 798Z" fill="black"/>
<g id="graph">
<g id="bars-wrap">
<g id="bars">
<path id="Vector" d="M280.045 322.825H213.63V509.645V608.885H280.045V464.91V322.825Z" fill="#ccc"/>
<path id="Vector_2" d="M294.205 509.645V608.885H360.62V509.645V493.54V269.435H294.205V509.645Z" fill="#ccc"/>
<path id="Vector_3" d="M441.18 253.72H374.765V509.645V608.885H441.185V317.205H441.18V253.72Z" fill="#ccc"/>
<path id="Vector_4" d="M521.755 207.535H455.34V509.645V608.885H521.755V345.835V207.535Z" fill="#ccc"/>
<path id="Vector_5" d="M602.33 235.15H535.915V509.645V608.885H602.33V295.735V235.15Z" fill="#ccc"/>
<path id="Vector_6" d="M682.89 183.73H616.475V509.645V608.885H682.89V491.75V183.73Z" fill="#ccc"/>
<path id="Vector_7" d="M763.465 120.425H697.05V509.645V608.885H763.465V338.68V120.425Z" fill="#ccc"/>
</g>
</g>
<path id="arrow" d="M762.75 0.5V22.06H793.02L551.76 151.165L479.62 108.18L124.935 281.78L134.41 301.14L478.615 132.675L551.19 175.925L805.07 40.06L791.39 65.455L810.37 75.675L850.87 0.5H762.75Z" fill="#ccc"/>
</g>
<g id="Group">
<g id="notes -2">
<g id="Group_2">
<path id="Vector_8" d="M826.025 559.61H555.185V596.9H826.025V559.61Z" fill="#264BB2"/>
<path id="Vector_9" d="M726.06 559.61H655.15V596.9H726.06V559.61Z" fill="#EFEDB4"/>
<path id="Vector_10" d="M665.405 559.61H660.815V596.9H665.405V559.61Z" fill="white"/>
<path id="Vector_11" d="M720.395 559.61H715.805V596.9H720.395V559.61Z" fill="white"/>
<path id="Vector_12" d="M826.025 590.01H555.185V596.9H826.025V590.01Z" fill="#333333"/>
</g>
<g id="Group_3">
<path id="Vector_13" d="M826.025 559.61H555.185L569.7 545.45H812.555L826.025 559.61Z" fill="#3F66BC"/>
<path id="Vector_14" d="M726.055 559.61H655.15L660.815 545.45H720.395L726.055 559.61Z" fill="#EDEBA0"/>
<path id="Vector_15" d="M665.4 559.61H660.815L666.48 545.45H671.065L665.4 559.61Z" fill="white"/>
<path id="Vector_16" d="M720.395 559.61H715.805L710.14 545.45H714.73L720.395 559.61Z" fill="white"/>
</g>
<g id="Group_4">
<path id="Vector_17" d="M831.69 596.9H560.85V634.19H831.69V596.9Z" fill="#264BB2"/>
<path id="Vector_18" d="M731.725 596.9H660.815V634.19H731.725V596.9Z" fill="#EFEDB4"/>
<path id="Vector_19" d="M671.07 596.9H666.48V634.19H671.07V596.9Z" fill="white"/>
<path id="Vector_20" d="M726.06 596.9H721.47V634.19H726.06V596.9Z" fill="white"/>
<path id="Vector_21" d="M831.69 627.3H560.85V634.19H831.69V627.3Z" fill="#333333"/>
</g>
<g id="Group_5">
<path id="Vector_22" d="M826.025 634.19H555.185V671.48H826.025V634.19Z" fill="#264BB2"/>
<path id="Vector_23" d="M726.06 634.19H655.15V671.48H726.06V634.19Z" fill="#EFEDB4"/>
<path id="Vector_24" d="M665.405 634.19H660.815V671.48H665.405V634.19Z" fill="white"/>
<path id="Vector_25" d="M720.395 634.19H715.805V671.48H720.395V634.19Z" fill="white"/>
<path id="Vector_26" d="M826.025 664.59H555.185V671.48H826.025V664.59Z" fill="#333333"/>
</g>
<g id="Group_6">
<path id="Vector_27" d="M828.855 671.48H558.015V708.77H828.855V671.48Z" fill="#264BB2"/>
<path id="Vector_28" d="M728.89 671.48H657.98V708.77H728.89V671.48Z" fill="#EFEDB4"/>
<path id="Vector_29" d="M668.235 671.48H663.645V708.77H668.235V671.48Z" fill="white"/>
<path id="Vector_30" d="M723.225 671.48H718.635V708.77H723.225V671.48Z" fill="white"/>
<path id="Vector_31" d="M828.855 701.88H558.015V708.77H828.855V701.88Z" fill="#333333"/>
</g>
</g>
<g id="notes -1">
<g id="Group_7">
<path id="Vector_32" d="M439.42 503.975H168.58V541.265H439.42V503.975Z" fill="#264BB2"/>
<path id="Vector_33" d="M339.455 503.975H268.545V541.265H339.455V503.975Z" fill="#EFEDB4"/>
<path id="Vector_34" d="M278.8 503.975H274.21V541.265H278.8V503.975Z" fill="white"/>
<path id="Vector_35" d="M333.79 503.975H329.2V541.265H333.79V503.975Z" fill="white"/>
<path id="Vector_36" d="M439.42 534.375H168.58V541.265H439.42V534.375Z" fill="#333333"/>
</g>
<g id="Group_8">
<path id="Vector_37" d="M439.42 503.975H168.58L183.095 489.815H425.95L439.42 503.975Z" fill="#3F66BC"/>
<path id="Vector_38" d="M339.455 503.975H268.545L274.21 489.815H333.79L339.455 503.975Z" fill="#EDEBA0"/>
<path id="Vector_39" d="M278.8 503.975H274.21L279.875 489.815H284.465L278.8 503.975Z" fill="white"/>
<path id="Vector_40" d="M333.79 503.975H329.2L323.535 489.815H328.125L333.79 503.975Z" fill="white"/>
</g>
<g id="Group_9">
<path id="Vector_41" d="M445.085 541.265H174.245V578.555H445.085V541.265Z" fill="#264BB2"/>
<path id="Vector_42" d="M345.12 541.265H274.21V578.555H345.12V541.265Z" fill="#EFEDB4"/>
<path id="Vector_43" d="M284.465 541.265H279.875V578.555H284.465V541.265Z" fill="white"/>
<path id="Vector_44" d="M339.455 541.265H334.865V578.555H339.455V541.265Z" fill="white"/>
<path id="Vector_45" d="M445.085 571.665H174.245V578.555H445.085V571.665Z" fill="#333333"/>
</g>
<g id="Group_10">
<path id="Vector_46" d="M439.42 578.555H168.58V615.845H439.42V578.555Z" fill="#264BB2"/>
<path id="Vector_47" d="M339.455 578.555H268.545V615.845H339.455V578.555Z" fill="#EFEDB4"/>
<path id="Vector_48" d="M278.8 578.555H274.21V615.845H278.8V578.555Z" fill="white"/>
<path id="Vector_49" d="M333.79 578.555H329.2V615.845H333.79V578.555Z" fill="white"/>
<path id="Vector_50" d="M439.42 608.955H168.58V615.845H439.42V608.955Z" fill="#333333"/>
</g>
<g id="Group_11">
<path id="Vector_51" d="M442.25 615.845H171.41V653.135H442.25V615.845Z" fill="#264BB2"/>
<path id="Vector_52" d="M342.285 615.845H271.375V653.135H342.285V615.845Z" fill="#EFEDB4"/>
<path id="Vector_53" d="M281.63 615.845H277.04V653.135H281.63V615.845Z" fill="white"/>
<path id="Vector_54" d="M336.625 615.845H332.035V653.135H336.625V615.845Z" fill="white"/>
<path id="Vector_55" d="M442.25 646.245H171.41V653.135H442.25V646.245Z" fill="#333333"/>
</g>
<g id="Group_12">
<path id="Vector_56" d="M433.755 653.135H162.915V690.425H433.755V653.135Z" fill="#264BB2"/>
<path id="Vector_57" d="M333.79 653.135H262.88V690.425H333.79V653.135Z" fill="#EFEDB4"/>
<path id="Vector_58" d="M273.135 653.135H268.545V690.425H273.135V653.135Z" fill="white"/>
<path id="Vector_59" d="M328.125 653.135H323.535V690.425H328.125V653.135Z" fill="white"/>
<path id="Vector_60" d="M433.755 683.535H162.915V690.425H433.755V683.535Z" fill="#333333"/>
</g>
<g id="Group_13">
<path id="Vector_61" d="M445.085 690.425H174.245V727.715H445.085V690.425Z" fill="#264BB2"/>
<path id="Vector_62" d="M345.12 690.425H274.21V727.715H345.12V690.425Z" fill="#EFEDB4"/>
<path id="Vector_63" d="M284.465 690.425H279.875V727.715H284.465V690.425Z" fill="white"/>
<path id="Vector_64" d="M339.455 690.425H334.865V727.715H339.455V690.425Z" fill="white"/>
<path id="Vector_65" d="M445.085 720.825H174.245V727.715H445.085V720.825Z" fill="#333333"/>
</g>
</g>
<g id="m-4">
<g id="m-gp">
<g id="Group_14">
<path id="Vector_66" d="M323.535 455.595C310.455 455.595 299.84 458.815 299.84 462.785V491.45C299.84 492.765 300.99 493.98 303.01 495.04C307.1 497.18 314.76 498.63 323.535 498.63C332.31 498.63 339.97 497.18 344.06 495.04C346.08 493.985 347.23 492.765 347.23 491.45V462.785C347.23 458.815 336.615 455.595 323.535 455.595Z" fill="#FADD75"/>
<g id="Group_15">
<g id="Group_16">
<path id="Vector_67" d="M323.535 471.31C314.77 471.31 306.86 469.91 302.38 467.57C299.16 465.885 298.485 464.035 298.485 462.78C298.485 457.17 311.085 454.235 323.535 454.235C335.98 454.235 348.58 457.17 348.58 462.78C348.58 464.035 347.905 465.88 344.685 467.565C340.21 469.915 332.305 471.31 323.535 471.31ZM323.535 456.945C309.895 456.945 301.195 460.4 301.195 462.78C301.195 463.475 302.11 464.365 303.635 465.17C307.68 467.29 315.305 468.605 323.535 468.605C331.76 468.605 339.385 467.29 343.43 465.17C344.96 464.37 345.87 463.475 345.87 462.78C345.875 460.405 337.175 456.945 323.535 456.945Z" fill="#FCAB1E"/>
<path id="Vector_68" d="M323.535 492.855C311.09 492.855 298.485 489.92 298.485 484.31V477.135H301.195C301.195 477.84 302.085 478.71 303.635 479.525C307.68 481.64 315.305 482.96 323.535 482.96C331.76 482.96 339.385 481.645 343.43 479.525C344.98 478.71 345.87 477.84 345.87 477.135H348.58V484.31C348.585 489.92 335.985 492.855 323.535 492.855ZM301.195 481.225V484.31C301.195 486.69 309.9 490.145 323.535 490.145C337.17 490.145 345.875 486.69 345.875 484.31V481.225C345.515 481.465 345.12 481.7 344.69 481.925C340.21 484.27 332.305 485.67 323.535 485.67C314.765 485.67 306.86 484.27 302.38 481.93C301.95 481.695 301.555 481.465 301.195 481.225Z" fill="#FCAB1E"/>
<path id="Vector_69" d="M323.535 500.035C311.09 500.035 298.485 497.1 298.485 491.49V484.315H301.195C301.195 485.02 302.085 485.89 303.635 486.705C307.685 488.825 315.31 490.14 323.535 490.14C331.76 490.14 339.385 488.825 343.43 486.705C344.98 485.895 345.87 485.025 345.87 484.315H348.58V491.49C348.585 497.1 335.985 500.035 323.535 500.035ZM301.195 488.405V491.49C301.195 493.87 309.9 497.325 323.535 497.325C337.17 497.325 345.875 493.87 345.875 491.49V488.405C345.515 488.645 345.12 488.875 344.69 489.105C340.21 491.45 332.305 492.845 323.535 492.845C314.77 492.845 306.86 491.445 302.38 489.105C301.95 488.88 301.555 488.645 301.195 488.405Z" fill="#FCAB1E"/>
<path id="Vector_70" d="M323.535 485.665C314.77 485.665 306.86 484.265 302.38 481.925C299.795 480.57 298.485 478.96 298.485 477.135V469.96H301.195C301.195 470.665 302.085 471.535 303.635 472.35C307.68 474.47 315.305 475.785 323.535 475.785C331.76 475.785 339.385 474.47 343.43 472.35C344.98 471.54 345.87 470.67 345.87 469.96H348.58V477.135C348.58 478.96 347.27 480.57 344.685 481.925C340.21 484.265 332.305 485.665 323.535 485.665ZM301.195 474.05V477.135C301.195 477.84 302.085 478.71 303.635 479.525C307.68 481.64 315.305 482.96 323.535 482.96C331.76 482.96 339.385 481.645 343.43 479.525C344.98 478.71 345.87 477.84 345.87 477.135V474.05C345.51 474.29 345.115 474.52 344.685 474.75C340.205 477.095 332.3 478.49 323.53 478.49C314.76 478.49 306.855 477.09 302.375 474.75C301.95 474.52 301.555 474.285 301.195 474.05Z" fill="#FCAB1E"/>
<path id="Vector_71" d="M323.535 478.485C314.77 478.485 306.86 477.085 302.38 474.745C299.795 473.395 298.485 471.78 298.485 469.955V462.78H301.195C301.195 463.475 302.11 464.365 303.635 465.17C307.68 467.29 315.305 468.605 323.535 468.605C331.76 468.605 339.385 467.29 343.43 465.17C344.96 464.37 345.87 463.475 345.87 462.78H348.58V469.955C348.58 471.78 347.27 473.39 344.685 474.745C340.21 477.09 332.305 478.485 323.535 478.485ZM301.195 466.87V469.96C301.195 470.665 302.085 471.535 303.635 472.35C307.68 474.47 315.305 475.785 323.535 475.785C331.76 475.785 339.385 474.47 343.43 472.35C344.98 471.54 345.87 470.67 345.87 469.96V466.87C345.52 467.105 345.125 467.34 344.685 467.57C340.205 469.915 332.3 471.31 323.53 471.31C314.76 471.31 306.855 469.91 302.375 467.57C301.94 467.34 301.55 467.105 301.195 466.87Z" fill="#FCAB1E"/>
</g>
</g>
<g id="Group_17">
<path id="Vector_72" d="M325.265 461.73C325.25 461.73 325.235 461.725 325.23 461.72C325.035 461.685 324.77 461.625 324.435 461.555C322.37 461.12 321.345 460.765 321.345 460.475C321.345 460.3 321.525 460.165 321.89 460.06C322.245 459.955 322.725 459.905 323.335 459.905C324.165 459.905 324.775 459.98 325.155 460.13C325.545 460.285 325.735 460.52 325.735 460.845V460.97H330.005V460.83C330.005 460.135 329.475 459.615 328.415 459.27C327.72 459.045 326.79 458.89 325.635 458.815V457.925H321.45V458.815C320.3 458.885 319.36 459.02 318.625 459.22C317.475 459.53 316.9 459.98 316.9 460.57C316.9 461.01 317.235 461.39 317.92 461.7C318.595 462.015 320.21 462.435 322.735 462.965C322.865 462.995 323.04 463.03 323.26 463.075C324.895 463.405 325.705 463.705 325.705 463.965C325.705 464.165 325.51 464.325 325.12 464.44C324.73 464.56 324.2 464.615 323.535 464.615C322.655 464.615 322.04 464.535 321.685 464.37C321.33 464.205 321.15 463.91 321.15 463.485V463.37H316.795C316.795 463.4 316.79 463.445 316.775 463.5C316.77 463.56 316.76 463.6 316.76 463.625C316.76 464.355 317.305 464.895 318.395 465.24C319.135 465.475 320.15 465.625 321.43 465.7V466.575H325.615V465.695C326.805 465.62 327.785 465.485 328.555 465.275C329.74 464.955 330.335 464.495 330.335 463.905C330.325 463.17 328.64 462.445 325.265 461.73Z" fill="white"/>
</g>
</g>
</g>
<g id="m-gp_2">
<path id="Vector_73" d="M363.675 474.885C351.005 474.885 340.72 478.005 340.72 481.85V495.64C340.72 496.915 341.835 498.095 343.79 499.115C347.75 501.19 355.175 502.59 363.675 502.59C372.175 502.59 379.6 501.185 383.565 499.115C385.52 498.09 386.635 496.91 386.635 495.64V481.85C386.635 478.01 376.35 474.885 363.675 474.885Z" fill="#FADD75"/>
<g id="Group_18">
<g id="Group_19">
<path id="Vector_74" d="M363.675 490.115C355.18 490.115 347.52 488.76 343.18 486.49C340.06 484.855 339.405 483.065 339.405 481.85C339.405 476.415 351.615 473.57 363.675 473.57C375.735 473.57 387.945 476.415 387.945 481.85C387.945 483.065 387.29 484.855 384.17 486.49C379.83 488.76 372.17 490.115 363.675 490.115ZM363.675 476.2C350.46 476.2 342.03 479.55 342.03 481.855C342.03 482.53 342.915 483.395 344.395 484.17C348.315 486.22 355.705 487.495 363.675 487.495C371.645 487.495 379.03 486.22 382.955 484.17C384.435 483.395 385.32 482.53 385.32 481.855C385.32 479.545 376.89 476.2 363.675 476.2Z" fill="#FCAB1E"/>
<path id="Vector_75" d="M363.675 504.02C355.18 504.02 347.52 502.665 343.18 500.395C340.675 499.085 339.405 497.525 339.405 495.755V488.8H342.03C342.03 489.485 342.89 490.325 344.395 491.115C348.315 493.165 355.705 494.44 363.675 494.44C371.645 494.44 379.03 493.165 382.955 491.115C384.46 490.33 385.32 489.485 385.32 488.8H387.945V495.755C387.945 497.52 386.675 499.085 384.17 500.395C379.83 502.665 372.17 504.02 363.675 504.02ZM342.03 492.765V495.755C342.03 496.44 342.89 497.28 344.395 498.07C348.315 500.12 355.705 501.395 363.675 501.395C371.645 501.395 379.03 500.12 382.955 498.07C384.46 497.285 385.32 496.44 385.32 495.755V492.765C384.97 493 384.59 493.225 384.17 493.44C379.83 495.71 372.17 497.065 363.675 497.065C355.18 497.065 347.52 495.71 343.18 493.44C342.765 493.225 342.38 493 342.03 492.765Z" fill="#FCAB1E"/>
<path id="Vector_76" d="M363.675 497.07C355.18 497.07 347.52 495.715 343.18 493.445C340.675 492.135 339.405 490.575 339.405 488.805V481.855H342.03C342.03 482.53 342.915 483.395 344.395 484.17C348.315 486.22 355.705 487.495 363.675 487.495C371.645 487.495 379.03 486.22 382.955 484.17C384.435 483.395 385.32 482.53 385.32 481.855H387.945V488.805C387.945 490.575 386.675 492.135 384.17 493.445C379.83 495.715 372.17 497.07 363.675 497.07ZM342.03 485.81V488.805C342.03 489.49 342.89 490.33 344.395 491.12C348.315 493.17 355.705 494.445 363.675 494.445C371.645 494.445 379.03 493.17 382.955 491.12C384.46 490.335 385.32 489.49 385.32 488.805V485.81C384.98 486.04 384.6 486.265 384.17 486.49C379.83 488.76 372.17 490.115 363.675 490.115C355.18 490.115 347.52 488.76 343.18 486.49C342.75 486.265 342.37 486.04 342.03 485.81Z" fill="#FCAB1E"/>
</g>
</g>
<path id="Vector_77" d="M365.35 481.34C365.335 481.34 365.325 481.335 365.325 481.335C365.13 481.295 364.87 481.24 364.545 481.17C362.545 480.75 361.55 480.4 361.55 480.125C361.55 479.955 361.725 479.825 362.075 479.72C362.42 479.62 362.885 479.565 363.475 479.565C364.28 479.565 364.87 479.64 365.24 479.785C365.62 479.935 365.8 480.165 365.8 480.48V480.605H369.94V480.47C369.94 479.795 369.425 479.295 368.4 478.96C367.725 478.74 366.825 478.595 365.705 478.52V477.655H361.65V478.52C360.535 478.59 359.625 478.72 358.915 478.91C357.8 479.21 357.245 479.65 357.245 480.22C357.245 480.65 357.57 481.015 358.23 481.315C358.885 481.62 360.45 482.03 362.895 482.54C363.025 482.57 363.195 482.605 363.4 482.65C364.985 482.975 365.765 483.26 365.765 483.515C365.765 483.71 365.575 483.86 365.195 483.975C364.815 484.09 364.3 484.145 363.66 484.145C362.81 484.145 362.215 484.065 361.87 483.91C361.525 483.75 361.35 483.465 361.35 483.05V482.94H357.13C357.13 482.97 357.125 483.01 357.11 483.065C357.105 483.12 357.095 483.16 357.095 483.19C357.095 483.9 357.625 484.42 358.68 484.755C359.395 484.98 360.38 485.13 361.62 485.2V486.05H365.675V485.195C366.83 485.125 367.78 484.99 368.52 484.785C369.67 484.475 370.245 484.03 370.245 483.46C370.25 482.735 368.62 482.035 365.35 481.34Z" fill="white"/>
<g id="Group_20">
<path id="Vector_78" opacity="0.4" d="M393.035 507.43L366.465 508.11V478.21L393.035 477.535V507.43Z" fill="#F8CF44"/>
</g>
</g>
</g>
<g id="m-3">
<g id="m-gp_3">
<g id="Group_21">
<path id="Vector_79" d="M728.125 510.45C715.045 510.45 704.43 513.67 704.43 517.64V546.305C704.43 547.62 705.58 548.835 707.6 549.895C711.69 552.035 719.35 553.48 728.125 553.48C736.9 553.48 744.56 552.03 748.65 549.895C750.665 548.84 751.82 547.62 751.82 546.305V517.64C751.815 513.67 741.2 510.45 728.125 510.45Z" fill="#FADD75"/>
<g id="Group_22">
<g id="Group_23">
<path id="Vector_80" d="M728.125 526.17C719.36 526.17 711.45 524.77 706.97 522.43C703.75 520.745 703.075 518.895 703.075 517.64C703.075 512.03 715.675 509.095 728.12 509.095C740.565 509.095 753.165 512.03 753.165 517.64C753.165 518.895 752.49 520.74 749.27 522.425C744.8 524.77 736.89 526.17 728.125 526.17ZM728.125 511.805C714.49 511.805 705.785 515.26 705.785 517.64C705.785 518.335 706.7 519.23 708.225 520.03C712.275 522.15 719.895 523.465 728.125 523.465C736.35 523.465 743.975 522.15 748.02 520.03C749.55 519.23 750.46 518.335 750.46 517.64C750.465 515.26 741.76 511.805 728.125 511.805Z" fill="#FCAB1E"/>
<path id="Vector_81" d="M728.125 547.71C715.68 547.71 703.08 544.775 703.08 539.165V531.99H705.785C705.785 532.695 706.675 533.565 708.225 534.38C712.275 536.5 719.895 537.815 728.125 537.815C736.35 537.815 743.975 536.5 748.02 534.38C749.57 533.565 750.46 532.695 750.46 531.99H753.17V539.165C753.17 544.775 740.57 547.71 728.125 547.71ZM705.785 536.08V539.165C705.785 541.545 714.49 545 728.125 545C741.76 545 750.465 541.545 750.465 539.165V536.08C750.105 536.32 749.71 536.555 749.28 536.78C744.8 539.125 736.895 540.52 728.125 540.52C719.36 540.52 711.45 539.12 706.97 536.78C706.54 536.55 706.145 536.32 705.785 536.08Z" fill="#FCAB1E"/>
<path id="Vector_82" d="M728.125 554.89C715.68 554.89 703.08 551.955 703.08 546.345V539.17H705.785C705.785 539.875 706.675 540.745 708.225 541.56C712.275 543.68 719.9 544.995 728.125 544.995C736.35 544.995 743.975 543.68 748.02 541.56C749.57 540.75 750.46 539.88 750.46 539.17H753.17V546.345C753.17 551.955 740.57 554.89 728.125 554.89ZM705.785 543.26V546.345C705.785 548.725 714.49 552.18 728.125 552.18C741.76 552.18 750.465 548.725 750.465 546.345V543.26C750.105 543.5 749.71 543.73 749.28 543.96C744.8 546.305 736.895 547.7 728.125 547.7C719.36 547.7 711.45 546.3 706.97 543.96C706.54 543.735 706.145 543.5 705.785 543.26Z" fill="#FCAB1E"/>
<path id="Vector_83" d="M728.125 540.52C719.36 540.52 711.45 539.12 706.97 536.78C704.385 535.425 703.075 533.815 703.075 531.99V524.815H705.78C705.78 525.52 706.67 526.39 708.22 527.205C712.27 529.325 719.89 530.64 728.12 530.64C736.345 530.64 743.97 529.325 748.015 527.205C749.565 526.395 750.455 525.525 750.455 524.815H753.165V531.99C753.165 533.815 751.855 535.425 749.27 536.78C744.8 539.12 736.89 540.52 728.125 540.52ZM705.785 528.905V531.99C705.785 532.695 706.675 533.565 708.225 534.38C712.275 536.5 719.895 537.815 728.125 537.815C736.35 537.815 743.975 536.5 748.02 534.38C749.57 533.565 750.46 532.695 750.46 531.99V528.905C750.1 529.145 749.705 529.38 749.275 529.605C744.795 531.95 736.89 533.345 728.12 533.345C719.355 533.345 711.445 531.945 706.965 529.605C706.54 529.375 706.145 529.145 705.785 528.905Z" fill="#FCAB1E"/>
<path id="Vector_84" d="M728.125 533.345C719.36 533.345 711.45 531.945 706.97 529.605C704.385 528.255 703.075 526.64 703.075 524.815V517.64H705.78C705.78 518.335 706.695 519.23 708.22 520.03C712.27 522.15 719.89 523.465 728.12 523.465C736.345 523.465 743.97 522.15 748.015 520.03C749.545 519.23 750.455 518.335 750.455 517.64H753.165V524.815C753.165 526.64 751.855 528.25 749.27 529.605C744.8 531.945 736.89 533.345 728.125 533.345ZM705.785 521.725V524.815C705.785 525.52 706.675 526.39 708.225 527.205C712.275 529.325 719.895 530.64 728.125 530.64C736.35 530.64 743.975 529.325 748.02 527.205C749.57 526.395 750.46 525.525 750.46 524.815V521.725C750.11 521.96 749.715 522.195 749.275 522.425C744.795 524.77 736.89 526.165 728.12 526.165C719.355 526.165 711.445 524.765 706.965 522.425C706.53 522.195 706.135 521.96 705.785 521.725Z" fill="#FCAB1E"/>
</g>
</g>
<g id="Group_24">
<path id="Vector_85" d="M729.85 516.585C729.835 516.585 729.82 516.58 729.815 516.575C729.62 516.54 729.355 516.48 729.02 516.41C726.955 515.975 725.93 515.62 725.93 515.33C725.93 515.155 726.11 515.02 726.475 514.915C726.83 514.81 727.31 514.76 727.92 514.76C728.75 514.76 729.36 514.835 729.74 514.985C730.13 515.14 730.32 515.375 730.32 515.7V515.825H734.59V515.685C734.59 514.99 734.06 514.47 733 514.125C732.305 513.9 731.375 513.745 730.22 513.67V512.78H726.03V513.67C724.88 513.74 723.94 513.875 723.205 514.075C722.055 514.385 721.48 514.835 721.48 515.425C721.48 515.865 721.815 516.245 722.5 516.555C723.175 516.87 724.79 517.29 727.315 517.82C727.45 517.85 727.62 517.885 727.84 517.93C729.475 518.26 730.285 518.56 730.285 518.82C730.285 519.02 730.09 519.18 729.7 519.295C729.31 519.41 728.78 519.47 728.115 519.47C727.235 519.47 726.62 519.39 726.265 519.225C725.91 519.06 725.73 518.765 725.73 518.335V518.22H721.375C721.375 518.25 721.37 518.295 721.355 518.35C721.35 518.41 721.34 518.45 721.34 518.475C721.34 519.21 721.885 519.745 722.975 520.09C723.715 520.325 724.73 520.475 726.01 520.55V521.425H730.2V520.545C731.39 520.47 732.37 520.335 733.14 520.125C734.325 519.805 734.92 519.345 734.92 518.755C734.91 518.03 733.23 517.305 729.85 516.585Z" fill="white"/>
</g>
</g>
</g>
<g id="m-gp_4">
<path id="Vector_86" d="M685.08 529.35C672.41 529.35 662.125 532.475 662.125 536.315V550.1C662.125 551.375 663.24 552.555 665.195 553.575C669.155 555.65 676.58 557.05 685.085 557.05C693.59 557.05 701.01 555.645 704.97 553.575C706.925 552.55 708.04 551.37 708.04 550.1V536.315C708.04 532.47 697.755 529.35 685.08 529.35Z" fill="#FADD75"/>
<g id="Group_25">
<g id="Group_26">
<path id="Vector_87" d="M685.08 544.58C676.585 544.58 668.925 543.225 664.585 540.955C661.465 539.32 660.81 537.53 660.81 536.315C660.81 530.88 673.02 528.035 685.08 528.035C697.14 528.035 709.35 530.88 709.35 536.315C709.35 537.53 708.695 539.32 705.575 540.955C701.24 543.225 693.575 544.58 685.08 544.58ZM685.08 530.66C671.865 530.66 663.435 534.01 663.435 536.315C663.435 536.99 664.32 537.855 665.8 538.63C669.72 540.68 677.11 541.955 685.08 541.955C693.05 541.955 700.435 540.68 704.36 538.625C705.84 537.85 706.725 536.985 706.725 536.31C706.73 534.01 698.295 530.66 685.08 530.66Z" fill="#FCAB1E"/>
<path id="Vector_88" d="M685.08 558.485C676.585 558.485 668.925 557.13 664.585 554.86C662.08 553.55 660.81 551.99 660.81 550.22V543.265H663.435C663.435 543.95 664.3 544.79 665.8 545.58C669.72 547.63 677.11 548.905 685.08 548.905C693.05 548.905 700.435 547.63 704.36 545.58C705.865 544.795 706.725 543.95 706.725 543.265H709.35V550.22C709.35 551.985 708.08 553.55 705.575 554.86C701.24 557.13 693.575 558.485 685.08 558.485ZM663.435 547.23V550.22C663.435 550.905 664.3 551.745 665.8 552.535C669.72 554.585 677.11 555.86 685.08 555.86C693.05 555.86 700.435 554.585 704.36 552.535C705.865 551.75 706.725 550.905 706.725 550.22V547.23C706.375 547.465 705.995 547.69 705.575 547.905C701.235 550.175 693.575 551.53 685.08 551.53C676.585 551.53 668.925 550.175 664.585 547.905C664.17 547.69 663.785 547.46 663.435 547.23Z" fill="#FCAB1E"/>
<path id="Vector_89" d="M685.08 551.53C676.585 551.53 668.925 550.175 664.585 547.905C662.08 546.595 660.81 545.035 660.81 543.265V536.315H663.435C663.435 536.99 664.32 537.855 665.8 538.63C669.72 540.68 677.11 541.955 685.08 541.955C693.05 541.955 700.435 540.68 704.36 538.625C705.84 537.85 706.725 536.985 706.725 536.31H709.35V543.26C709.35 545.03 708.08 546.59 705.575 547.9C701.24 550.175 693.575 551.53 685.08 551.53ZM663.435 540.275V543.27C663.435 543.955 664.3 544.795 665.8 545.585C669.72 547.635 677.11 548.91 685.08 548.91C693.05 548.91 700.435 547.635 704.36 545.585C705.865 544.8 706.725 543.955 706.725 543.27V540.275C706.385 540.505 706.005 540.73 705.575 540.955C701.235 543.225 693.575 544.58 685.08 544.58C676.585 544.58 668.925 543.225 664.585 540.955C664.16 540.73 663.775 540.505 663.435 540.275Z" fill="#FCAB1E"/>
</g>
</g>
<path id="Vector_90" d="M686.755 535.805C686.74 535.805 686.73 535.8 686.72 535.795C686.53 535.76 686.275 535.705 685.95 535.635C683.95 535.215 682.955 534.865 682.955 534.59C682.955 534.42 683.13 534.29 683.485 534.185C683.83 534.085 684.295 534.03 684.885 534.03C685.69 534.03 686.28 534.105 686.65 534.25C687.03 534.4 687.21 534.63 687.21 534.945V535.07H691.35V534.935C691.35 534.26 690.835 533.76 689.81 533.425C689.135 533.205 688.235 533.06 687.115 532.985V532.12H683.055V532.985C681.94 533.055 681.03 533.185 680.32 533.375C679.205 533.675 678.65 534.115 678.65 534.685C678.65 535.11 678.975 535.48 679.64 535.78C680.295 536.085 681.86 536.495 684.305 537.005C684.435 537.035 684.605 537.07 684.81 537.115C686.39 537.44 687.175 537.725 687.175 537.98C687.175 538.175 686.985 538.325 686.605 538.44C686.225 538.555 685.71 538.61 685.07 538.61C684.22 538.61 683.625 538.53 683.28 538.375C682.935 538.215 682.76 537.93 682.76 537.515V537.405H678.54C678.54 537.435 678.535 537.475 678.52 537.53C678.515 537.585 678.505 537.625 678.505 537.655C678.505 538.365 679.03 538.885 680.085 539.22C680.8 539.445 681.785 539.595 683.025 539.665V540.515H687.085V539.665C688.235 539.595 689.19 539.46 689.93 539.255C691.08 538.945 691.655 538.5 691.655 537.93C691.66 537.2 690.03 536.495 686.755 535.805Z" fill="white"/>
</g>
<g id="m-gp_5">
<path id="Vector_91" d="M768.02 531.09C755.35 531.09 745.065 534.21 745.065 538.055V551.845C745.065 553.12 746.18 554.295 748.135 555.32C752.095 557.395 759.52 558.795 768.025 558.795C776.525 558.795 783.95 557.39 787.91 555.32C789.865 554.295 790.98 553.115 790.98 551.845V538.055C790.975 534.21 780.69 531.09 768.02 531.09Z" fill="#FADD75"/>
<g id="Group_27">
<g id="Group_28">
<path id="Vector_92" d="M768.02 546.32C759.525 546.32 751.865 544.965 747.525 542.695C744.405 541.06 743.75 539.27 743.75 538.055C743.75 532.62 755.96 529.775 768.02 529.775C780.08 529.775 792.29 532.62 792.29 538.055C792.29 539.27 791.635 541.06 788.515 542.695C784.175 544.965 776.51 546.32 768.02 546.32ZM768.02 532.4C754.805 532.4 746.375 535.75 746.375 538.055C746.375 538.73 747.26 539.595 748.74 540.37C752.66 542.42 760.05 543.695 768.02 543.695C775.99 543.695 783.375 542.42 787.3 540.37C788.78 539.595 789.665 538.73 789.665 538.055C789.665 535.75 781.23 532.4 768.02 532.4Z" fill="#FCAB1E"/>
<path id="Vector_93" d="M768.02 560.225C759.525 560.225 751.865 558.87 747.525 556.6C745.02 555.29 743.75 553.73 743.75 551.96V545.01H746.375C746.375 545.695 747.24 546.535 748.74 547.325C752.66 549.375 760.05 550.65 768.02 550.65C775.99 550.65 783.375 549.375 787.3 547.325C788.805 546.54 789.665 545.695 789.665 545.01H792.29V551.96C792.29 553.73 791.02 555.29 788.515 556.6C784.175 558.87 776.51 560.225 768.02 560.225ZM746.37 548.97V551.96C746.37 552.645 747.235 553.485 748.735 554.275C752.655 556.325 760.045 557.6 768.015 557.6C775.985 557.6 783.37 556.325 787.295 554.275C788.8 553.49 789.66 552.645 789.66 551.96V548.97C789.31 549.205 788.93 549.43 788.51 549.645C784.17 551.915 776.51 553.27 768.015 553.27C759.52 553.27 751.86 551.915 747.52 549.645C747.105 549.43 746.72 549.2 746.37 548.97Z" fill="#FCAB1E"/>
<path id="Vector_94" d="M768.02 553.27C759.525 553.27 751.865 551.915 747.525 549.645C745.02 548.335 743.75 546.775 743.75 545.005V538.055H746.375C746.375 538.73 747.26 539.595 748.74 540.37C752.66 542.42 760.05 543.695 768.02 543.695C775.99 543.695 783.375 542.42 787.3 540.37C788.78 539.595 789.665 538.73 789.665 538.055H792.29V545.005C792.29 546.775 791.02 548.335 788.515 549.645C784.175 551.915 776.51 553.27 768.02 553.27ZM746.37 542.015V545.01C746.37 545.695 747.235 546.535 748.735 547.325C752.655 549.375 760.045 550.65 768.015 550.65C775.985 550.65 783.37 549.375 787.295 547.325C788.8 546.54 789.66 545.695 789.66 545.01V542.015C789.32 542.245 788.94 542.47 788.51 542.695C784.17 544.965 776.51 546.32 768.015 546.32C759.52 546.32 751.86 544.965 747.52 542.695C747.095 542.47 746.715 542.245 746.37 542.015Z" fill="#FCAB1E"/>
</g>
</g>
<path id="Vector_95" d="M769.69 537.545C769.675 537.545 769.665 537.54 769.655 537.535C769.465 537.5 769.21 537.445 768.885 537.375C766.885 536.955 765.89 536.605 765.89 536.33C765.89 536.16 766.065 536.03 766.42 535.925C766.765 535.825 767.23 535.77 767.82 535.77C768.625 535.77 769.215 535.845 769.585 535.99C769.965 536.14 770.145 536.37 770.145 536.685V536.81H774.285V536.675C774.285 536 773.77 535.5 772.745 535.165C772.07 534.945 771.17 534.8 770.05 534.725V533.86H765.995V534.725C764.88 534.795 763.97 534.925 763.26 535.115C762.145 535.415 761.59 535.855 761.59 536.425C761.59 536.855 761.915 537.22 762.58 537.52C763.235 537.825 764.795 538.235 767.245 538.745C767.375 538.775 767.545 538.81 767.75 538.855C769.33 539.175 770.115 539.465 770.115 539.715C770.115 539.91 769.925 540.06 769.545 540.175C769.165 540.29 768.65 540.345 768.01 540.345C767.16 540.345 766.565 540.265 766.22 540.11C765.875 539.95 765.7 539.665 765.7 539.25V539.14H761.48C761.48 539.17 761.475 539.21 761.46 539.265C761.455 539.32 761.445 539.36 761.445 539.39C761.445 540.1 761.97 540.62 763.025 540.955C763.74 541.18 764.725 541.33 765.965 541.4V542.25H770.02V541.395C771.175 541.325 772.125 541.19 772.865 540.985C774.015 540.675 774.59 540.23 774.59 539.66C774.595 538.94 772.965 538.235 769.69 537.545Z" fill="white"/>
</g>
</g>
<g id="money-bag">
<path id="Vector_96" d="M561.28 408.75C562.26 407.38 615.435 318.425 615.435 318.425C617.5 311.235 609.755 304.825 600.91 306.24C581.755 309.305 551.055 315.065 539.195 313.26C535.62 312.715 535.05 311.34 529.13 309.87C522.725 308.28 517.645 307.02 512.4 308.42C505.495 310.265 499.96 316.28 499.96 316.28C488.78 326.54 480.2 328.115 474.665 327.86C457.075 327.045 423.715 306.495 405.885 305.575C403.81 305.47 401.25 305.635 398.925 306.835C393.125 309.835 392.605 317.35 393.78 321.59L437.39 408.16C437.555 408.755 437.815 409.315 438.055 409.885C380.05 465.495 301.3 572.09 301.3 634.785C301.3 691.77 336.22 759.385 498.65 759.385C661.08 759.385 696 690.885 696 634.785C696 574.56 618.43 464.47 561.28 408.75Z" fill="url(#paint0_linear)"/>
<g id="Group_29">
<path id="Vector_97" d="M403.19 305.645C402.065 305.76 400.915 306.025 399.78 306.485C400.855 306.295 401.995 306.01 403.19 305.645Z" fill="#D85B05"/>
<path id="Vector_98" d="M561.28 408.75C562.26 407.38 615.435 318.425 615.435 318.425C617.5 311.235 609.755 304.825 600.91 306.24C582.58 309.175 552.025 314.505 540.72 313.375C530.08 341.475 509.775 394.975 508.975 396.085C571.975 457.51 657.485 578.865 657.485 645.255C657.485 679.775 645.455 718.545 603.71 746.075C677.255 723.425 696 675.805 696 634.785C696 574.56 618.43 464.47 561.28 408.75Z" fill="#F46E0D"/>
</g>
<g id="Group_30">
<g id="Group_31">
<g id="Group_32">
<g id="Group_33">
<path id="Vector_99" d="M563.81 411.24C562.965 410.41 562.115 409.565 561.28 408.75C561.44 408.525 562.565 407.115 565.57 401.685L434.25 401.91L437.395 408.155C437.56 408.75 437.82 409.31 438.06 409.88C437.595 410.325 437.12 410.79 436.65 411.24H563.81Z" fill="#FADD75"/>
</g>
<g id="Group_34">
<path id="Vector_100" d="M581.905 429.52C578.77 426.265 575.655 423.065 572.585 419.965H427.675C424.515 423.07 421.315 426.265 418.085 429.52H581.905Z" fill="#FADD75"/>
</g>
</g>
</g>
<path id="Vector_101" d="M437.535 408.515C437.695 408.975 437.87 409.43 438.06 409.88C437.595 410.325 437.12 410.79 436.65 411.24H563.805C562.96 410.41 562.11 409.565 561.275 408.75C561.29 408.73 561.355 408.58 561.385 408.515H437.535Z" fill="#FCAB1E"/>
<path id="Vector_102" d="M579.245 426.8H420.825C419.91 427.715 419.01 428.595 418.09 429.525H581.905C581.01 428.595 580.135 427.715 579.245 426.8Z" fill="#FCAB1E"/>
</g>
<path id="Vector_103" d="M510.895 578.105C510.795 578.055 510.695 577.955 510.65 577.855C509.265 577.015 507.385 575.775 505.01 574.145C490.365 564.5 483.095 556.485 483.095 550.05C483.095 546.19 484.38 543.125 486.955 540.75C489.48 538.425 492.895 537.235 497.195 537.235C503.08 537.235 507.385 538.915 510.11 542.28C512.88 545.695 514.215 550.985 514.215 558.26V561.08H544.495V558.015C544.495 542.53 540.735 530.95 533.215 523.285C528.275 518.215 521.68 514.845 513.5 513.105V493.25H483.815V513.1C475.655 514.705 468.985 517.695 463.8 522.09C455.635 529.015 451.58 539.06 451.58 552.22C451.58 562.065 453.955 570.475 458.805 577.455C463.605 584.48 475.035 593.88 492.945 605.655C493.885 606.3 495.12 607.09 496.655 608.13C508.23 615.55 513.97 622.18 513.97 627.97C513.97 632.42 512.585 635.935 509.815 638.56C507.045 641.18 503.285 642.47 498.585 642.47C492.35 642.47 487.995 640.64 485.475 637.03C482.95 633.37 481.665 626.79 481.665 617.24V614.665H450.79C450.79 615.355 450.74 616.3 450.64 617.585C450.59 618.87 450.54 619.81 450.54 620.405C450.54 636.73 454.4 648.755 462.115 656.425C467.345 661.62 474.55 665.005 483.635 666.685V686.21H513.32V666.595C521.755 664.965 528.71 661.86 534.15 657.22C542.56 650.045 546.765 639.855 546.765 626.695C546.765 610.21 534.84 594.035 510.895 578.105Z" fill="white"/>
</g>
<g id="m-1">
<g id="Group_35">
<g id="Group_36">
<path id="Vector_104" d="M274.585 628.34C254.87 628.34 238.865 633.2 238.865 639.18V747.41C238.865 753.39 254.87 758.25 274.585 758.25C294.305 758.25 310.305 753.39 310.305 747.41V639.18C310.305 633.195 294.305 628.34 274.585 628.34Z" fill="#FADD75"/>
<g id="Group_37">
<g id="m-gp_6">
<path id="Vector_105" d="M274.585 684.12C255.82 684.12 236.825 679.695 236.825 671.24V660.42H240.91C240.91 661.485 242.25 662.795 244.59 664.02C250.695 667.215 262.185 669.2 274.585 669.2C286.985 669.2 298.48 667.215 304.585 664.02C306.925 662.795 308.265 661.485 308.265 660.42H312.35V671.24C312.345 679.7 293.35 684.12 274.585 684.12ZM240.91 666.59V671.245C240.91 674.83 254.03 680.04 274.59 680.04C295.15 680.04 308.27 674.83 308.27 671.245V666.59C307.73 666.95 307.13 667.3 306.48 667.645C299.725 671.18 287.805 673.285 274.59 673.285C261.375 673.285 249.455 671.175 242.7 667.645C242.045 667.3 241.45 666.95 240.91 666.59Z" fill="#FCAB1E"/>
<path id="Vector_106" d="M274.585 694.95C255.82 694.95 236.825 690.525 236.825 682.07V671.25H240.91C240.91 672.315 242.25 673.625 244.59 674.85C250.69 678.04 262.185 680.025 274.585 680.025C286.985 680.025 298.48 678.04 304.585 674.85C306.925 673.625 308.265 672.315 308.265 671.25H312.35V682.07C312.345 690.525 293.35 694.95 274.585 694.95ZM240.91 677.42V682.075C240.91 685.66 254.03 690.875 274.59 690.875C295.15 690.875 308.27 685.665 308.27 682.075V677.425C307.73 677.785 307.13 678.135 306.48 678.475C299.725 682.01 287.805 684.115 274.59 684.115C261.375 684.115 249.455 682.005 242.7 678.475C242.045 678.13 241.45 677.78 240.91 677.42Z" fill="#FCAB1E"/>
<path id="Vector_107" d="M274.585 673.285C261.37 673.285 249.45 671.175 242.695 667.645C238.8 665.605 236.82 663.18 236.82 660.425V649.605H240.905C240.905 650.67 242.245 651.98 244.585 653.205C250.685 656.395 262.18 658.38 274.58 658.38C286.98 658.38 298.475 656.395 304.58 653.205C306.92 651.98 308.26 650.67 308.26 649.605H312.345V660.425C312.345 663.175 310.37 665.605 306.475 667.645C299.725 671.175 287.8 673.285 274.585 673.285ZM240.91 655.77V660.425C240.91 661.49 242.25 662.8 244.59 664.025C250.695 667.22 262.185 669.205 274.585 669.205C286.985 669.205 298.48 667.22 304.585 664.025C306.925 662.8 308.265 661.49 308.265 660.425V655.775C307.725 656.135 307.125 656.485 306.475 656.825C299.72 660.36 287.8 662.465 274.585 662.465C261.37 662.465 249.45 660.355 242.695 656.825C242.045 656.485 241.45 656.135 240.91 655.77Z" fill="#FCAB1E"/>
<path id="Vector_108" d="M274.585 716.595C255.82 716.595 236.825 712.17 236.825 703.715V692.895H240.91C240.91 693.96 242.25 695.27 244.59 696.495C250.69 699.69 262.185 701.67 274.585 701.67C286.985 701.67 298.48 699.685 304.585 696.495C306.925 695.27 308.265 693.96 308.265 692.895H312.35V703.715C312.345 712.175 293.35 716.595 274.585 716.595ZM240.91 699.065V703.72C240.91 707.305 254.03 712.52 274.59 712.52C295.15 712.52 308.27 707.31 308.27 703.72V699.07C307.73 699.43 307.13 699.785 306.48 700.125C299.725 703.655 287.805 705.765 274.59 705.765C261.375 705.765 249.455 703.655 242.7 700.125C242.045 699.775 241.45 699.425 240.91 699.065Z" fill="#FCAB1E"/>
<path id="Vector_109" d="M274.585 727.425C255.82 727.425 236.825 723 236.825 714.545V703.725H240.91C240.91 704.79 242.25 706.1 244.59 707.325C250.69 710.515 262.185 712.5 274.585 712.5C286.985 712.5 298.48 710.515 304.585 707.325C306.925 706.1 308.265 704.785 308.265 703.725H312.35V714.545C312.345 723 293.35 727.425 274.585 727.425ZM240.91 709.89V714.545C240.91 718.13 254.03 723.345 274.59 723.345C295.15 723.345 308.27 718.135 308.27 714.545V709.895C307.73 710.255 307.13 710.605 306.48 710.945C299.725 714.48 287.805 716.585 274.59 716.585C261.375 716.585 249.455 714.475 242.7 710.945C242.045 710.605 241.45 710.255 240.91 709.89Z" fill="#FCAB1E"/>
<path id="Vector_110" d="M274.585 705.76C261.37 705.76 249.45 703.65 242.695 700.12C238.8 698.08 236.82 695.655 236.82 692.9V682.08H240.905C240.905 683.145 242.245 684.455 244.585 685.68C250.69 688.87 262.185 690.855 274.58 690.855C286.98 690.855 298.475 688.87 304.58 685.68C306.92 684.455 308.26 683.14 308.26 682.08H312.345V692.9C312.345 695.65 310.37 698.08 306.475 700.12C299.725 703.65 287.8 705.76 274.585 705.76ZM240.91 688.245V692.9C240.91 693.965 242.25 695.275 244.59 696.5C250.69 699.695 262.185 701.675 274.585 701.675C286.985 701.675 298.48 699.69 304.585 696.5C306.925 695.275 308.265 693.965 308.265 692.9V688.25C307.725 688.61 307.125 688.96 306.475 689.3C299.72 692.835 287.8 694.94 274.585 694.94C261.37 694.94 249.45 692.83 242.695 689.3C242.045 688.96 241.45 688.61 240.91 688.245Z" fill="#FCAB1E"/>
<path id="Vector_111" d="M274.585 749.07C255.82 749.07 236.825 744.645 236.825 736.19V725.375H240.91C240.91 726.435 242.25 727.75 244.59 728.975C250.69 732.165 262.185 734.15 274.585 734.15C286.985 734.15 298.48 732.165 304.585 728.975C306.925 727.75 308.265 726.44 308.265 725.375H312.35V736.19C312.345 744.645 293.35 749.07 274.585 749.07ZM240.91 731.54V736.195C240.91 739.78 254.03 744.995 274.59 744.995C295.15 744.995 308.27 739.785 308.27 736.195V731.545C307.73 731.905 307.13 732.255 306.48 732.595C299.725 736.13 287.805 738.235 274.59 738.235C261.375 738.235 249.455 736.125 242.7 732.595C242.045 732.25 241.45 731.9 240.91 731.54Z" fill="#FCAB1E"/>
<path id="Vector_112" d="M274.585 759.9C255.82 759.9 236.825 755.475 236.825 747.02V736.2H240.91C240.91 737.265 242.25 738.575 244.59 739.8C250.695 742.995 262.185 744.975 274.585 744.975C286.985 744.975 298.48 742.99 304.585 739.8C306.925 738.575 308.265 737.265 308.265 736.2H312.35V747.02C312.345 755.475 293.35 759.9 274.585 759.9ZM240.91 742.365V747.02C240.91 750.605 254.03 755.815 274.59 755.815C295.15 755.815 308.27 750.605 308.27 747.02V742.365C307.73 742.725 307.13 743.075 306.48 743.415C299.725 746.95 287.805 749.055 274.59 749.055C261.375 749.055 249.455 746.945 242.7 743.415C242.045 743.08 241.45 742.725 240.91 742.365Z" fill="#FCAB1E"/>
<path id="Vector_113" d="M274.585 738.235C261.37 738.235 249.45 736.125 242.695 732.595C238.8 730.555 236.82 728.125 236.82 725.38V714.56H240.905C240.905 715.625 242.245 716.935 244.585 718.16C250.69 721.355 262.18 723.335 274.58 723.335C286.98 723.335 298.475 721.35 304.58 718.16C306.92 716.935 308.26 715.625 308.26 714.56H312.345V725.38C312.345 728.13 310.37 730.555 306.475 732.595C299.725 736.125 287.8 738.235 274.585 738.235ZM240.91 720.72V725.375C240.91 726.435 242.25 727.75 244.59 728.975C250.69 732.165 262.185 734.15 274.585 734.15C286.985 734.15 298.48 732.165 304.585 728.975C306.925 727.75 308.265 726.44 308.265 725.375V720.72C307.725 721.08 307.125 721.43 306.475 721.775C299.72 725.31 287.8 727.415 274.585 727.415C261.37 727.415 249.45 725.305 242.695 721.775C242.045 721.435 241.45 721.08 240.91 720.72Z" fill="#FCAB1E"/>
<path id="Vector_114" d="M274.585 662.465C261.37 662.465 249.45 660.355 242.695 656.825C238.8 654.785 236.82 652.355 236.82 649.605V638.785H240.905C240.905 639.83 242.28 641.18 244.585 642.385C250.69 645.575 262.185 647.56 274.58 647.56C286.98 647.56 298.475 645.575 304.58 642.385C306.885 641.18 308.26 639.835 308.26 638.785H312.345V649.605C312.345 652.355 310.37 654.785 306.475 656.82C299.725 660.355 287.8 662.465 274.585 662.465ZM240.91 644.95V649.61C240.91 650.675 242.25 651.985 244.59 653.21C250.69 656.4 262.185 658.385 274.585 658.385C286.985 658.385 298.48 656.4 304.585 653.21C306.925 651.985 308.265 650.675 308.265 649.61V644.955C307.735 645.31 307.145 645.665 306.475 646.01C299.72 649.545 287.8 651.65 274.585 651.65C261.37 651.65 249.45 649.54 242.695 646.01C242.03 645.66 241.435 645.305 240.91 644.95Z" fill="#FCAB1E"/>
<path id="Vector_115" d="M274.585 651.65C261.37 651.65 249.45 649.54 242.695 646.01C237.84 643.47 236.82 640.685 236.82 638.79C236.82 630.335 255.815 625.91 274.58 625.91C293.345 625.91 312.34 630.335 312.34 638.79C312.34 640.68 311.32 643.465 306.47 646.005C299.72 649.54 287.8 651.65 274.585 651.65ZM274.585 629.99C254.025 629.99 240.905 635.2 240.905 638.79C240.905 639.835 242.28 641.185 244.585 642.39C250.69 645.58 262.185 647.565 274.58 647.565C286.98 647.565 298.475 645.58 304.58 642.39C306.885 641.185 308.26 639.84 308.26 638.79C308.265 635.2 295.145 629.99 274.585 629.99Z" fill="#FCAB1E"/>
</g>
</g>
</g>
<g id="Group_38">
<g id="Group_39">
<path id="Vector_116" d="M274.585 639.24C292.018 639.24 306.15 625.108 306.15 607.675C306.15 590.242 292.018 576.11 274.585 576.11C257.152 576.11 243.02 590.242 243.02 607.675C243.02 625.108 257.152 639.24 274.585 639.24Z" fill="#FADD75"/>
<path id="Vector_117" d="M274.585 641.285C256.055 641.285 240.98 626.21 240.98 607.68C240.98 589.15 256.055 574.075 274.585 574.075C293.115 574.075 308.19 589.15 308.19 607.68C308.19 626.21 293.115 641.285 274.585 641.285ZM274.585 578.155C258.305 578.155 245.06 591.4 245.06 607.68C245.06 623.96 258.305 637.205 274.585 637.205C290.865 637.205 304.11 623.96 304.11 607.68C304.11 591.395 290.865 578.155 274.585 578.155Z" fill="#FCAB1E"/>
<path id="Vector_118" d="M277.19 605.655C277.17 605.645 277.15 605.63 277.14 605.61C276.845 605.465 276.445 605.25 275.94 604.965C272.825 603.29 271.28 601.895 271.28 600.78C271.28 600.11 271.555 599.575 272.1 599.165C272.635 598.76 273.365 598.555 274.28 598.555C275.535 598.555 276.45 598.845 277.025 599.43C277.615 600.025 277.9 600.94 277.9 602.205V602.695H284.34V602.16C284.34 599.47 283.54 597.46 281.94 596.13C280.89 595.25 279.485 594.665 277.745 594.36V590.91H271.43V594.36C269.695 594.64 268.275 595.16 267.175 595.92C265.44 597.125 264.575 598.87 264.575 601.155C264.575 602.865 265.08 604.325 266.11 605.54C267.13 606.76 269.56 608.395 273.37 610.44C273.57 610.55 273.835 610.69 274.16 610.87C276.62 612.16 277.845 613.31 277.845 614.315C277.845 615.09 277.55 615.7 276.96 616.155C276.37 616.61 275.57 616.835 274.57 616.835C273.245 616.835 272.32 616.515 271.78 615.89C271.245 615.255 270.97 614.11 270.97 612.45V612.005H264.405C264.405 612.125 264.395 612.29 264.375 612.51C264.365 612.735 264.355 612.895 264.355 613C264.355 615.835 265.175 617.925 266.815 619.255C267.925 620.155 269.46 620.745 271.39 621.035V624.425H277.705V621.02C279.5 620.735 280.975 620.195 282.135 619.39C283.925 618.145 284.82 616.375 284.82 614.085C284.82 611.235 282.285 608.425 277.19 605.655Z" fill="white"/>
</g>
</g>
</g>
<g id="Group_40">
<path id="Vector_119" d="M352.145 670.715C332.425 670.715 316.425 675.575 316.425 681.555V735.665C316.425 737.645 318.16 739.48 321.2 741.075C327.365 744.3 338.915 746.485 352.145 746.485C365.375 746.485 376.925 744.3 383.09 741.075C386.13 739.485 387.865 737.645 387.865 735.665V681.555C387.865 675.575 371.865 670.715 352.145 670.715Z" fill="#FADD75"/>
<g id="Group_41">
<g id="m-gp_7">
<path id="Vector_120" d="M352.145 694.415C338.93 694.415 327.005 692.305 320.255 688.775C315.4 686.235 314.385 683.45 314.385 681.56C314.385 673.105 333.38 668.68 352.145 668.68C370.91 668.68 389.905 673.105 389.905 681.56C389.905 683.45 388.885 686.235 384.035 688.775C377.285 692.305 365.365 694.415 352.145 694.415ZM352.145 672.76C331.585 672.76 318.465 677.97 318.465 681.56C318.465 682.605 319.84 683.955 322.145 685.16C328.245 688.35 339.74 690.335 352.14 690.335C364.54 690.335 376.035 688.35 382.135 685.16C384.44 683.95 385.815 682.605 385.815 681.56C385.825 677.97 372.705 672.76 352.145 672.76Z" fill="#FCAB1E"/>
<path id="Vector_121" d="M352.145 726.89C333.38 726.89 314.385 722.465 314.385 714.01V703.19H318.47C318.47 704.255 319.81 705.565 322.15 706.79C328.25 709.98 339.745 711.965 352.145 711.965C364.545 711.965 376.04 709.98 382.14 706.79C384.48 705.565 385.82 704.25 385.82 703.19H389.905V714.01C389.91 722.465 370.91 726.89 352.145 726.89ZM318.47 709.355V714.01C318.47 717.595 331.59 722.805 352.15 722.805C372.71 722.805 385.83 717.595 385.83 714.01V709.355C385.285 709.715 384.69 710.07 384.04 710.41C377.29 713.945 365.365 716.05 352.15 716.05C338.935 716.05 327.01 713.94 320.26 710.41C319.605 710.07 319.01 709.715 318.47 709.355Z" fill="#FCAB1E"/>
<path id="Vector_122" d="M352.145 737.715C333.38 737.715 314.385 733.29 314.385 724.835V714.015H318.47C318.47 715.08 319.81 716.39 322.15 717.615C328.255 720.81 339.745 722.795 352.145 722.795C364.545 722.795 376.04 720.81 382.14 717.615C384.48 716.39 385.82 715.08 385.82 714.015H389.905V724.835C389.91 733.29 370.91 737.715 352.145 737.715ZM318.47 720.185V724.84C318.47 728.425 331.59 733.635 352.15 733.635C372.71 733.635 385.83 728.425 385.83 724.84V720.185C385.285 720.545 384.69 720.895 384.04 721.24C377.285 724.775 365.365 726.88 352.15 726.88C338.935 726.88 327.015 724.77 320.26 721.24C319.605 720.895 319.01 720.545 318.47 720.185Z" fill="#FCAB1E"/>
<path id="Vector_123" d="M352.145 716.05C338.93 716.05 327.005 713.94 320.255 710.41C316.36 708.37 314.385 705.94 314.385 703.19V692.37H318.47C318.47 693.435 319.81 694.745 322.15 695.97C328.25 699.165 339.745 701.145 352.145 701.145C364.545 701.145 376.04 699.16 382.14 695.97C384.48 694.745 385.82 693.435 385.82 692.37H389.905V703.19C389.905 705.94 387.93 708.37 384.035 710.405C377.285 713.94 365.365 716.05 352.145 716.05ZM318.47 698.54V703.19C318.47 704.255 319.81 705.565 322.15 706.79C328.25 709.98 339.745 711.965 352.145 711.965C364.545 711.965 376.04 709.98 382.14 706.79C384.48 705.565 385.82 704.25 385.82 703.19V698.535C385.275 698.895 384.68 699.245 384.03 699.59C377.28 703.12 365.355 705.23 352.14 705.23C338.925 705.23 327 703.12 320.25 699.59C319.605 699.25 319.01 698.9 318.47 698.54Z" fill="#FCAB1E"/>
<path id="Vector_124" d="M352.145 748.525C338.93 748.525 327.01 746.415 320.255 742.885C316.36 740.845 314.385 738.42 314.385 735.665V724.85H318.47C318.47 725.915 319.81 727.225 322.15 728.45C328.25 731.645 339.745 733.625 352.145 733.625C364.545 733.625 376.04 731.64 382.14 728.45C384.48 727.225 385.82 725.915 385.82 724.85H389.905V735.665C389.905 738.415 387.93 740.845 384.035 742.885C377.285 746.415 365.36 748.525 352.145 748.525ZM318.47 731.01V735.66C318.47 736.725 319.81 738.035 322.15 739.26C328.255 742.455 339.745 744.44 352.145 744.44C364.545 744.44 376.04 742.455 382.14 739.26C384.48 738.035 385.82 736.725 385.82 735.66V731.005C385.275 731.365 384.68 731.715 384.03 732.06C377.28 735.59 365.355 737.7 352.14 737.7C338.925 737.7 327 735.59 320.25 732.06C319.605 731.725 319.01 731.375 318.47 731.01Z" fill="#FCAB1E"/>
<path id="Vector_125" d="M352.145 705.23C338.93 705.23 327.005 703.12 320.255 699.59C316.36 697.55 314.385 695.125 314.385 692.37V681.555H318.47C318.47 682.6 319.845 683.95 322.15 685.155C328.25 688.345 339.745 690.33 352.145 690.33C364.545 690.33 376.04 688.345 382.14 685.155C384.445 683.945 385.82 682.6 385.82 681.555H389.905V692.37C389.905 695.12 387.93 697.55 384.035 699.59C377.285 703.12 365.365 705.23 352.145 705.23ZM318.47 687.715V692.37C318.47 693.435 319.81 694.745 322.15 695.97C328.25 699.165 339.745 701.145 352.145 701.145C364.545 701.145 376.04 699.16 382.14 695.97C384.48 694.745 385.82 693.435 385.82 692.37V687.71C385.29 688.065 384.695 688.42 384.03 688.765C377.28 692.3 365.355 694.405 352.14 694.405C338.925 694.405 327 692.295 320.25 688.765C319.59 688.425 318.995 688.07 318.47 687.715Z" fill="#FCAB1E"/>
</g>
</g>
<path id="Vector_126" d="M354.75 680.76C354.73 680.755 354.705 680.75 354.695 680.745C354.4 680.69 354 680.605 353.495 680.495C350.38 679.845 348.835 679.3 348.835 678.865C348.835 678.605 349.11 678.395 349.655 678.235C350.19 678.08 350.92 678 351.835 678C353.085 678 354.005 678.115 354.58 678.34C355.17 678.57 355.455 678.93 355.455 679.42V679.61H361.895V679.405C361.895 678.36 361.095 677.575 359.495 677.055C358.445 676.71 357.045 676.485 355.3 676.365V675.025H348.985V676.365C347.25 676.475 345.83 676.675 344.73 676.975C342.995 677.445 342.13 678.12 342.13 679.015C342.13 679.68 342.635 680.25 343.665 680.72C344.685 681.195 347.115 681.83 350.925 682.625C351.125 682.67 351.39 682.72 351.715 682.79C354.18 683.29 355.4 683.74 355.4 684.13C355.4 684.43 355.105 684.67 354.515 684.845C353.925 685.02 353.125 685.11 352.125 685.11C350.8 685.11 349.875 684.985 349.335 684.74C348.8 684.49 348.525 684.05 348.525 683.4V683.225H341.96C341.96 683.27 341.95 683.335 341.93 683.425C341.92 683.51 341.91 683.575 341.91 683.615C341.91 684.72 342.73 685.53 344.37 686.05C345.48 686.4 347.015 686.63 348.945 686.745V688.065H355.26V686.74C357.055 686.63 358.535 686.42 359.69 686.105C361.48 685.62 362.375 684.93 362.375 684.04C362.38 682.93 359.845 681.835 354.75 680.76Z" fill="white"/>
</g>
<g id="Group_42">
<path id="Vector_127" d="M401.845 724.12C382.125 724.12 366.125 728.975 366.125 734.96V756.41C366.125 758.39 367.86 760.225 370.9 761.82C377.065 765.045 388.615 767.23 401.845 767.23C415.07 767.23 426.625 765.045 432.79 761.82C435.83 760.23 437.565 758.39 437.565 756.41V734.96C437.565 728.98 421.56 724.12 401.845 724.12Z" fill="#FADD75"/>
<g id="Group_43">
<g id="m-gp_8">
<path id="Vector_128" d="M401.845 747.82C388.63 747.82 376.705 745.71 369.955 742.18C365.1 739.64 364.085 736.855 364.085 734.96C364.085 726.505 383.08 722.08 401.845 722.08C420.61 722.08 439.605 726.505 439.605 734.96C439.605 736.85 438.585 739.635 433.735 742.175C426.985 745.71 415.06 747.82 401.845 747.82ZM401.845 726.16C381.285 726.16 368.165 731.37 368.165 734.96C368.165 736.01 369.54 737.355 371.845 738.56C377.945 741.75 389.44 743.735 401.84 743.735C414.24 743.735 425.735 741.75 431.835 738.56C434.14 737.355 435.515 736.01 435.515 734.96C435.525 731.37 422.405 726.16 401.845 726.16Z" fill="#FCAB1E"/>
<path id="Vector_129" d="M401.845 769.455C388.63 769.455 376.705 767.345 369.955 763.815C366.06 761.775 364.085 759.345 364.085 756.595V745.78H368.165C368.165 746.845 369.505 748.155 371.845 749.38C377.945 752.575 389.44 754.555 401.84 754.555C414.24 754.555 425.735 752.57 431.835 749.38C434.175 748.155 435.515 746.845 435.515 745.78H439.595V756.595C439.595 759.345 437.62 761.775 433.725 763.815C426.985 767.345 415.06 769.455 401.845 769.455ZM368.165 751.94V756.59C368.165 757.655 369.505 758.965 371.845 760.19C377.945 763.38 389.44 765.365 401.84 765.365C414.24 765.365 425.735 763.38 431.835 760.19C434.175 758.965 435.515 757.655 435.515 756.59V751.935C434.97 752.295 434.375 752.645 433.725 752.99C426.975 756.525 415.05 758.63 401.835 758.63C388.62 758.63 376.695 756.52 369.945 752.99C369.305 752.655 368.71 752.305 368.165 751.94Z" fill="#FCAB1E"/>
<path id="Vector_130" d="M401.845 758.635C388.63 758.635 376.705 756.525 369.955 752.995C366.06 750.955 364.085 748.53 364.085 745.78V734.96H368.165C368.165 736.01 369.54 737.355 371.845 738.56C377.945 741.75 389.44 743.735 401.84 743.735C414.24 743.735 425.735 741.75 431.835 738.56C434.14 737.355 435.515 736.01 435.515 734.96H439.595V745.78C439.595 748.53 437.62 750.96 433.725 752.995C426.985 756.525 415.06 758.635 401.845 758.635ZM368.165 741.12V745.78C368.165 746.845 369.505 748.155 371.845 749.38C377.945 752.575 389.44 754.555 401.84 754.555C414.24 754.555 425.735 752.57 431.835 749.38C434.175 748.155 435.515 746.845 435.515 745.78V741.12C434.985 741.475 434.39 741.83 433.725 742.175C426.975 745.71 415.05 747.815 401.835 747.815C388.62 747.815 376.695 745.705 369.945 742.175C369.29 741.83 368.695 741.475 368.165 741.12Z" fill="#FCAB1E"/>
</g>
</g>
<path id="Vector_131" d="M404.45 734.16C404.43 734.155 404.41 734.15 404.4 734.145C404.105 734.09 403.705 734.005 403.2 733.895C400.085 733.245 398.54 732.7 398.54 732.265C398.54 732.005 398.815 731.795 399.36 731.635C399.895 731.48 400.625 731.4 401.54 731.4C402.795 731.4 403.71 731.515 404.285 731.74C404.875 731.97 405.16 732.33 405.16 732.82V733.01H411.6V732.805C411.6 731.755 410.8 730.975 409.2 730.455C408.15 730.11 406.745 729.885 405.005 729.765V728.42H398.69V729.765C396.955 729.875 395.535 730.075 394.435 730.375C392.7 730.845 391.835 731.52 391.835 732.415C391.835 733.08 392.34 733.65 393.37 734.12C394.39 734.595 396.82 735.23 400.63 736.025C400.83 736.07 401.095 736.12 401.42 736.19C403.88 736.695 405.105 737.14 405.105 737.53C405.105 737.83 404.81 738.07 404.22 738.245C403.63 738.42 402.83 738.51 401.83 738.51C400.505 738.51 399.58 738.385 399.04 738.14C398.505 737.89 398.23 737.445 398.23 736.8V736.625H391.665C391.665 736.67 391.655 736.735 391.635 736.82C391.625 736.905 391.615 736.97 391.615 737.01C391.615 738.115 392.435 738.925 394.08 739.445C395.19 739.795 396.725 740.025 398.655 740.14V741.46H404.97V740.135C406.765 740.025 408.24 739.815 409.4 739.5C411.19 739.015 412.085 738.325 412.085 737.435C412.08 736.335 409.54 735.24 404.45 734.16Z" fill="white"/>
</g>
<g id="Group_44">
<g id="Group_45">
<path id="Vector_132" d="M312.345 704.515C292.625 704.515 276.625 709.375 276.625 715.355V758.57C276.625 760.55 278.36 762.385 281.4 763.98C287.565 767.205 299.115 769.39 312.345 769.39C325.57 769.39 337.125 767.205 343.29 763.98C346.33 762.39 348.065 760.55 348.065 758.57V715.355C348.065 709.375 332.065 704.515 312.345 704.515Z" fill="#FADD75"/>
<g id="Group_46">
<g id="m-gp_9">
<path id="Vector_133" d="M312.345 728.215C299.13 728.215 287.205 726.105 280.455 722.575C275.6 720.035 274.585 717.25 274.585 715.355C274.585 706.9 293.58 702.475 312.345 702.475C331.11 702.475 350.105 706.9 350.105 715.355C350.105 717.245 349.085 720.03 344.235 722.57C337.485 726.105 325.565 728.215 312.345 728.215ZM312.345 706.555C291.785 706.555 278.665 711.765 278.665 715.35C278.665 716.4 280.04 717.745 282.345 718.95C288.445 722.14 299.94 724.125 312.34 724.125C324.74 724.125 336.235 722.14 342.335 718.95C344.64 717.745 346.015 716.4 346.015 715.35C346.025 711.77 332.905 706.555 312.345 706.555Z" fill="#FCAB1E"/>
<path id="Vector_134" d="M312.345 760.69C293.58 760.69 274.585 756.265 274.585 747.81V736.99H278.665C278.665 738.055 280.005 739.365 282.345 740.59C288.445 743.78 299.94 745.765 312.34 745.765C324.74 745.765 336.235 743.78 342.335 740.59C344.675 739.365 346.015 738.05 346.015 736.99H350.095V747.81C350.11 756.265 331.11 760.69 312.345 760.69ZM278.67 743.155V747.81C278.67 751.395 291.79 756.61 312.35 756.61C332.91 756.61 346.03 751.4 346.03 747.81V743.155C345.485 743.515 344.89 743.87 344.24 744.205C337.49 747.74 325.565 749.845 312.35 749.845C299.135 749.845 287.21 747.735 280.46 744.205C279.81 743.87 279.21 743.515 278.67 743.155Z" fill="#FCAB1E"/>
<path id="Vector_135" d="M312.345 771.515C293.58 771.515 274.585 767.09 274.585 758.635V747.815H278.665C278.665 748.88 280.005 750.19 282.345 751.415C288.45 754.61 299.945 756.59 312.34 756.59C324.74 756.59 336.235 754.605 342.335 751.415C344.675 750.19 346.015 748.88 346.015 747.815H350.095V758.635C350.11 767.09 331.11 771.515 312.345 771.515ZM278.67 753.985V758.64C278.67 762.225 291.79 767.435 312.35 767.435C332.91 767.435 346.03 762.225 346.03 758.64V753.985C345.485 754.345 344.89 754.7 344.24 755.04C337.485 758.575 325.565 760.68 312.35 760.68C299.135 760.68 287.21 758.57 280.46 755.04C279.81 754.695 279.21 754.345 278.67 753.985Z" fill="#FCAB1E"/>
<path id="Vector_136" d="M312.345 749.85C299.13 749.85 287.205 747.74 280.455 744.21C276.56 742.17 274.585 739.74 274.585 736.99V726.175H278.665C278.665 727.24 280.005 728.55 282.345 729.775C288.445 732.97 299.94 734.95 312.34 734.95C324.74 734.95 336.235 732.965 342.335 729.775C344.675 728.55 346.015 727.24 346.015 726.175H350.095V736.99C350.095 739.74 348.12 742.17 344.225 744.21C337.485 747.74 325.565 749.85 312.345 749.85ZM278.67 732.34V736.99C278.67 738.055 280.01 739.365 282.35 740.59C288.45 743.78 299.945 745.765 312.345 745.765C324.745 745.765 336.24 743.78 342.34 740.59C344.68 739.365 346.02 738.05 346.02 736.99V732.335C345.475 732.695 344.88 733.05 344.23 733.39C337.48 736.925 325.555 739.03 312.34 739.03C299.125 739.03 287.2 736.92 280.45 733.39C279.81 733.05 279.21 732.7 278.67 732.34Z" fill="#FCAB1E"/>
<path id="Vector_137" d="M312.345 739.03C299.13 739.03 287.205 736.92 280.455 733.39C276.56 731.35 274.585 728.925 274.585 726.175V715.355H278.665C278.665 716.405 280.04 717.75 282.345 718.955C288.445 722.145 299.94 724.13 312.34 724.13C324.74 724.13 336.235 722.145 342.335 718.955C344.64 717.75 346.015 716.405 346.015 715.355H350.095V726.175C350.095 728.925 348.12 731.355 344.225 733.39C337.485 736.92 325.565 739.03 312.345 739.03ZM278.67 721.515V726.17C278.67 727.235 280.01 728.545 282.35 729.77C288.45 732.965 299.945 734.945 312.345 734.945C324.745 734.945 336.24 732.96 342.34 729.77C344.68 728.545 346.02 727.235 346.02 726.17V721.51C345.49 721.865 344.895 722.22 344.23 722.57C337.48 726.105 325.555 728.21 312.34 728.21C299.125 728.21 287.2 726.1 280.45 722.57C279.79 722.225 279.2 721.87 278.67 721.515Z" fill="#FCAB1E"/>
</g>
</g>
<g id="Group_47">
<path id="Vector_138" d="M314.95 713.77C314.93 713.765 314.91 713.76 314.9 713.755C314.605 713.7 314.205 713.615 313.7 713.505C310.585 712.855 309.04 712.31 309.04 711.875C309.04 711.615 309.315 711.405 309.86 711.245C310.395 711.09 311.125 711.01 312.04 711.01C313.295 711.01 314.21 711.125 314.785 711.35C315.375 711.58 315.66 711.94 315.66 712.43V712.62H322.1V712.415C322.1 711.37 321.3 710.585 319.7 710.065C318.65 709.72 317.245 709.495 315.505 709.375V708.035H309.19V709.375C307.455 709.485 306.035 709.685 304.935 709.985C303.2 710.455 302.335 711.135 302.335 712.025C302.335 712.69 302.84 713.26 303.87 713.73C304.89 714.205 307.32 714.84 311.13 715.635C311.33 715.68 311.595 715.73 311.92 715.805C314.38 716.305 315.605 716.755 315.605 717.145C315.605 717.445 315.31 717.685 314.72 717.86C314.13 718.035 313.33 718.125 312.33 718.125C311.005 718.125 310.08 718 309.54 717.755C309.005 717.505 308.73 717.065 308.73 716.415V716.24H302.165C302.165 716.285 302.155 716.35 302.135 716.435C302.125 716.52 302.115 716.585 302.115 716.625C302.115 717.73 302.935 718.54 304.58 719.06C305.69 719.41 307.225 719.64 309.155 719.755V721.075H315.47V719.75C317.265 719.64 318.74 719.43 319.9 719.115C321.69 718.63 322.585 717.94 322.585 717.05C322.58 715.94 320.045 714.845 314.95 713.77Z" fill="white"/>
</g>
</g>
</g>
</g>
<g id="m-2">
<g id="Group_48">
<g id="Group_49">
<path id="Vector_139" d="M617.535 632.1C637.255 632.1 653.255 636.955 653.255 642.94V751.17C653.255 757.15 637.255 762.01 617.535 762.01C597.82 762.01 581.815 757.15 581.815 751.17V642.94C581.815 636.96 597.82 632.1 617.535 632.1Z" fill="#FADD75"/>
<g id="m-gp_10">
<g id="sdfsdfs">
<path id="Vector_140" d="M617.535 687.885C636.3 687.885 655.295 683.46 655.295 675.005V664.185H651.215C651.215 665.25 649.87 666.56 647.53 667.785C641.425 670.98 629.935 672.96 617.535 672.96C605.135 672.96 593.64 670.975 587.535 667.785C585.195 666.56 583.855 665.25 583.855 664.185H579.775V675.005C579.775 683.46 598.77 687.885 617.535 687.885ZM651.215 670.35V675.005C651.215 678.59 638.095 683.8 617.535 683.8C596.975 683.8 583.855 678.59 583.855 675.005V670.35C584.4 670.71 584.995 671.065 585.645 671.405C592.4 674.94 604.32 677.045 617.535 677.045C630.75 677.045 642.67 674.935 649.425 671.405C650.075 671.065 650.67 670.715 651.215 670.35Z" fill="#FCAB1E"/>
<path id="Vector_141" d="M617.535 698.715C636.3 698.715 655.295 694.29 655.295 685.835V675.015H651.215C651.215 676.075 649.87 677.39 647.53 678.615C641.43 681.805 629.935 683.79 617.535 683.79C605.135 683.79 593.64 681.805 587.535 678.615C585.195 677.39 583.855 676.08 583.855 675.015H579.775V685.835C579.775 694.29 598.77 698.715 617.535 698.715ZM651.215 681.18V685.835C651.215 689.42 638.095 694.63 617.535 694.63C596.975 694.63 583.855 689.42 583.855 685.835V681.185C584.4 681.545 584.995 681.895 585.645 682.235C592.395 685.77 604.32 687.875 617.535 687.875C630.75 687.875 642.675 685.765 649.425 682.235C650.075 681.895 650.67 681.54 651.215 681.18Z" fill="#FCAB1E"/>
<path id="Vector_142" d="M617.535 677.05C630.75 677.05 642.67 674.94 649.425 671.41C653.32 669.37 655.295 666.945 655.295 664.195V653.375H651.215C651.215 654.44 649.87 655.75 647.53 656.975C641.43 660.165 629.935 662.15 617.535 662.15C605.135 662.15 593.64 660.165 587.535 656.975C585.195 655.75 583.855 654.44 583.855 653.375H579.775V664.195C579.775 666.945 581.75 669.375 585.645 671.41C592.4 674.94 604.32 677.05 617.535 677.05ZM651.215 659.535V664.19C651.215 665.255 649.87 666.565 647.53 667.79C641.425 670.985 629.935 672.965 617.535 672.965C605.135 672.965 593.64 670.98 587.535 667.79C585.195 666.565 583.855 665.255 583.855 664.19V659.54C584.4 659.9 584.995 660.25 585.645 660.59C592.395 664.125 604.32 666.23 617.535 666.23C630.75 666.23 642.675 664.12 649.425 660.59C650.075 660.245 650.67 659.895 651.215 659.535Z" fill="#FCAB1E"/>
<path id="Vector_143" d="M617.535 720.36C636.3 720.36 655.295 715.935 655.295 707.48V696.665H651.215C651.215 697.73 649.87 699.04 647.53 700.265C641.43 703.46 629.935 705.44 617.535 705.44C605.135 705.44 593.64 703.455 587.535 700.265C585.195 699.04 583.855 697.73 583.855 696.665H579.775V707.48C579.775 715.935 598.77 720.36 617.535 720.36ZM651.215 702.825V707.48C651.215 711.065 638.095 716.28 617.535 716.28C596.975 716.28 583.855 711.07 583.855 707.48V702.83C584.4 703.19 584.995 703.54 585.645 703.88C592.395 707.41 604.32 709.52 617.535 709.52C630.75 709.52 642.675 707.41 649.425 703.88C650.075 703.54 650.67 703.19 651.215 702.825Z" fill="#FCAB1E"/>
<path id="Vector_144" d="M617.535 731.19C636.3 731.19 655.295 726.765 655.295 718.31V707.49H651.215C651.215 708.555 649.87 709.865 647.53 711.09C641.43 714.28 629.935 716.265 617.535 716.265C605.135 716.265 593.64 714.28 587.535 711.09C585.195 709.865 583.855 708.555 583.855 707.49H579.775V718.31C579.775 726.765 598.77 731.19 617.535 731.19ZM651.215 713.655V718.31C651.215 721.895 638.095 727.11 617.535 727.11C596.975 727.11 583.855 721.9 583.855 718.31V713.66C584.4 714.02 584.995 714.37 585.645 714.71C592.395 718.245 604.32 720.35 617.535 720.35C630.75 720.35 642.675 718.24 649.425 714.71C650.075 714.365 650.67 714.015 651.215 713.655Z" fill="#FCAB1E"/>
<path id="Vector_145" d="M617.535 709.52C630.75 709.52 642.675 707.41 649.425 703.88C653.32 701.84 655.295 699.415 655.295 696.66V685.84H651.215C651.215 686.905 649.87 688.215 647.53 689.44C641.425 692.63 629.93 694.615 617.535 694.615C605.135 694.615 593.64 692.63 587.535 689.44C585.195 688.215 583.855 686.905 583.855 685.84H579.775V696.66C579.775 699.41 581.75 701.84 585.645 703.88C592.4 707.41 604.32 709.52 617.535 709.52ZM651.215 692.01V696.665C651.215 697.73 649.87 699.04 647.53 700.265C641.43 703.46 629.935 705.44 617.535 705.44C605.135 705.44 593.64 703.455 587.535 700.265C585.195 699.04 583.855 697.73 583.855 696.665V692.015C584.4 692.375 584.995 692.725 585.645 693.065C592.4 696.6 604.32 698.705 617.535 698.705C630.75 698.705 642.67 696.595 649.425 693.065C650.075 692.72 650.67 692.37 651.215 692.01Z" fill="#FCAB1E"/>
<path id="Vector_146" d="M617.535 752.835C636.3 752.835 655.295 748.41 655.295 739.955V729.135H651.215C651.215 730.2 649.87 731.51 647.53 732.735C641.43 735.925 629.935 737.91 617.535 737.91C605.135 737.91 593.64 735.925 587.535 732.735C585.195 731.51 583.855 730.2 583.855 729.135H579.775V739.955C579.775 748.41 598.77 752.835 617.535 752.835ZM651.215 735.3V739.955C651.215 743.54 638.095 748.755 617.535 748.755C596.975 748.755 583.855 743.545 583.855 739.955V735.305C584.4 735.665 584.995 736.015 585.645 736.355C592.395 739.89 604.32 741.995 617.535 741.995C630.75 741.995 642.675 739.885 649.425 736.355C650.075 736.015 650.67 735.665 651.215 735.3Z" fill="#FCAB1E"/>
<path id="Vector_147" d="M617.535 763.665C636.3 763.665 655.295 759.24 655.295 750.785V739.965H651.215C651.215 741.03 649.87 742.34 647.53 743.565C641.425 746.76 629.935 748.745 617.535 748.745C605.135 748.745 593.64 746.76 587.535 743.565C585.195 742.34 583.855 741.03 583.855 739.965H579.775V750.785C579.775 759.24 598.77 763.665 617.535 763.665ZM651.215 746.13V750.785C651.215 754.37 638.095 759.585 617.535 759.585C596.975 759.585 583.855 754.375 583.855 750.785V746.13C584.4 746.49 584.995 746.845 585.645 747.18C592.4 750.715 604.32 752.82 617.535 752.82C630.75 752.82 642.67 750.71 649.425 747.18C650.075 746.84 650.67 746.49 651.215 746.13Z" fill="#FCAB1E"/>
<path id="Vector_148" d="M617.535 741.995C630.75 741.995 642.675 739.885 649.425 736.355C653.32 734.315 655.295 731.885 655.295 729.135V718.315H651.215C651.215 719.38 649.87 720.69 647.53 721.915C641.425 725.11 629.935 727.095 617.535 727.095C605.135 727.095 593.64 725.11 587.535 721.915C585.195 720.69 583.855 719.38 583.855 718.315H579.775V729.135C579.775 731.885 581.75 734.315 585.645 736.35C592.4 739.885 604.32 741.995 617.535 741.995ZM651.215 724.485V729.14C651.215 730.205 649.87 731.515 647.53 732.74C641.43 735.93 629.935 737.915 617.535 737.915C605.135 737.915 593.64 735.93 587.535 732.74C585.195 731.515 583.855 730.205 583.855 729.14V724.485C584.4 724.845 584.995 725.2 585.645 725.54C592.4 729.075 604.32 731.18 617.535 731.18C630.75 731.18 642.67 729.07 649.425 725.54C650.075 725.195 650.67 724.845 651.215 724.485Z" fill="#FCAB1E"/>
<path id="Vector_149" d="M617.535 666.23C630.75 666.23 642.675 664.12 649.425 660.59C653.32 658.55 655.295 656.12 655.295 653.37V642.55H651.215C651.215 643.6 649.84 644.945 647.53 646.15C641.425 649.34 629.93 651.325 617.535 651.325C605.135 651.325 593.64 649.34 587.535 646.15C585.23 644.945 583.855 643.6 583.855 642.55H579.775V653.37C579.775 656.12 581.75 658.55 585.645 660.585C592.4 664.12 604.32 666.23 617.535 666.23ZM651.215 648.71V653.37C651.215 654.435 649.87 655.745 647.53 656.97C641.43 660.16 629.935 662.145 617.535 662.145C605.135 662.145 593.64 660.16 587.535 656.97C585.195 655.745 583.855 654.435 583.855 653.37V648.715C584.385 649.07 584.975 649.425 585.645 649.77C592.4 653.305 604.32 655.41 617.535 655.41C630.75 655.41 642.67 653.3 649.425 649.77C650.09 649.42 650.685 649.065 651.215 648.71Z" fill="#FCAB1E"/>
<path id="Vector_150" d="M617.535 655.41C630.75 655.41 642.67 653.3 649.425 649.77C654.28 647.23 655.295 644.44 655.295 642.55C655.295 634.095 636.3 629.67 617.535 629.67C598.77 629.67 579.775 634.095 579.775 642.55C579.775 644.44 580.795 647.23 585.645 649.77C592.4 653.3 604.32 655.41 617.535 655.41ZM617.535 633.755C638.095 633.755 651.215 638.965 651.215 642.555C651.215 643.605 649.84 644.95 647.53 646.155C641.425 649.345 629.93 651.33 617.535 651.33C605.135 651.33 593.64 649.345 587.535 646.155C585.23 644.95 583.855 643.605 583.855 642.555C583.86 638.965 596.975 633.755 617.535 633.755Z" fill="#FCAB1E"/>
<g id="Group_50">
<path id="Vector_151" d="M620.14 641.755C620.12 641.75 620.1 641.745 620.09 641.74C619.795 641.685 619.395 641.6 618.89 641.49C615.775 640.835 614.23 640.295 614.23 639.86C614.23 639.6 614.505 639.39 615.05 639.23C615.585 639.075 616.315 638.995 617.23 638.995C618.485 638.995 619.4 639.11 619.975 639.335C620.565 639.565 620.85 639.925 620.85 640.415V640.605H627.29V640.4C627.29 639.35 626.49 638.57 624.89 638.05C623.84 637.705 622.435 637.48 620.695 637.36V636.015H614.38V637.36C612.645 637.47 611.225 637.67 610.125 637.97C608.39 638.44 607.525 639.115 607.525 640.01C607.525 640.675 608.03 641.245 609.06 641.715C610.08 642.19 612.51 642.825 616.32 643.62C616.52 643.665 616.785 643.715 617.11 643.785C619.57 644.285 620.795 644.735 620.795 645.125C620.795 645.425 620.5 645.665 619.91 645.84C619.32 646.015 618.52 646.105 617.52 646.105C616.195 646.105 615.27 645.98 614.73 645.735C614.195 645.49 613.92 645.045 613.92 644.395V644.22H607.355C607.355 644.265 607.345 644.33 607.325 644.42C607.315 644.505 607.305 644.57 607.305 644.61C607.305 645.715 608.125 646.525 609.765 647.045C610.875 647.395 612.41 647.625 614.34 647.74V649.06H620.655V647.735C622.45 647.625 623.925 647.415 625.085 647.1C626.875 646.615 627.77 645.925 627.77 645.035C627.77 643.925 625.235 642.83 620.14 641.755Z" fill="white"/>
</g>
</g>
</g>
</g>
</g>
<g id="Group_51">
<path id="Vector_152" d="M726.07 677.87C745.785 677.87 761.79 682.73 761.79 688.71V742.82C761.79 744.8 760.055 746.635 757.015 748.23C750.85 751.455 739.3 753.64 726.07 753.64C712.845 753.64 701.29 751.455 695.125 748.23C692.085 746.64 690.35 744.8 690.35 742.82V688.71C690.35 682.73 706.35 677.87 726.07 677.87Z" fill="#FADD75"/>
<g id="Group_52">
<g id="m-gp_11">
<path id="Vector_153" d="M726.07 701.565C739.285 701.565 751.21 699.455 757.96 695.925C762.815 693.385 763.83 690.6 763.83 688.705C763.83 680.25 744.835 675.825 726.07 675.825C707.305 675.825 688.31 680.25 688.31 688.705C688.31 690.595 689.33 693.38 694.18 695.92C700.93 699.46 712.855 701.565 726.07 701.565ZM726.07 679.91C746.63 679.91 759.75 685.12 759.75 688.705C759.75 689.755 758.375 691.1 756.07 692.305C749.97 695.495 738.475 697.48 726.075 697.48C713.675 697.48 702.18 695.495 696.08 692.305C693.775 691.1 692.4 689.755 692.4 688.705C692.39 685.12 705.51 679.91 726.07 679.91Z" fill="#FCAB1E"/>
<path id="Vector_154" d="M726.07 734.04C744.835 734.04 763.83 729.615 763.83 721.16V710.34H759.745C759.745 711.405 758.405 712.715 756.065 713.94C749.965 717.13 738.47 719.115 726.07 719.115C713.67 719.115 702.175 717.13 696.075 713.94C693.735 712.715 692.395 711.4 692.395 710.34H688.31V721.16C688.31 729.62 707.305 734.04 726.07 734.04ZM759.745 716.51V721.165C759.745 724.75 746.625 729.965 726.065 729.965C705.505 729.965 692.385 724.755 692.385 721.165V716.51C692.93 716.87 693.525 717.225 694.175 717.565C700.93 721.1 712.85 723.205 726.065 723.205C739.28 723.205 751.205 721.095 757.955 717.565C758.61 717.22 759.205 716.87 759.745 716.51Z" fill="#FCAB1E"/>
<path id="Vector_155" d="M726.07 744.87C744.835 744.87 763.83 740.445 763.83 731.99V721.17H759.745C759.745 722.235 758.405 723.545 756.065 724.77C749.96 727.965 738.465 729.945 726.07 729.945C713.67 729.945 702.175 727.96 696.075 724.77C693.735 723.545 692.395 722.235 692.395 721.17H688.31V731.99C688.31 740.445 707.305 744.87 726.07 744.87ZM759.745 727.335V731.99C759.745 735.575 746.625 740.785 726.065 740.785C705.505 740.785 692.385 735.575 692.385 731.99V727.335C692.93 727.695 693.525 728.05 694.175 728.39C700.93 731.925 712.85 734.03 726.065 734.03C739.28 734.03 751.2 731.92 757.955 728.39C758.61 728.05 759.205 727.7 759.745 727.335Z" fill="#FCAB1E"/>
<path id="Vector_156" d="M726.07 723.205C739.285 723.205 751.21 721.095 757.96 717.565C761.855 715.525 763.83 713.095 763.83 710.345V699.53H759.745C759.745 700.595 758.405 701.905 756.065 703.13C749.965 706.325 738.47 708.305 726.07 708.305C713.67 708.305 702.175 706.32 696.075 703.13C693.735 701.905 692.395 700.595 692.395 699.53H688.31V710.345C688.31 713.095 690.285 715.525 694.18 717.565C700.93 721.095 712.855 723.205 726.07 723.205ZM759.745 705.69V710.34C759.745 711.405 758.405 712.715 756.065 713.94C749.965 717.13 738.47 719.115 726.07 719.115C713.67 719.115 702.175 717.13 696.075 713.94C693.735 712.715 692.395 711.4 692.395 710.34V705.685C692.94 706.045 693.535 706.4 694.185 706.74C700.94 710.275 712.86 712.38 726.075 712.38C739.29 712.38 751.215 710.27 757.965 706.74C758.61 706.405 759.205 706.05 759.745 705.69Z" fill="#FCAB1E"/>
<path id="Vector_157" d="M726.07 755.68C739.285 755.68 751.205 753.57 757.96 750.04C761.855 748 763.83 745.575 763.83 742.825V732H759.745C759.745 733.065 758.405 734.375 756.065 735.6C749.965 738.795 738.47 740.775 726.07 740.775C713.67 740.775 702.175 738.79 696.075 735.6C693.735 734.375 692.395 733.065 692.395 732H688.31V742.82C688.31 745.57 690.285 748 694.18 750.035C700.93 753.57 712.855 755.68 726.07 755.68ZM759.745 738.165V742.815C759.745 743.88 758.405 745.19 756.065 746.415C749.96 749.61 738.465 751.59 726.07 751.59C713.67 751.59 702.175 749.605 696.075 746.415C693.735 745.19 692.395 743.88 692.395 742.815V738.16C692.94 738.52 693.535 738.87 694.185 739.215C700.94 742.745 712.86 744.855 726.075 744.855C739.29 744.855 751.215 742.745 757.965 739.215C758.61 738.88 759.205 738.525 759.745 738.165Z" fill="#FCAB1E"/>
<path id="Vector_158" d="M726.07 712.385C739.285 712.385 751.21 710.275 757.96 706.745C761.855 704.705 763.83 702.28 763.83 699.53V688.71H759.745C759.745 689.76 758.37 691.105 756.065 692.31C749.965 695.5 738.47 697.485 726.07 697.485C713.67 697.485 702.175 695.5 696.075 692.31C693.77 691.105 692.395 689.76 692.395 688.71H688.31V699.53C688.31 702.28 690.285 704.71 694.18 706.745C700.93 710.275 712.855 712.385 726.07 712.385ZM759.745 694.87V699.525C759.745 700.59 758.405 701.9 756.065 703.125C749.965 706.32 738.47 708.3 726.07 708.3C713.67 708.3 702.175 706.315 696.075 703.125C693.735 701.9 692.395 700.59 692.395 699.525V694.865C692.925 695.22 693.52 695.575 694.185 695.925C700.94 699.46 712.86 701.565 726.075 701.565C739.29 701.565 751.215 699.455 757.965 695.925C758.625 695.575 759.22 695.225 759.745 694.87Z" fill="#FCAB1E"/>
</g>
</g>
<path id="Vector_159" d="M728.675 687.91C728.655 687.905 728.63 687.9 728.62 687.895C728.325 687.84 727.925 687.755 727.42 687.645C724.305 686.995 722.76 686.45 722.76 686.015C722.76 685.755 723.035 685.545 723.58 685.385C724.115 685.23 724.845 685.15 725.76 685.15C727.01 685.15 727.93 685.265 728.505 685.49C729.095 685.72 729.38 686.08 729.38 686.57V686.76H735.82V686.555C735.82 685.51 735.02 684.725 733.42 684.205C732.37 683.86 730.97 683.635 729.225 683.515V682.175H722.91V683.515C721.175 683.625 719.755 683.825 718.655 684.125C716.92 684.595 716.055 685.275 716.055 686.165C716.055 686.83 716.56 687.4 717.59 687.87C718.61 688.345 721.04 688.98 724.85 689.775C725.05 689.82 725.315 689.87 725.64 689.945C728.105 690.445 729.325 690.895 729.325 691.285C729.325 691.585 729.03 691.825 728.44 692C727.85 692.175 727.05 692.265 726.05 692.265C724.725 692.265 723.8 692.14 723.26 691.895C722.725 691.645 722.45 691.205 722.45 690.555V690.38H715.885C715.885 690.425 715.875 690.49 715.855 690.575C715.845 690.66 715.835 690.725 715.835 690.765C715.835 691.87 716.655 692.68 718.295 693.2C719.405 693.55 720.94 693.78 722.87 693.895V695.215H729.185V693.89C730.98 693.78 732.46 693.57 733.615 693.255C735.405 692.77 736.3 692.08 736.3 691.19C736.3 690.085 733.765 688.99 728.675 687.91Z" fill="white"/>
</g>
<g id="Group_53">
<g id="Group_54">
<path id="Vector_160" d="M675.91 708.28C695.63 708.28 711.63 713.135 711.63 719.12V762.335C711.63 764.315 709.895 766.15 706.855 767.745C700.69 770.97 689.14 773.155 675.91 773.155C662.685 773.155 651.13 770.97 644.965 767.745C641.925 766.155 640.19 764.315 640.19 762.335V719.12C640.19 713.135 656.19 708.28 675.91 708.28Z" fill="#FADD75"/>
<g id="Group_55">
<g id="m-gp_12">
<path id="Vector_161" d="M675.91 731.975C689.125 731.975 701.05 729.865 707.8 726.335C712.655 723.795 713.67 721.01 713.67 719.12C713.67 710.665 694.675 706.24 675.91 706.24C657.145 706.24 638.15 710.665 638.15 719.12C638.15 721.01 639.17 723.795 644.02 726.335C650.77 729.865 662.69 731.975 675.91 731.975ZM675.91 710.32C696.47 710.32 709.59 715.53 709.59 719.12C709.59 720.17 708.215 721.515 705.91 722.72C699.81 725.91 688.315 727.895 675.915 727.895C663.515 727.895 652.02 725.91 645.92 722.72C643.615 721.515 642.24 720.17 642.24 719.12C642.23 715.53 655.35 710.32 675.91 710.32Z" fill="#FCAB1E"/>
<path id="Vector_162" d="M675.91 764.45C694.675 764.45 713.67 760.025 713.67 751.57V740.75H709.59C709.59 741.815 708.25 743.125 705.91 744.35C699.81 747.54 688.315 749.525 675.915 749.525C663.515 749.525 652.02 747.54 645.92 744.35C643.58 743.125 642.24 741.815 642.24 740.75H638.16V751.57C638.15 760.025 657.145 764.45 675.91 764.45ZM709.585 746.92V751.575C709.585 755.16 696.465 760.375 675.905 760.375C655.345 760.375 642.225 755.165 642.225 751.575V746.92C642.77 747.28 643.365 747.63 644.015 747.975C650.765 751.51 662.69 753.615 675.905 753.615C689.12 753.615 701.045 751.505 707.795 747.975C708.45 747.63 709.045 747.28 709.585 746.92Z" fill="#FCAB1E"/>
<path id="Vector_163" d="M675.91 775.28C694.675 775.28 713.67 770.855 713.67 762.4V751.58H709.59C709.59 752.645 708.25 753.955 705.91 755.18C699.805 758.375 688.31 760.36 675.915 760.36C663.515 760.36 652.02 758.375 645.92 755.18C643.58 753.955 642.24 752.645 642.24 751.58H638.16V762.4C638.15 770.855 657.145 775.28 675.91 775.28ZM709.585 757.745V762.4C709.585 765.985 696.465 771.195 675.905 771.195C655.345 771.195 642.225 765.985 642.225 762.4V757.745C642.77 758.105 643.365 758.455 644.015 758.8C650.77 762.335 662.69 764.44 675.905 764.44C689.12 764.44 701.045 762.33 707.795 758.8C708.45 758.46 709.045 758.105 709.585 757.745Z" fill="#FCAB1E"/>
<path id="Vector_164" d="M675.91 753.61C689.125 753.61 701.05 751.5 707.8 747.97C711.695 745.93 713.67 743.5 713.67 740.75V729.93H709.59C709.59 730.995 708.25 732.305 705.91 733.53C699.81 736.725 688.315 738.705 675.915 738.705C663.515 738.705 652.02 736.72 645.92 733.53C643.58 732.305 642.24 730.995 642.24 729.93H638.16V740.75C638.16 743.5 640.135 745.93 644.03 747.97C650.77 751.505 662.69 753.61 675.91 753.61ZM709.585 736.1V740.75C709.585 741.815 708.245 743.125 705.905 744.35C699.805 747.54 688.31 749.525 675.91 749.525C663.51 749.525 652.015 747.54 645.915 744.35C643.575 743.125 642.235 741.815 642.235 740.75V736.095C642.78 736.455 643.375 736.805 644.025 737.15C650.775 740.68 662.7 742.79 675.915 742.79C689.13 742.79 701.055 740.68 707.805 737.15C708.45 736.815 709.045 736.46 709.585 736.1Z" fill="#FCAB1E"/>
<path id="Vector_165" d="M675.91 742.795C689.125 742.795 701.05 740.685 707.8 737.155C711.695 735.115 713.67 732.69 713.67 729.935V719.12H709.59C709.59 720.17 708.215 721.515 705.91 722.72C699.81 725.91 688.315 727.895 675.915 727.895C663.515 727.895 652.02 725.91 645.92 722.72C643.615 721.515 642.24 720.17 642.24 719.12H638.16V729.935C638.16 732.685 640.135 735.115 644.03 737.155C650.77 740.685 662.69 742.795 675.91 742.795ZM709.585 725.275V729.93C709.585 730.995 708.245 732.305 705.905 733.53C699.805 736.725 688.31 738.705 675.91 738.705C663.51 738.705 652.015 736.72 645.915 733.53C643.575 732.305 642.235 730.995 642.235 729.93V725.27C642.765 725.625 643.36 725.98 644.025 726.325C650.775 729.86 662.7 731.965 675.915 731.965C689.13 731.965 701.055 729.855 707.805 726.325C708.465 725.985 709.06 725.63 709.585 725.275Z" fill="#FCAB1E"/>
</g>
</g>
</g>
<g id="Group_56">
<g id="Group_57">
<path id="Vector_166" d="M675.91 721.25C693.343 721.25 707.475 707.118 707.475 689.685C707.475 672.252 693.343 658.12 675.91 658.12C658.477 658.12 644.345 672.252 644.345 689.685C644.345 707.118 658.477 721.25 675.91 721.25Z" fill="#FADD75"/>
<path id="Vector_167" d="M675.91 723.29C694.44 723.29 709.515 708.215 709.515 689.685C709.515 671.155 694.44 656.08 675.91 656.08C657.38 656.08 642.305 671.155 642.305 689.685C642.3 708.215 657.38 723.29 675.91 723.29ZM675.91 660.16C692.19 660.16 705.435 673.405 705.435 689.685C705.435 705.965 692.19 719.21 675.91 719.21C659.63 719.21 646.385 705.965 646.385 689.685C646.385 673.405 659.63 660.16 675.91 660.16Z" fill="#FCAB1E"/>
<path id="Vector_168" d="M678.51 687.665C678.49 687.655 678.47 687.64 678.46 687.62C678.165 687.475 677.765 687.26 677.26 686.975C674.145 685.3 672.6 683.905 672.6 682.79C672.6 682.12 672.875 681.585 673.42 681.175C673.955 680.77 674.685 680.565 675.6 680.565C676.85 680.565 677.77 680.855 678.345 681.44C678.935 682.035 679.22 682.955 679.22 684.215V684.705H685.66V684.17C685.66 681.48 684.86 679.47 683.26 678.135C682.21 677.255 680.805 676.67 679.065 676.365V672.915H672.75V676.365C671.015 676.645 669.595 677.165 668.495 677.925C666.76 679.13 665.895 680.875 665.895 683.16C665.895 684.87 666.4 686.33 667.43 687.545C668.45 688.765 670.88 690.4 674.69 692.445C674.89 692.555 675.155 692.695 675.48 692.875C677.94 694.165 679.165 695.315 679.165 696.32C679.165 697.095 678.87 697.705 678.28 698.16C677.69 698.615 676.89 698.84 675.89 698.84C674.565 698.84 673.64 698.52 673.1 697.895C672.565 697.26 672.29 696.115 672.29 694.455V694.01H665.725C665.725 694.13 665.715 694.295 665.695 694.515C665.685 694.74 665.675 694.9 665.675 695.005C665.675 697.84 666.495 699.93 668.14 701.26C669.25 702.16 670.785 702.75 672.715 703.04V706.43H679.03V703.02C680.825 702.735 682.3 702.2 683.46 701.39C685.25 700.145 686.145 698.375 686.145 696.09C686.14 693.245 683.605 690.435 678.51 687.665Z" fill="white"/>
</g>
</g>
</g>
</g>
<g id="sparkles">
<path id="Vector_169" d="M742.05 624.75C742.05 635.19 735.06 643.65 726.435 643.65C735.06 643.65 742.05 652.115 742.05 662.55C742.05 652.11 749.04 643.65 757.665 643.65C749.04 643.655 742.05 635.19 742.05 624.75Z" fill="white"/>
<path id="Vector_170" d="M785.61 610.78C785.61 621.22 778.62 629.68 769.995 629.68C778.62 629.68 785.61 638.145 785.61 648.585C785.61 638.145 792.6 629.68 801.225 629.68C792.6 629.68 785.61 621.22 785.61 610.78Z" fill="white"/>
<path id="Vector_171" d="M765.065 657.795C765.065 662.74 761.755 666.75 757.67 666.75C761.755 666.75 765.065 670.76 765.065 675.705C765.065 670.76 768.375 666.75 772.46 666.75C768.375 666.75 765.065 662.74 765.065 657.795Z" fill="white"/>
<path id="Vector_172" d="M757.255 596.98C757.255 603.3 753.025 608.42 747.805 608.42C753.025 608.42 757.255 613.545 757.255 619.86C757.255 613.54 761.485 608.42 766.705 608.42C761.485 608.42 757.255 603.3 757.255 596.98Z" fill="white"/>
</g>
<g id="sparkles_2">
<path id="Vector_173" d="M572.97 615.48C572.97 620.425 569.66 624.435 565.575 624.435C569.66 624.435 572.97 628.445 572.97 633.39C572.97 628.445 576.28 624.435 580.365 624.435C576.28 624.435 572.97 620.425 572.97 615.48Z" fill="white"/>
<path id="Vector_174" d="M427.54 697.63C427.54 703.95 423.31 709.07 418.09 709.07C423.31 709.07 427.54 714.19 427.54 720.51C427.54 714.19 431.77 709.07 436.99 709.07C431.77 709.07 427.54 703.95 427.54 697.63Z" fill="white"/>
</g>
<g id="sparkles_3">
<path id="Vector_175" d="M346.39 404.975C346.39 415.415 339.4 423.875 330.775 423.875C339.4 423.875 346.39 432.34 346.39 442.775C346.39 432.335 353.38 423.875 362.005 423.875C353.38 423.88 346.39 415.415 346.39 404.975Z" fill="white"/>
<path id="Vector_176" d="M389.945 391.005C389.945 401.445 382.955 409.905 374.33 409.905C382.955 409.905 389.945 418.37 389.945 428.805C389.945 418.365 396.935 409.905 405.56 409.905C396.935 409.905 389.945 401.445 389.945 391.005Z" fill="white"/>
<path id="Vector_177" d="M369.4 438.02C369.4 442.965 366.09 446.975 362.005 446.975C366.09 446.975 369.4 450.985 369.4 455.93C369.4 450.985 372.71 446.975 376.795 446.975C372.71 446.975 369.4 442.965 369.4 438.02Z" fill="white"/>
<path id="Vector_178" d="M361.59 377.205C361.59 383.525 357.36 388.645 352.14 388.645C357.36 388.645 361.59 393.765 361.59 400.085C361.59 393.765 365.82 388.645 371.04 388.645C365.825 388.645 361.59 383.525 361.59 377.205Z" fill="white"/>
</g>
<g id="sparkes">
<path id="Vector_179" d="M159.73 604.255C159.73 614.695 152.74 623.155 144.115 623.155C152.74 623.155 159.73 631.62 159.73 642.06C159.73 631.62 166.72 623.155 175.345 623.155C166.72 623.155 159.73 614.695 159.73 604.255Z" fill="white"/>
<path id="Vector_180" d="M203.285 590.28C203.285 600.72 196.295 609.18 187.67 609.18C196.295 609.18 203.285 617.645 203.285 628.085C203.285 617.645 210.275 609.18 218.9 609.18C210.275 609.185 203.285 600.72 203.285 590.28Z" fill="white"/>
<path id="Vector_181" d="M182.74 637.3C182.74 642.245 179.43 646.255 175.345 646.255C179.43 646.255 182.74 650.265 182.74 655.21C182.74 650.265 186.05 646.255 190.135 646.255C186.05 646.255 182.74 642.245 182.74 637.3Z" fill="white"/>
<path id="Vector_182" d="M174.935 576.485C174.935 582.805 170.705 587.925 165.485 587.925C170.705 587.925 174.935 593.045 174.935 599.365C174.935 593.045 179.165 587.925 184.385 587.925C179.165 587.925 174.935 582.805 174.935 576.485Z" fill="white"/>
</g>
<g id="sparkles_4">
<path id="Vector_183" d="M663.305 444.335C663.305 454.775 656.315 463.235 647.69 463.235C656.315 463.235 663.305 471.7 663.305 482.135C663.305 471.695 670.295 463.235 678.92 463.235C670.295 463.24 663.305 454.775 663.305 444.335Z" fill="white"/>
<path id="Vector_184" d="M706.86 430.365C706.86 440.805 699.87 449.265 691.245 449.265C699.87 449.265 706.86 457.73 706.86 468.165C706.86 457.725 713.85 449.265 722.475 449.265C713.85 449.27 706.86 440.805 706.86 430.365Z" fill="white"/>
<path id="Vector_185" d="M686.315 477.385C686.315 482.33 683.005 486.34 678.92 486.34C683.005 486.34 686.315 490.35 686.315 495.295C686.315 490.35 689.625 486.34 693.71 486.34C689.625 486.335 686.315 482.33 686.315 477.385Z" fill="white"/>
<path id="Vector_186" d="M678.51 416.57C678.51 422.89 674.28 428.01 669.06 428.01C674.28 428.01 678.51 433.13 678.51 439.45C678.51 433.13 682.74 428.01 687.96 428.01C682.74 428.01 678.51 422.885 678.51 416.57Z" fill="white"/>
</g>
</g>
</g>
<defs>
<linearGradient id="paint0_linear" x1="301.298" y1="532.461" x2="695.999" y2="532.461" gradientUnits="userSpaceOnUse">
<stop stop-color="#FA9E00"/>
<stop offset="1" stop-color="#F46E0D"/>
</linearGradient>
</defs>
</svg>
