<svg width="3600" height="1065" viewBox="0 0 3600 1065" fill="none" xmlns="http://www.w3.org/2000/svg">
<path d="M1839.3 1025.6H1354.7V525.2H1839.3V1025.6V1025.6ZM1355.7 1024.6H1838.3V526.2H1355.7V1024.6V1024.6Z" fill="#686874"/>
<path d="M1346.1 7.40002H1342.4V1032.5H1346.1V7.40002Z" fill="#9595A6"/>
<path d="M1835.1 7.40002H1838.8V1032.5H1835.1" fill="#686874"/>
<path d="M341.8 7.40002H338.1V1032.5H341.8V7.40002Z" fill="#686874"/>
<path d="M836.1 7H832.4V1032.1H836.1V7Z" fill="#9595A6"/>
<path d="M1838.8 511.3H338.1V514.3H1838.8V511.3Z" fill="#9595A6"/>
<path opacity="0.07" d="M847.3 524.7H869.5L847.3 630.7V524.7Z" fill="#72ACF3"/>
<path d="M2669.75 1032.48H2673.45V7.38342H2669.75V1032.48Z" fill="#9595A6"/>
<path d="M2180.7 7.40002H2177V1032.5H2180.7" fill="#686874"/>
<path d="M3179.68 1032.11H3183.38V7.00586H3179.68V1032.11Z" fill="#9595A6"/>
<path d="M3600 511.3H2177V514.3H3600V511.3Z" fill="#9595A6"/>
<path d="M560.9 711.7H555V785.7H560.9V711.7Z" fill="#FA9E00"/>
<path d="M548.975 785.762H554.975V711.762H548.975V785.762Z" fill="white"/>
<path d="M574.1 711.7H566.9V785.7H574.1V711.7Z" fill="#FFC487"/>
<path d="M602.6 711.7H573.4V785.7H602.6V711.7Z" fill="#F7B26A"/>
<path d="M560.905 785.762H566.905V711.762H560.905V785.762Z" fill="white"/>
<path d="M560.3 786.2H553.3V710.1H560.3V786.2ZM554.3 785.2H559.3V711.1H554.3V785.2Z" fill="#686874"/>
<path d="M554.3 786.2H547.2V710.1H554.3V786.2ZM548.2 785.2H553.3V711.1H548.2V785.2Z" fill="#686874"/>
<path d="M573.8 786.2H565.4V710.1H573.8V786.2ZM566.5 785.2H572.9V711.1H566.5V785.2Z" fill="#686874"/>
<path d="M603.6 786.2H572.9V710.1H603.6V786.2ZM573.9 785.2H602.6V711.1H573.9V785.2Z" fill="#686874"/>
<path d="M566.5 786.2H559.4V710.1H566.5V786.2ZM560.3 785.2H565.4V711.1H560.3V785.2Z" fill="#686874"/>
<path d="M627.3 785.8H586.6L580 722.7H620.7L627.3 785.8Z" fill="#FA9E00"/>
<path d="M581.4 785.8H586.6L580 722.7H574.8L581.4 785.8Z" fill="white"/>
<path d="M627.8 786.3H585.5L578.7 721.2H621L627.8 786.3ZM586.4 785.3H626.7L620.1 722.2H579.8L586.4 785.3Z" fill="#686874"/>
<path d="M586.5 786.3H580.3L573.5 721.2H579.7L586.5 786.3ZM581.2 785.3H585.4L578.8 722.2H574.6L581.2 785.3Z" fill="#686874"/>
<path d="M2760.3 690.3H2743.3V786.3H2760.3V690.3Z" fill="#F46E0D"/>
<path d="M2760.33 786.334H2805.63V690.334H2760.33V786.334Z" fill="#F46E0D"/>
<path d="M2787.6 690.3H2770.6V786.3H2787.6V690.3Z" fill="#FA9E00"/>
<path d="M2787.69 786.334H2832.99V690.334H2787.69V786.334Z" fill="#F46E0D"/>
<path d="M2804.05 786.334H2832.95V690.334H2804.05V786.334Z" fill="#FA9E00"/>
<path d="M2757.8 786.8H2739V687.1H2757.8V786.8ZM2740.1 785.8H2756.8V688.1H2740.1V785.8Z" fill="#686874"/>
<path d="M2805 786.8H2756.8V687.1H2805V786.8ZM2757.8 785.8H2804V688.1H2757.8V785.8Z" fill="#686874"/>
<path d="M2786.3 786.8H2767.5V687.1H2786.3V786.8ZM2768.5 785.8H2785.2V688.1H2768.5V785.8Z" fill="#686874"/>
<path d="M2833.5 786.8H2785.3V687.1H2833.5V786.8ZM2786.3 785.8H2832.5V688.1H2786.3V785.8Z" fill="#686874"/>
<path d="M2758.2 717.5H2744.7V720.8H2758.2V717.5Z" fill="#686874"/>
<path d="M2758.2 722.9H2744.7V726.2H2758.2V722.9Z" fill="#686874"/>
<path d="M2758.2 728.4H2744.7V731.7H2758.2V728.4Z" fill="#686874"/>
<path d="M2785.9 717.5H2772.4V720.8H2785.9V717.5Z" fill="#686874"/>
<path d="M2785.9 722.9H2772.4V726.2H2785.9V722.9Z" fill="#686874"/>
<path d="M2785.9 728.4H2772.4V731.7H2785.9V728.4Z" fill="#686874"/>
<path d="M1988.2 774.9H1971.2V870.9H1988.2V774.9Z" fill="#F46E0D"/>
<path d="M1988.19 870.948H2033.49V774.948H1988.19V870.948Z" fill="#F46E0D"/>
<path d="M2015.5 774.9H1998.5V870.9H2015.5V774.9Z" fill="#FA9E00"/>
<path d="M2015.45 870.948H2060.75V774.948H2015.45V870.948Z" fill="#F46E0D"/>
<path d="M2031.91 870.948H2060.81V774.948H2031.91V870.948Z" fill="#FA9E00"/>
<path d="M1985.7 871.4H1966.9V771.7H1985.7V871.4ZM1967.9 870.4H1984.6V772.7H1967.9V870.4Z" fill="#686874"/>
<path d="M2032.9 871.4H1984.7V771.7H2032.9V871.4ZM1985.7 870.4H2031.9V772.7H1985.7V870.4Z" fill="#686874"/>
<path d="M2014.1 871.4H1995.3V771.7H2014.1V871.4ZM1996.4 870.4H2013.1V772.7H1996.4V870.4Z" fill="#686874"/>
<path d="M2061.3 871.4H2013.1V771.7H2061.3V871.4ZM2014.1 870.4H2060.3V772.7H2014.1V870.4V870.4Z" fill="#686874"/>
<path d="M1986 802.1H1972.5V805.4H1986V802.1Z" fill="#686874"/>
<path d="M1986 807.5H1972.5V810.8H1986V807.5Z" fill="#686874"/>
<path d="M1986 813H1972.5V816.3H1986V813Z" fill="#686874"/>
<path d="M2013.7 802.1H2000.2V805.4H2013.7V802.1Z" fill="#686874"/>
<path d="M2013.7 807.5H2000.2V810.8H2013.7V807.5Z" fill="#686874"/>
<path d="M2013.7 813H2000.2V816.3H2013.7V813Z" fill="#686874"/>
<path d="M1327.5 703H1320.9V785.5H1327.5V703Z" fill="#9B9BA3"/>
<path d="M1314.15 785.564H1320.95V703.064H1314.15V785.564Z" fill="white"/>
<path d="M1342.4 703H1334.3V785.5H1342.4V703Z" fill="#9B9BA3"/>
<path d="M1387.6 703H1349.1V785.5H1387.6V703Z" fill="#9B9BA3"/>
<path d="M1327.5 785.564H1334.3V703.064H1327.5V785.564Z" fill="white"/>
<path d="M1342.33 785.564H1349.13V703.064H1342.33V785.564Z" fill="white"/>
<path d="M1325.8 787H1318.1V702.5H1325.8V787ZM1319.1 786H1324.8V703.5H1319.1V786Z" fill="#686874"/>
<path d="M1319.1 787H1311.3V702.5H1319.1V787ZM1312.2 786H1318V703.5H1312.2V786Z" fill="#686874"/>
<path d="M1340.8 787H1331.6V702.5H1340.8V787ZM1332.6 786H1339.8V703.5H1332.6V786Z" fill="#686874"/>
<path d="M1386.6 787H1346.6V702.5H1386.6V787ZM1347.6 786H1385.6V703.5H1347.6V786Z" fill="#686874"/>
<path d="M1332.6 787H1324.8V702.5H1332.6V787ZM1325.8 786H1331.6V703.5H1325.8V786Z" fill="#686874"/>
<path d="M1347.6 787H1339.8V702.5H1347.6V787ZM1340.8 786H1346.6V703.5H1340.8V786Z" fill="#686874"/>
<path d="M2541.2 870.8H2664.8L2640 700.7C2638.3 688.8 2626.6 679.2 2614 679.2H2536.3C2523.6 679.2 2514.8 688.8 2516.5 700.7L2541.2 870.8Z" fill="#FA9E00"/>
<path d="M2661.8 865.7H2535.7L2510.9 700C2510.3 694.3 2512 689 2515.6 684.9C2519.6 680.4 2525.5 678 2532.1 678H2609.8C2622.9 678 2635 687.7 2636.8 699.7L2661.8 865.7ZM2537.4 863.7H2659.4L2634.9 700C2633.2 689 2622 680 2609.8 680H2532.1C2526 680 2520.7 682.2 2517.1 686.2C2513.8 689.8 2512.3 694.6 2512.9 699.7L2537.4 863.7Z" fill="#686874"/>
<path d="M2525 1047.5H2530L2561.3 885L2564.7 867.3H2559.1L2555.8 885L2525 1047.5Z" fill="#686874"/>
<path d="M2676.1 867.3L2679.5 885L2710.7 1047.5H2715.8L2685 885L2681.7 867.3H2676.1Z" fill="#686874"/>
<path d="M2541.35 883.13H2694.65V865.23H2541.35V883.13Z" fill="#F46E0D"/>
<path d="M2690.7 884.1H2535.4V864.2H2690.7V884.1ZM2537.4 882.1H2688.7V866.2H2537.4V882.1Z" fill="#686874"/>
<path d="M3080.4 870.8H2956.8L2981.6 700.7C2983.3 688.8 2995 679.2 3007.6 679.2H3085.3C3098 679.2 3106.8 688.8 3105.1 700.7L3080.4 870.8Z" fill="#FA9E00"/>
<path d="M3085.9 865.7H2959.8L2984.8 699.7C2986.6 687.7 2998.7 678 3011.8 678H3089.5C3096.2 678 3102 680.5 3106 684.9C3109.7 689 3111.3 694.3 3110.7 700L3085.9 865.7ZM2962.1 863.7H3084.1L3108.7 699.7C3109.2 694.7 3107.7 689.9 3104.4 686.2C3100.8 682.2 3095.4 680 3089.4 680H3011.7C2999.5 680 2988.3 689 2986.6 700L2962.1 863.7Z" fill="#686874"/>
<path d="M3096.6 1047.5H3091.6L3060.3 885L3056.9 867.3H3062.5L3065.8 885L3096.6 1047.5Z" fill="#686874"/>
<path d="M2945.5 867.3L2942.1 885L2910.8 1047.5H2905.8L2936.6 885L2939.9 867.3H2945.5Z" fill="#686874"/>
<path d="M3080.2 865.2H2926.9V883.1H3080.2V865.2Z" fill="#F46E0D"/>
<path d="M3086.2 884.1H2930.9V864.2H3086.2V884.1ZM2932.9 882.1H3084.2V866.2H2932.9V882.1Z" fill="#686874"/>
<path d="M951.2 870.8H1074.8L1050 700.7C1048.3 688.8 1036.6 679.2 1024 679.2H946.3C933.6 679.2 924.8 688.8 926.5 700.7L951.2 870.8Z" fill="#FA9E00"/>
<path d="M1071.8 865.7H945.7L945.6 864.8L920.9 700C920.3 694.3 922 689 925.6 684.9C929.6 680.4 935.5 678 942.1 678H1019.8C1032.9 678 1045 687.7 1046.8 699.7L1071.8 865.7ZM947.4 863.7H1069.4L1044.9 700C1043.2 689 1032 680 1019.8 680H942.1C936 680 930.7 682.2 927.1 686.2C923.8 689.8 922.3 694.6 922.9 699.7L947.4 863.7Z" fill="#686874"/>
<path d="M935 1047.5H940L971.3 885L974.7 867.3H969.1L965.8 885L935 1047.5Z" fill="#686874"/>
<path d="M1086.1 867.3L1089.5 885L1120.7 1047.5H1125.8L1095 885L1091.7 867.3H1086.1Z" fill="#686874"/>
<path d="M950.299 883.13H1103.6V865.23H950.299V883.13Z" fill="#F46E0D"/>
<path d="M1100.7 884.1H945.4V864.2H1100.7V884.1ZM947.4 882.1H1098.7V866.2H947.4V882.1Z" fill="#6A7274"/>
<path d="M241.2 870.8H364.8L340 700.7C338.3 688.8 326.6 679.2 314 679.2H236.3C223.6 679.2 214.8 688.8 216.5 700.7L241.2 870.8Z" fill="#FA9E00"/>
<path d="M361.8 865.7H235.7L235.6 864.8L210.9 700C210.3 694.3 212 689 215.6 684.9C219.6 680.4 225.5 678 232.1 678H309.8C322.9 678 335 687.7 336.8 699.7L361.8 865.7ZM237.4 863.7H359.4L334.9 700C333.2 689 322 680 309.8 680H232.1C226 680 220.7 682.2 217.1 686.2C213.8 689.8 212.3 694.6 212.9 699.7L237.4 863.7Z" fill="#686874"/>
<path d="M225 1047.5H230L261.3 885L264.7 867.3H259.1L255.8 885L225 1047.5Z" fill="#686874"/>
<path d="M376.1 867.3L379.5 885L410.7 1047.5H415.8L385 885L381.7 867.3H376.1Z" fill="#686874"/>
<path d="M241.349 883.13H394.649V865.23H241.349V883.13Z" fill="#F46E0D"/>
<path d="M390.7 884.1H235.4V864.2H390.7V884.1V884.1ZM237.4 882.1H388.7V866.2H237.4V882.1Z" fill="#686874"/>
<path d="M1695.4 870.8H1571.8L1596.6 700.7C1598.3 688.8 1610 679.2 1622.6 679.2H1700.3C1713 679.2 1721.8 688.8 1720.1 700.7L1695.4 870.8Z" fill="#FA9E00"/>
<path d="M1700.9 865.7H1574.8L1599.8 699.7C1601.6 687.7 1613.7 678 1626.8 678H1704.5C1711.2 678 1717 680.5 1721 684.9C1724.7 689 1726.3 694.3 1725.7 700L1700.9 865.7ZM1577.1 863.7H1699.1L1723.7 699.7C1724.2 694.7 1722.7 689.9 1719.4 686.2C1715.8 682.2 1710.4 680 1704.4 680H1626.7C1614.5 680 1603.3 689 1601.6 700L1577.1 863.7Z" fill="#686874"/>
<path d="M1711.6 1047.5H1706.6L1675.3 885L1671.9 867.3H1677.5L1680.8 885L1711.6 1047.5Z" fill="#686874"/>
<path d="M1560.5 867.3L1557.1 885L1525.8 1047.5H1520.8L1551.6 885L1554.9 867.3H1560.5Z" fill="#686874"/>
<path d="M1695.2 865.2H1541.9V883.1H1695.2V865.2Z" fill="#F46E0D"/>
<path d="M1701.2 884.1H1545.9V864.2H1701.2V884.1ZM1547.9 882.1H1699.2V866.2H1547.9V882.1Z" fill="#686874"/>
<path d="M170.8 1048.7H164L160.2 1009.2H174.6L170.8 1048.7Z" fill="#686874"/>
<path d="M200.9 1048.7H194L190.2 1009.2H204.7L200.9 1048.7Z" fill="#686874"/>
<path d="M41.2 1048.7H34.3L30.5 1009.2H45L41.2 1048.7Z" fill="#686874"/>
<path d="M71.2 1048.7H64.4L60.6 1009.2H75L71.2 1048.7Z" fill="#686874"/>
<path d="M181.4 824.7H27.7V1022.3H181.4V824.7Z" fill="white"/>
<path d="M182.4 1023.3H26.7V823.7H182.4V1023.3V1023.3ZM28.7 1021.3H180.4V825.7H28.7V1021.3Z" fill="#686874"/>
<path d="M181.332 1022.22H208.732L208.732 824.624H181.332L181.332 1022.22Z" fill="#9B9BA3"/>
<path d="M209.3 1022.8H180.9V824.2H209.3V1022.8ZM181.9 1021.8H208.3V825.2H181.9V1021.8Z" fill="#686874"/>
<path d="M208.8 1016.2H27.7V1022.3H208.8V1016.2Z" fill="#686874"/>
<path d="M208.8 822.8H27.6V826.5H208.8V822.8Z" fill="#686874"/>
<path d="M181.4 868.4H27.7V870.2H181.4V868.4Z" fill="#686874"/>
<path d="M181.4 922H27.7V923.8H181.4V922Z" fill="#686874"/>
<path d="M181.4 969.3H27.7V971.1H181.4V969.3Z" fill="#686874"/>
<path d="M123.9 835.8H85.1V838.7H123.9V835.8Z" fill="#686874"/>
<path d="M123.9 878.5H85.1V881.4H123.9V878.5Z" fill="#686874"/>
<path d="M123.9 932.2H85.1V935.1H123.9V932.2Z" fill="#686874"/>
<path d="M123.9 981.2H85.1V984.1H123.9V981.2Z" fill="#686874"/>
<path d="M1877.9 1048.7H1871L1867.2 1009.2H1881.7L1877.9 1048.7Z" fill="#686874"/>
<path d="M1907.9 1048.7H1901L1897.2 1009.2H1911.7L1907.9 1048.7Z" fill="#686874"/>
<path d="M1748.2 1048.7H1741.4L1737.6 1009.2H1752L1748.2 1048.7Z" fill="#686874"/>
<path d="M1778.2 1048.7H1771.4L1767.6 1009.2H1782L1778.2 1048.7Z" fill="#686874"/>
<path d="M1888.4 824.7H1734.7V1022.3H1888.4V824.7Z" fill="white"/>
<path d="M1889.4 1023.3H1733.7V823.7H1889.4V1023.3ZM1735.7 1021.3H1887.4V825.7H1735.7V1021.3Z" fill="#686874"/>
<path d="M1888.38 1022.22H1915.78V824.624H1888.38V1022.22Z" fill="#9B9BA3"/>
<path d="M1916.3 1022.8H1887.9V824.2H1916.3V1022.8ZM1888.9 1021.8H1915.3V825.2H1888.9V1021.8Z" fill="#686874"/>
<path d="M1915.8 1016.2H1734.7V1022.3H1915.8V1016.2Z" fill="#686874"/>
<path d="M1915.8 822.8H1734.6V826.5H1915.8V822.8Z" fill="#686874"/>
<path d="M1888.4 868.4H1734.7V870.2H1888.4V868.4Z" fill="#686874"/>
<path d="M1888.4 922H1734.7V923.8H1888.4V922Z" fill="#686874"/>
<path d="M1888.4 969.3H1734.7V971.1H1888.4V969.3Z" fill="#686874"/>
<path d="M1830.9 835.8H1792.1V838.7H1830.9V835.8Z" fill="#686874"/>
<path d="M1830.9 878.5H1792.1V881.4H1830.9V878.5Z" fill="#686874"/>
<path d="M1830.9 932.2H1792.1V935.1H1830.9V932.2Z" fill="#686874"/>
<path d="M1830.9 981.2H1792.1V984.1H1830.9V981.2Z" fill="#686874"/>
<path d="M2128.1 870.6H2094.6V876.5H2128.1V870.6Z" fill="#686874"/>
<path d="M1945.6 440.3V1010.1H2136V440.3H1945.6ZM2125.9 1004.4H1955.8V450.4H2125.9V1004.4Z" fill="#686874"/>
<path d="M485.646 785.262H493.546V688.762H485.646V785.262Z" fill="white"/>
<path d="M1635 785.5H1031.5V790.4H1635V785.5Z" fill="#686874"/>
<path d="M1086.1 1047.5H1081L1126 790.4H1131.8L1086.1 1047.5Z" fill="#686874"/>
<path d="M1580.4 1047.5H1585.4L1537.3 790.4H1531.6L1580.4 1047.5Z" fill="#686874"/>
<path d="M505.888 785.26H512.688V702.76H505.888V785.26Z" fill="white"/>
<path d="M506.862 785.26H513.662V702.76H506.862V785.26Z" fill="white"/>
<path d="M1955.8 992.4H1945.6V1050H1955.8V992.4Z" fill="#686874"/>
<path d="M2136.1 992.4H2125.9V1050H2136.1V992.4Z" fill="#686874"/>
<path d="M2104.9 992.4H2094.7V1050H2104.9V992.4Z" fill="#686874"/>
<path d="M2129.5 726.3H1914.4V732.2H2129.5V726.3Z" fill="#686874"/>
<path d="M2105.1 870.6H1914.5V876.5H2105.1V870.6Z" fill="#686874"/>
<path d="M1924.6 992.4H1914.4V1050H1924.6V992.4Z" fill="#686874"/>
<path d="M1952.4 921.9H1945.8V1004.4H1952.4V921.9Z" fill="#9B9BA3"/>
<path d="M1939.02 1004.34H1945.82V921.84H1939.02V1004.34Z" fill="white"/>
<path d="M1967.3 921.9H1959.2V1004.4H1967.3V921.9Z" fill="#9B9BA3"/>
<path d="M2012.6 921.9H1967.3V1004.4H2012.6V921.9Z" fill="#9B9BA3"/>
<path d="M1952.37 1004.34H1959.17V921.84H1952.37V1004.34Z" fill="white"/>
<path d="M1967.2 1004.34H1974V921.84H1967.2V1004.34Z" fill="white"/>
<path d="M1950.9 1004.9H1943.3V921.4H1950.9V1004.9ZM1944.3 1003.9H1949.9V922.4H1944.3V1003.9Z" fill="#686874"/>
<path d="M1944.3 1004.9H1936.5V921.4H1944.3V1004.9ZM1937.5 1003.9H1943.3V922.4H1937.5V1003.9Z" fill="#686874"/>
<path d="M1965.8 1004.9H1956.7V921.4H1965.8V1004.9ZM1957.7 1003.9H1964.8V922.4H1957.7V1003.9Z" fill="#686874"/>
<path d="M2011 1004.9H1964.7V921.4H2011V1004.9ZM1965.8 1003.9H2010.1V922.4H1965.8V1003.9Z" fill="#686874"/>
<path d="M1957.7 1004.9H1949.9V921.4H1957.7V1004.9ZM1950.9 1003.9H1956.7V922.4H1950.9V1003.9Z" fill="#686874"/>
<path d="M1972.5 1004.9H1964.7V921.4H1972.5V1004.9ZM1965.8 1003.9H1971.6V922.4H1965.8V1003.9Z" fill="#686874"/>
<path d="M2009.5 1004.9H2001.3V929.9H2009.5V1004.9ZM2002.3 1003.9H2008.5V930.9H2002.3V1003.9Z" fill="#686874"/>
<path d="M691.6 1047.5H696.7L651.7 790.4H645.9L691.6 1047.5Z" fill="#686874"/>
<path d="M337.2 1047.5H332.2L380.3 790.4H386.1L337.2 1047.5Z" fill="#686874"/>
<path d="M301.948 790.475H726.948V785.575H301.948V790.475Z" fill="#686874"/>
<path d="M2927 1047.5H2932L2887 790.4H2881.3L2927 1047.5Z" fill="#686874"/>
<path d="M2449.1 1047.5H2444.1L2492.2 790.4H2498L2449.1 1047.5Z" fill="#686874"/>
<path d="M2443.98 790.475L2932.18 790.475V785.575L2443.98 785.575V790.475Z" fill="#686874"/>
<path d="M2684.6 849.4H2684.7C2684.7 849.7 2684.8 849.9 2684.8 850.2C2684.8 849.9 2684.7 849.6 2684.6 849.4Z" fill="#8B4C56"/>
<path d="M3507.2 41.9C3497.4 31.9 3487.5 21.9 3477.7 11.9C3476.3 10.4 3478.5 8.2 3480 9.6C3489.8 19.6 3499.7 29.6 3509.5 39.6C3510.9 41.1 3508.6 43.4 3507.2 41.9Z" fill="#686874"/>
<path d="M3507.2 39.7C3517 29.7 3526.9 19.7 3536.7 9.70001C3538.1 8.20001 3540.4 10.5 3539 12C3529.2 22 3519.3 32 3509.5 42C3508 43.4 3505.7 41.1 3507.2 39.7Z" fill="#686874"/>
<path d="M3566.3 39.7C3576.1 29.7 3586 19.7 3595.8 9.70001C3597.2 8.20001 3599.5 10.5 3598.1 12C3588.3 22 3578.4 32 3568.6 42C3567.1 43.4 3564.8 41.1 3566.3 39.7Z" fill="#686874"/>
<path d="M3566.3 41.9C3556.5 31.9 3546.6 21.9 3536.8 11.9C3535.4 10.4 3537.6 8.2 3539.1 9.6C3548.9 19.6 3558.8 29.6 3568.6 39.6C3570 41.1 3567.7 43.4 3566.3 41.9Z" fill="#686874"/>
<path d="M3448.1 39.7C3457.9 29.7 3467.8 19.7 3477.6 9.70001C3479 8.20001 3481.3 10.5 3479.9 12C3470.1 22 3460.2 32 3450.4 42C3448.9 43.4 3446.6 41.1 3448.1 39.7Z" fill="#686874"/>
<path d="M3448.1 41.9C3438.3 31.9 3428.4 21.9 3418.6 11.9C3417.2 10.4 3419.4 8.2 3420.9 9.6C3430.7 19.6 3440.6 29.6 3450.4 39.6C3451.8 41.1 3449.5 43.4 3448.1 41.9Z" fill="#686874"/>
<path d="M3389 39.7C3398.8 29.7 3408.7 19.7 3418.5 9.70001C3419.9 8.20001 3422.2 10.5 3420.8 12C3411 22 3401.1 32 3391.3 42C3389.8 43.4 3387.6 41.1 3389 39.7Z" fill="#686874"/>
<path d="M2071.4 263.3H1941.5V255C1941.5 220.7 1969.3 192.9 2003.6 192.9H2009.3C2043.6 192.9 2071.4 220.7 2071.4 255V263.3Z" fill="#686874"/>
<path d="M2006.4 269.2C2042.24 269.2 2071.3 266.648 2071.3 263.5C2071.3 260.352 2042.24 257.8 2006.4 257.8C1970.56 257.8 1941.5 260.352 1941.5 263.5C1941.5 266.648 1970.56 269.2 2006.4 269.2Z" fill="white"/>
<path d="M2071.4 262.7C2066.8 258.8 2031 257.4 2006.5 257.4C1981.9 257.4 1946.2 258.8 1941.6 262.7C1941.3 263 1941.1 263.2 1941.1 263.5C1941.1 268 1980.2 269.7 2006.5 269.7C2032.8 269.7 2071.9 268.1 2071.9 263.5C2071.9 263.2 2071.7 263 2071.4 262.7ZM2070.9 263.5C2070.9 263.5 2070.7 265.4 2052.3 267C2040.1 268.1 2023.7 268.7 2006.4 268.7C1989.1 268.7 1972.8 268.1 1960.5 267C1942.1 265.4 1941.9 263.5 1941.9 263.5C1941.9 263.5 1941.9 263.4 1942.1 263.3C1942.7 262.8 1945.8 261.3 1960.5 260C1972.7 258.9 1989 258.3 2006.4 258.3C2023.7 258.3 2040 258.9 2052.3 260C2067 261.3 2070.1 262.7 2070.7 263.3C2070.9 263.5 2070.9 263.5 2070.9 263.5Z" fill="#686874"/>
<path d="M2021.8 195.2H1991.1V175.4C1991.1 169.1 1996.2 163.9 2002.6 163.9H2010.3C2016.6 163.9 2021.8 169 2021.8 175.4V195.2Z" fill="#686874"/>
<path d="M2007.7 39.6V204.7C2007.7 206.3 2005.2 206.3 2005.2 204.7V39.6H2007.7Z" fill="#686874"/>
<path d="M417.8 111.4C494.9 111.4 572 111.4 649.1 111.4C670.8 111.4 692.5 111.4 714.2 111.4C718.7 111.4 718.7 104.5 714.2 104.5C637.1 104.5 560 104.5 482.9 104.5C461.2 104.5 439.5 104.5 417.8 104.5C413.4 104.5 413.4 111.4 417.8 111.4Z" fill="#686874"/>
<path d="M442.5 39.6V106.2C442.5 107.9 439.9 107.9 439.9 106.2V39.6H442.5Z" fill="#686874"/>
<path d="M692.1 39.6V106.2C692.1 107.9 689.5 107.9 689.5 106.2V39.6H692.1Z" fill="#686874"/>
<path d="M453.6 106.2H435.2V151.8H453.6V106.2Z" fill="#686874"/>
<path d="M444.3 154.1C449.16 154.1 453.1 153.07 453.1 151.8C453.1 150.53 449.16 149.5 444.3 149.5C439.44 149.5 435.5 150.53 435.5 151.8C435.5 153.07 439.44 154.1 444.3 154.1Z" fill="white"/>
<path d="M444.3 154.6C439.8 154.6 435 153.7 435 151.8C435 149.9 439.8 149 444.3 149C448.8 149 453.6 149.9 453.6 151.8C453.6 153.7 448.8 154.6 444.3 154.6ZM444.3 150.1C438.8 150.1 436 151.3 436 151.9C436 152.5 438.8 153.7 444.3 153.7C449.8 153.7 452.6 152.5 452.6 151.9C452.6 151.3 449.8 150.1 444.3 150.1Z" fill="#686874"/>
<path d="M513.5 106.2H495.1V151.8H513.5V106.2Z" fill="#686874"/>
<path d="M504.3 154.1C509.16 154.1 513.1 153.07 513.1 151.8C513.1 150.53 509.16 149.5 504.3 149.5C499.44 149.5 495.5 150.53 495.5 151.8C495.5 153.07 499.44 154.1 504.3 154.1Z" fill="white"/>
<path d="M504.3 154.6C499.8 154.6 495 153.7 495 151.8C495 149.9 499.8 149 504.3 149C508.8 149 513.6 149.9 513.6 151.8C513.6 153.7 508.8 154.6 504.3 154.6ZM504.3 150.1C498.8 150.1 496 151.3 496 151.9C496 152.5 498.8 153.7 504.3 153.7C509.8 153.7 512.6 152.5 512.6 151.9C512.6 151.3 509.8 150.1 504.3 150.1Z" fill="#686874"/>
<path d="M573.5 106.2H555.1V151.8H573.5V106.2Z" fill="#686874"/>
<path d="M564.3 154.1C569.16 154.1 573.1 153.07 573.1 151.8C573.1 150.53 569.16 149.5 564.3 149.5C559.44 149.5 555.5 150.53 555.5 151.8C555.5 153.07 559.44 154.1 564.3 154.1Z" fill="white"/>
<path d="M564.3 154.6C559.8 154.6 555 153.7 555 151.8C555 149.9 559.8 149 564.3 149C568.8 149 573.6 149.9 573.6 151.8C573.6 153.7 568.7 154.6 564.3 154.6ZM564.3 150.1C558.8 150.1 556 151.3 556 151.9C556 152.5 558.8 153.7 564.3 153.7C569.8 153.7 572.6 152.5 572.6 151.9C572.6 151.3 569.7 150.1 564.3 150.1Z" fill="#686874"/>
<path d="M573.5 106.2H555.1V151.8H573.5V106.2Z" fill="#686874"/>
<path d="M564.3 154.1C569.16 154.1 573.1 153.07 573.1 151.8C573.1 150.53 569.16 149.5 564.3 149.5C559.44 149.5 555.5 150.53 555.5 151.8C555.5 153.07 559.44 154.1 564.3 154.1Z" fill="white"/>
<path d="M564.3 154.6C559.8 154.6 555 153.7 555 151.8C555 149.9 559.8 149 564.3 149C568.8 149 573.6 149.9 573.6 151.8C573.6 153.7 568.7 154.6 564.3 154.6ZM564.3 150.1C558.8 150.1 556 151.3 556 151.9C556 152.5 558.8 153.7 564.3 153.7C569.8 153.7 572.6 152.5 572.6 151.9C572.6 151.3 569.7 150.1 564.3 150.1Z" fill="#686874"/>
<path d="M636.9 106.2H618.5V151.8H636.9V106.2Z" fill="#686874"/>
<path d="M627.7 154.1C632.56 154.1 636.5 153.07 636.5 151.8C636.5 150.53 632.56 149.5 627.7 149.5C622.84 149.5 618.9 150.53 618.9 151.8C618.9 153.07 622.84 154.1 627.7 154.1Z" fill="white"/>
<path d="M627.7 154.6C623.2 154.6 618.4 153.7 618.4 151.8C618.4 149.9 623.2 149 627.7 149C632.2 149 637 149.9 637 151.8C637 153.7 632.2 154.6 627.7 154.6ZM627.7 150.1C622.2 150.1 619.4 151.3 619.4 151.9C619.4 152.5 622.2 153.7 627.7 153.7C633.2 153.7 636 152.5 636 151.9C636 151.3 633.2 150.1 627.7 150.1Z" fill="#686874"/>
<path d="M636.9 106.2H618.5V151.8H636.9V106.2Z" fill="#686874"/>
<path d="M627.7 154.1C632.56 154.1 636.5 153.07 636.5 151.8C636.5 150.53 632.56 149.5 627.7 149.5C622.84 149.5 618.9 150.53 618.9 151.8C618.9 153.07 622.84 154.1 627.7 154.1Z" fill="white"/>
<path d="M627.7 154.6C623.2 154.6 618.4 153.7 618.4 151.8C618.4 149.9 623.2 149 627.7 149C632.2 149 637 149.9 637 151.8C637 153.7 632.2 154.6 627.7 154.6ZM627.7 150.1C622.2 150.1 619.4 151.3 619.4 151.9C619.4 152.5 622.2 153.7 627.7 153.7C633.2 153.7 636 152.5 636 151.9C636 151.3 633.2 150.1 627.7 150.1Z" fill="#686874"/>
<path d="M696.9 106.2H678.5V151.8H696.9V106.2Z" fill="#686874"/>
<path d="M687.6 154.1C692.46 154.1 696.4 153.07 696.4 151.8C696.4 150.53 692.46 149.5 687.6 149.5C682.74 149.5 678.8 150.53 678.8 151.8C678.8 153.07 682.74 154.1 687.6 154.1Z" fill="white"/>
<path d="M687.6 154.6C683.1 154.6 678.3 153.7 678.3 151.8C678.3 149.9 683.1 149 687.6 149C692.1 149 696.9 149.9 696.9 151.8C696.9 153.7 692.1 154.6 687.6 154.6ZM687.6 150.1C682.1 150.1 679.3 151.3 679.3 151.9C679.3 152.5 682.1 153.7 687.6 153.7C693.1 153.7 695.9 152.5 695.9 151.9C695.9 151.3 693.1 150.1 687.6 150.1Z" fill="#686874"/>
<path d="M1432.8 111.4C1509.9 111.4 1587 111.4 1664.1 111.4C1685.8 111.4 1707.5 111.4 1729.2 111.4C1733.7 111.4 1733.7 104.5 1729.2 104.5C1652.1 104.5 1575 104.5 1497.9 104.5C1476.2 104.5 1454.5 104.5 1432.8 104.5C1428.4 104.5 1428.4 111.4 1432.8 111.4Z" fill="#686874"/>
<path d="M1457.5 39.6V106.2C1457.5 107.9 1454.9 107.9 1454.9 106.2V39.6H1457.5Z" fill="#686874"/>
<path d="M1707.1 39.6V106.2C1707.1 107.9 1704.5 107.9 1704.5 106.2V39.6H1707.1Z" fill="#686874"/>
<path d="M1468.6 106.2H1450.2V151.8H1468.6V106.2Z" fill="#686874"/>
<path d="M1459.3 154.1C1464.16 154.1 1468.1 153.07 1468.1 151.8C1468.1 150.53 1464.16 149.5 1459.3 149.5C1454.44 149.5 1450.5 150.53 1450.5 151.8C1450.5 153.07 1454.44 154.1 1459.3 154.1Z" fill="white"/>
<path d="M1459.3 154.6C1454.8 154.6 1450 153.7 1450 151.8C1450 149.9 1454.8 149 1459.3 149C1463.8 149 1468.6 149.9 1468.6 151.8C1468.6 153.7 1463.8 154.6 1459.3 154.6ZM1459.3 150.1C1453.8 150.1 1451 151.3 1451 151.9C1451 152.5 1453.8 153.7 1459.3 153.7C1464.8 153.7 1467.6 152.5 1467.6 151.9C1467.6 151.3 1464.8 150.1 1459.3 150.1Z" fill="#686874"/>
<path d="M1528.5 106.2H1510.1V151.8H1528.5V106.2Z" fill="#686874"/>
<path d="M1519.3 154.1C1524.16 154.1 1528.1 153.07 1528.1 151.8C1528.1 150.53 1524.16 149.5 1519.3 149.5C1514.44 149.5 1510.5 150.53 1510.5 151.8C1510.5 153.07 1514.44 154.1 1519.3 154.1Z" fill="white"/>
<path d="M1519.3 154.6C1514.8 154.6 1510 153.7 1510 151.8C1510 149.9 1514.8 149 1519.3 149C1523.8 149 1528.6 149.9 1528.6 151.8C1528.6 153.7 1523.8 154.6 1519.3 154.6ZM1519.3 150.1C1513.8 150.1 1511 151.3 1511 151.9C1511 152.5 1513.8 153.7 1519.3 153.7C1524.8 153.7 1527.6 152.5 1527.6 151.9C1527.6 151.3 1524.8 150.1 1519.3 150.1Z" fill="#686874"/>
<path d="M1588.5 106.2H1570.1V151.8H1588.5V106.2Z" fill="#686874"/>
<path d="M1579.3 154.1C1584.16 154.1 1588.1 153.07 1588.1 151.8C1588.1 150.53 1584.16 149.5 1579.3 149.5C1574.44 149.5 1570.5 150.53 1570.5 151.8C1570.5 153.07 1574.44 154.1 1579.3 154.1Z" fill="white"/>
<path d="M1579.3 154.6C1574.8 154.6 1570 153.7 1570 151.8C1570 149.9 1574.8 149 1579.3 149C1583.8 149 1588.6 149.9 1588.6 151.8C1588.6 153.7 1583.7 154.6 1579.3 154.6ZM1579.3 150.1C1573.8 150.1 1571 151.3 1571 151.9C1571 152.5 1573.8 153.7 1579.3 153.7C1584.8 153.7 1587.6 152.5 1587.6 151.9C1587.6 151.3 1584.7 150.1 1579.3 150.1Z" fill="#686874"/>
<path d="M1588.5 106.2H1570.1V151.8H1588.5V106.2Z" fill="#686874"/>
<path d="M1579.3 154.1C1584.16 154.1 1588.1 153.07 1588.1 151.8C1588.1 150.53 1584.16 149.5 1579.3 149.5C1574.44 149.5 1570.5 150.53 1570.5 151.8C1570.5 153.07 1574.44 154.1 1579.3 154.1Z" fill="white"/>
<path d="M1579.3 154.6C1574.8 154.6 1570 153.7 1570 151.8C1570 149.9 1574.8 149 1579.3 149C1583.8 149 1588.6 149.9 1588.6 151.8C1588.6 153.7 1583.7 154.6 1579.3 154.6ZM1579.3 150.1C1573.8 150.1 1571 151.3 1571 151.9C1571 152.5 1573.8 153.7 1579.3 153.7C1584.8 153.7 1587.6 152.5 1587.6 151.9C1587.6 151.3 1584.7 150.1 1579.3 150.1Z" fill="#686874"/>
<path d="M1651.9 106.2H1633.5V151.8H1651.9V106.2Z" fill="#686874"/>
<path d="M1642.7 154.1C1647.56 154.1 1651.5 153.07 1651.5 151.8C1651.5 150.53 1647.56 149.5 1642.7 149.5C1637.84 149.5 1633.9 150.53 1633.9 151.8C1633.9 153.07 1637.84 154.1 1642.7 154.1Z" fill="white"/>
<path d="M1642.7 154.6C1638.2 154.6 1633.4 153.7 1633.4 151.8C1633.4 149.9 1638.2 149 1642.7 149C1647.2 149 1652 149.9 1652 151.8C1652 153.7 1647.2 154.6 1642.7 154.6ZM1642.7 150.1C1637.2 150.1 1634.4 151.3 1634.4 151.9C1634.4 152.5 1637.2 153.7 1642.7 153.7C1648.2 153.7 1651 152.5 1651 151.9C1651 151.3 1648.2 150.1 1642.7 150.1Z" fill="#686874"/>
<path d="M1651.9 106.2H1633.5V151.8H1651.9V106.2Z" fill="#686874"/>
<path d="M1642.7 154.1C1647.56 154.1 1651.5 153.07 1651.5 151.8C1651.5 150.53 1647.56 149.5 1642.7 149.5C1637.84 149.5 1633.9 150.53 1633.9 151.8C1633.9 153.07 1637.84 154.1 1642.7 154.1Z" fill="white"/>
<path d="M1642.7 154.6C1638.2 154.6 1633.4 153.7 1633.4 151.8C1633.4 149.9 1638.2 149 1642.7 149C1647.2 149 1652 149.9 1652 151.8C1652 153.7 1647.2 154.6 1642.7 154.6ZM1642.7 150.1C1637.2 150.1 1634.4 151.3 1634.4 151.9C1634.4 152.5 1637.2 153.7 1642.7 153.7C1648.2 153.7 1651 152.5 1651 151.9C1651 151.3 1648.2 150.1 1642.7 150.1Z" fill="#686874"/>
<path d="M1711.9 106.2H1693.5V151.8H1711.9V106.2Z" fill="#686874"/>
<path d="M1702.6 154.1C1707.46 154.1 1711.4 153.07 1711.4 151.8C1711.4 150.53 1707.46 149.5 1702.6 149.5C1697.74 149.5 1693.8 150.53 1693.8 151.8C1693.8 153.07 1697.74 154.1 1702.6 154.1Z" fill="white"/>
<path d="M1702.6 154.6C1698.1 154.6 1693.3 153.7 1693.3 151.8C1693.3 149.9 1698.1 149 1702.6 149C1707.1 149 1711.9 149.9 1711.9 151.8C1711.9 153.7 1707.1 154.6 1702.6 154.6ZM1702.6 150.1C1697.1 150.1 1694.3 151.3 1694.3 151.9C1694.3 152.5 1697.1 153.7 1702.6 153.7C1708.1 153.7 1710.9 152.5 1710.9 151.9C1710.9 151.3 1708.1 150.1 1702.6 150.1Z" fill="#686874"/>
<path d="M3556.7 111.4C3479.6 111.4 3402.5 111.4 3325.4 111.4C3303.7 111.4 3282 111.4 3260.3 111.4C3255.8 111.4 3255.8 104.5 3260.3 104.5C3337.4 104.5 3414.5 104.5 3491.6 104.5C3513.3 104.5 3535 104.5 3556.7 104.5C3561.1 104.5 3561.1 111.4 3556.7 111.4Z" fill="#686874"/>
<path d="M3532 39.6V106.2C3532 107.9 3534.6 107.9 3534.6 106.2V39.6H3532Z" fill="#686874"/>
<path d="M3282.4 39.6V106.2C3282.4 107.9 3285 107.9 3285 106.2V39.6H3282.4Z" fill="#686874"/>
<path d="M3520.88 151.913H3539.28V106.313H3520.88V151.913Z" fill="#686874"/>
<path d="M3530.1 154.1C3534.96 154.1 3538.9 153.07 3538.9 151.8C3538.9 150.53 3534.96 149.5 3530.1 149.5C3525.24 149.5 3521.3 150.53 3521.3 151.8C3521.3 153.07 3525.24 154.1 3530.1 154.1Z" fill="white"/>
<path d="M3530.1 154.6C3525.6 154.6 3520.8 153.7 3520.8 151.8C3520.8 149.9 3525.6 149 3530.1 149C3534.6 149 3539.4 149.9 3539.4 151.8C3539.4 153.7 3534.6 154.6 3530.1 154.6ZM3530.1 150.1C3524.6 150.1 3521.8 151.3 3521.8 151.9C3521.8 152.5 3524.6 153.7 3530.1 153.7C3535.6 153.7 3538.4 152.5 3538.4 151.9C3538.4 151.3 3535.6 150.1 3530.1 150.1Z" fill="#686874"/>
<path d="M3460.95 151.913H3479.35V106.313H3460.95V151.913Z" fill="#686874"/>
<path d="M3470.2 154.1C3475.06 154.1 3479 153.07 3479 151.8C3479 150.53 3475.06 149.5 3470.2 149.5C3465.34 149.5 3461.4 150.53 3461.4 151.8C3461.4 153.07 3465.34 154.1 3470.2 154.1Z" fill="white"/>
<path d="M3470.2 154.6C3465.7 154.6 3460.9 153.7 3460.9 151.8C3460.9 149.9 3465.7 149 3470.2 149C3474.7 149 3479.5 149.9 3479.5 151.8C3479.5 153.7 3474.7 154.6 3470.2 154.6ZM3470.2 150.1C3464.7 150.1 3461.9 151.3 3461.9 151.9C3461.9 152.5 3464.7 153.7 3470.2 153.7C3475.7 153.7 3478.5 152.5 3478.5 151.9C3478.5 151.3 3475.7 150.1 3470.2 150.1Z" fill="#686874"/>
<path d="M3401.02 151.913H3419.42V106.313H3401.02V151.913Z" fill="#686874"/>
<path d="M3410.2 154.1C3415.06 154.1 3419 153.07 3419 151.8C3419 150.53 3415.06 149.5 3410.2 149.5C3405.34 149.5 3401.4 150.53 3401.4 151.8C3401.4 153.07 3405.34 154.1 3410.2 154.1Z" fill="white"/>
<path d="M3410.2 154.6C3405.7 154.6 3400.9 153.7 3400.9 151.8C3400.9 149.9 3405.7 149 3410.2 149C3414.7 149 3419.5 149.9 3419.5 151.8C3419.5 153.7 3414.7 154.6 3410.2 154.6ZM3410.2 150.1C3404.7 150.1 3401.9 151.3 3401.9 151.9C3401.9 152.5 3404.7 153.7 3410.2 153.7C3415.7 153.7 3418.5 152.5 3418.5 151.9C3418.5 151.3 3415.7 150.1 3410.2 150.1Z" fill="#686874"/>
<path d="M3401.02 151.913H3419.42V106.313H3401.02V151.913Z" fill="#686874"/>
<path d="M3410.2 154.1C3415.06 154.1 3419 153.07 3419 151.8C3419 150.53 3415.06 149.5 3410.2 149.5C3405.34 149.5 3401.4 150.53 3401.4 151.8C3401.4 153.07 3405.34 154.1 3410.2 154.1Z" fill="white"/>
<path d="M3410.2 154.6C3405.7 154.6 3400.9 153.7 3400.9 151.8C3400.9 149.9 3405.7 149 3410.2 149C3414.7 149 3419.5 149.9 3419.5 151.8C3419.5 153.7 3414.7 154.6 3410.2 154.6ZM3410.2 150.1C3404.7 150.1 3401.9 151.3 3401.9 151.9C3401.9 152.5 3404.7 153.7 3410.2 153.7C3415.7 153.7 3418.5 152.5 3418.5 151.9C3418.5 151.3 3415.7 150.1 3410.2 150.1Z" fill="#686874"/>
<path d="M3337.57 151.913H3355.97V106.313H3337.57V151.913Z" fill="#686874"/>
<path d="M3346.8 154.1C3351.66 154.1 3355.6 153.07 3355.6 151.8C3355.6 150.53 3351.66 149.5 3346.8 149.5C3341.94 149.5 3338 150.53 3338 151.8C3338 153.07 3341.94 154.1 3346.8 154.1Z" fill="white"/>
<path d="M3346.8 154.6C3342.3 154.6 3337.5 153.7 3337.5 151.8C3337.5 149.9 3342.3 149 3346.8 149C3351.3 149 3356.1 149.9 3356.1 151.8C3356.1 153.7 3351.3 154.6 3346.8 154.6ZM3346.8 150.1C3341.3 150.1 3338.5 151.3 3338.5 151.9C3338.5 152.5 3341.3 153.7 3346.8 153.7C3352.3 153.7 3355.1 152.5 3355.1 151.9C3355.1 151.3 3352.3 150.1 3346.8 150.1Z" fill="#686874"/>
<path d="M3337.57 151.913H3355.97V106.313H3337.57V151.913Z" fill="#686874"/>
<path d="M3346.8 154.1C3351.66 154.1 3355.6 153.07 3355.6 151.8C3355.6 150.53 3351.66 149.5 3346.8 149.5C3341.94 149.5 3338 150.53 3338 151.8C3338 153.07 3341.94 154.1 3346.8 154.1Z" fill="white"/>
<path d="M3346.8 154.6C3342.3 154.6 3337.5 153.7 3337.5 151.8C3337.5 149.9 3342.3 149 3346.8 149C3351.3 149 3356.1 149.9 3356.1 151.8C3356.1 153.7 3351.3 154.6 3346.8 154.6ZM3346.8 150.1C3341.3 150.1 3338.5 151.3 3338.5 151.9C3338.5 152.5 3341.3 153.7 3346.8 153.7C3352.3 153.7 3355.1 152.5 3355.1 151.9C3355.1 151.3 3352.3 150.1 3346.8 150.1Z" fill="#686874"/>
<path d="M3277.66 151.913H3296.06V106.313H3277.66V151.913Z" fill="#686874"/>
<path d="M3286.8 154.1C3291.66 154.1 3295.6 153.07 3295.6 151.8C3295.6 150.53 3291.66 149.5 3286.8 149.5C3281.94 149.5 3278 150.53 3278 151.8C3278 153.07 3281.94 154.1 3286.8 154.1Z" fill="white"/>
<path d="M3286.8 154.6C3282.3 154.6 3277.5 153.7 3277.5 151.8C3277.5 149.9 3282.3 149 3286.8 149C3291.3 149 3296.1 149.9 3296.1 151.8C3296.1 153.7 3291.3 154.6 3286.8 154.6ZM3286.8 150.1C3281.3 150.1 3278.5 151.3 3278.5 151.9C3278.5 152.5 3281.3 153.7 3286.8 153.7C3292.3 153.7 3295.1 152.5 3295.1 151.9C3295.1 151.3 3292.3 150.1 3286.8 150.1Z" fill="#686874"/>
<path d="M2566.7 111.4C2489.6 111.4 2412.5 111.4 2335.4 111.4C2313.7 111.4 2292 111.4 2270.3 111.4C2265.8 111.4 2265.8 104.5 2270.3 104.5C2347.4 104.5 2424.5 104.5 2501.6 104.5C2523.3 104.5 2545 104.5 2566.7 104.5C2571.1 104.5 2571.1 111.4 2566.7 111.4Z" fill="#686874"/>
<path d="M2542 39.6V106.2C2542 107.9 2544.6 107.9 2544.6 106.2V39.6H2542Z" fill="#686874"/>
<path d="M2292.4 39.6V106.2C2292.4 107.9 2295 107.9 2295 106.2V39.6H2292.4Z" fill="#686874"/>
<path d="M2530.88 151.913H2549.28V106.313H2530.88V151.913Z" fill="#686874"/>
<path d="M2540.1 154.1C2544.96 154.1 2548.9 153.07 2548.9 151.8C2548.9 150.53 2544.96 149.5 2540.1 149.5C2535.24 149.5 2531.3 150.53 2531.3 151.8C2531.3 153.07 2535.24 154.1 2540.1 154.1Z" fill="white"/>
<path d="M2540.1 154.6C2535.6 154.6 2530.8 153.7 2530.8 151.8C2530.8 149.9 2535.6 149 2540.1 149C2544.6 149 2549.4 149.9 2549.4 151.8C2549.4 153.7 2544.6 154.6 2540.1 154.6ZM2540.1 150.1C2534.6 150.1 2531.8 151.3 2531.8 151.9C2531.8 152.5 2534.6 153.7 2540.1 153.7C2545.6 153.7 2548.4 152.5 2548.4 151.9C2548.4 151.3 2545.6 150.1 2540.1 150.1Z" fill="#686874"/>
<path d="M2470.95 151.913H2489.35V106.313H2470.95V151.913Z" fill="#686874"/>
<path d="M2480.2 154.1C2485.06 154.1 2489 153.07 2489 151.8C2489 150.53 2485.06 149.5 2480.2 149.5C2475.34 149.5 2471.4 150.53 2471.4 151.8C2471.4 153.07 2475.34 154.1 2480.2 154.1Z" fill="white"/>
<path d="M2480.2 154.6C2475.7 154.6 2470.9 153.7 2470.9 151.8C2470.9 149.9 2475.7 149 2480.2 149C2484.7 149 2489.5 149.9 2489.5 151.8C2489.5 153.7 2484.7 154.6 2480.2 154.6ZM2480.2 150.1C2474.7 150.1 2471.9 151.3 2471.9 151.9C2471.9 152.5 2474.7 153.7 2480.2 153.7C2485.7 153.7 2488.5 152.5 2488.5 151.9C2488.5 151.3 2485.7 150.1 2480.2 150.1Z" fill="#686874"/>
<path d="M2411.02 151.913H2429.42V106.313H2411.02V151.913Z" fill="#686874"/>
<path d="M2420.2 154.1C2425.06 154.1 2429 153.07 2429 151.8C2429 150.53 2425.06 149.5 2420.2 149.5C2415.34 149.5 2411.4 150.53 2411.4 151.8C2411.4 153.07 2415.34 154.1 2420.2 154.1Z" fill="white"/>
<path d="M2420.2 154.6C2415.7 154.6 2410.9 153.7 2410.9 151.8C2410.9 149.9 2415.7 149 2420.2 149C2424.7 149 2429.5 149.9 2429.5 151.8C2429.5 153.7 2424.7 154.6 2420.2 154.6ZM2420.2 150.1C2414.7 150.1 2411.9 151.3 2411.9 151.9C2411.9 152.5 2414.7 153.7 2420.2 153.7C2425.7 153.7 2428.5 152.5 2428.5 151.9C2428.5 151.3 2425.7 150.1 2420.2 150.1Z" fill="#686874"/>
<path d="M2411.02 151.913H2429.42V106.313H2411.02V151.913Z" fill="#686874"/>
<path d="M2420.2 154.1C2425.06 154.1 2429 153.07 2429 151.8C2429 150.53 2425.06 149.5 2420.2 149.5C2415.34 149.5 2411.4 150.53 2411.4 151.8C2411.4 153.07 2415.34 154.1 2420.2 154.1Z" fill="white"/>
<path d="M2420.2 154.6C2415.7 154.6 2410.9 153.7 2410.9 151.8C2410.9 149.9 2415.7 149 2420.2 149C2424.7 149 2429.5 149.9 2429.5 151.8C2429.5 153.7 2424.7 154.6 2420.2 154.6ZM2420.2 150.1C2414.7 150.1 2411.9 151.3 2411.9 151.9C2411.9 152.5 2414.7 153.7 2420.2 153.7C2425.7 153.7 2428.5 152.5 2428.5 151.9C2428.5 151.3 2425.7 150.1 2420.2 150.1Z" fill="#686874"/>
<path d="M2347.57 151.913H2365.97V106.313H2347.57V151.913Z" fill="#686874"/>
<path d="M2356.8 154.1C2361.66 154.1 2365.6 153.07 2365.6 151.8C2365.6 150.53 2361.66 149.5 2356.8 149.5C2351.94 149.5 2348 150.53 2348 151.8C2348 153.07 2351.94 154.1 2356.8 154.1Z" fill="white"/>
<path d="M2356.8 154.6C2352.3 154.6 2347.5 153.7 2347.5 151.8C2347.5 149.9 2352.3 149 2356.8 149C2361.3 149 2366.1 149.9 2366.1 151.8C2366.1 153.7 2361.3 154.6 2356.8 154.6ZM2356.8 150.1C2351.3 150.1 2348.5 151.3 2348.5 151.9C2348.5 152.5 2351.3 153.7 2356.8 153.7C2362.3 153.7 2365.1 152.5 2365.1 151.9C2365.1 151.3 2362.3 150.1 2356.8 150.1Z" fill="#686874"/>
<path d="M2347.57 151.913H2365.97V106.313H2347.57V151.913Z" fill="#686874"/>
<path d="M2356.8 154.1C2361.66 154.1 2365.6 153.07 2365.6 151.8C2365.6 150.53 2361.66 149.5 2356.8 149.5C2351.94 149.5 2348 150.53 2348 151.8C2348 153.07 2351.94 154.1 2356.8 154.1Z" fill="white"/>
<path d="M2356.8 154.6C2352.3 154.6 2347.5 153.7 2347.5 151.8C2347.5 149.9 2352.3 149 2356.8 149C2361.3 149 2366.1 149.9 2366.1 151.8C2366.1 153.7 2361.3 154.6 2356.8 154.6ZM2356.8 150.1C2351.3 150.1 2348.5 151.3 2348.5 151.9C2348.5 152.5 2351.3 153.7 2356.8 153.7C2362.3 153.7 2365.1 152.5 2365.1 151.9C2365.1 151.3 2362.3 150.1 2356.8 150.1Z" fill="#686874"/>
<path d="M2287.66 151.913H2306.06V106.313H2287.66V151.913Z" fill="#686874"/>
<path d="M2296.8 154.1C2301.66 154.1 2305.6 153.07 2305.6 151.8C2305.6 150.53 2301.66 149.5 2296.8 149.5C2291.94 149.5 2288 150.53 2288 151.8C2288 153.07 2291.94 154.1 2296.8 154.1Z" fill="white"/>
<path d="M2296.8 154.6C2292.3 154.6 2287.5 153.7 2287.5 151.8C2287.5 149.9 2292.3 149 2296.8 149C2301.3 149 2306.1 149.9 2306.1 151.8C2306.1 153.7 2301.3 154.6 2296.8 154.6ZM2296.8 150.1C2291.3 150.1 2288.5 151.3 2288.5 151.9C2288.5 152.5 2291.3 153.7 2296.8 153.7C2302.3 153.7 2305.1 152.5 2305.1 151.9C2305.1 151.3 2302.3 150.1 2296.8 150.1Z" fill="#686874"/>
<path d="M2804.7 246.2H2784.3V308.4H2804.7V246.2Z" fill="#686874"/>
<path d="M2794.5 310.9C2799.91 310.9 2804.3 309.781 2804.3 308.4C2804.3 307.019 2799.91 305.9 2794.5 305.9C2789.09 305.9 2784.7 307.019 2784.7 308.4C2784.7 309.781 2789.09 310.9 2794.5 310.9Z" fill="white"/>
<path d="M2794.5 311.4C2789.5 311.4 2784.2 310.5 2784.2 308.4C2784.2 306.3 2789.5 305.4 2794.5 305.4C2799.5 305.4 2804.8 306.3 2804.8 308.4C2804.8 310.5 2799.4 311.4 2794.5 311.4ZM2794.5 306.4C2788.5 306.4 2785.2 307.7 2785.2 308.4C2785.2 309.1 2788.5 310.4 2794.5 310.4C2800.5 310.4 2803.8 309.1 2803.8 308.4C2803.8 307.7 2800.5 306.4 2794.5 306.4Z" fill="#686874"/>
<path d="M2796.4 248.1C2796.4 179.2 2796.4 110.2 2796.4 41.3C2796.4 38.9 2792.6 38.9 2792.6 41.3C2792.6 110.2 2792.6 179.2 2792.6 248.1C2792.6 250.5 2796.4 250.6 2796.4 248.1Z" fill="#686874"/>
<path d="M3101.2 166.9H3080.8V229.1H3101.2V166.9Z" fill="#686874"/>
<path d="M3091 231.5C3096.41 231.5 3100.8 230.381 3100.8 229C3100.8 227.619 3096.41 226.5 3091 226.5C3085.59 226.5 3081.2 227.619 3081.2 229C3081.2 230.381 3085.59 231.5 3091 231.5Z" fill="white"/>
<path d="M3091 232C3086 232 3080.7 231.1 3080.7 229C3080.7 226.9 3086 226 3091 226C3096 226 3101.3 226.9 3101.3 229C3101.3 231.1 3095.9 232 3091 232ZM3091 227C3085 227 3081.7 228.3 3081.7 229C3081.7 229.7 3085 231 3091 231C3097 231 3100.3 229.7 3100.3 229C3100.3 228.3 3097 227 3091 227Z" fill="#686874"/>
<path d="M3089.1 42.4C3089.1 84.5 3089.1 126.7 3089.1 168.8C3089.1 171.2 3092.9 171.2 3092.9 168.8C3092.9 126.7 3092.9 84.5 3092.9 42.4C3092.9 40 3089.1 40 3089.1 42.4Z" fill="#686874"/>
<path d="M961.7 246.2H941.3V308.4H961.7V246.2Z" fill="#686874"/>
<path d="M951.5 310.9C956.912 310.9 961.3 309.781 961.3 308.4C961.3 307.019 956.912 305.9 951.5 305.9C946.088 305.9 941.7 307.019 941.7 308.4C941.7 309.781 946.088 310.9 951.5 310.9Z" fill="white"/>
<path d="M951.5 311.4C946.5 311.4 941.2 310.5 941.2 308.4C941.2 306.3 946.5 305.4 951.5 305.4C956.5 305.4 961.8 306.3 961.8 308.4C961.8 310.5 956.4 311.4 951.5 311.4ZM951.5 306.4C945.5 306.4 942.2 307.7 942.2 308.4C942.2 309.1 945.5 310.4 951.5 310.4C957.5 310.4 960.8 309.1 960.8 308.4C960.8 307.7 957.5 306.4 951.5 306.4Z" fill="#686874"/>
<path d="M953.4 248.1C953.4 179.2 953.4 110.2 953.4 41.3C953.4 38.9 949.6 38.9 949.6 41.3C949.6 110.2 949.6 179.2 949.6 248.1C949.6 250.5 953.4 250.6 953.4 248.1Z" fill="#686874"/>
<path d="M1260.1 165.1H1239.7V227.3H1260.1V165.1Z" fill="#686874"/>
<path d="M1249.9 229.8C1255.31 229.8 1259.7 228.681 1259.7 227.3C1259.7 225.919 1255.31 224.8 1249.9 224.8C1244.49 224.8 1240.1 225.919 1240.1 227.3C1240.1 228.681 1244.49 229.8 1249.9 229.8Z" fill="white"/>
<path d="M1249.9 230.3C1244.9 230.3 1239.6 229.4 1239.6 227.3C1239.6 225.2 1244.9 224.3 1249.9 224.3C1254.9 224.3 1260.2 225.2 1260.2 227.3C1260.2 229.4 1254.8 230.3 1249.9 230.3ZM1249.9 225.2C1243.9 225.2 1240.6 226.5 1240.6 227.2C1240.6 227.9 1243.9 229.2 1249.9 229.2C1255.9 229.2 1259.2 227.9 1259.2 227.2C1259.2 226.6 1255.9 225.2 1249.9 225.2Z" fill="#686874"/>
<path d="M1248 40.6C1248 82.7 1248 124.9 1248 167C1248 169.4 1251.8 169.4 1251.8 167C1251.8 124.9 1251.8 82.7 1251.8 40.6C1251.8 38.2 1248 38.2 1248 40.6Z" fill="#686874"/>
<path d="M176.5 166.1H156.1V228.3H176.5V166.1Z" fill="#686874"/>
<path d="M166.3 230.8C171.712 230.8 176.1 229.681 176.1 228.3C176.1 226.919 171.712 225.8 166.3 225.8C160.888 225.8 156.5 226.919 156.5 228.3C156.5 229.681 160.888 230.8 166.3 230.8Z" fill="white"/>
<path d="M166.3 231.3C161.3 231.3 156 230.4 156 228.3C156 226.2 161.3 225.3 166.3 225.3C171.3 225.3 176.6 226.2 176.6 228.3C176.6 230.4 171.3 231.3 166.3 231.3ZM166.3 226.2C160.3 226.2 157 227.5 157 228.2C157 228.9 160.3 230.2 166.3 230.2C172.3 230.2 175.6 228.9 175.6 228.2C175.6 227.6 172.3 226.2 166.3 226.2Z" fill="#686874"/>
<path d="M164.4 41.6C164.4 83.7 164.4 125.9 164.4 168C164.4 170.4 168.2 170.4 168.2 168C168.2 125.9 168.2 83.7 168.2 41.6C168.2 39.2 164.4 39.2 164.4 41.6Z" fill="#686874"/>
<path d="M139.4 755.2L124.7 800.5H98.4L82.9 755.7L100.8 755.6L106.5 755.5L119.9 755.4L139.4 755.2Z" fill="#686874"/>
<path d="M158.6 648.8C158.7 645 160.6 641.5 162.5 638.2C164.5 634.8 166.4 631.4 168.4 627.9C164.6 627.2 161.2 630.8 159.8 634.4C158.4 638 158.1 642.1 156.1 645.5C152.6 651.4 145 653.6 140.4 658.6C135.1 664.5 134.5 673.1 134.5 681C134.5 684.5 134.4 688.3 132.4 691.2C130.5 693.9 127.1 695.3 125.1 697.9C122.8 700.9 122.7 704.9 122.8 708.6C122.9 716 123.6 723.3 124.7 730.6L125.2 730.9C128.1 730.9 128.6 726.7 130.8 724.8C132.1 723.7 133.8 723.4 135.4 723C142.5 721 148 714.1 148.3 706.7C148.4 702.9 147.4 698.7 149.5 695.6C150.7 693.8 152.7 692.7 154.6 691.5C159.5 688.5 164.4 684.7 166.2 679.2C168 673.8 166.4 667.8 163.8 662.6C161.6 658.2 158.5 653.8 158.6 648.8Z" fill="#95D145"/>
<path d="M110.8 655.4C111.7 652.2 113.8 649.6 115.3 646.7C121.3 635.5 118.5 620.2 108.9 611.9C106.5 609.8 103.7 608.1 101.8 605.5C97.6001 599.9 99.4001 590.7 105.4 587.1C100.7 589.7 96.2001 593 93.4001 597.6C90.6001 602.2 89.6001 608.2 92.0001 613C92.8001 614.7 94.1001 616.3 94.5001 618.1C95.2001 620.9 93.9001 623.7 92.6001 626.3C89.4001 632.6 86.0001 639 84.5001 645.9C83.0001 652.8 83.9001 660.7 88.6001 666C90.0001 667.6 91.7001 668.9 92.5001 670.9C93.0001 672.1 93.1001 673.4 93.1001 674.7C93.0001 680.2 90.8001 685.4 90.7001 690.9C90.4001 700.5 96.4001 709.1 102.1 716.9L104.6 717.3C110.2 711.3 115.2 704.3 116.8 696.2C118.3 688.9 116.8 681.2 114.3 674.1C112.1 668 109 661.6 110.8 655.4Z" fill="#95D145"/>
<path d="M97.9 717.5C98 714.8 96.4 712.4 94.9 710.2C94.2 709.2 93.6 708.2 92.6 707.6C91.5 706.9 90.2 706.6 89 706.3C82.2 704.5 75.7001 699.6 74.3001 692.7C73.5001 688.5 74.5001 683.6 71.8001 680.3C68.9001 676.8 63.4 677.2 59.3 675.1C56.4 673.6 54.2 670.8 53.5 667.7C53.3 666.8 52.8 665.7 51.9 666C51.7 666.1 51.5 666.3 51.4 666.5C49.2 669.8 49.6 674.3 50.9 678.2C51.5 680.1 52.4 682.1 53.7 683.6C56 686 59.4 687 62.2 688.7C67.4 691.8 70.8 698.4 69 704.2C68.4 706.2 67.2 708 66.7 710.1C66 713.1 67.1 716.4 69.2 718.7C71.3 721 74.4 722.2 77.5 722.5C78.5 722.6 79.7 722.6 80.4 723.4C81.6 724.6 80.8 726.6 80.6 728.3C80.3 732.2 84.2 735.1 87.6 737.1C91 739.1 94.9 741.8 94.7 745.8L95.5 743.5C94.9 736.4 94.4 729.1 96.6 722.4C97.2 720.6 97.8 719.1 97.9 717.5Z" fill="#95D145"/>
<path d="M106.3 765.6L102.7 717.4C97.5 687.2 96.3 665.4 99.1 652.5C101 643.8 101.1 637.7 101.3 625.7C101.3 623.8 101.4 619.7 99.9 614.9C98.7 610.8 96.7 607 93.9 603.5L95.5 602.3C98.4 606 100.5 610 101.8 614.3C103.3 619.5 103.3 623.7 103.2 625.8C103 638 102.9 644.1 100.9 653C98.2 665.6 99.4 687.3 104.5 717.3L108.1 765.6H106.3Z" fill="#686874"/>
<path d="M117.7 770.1L115.7 769.7L124.6 729.1C127.9 714.1 132.9 701.3 139.5 691.1L140.1 690.1C142.1 687 144.8 682.9 147.2 676.5C149.3 670.8 149.8 666.8 150.3 662.5C150.6 660.4 150.8 658.1 151.3 655.7C153.2 646.6 157.5 637.8 164.3 629.4L165.9 630.7C159.3 638.9 155.1 647.4 153.3 656.2C152.8 658.6 152.5 660.7 152.3 662.8C151.8 667 151.3 671.3 149.1 677.2C146.7 683.8 143.8 688.2 141.8 691.2L141.2 692.2C134.7 702.2 129.8 714.7 126.6 729.5L117.7 770.1Z" fill="#686874"/>
<path d="M102.1 760.9L94.3001 743.7C92.9001 737 90.6 730.7 87.7 725C85.6 721 83.8 718.5 82 716.1C79.9 713.2 77.7 710.3 75.1 704.9C73.2 700.9 72.4001 698.4 71.8001 696.4C71.1001 694.3 70.6 692.7 69.1 690.2C65.4 684.3 59.8 679.5 52.3 676.1L53.1 674.3C61 677.9 66.9001 682.9 70.8001 689.2C72.5001 691.9 73 693.7 73.7 695.9C74.4 697.9 75.1001 700.2 76.9001 704.1C79.4001 709.3 81.4 712.1 83.6 715C85.4 717.5 87.3001 720 89.4001 724.1C92.5001 729.9 94.7 736.3 96.2 743.2L103.9 760.1L102.1 760.9Z" fill="#686874"/>
<path d="M1841.8 777.6L1827.1 822.8H1800.7L1785.3 778.1L1803.1 777.9H1808.9L1822.3 777.7L1841.8 777.6Z" fill="#686874"/>
<path d="M1861 671.2C1861.1 667.4 1863 663.9 1864.9 660.6C1866.9 657.2 1868.8 653.8 1870.8 650.3C1867 649.6 1863.6 653.2 1862.2 656.8C1860.8 660.4 1860.5 664.5 1858.5 667.9C1855 673.8 1847.4 676 1842.8 681C1837.5 686.9 1836.9 695.5 1836.9 703.4C1836.9 706.9 1836.8 710.7 1834.8 713.6C1832.9 716.3 1829.5 717.7 1827.5 720.3C1825.2 723.3 1825.1 727.3 1825.2 731C1825.3 738.4 1826 745.7 1827.1 753L1827.6 753.3C1830.5 753.3 1831 749.1 1833.2 747.2C1834.5 746.1 1836.2 745.8 1837.8 745.4C1844.9 743.4 1850.4 736.5 1850.7 729.1C1850.8 725.3 1849.8 721.1 1851.9 718C1853.1 716.2 1855.1 715.1 1857 713.9C1861.9 710.9 1866.8 707.1 1868.6 701.6C1870.4 696.2 1868.8 690.2 1866.2 685C1864 680.6 1860.9 676.2 1861 671.2Z" fill="#95D145"/>
<path d="M1813.1 677.8C1814 674.6 1816.1 672 1817.6 669.1C1823.6 657.9 1820.8 642.6 1811.2 634.3C1808.8 632.2 1806 630.5 1804.1 627.9C1799.9 622.3 1801.7 613.1 1807.7 609.5C1803 612.1 1798.5 615.4 1795.7 620C1792.9 624.6 1791.9 630.6 1794.3 635.4C1795.1 637.1 1796.4 638.7 1796.8 640.5C1797.5 643.3 1796.2 646.1 1794.9 648.7C1791.7 655 1788.3 661.4 1786.8 668.3C1785.3 675.2 1786.2 683.1 1790.9 688.4C1792.3 690 1794 691.3 1794.8 693.3C1795.3 694.5 1795.4 695.8 1795.4 697.1C1795.3 702.6 1793.1 707.8 1793 713.3C1792.7 722.9 1798.7 731.5 1804.4 739.3L1806.9 739.7C1812.5 733.7 1817.5 726.7 1819.1 718.6C1820.6 711.3 1819.1 703.6 1816.6 696.5C1814.4 690.3 1811.4 684 1813.1 677.8Z" fill="#95D145"/>
<path d="M1800.2 739.8C1800.3 737.1 1798.7 734.7 1797.2 732.5C1796.5 731.5 1795.9 730.5 1794.9 729.9C1793.8 729.2 1792.5 728.9 1791.3 728.6C1784.5 726.8 1778 721.9 1776.6 715C1775.8 710.8 1776.8 705.9 1774.1 702.6C1771.2 699.1 1765.7 699.5 1761.6 697.4C1758.7 695.9 1756.5 693.1 1755.8 690C1755.6 689.1 1755.1 688 1754.2 688.3C1754 688.4 1753.8 688.6 1753.7 688.8C1751.5 692.1 1751.9 696.6 1753.2 700.5C1753.8 702.4 1754.7 704.4 1756 705.9C1758.3 708.3 1761.7 709.3 1764.5 711C1769.7 714.1 1773.1 720.7 1771.3 726.5C1770.7 728.5 1769.5 730.3 1769 732.4C1768.3 735.4 1769.4 738.7 1771.5 741C1773.6 743.3 1776.7 744.5 1779.8 744.8C1780.8 744.9 1782 744.9 1782.7 745.7C1783.9 746.9 1783.1 748.9 1782.9 750.6C1782.6 754.5 1786.5 757.4 1789.9 759.4C1793.3 761.4 1797.2 764.1 1797 768.1L1797.8 765.8C1797.2 758.7 1796.7 751.4 1798.9 744.7C1799.5 742.9 1800.2 741.4 1800.2 739.8Z" fill="#95D145"/>
<path d="M1808.6 787.9L1805 739.7C1799.8 709.5 1798.6 687.7 1801.4 674.8C1803.3 666.1 1803.4 660 1803.6 648C1803.6 646.1 1803.7 642 1802.2 637.1C1801 633 1799 629.2 1796.2 625.7L1797.8 624.5C1800.7 628.2 1802.8 632.2 1804.1 636.5C1805.6 641.7 1805.6 645.9 1805.5 648C1805.3 660.2 1805.2 666.3 1803.2 675.2C1800.4 687.8 1801.7 709.5 1806.8 739.5L1810.4 787.8L1808.6 787.9Z" fill="#686874"/>
<path d="M1820.1 792.4L1818.1 792L1827 751.4C1830.3 736.4 1835.3 723.6 1841.9 713.4L1842.5 712.4C1844.5 709.4 1847.2 705.2 1849.6 698.8C1851.7 693.1 1852.2 689.1 1852.7 684.8C1853 682.7 1853.2 680.4 1853.7 678C1855.6 668.9 1859.9 660.1 1866.7 651.7L1868.3 653C1861.7 661.2 1857.5 669.7 1855.7 678.5C1855.2 680.9 1854.9 683 1854.7 685.1C1854.2 689.3 1853.7 693.6 1851.5 699.5C1849.1 706.1 1846.2 710.5 1844.2 713.5L1843.6 714.5C1837.1 724.5 1832.2 737 1829 751.8L1820.1 792.4Z" fill="#686874"/>
<path d="M1804.4 783.2L1796.6 766C1795.2 759.3 1792.9 753 1790 747.3C1787.9 743.3 1786.1 740.8 1784.3 738.4C1782.2 735.5 1780 732.6 1777.4 727.2C1775.5 723.2 1774.7 720.7 1774.1 718.7C1773.4 716.6 1772.9 715 1771.4 712.5C1767.7 706.6 1762.1 701.8 1754.6 698.4L1755.4 696.6C1763.3 700.2 1769.2 705.2 1773.1 711.5C1774.8 714.2 1775.3 716 1776 718.2C1776.7 720.2 1777.4 722.5 1779.2 726.4C1781.7 731.6 1783.7 734.4 1785.9 737.3C1787.7 739.8 1789.6 742.3 1791.7 746.4C1794.8 752.2 1797 758.6 1798.5 765.5L1806.2 782.4L1804.4 783.2Z" fill="#686874"/>
<path d="M213.6 388.9H106.6V535.6H213.6V388.9Z" fill="#686874"/>
<path d="M210 393.7H110.1V530.7H210V393.7Z" fill="white"/>
<path d="M133.672 500.549H185.272V423.849H133.672V500.549Z" fill="#FA9E00"/>
<path d="M184 499.3H131.1V421.3H184V499.3ZM132.4 498H182.7V422.6H132.4V498V498Z" fill="#686874"/>
<path d="M2317.4 1010.8C2317.4 1025.5 2310.1 1038.4 2298.8 1046.2C2297.5 1047.1 2296.2 1047.9 2294.8 1048.6H2253.9C2252.5 1047.9 2251.2 1047 2249.9 1046.2C2238.7 1038.4 2231.3 1025.5 2231.3 1010.8C2231.3 987 2250.6 967.8 2274.3 967.8C2298.1 967.8 2317.4 987.1 2317.4 1010.8Z" fill="#686874"/>
<path d="M2271.4 719.2C2271.4 793.2 2271.4 867.2 2271.4 941.2C2271.4 962.3 2271.4 983.4 2271.4 1004.5C2271.4 1008.3 2277.3 1008.3 2277.3 1004.5C2277.3 930.3 2277.3 856.1 2277.3 781.9C2277.3 761 2277.3 740.1 2277.3 719.2C2277.3 715.4 2271.4 715.4 2271.4 719.2Z" fill="#686874"/>
<path d="M2274.2 809.5C2274.6 808.5 2276.7 808.3 2278.2 808.3C2289.4 804.9 2305.5 801.5 2324.7 802.1C2366.9 803.5 2396.3 823.9 2397 822.3C2397.6 820.9 2374.6 806.1 2343.8 798.4C2329.4 794.8 2321.3 794.7 2319.3 794.7C2300 794.7 2284.9 801.6 2276.4 806.4C2285.9 799.3 2303.1 788.6 2326.9 784.9C2375.4 777.4 2411.9 805.3 2419.1 811C2412.1 804.7 2381.9 779.3 2337.4 780.5C2306.3 781.3 2283.9 794.7 2274.6 801.1C2284.2 793.6 2311 774.8 2349.6 773.6C2375 772.8 2394.9 780 2405.8 784.9C2396.3 779.2 2378.5 770.4 2354.9 769.1C2311.6 766.8 2281.4 791.7 2274.2 798C2279.5 791.8 2306.2 762.1 2350.6 758.7C2382.8 756.3 2406.8 769 2415.8 774.4C2408.5 769.2 2398.9 763.4 2386.8 758.7C2379.9 756 2373.4 754.1 2367.7 752.8C2345.5 752.7 2316 756.6 2292.7 776.5C2281.6 785.9 2274.1 797.1 2274.9 797.8C2277.6 800.3 2401.9 670 2400.4 668.5C2399.6 667.7 2355.3 710.6 2299.6 765.3C2322.9 730 2346.2 694.7 2369.5 659.4C2348.2 687.5 2326.9 715.6 2305.7 743.7C2329.1 701.4 2352.5 659.1 2375.9 616.8C2355 651.1 2334.1 685.4 2313.1 719.7C2325.2 683.5 2337.4 647.4 2349.5 611.2C2334.7 646.3 2319.9 681.4 2305.1 716.5C2327.8 632 2338.4 589.5 2337 589.1C2335.5 588.7 2320.6 635.2 2292.3 728.7C2304.6 648.1 2310.1 607.6 2308.8 607.4C2307.4 607.2 2298.3 653 2281.4 744.9C2287 702.3 2292.6 659.8 2298.2 617.2C2290.8 660 2283.3 702.8 2275.9 745.7C2277.5 700.9 2279.1 656.2 2280.7 611.4C2277 661.5 2273.3 711.6 2269.5 761.7C2265.3 699.5 2261.2 637.3 2257 575.1C2256.8 613.6 2256.5 652.2 2256.3 690.7C2248.7 660.3 2241.2 629.9 2233.6 599.6C2249.1 685.7 2255.7 728.9 2253.5 729.4C2251.2 729.9 2239.9 686.4 2219.5 598.9C2229.3 648 2239.1 697 2248.9 746.1C2228 695.2 2207.1 644.2 2186.1 593.3C2204.3 645.5 2222.5 697.8 2240.7 750C2214.9 702.2 2189.2 654.5 2163.4 606.7C2186.5 656.1 2209.5 705.5 2232.6 754.9C2224 749.6 2213.3 744.1 2200.7 739.7C2171.9 729.5 2146.2 729.2 2129.4 730.5C2146.1 730.8 2175.1 733.6 2206.7 749.3C2228.7 760.3 2244.5 773.8 2254.6 784.1C2239.7 773.9 2217.2 761.5 2187.9 755.4C2177.8 753.3 2168.4 752.3 2159.9 751.9C2170.2 754.8 2181 758.3 2192.2 762.5C2216.9 771.8 2238.2 782.7 2256 793.4C2240.5 785.4 2209.4 772.3 2181.2 784.5C2179.3 785.3 2177.4 786.3 2175.5 787.3C2184.9 785.7 2198 784.6 2213.4 786.6C2232.8 789.1 2247.9 795.5 2257.4 800.4C2252.5 799.5 2241.8 798.2 2229.4 802.5C2215.4 807.4 2207.3 816.7 2204.2 820.6C2209 816 2222.2 804.6 2241.8 802.9C2249.3 802.2 2255.7 803.1 2260.6 804.3C2257.4 805.6 2253.2 807.7 2248.9 811.2C2238 820.1 2234.2 832.2 2234.7 832.5C2235.2 832.8 2239.5 823.3 2250.5 814.2C2252.2 812.8 2260.4 806.1 2262.1 807.5C2263.5 808.7 2260.9 815.9 2241.8 843.2C2246.6 841.1 2258.2 835.1 2264.9 821.9C2267.2 817.4 2268.4 813.2 2269 809.7C2275.5 812.9 2283.2 818.1 2285.3 826.4C2287.2 834 2283.6 841.1 2283.9 841.1C2284.2 841.2 2290.3 830.8 2286.6 822.3C2283.3 814.7 2273.4 811.8 2274.2 809.5Z" fill="#72A324"/>
<path d="M2269.5 808.9C2264.9 807.5 2255.1 805.3 2244 808.9C2229.6 813.6 2222.7 825.5 2222.8 825.4C2226.2 820.8 2242 800.7 2262.4 802.3C2264.4 802.5 2266.5 802.8 2268.7 803.5C2256.7 794.6 2238.5 783.3 2214.6 776.4C2184.6 767.8 2162.4 770.9 2162.5 769.7C2162.5 768.2 2201 759.9 2239 776.8C2252.6 782.8 2262.7 790.6 2269.6 796.8C2259.9 779.7 2235.6 742.3 2188.8 720.3C2169.7 711.3 2151.9 707.3 2137.8 705.4C2150.7 705.1 2170.6 706.3 2192.7 714.8C2230.8 729.5 2252 756.7 2260.1 768.5C2242.1 715.8 2224 663.2 2206 610.5C2225.7 663.7 2245.5 716.9 2265.2 770.1C2268.2 705.3 2271.2 640.4 2274.2 575.6C2273.5 640 2272.9 704.5 2272.2 768.9C2286.6 719.1 2301 669.3 2315.3 619.5C2303.1 673.7 2291 728 2278.8 782.2C2344 709.9 2375.3 675.2 2375.3 675.2C2375.3 675.2 2325.5 741.8 2292.6 785.8C2298.2 781.3 2330.6 756 2371.8 763.8C2388.3 766.9 2400.6 774.2 2408.3 779.9C2398.7 775.7 2376.5 767.6 2347.9 771.3C2315.9 775.4 2294.9 792 2287.1 798.7C2296.7 794.3 2323.4 783.5 2354.9 791.6C2367.5 794.9 2377.3 800.2 2384.3 804.9C2352.6 792.3 2328.8 793.2 2314.5 795.5C2306.3 796.8 2285.5 801.2 2285.5 806.5C2285.5 808.4 2288.3 809.3 2291.4 811.6C2304.7 821.7 2303.1 845.5 2302 845.7C2300.9 845.9 2301.3 822.9 2286.3 813.2C2280.3 809.3 2273.7 808.8 2269.5 808.9Z" fill="#95D145"/>
<path d="M65.3 354.2C126 354.2 186.8 354.2 247.5 354.2C249.1 354.2 249.1 351.7 247.5 351.7C186.8 351.7 126 351.7 65.3 351.7C63.7 351.8 63.7 354.2 65.3 354.2Z" fill="#686874"/>
<path d="M219.8 330.2C220.6 324.8 223.4 301.7 208.5 284.6C195 269.2 173.4 265.9 172.5 267.8C171.7 269.4 186.2 274.5 199.2 288.7C211.6 302.3 217.1 317.9 219.8 330.2Z" fill="#95D145"/>
<path d="M225.3 328.1C221.2 312.7 224.4 298.4 233.5 291.8C243.2 284.7 257.7 287.9 257.8 289.4C258 290.9 244.2 290.1 234.8 299C226.5 306.9 225.1 319.1 225.3 328.1Z" fill="#95D145"/>
<path d="M236.6 321.8L234.5 328.3L226.6 352.5H209.1L204 337.9L198.6 322.2L212.2 322.1L217.7 322H220.5H220.9H224L225.4 321.9L236.6 321.8Z" fill="#686874"/>
<path d="M220.5 321.8C221.6 319.9 225.2 314 231.8 312C238.8 309.9 244.6 313.6 246.5 314.9C263.7 326.1 265.5 360.8 262.9 361.8C261.6 362.3 259.9 355.1 253.3 345.9C243.2 331.6 230 325.1 220.5 321.8Z" fill="#95D145"/>
<path d="M212.2 322C210.9 316 208.5 307.2 204.7 306.9C199.3 306.5 194.2 323.3 192.7 328.1C188.3 342.6 184 368 194.4 406.2C192.5 386.8 193.2 359.7 206.4 332.5C208.2 328.8 210.2 325.3 212.2 322Z" fill="#95D145"/>
<path d="M181.7 332.7H93.1V340.7H181.7V332.7Z" fill="#FA9E00"/>
<path d="M182.2 341.6H92.5V330.2H182.1V341.6H182.2ZM93.6 340.5H181.1V331.3H93.6V340.5Z" fill="#686874"/>
<path d="M119.8 330.7H118.7V339.2H119.8V330.7Z" fill="#686874"/>
<path d="M123.8 330.7H122.7V339.2H123.8V330.7Z" fill="#686874"/>
<path d="M128.8 330.7H127.7V339.2H128.8V330.7Z" fill="#686874"/>
<path d="M173.8 343H85.2V351.4H173.8V343Z" fill="#FA9E00"/>
<path d="M174.3 351.9H84.7V340.5H174.3V351.9ZM85.8 350.8H173.3V341.6H85.8V350.8Z" fill="#686874"/>
<path d="M163.2 343.9H162.1V351.4H163.2V343.9Z" fill="#686874"/>
<path d="M159.1 343.9H158V351.4H159.1V343.9Z" fill="#686874"/>
<path d="M154.6 343.9H153.5V351.4H154.6V343.9Z" fill="#686874"/>
<path d="M2117.9 707.2H2030.1V715.1H2117.9V707.2Z" fill="#F46E0D"/>
<path d="M2118.5 716.1H2029.6V704.8H2118.5V716.1ZM2030.6 715H2117.3V705.8H2030.6V715V715Z" fill="#686874"/>
<path d="M2056.6 705.3H2055.5V713.7H2056.6V705.3Z" fill="#686874"/>
<path d="M2060.6 705.3H2059.5V713.7H2060.6V705.3Z" fill="#686874"/>
<path d="M2065.6 705.3H2064.5V713.7H2065.6V705.3Z" fill="#686874"/>
<path d="M2110.2 717.5H2022.4V725.8H2110.2V717.5Z" fill="#FFCE8F"/>
<path d="M2110.7 726.3H2021.8V715H2110.7V726.3ZM2022.9 725.2H2109.6V716H2022.9V725.2V725.2Z" fill="#686874"/>
<path d="M2099.7 718.3H2098.6V725.7H2099.7V718.3Z" fill="#686874"/>
<path d="M2095.6 718.3H2094.5V725.7H2095.6V718.3Z" fill="#686874"/>
<path d="M2091.1 718.3H2090V725.7H2091.1V718.3Z" fill="#686874"/>
<path d="M158.2 803.1H66.9V811.4H158.2V803.1Z" fill="#F46E0D"/>
<path d="M158.8 812.2H66.4V800.5H158.8V812.2ZM67.5 811.1H157.7V801.6H67.5V811.1Z" fill="#686874"/>
<path d="M94.4 801H93.3V809.8H94.4V801Z" fill="#686874"/>
<path d="M98.5 801H97.4V809.8H98.5V801Z" fill="#686874"/>
<path d="M103.8 801H102.7V809.8H103.8V801Z" fill="#686874"/>
<path d="M150.2 813.7H58.9V822.3H150.2V813.7Z" fill="#FFCE8F"/>
<path d="M150.7 822.9H58.3V811.2H150.7V822.9ZM59.4001 821.8H149.6V812.3H59.4001V821.8Z" fill="#686874"/>
<path d="M139.3 814.6H138.2V822.3H139.3V814.6Z" fill="#686874"/>
<path d="M135 814.6H133.9V822.3H135V814.6Z" fill="#686874"/>
<path d="M130.3 814.6H129.2V822.3H130.3V814.6Z" fill="#686874"/>
<path d="M2018.2 417.9C2019 412.5 2021.8 389.4 2006.9 372.3C1993.4 356.9 1971.8 353.6 1970.9 355.5C1970.1 357.1 1984.6 362.2 1997.6 376.4C2010.1 390 2015.6 405.7 2018.2 417.9Z" fill="#95D145"/>
<path d="M2023.7 415.9C2019.6 400.5 2022.8 386.2 2031.9 379.6C2041.6 372.5 2056.1 375.7 2056.2 377.2C2056.4 378.7 2042.6 377.9 2033.2 386.8C2024.9 394.7 2023.6 406.9 2023.7 415.9Z" fill="#95D145"/>
<path d="M2035.1 409.6L2033 416.1L2025.1 440.3H2007.5L2002.5 425.6L1997.1 410L2010.7 409.8H2016.1H2019L2019.4 409.7H2022.5H2023.9L2035.1 409.6Z" fill="#686874"/>
<path d="M2019 409.6C2020.1 407.7 2023.7 401.8 2030.3 399.8C2037.3 397.7 2043.1 401.4 2045 402.7C2062.2 413.9 2064 448.6 2061.4 449.6C2060.1 450.1 2058.4 442.9 2051.8 433.7C2041.7 419.4 2028.5 412.9 2019 409.6Z" fill="#95D145"/>
<path d="M2010.7 409.7C2009.4 403.7 2007 394.9 2003.2 394.6C1997.8 394.2 1992.7 411 1991.2 415.8C1986.8 430.3 1982.5 455.7 1992.9 493.9C1991 474.5 1991.7 447.4 2004.9 420.2C2006.7 416.6 2008.7 413 2010.7 409.7Z" fill="#95D145"/>
<path d="M2849.6 676.5C2848.5 675 2847.1 672.6 2846.7 669.4C2845.9 663.6 2848.4 657.4 2850.1 657.5C2851.8 657.6 2853.7 664.3 2852.4 670.2C2851.8 672.9 2850.6 675.1 2849.6 676.5Z" fill="#95D145"/>
<path d="M2851.5 694.6C2851.5 692.3 2851.7 688.8 2853.5 685.2C2856.7 678.7 2863.8 674.1 2865.5 675.4C2867.2 676.7 2864.4 684.9 2858.9 690.1C2856.3 692.5 2853.6 693.8 2851.5 694.6Z" fill="#95D145"/>
<path d="M2845.8 679.9C2844 680 2841.2 679.8 2838.3 678.4C2833.1 675.9 2829.4 670.3 2830.4 669C2831.4 667.6 2838 669.8 2842.2 674.2C2844.1 676.1 2845.2 678.2 2845.8 679.9Z" fill="#95D145"/>
<path d="M2839.2 702.3C2837 701.1 2833.8 699.1 2831.2 695.5C2826.6 689 2825.9 679.9 2828 679C2830.1 678 2836.5 685 2838.6 692.9C2839.6 696.6 2839.5 699.9 2839.2 702.3Z" fill="#95D145"/>
<path d="M2842 709.1C2840.4 709.3 2838 709.4 2835.3 708.4C2830.5 706.6 2826.8 702.1 2827.6 700.8C2828.4 699.5 2834.3 700.9 2838.3 704.3C2840.1 705.9 2841.3 707.7 2842 709.1Z" fill="#95D145"/>
<path d="M2850.8 736.1C2852 734.3 2854.1 731.7 2857.4 729.8C2863.4 726.4 2871.4 726.6 2872 728.5C2872.6 730.4 2866.1 735.4 2859 736.5C2855.7 737 2852.8 736.6 2850.8 736.1Z" fill="#95D145"/>
<path d="M2845.6 744.6C2843.8 746.1 2841 748.2 2837 749.1C2829.8 750.8 2821.7 748.3 2821.6 746.2C2821.5 744 2829.7 740.9 2837.3 741.8C2840.9 742.3 2843.7 743.5 2845.6 744.6Z" fill="#95D145"/>
<path d="M2842.1 706.3C2841 705.1 2839.6 703.1 2838.9 700.4C2837.7 695.5 2839.4 689.8 2840.8 689.8C2842.3 689.7 2844.5 695.4 2843.9 700.6C2843.7 703 2842.9 705 2842.1 706.3Z" fill="#95D145"/>
<path d="M2855.6 730.1C2855.4 727.1 2855.5 722.6 2857.5 717.8C2861.2 709.1 2870 702.6 2872.3 704.2C2874.6 705.8 2871.6 716.6 2864.8 723.7C2861.6 727 2858.1 728.9 2855.6 730.1Z" fill="#95D145"/>
<path d="M2845.8 744.2C2842.8 744.1 2838.3 743.5 2833.7 740.9C2825.4 736.2 2820 726.7 2821.8 724.6C2823.6 722.5 2834.1 726.7 2840.5 734.3C2843.4 737.9 2845 741.5 2845.8 744.2Z" fill="#95D145"/>
<path d="M2849.6 769.3C2849.6 734.7 2849.6 700.1 2849.6 665.5C2849.6 664.4 2847.9 664.4 2847.9 665.5C2847.9 700.1 2847.9 734.7 2847.9 769.3C2848 770.3 2849.6 770.4 2849.6 769.3Z" fill="#686874"/>
<path d="M2856.61 684.483L2848.59 697.98L2849.71 698.644L2857.73 685.147L2856.61 684.483Z" fill="#686874"/>
<path d="M2835.32 692.263L2834.14 692.806L2848.23 723.419L2849.41 722.876L2835.32 692.263Z" fill="#686874"/>
<path d="M2862.25 718.788L2848.2 738.489L2849.26 739.244L2863.31 719.543L2862.25 718.788Z" fill="#686874"/>
<path d="M2830.47 729.67L2829.57 730.607L2847.73 748.081L2848.63 747.144L2830.47 729.67Z" fill="#686874"/>
<path d="M2842.35 674.576L2841.29 675.333L2848.34 685.168L2849.4 684.411L2842.35 674.576Z" fill="#686874"/>
<path d="M2854.4 729.5C2853 728.4 2850.9 726.7 2849.5 723.9C2847 718.9 2847.4 712.4 2849 711.9C2850.6 711.5 2854.4 717 2855 722.8C2855.4 725.6 2854.9 727.9 2854.4 729.5Z" fill="#95D145"/>
<path d="M2852.1 693.7C2851.2 693 2849.9 691.9 2849 690.1C2847.4 686.9 2847.7 682.8 2848.7 682.5C2849.7 682.2 2852.1 685.7 2852.5 689.4C2852.7 691.2 2852.4 692.6 2852.1 693.7Z" fill="#95D145"/>
<path d="M2850.2 697.1C2851.2 696 2853 694.5 2855.4 693.7C2859.9 692.1 2865.2 693.2 2865.4 694.6C2865.6 696 2860.5 698.5 2855.6 698.4C2853.4 698.3 2851.5 697.6 2850.2 697.1Z" fill="#95D145"/>
<path d="M2846.6 745.8C2845.7 744.2 2844.7 741.8 2844.6 738.6C2844.4 733 2847.6 727.3 2849.2 727.5C2850.8 727.8 2851.9 734.4 2850 739.9C2849.1 742.7 2847.7 744.6 2846.6 745.8Z" fill="#95D145"/>
<path d="M2867.6 757.6L2858.4 786H2840.1L2830.4 757.9L2848 757.8L2849.6 757.7L2867.6 757.6Z" fill="#FFC487"/>
<path d="M2856.3 786.4H2837.4L2827.4 757.5L2865.8 757.1L2856.3 786.4ZM2838 785.6H2855.7L2864.7 758L2828.7 758.3L2838 785.6Z" fill="#686874"/>
<path d="M1998.7 616.8C1997.6 615.3 1996.2 612.9 1995.8 609.7C1995 603.9 1997.5 597.7 1999.2 597.8C2000.9 597.9 2002.8 604.6 2001.5 610.5C2000.9 613.2 1999.7 615.4 1998.7 616.8Z" fill="#95D145"/>
<path d="M2000.6 634.9C2000.6 632.6 2000.8 629.1 2002.6 625.5C2005.8 619 2012.9 614.4 2014.6 615.7C2016.3 617 2013.5 625.2 2008 630.4C2005.4 632.8 2002.7 634.1 2000.6 634.9Z" fill="#95D145"/>
<path d="M1994.9 620.2C1993.1 620.3 1990.3 620.1 1987.4 618.7C1982.2 616.2 1978.5 610.6 1979.5 609.3C1980.5 607.9 1987.1 610.1 1991.3 614.5C1993.2 616.4 1994.3 618.5 1994.9 620.2Z" fill="#95D145"/>
<path d="M1988.3 642.6C1986.1 641.4 1982.9 639.4 1980.3 635.8C1975.7 629.3 1975 620.2 1977.1 619.3C1979.2 618.3 1985.6 625.3 1987.7 633.2C1988.7 636.9 1988.6 640.2 1988.3 642.6Z" fill="#95D145"/>
<path d="M1991.1 649.4C1989.5 649.6 1987.1 649.7 1984.4 648.7C1979.6 646.9 1975.9 642.4 1976.7 641.1C1977.5 639.8 1983.4 641.2 1987.4 644.6C1989.3 646.2 1990.4 648 1991.1 649.4Z" fill="#95D145"/>
<path d="M1999.9 676.4C2001.1 674.6 2003.2 672 2006.5 670.1C2012.5 666.7 2020.5 666.9 2021.1 668.8C2021.7 670.7 2015.2 675.7 2008.1 676.8C2004.8 677.3 2001.9 676.9 1999.9 676.4Z" fill="#95D145"/>
<path d="M1994.7 684.9C1992.9 686.4 1990.1 688.5 1986.1 689.4C1978.9 691.1 1970.8 688.6 1970.7 686.5C1970.6 684.3 1978.8 681.2 1986.4 682.1C1990 682.6 1992.8 683.8 1994.7 684.9Z" fill="#95D145"/>
<path d="M1991.3 646.6C1990.2 645.4 1988.8 643.4 1988.1 640.7C1986.9 635.8 1988.6 630.1 1990 630.1C1991.5 630 1993.7 635.7 1993.1 640.9C1992.8 643.3 1992 645.3 1991.3 646.6Z" fill="#95D145"/>
<path d="M2004.7 670.4C2004.5 667.4 2004.6 662.9 2006.6 658.1C2010.3 649.4 2019.1 642.9 2021.4 644.5C2023.7 646.1 2020.7 656.9 2013.9 664C2010.7 667.3 2007.3 669.2 2004.7 670.4Z" fill="#95D145"/>
<path d="M1995 684.5C1992 684.4 1987.5 683.8 1982.9 681.2C1974.6 676.5 1969.2 667 1971 664.9C1972.8 662.8 1983.3 667 1989.7 674.6C1992.5 678.2 1994.1 681.8 1995 684.5Z" fill="#95D145"/>
<path d="M1998.7 709.6C1998.7 675 1998.7 640.4 1998.7 605.8C1998.7 604.7 1997 604.7 1997 605.8C1997 640.4 1997 675 1997 709.6C1997.1 710.6 1998.7 710.6 1998.7 709.6Z" fill="#686874"/>
<path d="M2005.59 624.815L1997.57 638.313L1998.69 638.977L2006.71 625.479L2005.59 624.815Z" fill="#686874"/>
<path d="M1984.42 632.567L1983.24 633.111L1997.33 663.724L1998.51 663.18L1984.42 632.567Z" fill="#686874"/>
<path d="M2011.37 659.082L1997.32 678.783L1998.37 679.538L2012.43 659.837L2011.37 659.082Z" fill="#686874"/>
<path d="M1979.61 669.957L1978.71 670.894L1996.86 688.368L1997.76 687.431L1979.61 669.957Z" fill="#686874"/>
<path d="M1991.44 614.907L1990.38 615.665L1997.43 625.499L1998.49 624.742L1991.44 614.907Z" fill="#686874"/>
<path d="M2003.6 669.8C2002.2 668.7 2000.1 667 1998.7 664.2C1996.2 659.2 1996.6 652.7 1998.2 652.2C1999.8 651.8 2003.6 657.3 2004.2 663.1C2004.5 665.9 2004 668.2 2003.6 669.8Z" fill="#95D145"/>
<path d="M2001.2 634C2000.3 633.3 1999 632.2 1998.1 630.4C1996.5 627.2 1996.8 623.1 1997.8 622.8C1998.8 622.5 2001.2 626 2001.6 629.7C2001.8 631.5 2001.5 632.9 2001.2 634Z" fill="#95D145"/>
<path d="M1999.3 637.4C2000.3 636.3 2002.1 634.8 2004.5 634C2009 632.4 2014.3 633.5 2014.5 634.9C2014.7 636.3 2009.6 638.8 2004.7 638.7C2002.5 638.5 2000.6 637.9 1999.3 637.4Z" fill="#95D145"/>
<path d="M1995.7 686.1C1994.8 684.5 1993.8 682.1 1993.7 678.9C1993.5 673.3 1996.7 667.6 1998.3 667.8C1999.9 668.1 2001 674.7 1999.1 680.2C1998.2 682.9 1996.9 684.9 1995.7 686.1Z" fill="#95D145"/>
<path d="M2016.8 697.9L2007.5 726.3H1989.3L1979.6 698.2L1997.1 698.1L1998.7 698L2016.8 697.9Z" fill="#FFC487"/>
<path d="M2005.4 726.7H1986.5L1976.5 697.8L2014.9 697.4L2005.4 726.7ZM1987.1 725.9H2004.8L2013.8 698.3L1977.8 698.6L1987.1 725.9Z" fill="#686874"/>
<path d="M1985 495.4H1969.8V582.3H1985V495.4Z" fill="#FFC487"/>
<path d="M2010.8 526.4H1999.8V583.5H2010.8V526.4Z" fill="#FFC487"/>
<path d="M2033.3 501.2H2019.9V582.7H2033.3V501.2Z" fill="#FA9E00"/>
<path d="M1999.1 523.5C1999.1 542.1 1999.1 560.8 1999.1 579.4C1999.1 580.3 2000.4 580.3 2000.4 579.4C2000.4 560.8 2000.4 542.1 2000.4 523.5C2000.4 522.7 1999.1 522.7 1999.1 523.5Z" fill="#686874"/>
<path d="M1999.6 547.5C2001.4 547.5 2003.2 547.5 2005.1 547.5C2006 547.5 2006 546.2 2005.1 546.2C2003.3 546.2 2001.5 546.2 1999.6 546.2C1998.7 546.2 1998.7 547.5 1999.6 547.5Z" fill="#686874"/>
<path d="M1969.1 495.2C1969.1 511.8 1969.1 528.4 1969.1 545C1969.1 545.9 1970.4 545.9 1970.4 545C1970.4 528.4 1970.4 511.8 1970.4 495.2C1970.5 494.3 1969.1 494.3 1969.1 495.2Z" fill="#686874"/>
<path d="M1970.9 516.2C1973.6 516.2 1976.3 516.2 1979 516.2C1979.9 516.2 1979.9 514.9 1979 514.9C1976.3 514.9 1973.6 514.9 1970.9 514.9C1970 514.9 1970 516.2 1970.9 516.2Z" fill="#686874"/>
<path d="M1972.2 520.3C1975.3 520.3 1978.3 520.3 1981.4 520.3C1982.3 520.3 1982.3 519 1981.4 519C1978.3 519 1975.3 519 1972.2 519C1971.3 519 1971.3 520.3 1972.2 520.3Z" fill="#686874"/>
<path d="M1974.5 525.3C1976.3 525.3 1978 525.3 1979.8 525.3C1980.7 525.3 1980.7 524 1979.8 524C1978 524 1976.3 524 1974.5 524C1973.6 523.9 1973.6 525.3 1974.5 525.3Z" fill="#686874"/>
<path d="M1973.4 529.5C1974.7 529.5 1976.1 529.5 1977.4 529.5C1978.3 529.5 1978.3 528.2 1977.4 528.2C1976.1 528.2 1974.7 528.2 1973.4 528.2C1972.5 528.2 1972.5 529.5 1973.4 529.5Z" fill="#686874"/>
<path d="M2023.5 528C2025.2 528 2026.9 528 2028.6 528C2029.5 528 2029.5 526.7 2028.6 526.7C2026.9 526.7 2025.2 526.7 2023.5 526.7C2022.6 526.7 2022.6 528 2023.5 528Z" fill="#686874"/>
<path d="M2022.9 533.3C2024.5 533.3 2026.1 533.3 2027.7 533.3C2028.6 533.3 2028.6 532 2027.7 532C2026.1 532 2024.5 532 2022.9 532C2022.1 532 2022.1 533.3 2022.9 533.3Z" fill="#686874"/>
<path d="M2019.6 501.9C2024.3 501.9 2028.9 501.9 2033.6 501.9C2034.5 501.9 2034.5 500.6 2033.6 500.6C2028.9 500.6 2024.3 500.6 2019.6 500.6C2018.7 500.6 2018.7 501.9 2019.6 501.9Z" fill="#686874"/>
<path d="M2033.3 501.8C2033.3 505.9 2033.3 510.1 2033.3 514.2C2033.3 515.1 2034.6 515.1 2034.6 514.2C2034.6 510.1 2034.6 505.9 2034.6 501.8C2034.6 500.9 2033.3 500.9 2033.3 501.8Z" fill="#686874"/>
<path d="M630.6 762.5C637.89 762.5 643.8 756.59 643.8 749.3C643.8 742.01 637.89 736.1 630.6 736.1C623.31 736.1 617.4 742.01 617.4 749.3C617.4 756.59 623.31 762.5 630.6 762.5Z" fill="#72A324"/>
<path d="M630.6 738C634.797 738 638.2 734.597 638.2 730.4C638.2 726.203 634.797 722.8 630.6 722.8C626.403 722.8 623 726.203 623 730.4C623 734.597 626.403 738 630.6 738Z" fill="#72A324"/>
<path d="M620.8 785.6H640.5L645.3 758.1H615.9L620.8 785.6Z" fill="#686874"/>
<path d="M631.177 722.228L630.641 724.05L631.504 724.304L632.041 722.482L631.177 722.228Z" fill="#686874"/>
<path d="M639.678 724.614L637.056 726.448L637.572 727.186L640.194 725.351L639.678 724.614Z" fill="#686874"/>
<path d="M628.878 724.613L628.178 725.179L630.758 728.366L631.457 727.799L628.878 724.613Z" fill="#686874"/>
<path d="M619.602 726.81L619.121 727.571L623.433 730.295L623.914 729.534L619.602 726.81Z" fill="#686874"/>
<path d="M622.898 736.022L622.048 736.317L623.261 739.812L624.111 739.517L622.898 736.022Z" fill="#686874"/>
<path d="M629.825 740.173L629.749 742.472L630.648 742.502L630.724 740.203L629.825 740.173Z" fill="#686874"/>
<path d="M640.033 747.25L638.643 749.083L639.36 749.627L640.75 747.794L640.033 747.25Z" fill="#686874"/>
<path d="M643.195 739.927L641.268 741.672L641.872 742.339L643.799 740.594L643.195 739.927Z" fill="#686874"/>
<path d="M646.141 752.008L642.346 752.907L642.553 753.783L646.348 752.884L646.141 752.008Z" fill="#686874"/>
<path d="M630.582 750.209L629.76 750.575L630.653 752.585L631.476 752.22L630.582 750.209Z" fill="#686874"/>
<path d="M619.638 745.488L619.154 746.247L621.686 747.858L622.169 747.099L619.638 745.488Z" fill="#686874"/>
<path d="M620.716 753.826L617.008 755.573L617.391 756.387L621.1 754.64L620.716 753.826Z" fill="#686874"/>
<path d="M627.292 754.127L626.679 756.962L627.558 757.152L628.171 754.317L627.292 754.127Z" fill="#686874"/>
<path d="M636.979 754.713L636.596 755.527L638.406 756.377L638.789 755.563L636.979 754.713Z" fill="#686874"/>
<path d="M636.943 739.358L635.883 740.419L636.519 741.055L637.579 739.994L636.943 739.358Z" fill="#686874"/>
<path d="M629 733.2H628.1V734.3H629V733.2Z" fill="#686874"/>
<path d="M639 731.3H636.8V732.2H639V731.3Z" fill="#686874"/>
<path d="M2057.7 559.3C2064.99 559.3 2070.9 553.39 2070.9 546.1C2070.9 538.81 2064.99 532.9 2057.7 532.9C2050.41 532.9 2044.5 538.81 2044.5 546.1C2044.5 553.39 2050.41 559.3 2057.7 559.3Z" fill="#72A324"/>
<path d="M2057.7 534.8C2061.9 534.8 2065.3 531.397 2065.3 527.2C2065.3 523.003 2061.9 519.6 2057.7 519.6C2053.5 519.6 2050.1 523.003 2050.1 527.2C2050.1 531.397 2053.5 534.8 2057.7 534.8Z" fill="#72A324"/>
<path d="M2047.9 582.4H2067.5L2072.4 554.9H2043L2047.9 582.4Z" fill="#686874"/>
<path d="M2058.15 519.085L2057.62 520.907L2058.48 521.161L2059.02 519.339L2058.15 519.085Z" fill="#686874"/>
<path d="M2066.85 521.363L2064.23 523.198L2064.75 523.935L2067.37 522.1L2066.85 521.363Z" fill="#686874"/>
<path d="M2056.03 521.468L2055.33 522.034L2057.91 525.221L2058.61 524.654L2056.03 521.468Z" fill="#686874"/>
<path d="M2046.73 523.557L2046.25 524.318L2050.56 527.042L2051.04 526.281L2046.73 523.557Z" fill="#686874"/>
<path d="M2049.88 532.823L2049.02 533.118L2050.24 536.613L2051.09 536.318L2049.88 532.823Z" fill="#686874"/>
<path d="M2056.93 536.845L2056.85 539.143L2057.75 539.173L2057.83 536.874L2056.93 536.845Z" fill="#686874"/>
<path d="M2066.96 543.993L2065.57 545.825L2066.29 546.369L2067.68 544.536L2066.96 543.993Z" fill="#686874"/>
<path d="M2070.18 536.507L2068.25 538.252L2068.86 538.919L2070.78 537.174L2070.18 536.507Z" fill="#686874"/>
<path d="M2073.25 548.807L2069.46 549.705L2069.66 550.581L2073.46 549.683L2073.25 548.807Z" fill="#686874"/>
<path d="M2057.67 547.026L2056.85 547.391L2057.74 549.402L2058.56 549.036L2057.67 547.026Z" fill="#686874"/>
<path d="M2046.72 542.271L2046.24 543.03L2048.77 544.641L2049.25 543.881L2046.72 542.271Z" fill="#686874"/>
<path d="M2047.73 550.499L2044.02 552.247L2044.4 553.061L2048.11 551.313L2047.73 550.499Z" fill="#686874"/>
<path d="M2054.29 550.945L2053.68 553.779L2054.56 553.969L2055.17 551.135L2054.29 550.945Z" fill="#686874"/>
<path d="M2063.96 551.548L2063.57 552.363L2065.38 553.212L2065.77 552.398L2063.96 551.548Z" fill="#686874"/>
<path d="M2064.02 536.049L2062.96 537.11L2063.59 537.746L2064.65 536.685L2064.02 536.049Z" fill="#686874"/>
<path d="M2056.1 530H2055.2V531.1H2056.1V530Z" fill="#686874"/>
<path d="M2066.1 528H2063.9V528.9H2066.1V528Z" fill="#686874"/>
<path d="M2128.1 582H1914.4V587.9H2128.1V582Z" fill="#686874"/>
<path d="M350.319 784.843H420.119V782.143H350.319V784.843Z" fill="#F6F6FE"/>
<path d="M349.7 781.5V785.5H420.8V781.5H349.7ZM419.5 784.2H418.4H363.1H351V782.8H378.4H392.7H419.6V784.2H419.5Z" fill="#686874"/>
<path d="M418.2 784.9H493.3L517.9 707.3H442.8L418.2 784.9Z" fill="#F6F6FE"/>
<path d="M418.4 784.2L418.2 784.8H488.5L488.7 784.2H418.4ZM418.4 784.2L418.2 784.8H488.5L488.7 784.2H418.4ZM442.3 706.7L418.6 781.5L418.4 782.1L418.2 782.7L417.7 784.1L417.3 785.4H493.8L497.6 773.5L501 762.7L518.8 706.6H442.3V706.7ZM419 784.2L419.5 782.8L419.7 782.2L419.9 781.6L443.2 708.1H517V708.2L499.6 762.9L496.3 773.2L492.8 784.4H419V784.2ZM418.4 784.2L418.2 784.8H488.5L488.7 784.2H418.4ZM418.4 784.2L418.2 784.8H488.5L488.7 784.2H418.4Z" fill="#686874"/>
<path opacity="0.19" d="M422.7 784.9H488.4L512.2 711.5H446.5L422.7 784.9Z" fill="#686874"/>
<path d="M481.4 726.1C480.4 727.1 479.4 728.1 478.4 729.1C477.4 730.1 475.9 728.6 476.9 727.6C477.3 727.2 477.7 726.8 478.1 726.4C479.1 725.4 480.6 726.9 479.6 727.9C479.2 728.3 478.8 728.7 478.4 729.1C477.9 728.6 477.4 728.1 476.9 727.6C477.9 726.6 478.9 725.6 479.9 724.6C480.8 723.6 482.3 725.2 481.4 726.1Z" fill="#686874"/>
<path d="M1060.32 784.843H1130.12V782.143H1060.32V784.843Z" fill="#F6F6FE"/>
<path d="M1059.7 781.5V785.5H1130.8V781.5H1059.7ZM1129.5 784.2H1128.4H1073.1H1061V782.8H1088.4H1102.7H1129.6V784.2H1129.5Z" fill="#686874"/>
<path d="M1128.2 784.9H1203.3L1227.9 707.3H1152.8L1128.2 784.9Z" fill="#F6F6FE"/>
<path d="M1128.4 784.2L1128.2 784.8H1198.5L1198.7 784.2H1128.4ZM1128.4 784.2L1128.2 784.8H1198.5L1198.7 784.2H1128.4ZM1152.3 706.7L1128.6 781.5L1128.4 782.1L1128.2 782.7L1127.7 784.1L1127.3 785.4H1203.8L1207.6 773.5L1211 762.7L1228.8 706.6H1152.3V706.7ZM1129 784.2L1129.5 782.8L1129.7 782.2L1129.9 781.6L1153.2 708.1H1227V708.2L1209.6 762.9L1206.3 773.2L1202.8 784.4H1129V784.2ZM1128.4 784.2L1128.2 784.8H1198.5L1198.7 784.2H1128.4ZM1128.4 784.2L1128.2 784.8H1198.5L1198.7 784.2H1128.4Z" fill="#686874"/>
<path opacity="0.19" d="M1132.7 784.9H1198.4L1222.2 711.5H1156.5L1132.7 784.9Z" fill="#686874"/>
<path d="M1191.4 726.1C1190.4 727.1 1189.4 728.1 1188.4 729.1C1187.4 730.1 1185.9 728.6 1186.9 727.6C1187.3 727.2 1187.7 726.8 1188.1 726.4C1189.1 725.4 1190.6 726.9 1189.6 727.9C1189.2 728.3 1188.8 728.7 1188.4 729.1C1187.9 728.6 1187.4 728.1 1186.9 727.6C1187.9 726.6 1188.9 725.6 1189.9 724.6C1190.8 723.6 1192.3 725.2 1191.4 726.1Z" fill="#686874"/>
<path d="M2555.32 784.843H2625.12V782.143H2555.32V784.843Z" fill="#F6F6FE"/>
<path d="M2554.7 781.5V785.5H2625.8V781.5H2554.7ZM2624.5 784.2H2623.4H2568.1H2556V782.8H2583.4H2597.7H2624.6V784.2H2624.5Z" fill="#686874"/>
<path d="M2623.2 784.9H2698.3L2722.9 707.3H2647.8L2623.2 784.9Z" fill="#F6F6FE"/>
<path d="M2623.4 784.2L2623.2 784.8H2693.5L2693.7 784.2H2623.4ZM2623.4 784.2L2623.2 784.8H2693.5L2693.7 784.2H2623.4ZM2647.3 706.7L2623.6 781.5L2623.4 782.1L2623.2 782.7L2622.7 784.1L2622.3 785.4H2698.8L2702.6 773.5L2706 762.7L2723.8 706.6H2647.3V706.7ZM2624 784.2L2624.5 782.8L2624.7 782.2L2624.9 781.6L2648.2 708.1H2722V708.2L2704.6 762.9L2701.3 773.2L2697.8 784.4H2624V784.2ZM2623.4 784.2L2623.2 784.8H2693.5L2693.7 784.2H2623.4ZM2623.4 784.2L2623.2 784.8H2693.5L2693.7 784.2H2623.4Z" fill="#686874"/>
<path opacity="0.19" d="M2627.7 784.9H2693.4L2717.2 711.5H2651.5L2627.7 784.9Z" fill="#686874"/>
<path d="M2686.4 726.1C2685.4 727.1 2684.4 728.1 2683.4 729.1C2682.4 730.1 2680.9 728.6 2681.9 727.6C2682.3 727.2 2682.7 726.8 2683.1 726.4C2684.1 725.4 2685.6 726.9 2684.6 727.9C2684.2 728.3 2683.8 728.7 2683.4 729.1C2682.9 728.6 2682.4 728.1 2681.9 727.6C2682.9 726.6 2683.9 725.6 2684.9 724.6C2685.8 723.6 2687.3 725.2 2686.4 726.1Z" fill="#686874"/>
<path d="M1597.3 782.2H1527.5V784.9H1597.3V782.2Z" fill="#F6F6FE"/>
<path d="M1526.8 781.5V785.5H1597.9V781.5H1526.8ZM1596.6 784.2H1584.5H1529.2H1528.1V782.8H1555H1569.3H1596.7V784.2H1596.6Z" fill="#686874"/>
<path d="M1529.5 784.9H1454.3L1429.7 707.3H1504.9L1529.5 784.9Z" fill="#F6F6FE"/>
<path d="M1529.3 784.2L1529.5 784.8H1459.2L1459 784.2H1529.3ZM1529.3 784.2L1529.5 784.8H1459.2L1459 784.2H1529.3ZM1505.3 706.7L1529 781.5L1529.2 782.1L1529.4 782.7L1529.9 784.1L1530.3 785.4H1453.8L1450 773.5L1446.6 762.7L1428.8 706.6H1505.3V706.7ZM1528.6 784.2L1528.1 782.8L1527.9 782.2L1527.7 781.6L1504.4 708.1H1430.6V708.2L1448 762.9L1451.3 773.2L1454.8 784.4H1528.6V784.2ZM1529.3 784.2L1529.5 784.8H1459.2L1459 784.2H1529.3ZM1529.3 784.2L1529.5 784.8H1459.2L1459 784.2H1529.3Z" fill="#686874"/>
<path opacity="0.19" d="M1524.9 784.9H1459.2L1435.4 711.5H1501.1L1524.9 784.9Z" fill="#686874"/>
<path d="M1466.3 726.1C1467.3 727.1 1468.3 728.1 1469.3 729.1C1470.3 730.1 1471.8 728.6 1470.8 727.6C1470.4 727.2 1470 726.8 1469.6 726.4C1468.6 725.4 1467.1 726.9 1468.1 727.9C1468.5 728.3 1468.9 728.7 1469.3 729.1C1469.8 728.6 1470.3 728.1 1470.8 727.6C1469.8 726.6 1468.8 725.6 1467.8 724.6C1466.8 723.6 1465.3 725.2 1466.3 726.1Z" fill="#686874"/>
<path d="M2011 930.4H2003.8V1004.4H2011V930.4Z" fill="#FA9E00"/>
<path d="M1997.81 1004.39H2003.81V930.39H1997.81V1004.39Z" fill="white"/>
<path d="M2064.8 930.4H2017.1V1004.4H2064.8V930.4Z" fill="#F46E0D"/>
<path d="M2011.1 1004.39H2017.1V930.39H2011.1V1004.39Z" fill="white"/>
<path d="M2035.7 1004.4H2041L2036.4 939.1H2031.1L2035.7 1004.4Z" fill="white"/>
<path d="M2002.3 1004.9H1995.3V929.9H2002.3V1004.9ZM1996.2 1003.9H2001.2V930.9H1996.2V1003.9Z" fill="#686874"/>
<path d="M2063.3 1004.9H2014.6V929.9H2063.3V1004.9ZM2015.6 1003.9H2062.3V930.9H2015.6V1003.9V1003.9Z" fill="#686874"/>
<path d="M2015.6 1004.9H2008.6V929.9H2015.6V1004.9ZM2009.5 1003.9H2014.5V930.9H2009.5V1003.9Z" fill="#686874"/>
<path d="M2083.1 1004.4H2041L2036.4 939.1H2078.5L2083.1 1004.4Z" fill="#FFC487"/>
<path d="M2081.6 1004.9H2038.5V1004.4L2033.9 938.6H2077L2081.6 1004.9ZM2039.5 1003.9H2080.6L2076.1 939.6H2035L2039.5 1003.9Z" fill="#686874"/>
<path d="M2039.5 1004.9H2033.2L2028.6 938.6H2034.9V939.1L2039.5 1004.9ZM2034.1 1003.9H2038.4L2033.9 939.6H2029.6L2034.1 1003.9Z" fill="#686874"/>
<path d="M2049.1 797.5H2043.2V871.5H2049.1V797.5Z" fill="#FA9E00"/>
<path d="M2037.18 871.415H2043.18V797.415H2037.18V871.415Z" fill="white"/>
<path d="M2062.3 797.5H2055.1V871.5H2062.3V797.5Z" fill="#FFC487"/>
<path d="M2090.8 797.5H2061.6V871.5H2090.8V797.5Z" fill="#F7B26A"/>
<path d="M2049.11 871.415H2055.11V797.415H2049.11V871.415Z" fill="white"/>
<path d="M2048.5 871.9H2041.5V795.8H2048.5V871.9ZM2042.5 870.9H2047.5V796.8H2042.5V870.9Z" fill="#686874"/>
<path d="M2042.5 871.9H2035.4V795.8H2042.5V871.9ZM2036.4 870.9H2041.5V796.8H2036.4V870.9Z" fill="#686874"/>
<path d="M2062 871.9H2053.6V795.8H2062V871.9ZM2054.7 870.9H2061.1V796.8H2054.7V870.9Z" fill="#686874"/>
<path d="M2091.8 871.9H2061.1V795.8H2091.8V871.9ZM2062.1 870.9H2090.8V796.8H2062.1V870.9Z" fill="#686874"/>
<path d="M2054.7 871.9H2047.6V795.8H2054.7V871.9ZM2048.5 870.9H2053.6V796.8H2048.5V870.9Z" fill="#686874"/>
<path d="M2115.5 871.5H2074.8L2068.2 808.5H2108.9L2115.5 871.5Z" fill="#FA9E00"/>
<path d="M2069.6 871.5H2074.8L2068.2 808.5H2063L2069.6 871.5Z" fill="white"/>
<path d="M2116 872H2073.7L2066.9 806.9H2109.2L2116 872ZM2074.6 871H2114.9L2108.3 807.9H2068L2074.6 871Z" fill="#686874"/>
<path d="M2074.7 872H2068.5L2061.7 806.9H2067.9L2074.7 872ZM2069.4 871H2073.6L2067 808H2062.8L2069.4 871Z" fill="#686874"/>
<path d="M2104.9 1010.1H1914.5V440.3H2104.9V1010.1ZM1924.6 1004.4H2094.7V450.4H1924.6V1004.4Z" fill="#686874"/>
<path d="M3451.6 891.8C3425.9 863.1 3416.8 822 3428.4 786.2C3441.9 744.5 3477.3 728.7 3482.8 726.3C3488.4 734.7 3497.9 751.3 3500.9 774.4C3505 805.9 3494.7 830.1 3489.3 842.2C3478 867.7 3461.7 883.6 3451.6 891.8Z" fill="#95D145"/>
<path d="M3460.6 984.9L3455.8 895.3C3452.7 861.7 3454.4 828.1 3460.7 795.3C3465 772.8 3471.5 750.6 3480.1 729.5L3481.6 730.1C3473.1 751.2 3466.6 773.2 3462.3 795.6C3456.1 828.3 3454.4 861.8 3457.5 895.2L3462.3 984.8L3460.6 984.9Z" fill="#686874"/>
<path d="M3499.7 981.7L3484.8 1048.7H3441.9L3425.7 981.7H3499.7Z" fill="#686874"/>
<path d="M3446.1 909.6C3458 898.1 3445.7 860.6 3424 838.9C3398.2 813.1 3363.2 813.7 3355.3 814C3353.8 823.2 3350.5 850.2 3366.5 874.8C3387.3 906.9 3433 922.3 3446.1 909.6Z" fill="#88BF3F"/>
<path d="M3459.1 982.9C3458.6 982.9 3458 982.9 3457.5 982.9C3456.7 970.8 3455.4 955.6 3454 947.5C3451.4 932 3448.7 923 3448 920.5C3446.4 915.2 3444.9 911.3 3444.5 910.3C3442.2 904.3 3436.1 889.8 3423.8 874C3412 858.8 3400.3 849.7 3397.2 847.3C3387.7 840.1 3378.8 835.4 3371.9 832.2L3372.6 830.8C3391 839.3 3406.8 851.2 3419.6 866.2L3419.8 866.4C3435 883.4 3442.6 899.5 3446.6 910.1C3451.9 924.3 3453.9 935.7 3456.1 949.6C3457.1 956.7 3458.4 971.3 3459.1 982.9Z" fill="#686874"/>
<path d="M3473.8 912C3463.3 901.5 3481.6 855.1 3517 833.4C3536.3 821.5 3556.2 819.8 3568.1 819.9C3565.7 833.5 3556.7 874.6 3520.6 898.7C3508.1 907 3482 920.2 3473.8 912Z" fill="#88BF3F"/>
<path d="M3465 985.7C3473.6 947.9 3481 919.5 3484.9 907C3487 900.1 3489.1 894.6 3492.1 887C3493.5 883.2 3495.5 878.5 3498.7 872.6C3499.7 870.8 3500.8 869 3502 867.2C3509 856.4 3518.2 847.1 3529.5 839.3C3542.7 830.1 3554.5 826.2 3557.8 825.2L3558.3 826.7C3555 827.7 3543.4 831.6 3530.4 840.6C3519.3 848.3 3510.2 857.6 3503.3 868.2C3501.7 870.6 3498.6 875.7 3493.6 887.6C3487.2 903.1 3483 917.3 3475.1 950.6C3473 959.6 3470.2 971.7 3467.1 985.9C3466.4 985.8 3465.7 985.8 3465 985.7Z" fill="#686874"/>
<path d="M3461.4 930.7C3443.9 918.8 3450.7 884.3 3451.2 881.8C3459.6 841.5 3507 823.3 3513.6 820.8C3520.4 829.7 3528.1 843.1 3529.1 860C3531.3 896.9 3501.2 934.2 3475.4 934.5C3473.4 934.6 3467.2 934.6 3461.4 930.7Z" fill="#9DD94E"/>
<path d="M3463.8 991.3C3462.7 956.7 3467.9 923 3479.5 891C3486.7 871 3496.4 851.9 3508.2 834.1L3509.5 835C3497.7 852.7 3488.1 871.7 3481 891.6C3469.5 923.4 3464.2 957 3465.4 991.4L3463.8 991.3Z" fill="#686874"/>
<path d="M1328.7 759.7H1237.4V772.6H1328.7V759.7Z" fill="#F7B26A"/>
<path d="M1328.6 761.3H1291.1V771.2H1328.6V761.3Z" fill="white"/>
<path opacity="0.42" d="M1328.6 762.4H1291.1V762.7H1328.6V762.4Z" fill="#9B9BA3"/>
<path opacity="0.42" d="M1328.6 763.5H1291.1V763.8H1328.6V763.5Z" fill="#9B9BA3"/>
<path opacity="0.42" d="M1328.6 764.6H1291.1V764.9H1328.6V764.6Z" fill="#9B9BA3"/>
<path opacity="0.42" d="M1328.6 765.7H1291.1V766H1328.6V765.7Z" fill="#9B9BA3"/>
<path opacity="0.42" d="M1328.6 766.8H1291.1V767.1H1328.6V766.8Z" fill="#9B9BA3"/>
<path opacity="0.42" d="M1328.6 767.8H1291.1V768.1H1328.6V767.8Z" fill="#9B9BA3"/>
<path opacity="0.42" d="M1328.6 768.9H1291.1V769.2H1328.6V768.9Z" fill="#9B9BA3"/>
<path opacity="0.42" d="M1328.6 770H1291.1V770.3H1328.6V770Z" fill="#9B9BA3"/>
<path d="M1333.4 772.6H1232.8V785.5H1333.4V772.6Z" fill="#FA9E00"/>
<path d="M1333.4 774.2H1293.6V784.1H1333.4V774.2Z" fill="white"/>
<path opacity="0.42" d="M1333.4 775.3H1293.7V775.7H1333.4V775.3Z" fill="#9B9BA3"/>
<path opacity="0.42" d="M1333.4 777.7H1293.7V778.1H1333.4V777.7Z" fill="#9B9BA3"/>
<path opacity="0.42" d="M1333.4 780.1H1293.7V780.5H1333.4V780.1Z" fill="#9B9BA3"/>
<path opacity="0.42" d="M1333.4 782.5H1293.7V782.9H1333.4V782.5Z" fill="#9B9BA3"/>
<path d="M1336.8 750.8H1245.5V759.7H1336.8V750.8Z" fill="#F46E0D"/>
<path d="M1336.7 751.9H1299.2V758.8H1336.7V751.9Z" fill="white"/>
<path opacity="0.42" d="M1336.7 753.4H1299.2V753.7H1336.7V753.4Z" fill="#9B9BA3"/>
<path opacity="0.42" d="M1336.7 755.2H1299.2V755.5H1336.7V755.2Z" fill="#9B9BA3"/>
<path opacity="0.42" d="M1336.7 756.9H1299.2V757.2H1336.7V756.9Z" fill="#9B9BA3"/>
<path opacity="0.23" d="M1336.7 758.7H1299.2V759H1336.7V758.7Z" fill="#FF8A6A"/>
<path d="M1333.9 786H1230.8V770.7H1333.9V786ZM1231.8 785H1332.9V771.7H1231.8V785Z" fill="#686874"/>
<path d="M1329.2 771.7H1235.7V758.5H1329.2V771.7ZM1236.7 770.7H1328.2V759.5H1236.7V770.7Z" fill="#686874"/>
<path d="M1337.3 759.6H1242.9V749.2H1337.3V759.6ZM1243.8 758.6H1336.2V750.2H1243.8V758.6Z" fill="#686874"/>
<path d="M1337.3 759.6H1296.7V750.9H1337.3V759.6ZM1297.6 758.6H1336.2V751.9H1297.6V758.6Z" fill="#686874"/>
<path d="M1329.2 771.7H1289.2V760.1H1329.2V771.7ZM1290.2 770.7H1328.2V761.1H1290.2V770.7Z" fill="#686874"/>
<path d="M1333.9 786H1291.4V773.2H1333.9V786ZM1292.4 785H1332.9V774.2H1292.4V785Z" fill="#686874"/>
<path d="M3160 1048.1H3164.3L3182.6 836.5L3182.1 836.4L3178.4 836.1L3178.3 836.4L3160 1048.1Z" fill="#686874"/>
<path d="M3288.6 1048.1H3292.9L3311.2 836.5L3310.7 836.4L3307 836.1L3306.9 836.4L3288.6 1048.1Z" fill="#686874"/>
<path d="M3316 836.5L3334.3 1048.1H3340.7L3322.4 836.4V836L3317.6 836.4L3316 836.5Z" fill="#686874"/>
<path d="M3187.4 836.5L3205.7 1048.1H3212.1L3193.8 836.4V836L3189 836.4L3187.4 836.5Z" fill="#686874"/>
<path d="M3338.9 594.8H3162.1V834.1H3338.9V594.8Z" fill="#F7F7FD"/>
<path d="M3340 594.7V593.7H3161V834V835H3340V594.7ZM3163.2 832.9V595.8H3337.9V832.9H3163.2Z" fill="#686874"/>
<path d="M3339.8 838.8H3160.7L3160.9 834H3340L3339.8 838.8Z" fill="#686874"/>
<path d="M3192.9 610C3231.2 610 3269.4 610 3307.7 610C3309.8 610 3310 606.7 3307.8 606.7C3269.5 606.7 3231.3 606.7 3193 606.7C3190.9 606.7 3190.8 610 3192.9 610Z" fill="#686874"/>
<path opacity="0.27" d="M3199.7 745H3199.3V823.1H3199.7V745Z" fill="#655496"/>
<path opacity="0.27" d="M3213.9 745H3213.5V823.1H3213.9V745Z" fill="#655496"/>
<path opacity="0.27" d="M3228.8 745H3228.4V823.1H3228.8V745Z" fill="#655496"/>
<path opacity="0.27" d="M3243.6 745H3243.2V823.1H3243.6V745Z" fill="#655496"/>
<path opacity="0.27" d="M3257.9 745H3257.5V823.1H3257.9V745Z" fill="#655496"/>
<path opacity="0.27" d="M3272.7 745H3272.3V823.1H3272.7V745Z" fill="#655496"/>
<path opacity="0.27" d="M3287.5 745H3287.1V823.1H3287.5V745Z" fill="#655496"/>
<path opacity="0.27" d="M3301.8 745H3301.4V823.1H3301.8V745Z" fill="#655496"/>
<path opacity="0.27" d="M3316.1 745.1H3315.7V823.2H3316.1V745.1Z" fill="#655496"/>
<path d="M3186.4 744.2H3186V823.1H3186.4V744.2Z" fill="#686874"/>
<path d="M3188.7 745H3183.4C3184.3 743.6 3185.2 742.2 3186.1 740.8C3186.9 742.2 3187.8 743.6 3188.7 745Z" fill="#686874"/>
<path d="M3317.3 783.6H3186.3V784H3317.3V783.6Z" fill="#686874"/>
<path d="M3282.9 783.6H3274.3L3266.6 766.7L3263.5 759.7H3272L3272.1 759.9L3279.8 776.8L3282.9 783.6Z" fill="#F46E0D"/>
<path d="M3272.1 759.7V759.9L3266.6 766.7L3253.3 783.6H3244.5L3263.4 759.7H3272.1Z" fill="#F46E0D"/>
<path d="M3250 783.6H3243.2L3237 770.1L3234.5 764.5H3241.3H3241.4L3247.5 778.1L3250 783.6Z" fill="#F46E0D"/>
<path d="M3241.4 764.5L3237 770.1L3226.3 783.6H3219.3L3234.4 764.5H3241.4Z" fill="#F46E0D"/>
<path d="M3224.3 783.6H3219L3214.1 774.4L3212 770.6H3217.4L3217.5 770.7L3222.4 779.9L3224.3 783.6Z" fill="#F46E0D"/>
<path d="M3217.5 770.6V770.7L3214.1 774.4L3205.7 783.6H3200.2L3212 770.6H3217.5Z" fill="#F46E0D"/>
<path d="M3309.4 754.7L3305.4 754.3L3286.1 783.6H3275.8L3280.2 778.1L3299.9 753.7L3295.6 753.1L3305.7 747.2L3309.4 754.7Z" fill="#F46E0D"/>
<path d="M3295.9 677.8C3295.9 687.3 3292.8 696.1 3287.7 703.3C3287.3 703.9 3286.8 704.5 3286.3 705.1L3254.2 680.7L3269.1 718.1C3268.4 718.4 3267.7 718.7 3267 718.9C3262.4 720.6 3257.4 721.5 3252.2 721.5C3228.1 721.5 3208.5 701.9 3208.5 677.8C3208.5 653.7 3228.1 634.1 3252.2 634.1C3253.7 634.1 3255.2 634.2 3256.7 634.3C3257.5 634.4 3258.2 634.5 3259 634.6L3253.7 676L3292.6 660.8C3292.9 661.5 3293.2 662.2 3293.4 662.9C3295 667.6 3295.9 672.6 3295.9 677.8Z" fill="#FA9E00"/>
<path d="M3299.8 659.3C3299.9 659 3299.9 658.8 3299.8 658.6C3298 652.1 3294.9 646.3 3290.6 641.3C3279.7 628.8 3264.7 626.4 3258.8 626C3258.2 626 3257.7 626.4 3257.7 627C3257.7 627.2 3257.7 627.3 3257.8 627.5C3257.7 627.6 3257.6 627.8 3257.6 628L3256.4 637.1L3251.2 677.7V677.8V677.9V678V678.1C3251.2 678.2 3251.3 678.3 3251.3 678.3C3251.4 678.4 3251.4 678.4 3251.5 678.5C3251.5 678.5 3251.5 678.5 3251.6 678.5C3251.7 678.5 3251.8 678.6 3251.8 678.6C3251.8 678.6 3251.8 678.6 3251.9 678.6H3252H3252.1C3252.2 678.6 3252.2 678.6 3252.3 678.6C3252.4 678.6 3252.4 678.6 3252.5 678.5L3290.7 663.6L3299.1 660.3C3299.8 660.4 3300.1 659.8 3299.8 659.3ZM3290 662L3253.5 676.2L3258.5 637.4L3259.7 628.3V628.2C3265.9 628.8 3279.2 631.4 3289.1 642.7C3293.1 647.3 3296.1 652.8 3297.8 659L3290 662Z" fill="#686874"/>
<path d="M3287.8 703.5L3285.5 701.8L3252.9 677C3252.4 676.6 3251.8 676.7 3251.4 677.2C3251.1 677.5 3251.1 678 3251.3 678.4C3251.2 678.7 3251.1 679 3251.2 679.3L3266 716.4L3267.1 719.2C3267.3 719.6 3267.6 719.9 3268.1 719.9C3268.2 719.9 3268.4 720 3268.5 720C3268.6 720 3268.7 720 3268.9 719.9C3272.9 718.5 3276.6 716.4 3279.9 713.8C3283 711.3 3285.8 708.3 3288 704.9C3288.3 704.4 3288.2 703.8 3287.8 703.5ZM3278.6 712.1C3275.7 714.4 3272.4 716.3 3268.9 717.6L3268.1 715.6L3254.1 680.5L3284.2 703.4L3285.7 704.5C3283.7 707.4 3281.3 709.9 3278.6 712.1Z" fill="#686874"/>
<path d="M3253.4 675.8C3255.4 660.7 3257.4 645.5 3259.4 630.4C3263.5 631 3272.1 632.8 3280.4 639.4C3286.7 644.3 3290.2 649.8 3292.1 653.3C3279.2 660.8 3266.3 668.3 3253.4 675.8Z" fill="#F8F7FF"/>
<path d="M3254.1 680.7C3264.7 688.6 3275.4 696.5 3286 704.4C3284 707 3281.4 709.8 3278 712.5C3276.7 713.6 3275.4 714.5 3274.1 715.3C3267.4 703.8 3260.7 692.2 3254.1 680.7Z" fill="#F8F7FF"/>
<path d="M3255.7 660.3C3262.4 660.3 3269.1 660.3 3275.9 660.3C3276.6 660.3 3276.6 659.2 3275.9 659.2C3269.2 659.2 3262.5 659.2 3255.7 659.2C3255 659.3 3255 660.3 3255.7 660.3Z" fill="#686874"/>
<path d="M3255.4 652.7C3268 652.7 3280.6 652.7 3293.2 652.7C3293.9 652.7 3293.9 651.6 3293.2 651.6C3280.6 651.6 3268 651.6 3255.4 651.6C3254.7 651.6 3254.7 652.7 3255.4 652.7Z" fill="#686874"/>
<path d="M3256.8 641C3265.4 641 3274 641 3282.7 641C3283.4 641 3283.4 639.9 3282.7 639.9C3274.1 639.9 3265.5 639.9 3256.8 639.9C3256.1 640 3256.1 641 3256.8 641Z" fill="#686874"/>
<path d="M3254.5 667.7C3257.1 667.7 3259.6 667.7 3262.2 667.7C3262.9 667.7 3262.9 666.6 3262.2 666.6C3259.6 666.6 3257.1 666.6 3254.5 666.6C3253.8 666.7 3253.8 667.7 3254.5 667.7Z" fill="#686874"/>
<path d="M3267.6 690C3264.9 690 3262.3 690 3259.6 690C3258.9 690 3258.9 691.1 3259.6 691.1C3262.3 691.1 3264.9 691.1 3267.6 691.1C3268.3 691 3268.3 690 3267.6 690Z" fill="#686874"/>
<path d="M3263.4 705.6C3266.6 702.4 3269.8 699.2 3273.1 695.9C3273.6 695.4 3272.8 694.7 3272.3 695.1C3269.1 698.3 3265.9 701.5 3262.6 704.8C3262.2 705.4 3262.9 706.1 3263.4 705.6Z" fill="#686874"/>
<path d="M3267 714.6C3270.8 714.6 3274.6 714.6 3278.4 714.6C3279.1 714.6 3279.1 713.5 3278.4 713.5C3274.6 713.5 3270.8 713.5 3267 713.5C3266.3 713.5 3266.3 714.6 3267 714.6Z" fill="#686874"/>
<path d="M3280.3 701.2C3278.4 703.1 3276.5 705 3274.6 706.9C3274.1 707.4 3274.9 708.1 3275.4 707.7C3277.3 705.8 3279.2 703.9 3281.1 702C3281.5 701.5 3280.8 700.7 3280.3 701.2Z" fill="#686874"/>
<path d="M3211.21 631.181L3209.96 632.009L3220.33 647.688L3221.58 646.861L3211.21 631.181Z" fill="#6D6D6D"/>
<path d="M3205.4 631H3188V632.5H3205.4V631Z" fill="#6D6D6D"/>
<path d="M3195.82 637.512L3188.02 637.706L3188.06 639.206L3195.86 639.011L3195.82 637.512Z" fill="#6D6D6D"/>
<path d="M3291.43 625.655L3286.56 636.075L3287.92 636.71L3292.79 626.29L3291.43 625.655Z" fill="#6D6D6D"/>
<path d="M3312.7 624H3294.5V625.5H3312.7V624Z" fill="#6D6D6D"/>
<path d="M3281.72 713.065L3280.66 714.126L3291.55 725.015L3292.61 723.955L3281.72 713.065Z" fill="#6D6D6D"/>
<path d="M3286.6 727.1H3242.1V728.6H3286.6V727.1Z" fill="#6D6D6D"/>
<path d="M3254 732.6H3242.9V734.1H3254V732.6Z" fill="#6D6D6D"/>
<path d="M801.7 1047.5H836.5L845 998.9H793.1L801.7 1047.5Z" fill="#686874"/>
<path d="M821.5 620.2C831.5 616.7 843.6 626.3 848 639.9C853.9 658.2 844.4 679.5 842.5 682.8C838.3 689.8 832.5 695.8 831.2 704.8C829.8 714.9 834.8 724.5 840.2 731.4C845.7 738.3 852.1 744.3 855.2 753.6C857.5 760.4 857.7 768.3 857.8 775.8C857.9 780 857.9 784.4 856.7 788.3C853.8 797.9 844.5 801.4 842 811.2C839.5 820.9 845 831 845.3 841.3C845.5 848.5 843.1 855.5 840.1 861.3C834.8 871.5 826.8 879.5 817.9 880.7C808.9 881.9 799.2 875.2 796 863.5C793.4 854 794.9 842.1 790.3 834.2C787.5 829.3 782.9 827.1 779.3 823.2C770.1 813.1 769.3 792.5 775.5 778.6C779 770.7 784.1 764.6 788.1 757.2C792.1 749.8 794.8 740.1 792.6 731.4C791.3 726.3 788.4 722.3 786.4 717.7C781.5 705.9 783.2 689.5 790.3 680.2C794.4 674.9 799.8 672 804.4 667.6C807.8 664.4 812.5 656.9 812.4 648.4C812.3 641.8 809.2 640.2 809.7 634.8C810.4 627.5 816.6 621.9 821.5 620.2Z" fill="#88BF3F"/>
<path d="M788 656C772.6 652.4 751.9 673.7 752 692C752.1 709.1 770.3 713.8 768.7 732C767.9 741.2 762.2 749.8 756 759.3C748.7 770.5 746.7 769.1 744 775.3C736.5 792.2 743.8 818.4 758 825.3C762.6 827.6 766.7 827.1 770 831.3C774.3 836.7 772.4 843.3 772.7 848.6C773.8 868.8 807.2 888.7 816 882.4C820.5 879.2 814.5 872 812.5 842.9C810.6 815.8 814.5 802.9 805 793.4C801.8 790.2 796.7 787.1 797 782.4C797.3 778 802 777 804.7 773.2C812.7 762 788.8 744.2 792 721.2C794.4 704.2 806.9 702.2 806.7 685.9C806.5 673.4 798.9 658.5 788 656Z" fill="#95D145"/>
<path d="M828.5 784C831.6 768.6 833.1 760.8 837.5 756.5C846.9 747.3 864.6 746.2 869.5 752.5C871.1 754.6 871.9 758.3 870.5 760.5C868.5 763.6 863.3 762 862 764.5C860.7 767.2 865.8 770.4 867.5 776C870.2 785.1 862.2 794.7 861 796C851.6 806.9 833.1 810.4 827.5 804C825.1 801.3 826.2 795.5 828.5 784Z" fill="#95D145"/>
<path d="M816.5 1001.8C817.9 1002 819.3 1002.3 820.7 1002.6C820.7 967.9 820.7 933.3 820.7 898.6C820 880.1 819.5 866.8 819 856.6C819 856.6 819 852.1 818.9 838C818.9 832.7 819.1 825.5 821.2 817C821.2 816.9 821.3 816.7 821.3 816.6C821.6 815.9 821.9 815 822.2 814C823.1 811.2 824.6 806.6 827 801.7C827.1 801.5 827.2 801.2 827.4 801C830.6 795.1 834.5 789.7 839.3 785.1L837.6 781.5C832.6 786.2 828.4 791.8 825.1 798.3C826.2 792.5 827.2 785.7 827.8 778.6C829 762.1 826.9 751.2 825.1 741.6C823.4 732.5 821.9 724.7 823 713.5C824.5 698.9 830 684.7 839.5 671.3L837.3 668.2C827.3 682.3 821.5 697.3 819.9 712.8C818.7 724.9 820.3 733.5 822.1 742.6C824 752.3 825.9 762.3 824.7 778C823.7 791 821 803.1 819.5 809.6C818.7 812.9 818.3 814.9 818.4 816.1C816 826.1 816 834.7 816 837.9C816 841.1 816.1 856.5 816.3 882.1C816 880.6 815.6 879.2 815.2 877.6C813.5 870.8 811.6 863.1 809.3 850.9C806.1 833.9 803.7 816.4 802.1 799L799 799.5C800.6 817.2 803.1 834.8 806.3 852C807.3 857.3 808.3 861.9 809.1 865.9C809.7 868.5 810.3 871.4 812.2 879C813.4 883.8 814.9 890.2 816.8 897.8C816.7 932.4 816.6 967.1 816.5 1001.8Z" fill="#686874"/>
<path d="M845 855.3C854.665 855.3 862.5 847.465 862.5 837.8C862.5 828.135 854.665 820.3 845 820.3C835.335 820.3 827.5 828.135 827.5 837.8C827.5 847.465 835.335 855.3 845 855.3Z" fill="#95D145"/>
<path d="M748 752C752.86 752 756.8 748.06 756.8 743.2C756.8 738.34 752.86 734.4 748 734.4C743.14 734.4 739.2 738.34 739.2 743.2C739.2 748.06 743.14 752 748 752Z" fill="#95D145"/>
<path d="M844.9 714.2C849.373 714.2 853 710.573 853 706.1C853 701.626 849.373 698 844.9 698C840.426 698 836.8 701.626 836.8 706.1C836.8 710.573 840.426 714.2 844.9 714.2Z" fill="#95D145"/>
<path d="M797.5 648.6C799.599 648.6 801.3 646.899 801.3 644.8C801.3 642.701 799.599 641 797.5 641C795.401 641 793.7 642.701 793.7 644.8C793.7 646.899 795.401 648.6 797.5 648.6Z" fill="#95D145"/>
<path d="M802.2 658.4C803.415 658.4 804.4 657.415 804.4 656.2C804.4 654.985 803.415 654 802.2 654C800.985 654 800 654.985 800 656.2C800 657.415 800.985 658.4 802.2 658.4Z" fill="#95D145"/>
</svg>
