<svg width="1840" height="360" viewBox="0 0 1840 360" fill="none" xmlns="http://www.w3.org/2000/svg">
<g clip-path="url(#clip0)">
<path d="M1743.4 130.9V104.7H1720.9V59.5H1600.2V104.7H1487.3V31.1H1362.8V78.8H1334.4V21.8H1209.9V128.7H1052.4V191.1H993.5V163.3H858.4V179.8H780.8V106.3H684.9V160.7H589V360H684.9H767.1H780.8H858.4H902.2H972.5H993.5H1052.4H1107.7H1209.9H1241.2H1303.5H1334.4H1362.8H1428H1472.4H1487.3H1600.2H1718.9H1720.9H1743.4H1839.6V130.9H1743.4Z" fill="#333"/>
<path d="M593.4 167.2V359.7H0V192.2H45.5V146.5H91V208.3H127.8V194.5H191.9V217.8H219.9V165.4H294.6V75.5H353.7V123.4H367.1V83.3H426.2V145.1H479.8V107.2H537.1V145.1H547.7V167.2H593.4Z" fill="#333"/>
<path d="M222.6 34.2V358.6H200.4V49.4C207.8 43.8 215.2 38.8 222.6 34.2Z" fill="#333"/>
<path d="M608.2 0V358.6H586V14.1C593.3 9.9 600.7 5.2 608.2 0Z" fill="#333"/>
</g>
<defs>
<clipPath id="clip0">
<rect width="1839.6" height="360" fill="white"/>
</clipPath>
</defs>
</svg>
