<svg width="1907" height="249" viewBox="0 0 1907 249" fill="none" xmlns="http://www.w3.org/2000/svg">
<g clip-path="url(#clip0)">
<path d="M1907.1 11.7H1798.7V111.4H1907.1V11.7Z" fill="white"/>
<path d="M1822.3 29.5H1811.7V40.1H1822.3V29.5Z" fill="#F9CE80"/>
<path d="M1842.8 29.5H1832.2V40.1H1842.8V29.5Z" fill="#F9CE80"/>
<path d="M1891.2 76.1H1880.6V86.7H1891.2V76.1Z" fill="#4CAF52"/>
<path d="M1823.9 51.4H1813.3V62H1823.9V51.4Z" fill="#4CAF52"/>
<path d="M1839.7 67H1829.1V77.6H1839.7V67Z" fill="#F9CE80"/>
<path d="M1878.2 46H1867.6V56.6H1878.2V46Z" fill="#F9CE80"/>
<path d="M1852.6 24.2V99.4" stroke="#EBEFF2" stroke-width="1.2444" stroke-miterlimit="10"/>
<path d="M1648.3 57C1658.57 57 1666.9 48.6725 1666.9 38.4C1666.9 28.1275 1658.57 19.8 1648.3 19.8C1638.03 19.8 1629.7 28.1275 1629.7 38.4C1629.7 48.6725 1638.03 57 1648.3 57Z" stroke="#D1D7DB" stroke-width="0.8681" stroke-miterlimit="10"/>
<path d="M1648.3 30.5V38.4H1660.9" stroke="#D1D7DB" stroke-width="0.8681" stroke-miterlimit="10"/>
<path d="M1801 166.2L1811.6 243.9" stroke="#213033" stroke-width="1.2599" stroke-miterlimit="10"/>
<path d="M1769.1 167.9L1758.7 244.4" stroke="#213033" stroke-width="1.2599" stroke-miterlimit="10"/>
<path d="M1808 169H1762.9C1760.7 169 1758.9 167.2 1758.9 165C1758.9 162.8 1760.7 161 1762.9 161H1808C1810.2 161 1812 162.8 1812 165C1812 167.2 1810.2 169 1808 169Z" fill="#000103"/>
<path d="M1709.4 209L1701.6 226.7L1712.2 230.5L1722.2 211.6L1709.4 209Z" fill="#FFAD9E"/>
<path d="M1701 223.8L1682.8 225.4C1681.5 225.5 1680.4 226.5 1680.2 227.9L1712.5 241.2L1713.4 228.7L1701 223.8Z" fill="#000103"/>
<path d="M1711.7 244.7L1678.5 231L1679.8 227.8L1713 241.4L1711.7 244.7Z" fill="#FEFEFF"/>
<path d="M1750.1 173.7L1719.7 224.3L1701.6 215.7L1727.8 163C1730.8 156 1739.3 153.3 1745.7 157.4C1751.2 160.9 1753.1 168 1750.1 173.7Z" fill="#3A933C"/>
<path d="M1807.8 138.7C1807.8 138.7 1815.5 153.6 1804 160.4C1802.3 161.4 1800.4 161.9 1798.5 162.1L1749.5 170.8L1732.4 147.8L1769 138.9L1807.8 138.7Z" fill="#4CAF52"/>
<path d="M1750.6 206.7L1760.6 223.2L1769.7 216.5L1760 197.5L1750.6 206.7Z" fill="#FFAD9E"/>
<path d="M1757.9 222L1749 238.1C1748.3 239.3 1748.6 240.8 1749.5 241.7L1778.6 222.2L1768.9 214.4L1757.9 222Z" fill="#000103"/>
<path d="M1781 224.9L1751.1 244.9L1749.2 242L1779.1 222L1781 224.9Z" fill="#FEFEFF"/>
<path d="M1746 154L1770.1 207.9L1752.9 218.1L1724.7 166.4C1720.6 159.9 1723.3 151.3 1730.2 148.3C1736.1 145.9 1743 148.3 1746 154Z" fill="#4CAF52"/>
<path d="M1753.2 170.1L1745.1 166.2" stroke="#3A933C" stroke-width="0.9302" stroke-miterlimit="10"/>
<path d="M1728.2 123.8L1736.7 123.1L1736.4 131.7H1729.1L1728.2 123.8Z" fill="#FCC3CB"/>
<path d="M1728.8 123.8C1728.8 123.8 1709.4 116.2 1711.5 131.7H1730.1L1728.8 123.8Z" fill="#FFC9BD"/>
<path d="M1757.6 88.5C1757.6 88.5 1748.9 106.7 1747 125.4C1746.8 127.5 1748.9 129.6 1750.5 130.9C1754.2 133.9 1760.3 130.9 1761.7 126.6C1761.7 126.6 1772.3 91.5 1771.1 90.7C1770.8 90.6 1757.6 88.5 1757.6 88.5Z" fill="#736153"/>
<path d="M1752 118.9L1725.2 118.2L1727.2 132L1754 132.1C1755 132.2 1756 131.9 1756.9 131.4C1759.9 129.6 1761.2 125.7 1759.5 122.4C1758.1 119.6 1755 118.2 1752 118.9Z" fill="#736153"/>
<path d="M1778.4 81.5L1760.3 86.4C1758.5 86.6 1757.1 88.3 1757.3 90.2L1769 138.9C1769 138.9 1775.6 146.4 1807.8 138.8L1803.3 89.1C1803.5 87.2 1801.2 84.2 1799.3 84L1778.4 81.5Z" fill="#736153"/>
<path d="M1764.2 117.9C1764.6 119.5 1760.5 101.6 1760.4 101.4" stroke="#5E4C3F" stroke-width="0.9489" stroke-miterlimit="10"/>
<path d="M1768.4 132.8H1737.8V129.3H1768.4C1769.4 129.3 1770.1 130.1 1770.1 131C1770.1 132 1769.3 132.8 1768.4 132.8Z" fill="#9198AA"/>
<path d="M1741.8 132.8H1698.7C1696.4 132.8 1694.3 131.2 1693.7 129L1685.4 98.9C1684.9 97 1686.3 95.2 1688.2 95.2H1729.3C1730.9 95.2 1732.2 96.3 1732.6 97.8L1741.8 132.8Z" fill="#AFB4C3"/>
<path d="M1710 118C1712.1 118 1713.8 116.254 1713.8 114.1C1713.8 111.946 1712.1 110.2 1710 110.2C1707.9 110.2 1706.2 111.946 1706.2 114.1C1706.2 116.254 1707.9 118 1710 118Z" stroke="white" stroke-width="0.764" stroke-miterlimit="10"/>
<path d="M1786.9 93.8C1786.9 93.8 1796.7 113.5 1807.9 129.4C1809.1 131.2 1812.1 132.1 1814.2 132C1819.1 131.8 1821.1 126.5 1819.3 122.2C1819.3 122.2 1803.6 85.7 1801.4 85.1C1801.1 85 1786.9 93.8 1786.9 93.8Z" fill="#736153"/>
<path d="M1775.6 124.9L1784.1 124.3L1783.8 132.8H1776.5L1775.6 124.9Z" fill="#FFC9BD"/>
<path d="M1776.2 124.9C1776.2 124.9 1756.8 117.3 1758.9 132.8H1777.5L1776.2 124.9Z" fill="#FFC9BD"/>
<path d="M1812.1 118.7L1781.7 119.6L1782.3 133.4L1813.9 132.7C1818.4 132.1 1821.1 127.4 1819.5 123.1C1818.3 120.1 1815.2 118.3 1812.1 118.7Z" fill="#736153"/>
<path d="M1792.7 101.4L1800.8 119.1L1781.6 119.6V124.3" stroke="#5E4C3F" stroke-width="0.9489" stroke-miterlimit="10"/>
<path d="M1800.8 119.1L1805 121.2" stroke="#5E4C3F" stroke-width="0.9489" stroke-miterlimit="10"/>
<path d="M1758 48C1757.8 48.2 1748.9 51.5 1758 62L1765 49.4L1758 48Z" fill="black"/>
<path d="M1762.1 50.3C1762.1 50.3 1758 51.9 1757.6 54.6L1757.2 50.1C1757.2 50.1 1754.4 44.3 1759.1 41C1764.8 36.9 1770.2 40.1 1771.9 41.4C1773.6 42.7 1781.2 47.9 1781.2 47.9C1781.2 47.9 1787.5 49.8 1782.1 59.1L1777.5 59.7L1774.7 52.8L1767.7 50.4L1762.1 50.3Z" fill="black"/>
<path d="M1764.5 63.9C1764.9 66.2 1763.4 68.4 1761.2 68.8C1758.9 69.2 1756.7 67.7 1756.3 65.4C1755.9 63.1 1757.4 60.9 1759.6 60.5C1761.9 60.1 1764.1 61.6 1764.5 63.9Z" fill="#EFB2A8"/>
<path d="M1766.8 70.2L1770 85C1770.7 89.2 1773.4 89 1777.2 88.3C1780.4 87.7 1783 86.2 1782.8 82.6L1779.9 66.5L1766.8 70.2Z" fill="#FFC9BD"/>
<path d="M1769.2 81.3C1769.2 81.3 1779.1 76.9 1778.3 69.3L1767.5 73.5L1769.2 81.3Z" fill="#DD9790"/>
<path d="M1773.8 75L1769 75.9C1764.1 76.8 1759.5 73.5 1758.8 68.5L1757.1 57.4C1756.3 51.9 1759.9 46.7 1765.3 45.7C1770.8 44.7 1777.1 48.2 1778.2 53.8L1779.9 66.5C1780.4 70.5 1777.8 74.3 1773.8 75Z" fill="#FFC9BD"/>
<path d="M1763.4 64.7V66.8C1763.4 67.2 1763.8 67.6 1764.2 67.5L1765.3 67.4" stroke="#131314" stroke-width="0.5593" stroke-miterlimit="10" stroke-linecap="round" stroke-linejoin="round"/>
<path d="M1768.3 56.7C1768.3 56.7 1766 56.8 1766.2 58C1766.2 58 1766.3 58.8 1768.3 58.7C1770.3 58.6 1770.8 58.3 1770.8 57.5C1770.9 56.8 1769.4 56.6 1768.3 56.7Z" fill="black"/>
<path d="M1759.6 59.5C1759.6 59.5 1761.4 59 1761.7 60.1C1761.7 60.1 1761.9 60.9 1760.3 61.3C1758.7 61.7 1758.1 61.5 1757.9 60.9C1757.7 60.2 1758.8 59.7 1759.6 59.5Z" fill="black"/>
<path d="M1768.03 63.3724C1768.46 63.2743 1768.73 62.8455 1768.63 62.4147C1768.53 61.984 1768.1 61.7143 1767.67 61.8124C1767.24 61.9105 1766.97 62.3393 1767.07 62.7701C1767.17 63.2009 1767.6 63.4705 1768.03 63.3724Z" fill="black"/>
<path d="M1760.61 64.5506C1761.04 64.4525 1761.31 64.0238 1761.21 63.593C1761.11 63.1622 1760.68 62.8925 1760.25 62.9906C1759.82 63.0887 1759.55 63.5174 1759.65 63.9482C1759.75 64.379 1760.18 64.6487 1760.61 64.5506Z" fill="black"/>
<path d="M1762 70.7L1762.3 69.2C1762.6 68.7 1763.1 68.4 1763.7 68.4L1767.7 68.1C1768.2 68.1 1768.7 68.2 1769.1 68.6L1770.2 70L1762 70.7Z" fill="black"/>
<path d="M1776.3 61.7C1776.3 61.7 1772.2 61.3 1774.1 53.7C1774.1 53.7 1764.3 55.7 1761.9 48.8L1766.4 44.1L1776.4 45.9L1779.7 52.2L1779.2 57.8L1776.3 61.7Z" fill="black"/>
<path d="M1784.5 60.2C1784.9 62.5 1783.4 64.7 1781.2 65.1C1778.9 65.5 1776.7 64 1776.3 61.7C1775.9 59.4 1777.4 57.2 1779.6 56.8C1781.9 56.4 1784.1 57.9 1784.5 60.2Z" fill="#FFC9BD"/>
<path d="M1779.2 62.5C1779.2 62.5 1778.6 59.5 1781.6 59.4" stroke="#131314" stroke-width="0.5593" stroke-miterlimit="10" stroke-linecap="round" stroke-linejoin="round"/>
<path d="M1761.9 48.8C1761.9 48.8 1758.8 49.4 1757.5 52.6L1758.8 43.6L1764.8 41.6L1769.3 43.1L1768.5 48.9L1761.9 48.8Z" fill="black"/>
<path d="M1767.5 84.4L1773.9 82.5L1782.2 81.9L1784.8 82.2C1784.8 82.2 1784.4 88.6 1773.1 89.8C1763.2 90.9 1767.5 84.4 1767.5 84.4Z" fill="#FFC9BD"/>
<path d="M1897.2 244.4H1600" stroke="#213033" stroke-width="1.2599" stroke-miterlimit="10"/>
<path d="M1668.3 137.3L1651.4 244.4H1656.5L1680.4 135.3L1668.3 137.3Z" fill="#435D60"/>
<path d="M1823.3 137.3L1840.2 244.4H1835.1L1811.2 135.3L1823.3 137.3Z" fill="#435D60"/>
<path d="M1856.4 132.8H1633.6V142.1H1856.4V132.8Z" fill="#213033"/>
<path d="M1682.8 116.3C1682.8 116.3 1685.3 131.8 1673.7 132.4C1662.1 133 1664.9 116.2 1664.9 116.2L1682.8 116.3Z" fill="#FEFEFF"/>
<path d="M1663.7 128.9C1660.7 129 1658.2 126.6 1658.1 123.5C1658 120.5 1660.4 117.9 1663.4 117.8C1666.4 117.7 1668.9 120.1 1669 123.2C1669.1 126.3 1666.7 128.8 1663.7 128.9ZM1663.4 119.7C1661.3 119.8 1659.7 121.5 1659.8 123.6C1659.9 125.7 1661.6 127.3 1663.6 127.2C1665.7 127.1 1667.3 125.4 1667.2 123.3C1667.2 121.2 1665.5 119.6 1663.4 119.7Z" fill="#FEFEFF"/>
<path d="M1676 105.3C1676 105.3 1681.5 97.2 1674.7 92.4C1666.5 86.5 1678.1 75.1 1678.1 75.1" stroke="#FEFEFF" stroke-width="0.9865" stroke-miterlimit="10"/>
<path d="M1666 82.4C1666 82.4 1659.3 93.3 1667.2 98.1C1674.4 102.4 1669.1 108.7 1669.1 108.7" stroke="#FEFEFF" stroke-width="0.9865" stroke-miterlimit="10"/>
<path d="M1381 183.5H1426.1C1429.2 183.5 1431.4 180.5 1430.5 177.5L1409 103.3C1408.4 101.3 1406.6 99.9 1404.6 99.9H1359.5C1356.4 99.9 1354.2 102.9 1355.1 105.9L1376.6 180.1C1377.2 182.1 1378.9 183.5 1381 183.5Z" fill="#111D36"/>
<path d="M1387.2 183.5H1426.5C1429.6 183.5 1431.8 180.5 1430.9 177.5L1409.4 103.3C1408.8 101.3 1407 99.9 1405 99.9H1365.7C1362.6 99.9 1360.4 102.9 1361.3 105.9L1382.8 180.1C1383.4 182.1 1385.2 183.5 1387.2 183.5Z" fill="#C1CCFF"/>
<path d="M1387.17 239.794V243.894H1429.47V239.794H1387.17Z" fill="#111D36"/>
<path d="M1433.31 244.469C1433.66 242.344 1432.22 240.336 1430.1 239.983C1427.97 239.631 1425.96 241.068 1425.61 243.193C1425.26 245.317 1426.7 247.326 1428.82 247.678C1430.95 248.03 1432.95 246.594 1433.31 244.469Z" fill="#111D36"/>
<path d="M1406.14 241.591H1410.24V182.891H1406.14V241.591Z" fill="#111D36"/>
<path d="M1391.01 244.476C1391.37 242.351 1389.93 240.343 1387.8 239.99C1385.68 239.638 1383.67 241.075 1383.32 243.2C1382.97 245.324 1384.4 247.333 1386.53 247.685C1388.65 248.037 1390.66 246.6 1391.01 244.476Z" fill="#111D36"/>
<path d="M1382.3 183.5H1430C1432.2 183.5 1434 181.7 1434 179.5C1434 177.3 1432.2 175.5 1430 175.5H1382.3C1380.1 175.5 1378.3 177.3 1378.3 179.5C1378.2 181.7 1380 183.5 1382.3 183.5Z" fill="#111D36"/>
<path d="M1400 72.6C1404.3 69.8 1405 62.3 1405 62.3L1420.6 60.2L1433.1 67.9C1433.1 67.9 1429.3 78.8 1432.3 83C1435.2 87.1 1438.7 94.5 1431.5 100C1424.3 105.6 1413.8 100 1413.8 100C1413.8 100 1395.5 100.5 1389.7 93.5C1379.1 80.7 1397.7 74 1400 72.6Z" fill="#000103"/>
<path d="M1401.7 224.4L1397.5 233.9L1403.6 239L1405.3 236.4C1405.3 236.4 1412.9 244.8 1425.5 245.9C1425.5 245.9 1431.4 245.6 1421.8 237.6L1401.7 224.4Z" fill="#111D36"/>
<path d="M1401.7 224.4L1409.9 212L1418.9 217.5L1412.9 227.1C1412.9 227.1 1421.9 237.3 1421.8 237.6C1421.8 237.9 1423 239.7 1420.5 239.4C1417.8 239.2 1402.1 229.5 1401.7 224.4Z" fill="#D48066"/>
<path d="M1435 147.3L1401.5 213.7L1422.5 221.4L1463.3 167.7C1469.4 159.7 1463.9 148.1 1453.8 147.8L1435 147.3Z" fill="#E8413D"/>
<path d="M1466.4 234.4L1469.5 245.9H1476.5V242.9C1476.5 242.9 1483.5 245.6 1490.4 244.5C1497.3 243.4 1503.2 242.7 1501.2 240.1C1499.2 237.5 1490.1 235.6 1490.1 235.6L1466.4 234.4Z" fill="#111D36"/>
<path d="M1459.2 218.5L1466.5 234.5C1466.5 234.5 1467.4 237.1 1473 237.9C1478.5 238.7 1494.6 240.3 1492.6 237L1476.5 230.6L1469.2 213.2L1459.2 218.5Z" fill="#D48066"/>
<path d="M1388.4 144C1388.4 144 1387.6 145.7 1386.9 148.4C1383.3 162.3 1394.1 175.8 1408.4 175.8H1427.5L1454 223.9L1480.4 222.4L1450.7 155.9C1448.7 151.3 1444.3 148.3 1439.3 147.9L1388.4 144Z" fill="#FA584E"/>
<path d="M1437.3 115.8L1446.3 140.9H1436.8L1425.1 116.5L1437.3 115.8Z" fill="#BC634B"/>
<path d="M1430.2 97.1C1430.2 97.1 1435.9 97.9 1440.4 119.7L1423.1 120L1430.2 97.1Z" fill="#FEFEFF"/>
<path d="M1423.6 94.3L1430.3 97.1C1431.5 97.6 1432.3 98.8 1432.4 100.2C1432.7 106.1 1432.9 122.6 1424.8 131.2L1417.8 140.9H1390.5L1390 93.7L1392.5 85.7L1403.9 88.5L1423.6 94.3Z" fill="#FEFEFF"/>
<path d="M1431 119.9C1431 119.9 1433.3 114.8 1432.6 106.3" stroke="#EBEFF2" stroke-width="0.9481" stroke-miterlimit="10"/>
<path d="M1409.9 126.6L1446.7 128.1L1448.1 134.3L1410.9 138.5C1405 139.2 1399.4 135.5 1397.7 129.9L1396.9 127.4L1409.9 126.6Z" fill="#D48066"/>
<path d="M1446.8 128.1C1446.8 128.1 1451.5 127.9 1457.5 133.9L1461.9 139L1455.7 139.5L1446.7 133.8V128.1H1446.8Z" fill="#D48066"/>
<path d="M1405 109.5L1409.9 126.6L1397 127.5L1388.7 104.2L1405 109.5Z" fill="#D48066"/>
<path d="M1399.1 91.2L1405 109.6L1388.1 110.2L1384.2 95.5C1383 91.1 1385.8 86.6 1390.3 85.8C1394.1 85 1398 87.4 1399.1 91.2Z" fill="#FEFEFF"/>
<path d="M1405 109.5L1402.1 100.4" stroke="#EBEFF2" stroke-width="0.9481" stroke-miterlimit="10"/>
<path d="M1408.9 91.7L1412.4 78.4C1412.4 78.4 1414.6 79.2 1416.6 79.8C1418.6 80.4 1420.3 79.8 1420.8 81L1422.6 79.7L1420.1 94.6C1420.1 94.8 1420.1 94.9 1420.1 95.1L1408.8 92.1C1408.9 92 1408.9 91.9 1408.9 91.7Z" fill="#D48066"/>
<path d="M1421.5 86.6C1421.5 86.6 1414 87 1412.2 77.3L1422.6 80L1421.5 86.6Z" fill="#A54A35"/>
<path d="M1405 62C1403.5 70.6 1411.4 78.2 1419.8 79.1C1424.3 79.6 1435 73.5 1436 64.8C1437 56.1 1431.5 49.7 1423.2 48.7C1415.4 47.8 1406.8 51.9 1405 62Z" fill="#000103"/>
<path d="M1434.46 73.2268C1434.69 71.1407 1433.19 69.2636 1431.1 69.0342C1429.02 68.8048 1427.14 70.31 1426.91 72.3961C1426.68 74.4822 1428.19 76.3592 1430.27 76.5886C1432.36 76.818 1434.24 75.3129 1434.46 73.2268Z" fill="#BC634B"/>
<path d="M1410.3 61.9C1409.8 66.7 1410 70.9 1410.4 73.9C1410.8 76.9 1412.4 79.1 1414.9 81L1415.4 81.3C1418 83.3 1421.7 83.8 1424.7 82.4C1427.8 81.1 1430 79.1 1431 76.1C1432.7 70.6 1433.6 64.4 1433.6 64.4C1433.6 64.4 1436 52.4 1423.5 51.3C1410.8 50.1 1410.3 61.9 1410.3 61.9Z" fill="#D48066"/>
<path d="M1428.9 55.8C1428.9 55.8 1424 64.6 1407.6 65.7C1407.6 65.7 1408.3 49.2 1420.6 49.4C1420.5 49.3 1426.7 48.6 1428.9 55.8Z" fill="#000103"/>
<path d="M1425.4 55.8C1425.4 55.8 1427.8 63.8 1434.6 67C1434.6 67 1437.1 54.5 1425.5 50.4C1425.5 50.4 1427.6 49.6 1425.4 55.8Z" fill="#000103"/>
<path d="M1429.59 71.373C1429.66 70.7142 1429.19 70.1215 1428.53 70.0491C1427.87 69.9766 1427.28 70.4519 1427.2 71.1107C1427.13 71.7694 1427.61 72.3623 1428.26 72.4347C1428.92 72.5071 1429.52 72.0317 1429.59 71.373Z" fill="#000103"/>
<path d="M1419.56 70.0765C1419.64 69.4177 1419.16 68.825 1418.5 68.7526C1417.84 68.6801 1417.25 69.1554 1417.18 69.8142C1417.11 70.4729 1417.58 71.0658 1418.24 71.1382C1418.9 71.2106 1419.49 70.7353 1419.56 70.0765Z" fill="#000103"/>
<path d="M1424.5 72.5L1424.7 74.8C1424.7 75.2 1424.3 75.4 1423.9 75.3L1423.2 74.9" stroke="black" stroke-width="0.5829" stroke-miterlimit="10" stroke-linecap="round" stroke-linejoin="round"/>
<path d="M1422.5 66.5L1415.3 67.5C1415.3 67.5 1415.8 65.6 1418.8 65.2C1421.7 64.8 1422.5 66.5 1422.5 66.5Z" fill="#000103"/>
<path d="M1425.9 67L1432.1 69.5C1432.1 69.5 1432 67.5 1429.5 66.5C1426.9 65.5 1425.9 67 1425.9 67Z" fill="#000103"/>
<path d="M1424.4 77.5C1424.4 77.5 1421.7 78.3 1419.8 76.4" stroke="black" stroke-width="0.5829" stroke-miterlimit="10" stroke-linecap="round" stroke-linejoin="round"/>
<path d="M1426.67 63.732C1426.71 63.3477 1426.44 63.002 1426.05 62.9597C1425.67 62.9175 1425.32 63.1947 1425.28 63.579C1425.24 63.9633 1425.51 64.3091 1425.9 64.3514C1426.28 64.3936 1426.63 64.1163 1426.67 63.732Z" fill="#FF413D"/>
<path d="M1414.6 61.5C1414.5 61.7 1410.4 70 1410.4 70L1409.1 61.8L1414.6 61.5Z" fill="#000103"/>
<path d="M1412.44 70.2085C1412.67 68.1224 1411.17 66.2453 1409.08 66.0159C1406.99 65.7865 1405.12 67.2917 1404.89 69.3778C1404.66 71.4639 1406.16 73.3409 1408.25 73.5703C1410.34 73.7997 1412.21 72.2946 1412.44 70.2085Z" fill="#D48066"/>
<path d="M1407.2 68.3C1407.2 68.3 1410.1 67.8 1410.1 70.7" stroke="black" stroke-width="0.5829" stroke-miterlimit="10" stroke-linecap="round" stroke-linejoin="round"/>
<path d="M1423.6 94.3L1404 88.5C1404 88.5 1404.4 95.3 1416 97.9C1417.8 98.3 1419.7 98.4 1421.5 97.9C1422.9 97.5 1423.4 95.5 1423.6 94.3Z" fill="#D48066"/>
<path d="M1539.56 247.001H1543.66V145.601H1539.56V247.001Z" fill="#111D36"/>
<path d="M1480.69 247.001H1484.79V145.601H1480.69V247.001Z" fill="#111D36"/>
<path d="M1395.42 247.001H1399.52V145.601H1395.42V247.001Z" fill="#111D36"/>
<path d="M1336.55 247.001H1340.65V145.601H1336.55V247.001Z" fill="#111D36"/>
<path d="M1376.46 150.436L1557.06 150.436V140.836L1376.46 140.836V150.436Z" fill="#24385B"/>
<path d="M1323.99 150.436H1376.49V140.836H1323.99V150.436Z" fill="#111D36"/>
<path d="M1437.5 141.2H1467V137.9H1437.5C1436.6 137.9 1435.8 138.6 1435.8 139.6C1435.8 140.5 1436.5 141.2 1437.5 141.2Z" fill="#162123"/>
<path d="M1463.1 141.2H1505.5C1507.8 141.2 1509.7 139.7 1510.3 137.5L1518.7 107.5C1519 106.4 1518.2 105.3 1517 105.3H1474.1C1473.2 105.3 1472.3 105.9 1472.1 106.8L1463.1 141.2Z" fill="#273237"/>
<path d="M1493.1 127.7C1495.14 127.7 1496.8 126.043 1496.8 124C1496.8 121.957 1495.14 120.3 1493.1 120.3C1491.06 120.3 1489.4 121.957 1489.4 124C1489.4 126.043 1491.06 127.7 1493.1 127.7Z" fill="white"/>
<path d="M1607.6 247H1262.4" stroke="#213033" stroke-width="1.2642" stroke-miterlimit="10"/>
<path d="M861.9 146.4C862.5 132.2 863.7 119.8 865.2 111.2C867.6 97.5 869.7 89.5 869.7 89.5C870 88.3 874.5 83.4 884.6 83.6C894.7 83.8 893.7 90.2 893.7 90.2C893.7 90.4 893.7 90.6 893.6 90.8C893.5 91.1 884.3 124.6 884.7 167.8C884.7 168.4 884.8 169.5 884.7 170.2C884.7 170.2 861.4 170.8 861.4 170.2C860.6 166.3 861 155.8 861.9 146.4Z" fill="#D1A586"/>
<path d="M858.9 167.5C858.9 168.1 859.2 168.6 859.6 168.6C860 168.6 860.3 168.1 860.3 167.5H880.3C880.3 168.1 880.6 168.6 881 168.6C881.4 168.6 881.7 168.1 881.7 167.5C881.6 155.1 882.3 143.6 883.4 133.4C886.1 108 891 91 891 90.7C891 90.5 891.1 90.3 891.1 90.1C891.1 90.1 892.1 83.7 882 83.5C871.9 83.3 867.4 88.2 867.1 89.4C867.1 89.5 865.9 93.9 864.3 102C863.8 104.7 863.2 107.7 862.6 111.1C861.1 119.7 859.9 132.1 859.3 146.3C858.4 155.8 858.1 163.7 858.9 167.5Z" fill="#E5BD9E"/>
<path d="M858.9 167.5C858.9 168.1 859.2 168.6 859.6 168.6C860 168.6 860.3 168.1 860.3 167.5H880.3C880.3 168.1 880.6 168.6 881 168.6C881.4 168.6 881.7 168.1 881.7 167.5C881.6 155.1 882.3 143.6 883.4 133.4C880.1 117.3 867.3 104.9 864.3 102.2C863.8 104.9 863.2 107.9 862.6 111.3C861.1 119.9 859.9 132.3 859.3 146.5C858.4 155.8 858.1 163.7 858.9 167.5Z" fill="#DFB697"/>
<path d="M879.1 167.2C879 167.1 879 167.1 879 167.1C879 167.1 879 167.1 879 167C879 166.2 877.3 166 874.6 166C874 166 873.4 166 872.7 166C871.9 166 871.1 166 870.3 166C867.8 166 864.4 165.9 861.1 165.3C859 164.9 860.4 148.4 861.9 133C862.2 130.4 862.4 128.3 862.5 127.1C863.5 114.1 869.2 90.6 869.3 90.5C869.6 89.5 873 85.9 880.5 86C883.3 86 885.3 86.7 886.4 88.1C887.6 89.5 887.3 91 887.3 91C887.3 91.1 887.3 91.3 887.2 91.4C887.2 91.5 882 121.7 881.2 128.9C879.8 141.2 879.2 166.5 879.2 166.9C879.2 166.9 879.2 166.9 879.2 167V167.1L879.1 167.2ZM874.6 165.9C876.9 165.9 878.4 166 879 166.6C879.1 162.9 879.6 140.5 881 129.1C881.9 121.7 887 91.6 887.1 91.5C887.1 91.4 887.1 91.3 887.1 91.1C887.1 91.1 887.3 89.6 886.2 88.3C885.1 87 883.2 86.4 880.4 86.3C880.3 86.3 880.2 86.3 880.1 86.3C873 86.3 869.7 89.7 869.5 90.6C869.4 90.8 863.7 114.1 862.7 127.2C862.6 128.4 862.4 130.5 862.1 133.1C861.1 143.4 859 164.8 861.1 165.2C864.4 165.8 867.8 165.9 870.3 165.9C871.1 165.9 872 165.9 872.7 165.9C873.4 165.9 874 165.9 874.6 165.9Z" fill="#D1A586"/>
<path d="M883.2 168.5H804.9C804.9 168.5 806.7 161.1 852.1 162.2C884.2 163 883.2 168.5 883.2 168.5Z" fill="#E5BD9E"/>
<path d="M889.6 245.6C880.5 199.6 882.9 171.4 882.9 171.1C882.9 170.4 881.6 169.8 880.9 169.7C880.2 169.7 877.1 169.5 876.7 170.1C876.2 170.9 874.4 205.6 887.9 245.6H889.6Z" fill="#D1A586"/>
<path d="M816.5 245.6C825.6 199.6 823.2 171.4 823.2 171.1C823.2 170.4 824.5 169.8 825.2 169.7C825.9 169.7 829 169.5 829.4 170.1C829.9 170.9 831.7 205.6 818.2 245.6H816.5Z" fill="#D1A586"/>
<path d="M802 245.6C811.1 199.6 808.7 171.4 808.7 171.1C808.7 170.4 810 169.8 810.7 169.7C811.4 169.7 814.5 169.5 814.9 170.1C815.4 170.9 817.2 205.6 803.7 245.6H802Z" fill="#A0795F"/>
<path d="M875 245.6C865.9 199.6 868.3 171.4 868.3 171.1C868.3 170.4 867 169.8 866.3 169.7C865.6 169.7 862.5 169.5 862.1 170.1C861.6 170.9 859.8 205.6 873.3 245.6H875Z" fill="#A0795F"/>
<path d="M804.9 170.9H883.2C884.1 170.9 884.8 170.2 884.8 169.3V168.2C884.8 167.3 884.1 166.6 883.2 166.6H804.9C804 166.6 803.3 167.3 803.3 168.2V169.3C803.3 170.2 804 170.9 804.9 170.9Z" fill="#D1A586"/>
<path d="M789.9 100.3C786.6 98.4 784.9 96.8 782.5 96.5C780.1 96.2 775.7 95.9 775.1 95C773.6 92.7 772 88.3 773.1 88.6C774.2 88.9 778.3 91.7 779.7 91.3C781 90.9 777.7 89.8 778.5 89.1C779.3 88.4 782.9 90.1 783.7 91.9C784 92.5 794.3 95.8 794.3 95.8L789.9 100.3Z" fill="#FFB27D"/>
<path d="M837 217.7C837.7 218.4 837.7 219.3 837.4 220.2C836.8 221.8 834.8 223.7 832.5 225.5C832.2 225.7 831.9 226 831.7 226.1C831.6 226.2 831.6 226.2 831.5 226.3L831.4 226.4C829.3 228.4 830.1 228.8 826.2 232.8C821.8 237.4 818.8 237.4 818 237C817.3 236.6 818.7 234.2 820.4 231.5C820.5 231.4 820.6 231.2 820.6 231.1C820.8 230.7 821 230.4 821.2 230C823.1 226.7 822.6 225.2 822.2 220.3C821.8 216.4 816.1 198.2 816.1 198.2L824.5 196.8C824.5 196.8 827 211.2 829.8 213.4C831.3 214.6 833 214.6 834.4 215.5C834.5 215.6 834.6 215.6 834.7 215.7C835.5 216.4 836.3 217 837 217.7Z" fill="#FFB27D"/>
<path d="M837 217.7C837.7 218.4 837.7 219.3 837.4 220.2C836.7 221.8 834.7 223.7 832.5 225.5C832.2 225.7 832 226 831.7 226.2C831.6 226.3 831.6 226.3 831.5 226.4L831.4 226.5C829.3 228.5 830.1 228.9 826.2 232.9C821.8 237.5 818.8 237.5 818 237.1C817.3 236.7 818.7 234.3 820.4 231.6C821.3 231.3 825.2 229.7 828.2 225.9C830.8 222.5 832.6 218.2 834.4 215.7C834.5 215.8 834.6 215.8 834.7 215.9C835.5 216.4 836.3 217 837 217.7Z" fill="#C65447"/>
<path d="M769.4 212.5C768.9 215.1 765.2 214.7 761.1 213.6C757 212.6 758 213.8 752.1 213.1C746.2 212.5 744.5 210.3 744.3 209.4C744.1 208.6 747 208.4 750.1 208C750.5 208 750.9 207.9 751.3 207.9C754.8 207.5 757.4 205.2 760.6 203.3C763.6 201.5 768.1 194.4 768.1 194.4L776.1 195C776.1 195 771.9 201.4 770.2 204.2C769.2 205.8 769.3 208 769.4 209.7C769.5 210.7 769.6 211.6 769.4 212.5Z" fill="#FFB27D"/>
<path d="M761.1 213.7C757 212.7 758 213.9 752.1 213.2C746.2 212.6 744.5 210.4 744.3 209.5C744.1 208.7 747 208.5 750.1 208.1V208.2C750.1 208.2 753.6 210.7 758.5 210.8C762.5 210.9 766.7 209.8 769.4 209.8C769.5 210.7 769.5 211.6 769.3 212.6C768.9 215.1 765.2 214.7 761.1 213.7Z" fill="#C65447"/>
<path d="M800.2 161.1L817.5 207.7C817.5 207.7 820.2 208 822.7 207.2C825 206.5 827.7 204.7 827.7 204.7C827.7 204.7 823.4 159.9 815.5 150.6C807.7 141.4 800.2 161.1 800.2 161.1Z" fill="#AA413E"/>
<path d="M868.8 142.2C868.8 142.2 819 125.4 807.9 128.9C796.8 132.5 763.4 198.8 763.4 198.8C763.4 198.8 764.2 199.8 766.2 200.6C768.1 201.3 772.7 201.3 772.7 201.3C772.7 201.3 802.8 175.5 806.4 168C810 160.5 811.4 153.3 815 154C818.6 154.7 861.2 171.6 870.9 161.5C880.6 151.5 878 138.4 878 138.4L868.8 142.2Z" fill="#C65447"/>
<path d="M838.3 63.9C837.5 62.3 836.6 59.3 836.2 54.1C836.3 54.6 837.2 61.2 839.7 64.9C850.1 71.7 869.9 94.4 869.5 98.7C869.5 98.7 876.5 86.8 876.6 86.8C876.6 86.8 889.5 70.4 874.2 61C866.4 56.2 866.5 50.1 866.8 44.8C867.1 39.5 864.7 16.6 849.1 22.6C849.1 22.6 846.6 21.5 845.5 21.7C845.5 21.7 846.4 21.9 846.9 22.4C845.1 22.3 842.5 22.4 840.4 23.7C834.7 26.7 829.6 55.8 838.3 63.9Z" fill="#B5453C"/>
<path d="M840.3 65.3C840.2 65.3 845.3 67.9 849.1 66.9C852.7 65.9 855 61.3 855 61.3C853.5 61 853 58.9 853.1 50L852.4 50.1L840.9 52.4C840.9 52.4 841.2 56 841.2 59.4C841.1 62.2 841 64.9 840.3 65.3Z" fill="#FFB27D"/>
<path d="M840.9 52.3C840.9 52.3 841.2 55.9 841.2 59.3C847.6 59.1 851 53.2 852.4 50L840.9 52.3Z" fill="#ED975D"/>
<path d="M853.5 48.8C853.5 48.8 856.9 43.5 857.7 38.9C858.3 35.6 856.6 23.6 844.5 25.3C844.5 25.3 841 25.6 837.7 27.9C835.1 29.7 831.3 33.5 835.5 44L836.6 47.6L853.5 48.8Z" fill="#B5453C"/>
<path d="M838.7 55.6C838.7 55.6 853.9 55.9 853.9 46.4C853.9 36.9 855.9 30.6 846.2 30C836.5 29.4 834.6 33.1 833.8 36.2C833 39.3 834.7 55.3 838.7 55.6Z" fill="#FFB27D"/>
<path d="M839.3 29.7C839.3 29.7 843.5 40.8 849.9 42.5C856.3 44.1 859.1 42.4 859.1 42.4C859.1 42.4 854.2 38.5 853.2 31.7C853.1 31.7 842.4 24.4 839.3 29.7Z" fill="#B5453C"/>
<path d="M840.3 30.6C840.3 30.6 837.2 33.1 836.4 35.5C835.6 37.9 835.3 42.9 833.8 42.7C833.8 42.7 830.7 35.1 834.2 30.9C838 26.3 840.3 30.6 840.3 30.6Z" fill="#B5453C"/>
<path d="M874.2 106.2C875.7 99.9 870.6 87.7 865.3 77.5C860.5 68.3 855.4 60.9 855 61.2C842.2 68.8 841.1 62.5 841.1 62.5C841.1 62.5 829.5 64 826.2 69.7C821.7 77.5 816.7 101 811.8 100.6C809.6 100.4 787.1 92 787.1 92C787.1 92 783.4 95.5 784.1 99.8C784.1 99.8 795.2 107.2 804.6 112C809.6 114.5 814 116.3 816.1 115.8C820.4 114.8 827 104.9 830.6 99.1C835.2 125.1 828.9 131.1 832.1 133.8C835.4 136.7 840.2 132.4 850.7 137C857.6 140 867.2 144.3 873.6 145.1C877 145.5 879.5 144.9 880.3 142.6C882.8 135.9 871.4 118.3 874.2 106.2Z" fill="#699DEE"/>
<path d="M842.1 49.8C842.1 49.8 841.8 51 838.8 50.8C838.8 50.8 836.3 50.6 836.4 49.3C836.4 49.4 838.8 48.4 842.1 49.8Z" fill="white"/>
<path d="M880.4 142.5C879.6 144.8 877.1 145.4 873.7 145C869.2 143.1 850 135.6 850.2 130.5C850.5 123 853.9 122.8 851.5 113.5C849.6 106.1 867.4 92.3 870.2 89.3C875.5 99.4 875.7 99.9 874.2 106.2C871.4 118.3 882.8 135.9 880.4 142.5Z" fill="#4A75CB"/>
<path d="M830.7 99C827.1 104.8 820.4 114.7 816.2 115.7C814.1 116.2 809.6 114.4 804.7 111.9C808.3 112.8 811.8 112.8 815.3 112.5C819 112.1 820.1 107.6 825.9 100.8C829.5 96.5 830.5 97.6 830.7 99Z" fill="#4A75CB"/>
<path d="M848.5 113.4C848.5 113.4 845.3 110.9 842.2 111.5C839.2 112.1 837.7 114.2 837.8 115.1C837.9 116.1 839.5 118.7 841.9 119C844.3 119.3 850.9 117.6 850.9 117.6L848.5 113.4Z" fill="#FFB27D"/>
<path d="M855 61.2C855 61.2 867.4 62 871.7 68C877.8 76.4 888.3 110.9 885.4 118.8L847.6 118.6C847.6 118.6 846.7 114.3 848 112.3C849.3 110.2 870 106.9 870.9 105.9C871.9 104.9 859 87.3 859 84.4C858.9 81.5 855 61.2 855 61.2Z" fill="#699DEE"/>
<path d="M843.1 127.7H797.4L789.1 99H834.8L843.1 127.7Z" fill="#1C468A"/>
<path d="M857.3 126.6H797.5V127.7H857.3V126.6Z" fill="#163560"/>
<path d="M811.9 112.9C811.6 111.9 812.2 111.1 813.2 111.1C814.2 111.1 815.3 111.9 815.6 112.9C815.9 113.9 815.3 114.7 814.3 114.7C813.2 114.7 812.2 113.9 811.9 112.9Z" fill="#163560"/>
<path d="M709.6 127.7H755.4L763.6 99H717.9L709.6 127.7Z" fill="#C65447"/>
<path d="M695.428 127.753L755.228 127.753V126.653L695.428 126.653V127.753Z" fill="#C65447"/>
<path d="M740.8 112.9C741.1 111.9 740.5 111.1 739.5 111.1C738.5 111.1 737.4 111.9 737.1 112.9C736.8 113.9 737.4 114.7 738.4 114.7C739.5 114.7 740.6 113.9 740.8 112.9Z" fill="#AA413E"/>
<path d="M722.1 76.2C722.1 76.2 726.7 72.4 728.4 72.4C730.1 72.4 733.2 71.5 733.1 72.1C733 72.6 730.3 73.4 730.8 73.6C731.3 73.9 735.1 72.8 736.2 73.4C737.3 74 739.8 76.6 737.8 77.7C735.8 78.8 729.6 80.6 728 80.4C726.4 80.2 722.8 79.9 722.8 79.9L722.1 76.2Z" fill="#FFB27D"/>
<path d="M662.8 217.3L666.7 233.7H672.6L672.8 217.3H662.8Z" fill="#FFB27D"/>
<path d="M711.9 218L723.1 233.5L727.3 228.2L720.6 215.9L711.9 218Z" fill="#FFB27D"/>
<path d="M689.2 19.7V19.6C689.1 18.8 689 18 688.9 17.2C688.6 14.7 688.1 12.4 687.5 10.3C687.2 9.1 686.8 8 686.4 6.9C686.3 6.7 686.3 6.6 686.2 6.4C685.3 4.1 684.2 2.4 683.1 1.8C681.1 0.7 678.7 0.5 677 0.6C677.4 0.2 678.3 2.19792e-07 678.3 2.19792e-07C677.3 -0.2 674.9 0.9 674.9 0.9C660.3 -4.7 658.1 16.7 658.4 21.7C658.7 26.7 653.5 28.3 645.9 32.2C631.4 39.7 630.2 49.7 630.2 49.7C630.3 49.8 630.4 49.8 630.6 49.9C631.3 48.7 632.8 46.4 634 46.1C633.9 46.2 632.5 49.2 632 51C633.8 52.4 636.3 54.5 639 56.9C642.6 60.1 646.6 63.7 649.8 66.6C649.8 65.6 649.8 64.2 650.2 63.4L650.8 67.1L650.9 67.6C652.9 69.5 654.5 71 655.3 71.7C655.4 71.8 655.5 71.8 655.5 71.9C655.7 72.1 655.9 72.2 655.9 72.2C655.8 70.9 657.6 67.9 660.4 64.2C660.6 63.9 660.8 63.7 661 63.4C661.9 62.2 662.9 61 664 59.7C664.4 59.2 664.8 58.8 665.2 58.3C665.5 57.9 665.8 57.6 666.2 57.2C667 56.3 667.8 55.4 668.6 54.5C670.7 52.2 673 49.9 675.2 47.8C678.4 44.8 681.4 42.2 683.9 40.6C684 40.5 684.1 40.3 684.2 40.2C684.7 39.5 685.1 38.6 685.4 37.7C685.5 37.4 685.6 37.2 685.7 36.9C686.7 34.1 687.1 31.3 687.2 30.6C687 33.4 686.6 35.5 686.2 37C686.1 37.3 686 37.7 685.9 37.9C685.7 38.6 685.5 39.1 685.3 39.5C685.7 39.1 686.1 38.7 686.5 38.2C686.7 37.9 687 37.5 687.2 37.2C689.3 33 689.8 26.3 689.2 19.7Z" fill="#163560"/>
<path d="M683.1 40.9C683.1 40.9 678.4 43.4 674.9 42.4C671.6 41.5 669.4 37.2 669.4 37.1C670.8 36.8 671.2 34.9 671.2 26.5L671.8 26.6L682.6 28.7C682.6 28.7 682.4 32.1 682.3 35.3C682.4 38.1 682.5 40.6 683.1 40.9Z" fill="#FFB27D"/>
<path d="M671 5.3C671 5.3 676.3 -0.399998 683 5C682.9 5 679.1 4.4 671 5.3Z" fill="#E37970"/>
<path d="M682.6 28.8C682.6 28.8 682.4 32.2 682.3 35.4C676.3 35.2 673.1 29.7 671.8 26.7L682.6 28.8Z" fill="#ED975D"/>
<path d="M670.8 25.5C670.8 25.5 667.6 20.5 666.9 16.2C666.4 13.2 667.9 1.9 679.3 3.5C679.3 3.5 682.6 3.8 685.7 5.9C688.2 7.6 691.7 11.2 687.7 21L686.7 24.3L670.8 25.5Z" fill="#163560"/>
<path d="M725.5 223.9L719.8 224.1L713.6 224.3C713.6 224.3 699.3 208.4 691.3 183C691.1 182.4 690.9 181.8 690.7 181.2C686.3 168.4 677.2 152.4 672.5 137.9C671.7 135.6 671.1 133.4 670.4 131.4C670.2 130.7 670 130.1 669.8 129.5C666.3 117.2 665.3 109.2 664.3 100.6L698.8 100.9C699 100.7 704.6 159.4 725.5 223.9Z" fill="#2B478B"/>
<path d="M694.1 80.9C694 97.3 696.5 104.4 696.5 104.4C696.5 104.4 681.7 111.9 664.1 106.4C663.9 106.3 649.5 103.1 649.5 103.1C649.8 102.4 652.4 91.4 652.7 90.7C656.4 82.7 659.2 79.2 659.7 76.8C660.5 72.2 660.5 67.5 660.1 63C659 51.2 655.8 41.4 655.8 41.4C660.6 40.3 665.2 38.5 670.2 36.6C671.3 38 674.7 39.5 677.8 39.4C681.3 39.3 682.4 37.8 682.3 36.2C686 38.3 689 40.2 689 40.2C692.2 45.7 698.6 51.1 699.1 59.5C699.3 61.5 694.1 80.4 694.1 80.9Z" fill="#E7F1FD"/>
<path d="M684.6 31.8C684.6 31.8 670.3 32 670.3 23.2C670.3 14.3 668.4 8.4 677.5 7.8C686.6 7.3 688.4 10.7 689.1 13.6C689.9 16.6 688.3 31.5 684.6 31.8Z" fill="#FFB27D"/>
<path d="M684.1 7.6C684.1 7.6 680.2 18 674.2 19.6C668.2 21.1 665.6 19.5 665.6 19.5C665.6 19.5 670.2 15.9 671.1 9.5C671.2 9.5 681.2 2.7 684.1 7.6Z" fill="#163560"/>
<path d="M683.1 8.5C683.1 8.5 686 10.8 686.7 13.1C687.4 15.4 687.7 20 689.1 19.9C689.1 19.9 692 12.8 688.7 8.8C685.3 4.5 683.1 8.5 683.1 8.5Z" fill="#163560"/>
<path d="M666.5 232.8C666.5 232.8 667 236 665.8 239.5C665.8 239.5 664.8 243.8 669.1 243.9C673.4 244 674.4 243.6 673.9 240.9C673.4 238.2 672.5 233.6 672.5 233.6L666.5 232.8Z" fill="#FFB27D"/>
<path d="M674.5 246.6H665.1C664.7 244.7 665.6 240.6 665.7 239.8C665.7 239.7 665.7 239.7 665.7 239.7C670.5 244.1 673.6 239.6 673.6 239.6C674.4 241.2 674.5 245.9 674.5 246.6Z" fill="#C45446"/>
<path d="M737.6 241.4C737.6 241.4 729.7 232.6 727.3 228.2L721.4 231.2L734.5 243.5L737.6 243.1V241.4Z" fill="#FFB27D"/>
<path d="M742.6 246.6C742.6 246.6 732.8 246.6 732.7 246.6C731.2 246.6 730.1 244.2 728.5 241C727.9 239.7 726.4 239 724.9 238.6V246.6H722.6L720.5 238.2C719.1 235.6 720.4 233.3 721.4 231.3C722.5 231.3 725.6 232.1 731.5 238.7C733.4 240.9 735.5 241.6 737.6 241.6H737.7C742.5 243.7 742.6 246.6 742.6 246.6Z" fill="#C45446"/>
<path d="M719.8 224.1L713.6 224.3C713.6 224.3 699.3 208.4 691.3 183C691.1 182.4 690.9 181.8 690.7 181.2C686.3 168.4 677.2 152.4 672.5 137.9C671.7 135.6 671.1 133.4 670.4 131.4C670.2 130.7 670 130.1 669.8 129.5L674.9 125.6C674.9 125.6 690.2 150.3 694.9 173.6C699.1 193.7 715.6 218 719.8 224.1Z" fill="#233862"/>
<path d="M675.5 175.6C675.6 186.9 675 212.9 673.5 223.7H668C665 223.7 663.5 223.7 663.5 223.7C659.8 205 657.2 189.5 655.3 176.1C653.7 165.1 652.3 155.7 651.3 147.7C650.2 139.6 649.5 132.7 649.2 127C649.2 126.1 649.1 125.2 649.1 124.4C649.1 123.5 649.1 122.7 649.1 121.9L679 119C678.6 138.7 675.5 169.1 675.5 175.6Z" fill="#2B478B"/>
<path d="M668.1 223.8C665.1 223.8 663.6 223.8 663.6 223.8C659.9 205.1 657.3 189.6 655.4 176.2C653.8 165.2 652.4 155.8 651.4 147.8C650.3 139.7 649.6 132.8 649.3 127.1L660.3 133.5C660.3 133.5 653.3 136 656 154.6C658.5 173.2 664.4 221.1 668.1 223.8Z" fill="#233862"/>
<path d="M669.5 126.8C669.5 126.8 667.4 134.4 660.1 133.4C652.8 132.4 642.5 128.1 642.5 128.1C642.5 128.1 645.6 118.3 649.5 105.4C654.2 89.8 655.3 67.8 658.1 55.1C658.9 51.5 664 50.4 664.2 48.3L670.4 36.6C670.4 36.6 679.3 56.8 679.8 61.9C680.2 66.9 669.5 126.8 669.5 126.8Z" fill="#F99746"/>
<path d="M664.4 76.8C664.1 85 661.2 99.1 649.6 105.3C649.6 105.3 649.5 105.3 649.5 105.4C654.2 89.8 654.1 74.8 656.9 62.1C663.1 60.7 664.6 72.3 664.4 76.8Z" fill="#ED7D2B"/>
<path d="M739.7 71.9H728.5C728.5 72 728.5 72.2 728.5 72.5C728.5 73.5 728.4 75.5 728.4 75.7C728.6 78.1 730.2 79.4 731.8 80C732.2 80.1 732.6 80.3 732.9 80.3C733.2 80.4 733.4 80.4 733.7 80.4C733.9 80.4 734 80.4 734.1 80.4C734.9 80.4 735.7 80.2 736.4 79.9C738.4 79 739.7 77 739.7 74.8V72.6C739.7 72.3 739.7 72.1 739.7 71.9Z" fill="#C45446"/>
<path d="M738.8 71.9H737.3C737.3 72.1 737.3 72.4 737.3 72.6V74.8C737.3 76.3 736.7 77.7 735.7 78.7C735.2 79.2 734.6 79.6 734 79.9C733.7 80.1 733.3 80.2 733 80.3C732.8 80.3 732.7 80.4 732.5 80.4C732.7 80.4 733 80.5 733.3 80.5C733.5 80.5 733.6 80.5 733.8 80.5C734.4 80.4 735.1 80.3 735.6 80C736.6 79.5 737.5 78.7 738.1 77.8C738.3 77.4 738.5 77 738.7 76.5C738.9 76 739 75.4 739 74.8V72.6C738.8 72.3 738.8 72.1 738.8 71.9Z" fill="#E37970"/>
<path d="M731.83 80.5856H736.43V79.8856H731.83V80.5856Z" fill="#C45446"/>
<path d="M723.6 74.2C723.6 74.2 707.6 79.5 705.6 79.1C703.6 78.7 700.7 57 699.2 49.5C697.2 39.9 689.6 38 689.6 38L682.4 36.1C682.4 36.1 690.6 56.5 690.9 60.6C691.1 64.7 691.9 128 691.9 128C691.9 128 691.4 130.9 697 129.7C702.6 128.5 704 127.3 704 127.3C704 127.3 701.6 109.6 700.4 93.9C706.1 92.9 724.4 83.7 724.4 83.7C727.2 79.2 723.6 74.2 723.6 74.2Z" fill="#F99746"/>
<path d="M651.5 95.6C651.5 95.6 657.8 94.5 659.4 96C661 97.6 663.1 104.2 661.3 104.5C659.5 104.9 655.4 100.3 654.3 100.7C653.3 101.1 651.4 101.6 650.9 100.7C650.5 99.7 647.3 96.8 647.3 96.8L651.5 95.6Z" fill="#FFB27D"/>
<path d="M656.1 94C656.1 94 652.2 95.7 651.5 95.6C650.8 95.6 653.1 97.1 653.1 97.1L654.3 96C654.3 96 656.5 95.4 656.1 94Z" fill="#FFB27D"/>
<path d="M670.3 36.5C670.3 36.5 656.3 37.1 652.9 40.2C649.5 43.3 629.3 67.5 629 73.9C628.7 80.2 646.7 98.3 646.7 98.3C646.7 98.3 651.7 97.1 653.9 93.9C653.9 93.9 642.7 74 643.4 73.1C644.1 72.2 663 56.7 664.6 60.2C665.9 63.1 670.3 36.5 670.3 36.5Z" fill="#F99746"/>
<path d="M664.8 134L661.6 152L652.8 201.8L644.9 246.4C644.8 247.1 644.2 247.6 643.5 247.6C642.9 247.6 642.4 247.1 642.5 246.5L649.3 196L656.6 142L657.7 133.8L664.8 134Z" fill="#C69D7F"/>
<path d="M661.6 152C662 144.2 656.5 141.9 656.5 141.9L657.6 133.7L664.8 133.9L661.6 152Z" fill="#A0795F"/>
<path d="M910.3 247.6C909.6 247.6 909 247.1 908.9 246.4L901.9 206.8L891.9 149.9L889.1 134L896.3 133.8L897.5 143L906.2 207.9L911.4 246.4C911.4 247.1 911 247.6 910.3 247.6Z" fill="#C69D7F"/>
<path d="M897.5 143C892.9 145 891.9 149.9 891.9 149.9L889.1 134L896.3 133.8L897.5 143Z" fill="#A0795F"/>
<path d="M910.2 140.2H628.4C625.4 140.2 623 137.8 623 134.8V133.1C623 130.1 625.4 127.7 628.4 127.7H910.1C913.1 127.7 915.5 130.1 915.5 133.1V134.8C915.6 137.8 913.1 140.2 910.2 140.2Z" fill="#E0B594"/>
<path d="M1110.2 214.7C1107.4 224.7 1087.1 230.5 1064.8 234H981.7C961.7 224.5 961.7 213.2 960.1 182C956.8 117.5 991.9 86.4 1007.5 91.5C1008.1 91.7 1008.8 91.9 1009.5 92.2C1014 94 1019.1 97.1 1024.1 104.5C1024.1 104.5 1039.7 129.6 1052.4 144.5C1056.5 149.3 1060.4 153.1 1063.3 154.6C1063.3 154.6 1063.4 154.6 1063.4 154.7C1063.6 154.8 1063.7 154.9 1063.9 154.9C1070.7 157.9 1080.2 164.2 1089 172.1C1102.5 184.4 1114 200.6 1110.2 214.7Z" fill="#F99746"/>
<path d="M1089 172.1C1077.4 175.6 1017.4 192.3 1003.3 174.6C993.1 161.7 999.4 128.8 1005.1 107.5C1007.4 98.8 1019 96.8 1024 104.3C1024 104.4 1024.1 104.4 1024.1 104.5C1024.1 104.5 1039.7 129.6 1052.4 144.5C1056.1 149.2 1059.8 152.9 1063.3 154.6C1063.3 154.6 1063.4 154.6 1063.4 154.7C1063.6 154.8 1063.7 154.9 1063.9 154.9C1070.7 157.9 1080.2 164.2 1089 172.1Z" fill="#ED7D2B"/>
<path d="M1056.3 112.5C1056.3 112.5 1059.7 117.5 1061.6 128.1C1063.3 137.4 1064.8 140.8 1067.3 142.7C1069.8 144.6 1083.4 150.2 1083.4 150.2L1082.4 152.6C1082.4 152.6 1062.3 149.9 1060.1 146.5C1057.8 143.1 1049.3 123.3 1049.9 118.8C1050.6 114.3 1056.3 112.5 1056.3 112.5Z" fill="#F4A269"/>
<path d="M1105.5 223.2C1105.3 225.2 1108 225.6 1111.2 225.8C1114.4 226 1113.4 226.6 1117.7 227.4C1122 228.2 1123.8 227 1124.1 226.4C1124.4 225.9 1122.4 225.1 1120.2 224.2C1119.9 224.1 1119.7 224 1119.4 223.8C1117 222.7 1115.6 220.6 1113.8 218.6C1112 216.7 1110.3 210.6 1110.3 210.6L1104.4 209.3C1104.4 209.3 1106.1 214.8 1106.6 217.1C1106.9 218.5 1106.4 220 1106 221.2C1105.8 221.9 1105.5 222.5 1105.5 223.2Z" fill="#FFB27D"/>
<path d="M1111.2 225.8C1114.4 226 1113.4 226.6 1117.7 227.4C1122 228.2 1123.8 227 1124.1 226.4C1124.4 225.9 1122.4 225.1 1120.2 224.2C1120.2 224.2 1117.2 225.2 1113.6 224.3C1110.7 223.5 1108 221.8 1106 221.3C1105.8 221.9 1105.5 222.6 1105.5 223.3C1105.3 225.2 1108 225.7 1111.2 225.8Z" fill="#C65447"/>
<path d="M1047 153.5C1047 153.5 1086 150.6 1093.4 155.2C1100.8 159.8 1112.5 213.9 1112.5 213.9C1112.5 213.9 1111.8 214.5 1110.1 214.7C1108.6 214.9 1105.3 214 1105.3 214C1105.3 214 1088.4 189.8 1087.2 183.7C1086 177.6 1086.3 172.2 1083.6 172C1080.9 171.9 1047 176.1 1041.9 167.1C1036.8 158.1 1041 149.1 1041 149.1L1047 153.5Z" fill="#163560"/>
<path d="M1090.5 229.5C1090.3 231.5 1093 231.9 1096.2 232.1C1099.4 232.3 1098.4 232.9 1102.7 233.7C1107 234.5 1108.8 233.3 1109.1 232.7C1109.4 232.2 1107.4 231.4 1105.2 230.5C1104.9 230.4 1104.7 230.3 1104.4 230.1C1102 229 1100.6 226.9 1098.8 224.9C1097 223 1095.3 216.9 1095.3 216.9L1089.4 215.6C1089.4 215.6 1091 221.1 1091.6 223.4C1091.9 224.8 1091.4 226.3 1091 227.5C1090.8 228.2 1090.6 228.8 1090.5 229.5Z" fill="#FFB27D"/>
<path d="M1096.2 232.1C1099.4 232.3 1098.4 232.9 1102.7 233.7C1107 234.5 1108.8 233.3 1109.1 232.7C1109.4 232.2 1107.4 231.4 1105.2 230.5C1105.2 230.5 1102.2 231.5 1098.6 230.6C1095.7 229.8 1093 228.1 1091 227.6C1090.8 228.2 1090.5 228.9 1090.5 229.6C1090.4 231.4 1093.1 231.9 1096.2 232.1Z" fill="#C65447"/>
<path d="M1039.3 156C1039.3 156 1074 157.6 1081.2 162.6C1088.4 167.6 1098 222 1098 222C1098 222 1097.2 222.6 1095.6 222.7C1094.1 222.8 1090.8 221.8 1090.8 221.8C1090.8 221.8 1074.8 197 1073.9 190.8C1072.9 184.7 1073.4 179.2 1070.7 179C1068 178.7 1034 181.7 1029.2 172.5C1024.4 163.1 1039.3 156 1039.3 156Z" fill="#1C468A"/>
<path d="M1051.7 79.6C1050.2 78.6 1048.2 78.4 1046.9 78.3C1047.3 78 1048 77.9 1048 77.9C1047.2 77.7 1045.3 78.4 1045.3 78.4C1034 73.2 1031.1 90.1 1031.1 94.1C1031.1 98.1 1030.8 102.6 1024.8 105.8C1013 112 1021.7 124.9 1021.7 124.9C1021.8 125 1026.4 134.1 1026.4 134.1C1026.3 130.9 1042.2 115 1050.2 110.5C1052.3 107.9 1053.2 103 1053.3 102.7C1052.7 106.5 1051.9 108.7 1051.2 109.8C1058.1 104.2 1055.8 82.3 1051.7 79.6Z" fill="#B5453C"/>
<path d="M1049.9 108.1C1049.7 108 1049.5 107.9 1049.2 107.8C1049.2 107.3 1049.2 106.7 1049.3 106.2C1049.5 103.7 1049.8 101 1049.8 101L1041.4 98.7L1040.9 98.6C1040.7 102.3 1039.9 104.9 1039.2 106.6C1038.3 106.6 1037.8 106.7 1037.8 106.7C1037.7 107.2 1041.4 114.9 1046.3 115.1C1048 115.2 1052.4 109.2 1049.9 108.1Z" fill="#FFB27D"/>
<path d="M1049.9 101C1049.9 101 1049.5 103.7 1049.4 106.2C1044.6 105.7 1042.4 101.2 1041.5 98.7L1049.9 101Z" fill="#F4A269"/>
<path d="M1040.6 97.8C1040.6 97.8 1038.4 93.7 1038 90.2C1037.7 87.8 1039.6 78.9 1048.5 80.8C1048.5 80.8 1051.1 81.2 1053.4 83.1C1055.3 84.6 1057.9 87.6 1054.2 95.2L1053.2 97.8H1040.6Z" fill="#B5453C"/>
<path d="M1051.3 103.5C1051.3 103.5 1040 102.9 1040.4 95.9C1040.9 88.8 1039.7 84 1047 84.1C1054.3 84.2 1055.5 86.9 1055.9 89.3C1056.3 91.7 1054.3 103.5 1051.3 103.5Z" fill="#FFB27D"/>
<path d="M1052.2 84.3C1052.2 84.3 1048.5 92.4 1043.7 93.3C1038.9 94.2 1036.9 92.8 1036.9 92.8C1036.9 92.8 1040.7 90.1 1041.8 85.1C1041.8 85.1 1050.1 80.2 1052.2 84.3Z" fill="#B5453C"/>
<path d="M1051.4 84.9C1051.4 84.9 1053.6 86.9 1054 88.7C1054.4 90.5 1054.5 94.2 1055.5 94.2C1055.5 94.2 1058.2 88.7 1055.8 85.4C1053.3 81.8 1051.4 84.9 1051.4 84.9Z" fill="#B5453C"/>
<path d="M1062.7 154.1C1061.8 155.2 1058.9 155.5 1055.9 156C1053.5 156.4 1051 156.9 1049.2 158C1045.1 160.4 1031.8 168.5 1027.8 168.1C1026.3 168 1026.6 165.1 1027.5 161.2C1028.9 155.1 1032 146.7 1032 143C1032 141 1032.7 136.3 1033.6 130.9C1033.7 130.5 1033.7 130 1033.8 129.6C1035.6 119.1 1038 106.7 1038 106.7C1038 106.7 1040.7 112.6 1046 112.6C1051.3 112.6 1050.1 108.1 1050.1 108.1C1050.1 108.1 1054.9 108.7 1056.1 109.9C1057.2 111.1 1060.1 116.4 1060.7 117.9C1060.7 117.9 1060.8 119.7 1056.3 120.6C1056.3 120.6 1057.4 125.6 1057.5 128.9C1057.6 131.4 1055.8 139.1 1055.3 143.9C1055.1 145.6 1055.1 146.9 1055.4 147.5C1055.8 148.3 1056.9 149 1058.2 149.8C1060.5 151.4 1063.8 152.8 1062.7 154.1Z" fill="#1C468A"/>
<path d="M1058 149.9C1060.9 154.9 1050.1 156.4 1048.3 157.5C1044.2 159.9 1031.7 168.6 1027.8 168.2C1026.3 168.1 1026.6 165.2 1027.5 161.3C1028.9 155.2 1032 146.8 1032 143.1C1032 141.1 1032.7 136.4 1033.6 131L1038.3 126.5C1038.3 126.5 1043.3 139.5 1048.2 141.7C1050.7 142.8 1053.4 143.6 1055.3 144C1055.1 145.7 1055.1 147 1055.4 147.6C1055.5 148.3 1056.7 149.1 1058 149.9Z" fill="#163560"/>
<path d="M1036.4 110.6C1036.4 110.6 1032.4 108.2 1028.5 112.8C1024.6 117.4 1031.3 150.6 1037 152.3C1043.4 154.2 1061.9 152 1061.9 152L1061.5 149.1C1061.5 149.1 1041.8 145.3 1041 144.3C1040.2 143.2 1038.5 111.2 1036.4 110.6Z" fill="#FFB27D"/>
<path d="M1037.9 106.7C1037.9 106.7 1029.6 107.4 1027.2 110.2C1024.8 112.9 1024.1 120.3 1024.1 120.3C1024.1 120.3 1031.4 126.2 1040.2 123.9L1037.9 106.7Z" fill="#1C468A"/>
<path d="M1074.8 153.6H1063.9V154.9H1074.8V153.6Z" fill="#9E332E"/>
<path d="M1072.5 154.7C1072.6 154.3 1082.5 138.7 1082.5 138.7H1104.6L1093.5 154.3L1072.5 154.7Z" fill="#9E332E"/>
<path d="M1073.4 154.9C1073.5 154.5 1083.5 138.7 1083.5 138.7H1104.6L1094.1 154.9H1073.4Z" fill="#B5453C"/>
<path d="M1092.1 146.8C1091.9 147.4 1091.2 147.9 1090.6 147.9C1090 147.9 1089.6 147.4 1089.8 146.8C1090 146.2 1090.7 145.7 1091.3 145.7C1091.9 145.7 1092.3 146.2 1092.1 146.8Z" fill="#9E332E"/>
<path d="M1060 149C1060 149 1066.4 147.8 1067.1 148.1C1067.8 148.4 1071.9 152 1071.4 152.8C1071 153.5 1069.3 154 1067.5 153.4C1065.6 152.8 1061.6 152.5 1060.9 151.5C1060.2 150.5 1060 149 1060 149Z" fill="#FFB27D"/>
<path d="M341.3 179.6C340.9 170.1 340.1 161.9 339.1 156.2C337.5 147 336 141.8 336 141.7C335.8 140.9 332.7 137.6 325.9 137.7C319.1 137.8 319.8 142.1 319.8 142.1C319.8 142.2 319.8 142.4 319.8 142.5C319.9 142.7 326.1 165 325.8 193.8C325.8 194.2 325.8 194.9 325.8 195.4C325.8 195.4 341.5 195.8 341.5 195.4C342.1 192.9 341.9 185.9 341.3 179.6Z" fill="#D1A586"/>
<path d="M343.3 193.7C343.3 194.1 343.1 194.4 342.8 194.4C342.5 194.4 342.3 194.1 342.3 193.7H328.8C328.8 194.1 328.6 194.4 328.3 194.4C328 194.4 327.8 194.1 327.8 193.7C327.9 185.5 327.4 177.8 326.7 171C324.9 154.1 321.6 142.7 321.5 142.6C321.5 142.5 321.5 142.4 321.5 142.2C321.5 142.2 320.9 137.9 327.6 137.8C334.4 137.7 337.4 141 337.7 141.8C337.7 141.8 338.5 144.8 339.6 150.2C340 152 340.3 154 340.7 156.3C341.7 162 342.5 170.3 342.9 179.7C343.6 185.9 343.8 191.1 343.3 193.7Z" fill="#E5BD9E"/>
<path d="M343.3 193.7C343.3 194.1 343.1 194.4 342.8 194.4C342.5 194.4 342.3 194.1 342.3 193.7H328.8C328.8 194.1 328.6 194.4 328.3 194.4C328 194.4 327.8 194.1 327.8 193.7C327.9 185.5 327.4 177.8 326.7 171C328.9 160.3 337.5 152 339.6 150.2C340 152 340.3 154 340.7 156.3C341.7 162 342.5 170.3 342.9 179.7C343.6 185.9 343.8 191.1 343.3 193.7Z" fill="#DFB697"/>
<path d="M329.6 193.5C329.6 193.4 329.6 193.4 329.6 193.4C329.6 193.1 329.2 176.2 328.3 168.1C327.7 163.3 324.2 143.2 324.2 143.1C324.2 143 324.2 142.9 324.2 142.8C324.2 142.8 324.1 141.8 324.8 140.9C325.6 140 326.9 139.5 328.8 139.5C328.9 139.5 329 139.5 329 139.5C333.9 139.5 336.2 141.9 336.3 142.5C336.3 142.6 340.2 158.1 340.9 166.9C341 167.7 341.1 169.1 341.3 170.8C342.3 181.1 343.3 192.1 341.9 192.3C339.6 192.7 337.4 192.7 335.7 192.7C335.1 192.7 334.6 192.7 334.1 192.7C333.6 192.7 333.2 192.7 332.8 192.7C331 192.7 329.9 192.8 329.9 193.3C329.7 193.5 329.7 193.5 329.6 193.5ZM329 139.6C328.9 139.6 328.8 139.6 328.8 139.6C326.9 139.6 325.6 140.1 324.9 140.9C324.2 141.8 324.3 142.7 324.3 142.7C324.3 142.8 324.3 142.9 324.3 143C324.3 143.1 327.8 163.1 328.4 168C329.3 175.5 329.7 190.5 329.7 193C330.1 192.6 331.1 192.6 332.6 192.6C333 192.6 333.4 192.6 333.9 192.6C334.4 192.6 335 192.6 335.5 192.6C337.2 192.6 339.5 192.5 341.7 192.2C343.1 192 341.7 177.7 341 170.8C340.8 169 340.7 167.7 340.6 166.9C339.9 158.1 336.1 142.7 336 142.5C336 141.9 333.8 139.6 329 139.6Z" fill="#D1A586"/>
<path d="M326.9 194.4H379.8C379.8 194.4 378.6 189.5 347.9 190.2C326.2 190.7 326.9 194.4 326.9 194.4Z" fill="#E5BD9E"/>
<path d="M322.6 245.7C328.7 215.1 327.2 196.3 327.1 196.1C327.1 195.6 328 195.2 328.4 195.2C328.9 195.2 331 195.1 331.2 195.5C331.5 196 332.8 219.2 323.6 245.8H322.6V245.7Z" fill="#D1A586"/>
<path d="M371.9 245.7C365.8 215.1 367.3 196.3 367.4 196.1C367.4 195.6 366.5 195.2 366.1 195.2C365.6 195.2 363.5 195.1 363.3 195.5C363 196 361.7 219.2 370.9 245.8H371.9V245.7Z" fill="#D1A586"/>
<path d="M381.7 245.7C375.6 215.1 377.1 196.3 377.2 196.1C377.2 195.6 376.3 195.2 375.9 195.2C375.4 195.2 373.3 195.1 373.1 195.5C372.8 196 371.5 219.2 380.7 245.8H381.7V245.7Z" fill="#A0795F"/>
<path d="M332.4 245.7C338.5 215.1 337 196.3 336.9 196.1C336.9 195.6 337.8 195.2 338.2 195.2C338.7 195.2 340.8 195.1 341 195.5C341.3 196 342.6 219.2 333.4 245.8H332.4V245.7Z" fill="#A0795F"/>
<path d="M379.8 196H326.9C326.3 196 325.8 195.5 325.8 194.9V194.2C325.8 193.6 326.3 193.1 326.9 193.1H379.8C380.4 193.1 380.9 193.6 380.9 194.2V194.9C380.9 195.5 380.4 196 379.8 196Z" fill="#D1A586"/>
<path d="M368.9 160.9C368.9 160.9 378.6 171.9 380.5 171.8C382.5 171.6 383.8 171 385.5 171.8C386.8 172.4 390.8 175.6 389.7 175.4C388.6 175.2 386.7 174.9 386.2 174.9C385.5 174.8 384.4 174.8 383.6 174.7C383.1 174.6 381.4 174.6 380.8 174.5C378.3 174.4 366.2 167.4 366.2 167.4L368.9 160.9Z" fill="#FFB27D"/>
<path d="M362.2 104.9C362.2 104.9 361.8 99.4 353.8 100.8C351.7 101.2 350.2 97.4 346.8 98.8C339.4 101.7 338.9 97.9 336.8 103.2C335.9 105.4 330.2 108 331.9 111.9C333.6 115.8 330.7 118.4 332.8 121.4C333.9 123 333.4 125.8 338.4 125.9C340.9 126 344.8 130.6 347.6 131.4C350.4 132.2 358.8 131 358.5 127.2C358.3 124.2 361.8 124.5 363.9 121C365.8 118 362.4 117.2 364.2 112.4C365.5 108.7 362.1 107.9 362.2 104.9Z" fill="#1C468A"/>
<path d="M406 241.3C405.8 243.2 408.4 243.6 411.4 243.8C414.4 243.9 413.5 244.6 417.6 245.3C421.7 246 423.3 244.9 423.6 244.4C423.9 243.9 422 243.1 419.9 242.3C419.6 242.2 419.4 242.1 419.1 242C416.8 241 415.5 238.9 413.7 237C412 235.2 410.4 229.4 410.4 229.4L404.8 228.2C404.8 228.2 406.4 233.4 406.9 235.6C407.2 236.9 406.7 238.4 406.3 239.5C406.3 240 406.1 240.7 406 241.3Z" fill="#FFB27D"/>
<path d="M411.4 243.8C414.4 243.9 413.5 244.6 417.6 245.3C421.7 246 423.3 244.9 423.6 244.4C423.9 243.9 422 243.1 419.9 242.3C419.9 242.3 417 243.3 413.7 242.4C411 241.7 408.4 240 406.5 239.5C406.3 240.1 406 240.7 406 241.4C405.9 243.2 408.4 243.6 411.4 243.8Z" fill="#C65447"/>
<path d="M350.6 175.3C350.6 175.3 387.6 172.5 394.6 176.9C401.6 181.3 412.7 232.5 412.7 232.5C412.7 232.5 412 233.1 410.5 233.2C409.1 233.4 405.9 232.5 405.9 232.5C405.9 232.5 389.8 209.6 388.7 203.8C387.6 198 387.8 192.9 385.3 192.7C382.7 192.6 350.6 196.6 345.7 188C340.8 179.4 344.9 171 344.9 171L350.6 175.3Z" fill="#163560"/>
<path d="M393.3 241.5C393.1 243.4 395.7 243.8 398.7 244C401.7 244.1 400.8 244.8 404.9 245.5C409 246.2 410.6 245.1 410.9 244.6C411.2 244.1 409.3 243.3 407.2 242.5C406.9 242.4 406.7 242.3 406.4 242.2C404.1 241.2 402.8 239.1 401 237.2C399.3 235.4 397.7 229.6 397.7 229.6L392.1 228.4C392.1 228.4 393.7 233.6 394.2 235.8C394.5 237.1 394 238.6 393.6 239.7C393.6 240.3 393.3 240.9 393.3 241.5Z" fill="#FFB27D"/>
<path d="M398.7 244C401.7 244.1 400.8 244.8 404.9 245.5C409 246.2 410.6 245.1 410.9 244.6C411.2 244.1 409.3 243.3 407.2 242.5C407.2 242.5 404.3 243.5 401 242.6C398.3 241.9 395.7 240.2 393.8 239.7C393.6 240.3 393.3 240.9 393.3 241.6C393.1 243.4 395.7 243.8 398.7 244Z" fill="#C65447"/>
<path d="M344.7 171.8C344.7 171.8 377.6 173.4 384.4 178C391.2 182.7 400.4 234.3 400.4 234.3C400.4 234.3 399.7 234.8 398.1 234.9C396.7 235 393.5 234 393.5 234C393.5 234 378.3 210.5 377.4 204.7C376.5 198.9 377 193.7 374.4 193.5C371.8 193.3 339.6 196.1 335.1 187.3C330.6 178.6 344.7 171.8 344.7 171.8Z" fill="#1C468A"/>
<path d="M334.9 129.8C335.2 129.5 335.5 129.2 335.9 128.9C338.6 127 343.4 126.6 343.4 126.6C343.4 126.6 343.9 126.6 344.8 126.5C345.4 124.9 346.1 122.5 346.4 118.9L346.9 119L354.9 121.1C354.9 121.1 354.5 123.6 354.4 126C354.4 126.5 354.3 127 354.3 127.5C354.5 127.6 354.7 127.7 354.9 127.7C354.9 127.7 359.5 128.2 360.6 129.4C361.7 130.6 363.8 138.3 364.4 139.7L333.6 140.2C333.4 140.5 332.7 132.4 334.9 129.8Z" fill="#FFB27D"/>
<path d="M373.1 161C372.9 161.2 372.4 162 371.8 163.1C371.6 163.4 371.4 163.7 371.2 164C370.2 165.4 369 166.8 367.7 167.3C367.2 167.5 366.7 167.5 366.3 167.4C365.6 167.2 364.4 166.4 363.3 165.3C362.4 164.4 361.4 163.3 360.7 162.2C360.4 161.8 360.2 161.3 360 160.9C360 161.2 359.9 161.5 359.9 161.8C359.7 163.4 359.7 164.7 360 165.2C360.3 165.9 361.4 166.7 362.7 167.4C365.1 168.8 368.2 170.2 367.2 171.4C366.3 172.4 363.6 172.8 360.7 173.2C358.4 173.6 356 174 354.3 175.1C354.2 175.1 354.2 175.2 354.1 175.2C350 177.6 337.7 185 334.1 184.7C332.7 184.6 332.9 181.8 333.8 178.2C335.2 172.4 338 164.5 338 161C338 159.1 333.7 140.3 333.7 140.3C333.7 140.3 332.9 132.3 335.2 129.6L336.2 128.7C336.3 128.8 345.7 134 351.1 134.3C356.6 134.6 360.8 129.4 360.8 129.4C361.9 130.6 364 138.3 364.6 139.7C364.6 139.7 369 157.1 370.1 158C370.9 159.2 373.6 160.4 373.1 161Z" fill="#6BB7BF"/>
<path d="M354.7 121.3C354.7 121.3 354.3 123.8 354.2 126.2C349.7 125.8 347.5 121.5 346.7 119.1L354.7 121.3Z" fill="#F4A269"/>
<path d="M356.1 123.6C356.1 123.6 345.4 123.1 345.8 116.4C346.2 109.7 345.1 105.1 352 105.2C358.9 105.3 360 107.9 360.4 110.2C360.9 112.5 358.9 123.6 356.1 123.6Z" fill="#FFB27D"/>
<path d="M356.6 107.6C356.6 107.6 354 107 353.2 108.2C352.4 109.4 353 110.1 351.1 110.7C349.2 111.2 348.6 111.2 348.8 112.5C349 113.8 346.9 114.8 346.8 115.8C346.7 116.8 345.8 117.4 345 117.4C344.2 117.5 344.6 103.9 347.7 103.3C350.9 102.7 354 103.4 354.9 104.2C355.8 105 356.6 107.6 356.6 107.6Z" fill="#1C468A"/>
<path d="M356.6 107.6C356.6 107.6 359.1 107.4 359.5 108.8C359.9 110.2 359.4 110.6 360 111.4C360.6 112.3 360.3 113.8 360.3 113.8C360.3 113.8 365.2 104.7 360 104.1C354.8 103.6 354.9 104.6 356.6 107.6Z" fill="#1C468A"/>
<path d="M371.8 163.1C371.6 163.4 371.4 163.7 371.2 164C370.2 165.4 369 166.8 367.7 167.3C367.2 167.5 366.7 167.5 366.3 167.4C365.6 167.2 364.4 166.4 363.3 165.3C362.4 164.4 361.4 163.3 360.7 162.2C360.4 161.8 360.2 161.3 360 160.9C360 161.2 359.9 161.5 359.9 161.8V160.3C359.9 160.3 360.5 133.7 361.4 145.4C361.9 154.1 368.4 160.3 371.8 163.1Z" fill="#599DAD"/>
<path d="M339.2 144.7C339.2 144.7 326 167.4 353.8 175.4C353.9 175.4 353.9 175.3 354 175.3C355.7 174.3 358.1 173.8 360.4 173.4C363.3 172.9 366 172.6 366.9 171.6C367.9 170.4 364.9 169 362.5 167.6C361.3 166.9 358.7 166.2 358.3 165.5C358 164.8 339.2 144.7 339.2 144.7Z" fill="#599DAD"/>
<path d="M321.7 170L319.6 182L313.7 215.2L308.5 244.9C308.4 245.3 308 245.7 307.6 245.7C307.2 245.7 306.9 245.3 306.9 244.9L311.4 211.3L316.2 175.3L316.9 169.9L321.7 170Z" fill="#C69D7F"/>
<path d="M319.6 182C319.9 176.8 316.2 175.3 316.2 175.3L316.9 169.9L321.7 170L319.6 182Z" fill="#A0795F"/>
<path d="M607.8 245.7C607.3 245.7 606.9 245.4 606.9 244.9L602.2 218.5L595.5 180.6L593.6 170L598.4 169.9L599.2 176.1L605 219.4L608.4 245C608.5 245.4 608.2 245.7 607.8 245.7Z" fill="#C69D7F"/>
<path d="M599.2 176C596.1 177.4 595.5 180.6 595.5 180.6L593.6 170L598.4 169.9L599.2 176Z" fill="#A0795F"/>
<path d="M612.3 174.2H299.2C296.9 174.2 295 172.3 295 170C295 167.7 296.9 165.8 299.2 165.8H612.3C614.6 165.8 616.5 167.7 616.5 170C616.5 172.3 614.6 174.2 612.3 174.2Z" fill="#E0B594"/>
<path d="M430.5 153.3H365.1L371.2 103.9H436.6L430.5 153.3Z" fill="#D86713"/>
<path d="M437.9 103.9L431.9 153.3H366.5L367.8 142L372.5 103.9H437.9Z" fill="#F1A34F"/>
<path d="M437.9 103.9L431.8 153.3H366.4L367.8 142C421.8 145.3 423.6 111.2 423.3 103.8H437.9V103.9Z" fill="#E78B37"/>
<path d="M407.2 125.2C407 123.6 406.2 122.1 404.7 121.9H401.9C400.2 121.7 398.8 123 398.7 124.6L397.5 161.9C397.5 163.1 396.5 164.1 395.2 164.1H388.4C388 164.1 387.6 164.4 387.5 164.8C387.3 165.4 387.8 166 388.4 166H409.7H409.8H410.1C410.7 166 411.3 165.4 411.2 164.8L407.2 125.2Z" fill="#D86713"/>
<path d="M408.7 125.2C408.5 123.6 407.7 122.1 406.2 121.9H403.4C401.7 121.7 400.3 123 400.2 124.6L399 161.9C399 163.1 398 164.1 396.7 164.1H390C389.6 164.1 389.2 164.4 389.1 164.8C388.9 165.4 389.4 166 390 166H411.3H411.4H411.7C412.3 166 412.9 165.4 412.8 164.8L408.7 125.2Z" fill="#F1A34F"/>
<path d="M482.5 120.1L478.9 163.2C478.9 163.2 478.5 165.8 480.5 165.8C483.7 165.8 496.4 165.8 496.4 165.8C496.4 165.8 494 165.3 494 164C494 162.6 498.2 119.6 498.2 119.6L482.5 120.1Z" fill="#D86713"/>
<path d="M497.3 165.1C496.7 165.1 484.5 165.1 481.4 165.1C480 165.1 479.8 163.9 479.8 163.1C479.8 162.7 479.8 162.5 479.8 162.5L479.9 161.4L480.1 158.5L480.3 156L480.6 152.8L480.8 150.1L483.4 119.5L499.1 119.1C499.1 119.1 497.3 137.1 496.1 150.2C496 151.7 495.8 153.1 495.7 154.4C495.7 154.8 495.6 155.2 495.6 155.6C495.5 156.8 495.4 158 495.3 159C495.3 159.5 495.2 160 495.2 160.5C495 162.3 494.9 163.4 494.9 163.6C494.9 163.7 494.9 163.8 494.9 163.9C495.3 165 497.1 165.1 497.3 165.1Z" fill="#EE9849"/>
<path d="M444.3 96.6L453.1 132.1L454.3 137L458.4 153.5H534.9L519.7 96.6H444.3Z" fill="#F1A34F"/>
<path d="M444.3 96.6L443.1 97L456.8 154.7L458.4 153.5L444.3 96.6Z" fill="#EE9849"/>
<path d="M456.8 154.7H532.8L534.9 153.5H458.4L456.8 154.7Z" fill="#D86713"/>
<path d="M483.457 165.847H499.957V165.047H483.457V165.847Z" fill="#F1A34F"/>
<path d="M531.2 143L518.8 97.4H444.2V96.6H519.7L532.1 142.9L531.2 143Z" fill="#F1A34F"/>
<path d="M495.8 154.7L495.7 155.3L480.2 158.5L480.4 155.9L480.5 154.7H495.8Z" fill="#D86713"/>
<path d="M497.3 165.1C496.7 165.1 484.5 165.1 481.4 165.1C480 165.1 479.8 163.9 479.8 163.1L495.2 160.2C495 162 494.9 163.1 494.9 163.3C494.9 163.4 494.9 163.5 494.9 163.6C495.3 165 497.1 165.1 497.3 165.1Z" fill="#E78B37"/>
<path d="M492 142L458.4 153.5L454.3 137L492 142Z" fill="#E78B37"/>
<path d="M444.3 96.6H519.7L532 142.3H455.3L444.3 96.6Z" fill="#699DEE"/>
<path d="M498.7 148.1C498.5 147 497.4 146.1 496.3 146.1C495.2 146.1 494.4 147 494.7 148.1C494.9 149.2 496 150.1 497.1 150.1C498.2 150.2 498.9 149.2 498.7 148.1Z" fill="#D86713"/>
<path d="M528.4 140.4H457.8L449.8 108.5L449.2 106L448.6 104L447.4 99.1H517L518.4 104L519 106L519.6 108.5L528.4 140.4Z" fill="#E9F3FE"/>
<path d="M518.4 104H448.6L447.4 99.1H517L518.4 104Z" fill="#AFCDFB"/>
<path d="M450.3 101.3C450.2 101 450.4 100.7 450.8 100.7C451.1 100.7 451.5 101 451.6 101.3C451.7 101.6 451.5 101.9 451.1 101.9C450.7 101.9 450.4 101.6 450.3 101.3Z" fill="#E9F3FE"/>
<path d="M452.3 101.3C452.2 101 452.4 100.7 452.8 100.7C453.1 100.7 453.5 101 453.6 101.3C453.7 101.6 453.5 101.9 453.1 101.9C452.7 101.9 452.4 101.6 452.3 101.3Z" fill="#E9F3FE"/>
<path d="M454.5 101.3C454.4 101 454.6 100.7 455 100.7C455.3 100.7 455.7 101 455.8 101.3C455.9 101.6 455.7 101.9 455.3 101.9C454.9 101.9 454.6 101.6 454.5 101.3Z" fill="#E9F3FE"/>
<path d="M467.4 114.9H456.7C456.4 114.9 456 114.6 456 114.3C455.9 114 456.1 113.7 456.4 113.7H467.1C467.4 113.7 467.8 114 467.8 114.3C467.9 114.7 467.7 114.9 467.4 114.9Z" fill="#AFCDFB"/>
<path d="M468 117.2H457.3C457 117.2 456.6 116.9 456.6 116.6C456.5 116.3 456.7 116 457 116H467.7C468 116 468.4 116.3 468.4 116.6C468.5 117 468.3 117.2 468 117.2Z" fill="#AFCDFB"/>
<path d="M468.5 119.5H457.8C457.5 119.5 457.1 119.2 457.1 118.9C457 118.6 457.2 118.3 457.5 118.3H468.2C468.5 118.3 468.9 118.6 468.9 118.9C469.1 119.2 468.9 119.5 468.5 119.5Z" fill="#AFCDFB"/>
<path d="M486.4 114.9H475.7C475.4 114.9 475 114.6 475 114.3C474.9 114 475.1 113.7 475.4 113.7H486.1C486.4 113.7 486.8 114 486.8 114.3C487 114.7 486.8 114.9 486.4 114.9Z" fill="#AFCDFB"/>
<path d="M487 117.2H476.3C476 117.2 475.6 116.9 475.6 116.6C475.5 116.3 475.7 116 476 116H486.7C487 116 487.4 116.3 487.4 116.6C487.5 117 487.3 117.2 487 117.2Z" fill="#AFCDFB"/>
<path d="M487.6 119.5H476.9C476.6 119.5 476.2 119.2 476.2 118.9C476.1 118.6 476.3 118.3 476.6 118.3H487.3C487.6 118.3 488 118.6 488 118.9C488.1 119.2 487.9 119.5 487.6 119.5Z" fill="#AFCDFB"/>
<path d="M504.8 114.9H494.1C493.8 114.9 493.4 114.6 493.4 114.3C493.3 114 493.5 113.7 493.8 113.7H504.5C504.8 113.7 505.2 114 505.2 114.3C505.3 114.7 505.1 114.9 504.8 114.9Z" fill="#AFCDFB"/>
<path d="M505.3 117.2H494.6C494.3 117.2 493.9 116.9 493.9 116.6C493.8 116.3 494 116 494.3 116H505C505.3 116 505.7 116.3 505.7 116.6C505.9 117 505.7 117.2 505.3 117.2Z" fill="#AFCDFB"/>
<path d="M505.9 119.5H495.2C494.9 119.5 494.5 119.2 494.5 118.9C494.4 118.6 494.6 118.3 494.9 118.3H505.6C505.9 118.3 506.3 118.6 506.3 118.9C506.4 119.2 506.2 119.5 505.9 119.5Z" fill="#AFCDFB"/>
<path d="M514.6 107.2L515.1 109.3C515.2 109.7 515 110 514.6 110H454.3C453.9 110 453.5 109.7 453.4 109.3L452.9 107.2C452.8 106.8 453 106.5 453.4 106.5H513.7C514.1 106.5 514.5 106.8 514.6 107.2Z" fill="#AFCDFB"/>
<path d="M496.2 106.5L497.1 110H454.4C454 110 453.6 109.7 453.5 109.3L453 107.2C452.9 106.8 453.1 106.5 453.5 106.5H496.2Z" fill="#F1A34F"/>
<path d="M504.6 107.9H503.9L503.8 107.6H504.8L504.9 107.8L504.6 109H504.2L504.6 107.9Z" fill="#699DEE"/>
<path d="M505.2 108.3C505.1 107.9 505.3 107.6 505.6 107.6C506 107.6 506.3 107.9 506.4 108.3C506.5 108.7 506.3 109 506 109C505.7 109.1 505.3 108.8 505.2 108.3ZM506.2 108.3C506.1 108 506 107.8 505.8 107.8C505.6 107.8 505.5 108 505.6 108.3C505.7 108.6 505.8 108.8 506 108.8C506.2 108.8 506.2 108.6 506.2 108.3Z" fill="#699DEE"/>
<path d="M506.6 108C506.6 107.8 506.6 107.6 506.9 107.6C507.1 107.6 507.3 107.8 507.3 108C507.3 108.2 507.3 108.4 507 108.4C506.8 108.3 506.7 108.2 506.6 108ZM507.7 107.6H507.9L507.2 109H507L507.7 107.6ZM507.1 108C507.1 107.9 507 107.8 506.9 107.8C506.8 107.8 506.8 107.9 506.8 108C506.8 108.1 506.9 108.2 507 108.2C507.1 108.2 507.1 108.1 507.1 108ZM507.7 108.7C507.7 108.5 507.7 108.3 508 108.3C508.2 108.3 508.4 108.5 508.4 108.7C508.4 108.9 508.4 109.1 508.1 109.1C507.9 109.1 507.7 108.9 507.7 108.7ZM508.1 108.7C508.1 108.6 508 108.5 507.9 108.5C507.8 108.5 507.8 108.6 507.8 108.7C507.8 108.8 507.9 108.9 508 108.9C508.1 108.9 508.2 108.8 508.1 108.7Z" fill="#699DEE"/>
<path d="M491.2 136.1H485.9C485.2 136.1 484.4 135.5 484.2 134.7L481.6 124.3C481.4 123.5 481.9 122.9 482.6 122.9H487.9C488.6 122.9 489.4 123.5 489.6 124.3L492.2 134.7C492.4 135.5 491.9 136.1 491.2 136.1Z" fill="#AFCDFB"/>
<path d="M500.4 136.1H495.1C494.4 136.1 493.6 135.5 493.4 134.7L490.8 124.3C490.6 123.5 491.1 122.9 491.8 122.9H497.1C497.9 122.9 498.6 123.5 498.8 124.3L501.4 134.7C501.6 135.5 501.2 136.1 500.4 136.1Z" fill="#AFCDFB"/>
<path d="M509.5 136.1H504.2C503.5 136.1 502.7 135.5 502.5 134.7L499.9 124.3C499.7 123.5 500.2 122.9 500.9 122.9H506.2C506.9 122.9 507.7 123.5 507.9 124.3L510.5 134.7C510.7 135.5 510.3 136.1 509.5 136.1Z" fill="#AFCDFB"/>
<path d="M480.6 136.1H462.5C461.2 136.1 460 135.1 459.7 133.8L457.6 125.3C457.3 124 458.1 123 459.3 123H477.4C478.7 123 479.9 124 480.2 125.3L482.3 133.8C482.7 135.1 481.9 136.1 480.6 136.1Z" fill="#AFCDFB"/>
<path d="M477.1 126.3H460.2C459.9 126.3 459.6 126.1 459.6 125.8C459.5 125.5 459.7 125.3 460 125.3H476.9C477.2 125.3 477.5 125.5 477.5 125.8C477.6 126.1 477.4 126.3 477.1 126.3Z" fill="#699DEE"/>
<path d="M477.6 128.3H460.7C460.4 128.3 460.1 128.1 460.1 127.8C460 127.5 460.2 127.3 460.5 127.3H477.4C477.7 127.3 478 127.5 478 127.8C478.1 128.1 477.9 128.3 477.6 128.3Z" fill="#699DEE"/>
<path d="M478.1 130.3H461.2C460.9 130.3 460.6 130.1 460.6 129.8C460.5 129.5 460.7 129.3 461 129.3H477.9C478.2 129.3 478.5 129.5 478.5 129.8C478.6 130.1 478.4 130.3 478.1 130.3Z" fill="#699DEE"/>
<path d="M465.8 132.5H461.8C461.5 132.5 461.2 132.3 461.2 132C461.1 131.7 461.3 131.5 461.6 131.5H465.6C465.9 131.5 466.2 131.7 466.2 132C466.2 132.3 466.1 132.5 465.8 132.5Z" fill="#699DEE"/>
<path d="M541 190.2C541 190.2 531.5 194.9 530.9 200.1C530.3 205.2 532.4 236.4 532.4 236.4C532.4 236.4 542.4 238.3 544.2 236.5C544.2 236.5 546.7 203.2 546.3 201.7C545.9 200.2 573.8 192 576.3 192C578.6 191.9 541 190.2 541 190.2Z" fill="#163560"/>
<path d="M543.4 236.2C543.4 236.2 542.8 245.6 541 245.7C540.8 245.7 531.8 245.7 531.8 245.7L520.3 245.6C520.3 245.6 520.4 242.8 523.7 242.3C527 241.8 532.7 239.4 534.7 234.9C536.9 230.3 543.4 236.2 543.4 236.2Z" fill="#163560"/>
<path d="M511.2 236.2C511.2 236.2 510.6 245.6 508.8 245.7C508.6 245.7 499.6 245.7 499.6 245.7L488.1 245.6C488.1 245.6 488.2 242.8 491.5 242.3C494.9 241.7 500.5 239.4 502.5 234.9C504.7 230.3 511.2 236.2 511.2 236.2Z" fill="#163560"/>
<path d="M581.2 173.4L581 173.5C580.8 172.6 580.2 171.8 579.2 171.2C572.1 167.2 558.6 169.9 558.6 169.9C558.6 169.9 515.1 177 511.1 182.7C507.1 188.4 500.8 237.2 500.8 237.2C500.8 237.2 508.4 239.2 511.5 238C511.5 238 526.5 199.4 527.7 195.2C528.8 191.6 549.4 194.2 559.9 193.5C566.2 193.3 575.9 192.9 578.6 191.9C582.6 190.5 581.2 173.4 581.2 173.4Z" fill="#1C468A"/>
<path d="M565.8 121.2L562.2 125.7L555.4 126C555.3 125.3 555.1 122.5 554.9 120.1C554.7 118.1 554.6 116.4 554.6 116.4L561.8 110.1C561.8 110.1 562.2 112.2 562.2 112.5C563.1 118 565.8 121.2 565.8 121.2Z" fill="#E49963"/>
<path d="M553.8 119.5C553.9 119.4 563 117.3 564 117.6C565 118 565.4 119.9 565.4 119.9L550.6 122.4C550.6 122.5 551.8 120.2 553.8 119.5Z" fill="#E58638"/>
<path d="M552.6 117.1C552.6 117.1 562.3 117.5 562.5 111.5C562.7 105.5 564.1 101.4 557.9 100.9C551.7 100.4 550.4 102.6 549.9 104.6C549.3 106.6 550.1 116.8 552.6 117.1Z" fill="#E49963"/>
<path d="M550 104C550 104 552.3 110.4 553.6 109.7C554.9 109.1 556 108.5 556.4 110.5C556.7 112.5 555.4 115.3 559.7 114.5C563.9 113.8 567.1 101.5 565.4 99.7C560.6 94.8 543.4 98.1 550 104Z" fill="#163560"/>
<path d="M581.2 173.4C578.8 176.3 557.9 175.5 551.8 173.1C551.3 172.9 551 172.7 550.7 172.5C547.1 169.6 555.2 167.1 546.2 145.2C539.7 129.5 546.6 124.4 550.9 121.9C550.9 121.9 563.3 118.1 570.2 120.2C579.3 123 583.8 170.3 581.2 173.4Z" fill="#EE9849"/>
<path d="M559.3 162.7C558.9 165.7 556.5 173 551.8 173.1C551.3 172.9 551 172.7 550.7 172.5C547.1 169.6 555.2 167.1 546.2 145.2C547.7 144.2 550.2 143 551.8 144.8C554.2 147.6 559.7 159.6 559.3 162.7Z" fill="#E58638"/>
<path d="M515.2 162.6C515.2 162.6 511.3 160.3 510 160.2C508.7 160 502.8 165.1 503.6 165.5C504.5 165.9 509 164 509.7 164.4C510.4 164.8 510.9 165.9 511.6 165.9C512.3 165.9 514.7 165.9 514.7 165.9L515.2 162.6Z" fill="#E49963"/>
<path d="M550.9 121.9C550.9 121.9 542.3 126.4 541.2 130.6C540.1 134.8 536 155.2 534.4 156.6C532.8 158 514.6 161.3 514.6 161.3C514.6 161.3 512.5 163.7 513.1 165.8H541.5C541.5 165.8 554.3 147.3 553.4 140.3C552.6 133.4 550.9 121.9 550.9 121.9Z" fill="#EE9849"/>
<path d="M588.5 192.6H529.5C529.5 192.6 530.9 187.5 565 188.3C589.3 188.8 588.5 192.6 588.5 192.6Z" fill="#E5BD9E"/>
<path d="M593.3 245.7C586.5 214 588.2 194.6 588.2 194.3C588.2 193.8 587.2 193.4 586.7 193.4C586.2 193.4 583.8 193.3 583.5 193.7C583.1 194.2 581.8 218.2 592 245.7H593.3Z" fill="#D1A586"/>
<path d="M538.2 245.7C545 214 543.3 194.6 543.3 194.3C543.3 193.8 544.3 193.4 544.8 193.4C545.3 193.4 547.7 193.3 548 193.7C548.4 194.2 549.7 218.2 539.5 245.7H538.2Z" fill="#D1A586"/>
<path d="M527.3 245.7C534.1 214 532.4 194.6 532.4 194.3C532.4 193.8 533.4 193.4 533.9 193.4C534.4 193.4 536.8 193.3 537.1 193.7C537.5 194.2 538.8 218.2 528.6 245.7H527.3Z" fill="#A0795F"/>
<path d="M582.3 245.7C575.5 214 577.2 194.6 577.2 194.3C577.2 193.8 576.2 193.4 575.7 193.4C575.2 193.4 572.8 193.3 572.5 193.7C572.1 194.2 570.8 218.2 581 245.7H582.3Z" fill="#A0795F"/>
<path d="M529.4 194.2H588.5C589.1 194.2 589.7 193.7 589.7 193V192.4C589.7 191.8 589.2 191.2 588.5 191.2H529.4C528.8 191.2 528.2 191.7 528.2 192.4V193C528.3 193.7 528.8 194.2 529.4 194.2Z" fill="#D1A586"/>
<path d="M572.4 177.3C572.8 167.5 573.8 159 574.9 153C576.7 143.5 578.3 138.1 578.3 138C578.5 137.2 581.9 133.8 589.5 133.9C597.1 134 596.4 138.4 596.4 138.4C596.4 138.5 596.4 138.7 596.3 138.8C596.2 139 589.3 162.1 589.6 191.9C589.6 192.3 589.7 193 589.6 193.5C589.6 193.5 572 193.9 572 193.5C571.5 191 571.8 183.8 572.4 177.3Z" fill="#D1A586"/>
<path d="M502.8 165.9C502.8 165.9 507.5 162.2 509.9 163.4C512.3 164.6 512.8 165.9 512.8 165.9H502.8Z" fill="#1C468A"/>
<path d="M353.7 163.4C353.7 163.4 358.2 162.4 359.6 162.8C361 163.2 364.2 165.9 363.4 165.9C362.6 165.9 359.6 164.5 359.1 164.7C358.6 165 356.5 166.1 355.1 165.5C353.8 165 353.7 163.4 353.7 163.4Z" fill="#FFB27D"/>
<path d="M334 131.4C334 131.4 329.6 143.1 329.1 149.5C328.3 159.5 328.3 165.8 328.3 165.8C328.3 165.8 331.1 165.9 338.4 165.8C345.7 165.7 354.2 165.8 354.2 165.8C354.2 165.8 356.4 163.7 353.4 162.1C350.4 160.5 337.9 157.5 338.2 156.3C338.5 155 342.8 137.6 342.8 137.6L334 131.4Z" fill="#6BB7BF"/>
<path d="M355.8 165.9C355.8 165.9 358.5 164 360.3 164.5C362.2 165 363.4 165.9 363.4 165.9H355.8Z" fill="#1C468A"/>
<path d="M1196.6 176.7H1122.5C1120.2 176.7 1118.2 174.8 1118.2 172.4C1118.2 170.1 1120.1 168.1 1122.5 168.1H1196.6C1198.9 168.1 1200.9 170 1200.9 172.4C1200.8 174.8 1198.9 176.7 1196.6 176.7Z" fill="#E0B594"/>
<path d="M1147.3 176.7L1145 185.9L1138.5 211.2L1132.7 233.8C1132.6 234.1 1132.2 234.4 1131.7 234.4C1131.2 234.4 1130.9 234.1 1131 233.8L1136 208.1L1141.3 180.7L1142.1 176.6L1147.3 176.7Z" fill="#C69D7F"/>
<path d="M1145 185.8C1145.3 181.9 1141.3 180.7 1141.3 180.7L1142.1 176.6L1147.4 176.7L1145 185.8Z" fill="#A0795F"/>
<path d="M1174.6 176.7L1176.9 185.9L1183.4 211.2L1189.2 233.8C1189.3 234.1 1189.7 234.4 1190.2 234.4C1190.7 234.4 1191 234.1 1190.9 233.8L1185.9 208.1L1180.6 180.7L1179.8 176.6L1174.6 176.7Z" fill="#C69D7F"/>
<path d="M1177 185.8C1176.7 181.9 1180.7 180.7 1180.7 180.7L1179.9 176.6L1174.6 176.7L1177 185.8Z" fill="#A0795F"/>
<path d="M1187 155.2L1186.9 158.4L1186.6 165.1L1186.5 168.2H1178L1177.8 165.1L1177.4 158.4L1177.2 155.2H1187Z" fill="#C45446"/>
<path d="M1187.2 153H1177.1L1176.7 155.2H1187.5L1187.2 153Z" fill="#DDE3F2"/>
<path d="M1186.9 158.4L1186.6 165.1H1177.8L1177.4 158.4H1186.9Z" fill="#E37970"/>
<path d="M1144.1 156.1L1144 157.4V158.4L1143.7 164.6V165.1L1143.6 168.2H1135.1L1134.9 165.1V164.6L1134.5 158.4L1134.4 157.4L1134.3 155.7V155.6C1134.3 155.6 1136.3 155.2 1137.5 156C1138.7 156.8 1140 155.3 1141.1 155.7C1142.2 156.1 1142.3 156.7 1143.1 156.3C1143.4 156.2 1143.7 156.2 1144.1 156.1Z" fill="#E37970"/>
<path opacity="0.2" d="M1144.2 155.2L1144.1 156.1V157.4L1144 158.4L1143.7 164.6V165.1L1143.6 168.2H1135.1L1134.9 165.1V164.6L1134.5 158.4L1134.4 157.4L1134.3 155.7V155.2H1144.2Z" fill="#E37970"/>
<path opacity="0.2" d="M1144.2 155.2C1144.2 155.1 1144.2 155.1 1144.2 155C1144.2 152.3 1142 150.1 1139.3 150.1C1136.6 150.1 1134.4 152.3 1134.4 155C1134.4 155.1 1134.4 155.1 1134.4 155.2H1144.2Z" fill="#E37970"/>
<path d="M1138.4 167.4L1138 167.3C1138 167 1139.4 148.8 1139.6 147.5C1139.8 146.2 1141.1 145.8 1141.2 145.7L1148.1 144.5L1148.2 144.9L1141.3 146.1C1141.2 146.1 1140.2 146.5 1140 147.5C1139.8 148.8 1138.4 167.3 1138.4 167.4Z" fill="#C45446"/>
<path d="M1144.1 157.4L1144 158.4L1143.7 164.6H1134.9L1134.5 158.4L1134.4 157.4H1144.1Z" fill="#C45446"/>
<path d="M1333.2 206C1333.2 206 1326.9 198.6 1332.8 193.9C1332.8 193.9 1337.1 191.3 1340.7 191.5C1340.7 191.5 1335.7 199.9 1337.3 200.8C1338.9 201.6 1342.2 191 1342.2 191C1342.2 191 1352.1 190 1355.3 191.6C1355.3 191.6 1346.8 198.5 1348.6 198.9C1350.4 199.3 1359.5 192.5 1359.5 192.5C1359.5 192.5 1368.7 194.1 1368.2 199.7C1367.7 205.3 1364.5 207 1363.1 206.9C1361.7 206.8 1353.6 203.6 1353.4 204.8C1353.2 205.9 1358.1 209.7 1361.6 209.8C1361.6 209.8 1355.1 217 1350.8 214.9C1346.5 212.8 1346.1 209.6 1343.4 208.3C1340.7 207.1 1338.4 207.1 1339.5 208.3C1340.6 209.6 1345.5 210.8 1347 213.5C1348.5 216.2 1349.9 218.1 1345.5 217.4C1341 216.7 1333.8 213.5 1333.5 209.7C1333.2 206 1333.2 206 1333.2 206Z" fill="#82B378"/>
<path d="M1363.7 199.8C1363.7 199.8 1338.7 198.8 1333.2 206C1333.2 206 1332 209.7 1328.2 213L1327.6 214.6C1327.6 214.6 1331.9 210 1333.5 209.8C1333.5 209.7 1331.1 200.9 1363.7 199.8Z" fill="#82B378"/>
<path d="M1328.2 213C1328.2 213 1322.8 217 1322.5 224.1L1323.5 224.2C1323.5 224.2 1325.2 216.9 1328.3 214C1331.3 211.1 1328.2 213 1328.2 213Z" fill="#82B378"/>
<path d="M1311 196.7C1311 196.7 1321.1 191.1 1316.4 183.4C1316.4 183.4 1312.6 178.7 1308.6 177.5C1308.6 177.5 1310.8 188.9 1308.6 189.2C1306.4 189.5 1307.1 176.3 1307.1 176.3C1307.1 176.3 1296.5 171.2 1292.3 171.6C1292.3 171.6 1298.9 182.8 1296.7 182.5C1294.5 182.2 1287.2 170.9 1287.2 170.9C1287.2 170.9 1276.3 168.9 1274.6 175.3C1272.9 181.8 1275.7 185 1277.3 185.4C1278.9 185.8 1289.3 185.7 1289 187C1288.7 188.3 1281.7 190.5 1277.8 189.3C1277.8 189.3 1282.1 199.9 1287.7 199.4C1293.3 198.9 1295.1 195.4 1298.6 195.1C1302.1 194.8 1304.6 195.8 1302.9 196.7C1301.2 197.6 1295.2 197 1292.4 199.4C1289.6 201.8 1287.3 203.3 1292.5 204.4C1297.7 205.5 1307.2 204.8 1309 200.8C1311 196.7 1311 196.7 1311 196.7Z" fill="#A8D29F"/>
<path d="M1279.5 177.3C1279.5 177.3 1307.7 186.4 1311 196.7C1311 196.7 1310.9 201.3 1313.7 206.5V208.5C1313.7 208.5 1310.7 201.6 1309.1 200.7C1309.1 200.7 1315.4 191.9 1279.5 177.3Z" fill="#82B378"/>
<path d="M1313.7 206.5C1313.7 206.5 1318.1 213.1 1315.6 221.2L1314.5 220.9C1314.5 220.9 1315.6 212 1313.3 207.6C1311 203.1 1313.7 206.5 1313.7 206.5Z" fill="#82B378"/>
<path d="M1327 188.9C1327 188.9 1313.7 181.5 1319.9 171.4C1319.9 171.4 1324.9 165.2 1330.2 163.6C1330.2 163.6 1327.4 178.7 1330.2 179C1333 179.4 1332.1 162 1332.1 162C1332.1 162 1346.1 155.3 1351.6 155.8C1351.6 155.8 1342.9 170.5 1345.8 170.2C1348.6 169.8 1358.4 155 1358.4 155C1358.4 155 1372.8 152.3 1375.1 160.8C1377.4 169.3 1373.7 173.6 1371.6 174.1C1369.5 174.6 1355.8 174.5 1356.2 176.2C1356.6 178 1365.8 180.8 1370.9 179.2C1370.9 179.2 1365.2 193.2 1357.8 192.5C1350.4 191.8 1348.1 187.2 1343.4 186.8C1338.8 186.4 1335.4 187.7 1337.7 188.9C1340 190.1 1347.8 189.3 1351.5 192.5C1355.2 195.7 1358.2 197.6 1351.3 199C1344.4 200.4 1332 199.5 1329.5 194.2C1327 188.9 1327 188.9 1327 188.9Z" fill="#A8D29F"/>
<path d="M1368.5 163.4C1368.5 163.4 1331.3 175.4 1327 188.9C1327 188.9 1327.2 194.9 1323.5 201.8V204.5C1323.5 204.5 1327.4 195.5 1329.5 194.2C1329.5 194.2 1321.2 182.5 1368.5 163.4Z" fill="#82B378"/>
<path d="M1323.5 201.8C1323.5 201.8 1317.8 210.5 1321 221.1L1322.5 220.7C1322.5 220.7 1321.1 209 1324.1 203.1C1327.1 197.3 1323.5 201.8 1323.5 201.8Z" fill="#82B378"/>
<path d="M1326.6 244.2C1341 244.2 1352.6 232.5 1352.6 218.2H1300.5C1300.6 232.5 1312.2 244.2 1326.6 244.2Z" fill="#F1A34F"/>
<path d="M1333 244C1331.9 244.1 1330.9 244.2 1329.8 244.2C1315.4 244.2 1303.8 232.5 1303.8 218.2H1310.3C1310.2 231.4 1320.1 242.4 1333 244Z" fill="#FFB973"/>
<path d="M1353 245.5H1300.2C1300.2 243.7 1301.6 242.3 1303.4 242.3H1349.8C1351.5 242.3 1353 243.7 1353 245.5Z" fill="#F1A34F"/>
<path d="M1353.2 218.1H1299.7V218.9H1353.2V218.1Z" fill="#D86713"/>
<path d="M1899.6 248.8H124.3C123.3 248.8 122.5 248 122.5 247V246.8C122.5 245.8 123.3 245 124.3 245H1899.6C1900.6 245 1901.4 245.8 1901.4 246.8V247C1901.4 248 1900.6 248.8 1899.6 248.8Z" fill="#333"/>
<path d="M228.5 182.1C228.5 182.1 242.1 174.3 236.7 147.2" stroke="#000103" stroke-width="1.2923" stroke-miterlimit="10"/>
<path d="M236.4 99.9H229.8V152.9H236.4V99.9Z" fill="#3F51B5"/>
<path d="M235.7 152.9C230.2 152.9 225.7 148.4 225.7 142.9V109.9C225.7 104.4 230.2 99.9 235.7 99.9C241.2 99.9 245.7 104.4 245.7 109.9V142.9C245.7 148.4 241.2 152.9 235.7 152.9Z" fill="#3F51B5"/>
<path d="M231 152.9C226.1 152.9 222.1 148.9 222.1 144V108.8C222.1 103.9 226.1 99.9 231 99.9C235.9 99.9 239.9 103.9 239.9 108.8V144C239.9 148.9 235.9 152.9 231 152.9Z" fill="#2A3F96"/>
<path d="M213.8 183.5H206.2V225.1H213.8V183.5Z" fill="#FEFEFF"/>
<path d="M208.2 219.9L186.5 229.7L186.8 232.5L209.4 225.2L208.2 219.9Z" fill="#FEFEFF"/>
<path d="M211.9 219.9L233.6 229.7L233.3 232.5L210.6 225.2L211.9 219.9Z" fill="#FEFEFF"/>
<path d="M187.5 242.7C190.372 242.7 192.7 240.372 192.7 237.5C192.7 234.628 190.372 232.3 187.5 232.3C184.628 232.3 182.3 234.628 182.3 237.5C182.3 240.372 184.628 242.7 187.5 242.7Z" fill="#000103"/>
<path d="M233.6 242.7C236.472 242.7 238.8 240.372 238.8 237.5C238.8 234.628 236.472 232.3 233.6 232.3C230.728 232.3 228.4 234.628 228.4 237.5C228.4 240.372 230.728 242.7 233.6 242.7Z" fill="#000103"/>
<path d="M231.3 186.4H187.5C185.1 186.4 183.1 184.4 183.1 182C183.1 179.6 185.1 177.6 187.5 177.6H231.3C233.7 177.6 235.7 179.6 235.7 182C235.7 184.5 233.7 186.4 231.3 186.4Z" fill="#3F51B5"/>
<path d="M180.1 90.9L189.4 101.2L198.4 91.8L184.5 76.6L180.1 90.9Z" fill="#F1BA9A"/>
<path d="M185.5 96.9C185.3 96.7 184.3 88.5 184.3 88.5L181.1 92L185.5 96.9Z" fill="#D89877"/>
<path d="M166.1 67.4C166.1 67.4 160.8 70.8 163.6 78.1C163.6 78.1 165.7 83.4 168.7 90.9C170.3 94.9 175.3 96.6 178.8 94C180.9 92.5 183.2 90.3 184.7 87.5L186.7 83C190.7 71.1 177.7 60.4 166.9 66.8C166.6 67.1 166.4 67.2 166.1 67.4Z" fill="#F1BA9A"/>
<path d="M166.8 83.7L165.3 87.3C165.1 87.8 165.6 88.3 166.1 88.1L168.8 87.3L166.8 83.7Z" fill="#F1BA9A"/>
<path d="M167 77.1C167 77.1 165 77.6 165.2 78.5C165.2 78.5 165.4 79.1 167.1 78.6C168.9 78.1 169.3 77.8 169.3 77.2C169.3 76.6 168 76.8 167 77.1Z" fill="black"/>
<path d="M190 64.6C188.2 61.8 183.9 59.8 180.6 59.7C166.5 59.4 162.9 71.9 162.9 71.9C180.3 58.7 179.3 77 179.3 77C179.3 77 182.6 79 183.5 80.1C187.2 85 190.6 83.5 190.6 83.5C191.6 74 192.9 69.1 190 64.6Z" fill="#FA584E"/>
<path d="M167.987 83.999C168.482 83.9509 168.844 83.5109 168.796 83.0162C168.748 82.5215 168.308 82.1594 167.813 82.2074C167.319 82.2555 166.956 82.6955 167.005 83.1902C167.053 83.685 167.493 84.0471 167.987 83.999Z" fill="black"/>
<path d="M169.2 89.1L171 87.7" stroke="black" stroke-width="0.6455" stroke-miterlimit="10" stroke-linecap="round" stroke-linejoin="round"/>
<path d="M179.7 79.3C177.7 79.5 175.9 78.2 175.4 76.2L174.1 70.3C174.1 70.3 168.6 76.6 165.3 71.5C165.3 71.5 157.1 76.1 155.4 70.3C153.6 64.5 159 63 170.8 59.5C170.8 59.5 168.5 57.5 170.2 56.4C171.9 55.3 175.6 57.8 175.6 57.8C175.6 57.8 175.6 54.4 177.7 54.3C179.7 54.3 180.8 56.6 180.8 56.6C180.8 56.6 195.3 54.2 193.2 70.2L190.7 83.2L182.2 76.9L179.7 79.3Z" fill="#FA584E"/>
<path d="M184.708 81.6338C186.707 80.5709 187.466 78.0884 186.404 76.089C185.341 74.0895 182.858 73.3303 180.859 74.3932C178.859 75.4561 178.1 77.9386 179.163 79.938C180.226 81.9375 182.708 82.6967 184.708 81.6338Z" fill="#F1BA9A"/>
<path d="M181.6 79.6C181.6 79.6 180.2 76.9 182.9 76" stroke="black" stroke-width="0.6455" stroke-miterlimit="10" stroke-linecap="round" stroke-linejoin="round"/>
<path d="M188.3 101.4C188.3 101.4 188.2 108.8 193.1 120.7C197.9 132.7 196.1 153.5 196.1 153.5C196.1 153.5 209.6 160.8 229.9 160.5C229.9 160.5 232 128.1 222.4 108.2C213.6 90 198.2 91.4 198.2 91.4L188.3 101.4Z" fill="#FEFEFF"/>
<path d="M135.8 141.5H107V144.7H135.8V141.5Z" fill="#FEFEFF"/>
<path d="M162.8 132.7L135.8 138.6L134.9 144.6H172.5L162.8 132.7Z" fill="#F1BA9A"/>
<path d="M134.9 144.6C134.9 144.6 124.9 144.4 122.6 136.6L114.1 137.8C113.1 137.8 112.3 137 112.3 136C112.3 135.1 112.9 134.4 113.8 134.2L120.6 132.2C121.5 132 122.4 132 123.3 132.2C125.4 132.6 130.5 135.2 135.9 138.6L134.9 144.6Z" fill="#F1BA9A"/>
<path d="M190 101.3L162.8 132.7L172.5 144.6L205.9 118.4L190 101.3Z" fill="#FEFEFF"/>
<path d="M194.9 127L205.9 118.4" stroke="#EBEFF2" stroke-width="0.9693" stroke-miterlimit="10"/>
<path d="M163.8 212.4L172.7 230.3L183.9 229.6L176.6 209.7L163.8 212.4Z" fill="#F1BA9A"/>
<path d="M171.1 227.9L155 236.6C153.8 237.2 153.2 238.6 153.5 239.9L188.3 239.2L184.3 227.5L171.1 227.9Z" fill="#000103"/>
<path d="M189.1 242.6L153.3 243.3L153.2 239.8L189 239.1L189.1 242.6Z" fill="#FEFEFF"/>
<path d="M162.8 223.1L182 219.3L168.3 169C166.5 162.5 159.5 158.9 153.2 161.1C147.1 163.3 143.8 170 146.1 176.1L162.8 223.1Z" fill="#746256"/>
<path d="M196.1 153.5L154.6 160.8C154.6 160.8 151.4 166.6 154.1 170L158.7 175.8C159.8 177.2 161.5 179.3 163.3 179.3L214.2 178C214.2 178 230.2 179.6 230 160.5L196.1 153.5Z" fill="#746256"/>
<path d="M171 178.8L165.8 174.6" stroke="#5B493D" stroke-width="0.9693" stroke-miterlimit="10"/>
<path d="M85 88.4H81.9V144H85V88.4Z" fill="#FEFEFF"/>
<path d="M99.8 141.5H68.3V144.6H99.8V141.5Z" fill="#FEFEFF"/>
<path d="M79.8706 47.5681L72.9116 50.0848L99.3714 123.248L106.33 120.731L79.8706 47.5681Z" fill="#FEFEFF"/>
<path d="M79.3 86.2C79.3 91.5 83.6 95.7 88.8 95.7C91.4 95.7 93.7 94.7 95.4 93C93.3 87.5 91.2 82 88.1 76.6C83.3 77.1 79.3 81.2 79.3 86.2Z" fill="#FEFEFF"/>
<path d="M83.3 78.5L86.5 95.4C86.5 95.4 87.7 95.9 89.5 95.7L83.3 78.5Z" fill="#C6C6C6"/>
<path d="M63.7 151.6V243.3" stroke="#FEFEFF" stroke-width="2.5847" stroke-miterlimit="10"/>
<path d="M158.6 151.6V243.3" stroke="#FEFEFF" stroke-width="2.5847" stroke-miterlimit="10"/>
<path d="M181.9 144.6H44.4V151.6H181.9V144.6Z" fill="#213033"/>
<path d="M302.1 243.3H0" stroke="#213033" stroke-width="1.2923" stroke-miterlimit="10"/>
</g>
<defs>
<clipPath id="clip0">
<rect width="1907" height="248.8" fill="white"/>
</clipPath>
</defs>
</svg>
